<?xml version="1.0" encoding="utf-8" standalone="no"?>
<!DOCTYPE svg PUBLIC "-//W3C//DTD SVG 1.1//EN"
  "http://www.w3.org/Graphics/SVG/1.1/DTD/svg11.dtd">
<!-- Created with matplotlib (https://matplotlib.org/) -->
<svg height="504pt" version="1.1" viewBox="0 0 504 504" width="504pt" xmlns="http://www.w3.org/2000/svg" xmlns:xlink="http://www.w3.org/1999/xlink">
 <metadata>
  <rdf:RDF xmlns:cc="http://creativecommons.org/ns#" xmlns:dc="http://purl.org/dc/elements/1.1/" xmlns:rdf="http://www.w3.org/1999/02/22-rdf-syntax-ns#">
   <cc:Work>
    <dc:type rdf:resource="http://purl.org/dc/dcmitype/StillImage"/>
    <dc:date>2021-02-10T13:13:24.193769</dc:date>
    <dc:format>image/svg+xml</dc:format>
    <dc:creator>
     <cc:Agent>
      <dc:title>Matplotlib v3.3.3, https://matplotlib.org/</dc:title>
     </cc:Agent>
    </dc:creator>
   </cc:Work>
  </rdf:RDF>
 </metadata>
 <defs>
  <style type="text/css">*{stroke-linecap:butt;stroke-linejoin:round;}</style>
 </defs>
 <g id="figure_1">
  <g id="patch_1">
   <path d="M 0 504 
L 504 504 
L 504 0 
L 0 0 
z
" style="fill:#ffffff;"/>
  </g>
  <g id="axes_1">
   <g id="patch_2">
    <path d="M 54.815 457.06 
L 410.889429 457.06 
L 410.889429 94.460571 
L 54.815 94.460571 
z
" style="fill:#ffffff;"/>
   </g>
   <g id="matplotlib.axis_1">
    <g id="xtick_1">
     <g id="line2d_1">
      <defs>
       <path d="M 0 0 
L 0 9 
" id="m25eef45a56" style="stroke:#262626;stroke-width:1.875;"/>
      </defs>
      <g>
       <use style="fill:#262626;stroke:#262626;stroke-width:1.875;" x="101.023132" xlink:href="#m25eef45a56" y="457.06"/>
      </g>
     </g>
     <g id="text_1">
      <!-- 100 -->
      <g style="fill:#262626;" transform="translate(87.259812 481.370391)scale(0.165 -0.165)">
       <defs>
        <path d="M 37.25 0 
L 28.46875 0 
L 28.46875 56 
Q 25.296875 52.984375 20.140625 49.953125 
Q 14.984375 46.921875 10.890625 45.40625 
L 10.890625 53.90625 
Q 18.265625 57.375 23.78125 62.296875 
Q 29.296875 67.234375 31.59375 71.875 
L 37.25 71.875 
z
" id="ArialMT-49"/>
        <path d="M 4.15625 35.296875 
Q 4.15625 48 6.765625 55.734375 
Q 9.375 63.484375 14.515625 67.671875 
Q 19.671875 71.875 27.484375 71.875 
Q 33.25 71.875 37.59375 69.546875 
Q 41.9375 67.234375 44.765625 62.859375 
Q 47.609375 58.5 49.21875 52.21875 
Q 50.828125 45.953125 50.828125 35.296875 
Q 50.828125 22.703125 48.234375 14.96875 
Q 45.65625 7.234375 40.5 3 
Q 35.359375 -1.21875 27.484375 -1.21875 
Q 17.140625 -1.21875 11.234375 6.203125 
Q 4.15625 15.140625 4.15625 35.296875 
z
M 13.1875 35.296875 
Q 13.1875 17.671875 17.3125 11.828125 
Q 21.4375 6 27.484375 6 
Q 33.546875 6 37.671875 11.859375 
Q 41.796875 17.71875 41.796875 35.296875 
Q 41.796875 52.984375 37.671875 58.78125 
Q 33.546875 64.59375 27.390625 64.59375 
Q 21.34375 64.59375 17.71875 59.46875 
Q 13.1875 52.9375 13.1875 35.296875 
z
" id="ArialMT-48"/>
       </defs>
       <use xlink:href="#ArialMT-49"/>
       <use x="55.615234" xlink:href="#ArialMT-48"/>
       <use x="111.230469" xlink:href="#ArialMT-48"/>
      </g>
     </g>
    </g>
    <g id="xtick_2">
     <g id="line2d_2">
      <g>
       <use style="fill:#262626;stroke:#262626;stroke-width:1.875;" x="168.976267" xlink:href="#m25eef45a56" y="457.06"/>
      </g>
     </g>
     <g id="text_2">
      <!-- 150 -->
      <g style="fill:#262626;" transform="translate(155.212947 481.370391)scale(0.165 -0.165)">
       <defs>
        <path d="M 4.15625 18.75 
L 13.375 19.53125 
Q 14.40625 12.796875 18.140625 9.390625 
Q 21.875 6 27.15625 6 
Q 33.5 6 37.890625 10.78125 
Q 42.28125 15.578125 42.28125 23.484375 
Q 42.28125 31 38.0625 35.34375 
Q 33.84375 39.703125 27 39.703125 
Q 22.75 39.703125 19.328125 37.765625 
Q 15.921875 35.84375 13.96875 32.765625 
L 5.71875 33.84375 
L 12.640625 70.609375 
L 48.25 70.609375 
L 48.25 62.203125 
L 19.671875 62.203125 
L 15.828125 42.96875 
Q 22.265625 47.46875 29.34375 47.46875 
Q 38.71875 47.46875 45.15625 40.96875 
Q 51.609375 34.46875 51.609375 24.265625 
Q 51.609375 14.546875 45.953125 7.46875 
Q 39.0625 -1.21875 27.15625 -1.21875 
Q 17.390625 -1.21875 11.203125 4.25 
Q 5.03125 9.71875 4.15625 18.75 
z
" id="ArialMT-53"/>
       </defs>
       <use xlink:href="#ArialMT-49"/>
       <use x="55.615234" xlink:href="#ArialMT-53"/>
       <use x="111.230469" xlink:href="#ArialMT-48"/>
      </g>
     </g>
    </g>
    <g id="xtick_3">
     <g id="line2d_3">
      <g>
       <use style="fill:#262626;stroke:#262626;stroke-width:1.875;" x="236.929402" xlink:href="#m25eef45a56" y="457.06"/>
      </g>
     </g>
     <g id="text_3">
      <!-- 200 -->
      <g style="fill:#262626;" transform="translate(223.166082 481.370391)scale(0.165 -0.165)">
       <defs>
        <path d="M 50.34375 8.453125 
L 50.34375 0 
L 3.03125 0 
Q 2.9375 3.171875 4.046875 6.109375 
Q 5.859375 10.9375 9.828125 15.625 
Q 13.8125 20.3125 21.34375 26.46875 
Q 33.015625 36.03125 37.109375 41.625 
Q 41.21875 47.21875 41.21875 52.203125 
Q 41.21875 57.421875 37.46875 61 
Q 33.734375 64.59375 27.734375 64.59375 
Q 21.390625 64.59375 17.578125 60.78125 
Q 13.765625 56.984375 13.71875 50.25 
L 4.6875 51.171875 
Q 5.609375 61.28125 11.65625 66.578125 
Q 17.71875 71.875 27.9375 71.875 
Q 38.234375 71.875 44.234375 66.15625 
Q 50.25 60.453125 50.25 52 
Q 50.25 47.703125 48.484375 43.546875 
Q 46.734375 39.40625 42.65625 34.8125 
Q 38.578125 30.21875 29.109375 22.21875 
Q 21.1875 15.578125 18.9375 13.203125 
Q 16.703125 10.84375 15.234375 8.453125 
z
" id="ArialMT-50"/>
       </defs>
       <use xlink:href="#ArialMT-50"/>
       <use x="55.615234" xlink:href="#ArialMT-48"/>
       <use x="111.230469" xlink:href="#ArialMT-48"/>
      </g>
     </g>
    </g>
    <g id="xtick_4">
     <g id="line2d_4">
      <g>
       <use style="fill:#262626;stroke:#262626;stroke-width:1.875;" x="304.882538" xlink:href="#m25eef45a56" y="457.06"/>
      </g>
     </g>
     <g id="text_4">
      <!-- 250 -->
      <g style="fill:#262626;" transform="translate(291.119217 481.370391)scale(0.165 -0.165)">
       <use xlink:href="#ArialMT-50"/>
       <use x="55.615234" xlink:href="#ArialMT-53"/>
       <use x="111.230469" xlink:href="#ArialMT-48"/>
      </g>
     </g>
    </g>
    <g id="xtick_5">
     <g id="line2d_5">
      <g>
       <use style="fill:#262626;stroke:#262626;stroke-width:1.875;" x="372.835673" xlink:href="#m25eef45a56" y="457.06"/>
      </g>
     </g>
     <g id="text_5">
      <!-- 300 -->
      <g style="fill:#262626;" transform="translate(359.072353 481.370391)scale(0.165 -0.165)">
       <defs>
        <path d="M 4.203125 18.890625 
L 12.984375 20.0625 
Q 14.5 12.59375 18.140625 9.296875 
Q 21.78125 6 27 6 
Q 33.203125 6 37.46875 10.296875 
Q 41.75 14.59375 41.75 20.953125 
Q 41.75 27 37.796875 30.921875 
Q 33.84375 34.859375 27.734375 34.859375 
Q 25.25 34.859375 21.53125 33.890625 
L 22.515625 41.609375 
Q 23.390625 41.5 23.921875 41.5 
Q 29.546875 41.5 34.03125 44.421875 
Q 38.53125 47.359375 38.53125 53.46875 
Q 38.53125 58.296875 35.25 61.46875 
Q 31.984375 64.65625 26.8125 64.65625 
Q 21.6875 64.65625 18.265625 61.421875 
Q 14.84375 58.203125 13.875 51.765625 
L 5.078125 53.328125 
Q 6.6875 62.15625 12.390625 67.015625 
Q 18.109375 71.875 26.609375 71.875 
Q 32.46875 71.875 37.390625 69.359375 
Q 42.328125 66.84375 44.9375 62.5 
Q 47.5625 58.15625 47.5625 53.265625 
Q 47.5625 48.640625 45.0625 44.828125 
Q 42.578125 41.015625 37.703125 38.765625 
Q 44.046875 37.3125 47.5625 32.6875 
Q 51.078125 28.078125 51.078125 21.140625 
Q 51.078125 11.765625 44.234375 5.25 
Q 37.40625 -1.265625 26.953125 -1.265625 
Q 17.53125 -1.265625 11.296875 4.34375 
Q 5.078125 9.96875 4.203125 18.890625 
z
" id="ArialMT-51"/>
       </defs>
       <use xlink:href="#ArialMT-51"/>
       <use x="55.615234" xlink:href="#ArialMT-48"/>
       <use x="111.230469" xlink:href="#ArialMT-48"/>
      </g>
     </g>
    </g>
    <g id="text_6">
     <!-- Number of heartbeats reported -->
     <g style="fill:#262626;" transform="translate(109.794089 501.753203)scale(0.18 -0.18)">
      <defs>
       <path d="M 7.625 0 
L 7.625 71.578125 
L 17.328125 71.578125 
L 54.9375 15.375 
L 54.9375 71.578125 
L 64.015625 71.578125 
L 64.015625 0 
L 54.296875 0 
L 16.703125 56.25 
L 16.703125 0 
z
" id="ArialMT-78"/>
       <path d="M 40.578125 0 
L 40.578125 7.625 
Q 34.515625 -1.171875 24.125 -1.171875 
Q 19.53125 -1.171875 15.546875 0.578125 
Q 11.578125 2.34375 9.640625 5 
Q 7.71875 7.671875 6.9375 11.53125 
Q 6.390625 14.109375 6.390625 19.734375 
L 6.390625 51.859375 
L 15.1875 51.859375 
L 15.1875 23.09375 
Q 15.1875 16.21875 15.71875 13.8125 
Q 16.546875 10.359375 19.234375 8.375 
Q 21.921875 6.390625 25.875 6.390625 
Q 29.828125 6.390625 33.296875 8.421875 
Q 36.765625 10.453125 38.203125 13.9375 
Q 39.65625 17.4375 39.65625 24.078125 
L 39.65625 51.859375 
L 48.4375 51.859375 
L 48.4375 0 
z
" id="ArialMT-117"/>
       <path d="M 6.59375 0 
L 6.59375 51.859375 
L 14.453125 51.859375 
L 14.453125 44.578125 
Q 16.890625 48.390625 20.9375 50.703125 
Q 25 53.03125 30.171875 53.03125 
Q 35.9375 53.03125 39.625 50.640625 
Q 43.3125 48.25 44.828125 43.953125 
Q 50.984375 53.03125 60.84375 53.03125 
Q 68.5625 53.03125 72.703125 48.75 
Q 76.859375 44.484375 76.859375 35.59375 
L 76.859375 0 
L 68.109375 0 
L 68.109375 32.671875 
Q 68.109375 37.9375 67.25 40.25 
Q 66.40625 42.578125 64.15625 43.984375 
Q 61.921875 45.40625 58.890625 45.40625 
Q 53.421875 45.40625 49.796875 41.765625 
Q 46.1875 38.140625 46.1875 30.125 
L 46.1875 0 
L 37.40625 0 
L 37.40625 33.6875 
Q 37.40625 39.546875 35.25 42.46875 
Q 33.109375 45.40625 28.21875 45.40625 
Q 24.515625 45.40625 21.359375 43.453125 
Q 18.21875 41.5 16.796875 37.734375 
Q 15.375 33.984375 15.375 26.90625 
L 15.375 0 
z
" id="ArialMT-109"/>
       <path d="M 14.703125 0 
L 6.546875 0 
L 6.546875 71.578125 
L 15.328125 71.578125 
L 15.328125 46.046875 
Q 20.90625 53.03125 29.546875 53.03125 
Q 34.328125 53.03125 38.59375 51.09375 
Q 42.875 49.171875 45.625 45.671875 
Q 48.390625 42.1875 49.953125 37.25 
Q 51.515625 32.328125 51.515625 26.703125 
Q 51.515625 13.375 44.921875 6.09375 
Q 38.328125 -1.171875 29.109375 -1.171875 
Q 19.921875 -1.171875 14.703125 6.5 
z
M 14.59375 26.3125 
Q 14.59375 17 17.140625 12.84375 
Q 21.296875 6.0625 28.375 6.0625 
Q 34.125 6.0625 38.328125 11.0625 
Q 42.53125 16.0625 42.53125 25.984375 
Q 42.53125 36.140625 38.5 40.96875 
Q 34.46875 45.796875 28.765625 45.796875 
Q 23 45.796875 18.796875 40.796875 
Q 14.59375 35.796875 14.59375 26.3125 
z
" id="ArialMT-98"/>
       <path d="M 42.09375 16.703125 
L 51.171875 15.578125 
Q 49.03125 7.625 43.21875 3.21875 
Q 37.40625 -1.171875 28.375 -1.171875 
Q 17 -1.171875 10.328125 5.828125 
Q 3.65625 12.84375 3.65625 25.484375 
Q 3.65625 38.578125 10.390625 45.796875 
Q 17.140625 53.03125 27.875 53.03125 
Q 38.28125 53.03125 44.875 45.953125 
Q 51.46875 38.875 51.46875 26.03125 
Q 51.46875 25.25 51.421875 23.6875 
L 12.75 23.6875 
Q 13.234375 15.140625 17.578125 10.59375 
Q 21.921875 6.0625 28.421875 6.0625 
Q 33.25 6.0625 36.671875 8.59375 
Q 40.09375 11.140625 42.09375 16.703125 
z
M 13.234375 30.90625 
L 42.1875 30.90625 
Q 41.609375 37.453125 38.875 40.71875 
Q 34.671875 45.796875 27.984375 45.796875 
Q 21.921875 45.796875 17.796875 41.75 
Q 13.671875 37.703125 13.234375 30.90625 
z
" id="ArialMT-101"/>
       <path d="M 6.5 0 
L 6.5 51.859375 
L 14.40625 51.859375 
L 14.40625 44 
Q 17.4375 49.515625 20 51.265625 
Q 22.5625 53.03125 25.640625 53.03125 
Q 30.078125 53.03125 34.671875 50.203125 
L 31.640625 42.046875 
Q 28.421875 43.953125 25.203125 43.953125 
Q 22.3125 43.953125 20.015625 42.21875 
Q 17.71875 40.484375 16.75 37.40625 
Q 15.28125 32.71875 15.28125 27.15625 
L 15.28125 0 
z
" id="ArialMT-114"/>
       <path id="ArialMT-32"/>
       <path d="M 3.328125 25.921875 
Q 3.328125 40.328125 11.328125 47.265625 
Q 18.015625 53.03125 27.640625 53.03125 
Q 38.328125 53.03125 45.109375 46.015625 
Q 51.90625 39.015625 51.90625 26.65625 
Q 51.90625 16.65625 48.90625 10.90625 
Q 45.90625 5.171875 40.15625 2 
Q 34.421875 -1.171875 27.640625 -1.171875 
Q 16.75 -1.171875 10.03125 5.8125 
Q 3.328125 12.796875 3.328125 25.921875 
z
M 12.359375 25.921875 
Q 12.359375 15.96875 16.703125 11.015625 
Q 21.046875 6.0625 27.640625 6.0625 
Q 34.1875 6.0625 38.53125 11.03125 
Q 42.875 16.015625 42.875 26.21875 
Q 42.875 35.84375 38.5 40.796875 
Q 34.125 45.75 27.640625 45.75 
Q 21.046875 45.75 16.703125 40.8125 
Q 12.359375 35.890625 12.359375 25.921875 
z
" id="ArialMT-111"/>
       <path d="M 8.6875 0 
L 8.6875 45.015625 
L 0.921875 45.015625 
L 0.921875 51.859375 
L 8.6875 51.859375 
L 8.6875 57.375 
Q 8.6875 62.59375 9.625 65.140625 
Q 10.890625 68.5625 14.078125 70.671875 
Q 17.28125 72.796875 23.046875 72.796875 
Q 26.765625 72.796875 31.25 71.921875 
L 29.9375 64.265625 
Q 27.203125 64.75 24.75 64.75 
Q 20.75 64.75 19.09375 63.03125 
Q 17.4375 61.328125 17.4375 56.640625 
L 17.4375 51.859375 
L 27.546875 51.859375 
L 27.546875 45.015625 
L 17.4375 45.015625 
L 17.4375 0 
z
" id="ArialMT-102"/>
       <path d="M 6.59375 0 
L 6.59375 71.578125 
L 15.375 71.578125 
L 15.375 45.90625 
Q 21.53125 53.03125 30.90625 53.03125 
Q 36.671875 53.03125 40.921875 50.75 
Q 45.171875 48.484375 47 44.484375 
Q 48.828125 40.484375 48.828125 32.859375 
L 48.828125 0 
L 40.046875 0 
L 40.046875 32.859375 
Q 40.046875 39.453125 37.1875 42.453125 
Q 34.328125 45.453125 29.109375 45.453125 
Q 25.203125 45.453125 21.75 43.421875 
Q 18.3125 41.40625 16.84375 37.9375 
Q 15.375 34.46875 15.375 28.375 
L 15.375 0 
z
" id="ArialMT-104"/>
       <path d="M 40.4375 6.390625 
Q 35.546875 2.25 31.03125 0.53125 
Q 26.515625 -1.171875 21.34375 -1.171875 
Q 12.796875 -1.171875 8.203125 3 
Q 3.609375 7.171875 3.609375 13.671875 
Q 3.609375 17.484375 5.34375 20.625 
Q 7.078125 23.78125 9.890625 25.6875 
Q 12.703125 27.59375 16.21875 28.5625 
Q 18.796875 29.25 24.03125 29.890625 
Q 34.671875 31.15625 39.703125 32.90625 
Q 39.75 34.71875 39.75 35.203125 
Q 39.75 40.578125 37.25 42.78125 
Q 33.890625 45.75 27.25 45.75 
Q 21.046875 45.75 18.09375 43.578125 
Q 15.140625 41.40625 13.71875 35.890625 
L 5.125 37.0625 
Q 6.296875 42.578125 8.984375 45.96875 
Q 11.671875 49.359375 16.75 51.1875 
Q 21.828125 53.03125 28.515625 53.03125 
Q 35.15625 53.03125 39.296875 51.46875 
Q 43.453125 49.90625 45.40625 47.53125 
Q 47.359375 45.171875 48.140625 41.546875 
Q 48.578125 39.3125 48.578125 33.453125 
L 48.578125 21.734375 
Q 48.578125 9.46875 49.140625 6.21875 
Q 49.703125 2.984375 51.375 0 
L 42.1875 0 
Q 40.828125 2.734375 40.4375 6.390625 
z
M 39.703125 26.03125 
Q 34.90625 24.078125 25.34375 22.703125 
Q 19.921875 21.921875 17.671875 20.9375 
Q 15.4375 19.96875 14.203125 18.09375 
Q 12.984375 16.21875 12.984375 13.921875 
Q 12.984375 10.40625 15.640625 8.0625 
Q 18.3125 5.71875 23.4375 5.71875 
Q 28.515625 5.71875 32.46875 7.9375 
Q 36.421875 10.15625 38.28125 14.015625 
Q 39.703125 17 39.703125 22.796875 
z
" id="ArialMT-97"/>
       <path d="M 25.78125 7.859375 
L 27.046875 0.09375 
Q 23.34375 -0.6875 20.40625 -0.6875 
Q 15.625 -0.6875 12.984375 0.828125 
Q 10.359375 2.34375 9.28125 4.8125 
Q 8.203125 7.28125 8.203125 15.1875 
L 8.203125 45.015625 
L 1.765625 45.015625 
L 1.765625 51.859375 
L 8.203125 51.859375 
L 8.203125 64.703125 
L 16.9375 69.96875 
L 16.9375 51.859375 
L 25.78125 51.859375 
L 25.78125 45.015625 
L 16.9375 45.015625 
L 16.9375 14.703125 
Q 16.9375 10.9375 17.40625 9.859375 
Q 17.875 8.796875 18.921875 8.15625 
Q 19.96875 7.515625 21.921875 7.515625 
Q 23.390625 7.515625 25.78125 7.859375 
z
" id="ArialMT-116"/>
       <path d="M 3.078125 15.484375 
L 11.765625 16.84375 
Q 12.5 11.625 15.84375 8.84375 
Q 19.1875 6.0625 25.203125 6.0625 
Q 31.25 6.0625 34.171875 8.515625 
Q 37.109375 10.984375 37.109375 14.3125 
Q 37.109375 17.28125 34.515625 19 
Q 32.71875 20.171875 25.53125 21.96875 
Q 15.875 24.421875 12.140625 26.203125 
Q 8.40625 27.984375 6.46875 31.125 
Q 4.546875 34.28125 4.546875 38.09375 
Q 4.546875 41.546875 6.125 44.5 
Q 7.71875 47.46875 10.453125 49.421875 
Q 12.5 50.921875 16.03125 51.96875 
Q 19.578125 53.03125 23.640625 53.03125 
Q 29.734375 53.03125 34.34375 51.265625 
Q 38.96875 49.515625 41.15625 46.5 
Q 43.359375 43.5 44.1875 38.484375 
L 35.59375 37.3125 
Q 35.015625 41.3125 32.203125 43.546875 
Q 29.390625 45.796875 24.265625 45.796875 
Q 18.21875 45.796875 15.625 43.796875 
Q 13.03125 41.796875 13.03125 39.109375 
Q 13.03125 37.40625 14.109375 36.03125 
Q 15.1875 34.625 17.484375 33.6875 
Q 18.796875 33.203125 25.25 31.453125 
Q 34.578125 28.953125 38.25 27.359375 
Q 41.9375 25.78125 44.03125 22.75 
Q 46.140625 19.734375 46.140625 15.234375 
Q 46.140625 10.84375 43.578125 6.953125 
Q 41.015625 3.078125 36.171875 0.953125 
Q 31.34375 -1.171875 25.25 -1.171875 
Q 15.140625 -1.171875 9.84375 3.03125 
Q 4.546875 7.234375 3.078125 15.484375 
z
" id="ArialMT-115"/>
       <path d="M 6.59375 -19.875 
L 6.59375 51.859375 
L 14.59375 51.859375 
L 14.59375 45.125 
Q 17.4375 49.078125 21 51.046875 
Q 24.5625 53.03125 29.640625 53.03125 
Q 36.28125 53.03125 41.359375 49.609375 
Q 46.4375 46.1875 49.015625 39.953125 
Q 51.609375 33.734375 51.609375 26.3125 
Q 51.609375 18.359375 48.75 11.984375 
Q 45.90625 5.609375 40.453125 2.21875 
Q 35.015625 -1.171875 29 -1.171875 
Q 24.609375 -1.171875 21.109375 0.6875 
Q 17.625 2.546875 15.375 5.375 
L 15.375 -19.875 
z
M 14.546875 25.640625 
Q 14.546875 15.625 18.59375 10.84375 
Q 22.65625 6.0625 28.421875 6.0625 
Q 34.28125 6.0625 38.453125 11.015625 
Q 42.625 15.96875 42.625 26.375 
Q 42.625 36.28125 38.546875 41.203125 
Q 34.46875 46.140625 28.8125 46.140625 
Q 23.1875 46.140625 18.859375 40.890625 
Q 14.546875 35.640625 14.546875 25.640625 
z
" id="ArialMT-112"/>
       <path d="M 40.234375 0 
L 40.234375 6.546875 
Q 35.296875 -1.171875 25.734375 -1.171875 
Q 19.53125 -1.171875 14.328125 2.25 
Q 9.125 5.671875 6.265625 11.796875 
Q 3.421875 17.921875 3.421875 25.875 
Q 3.421875 33.640625 6 39.96875 
Q 8.59375 46.296875 13.765625 49.65625 
Q 18.953125 53.03125 25.34375 53.03125 
Q 30.03125 53.03125 33.6875 51.046875 
Q 37.359375 49.078125 39.65625 45.90625 
L 39.65625 71.578125 
L 48.390625 71.578125 
L 48.390625 0 
z
M 12.453125 25.875 
Q 12.453125 15.921875 16.640625 10.984375 
Q 20.84375 6.0625 26.5625 6.0625 
Q 32.328125 6.0625 36.34375 10.765625 
Q 40.375 15.484375 40.375 25.140625 
Q 40.375 35.796875 36.265625 40.765625 
Q 32.171875 45.75 26.171875 45.75 
Q 20.3125 45.75 16.375 40.96875 
Q 12.453125 36.1875 12.453125 25.875 
z
" id="ArialMT-100"/>
      </defs>
      <use xlink:href="#ArialMT-78"/>
      <use x="72.216797" xlink:href="#ArialMT-117"/>
      <use x="127.832031" xlink:href="#ArialMT-109"/>
      <use x="211.132812" xlink:href="#ArialMT-98"/>
      <use x="266.748047" xlink:href="#ArialMT-101"/>
      <use x="322.363281" xlink:href="#ArialMT-114"/>
      <use x="355.664062" xlink:href="#ArialMT-32"/>
      <use x="383.447266" xlink:href="#ArialMT-111"/>
      <use x="439.0625" xlink:href="#ArialMT-102"/>
      <use x="466.845703" xlink:href="#ArialMT-32"/>
      <use x="494.628906" xlink:href="#ArialMT-104"/>
      <use x="550.244141" xlink:href="#ArialMT-101"/>
      <use x="605.859375" xlink:href="#ArialMT-97"/>
      <use x="661.474609" xlink:href="#ArialMT-114"/>
      <use x="694.775391" xlink:href="#ArialMT-116"/>
      <use x="722.558594" xlink:href="#ArialMT-98"/>
      <use x="778.173828" xlink:href="#ArialMT-101"/>
      <use x="833.789062" xlink:href="#ArialMT-97"/>
      <use x="889.404297" xlink:href="#ArialMT-116"/>
      <use x="917.1875" xlink:href="#ArialMT-115"/>
      <use x="967.1875" xlink:href="#ArialMT-32"/>
      <use x="994.970703" xlink:href="#ArialMT-114"/>
      <use x="1028.271484" xlink:href="#ArialMT-101"/>
      <use x="1083.886719" xlink:href="#ArialMT-112"/>
      <use x="1139.501953" xlink:href="#ArialMT-111"/>
      <use x="1195.117188" xlink:href="#ArialMT-114"/>
      <use x="1228.417969" xlink:href="#ArialMT-116"/>
      <use x="1256.201172" xlink:href="#ArialMT-101"/>
      <use x="1311.816406" xlink:href="#ArialMT-100"/>
     </g>
    </g>
   </g>
   <g id="matplotlib.axis_2">
    <g id="ytick_1">
     <g id="line2d_6">
      <defs>
       <path d="M 0 0 
L -9 0 
" id="mb89b28cc66" style="stroke:#262626;stroke-width:1.875;"/>
      </defs>
      <g>
       <use style="fill:#262626;stroke:#262626;stroke-width:1.875;" x="54.815" xlink:href="#mb89b28cc66" y="447.872185"/>
      </g>
     </g>
     <g id="text_7">
      <!-- −40 -->
      <g style="fill:#262626;" transform="translate(14.326875 453.77738)scale(0.165 -0.165)">
       <defs>
        <path d="M 52.828125 31.203125 
L 5.5625 31.203125 
L 5.5625 39.40625 
L 52.828125 39.40625 
z
" id="ArialMT-8722"/>
        <path d="M 32.328125 0 
L 32.328125 17.140625 
L 1.265625 17.140625 
L 1.265625 25.203125 
L 33.9375 71.578125 
L 41.109375 71.578125 
L 41.109375 25.203125 
L 50.78125 25.203125 
L 50.78125 17.140625 
L 41.109375 17.140625 
L 41.109375 0 
z
M 32.328125 25.203125 
L 32.328125 57.46875 
L 9.90625 25.203125 
z
" id="ArialMT-52"/>
       </defs>
       <use xlink:href="#ArialMT-8722"/>
       <use x="58.398438" xlink:href="#ArialMT-52"/>
       <use x="114.013672" xlink:href="#ArialMT-48"/>
      </g>
     </g>
    </g>
    <g id="ytick_2">
     <g id="line2d_7">
      <g>
       <use style="fill:#262626;stroke:#262626;stroke-width:1.875;" x="54.815" xlink:href="#mb89b28cc66" y="402.341743"/>
      </g>
     </g>
     <g id="text_8">
      <!-- −30 -->
      <g style="fill:#262626;" transform="translate(14.326875 408.246938)scale(0.165 -0.165)">
       <use xlink:href="#ArialMT-8722"/>
       <use x="58.398438" xlink:href="#ArialMT-51"/>
       <use x="114.013672" xlink:href="#ArialMT-48"/>
      </g>
     </g>
    </g>
    <g id="ytick_3">
     <g id="line2d_8">
      <g>
       <use style="fill:#262626;stroke:#262626;stroke-width:1.875;" x="54.815" xlink:href="#mb89b28cc66" y="356.811301"/>
      </g>
     </g>
     <g id="text_9">
      <!-- −20 -->
      <g style="fill:#262626;" transform="translate(14.326875 362.716497)scale(0.165 -0.165)">
       <use xlink:href="#ArialMT-8722"/>
       <use x="58.398438" xlink:href="#ArialMT-50"/>
       <use x="114.013672" xlink:href="#ArialMT-48"/>
      </g>
     </g>
    </g>
    <g id="ytick_4">
     <g id="line2d_9">
      <g>
       <use style="fill:#262626;stroke:#262626;stroke-width:1.875;" x="54.815" xlink:href="#mb89b28cc66" y="311.28086"/>
      </g>
     </g>
     <g id="text_10">
      <!-- −10 -->
      <g style="fill:#262626;" transform="translate(14.326875 317.186055)scale(0.165 -0.165)">
       <use xlink:href="#ArialMT-8722"/>
       <use x="58.398438" xlink:href="#ArialMT-49"/>
       <use x="114.013672" xlink:href="#ArialMT-48"/>
      </g>
     </g>
    </g>
    <g id="ytick_5">
     <g id="line2d_10">
      <g>
       <use style="fill:#262626;stroke:#262626;stroke-width:1.875;" x="54.815" xlink:href="#mb89b28cc66" y="265.750418"/>
      </g>
     </g>
     <g id="text_11">
      <!-- 0 -->
      <g style="fill:#262626;" transform="translate(33.139453 271.655613)scale(0.165 -0.165)">
       <use xlink:href="#ArialMT-48"/>
      </g>
     </g>
    </g>
    <g id="ytick_6">
     <g id="line2d_11">
      <g>
       <use style="fill:#262626;stroke:#262626;stroke-width:1.875;" x="54.815" xlink:href="#mb89b28cc66" y="220.219977"/>
      </g>
     </g>
     <g id="text_12">
      <!-- 10 -->
      <g style="fill:#262626;" transform="translate(23.963906 226.125172)scale(0.165 -0.165)">
       <use xlink:href="#ArialMT-49"/>
       <use x="55.615234" xlink:href="#ArialMT-48"/>
      </g>
     </g>
    </g>
    <g id="ytick_7">
     <g id="line2d_12">
      <g>
       <use style="fill:#262626;stroke:#262626;stroke-width:1.875;" x="54.815" xlink:href="#mb89b28cc66" y="174.689535"/>
      </g>
     </g>
     <g id="text_13">
      <!-- 20 -->
      <g style="fill:#262626;" transform="translate(23.963906 180.59473)scale(0.165 -0.165)">
       <use xlink:href="#ArialMT-50"/>
       <use x="55.615234" xlink:href="#ArialMT-48"/>
      </g>
     </g>
    </g>
    <g id="ytick_8">
     <g id="line2d_13">
      <g>
       <use style="fill:#262626;stroke:#262626;stroke-width:1.875;" x="54.815" xlink:href="#mb89b28cc66" y="129.159093"/>
      </g>
     </g>
     <g id="text_14">
      <!-- 30 -->
      <g style="fill:#262626;" transform="translate(23.963906 135.064289)scale(0.165 -0.165)">
       <use xlink:href="#ArialMT-51"/>
       <use x="55.615234" xlink:href="#ArialMT-48"/>
      </g>
     </g>
    </g>
    <g id="text_15">
     <!-- Psychometric threshold -->
     <g style="fill:#262626;" transform="translate(6.538437 369.292786)rotate(-90)scale(0.18 -0.18)">
      <defs>
       <path d="M 7.71875 0 
L 7.71875 71.578125 
L 34.71875 71.578125 
Q 41.84375 71.578125 45.609375 70.90625 
Q 50.875 70.015625 54.4375 67.546875 
Q 58.015625 65.09375 60.1875 60.640625 
Q 62.359375 56.203125 62.359375 50.875 
Q 62.359375 41.75 56.546875 35.421875 
Q 50.734375 29.109375 35.546875 29.109375 
L 17.1875 29.109375 
L 17.1875 0 
z
M 17.1875 37.546875 
L 35.6875 37.546875 
Q 44.875 37.546875 48.734375 40.96875 
Q 52.59375 44.390625 52.59375 50.59375 
Q 52.59375 55.078125 50.3125 58.265625 
Q 48.046875 61.46875 44.34375 62.5 
Q 41.9375 63.140625 35.5 63.140625 
L 17.1875 63.140625 
z
" id="ArialMT-80"/>
       <path d="M 6.203125 -19.96875 
L 5.21875 -11.71875 
Q 8.109375 -12.5 10.25 -12.5 
Q 13.1875 -12.5 14.9375 -11.515625 
Q 16.703125 -10.546875 17.828125 -8.796875 
Q 18.65625 -7.46875 20.515625 -2.25 
Q 20.75 -1.515625 21.296875 -0.09375 
L 1.609375 51.859375 
L 11.078125 51.859375 
L 21.875 21.828125 
Q 23.96875 16.109375 25.640625 9.8125 
Q 27.15625 15.875 29.25 21.625 
L 40.328125 51.859375 
L 49.125 51.859375 
L 29.390625 -0.875 
Q 26.21875 -9.421875 24.46875 -12.640625 
Q 22.125 -17 19.09375 -19.015625 
Q 16.0625 -21.046875 11.859375 -21.046875 
Q 9.328125 -21.046875 6.203125 -19.96875 
z
" id="ArialMT-121"/>
       <path d="M 40.4375 19 
L 49.078125 17.875 
Q 47.65625 8.9375 41.8125 3.875 
Q 35.984375 -1.171875 27.484375 -1.171875 
Q 16.84375 -1.171875 10.375 5.78125 
Q 3.90625 12.75 3.90625 25.734375 
Q 3.90625 34.125 6.6875 40.421875 
Q 9.46875 46.734375 15.15625 49.875 
Q 20.84375 53.03125 27.546875 53.03125 
Q 35.984375 53.03125 41.359375 48.75 
Q 46.734375 44.484375 48.25 36.625 
L 39.703125 35.296875 
Q 38.484375 40.53125 35.375 43.15625 
Q 32.28125 45.796875 27.875 45.796875 
Q 21.234375 45.796875 17.078125 41.03125 
Q 12.9375 36.28125 12.9375 25.984375 
Q 12.9375 15.53125 16.9375 10.796875 
Q 20.953125 6.0625 27.390625 6.0625 
Q 32.5625 6.0625 36.03125 9.234375 
Q 39.5 12.40625 40.4375 19 
z
" id="ArialMT-99"/>
       <path d="M 6.640625 61.46875 
L 6.640625 71.578125 
L 15.4375 71.578125 
L 15.4375 61.46875 
z
M 6.640625 0 
L 6.640625 51.859375 
L 15.4375 51.859375 
L 15.4375 0 
z
" id="ArialMT-105"/>
       <path d="M 6.390625 0 
L 6.390625 71.578125 
L 15.1875 71.578125 
L 15.1875 0 
z
" id="ArialMT-108"/>
      </defs>
      <use xlink:href="#ArialMT-80"/>
      <use x="66.699219" xlink:href="#ArialMT-115"/>
      <use x="116.699219" xlink:href="#ArialMT-121"/>
      <use x="166.699219" xlink:href="#ArialMT-99"/>
      <use x="216.699219" xlink:href="#ArialMT-104"/>
      <use x="272.314453" xlink:href="#ArialMT-111"/>
      <use x="327.929688" xlink:href="#ArialMT-109"/>
      <use x="411.230469" xlink:href="#ArialMT-101"/>
      <use x="466.845703" xlink:href="#ArialMT-116"/>
      <use x="494.628906" xlink:href="#ArialMT-114"/>
      <use x="527.929688" xlink:href="#ArialMT-105"/>
      <use x="550.146484" xlink:href="#ArialMT-99"/>
      <use x="600.146484" xlink:href="#ArialMT-32"/>
      <use x="627.929688" xlink:href="#ArialMT-116"/>
      <use x="655.712891" xlink:href="#ArialMT-104"/>
      <use x="711.328125" xlink:href="#ArialMT-114"/>
      <use x="744.628906" xlink:href="#ArialMT-101"/>
      <use x="800.244141" xlink:href="#ArialMT-115"/>
      <use x="850.244141" xlink:href="#ArialMT-104"/>
      <use x="905.859375" xlink:href="#ArialMT-111"/>
      <use x="961.474609" xlink:href="#ArialMT-108"/>
      <use x="983.691406" xlink:href="#ArialMT-100"/>
     </g>
    </g>
   </g>
   <g id="PathCollection_1">
    <defs>
     <path d="M 0 4.5 
C 1.193414 4.5 2.338109 4.025852 3.181981 3.181981 
C 4.025852 2.338109 4.5 1.193414 4.5 0 
C 4.5 -1.193414 4.025852 -2.338109 3.181981 -3.181981 
C 2.338109 -4.025852 1.193414 -4.5 0 -4.5 
C -1.193414 -4.5 -2.338109 -4.025852 -3.181981 -3.181981 
C -4.025852 -2.338109 -4.5 -1.193414 -4.5 0 
C -4.5 1.193414 -4.025852 2.338109 -3.181981 3.181981 
C -2.338109 4.025852 -1.193414 4.5 0 4.5 
z
" id="mbb9e7eb605" style="stroke:#4c72b0;stroke-opacity:0.8;"/>
    </defs>
    <g clip-path="url(#p53c59f1490)">
     <use style="fill:#4c72b0;fill-opacity:0.8;stroke:#4c72b0;stroke-opacity:0.8;" x="143.154076" xlink:href="#mbb9e7eb605" y="202.608802"/>
     <use style="fill:#4c72b0;fill-opacity:0.8;stroke:#4c72b0;stroke-opacity:0.8;" x="177.130643" xlink:href="#mbb9e7eb605" y="319.740416"/>
     <use style="fill:#4c72b0;fill-opacity:0.8;stroke:#4c72b0;stroke-opacity:0.8;" x="235.57034" xlink:href="#mbb9e7eb605" y="275.43019"/>
     <use style="fill:#4c72b0;fill-opacity:0.8;stroke:#4c72b0;stroke-opacity:0.8;" x="311.677851" xlink:href="#mbb9e7eb605" y="308.703837"/>
     <use style="fill:#4c72b0;fill-opacity:0.8;stroke:#4c72b0;stroke-opacity:0.8;" x="243.724716" xlink:href="#mbb9e7eb605" y="223.866965"/>
     <use style="fill:#4c72b0;fill-opacity:0.8;stroke:#4c72b0;stroke-opacity:0.8;" x="171.694393" xlink:href="#mbb9e7eb605" y="285.164598"/>
     <use style="fill:#4c72b0;fill-opacity:0.8;stroke:#4c72b0;stroke-opacity:0.8;" x="224.697838" xlink:href="#mbb9e7eb605" y="254.331383"/>
     <use style="fill:#4c72b0;fill-opacity:0.8;stroke:#4c72b0;stroke-opacity:0.8;" x="308.959726" xlink:href="#mbb9e7eb605" y="325.003735"/>
     <use style="fill:#4c72b0;fill-opacity:0.8;stroke:#4c72b0;stroke-opacity:0.8;" x="249.160967" xlink:href="#mbb9e7eb605" y="273.959557"/>
     <use style="fill:#4c72b0;fill-opacity:0.8;stroke:#4c72b0;stroke-opacity:0.8;" x="311.677851" xlink:href="#mbb9e7eb605" y="360.950018"/>
     <use style="fill:#4c72b0;fill-opacity:0.8;stroke:#4c72b0;stroke-opacity:0.8;" x="276.342221" xlink:href="#mbb9e7eb605" y="267.016164"/>
     <use style="fill:#4c72b0;fill-opacity:0.8;stroke:#4c72b0;stroke-opacity:0.8;" x="205.67096" xlink:href="#mbb9e7eb605" y="248.863177"/>
     <use style="fill:#4c72b0;fill-opacity:0.8;stroke:#4c72b0;stroke-opacity:0.8;" x="216.543462" xlink:href="#mbb9e7eb605" y="354.794303"/>
     <use style="fill:#4c72b0;fill-opacity:0.8;stroke:#4c72b0;stroke-opacity:0.8;" x="325.268478" xlink:href="#mbb9e7eb605" y="264.78062"/>
     <use style="fill:#4c72b0;fill-opacity:0.8;stroke:#4c72b0;stroke-opacity:0.8;" x="179.848769" xlink:href="#mbb9e7eb605" y="432.14597"/>
     <use style="fill:#4c72b0;fill-opacity:0.8;stroke:#4c72b0;stroke-opacity:0.8;" x="272.265033" xlink:href="#mbb9e7eb605" y="352.877471"/>
     <use style="fill:#4c72b0;fill-opacity:0.8;stroke:#4c72b0;stroke-opacity:0.8;" x="95.586881" xlink:href="#mbb9e7eb605" y="345.17372"/>
     <use style="fill:#4c72b0;fill-opacity:0.8;stroke:#4c72b0;stroke-opacity:0.8;" x="378.271924" xlink:href="#mbb9e7eb605" y="260.587266"/>
     <use style="fill:#4c72b0;fill-opacity:0.8;stroke:#4c72b0;stroke-opacity:0.8;" x="129.563449" xlink:href="#mbb9e7eb605" y="228.037553"/>
     <use style="fill:#4c72b0;fill-opacity:0.8;stroke:#4c72b0;stroke-opacity:0.8;" x="212.466274" xlink:href="#mbb9e7eb605" y="269.360982"/>
     <use style="fill:#4c72b0;fill-opacity:0.8;stroke:#4c72b0;stroke-opacity:0.8;" x="302.164412" xlink:href="#mbb9e7eb605" y="293.564965"/>
     <use style="fill:#4c72b0;fill-opacity:0.8;stroke:#4c72b0;stroke-opacity:0.8;" x="216.543462" xlink:href="#mbb9e7eb605" y="324.393627"/>
     <use style="fill:#4c72b0;fill-opacity:0.8;stroke:#4c72b0;stroke-opacity:0.8;" x="288.573785" xlink:href="#mbb9e7eb605" y="336.654975"/>
     <use style="fill:#4c72b0;fill-opacity:0.8;stroke:#4c72b0;stroke-opacity:0.8;" x="194.798459" xlink:href="#mbb9e7eb605" y="177.694544"/>
     <use style="fill:#4c72b0;fill-opacity:0.8;stroke:#4c72b0;stroke-opacity:0.8;" x="243.724716" xlink:href="#mbb9e7eb605" y="371.895537"/>
     <use style="fill:#4c72b0;fill-opacity:0.8;stroke:#4c72b0;stroke-opacity:0.8;" x="227.415963" xlink:href="#mbb9e7eb605" y="324.908121"/>
     <use style="fill:#4c72b0;fill-opacity:0.8;stroke:#4c72b0;stroke-opacity:0.8;" x="117.331884" xlink:href="#mbb9e7eb605" y="350.537206"/>
     <use style="fill:#4c72b0;fill-opacity:0.8;stroke:#4c72b0;stroke-opacity:0.8;" x="188.003145" xlink:href="#mbb9e7eb605" y="319.758628"/>
     <use style="fill:#4c72b0;fill-opacity:0.8;stroke:#4c72b0;stroke-opacity:0.8;" x="317.114102" xlink:href="#mbb9e7eb605" y="298.955769"/>
     <use style="fill:#4c72b0;fill-opacity:0.8;stroke:#4c72b0;stroke-opacity:0.8;" x="62.969376" xlink:href="#mbb9e7eb605" y="438.752437"/>
     <use style="fill:#4c72b0;fill-opacity:0.8;stroke:#4c72b0;stroke-opacity:0.8;" x="174.412518" xlink:href="#mbb9e7eb605" y="222.036641"/>
     <use style="fill:#4c72b0;fill-opacity:0.8;stroke:#4c72b0;stroke-opacity:0.8;" x="196.157521" xlink:href="#mbb9e7eb605" y="370.511411"/>
     <use style="fill:#4c72b0;fill-opacity:0.8;stroke:#4c72b0;stroke-opacity:0.8;" x="273.624095" xlink:href="#mbb9e7eb605" y="287.595924"/>
     <use style="fill:#4c72b0;fill-opacity:0.8;stroke:#4c72b0;stroke-opacity:0.8;" x="299.446287" xlink:href="#mbb9e7eb605" y="264.803385"/>
     <use style="fill:#4c72b0;fill-opacity:0.8;stroke:#4c72b0;stroke-opacity:0.8;" x="217.902525" xlink:href="#mbb9e7eb605" y="404.413378"/>
     <use style="fill:#4c72b0;fill-opacity:0.8;stroke:#4c72b0;stroke-opacity:0.8;" x="217.902525" xlink:href="#mbb9e7eb605" y="335.703389"/>
     <use style="fill:#4c72b0;fill-opacity:0.8;stroke:#4c72b0;stroke-opacity:0.8;" x="241.006591" xlink:href="#mbb9e7eb605" y="281.62233"/>
     <use style="fill:#4c72b0;fill-opacity:0.8;stroke:#4c72b0;stroke-opacity:0.8;" x="128.204386" xlink:href="#mbb9e7eb605" y="214.132556"/>
     <use style="fill:#4c72b0;fill-opacity:0.8;stroke:#4c72b0;stroke-opacity:0.8;" x="185.28502" xlink:href="#mbb9e7eb605" y="280.388455"/>
     <use style="fill:#4c72b0;fill-opacity:0.8;stroke:#4c72b0;stroke-opacity:0.8;" x="188.003145" xlink:href="#mbb9e7eb605" y="306.454633"/>
     <use style="fill:#4c72b0;fill-opacity:0.8;stroke:#4c72b0;stroke-opacity:0.8;" x="147.231264" xlink:href="#mbb9e7eb605" y="265.927987"/>
     <use style="fill:#4c72b0;fill-opacity:0.8;stroke:#4c72b0;stroke-opacity:0.8;" x="322.550353" xlink:href="#mbb9e7eb605" y="266.597284"/>
     <use style="fill:#4c72b0;fill-opacity:0.8;stroke:#4c72b0;stroke-opacity:0.8;" x="236.929402" xlink:href="#mbb9e7eb605" y="303.659064"/>
     <use style="fill:#4c72b0;fill-opacity:0.8;stroke:#4c72b0;stroke-opacity:0.8;" x="341.577231" xlink:href="#mbb9e7eb605" y="347.11787"/>
     <use style="fill:#4c72b0;fill-opacity:0.8;stroke:#4c72b0;stroke-opacity:0.8;" x="105.10032" xlink:href="#mbb9e7eb605" y="399.837569"/>
     <use style="fill:#4c72b0;fill-opacity:0.8;stroke:#4c72b0;stroke-opacity:0.8;" x="313.036914" xlink:href="#mbb9e7eb605" y="309.737378"/>
     <use style="fill:#4c72b0;fill-opacity:0.8;stroke:#4c72b0;stroke-opacity:0.8;" x="228.775026" xlink:href="#mbb9e7eb605" y="312.801576"/>
     <use style="fill:#4c72b0;fill-opacity:0.8;stroke:#4c72b0;stroke-opacity:0.8;" x="272.265033" xlink:href="#mbb9e7eb605" y="274.574218"/>
     <use style="fill:#4c72b0;fill-opacity:0.8;stroke:#4c72b0;stroke-opacity:0.8;" x="124.127198" xlink:href="#mbb9e7eb605" y="378.756974"/>
     <use style="fill:#4c72b0;fill-opacity:0.8;stroke:#4c72b0;stroke-opacity:0.8;" x="230.134089" xlink:href="#mbb9e7eb605" y="299.506688"/>
     <use style="fill:#4c72b0;fill-opacity:0.8;stroke:#4c72b0;stroke-opacity:0.8;" x="334.781917" xlink:href="#mbb9e7eb605" y="290.564509"/>
     <use style="fill:#4c72b0;fill-opacity:0.8;stroke:#4c72b0;stroke-opacity:0.8;" x="56.174063" xlink:href="#mbb9e7eb605" y="266.81583"/>
     <use style="fill:#4c72b0;fill-opacity:0.8;stroke:#4c72b0;stroke-opacity:0.8;" x="209.748148" xlink:href="#mbb9e7eb605" y="298.277366"/>
     <use style="fill:#4c72b0;fill-opacity:0.8;stroke:#4c72b0;stroke-opacity:0.8;" x="156.744703" xlink:href="#mbb9e7eb605" y="327.184643"/>
     <use style="fill:#4c72b0;fill-opacity:0.8;stroke:#4c72b0;stroke-opacity:0.8;" x="168.976267" xlink:href="#mbb9e7eb605" y="232.554173"/>
     <use style="fill:#4c72b0;fill-opacity:0.8;stroke:#4c72b0;stroke-opacity:0.8;" x="174.412518" xlink:href="#mbb9e7eb605" y="420.895398"/>
     <use style="fill:#4c72b0;fill-opacity:0.8;stroke:#4c72b0;stroke-opacity:0.8;" x="295.369099" xlink:href="#mbb9e7eb605" y="387.193765"/>
     <use style="fill:#4c72b0;fill-opacity:0.8;stroke:#4c72b0;stroke-opacity:0.8;" x="96.945944" xlink:href="#mbb9e7eb605" y="284.490748"/>
     <use style="fill:#4c72b0;fill-opacity:0.8;stroke:#4c72b0;stroke-opacity:0.8;" x="111.895634" xlink:href="#mbb9e7eb605" y="352.413061"/>
     <use style="fill:#4c72b0;fill-opacity:0.8;stroke:#4c72b0;stroke-opacity:0.8;" x="185.28502" xlink:href="#mbb9e7eb605" y="320.327758"/>
     <use style="fill:#4c72b0;fill-opacity:0.8;stroke:#4c72b0;stroke-opacity:0.8;" x="264.110656" xlink:href="#mbb9e7eb605" y="318.406374"/>
     <use style="fill:#4c72b0;fill-opacity:0.8;stroke:#4c72b0;stroke-opacity:0.8;" x="126.845323" xlink:href="#mbb9e7eb605" y="354.839833"/>
     <use style="fill:#4c72b0;fill-opacity:0.8;stroke:#4c72b0;stroke-opacity:0.8;" x="307.600663" xlink:href="#mbb9e7eb605" y="274.961226"/>
     <use style="fill:#4c72b0;fill-opacity:0.8;stroke:#4c72b0;stroke-opacity:0.8;" x="266.828782" xlink:href="#mbb9e7eb605" y="191.476609"/>
     <use style="fill:#4c72b0;fill-opacity:0.8;stroke:#4c72b0;stroke-opacity:0.8;" x="107.818445" xlink:href="#mbb9e7eb605" y="322.727213"/>
     <use style="fill:#4c72b0;fill-opacity:0.8;stroke:#4c72b0;stroke-opacity:0.8;" x="143.154076" xlink:href="#mbb9e7eb605" y="270.676812"/>
     <use style="fill:#4c72b0;fill-opacity:0.8;stroke:#4c72b0;stroke-opacity:0.8;" x="154.026577" xlink:href="#mbb9e7eb605" y="315.137288"/>
     <use style="fill:#4c72b0;fill-opacity:0.8;stroke:#4c72b0;stroke-opacity:0.8;" x="260.033468" xlink:href="#mbb9e7eb605" y="250.943919"/>
     <use style="fill:#4c72b0;fill-opacity:0.8;stroke:#4c72b0;stroke-opacity:0.8;" x="296.728161" xlink:href="#mbb9e7eb605" y="274.260058"/>
     <use style="fill:#4c72b0;fill-opacity:0.8;stroke:#4c72b0;stroke-opacity:0.8;" x="283.137534" xlink:href="#mbb9e7eb605" y="240.248818"/>
     <use style="fill:#4c72b0;fill-opacity:0.8;stroke:#4c72b0;stroke-opacity:0.8;" x="241.006591" xlink:href="#mbb9e7eb605" y="267.343984"/>
     <use style="fill:#4c72b0;fill-opacity:0.8;stroke:#4c72b0;stroke-opacity:0.8;" x="300.80535" xlink:href="#mbb9e7eb605" y="246.30892"/>
     <use style="fill:#4c72b0;fill-opacity:0.8;stroke:#4c72b0;stroke-opacity:0.8;" x="101.023132" xlink:href="#mbb9e7eb605" y="290.095545"/>
     <use style="fill:#4c72b0;fill-opacity:0.8;stroke:#4c72b0;stroke-opacity:0.8;" x="211.107211" xlink:href="#mbb9e7eb605" y="314.895977"/>
     <use style="fill:#4c72b0;fill-opacity:0.8;stroke:#4c72b0;stroke-opacity:0.8;" x="257.315343" xlink:href="#mbb9e7eb605" y="199.203125"/>
     <use style="fill:#4c72b0;fill-opacity:0.8;stroke:#4c72b0;stroke-opacity:0.8;" x="221.979713" xlink:href="#mbb9e7eb605" y="252.696841"/>
     <use style="fill:#4c72b0;fill-opacity:0.8;stroke:#4c72b0;stroke-opacity:0.8;" x="235.57034" xlink:href="#mbb9e7eb605" y="261.957732"/>
     <use style="fill:#4c72b0;fill-opacity:0.8;stroke:#4c72b0;stroke-opacity:0.8;" x="232.852214" xlink:href="#mbb9e7eb605" y="261.274776"/>
     <use style="fill:#4c72b0;fill-opacity:0.8;stroke:#4c72b0;stroke-opacity:0.8;" x="410.889429" xlink:href="#mbb9e7eb605" y="275.589547"/>
     <use style="fill:#4c72b0;fill-opacity:0.8;stroke:#4c72b0;stroke-opacity:0.8;" x="186.644082" xlink:href="#mbb9e7eb605" y="421.605673"/>
     <use style="fill:#4c72b0;fill-opacity:0.8;stroke:#4c72b0;stroke-opacity:0.8;" x="220.62065" xlink:href="#mbb9e7eb605" y="259.153057"/>
     <use style="fill:#4c72b0;fill-opacity:0.8;stroke:#4c72b0;stroke-opacity:0.8;" x="212.466274" xlink:href="#mbb9e7eb605" y="328.933012"/>
     <use style="fill:#4c72b0;fill-opacity:0.8;stroke:#4c72b0;stroke-opacity:0.8;" x="221.979713" xlink:href="#mbb9e7eb605" y="263.264456"/>
     <use style="fill:#4c72b0;fill-opacity:0.8;stroke:#4c72b0;stroke-opacity:0.8;" x="118.690947" xlink:href="#mbb9e7eb605" y="440.578208"/>
     <use style="fill:#4c72b0;fill-opacity:0.8;stroke:#4c72b0;stroke-opacity:0.8;" x="292.650973" xlink:href="#mbb9e7eb605" y="331.815089"/>
     <use style="fill:#4c72b0;fill-opacity:0.8;stroke:#4c72b0;stroke-opacity:0.8;" x="163.540016" xlink:href="#mbb9e7eb605" y="301.296034"/>
     <use style="fill:#4c72b0;fill-opacity:0.8;stroke:#4c72b0;stroke-opacity:0.8;" x="140.43595" xlink:href="#mbb9e7eb605" y="371.731627"/>
     <use style="fill:#4c72b0;fill-opacity:0.8;stroke:#4c72b0;stroke-opacity:0.8;" x="280.419409" xlink:href="#mbb9e7eb605" y="254.914173"/>
     <use style="fill:#4c72b0;fill-opacity:0.8;stroke:#4c72b0;stroke-opacity:0.8;" x="253.238155" xlink:href="#mbb9e7eb605" y="372.314417"/>
     <use style="fill:#4c72b0;fill-opacity:0.8;stroke:#4c72b0;stroke-opacity:0.8;" x="242.365653" xlink:href="#mbb9e7eb605" y="277.337916"/>
     <use style="fill:#4c72b0;fill-opacity:0.8;stroke:#4c72b0;stroke-opacity:0.8;" x="215.184399" xlink:href="#mbb9e7eb605" y="357.334901"/>
     <use style="fill:#4c72b0;fill-opacity:0.8;stroke:#4c72b0;stroke-opacity:0.8;" x="160.821891" xlink:href="#mbb9e7eb605" y="200.737501"/>
     <use style="fill:#4c72b0;fill-opacity:0.8;stroke:#4c72b0;stroke-opacity:0.8;" x="212.466274" xlink:href="#mbb9e7eb605" y="268.514116"/>
     <use style="fill:#4c72b0;fill-opacity:0.8;stroke:#4c72b0;stroke-opacity:0.8;" x="307.600663" xlink:href="#mbb9e7eb605" y="343.247783"/>
     <use style="fill:#4c72b0;fill-opacity:0.8;stroke:#4c72b0;stroke-opacity:0.8;" x="238.288465" xlink:href="#mbb9e7eb605" y="310.957594"/>
     <use style="fill:#4c72b0;fill-opacity:0.8;stroke:#4c72b0;stroke-opacity:0.8;" x="385.067237" xlink:href="#mbb9e7eb605" y="309.104505"/>
     <use style="fill:#4c72b0;fill-opacity:0.8;stroke:#4c72b0;stroke-opacity:0.8;" x="253.238155" xlink:href="#mbb9e7eb605" y="316.066109"/>
     <use style="fill:#4c72b0;fill-opacity:0.8;stroke:#4c72b0;stroke-opacity:0.8;" x="156.744703" xlink:href="#mbb9e7eb605" y="224.818551"/>
     <use style="fill:#4c72b0;fill-opacity:0.8;stroke:#4c72b0;stroke-opacity:0.8;" x="243.724716" xlink:href="#mbb9e7eb605" y="278.116486"/>
     <use style="fill:#4c72b0;fill-opacity:0.8;stroke:#4c72b0;stroke-opacity:0.8;" x="342.936293" xlink:href="#mbb9e7eb605" y="279.054413"/>
     <use style="fill:#4c72b0;fill-opacity:0.8;stroke:#4c72b0;stroke-opacity:0.8;" x="174.412518" xlink:href="#mbb9e7eb605" y="263.46479"/>
     <use style="fill:#4c72b0;fill-opacity:0.8;stroke:#4c72b0;stroke-opacity:0.8;" x="212.466274" xlink:href="#mbb9e7eb605" y="303.026191"/>
     <use style="fill:#4c72b0;fill-opacity:0.8;stroke:#4c72b0;stroke-opacity:0.8;" x="147.231264" xlink:href="#mbb9e7eb605" y="323.341874"/>
     <use style="fill:#4c72b0;fill-opacity:0.8;stroke:#4c72b0;stroke-opacity:0.8;" x="323.909415" xlink:href="#mbb9e7eb605" y="321.985067"/>
     <use style="fill:#4c72b0;fill-opacity:0.8;stroke:#4c72b0;stroke-opacity:0.8;" x="221.979713" xlink:href="#mbb9e7eb605" y="224.231208"/>
     <use style="fill:#4c72b0;fill-opacity:0.8;stroke:#4c72b0;stroke-opacity:0.8;" x="67.046564" xlink:href="#mbb9e7eb605" y="246.691375"/>
     <use style="fill:#4c72b0;fill-opacity:0.8;stroke:#4c72b0;stroke-opacity:0.8;" x="274.983158" xlink:href="#mbb9e7eb605" y="215.940115"/>
     <use style="fill:#4c72b0;fill-opacity:0.8;stroke:#4c72b0;stroke-opacity:0.8;" x="235.57034" xlink:href="#mbb9e7eb605" y="359.60687"/>
     <use style="fill:#4c72b0;fill-opacity:0.8;stroke:#4c72b0;stroke-opacity:0.8;" x="148.590327" xlink:href="#mbb9e7eb605" y="356.743006"/>
     <use style="fill:#4c72b0;fill-opacity:0.8;stroke:#4c72b0;stroke-opacity:0.8;" x="113.254696" xlink:href="#mbb9e7eb605" y="317.650569"/>
     <use style="fill:#4c72b0;fill-opacity:0.8;stroke:#4c72b0;stroke-opacity:0.8;" x="160.821891" xlink:href="#mbb9e7eb605" y="252.059414"/>
     <use style="fill:#4c72b0;fill-opacity:0.8;stroke:#4c72b0;stroke-opacity:0.8;" x="243.724716" xlink:href="#mbb9e7eb605" y="246.896262"/>
     <use style="fill:#4c72b0;fill-opacity:0.8;stroke:#4c72b0;stroke-opacity:0.8;" x="194.798459" xlink:href="#mbb9e7eb605" y="310.761813"/>
     <use style="fill:#4c72b0;fill-opacity:0.8;stroke:#4c72b0;stroke-opacity:0.8;" x="270.90597" xlink:href="#mbb9e7eb605" y="282.683189"/>
     <use style="fill:#4c72b0;fill-opacity:0.8;stroke:#4c72b0;stroke-opacity:0.8;" x="294.010036" xlink:href="#mbb9e7eb605" y="361.897052"/>
     <use style="fill:#4c72b0;fill-opacity:0.8;stroke:#4c72b0;stroke-opacity:0.8;" x="260.033468" xlink:href="#mbb9e7eb605" y="258.233342"/>
     <use style="fill:#4c72b0;fill-opacity:0.8;stroke:#4c72b0;stroke-opacity:0.8;" x="171.694393" xlink:href="#mbb9e7eb605" y="275.084159"/>
     <use style="fill:#4c72b0;fill-opacity:0.8;stroke:#4c72b0;stroke-opacity:0.8;" x="284.496597" xlink:href="#mbb9e7eb605" y="281.772581"/>
     <use style="fill:#4c72b0;fill-opacity:0.8;stroke:#4c72b0;stroke-opacity:0.8;" x="181.207832" xlink:href="#mbb9e7eb605" y="271.173094"/>
     <use style="fill:#4c72b0;fill-opacity:0.8;stroke:#4c72b0;stroke-opacity:0.8;" x="212.466274" xlink:href="#mbb9e7eb605" y="264.352634"/>
     <use style="fill:#4c72b0;fill-opacity:0.8;stroke:#4c72b0;stroke-opacity:0.8;" x="200.234709" xlink:href="#mbb9e7eb605" y="209.215269"/>
     <use style="fill:#4c72b0;fill-opacity:0.8;stroke:#4c72b0;stroke-opacity:0.8;" x="363.322234" xlink:href="#mbb9e7eb605" y="207.685446"/>
     <use style="fill:#4c72b0;fill-opacity:0.8;stroke:#4c72b0;stroke-opacity:0.8;" x="216.543462" xlink:href="#mbb9e7eb605" y="216.768769"/>
     <use style="fill:#4c72b0;fill-opacity:0.8;stroke:#4c72b0;stroke-opacity:0.8;" x="202.952835" xlink:href="#mbb9e7eb605" y="192.396324"/>
     <use style="fill:#4c72b0;fill-opacity:0.8;stroke:#4c72b0;stroke-opacity:0.8;" x="106.459383" xlink:href="#mbb9e7eb605" y="365.480297"/>
     <use style="fill:#4c72b0;fill-opacity:0.8;stroke:#4c72b0;stroke-opacity:0.8;" x="292.650973" xlink:href="#mbb9e7eb605" y="341.667876"/>
     <use style="fill:#4c72b0;fill-opacity:0.8;stroke:#4c72b0;stroke-opacity:0.8;" x="194.798459" xlink:href="#mbb9e7eb605" y="417.92226"/>
     <use style="fill:#4c72b0;fill-opacity:0.8;stroke:#4c72b0;stroke-opacity:0.8;" x="212.466274" xlink:href="#mbb9e7eb605" y="279.864855"/>
     <use style="fill:#4c72b0;fill-opacity:0.8;stroke:#4c72b0;stroke-opacity:0.8;" x="243.724716" xlink:href="#mbb9e7eb605" y="333.877618"/>
     <use style="fill:#4c72b0;fill-opacity:0.8;stroke:#4c72b0;stroke-opacity:0.8;" x="356.52692" xlink:href="#mbb9e7eb605" y="251.849974"/>
     <use style="fill:#4c72b0;fill-opacity:0.8;stroke:#4c72b0;stroke-opacity:0.8;" x="197.516584" xlink:href="#mbb9e7eb605" y="300.326235"/>
     <use style="fill:#4c72b0;fill-opacity:0.8;stroke:#4c72b0;stroke-opacity:0.8;" x="224.697838" xlink:href="#mbb9e7eb605" y="208.231811"/>
     <use style="fill:#4c72b0;fill-opacity:0.8;stroke:#4c72b0;stroke-opacity:0.8;" x="54.815" xlink:href="#mbb9e7eb605" y="347.054128"/>
     <use style="fill:#4c72b0;fill-opacity:0.8;stroke:#4c72b0;stroke-opacity:0.8;" x="289.932848" xlink:href="#mbb9e7eb605" y="277.114816"/>
     <use style="fill:#4c72b0;fill-opacity:0.8;stroke:#4c72b0;stroke-opacity:0.8;" x="174.412518" xlink:href="#mbb9e7eb605" y="345.519752"/>
     <use style="fill:#4c72b0;fill-opacity:0.8;stroke:#4c72b0;stroke-opacity:0.8;" x="292.650973" xlink:href="#mbb9e7eb605" y="311.185246"/>
     <use style="fill:#4c72b0;fill-opacity:0.8;stroke:#4c72b0;stroke-opacity:0.8;" x="211.107211" xlink:href="#mbb9e7eb605" y="310.994018"/>
     <use style="fill:#4c72b0;fill-opacity:0.8;stroke:#4c72b0;stroke-opacity:0.8;" x="224.697838" xlink:href="#mbb9e7eb605" y="367.21956"/>
     <use style="fill:#4c72b0;fill-opacity:0.8;stroke:#4c72b0;stroke-opacity:0.8;" x="281.778472" xlink:href="#mbb9e7eb605" y="285.155492"/>
     <use style="fill:#4c72b0;fill-opacity:0.8;stroke:#4c72b0;stroke-opacity:0.8;" x="296.728161" xlink:href="#mbb9e7eb605" y="275.361894"/>
     <use style="fill:#4c72b0;fill-opacity:0.8;stroke:#4c72b0;stroke-opacity:0.8;" x="155.38564" xlink:href="#mbb9e7eb605" y="314.135618"/>
     <use style="fill:#4c72b0;fill-opacity:0.8;stroke:#4c72b0;stroke-opacity:0.8;" x="173.053455" xlink:href="#mbb9e7eb605" y="361.23686"/>
     <use style="fill:#4c72b0;fill-opacity:0.8;stroke:#4c72b0;stroke-opacity:0.8;" x="143.154076" xlink:href="#mbb9e7eb605" y="353.710678"/>
     <use style="fill:#4c72b0;fill-opacity:0.8;stroke:#4c72b0;stroke-opacity:0.8;" x="179.848769" xlink:href="#mbb9e7eb605" y="333.3267"/>
     <use style="fill:#4c72b0;fill-opacity:0.8;stroke:#4c72b0;stroke-opacity:0.8;" x="193.439396" xlink:href="#mbb9e7eb605" y="213.513342"/>
     <use style="fill:#4c72b0;fill-opacity:0.8;stroke:#4c72b0;stroke-opacity:0.8;" x="284.496597" xlink:href="#mbb9e7eb605" y="320.837699"/>
     <use style="fill:#4c72b0;fill-opacity:0.8;stroke:#4c72b0;stroke-opacity:0.8;" x="224.697838" xlink:href="#mbb9e7eb605" y="287.045006"/>
     <use style="fill:#4c72b0;fill-opacity:0.8;stroke:#4c72b0;stroke-opacity:0.8;" x="102.382195" xlink:href="#mbb9e7eb605" y="337.715834"/>
     <use style="fill:#4c72b0;fill-opacity:0.8;stroke:#4c72b0;stroke-opacity:0.8;" x="99.664069" xlink:href="#mbb9e7eb605" y="333.923148"/>
     <use style="fill:#4c72b0;fill-opacity:0.8;stroke:#4c72b0;stroke-opacity:0.8;" x="179.848769" xlink:href="#mbb9e7eb605" y="280.8301"/>
     <use style="fill:#4c72b0;fill-opacity:0.8;stroke:#4c72b0;stroke-opacity:0.8;" x="289.932848" xlink:href="#mbb9e7eb605" y="336.377239"/>
     <use style="fill:#4c72b0;fill-opacity:0.8;stroke:#4c72b0;stroke-opacity:0.8;" x="190.72127" xlink:href="#mbb9e7eb605" y="325.723116"/>
     <use style="fill:#4c72b0;fill-opacity:0.8;stroke:#4c72b0;stroke-opacity:0.8;" x="192.080333" xlink:href="#mbb9e7eb605" y="277.597439"/>
     <use style="fill:#4c72b0;fill-opacity:0.8;stroke:#4c72b0;stroke-opacity:0.8;" x="228.775026" xlink:href="#mbb9e7eb605" y="272.051831"/>
     <use style="fill:#4c72b0;fill-opacity:0.8;stroke:#4c72b0;stroke-opacity:0.8;" x="95.586881" xlink:href="#mbb9e7eb605" y="411.575316"/>
     <use style="fill:#4c72b0;fill-opacity:0.8;stroke:#4c72b0;stroke-opacity:0.8;" x="158.103766" xlink:href="#mbb9e7eb605" y="358.404867"/>
     <use style="fill:#4c72b0;fill-opacity:0.8;stroke:#4c72b0;stroke-opacity:0.8;" x="238.288465" xlink:href="#mbb9e7eb605" y="318.752405"/>
     <use style="fill:#4c72b0;fill-opacity:0.8;stroke:#4c72b0;stroke-opacity:0.8;" x="186.644082" xlink:href="#mbb9e7eb605" y="365.70795"/>
     <use style="fill:#4c72b0;fill-opacity:0.8;stroke:#4c72b0;stroke-opacity:0.8;" x="151.308452" xlink:href="#mbb9e7eb605" y="376.494111"/>
     <use style="fill:#4c72b0;fill-opacity:0.8;stroke:#4c72b0;stroke-opacity:0.8;" x="143.154076" xlink:href="#mbb9e7eb605" y="220.201764"/>
     <use style="fill:#4c72b0;fill-opacity:0.8;stroke:#4c72b0;stroke-opacity:0.8;" x="317.114102" xlink:href="#mbb9e7eb605" y="292.836478"/>
     <use style="fill:#4c72b0;fill-opacity:0.8;stroke:#4c72b0;stroke-opacity:0.8;" x="219.261587" xlink:href="#mbb9e7eb605" y="282.801569"/>
     <use style="fill:#4c72b0;fill-opacity:0.8;stroke:#4c72b0;stroke-opacity:0.8;" x="160.821891" xlink:href="#mbb9e7eb605" y="218.294039"/>
     <use style="fill:#4c72b0;fill-opacity:0.8;stroke:#4c72b0;stroke-opacity:0.8;" x="261.392531" xlink:href="#mbb9e7eb605" y="333.568011"/>
     <use style="fill:#4c72b0;fill-opacity:0.8;stroke:#4c72b0;stroke-opacity:0.8;" x="268.187845" xlink:href="#mbb9e7eb605" y="247.424415"/>
     <use style="fill:#4c72b0;fill-opacity:0.8;stroke:#4c72b0;stroke-opacity:0.8;" x="181.207832" xlink:href="#mbb9e7eb605" y="218.59454"/>
     <use style="fill:#4c72b0;fill-opacity:0.8;stroke:#4c72b0;stroke-opacity:0.8;" x="179.848769" xlink:href="#mbb9e7eb605" y="256.193578"/>
     <use style="fill:#4c72b0;fill-opacity:0.8;stroke:#4c72b0;stroke-opacity:0.8;" x="255.95628" xlink:href="#mbb9e7eb605" y="330.298925"/>
     <use style="fill:#4c72b0;fill-opacity:0.8;stroke:#4c72b0;stroke-opacity:0.8;" x="213.825336" xlink:href="#mbb9e7eb605" y="320.596388"/>
     <use style="fill:#4c72b0;fill-opacity:0.8;stroke:#4c72b0;stroke-opacity:0.8;" x="193.439396" xlink:href="#mbb9e7eb605" y="189.837513"/>
     <use style="fill:#4c72b0;fill-opacity:0.8;stroke:#4c72b0;stroke-opacity:0.8;" x="277.701284" xlink:href="#mbb9e7eb605" y="256.876535"/>
     <use style="fill:#4c72b0;fill-opacity:0.8;stroke:#4c72b0;stroke-opacity:0.8;" x="288.573785" xlink:href="#mbb9e7eb605" y="270.435501"/>
     <use style="fill:#4c72b0;fill-opacity:0.8;stroke:#4c72b0;stroke-opacity:0.8;" x="236.929402" xlink:href="#mbb9e7eb605" y="309.901287"/>
     <use style="fill:#4c72b0;fill-opacity:0.8;stroke:#4c72b0;stroke-opacity:0.8;" x="174.412518" xlink:href="#mbb9e7eb605" y="350.755753"/>
     <use style="fill:#4c72b0;fill-opacity:0.8;stroke:#4c72b0;stroke-opacity:0.8;" x="174.412518" xlink:href="#mbb9e7eb605" y="323.546761"/>
     <use style="fill:#4c72b0;fill-opacity:0.8;stroke:#4c72b0;stroke-opacity:0.8;" x="291.291911" xlink:href="#mbb9e7eb605" y="230.933289"/>
     <use style="fill:#4c72b0;fill-opacity:0.8;stroke:#4c72b0;stroke-opacity:0.8;" x="208.389086" xlink:href="#mbb9e7eb605" y="287.668773"/>
     <use style="fill:#4c72b0;fill-opacity:0.8;stroke:#4c72b0;stroke-opacity:0.8;" x="265.469719" xlink:href="#mbb9e7eb605" y="350.286789"/>
     <use style="fill:#4c72b0;fill-opacity:0.8;stroke:#4c72b0;stroke-opacity:0.8;" x="223.338775" xlink:href="#mbb9e7eb605" y="299.515794"/>
     <use style="fill:#4c72b0;fill-opacity:0.8;stroke:#4c72b0;stroke-opacity:0.8;" x="193.439396" xlink:href="#mbb9e7eb605" y="324.54843"/>
     <use style="fill:#4c72b0;fill-opacity:0.8;stroke:#4c72b0;stroke-opacity:0.8;" x="177.130643" xlink:href="#mbb9e7eb605" y="297.863039"/>
     <use style="fill:#4c72b0;fill-opacity:0.8;stroke:#4c72b0;stroke-opacity:0.8;" x="333.422854" xlink:href="#mbb9e7eb605" y="373.138518"/>
     <use style="fill:#4c72b0;fill-opacity:0.8;stroke:#4c72b0;stroke-opacity:0.8;" x="310.318788" xlink:href="#mbb9e7eb605" y="306.217875"/>
     <use style="fill:#4c72b0;fill-opacity:0.8;stroke:#4c72b0;stroke-opacity:0.8;" x="265.469719" xlink:href="#mbb9e7eb605" y="300.485592"/>
     <use style="fill:#4c72b0;fill-opacity:0.8;stroke:#4c72b0;stroke-opacity:0.8;" x="185.28502" xlink:href="#mbb9e7eb605" y="241.182192"/>
     <use style="fill:#4c72b0;fill-opacity:0.8;stroke:#4c72b0;stroke-opacity:0.8;" x="171.694393" xlink:href="#mbb9e7eb605" y="287.108748"/>
     <use style="fill:#4c72b0;fill-opacity:0.8;stroke:#4c72b0;stroke-opacity:0.8;" x="348.372544" xlink:href="#mbb9e7eb605" y="267.498787"/>
     <use style="fill:#4c72b0;fill-opacity:0.8;stroke:#4c72b0;stroke-opacity:0.8;" x="208.389086" xlink:href="#mbb9e7eb605" y="251.763466"/>
     <use style="fill:#4c72b0;fill-opacity:0.8;stroke:#4c72b0;stroke-opacity:0.8;" x="249.160967" xlink:href="#mbb9e7eb605" y="240.83616"/>
     <use style="fill:#4c72b0;fill-opacity:0.8;stroke:#4c72b0;stroke-opacity:0.8;" x="181.207832" xlink:href="#mbb9e7eb605" y="256.771815"/>
     <use style="fill:#4c72b0;fill-opacity:0.8;stroke:#4c72b0;stroke-opacity:0.8;" x="322.550353" xlink:href="#mbb9e7eb605" y="332.939691"/>
     <use style="fill:#4c72b0;fill-opacity:0.8;stroke:#4c72b0;stroke-opacity:0.8;" x="121.409073" xlink:href="#mbb9e7eb605" y="372.560281"/>
    </g>
   </g>
   <g id="PolyCollection_1">
    <defs>
     <path d="M 54.815 -204.596495 
L 54.815 -162.516042 
L 58.411711 -163.421866 
L 62.008423 -164.221621 
L 65.605134 -165.090589 
L 69.201846 -165.961929 
L 72.798557 -166.833363 
L 76.395268 -167.704797 
L 79.99198 -168.576232 
L 83.588691 -169.447666 
L 87.185403 -170.231811 
L 90.782114 -171.017971 
L 94.378825 -171.839441 
L 97.975537 -172.71932 
L 101.572248 -173.604378 
L 105.16896 -174.490208 
L 108.765671 -175.473376 
L 112.362382 -176.367106 
L 115.959094 -177.243757 
L 119.555805 -178.021333 
L 123.152517 -178.87146 
L 126.749228 -179.561647 
L 130.345939 -180.252125 
L 133.942651 -181.056661 
L 137.539362 -181.818652 
L 141.136074 -182.593074 
L 144.732785 -183.656277 
L 148.329496 -184.589909 
L 151.926208 -185.311529 
L 155.522919 -185.986617 
L 159.119631 -186.748656 
L 162.716342 -187.467845 
L 166.313053 -188.189061 
L 169.909765 -188.849766 
L 173.506476 -189.509255 
L 177.103188 -190.16278 
L 180.699899 -190.816305 
L 184.29661 -191.474212 
L 187.893322 -192.272643 
L 191.490033 -192.919017 
L 195.086745 -193.706495 
L 198.683456 -194.399582 
L 202.280167 -195.246851 
L 205.876879 -195.812763 
L 209.47359 -196.674038 
L 213.070302 -197.282082 
L 216.667013 -197.839964 
L 220.263724 -198.406609 
L 223.860436 -198.939384 
L 227.457147 -199.372538 
L 231.053859 -199.791026 
L 234.65057 -200.186888 
L 238.247281 -200.628883 
L 241.843993 -201.20892 
L 245.440704 -201.487786 
L 249.037416 -201.762949 
L 252.634127 -202.155384 
L 256.230838 -202.507238 
L 259.82755 -202.946771 
L 263.424261 -203.423147 
L 267.020973 -203.731174 
L 270.617684 -204.128548 
L 274.214395 -204.520732 
L 277.811107 -204.822978 
L 281.407818 -205.035679 
L 285.00453 -205.52177 
L 288.601241 -205.879934 
L 292.197952 -205.983558 
L 295.794664 -206.181723 
L 299.391375 -206.297802 
L 302.988087 -206.537155 
L 306.584798 -206.724934 
L 310.181509 -207.099356 
L 313.778221 -207.21101 
L 317.374932 -207.433313 
L 320.971644 -207.67255 
L 324.568355 -208.008351 
L 328.165066 -208.327766 
L 331.761778 -208.60677 
L 335.358489 -208.735502 
L 338.955201 -209.005168 
L 342.551912 -209.194209 
L 346.148623 -209.323222 
L 349.745335 -209.483726 
L 353.342046 -209.642681 
L 356.938758 -209.801637 
L 360.535469 -209.960592 
L 364.13218 -210.120383 
L 367.728892 -210.28253 
L 371.325603 -210.44268 
L 374.922315 -210.622214 
L 378.519026 -210.761818 
L 382.115737 -210.920613 
L 385.712449 -211.079409 
L 389.30916 -211.238205 
L 392.905872 -211.33926 
L 396.502583 -211.399217 
L 400.099294 -211.482288 
L 403.696006 -211.603732 
L 407.292717 -211.748166 
L 410.889429 -211.967915 
L 410.889429 -251.562832 
L 410.889429 -251.562832 
L 407.292717 -250.827419 
L 403.696006 -250.092006 
L 400.099294 -249.352206 
L 396.502583 -248.554263 
L 392.905872 -247.686214 
L 389.30916 -246.818165 
L 385.712449 -245.950116 
L 382.115737 -245.080561 
L 378.519026 -244.21293 
L 374.922315 -243.34323 
L 371.325603 -242.319134 
L 367.728892 -241.366732 
L 364.13218 -240.562928 
L 360.535469 -239.733897 
L 356.938758 -238.942044 
L 353.342046 -238.103667 
L 349.745335 -237.170198 
L 346.148623 -236.236729 
L 342.551912 -235.30326 
L 338.955201 -234.369791 
L 335.358489 -233.693688 
L 331.761778 -232.924068 
L 328.165066 -232.02984 
L 324.568355 -231.070726 
L 320.971644 -230.111613 
L 317.374932 -229.348326 
L 313.778221 -228.622937 
L 310.181509 -228.010971 
L 306.584798 -227.172572 
L 302.988087 -226.366293 
L 299.391375 -225.677063 
L 295.794664 -225.084335 
L 292.197952 -224.487539 
L 288.601241 -223.717047 
L 285.00453 -222.910869 
L 281.407818 -222.098052 
L 277.811107 -221.375798 
L 274.214395 -220.737405 
L 270.617684 -219.987552 
L 267.020973 -219.25708 
L 263.424261 -218.784903 
L 259.82755 -218.264907 
L 256.230838 -217.796671 
L 252.634127 -217.233121 
L 249.037416 -216.790685 
L 245.440704 -216.135176 
L 241.843993 -215.674601 
L 238.247281 -215.349719 
L 234.65057 -214.90776 
L 231.053859 -214.471399 
L 227.457147 -213.950181 
L 223.860436 -213.377447 
L 220.263724 -213.142446 
L 216.667013 -212.854739 
L 213.070302 -212.548787 
L 209.47359 -212.198087 
L 205.876879 -211.815751 
L 202.280167 -211.414952 
L 198.683456 -211.11349 
L 195.086745 -210.841389 
L 191.490033 -210.654591 
L 187.893322 -210.438097 
L 184.29661 -210.200343 
L 180.699899 -209.991096 
L 177.103188 -209.677916 
L 173.506476 -209.433801 
L 169.909765 -209.218838 
L 166.313053 -209.005774 
L 162.716342 -208.791236 
L 159.119631 -208.66913 
L 155.522919 -208.479773 
L 151.926208 -208.29442 
L 148.329496 -208.138508 
L 144.732785 -208.003042 
L 141.136074 -207.961466 
L 137.539362 -207.767175 
L 133.942651 -207.570071 
L 130.345939 -207.347955 
L 126.749228 -207.074769 
L 123.152517 -206.967327 
L 119.555805 -206.796967 
L 115.959094 -206.627178 
L 112.362382 -206.516181 
L 108.765671 -206.402212 
L 105.16896 -206.245908 
L 101.572248 -206.103378 
L 97.975537 -206.016807 
L 94.378825 -205.930093 
L 90.782114 -205.711347 
L 87.185403 -205.600765 
L 83.588691 -205.498239 
L 79.99198 -205.378984 
L 76.395268 -205.295729 
L 72.798557 -205.195866 
L 69.201846 -205.096003 
L 65.605134 -204.994875 
L 62.008423 -204.891836 
L 58.411711 -204.708541 
L 54.815 -204.596495 
z
" id="m90fb779334" style="stroke:#ffffff;stroke-opacity:0.15;stroke-width:1.5;"/>
    </defs>
    <g clip-path="url(#p53c59f1490)">
     <use style="fill:#4c72b0;fill-opacity:0.15;stroke:#ffffff;stroke-opacity:0.15;stroke-width:1.5;" x="0" xlink:href="#m90fb779334" y="504"/>
    </g>
   </g>
   <g id="line2d_14">
    <path clip-path="url(#p53c59f1490)" d="M 54.815 320.700802 
L 58.411711 320.215553 
L 62.008423 319.730304 
L 65.605134 319.245056 
L 69.201846 318.759807 
L 72.798557 318.274558 
L 76.395268 317.789309 
L 79.99198 317.30406 
L 83.588691 316.818812 
L 87.185403 316.333563 
L 90.782114 315.848314 
L 94.378825 315.363065 
L 97.975537 314.877816 
L 101.572248 314.392568 
L 105.16896 313.907319 
L 108.765671 313.42207 
L 112.362382 312.936821 
L 115.959094 312.451573 
L 119.555805 311.966324 
L 123.152517 311.481075 
L 126.749228 310.995826 
L 130.345939 310.510577 
L 133.942651 310.025329 
L 137.539362 309.54008 
L 141.136074 309.054831 
L 144.732785 308.569582 
L 148.329496 308.084333 
L 151.926208 307.599085 
L 155.522919 307.113836 
L 159.119631 306.628587 
L 162.716342 306.143338 
L 166.313053 305.658089 
L 169.909765 305.172841 
L 173.506476 304.687592 
L 177.103188 304.202343 
L 180.699899 303.717094 
L 184.29661 303.231845 
L 187.893322 302.746597 
L 191.490033 302.261348 
L 195.086745 301.776099 
L 198.683456 301.29085 
L 202.280167 300.805602 
L 205.876879 300.320353 
L 209.47359 299.835104 
L 213.070302 299.349855 
L 216.667013 298.864606 
L 220.263724 298.379358 
L 223.860436 297.894109 
L 227.457147 297.40886 
L 231.053859 296.923611 
L 234.65057 296.438362 
L 238.247281 295.953114 
L 241.843993 295.467865 
L 245.440704 294.982616 
L 249.037416 294.497367 
L 252.634127 294.012118 
L 256.230838 293.52687 
L 259.82755 293.041621 
L 263.424261 292.556372 
L 267.020973 292.071123 
L 270.617684 291.585874 
L 274.214395 291.100626 
L 277.811107 290.615377 
L 281.407818 290.130128 
L 285.00453 289.644879 
L 288.601241 289.159631 
L 292.197952 288.674382 
L 295.794664 288.189133 
L 299.391375 287.703884 
L 302.988087 287.218635 
L 306.584798 286.733387 
L 310.181509 286.248138 
L 313.778221 285.762889 
L 317.374932 285.27764 
L 320.971644 284.792391 
L 324.568355 284.307143 
L 328.165066 283.821894 
L 331.761778 283.336645 
L 335.358489 282.851396 
L 338.955201 282.366147 
L 342.551912 281.880899 
L 346.148623 281.39565 
L 349.745335 280.910401 
L 353.342046 280.425152 
L 356.938758 279.939903 
L 360.535469 279.454655 
L 364.13218 278.969406 
L 367.728892 278.484157 
L 371.325603 277.998908 
L 374.922315 277.51366 
L 378.519026 277.028411 
L 382.115737 276.543162 
L 385.712449 276.057913 
L 389.30916 275.572664 
L 392.905872 275.087416 
L 396.502583 274.602167 
L 400.099294 274.116918 
L 403.696006 273.631669 
L 407.292717 273.14642 
L 410.889429 272.661172 
" style="fill:none;stroke:#4c72b0;stroke-linecap:round;stroke-width:3.375;"/>
   </g>
   <g id="line2d_15">
    <defs>
     <path d="M 0 4.5 
C 1.193414 4.5 2.338109 4.025852 3.181981 3.181981 
C 4.025852 2.338109 4.5 1.193414 4.5 0 
C 4.5 -1.193414 4.025852 -2.338109 3.181981 -3.181981 
C 2.338109 -4.025852 1.193414 -4.5 0 -4.5 
C -1.193414 -4.5 -2.338109 -4.025852 -3.181981 -3.181981 
C -4.025852 -2.338109 -4.5 -1.193414 -4.5 0 
C -4.5 1.193414 -4.025852 2.338109 -3.181981 3.181981 
C -2.338109 4.025852 -1.193414 4.5 0 4.5 
z
" id="m2e514ae093" style="stroke:#c44e52;"/>
    </defs>
    <g clip-path="url(#p53c59f1490)">
     <use style="fill:#c44e52;stroke:#c44e52;" x="281.778472" xlink:href="#m2e514ae093" y="110.942364"/>
    </g>
   </g>
   <g id="patch_3">
    <path d="M 54.815 457.06 
L 54.815 94.460571 
" style="fill:none;stroke:#262626;stroke-linecap:square;stroke-linejoin:miter;stroke-width:1.875;"/>
   </g>
   <g id="patch_4">
    <path d="M 54.815 457.06 
L 410.889429 457.06 
" style="fill:none;stroke:#262626;stroke-linecap:square;stroke-linejoin:miter;stroke-width:1.875;"/>
   </g>
  </g>
  <g id="axes_2">
   <g id="patch_5">
    <path d="M 54.815 81.957143 
L 410.889429 81.957143 
L 410.889429 19.44 
L 54.815 19.44 
z
" style="fill:#ffffff;"/>
   </g>
   <g id="matplotlib.axis_3">
    <g id="xtick_6"/>
    <g id="xtick_7"/>
    <g id="xtick_8"/>
    <g id="xtick_9"/>
    <g id="xtick_10"/>
   </g>
   <g id="matplotlib.axis_4">
    <g id="ytick_9"/>
    <g id="ytick_10"/>
   </g>
   <g id="patch_6">
    <path clip-path="url(#p40c387a6d8)" d="M 54.815 81.957143 
L 87.185403 81.957143 
L 87.185403 75.341572 
L 54.815 75.341572 
z
" style="fill:#4c72b0;fill-opacity:0.5;stroke:#ffffff;stroke-linejoin:miter;stroke-width:1.5;"/>
   </g>
   <g id="patch_7">
    <path clip-path="url(#p40c387a6d8)" d="M 87.185403 81.957143 
L 119.555805 81.957143 
L 119.555805 60.456538 
L 87.185403 60.456538 
z
" style="fill:#4c72b0;fill-opacity:0.5;stroke:#ffffff;stroke-linejoin:miter;stroke-width:1.5;"/>
   </g>
   <g id="patch_8">
    <path clip-path="url(#p40c387a6d8)" d="M 119.555805 81.957143 
L 151.926208 81.957143 
L 151.926208 58.802646 
L 119.555805 58.802646 
z
" style="fill:#4c72b0;fill-opacity:0.5;stroke:#ffffff;stroke-linejoin:miter;stroke-width:1.5;"/>
   </g>
   <g id="patch_9">
    <path clip-path="url(#p40c387a6d8)" d="M 151.926208 81.957143 
L 184.29661 81.957143 
L 184.29661 33.994255 
L 151.926208 33.994255 
z
" style="fill:#4c72b0;fill-opacity:0.5;stroke:#ffffff;stroke-linejoin:miter;stroke-width:1.5;"/>
   </g>
   <g id="patch_10">
    <path clip-path="url(#p40c387a6d8)" d="M 184.29661 81.957143 
L 216.667013 81.957143 
L 216.667013 22.417007 
L 184.29661 22.417007 
z
" style="fill:#4c72b0;fill-opacity:0.5;stroke:#ffffff;stroke-linejoin:miter;stroke-width:1.5;"/>
   </g>
   <g id="patch_11">
    <path clip-path="url(#p40c387a6d8)" d="M 216.667013 81.957143 
L 249.037416 81.957143 
L 249.037416 29.032577 
L 216.667013 29.032577 
z
" style="fill:#4c72b0;fill-opacity:0.5;stroke:#ffffff;stroke-linejoin:miter;stroke-width:1.5;"/>
   </g>
   <g id="patch_12">
    <path clip-path="url(#p40c387a6d8)" d="M 249.037416 81.957143 
L 281.407818 81.957143 
L 281.407818 45.571504 
L 249.037416 45.571504 
z
" style="fill:#4c72b0;fill-opacity:0.5;stroke:#ffffff;stroke-linejoin:miter;stroke-width:1.5;"/>
   </g>
   <g id="patch_13">
    <path clip-path="url(#p40c387a6d8)" d="M 281.407818 81.957143 
L 313.778221 81.957143 
L 313.778221 38.955933 
L 281.407818 38.955933 
z
" style="fill:#4c72b0;fill-opacity:0.5;stroke:#ffffff;stroke-linejoin:miter;stroke-width:1.5;"/>
   </g>
   <g id="patch_14">
    <path clip-path="url(#p40c387a6d8)" d="M 313.778221 81.957143 
L 346.148623 81.957143 
L 346.148623 65.418216 
L 313.778221 65.418216 
z
" style="fill:#4c72b0;fill-opacity:0.5;stroke:#ffffff;stroke-linejoin:miter;stroke-width:1.5;"/>
   </g>
   <g id="patch_15">
    <path clip-path="url(#p40c387a6d8)" d="M 346.148623 81.957143 
L 378.519026 81.957143 
L 378.519026 75.341572 
L 346.148623 75.341572 
z
" style="fill:#4c72b0;fill-opacity:0.5;stroke:#ffffff;stroke-linejoin:miter;stroke-width:1.5;"/>
   </g>
   <g id="patch_16">
    <path clip-path="url(#p40c387a6d8)" d="M 378.519026 81.957143 
L 410.889429 81.957143 
L 410.889429 78.649358 
L 378.519026 78.649358 
z
" style="fill:#4c72b0;fill-opacity:0.5;stroke:#ffffff;stroke-linejoin:miter;stroke-width:1.5;"/>
   </g>
   <g id="line2d_16">
    <path clip-path="url(#p40c387a6d8)" d="M 54.815 77.018349 
L 63.761594 75.485256 
L 70.918869 74.022781 
L 78.076144 72.30092 
L 85.233419 70.328617 
L 95.969331 67.080951 
L 112.0732 62.225114 
L 122.809112 58.970278 
L 128.177068 57.1611 
L 133.545024 55.130498 
L 138.912981 52.8285 
L 144.280937 50.243887 
L 149.648893 47.411193 
L 158.595487 42.366835 
L 167.54208 37.3961 
L 172.910037 34.685693 
L 178.277993 32.29672 
L 181.85663 30.911787 
L 185.435268 29.703188 
L 189.013905 28.673186 
L 192.592543 27.820341 
L 196.17118 27.141628 
L 199.749818 26.6344 
L 203.328455 26.297769 
L 206.907093 26.133153 
L 210.48573 26.143858 
L 214.064368 26.333752 
L 217.643005 26.705303 
L 221.221642 27.257339 
L 224.80028 27.982985 
L 230.168236 29.364075 
L 235.536192 31.022532 
L 246.272105 34.705493 
L 253.42938 37.033939 
L 258.797336 38.556978 
L 264.165292 39.853756 
L 271.322567 41.286579 
L 285.637117 43.953202 
L 291.005073 45.222687 
L 296.373029 46.772633 
L 301.740986 48.635782 
L 307.108942 50.800862 
L 312.476898 53.217633 
L 319.634173 56.693351 
L 332.159404 62.850433 
L 339.316679 66.072776 
L 344.684635 68.245107 
L 350.052592 70.178205 
L 355.420548 71.866276 
L 360.788504 73.318805 
L 366.15646 74.556007 
L 371.524416 75.604357 
L 378.681691 76.75819 
L 385.838966 77.693076 
L 394.78556 78.637848 
L 405.521472 79.546218 
L 410.889429 79.933579 
L 410.889429 79.933579 
" style="fill:none;stroke:#4c72b0;stroke-linecap:round;stroke-width:2.25;"/>
   </g>
   <g id="patch_17">
    <path d="M 54.815 81.957143 
L 410.889429 81.957143 
" style="fill:none;stroke:#262626;stroke-linecap:square;stroke-linejoin:miter;stroke-width:1.875;"/>
   </g>
  </g>
  <g id="axes_3">
   <g id="patch_18">
    <path d="M 423.167857 457.06 
L 484.56 457.06 
L 484.56 94.460571 
L 423.167857 94.460571 
z
" style="fill:#ffffff;"/>
   </g>
   <g id="matplotlib.axis_5">
    <g id="xtick_11"/>
    <g id="xtick_12"/>
   </g>
   <g id="matplotlib.axis_6">
    <g id="ytick_11"/>
    <g id="ytick_12"/>
    <g id="ytick_13"/>
    <g id="ytick_14"/>
    <g id="ytick_15"/>
    <g id="ytick_16"/>
    <g id="ytick_17"/>
    <g id="ytick_18"/>
   </g>
   <g id="patch_19">
    <path clip-path="url(#p5db244a723)" d="M 423.167857 440.578208 
L 433.798531 440.578208 
L 433.798531 416.679693 
L 423.167857 416.679693 
z
" style="fill:#4c72b0;fill-opacity:0.5;stroke:#ffffff;stroke-linejoin:miter;stroke-width:1.5;"/>
   </g>
   <g id="patch_20">
    <path clip-path="url(#p5db244a723)" d="M 423.167857 416.679693 
L 428.483194 416.679693 
L 428.483194 392.781178 
L 423.167857 392.781178 
z
" style="fill:#4c72b0;fill-opacity:0.5;stroke:#ffffff;stroke-linejoin:miter;stroke-width:1.5;"/>
   </g>
   <g id="patch_21">
    <path clip-path="url(#p5db244a723)" d="M 423.167857 392.781178 
L 439.113868 392.781178 
L 439.113868 368.882663 
L 423.167857 368.882663 
z
" style="fill:#4c72b0;fill-opacity:0.5;stroke:#ffffff;stroke-linejoin:miter;stroke-width:1.5;"/>
   </g>
   <g id="patch_22">
    <path clip-path="url(#p5db244a723)" d="M 423.167857 368.882663 
L 462.146995 368.882663 
L 462.146995 344.984148 
L 423.167857 344.984148 
z
" style="fill:#4c72b0;fill-opacity:0.5;stroke:#ffffff;stroke-linejoin:miter;stroke-width:1.5;"/>
   </g>
   <g id="patch_23">
    <path clip-path="url(#p5db244a723)" d="M 423.167857 344.984148 
L 465.690553 344.984148 
L 465.690553 321.085633 
L 423.167857 321.085633 
z
" style="fill:#4c72b0;fill-opacity:0.5;stroke:#ffffff;stroke-linejoin:miter;stroke-width:1.5;"/>
   </g>
   <g id="patch_24">
    <path clip-path="url(#p5db244a723)" d="M 423.167857 321.085633 
L 481.636565 321.085633 
L 481.636565 297.187118 
L 423.167857 297.187118 
z
" style="fill:#4c72b0;fill-opacity:0.5;stroke:#ffffff;stroke-linejoin:miter;stroke-width:1.5;"/>
   </g>
   <g id="patch_25">
    <path clip-path="url(#p5db244a723)" d="M 423.167857 297.187118 
L 478.093007 297.187118 
L 478.093007 273.288604 
L 423.167857 273.288604 
z
" style="fill:#4c72b0;fill-opacity:0.5;stroke:#ffffff;stroke-linejoin:miter;stroke-width:1.5;"/>
   </g>
   <g id="patch_26">
    <path clip-path="url(#p5db244a723)" d="M 423.167857 273.288604 
L 479.864786 273.288604 
L 479.864786 249.390089 
L 423.167857 249.390089 
z
" style="fill:#4c72b0;fill-opacity:0.5;stroke:#ffffff;stroke-linejoin:miter;stroke-width:1.5;"/>
   </g>
   <g id="patch_27">
    <path clip-path="url(#p5db244a723)" d="M 423.167857 249.390089 
L 442.657426 249.390089 
L 442.657426 225.491574 
L 423.167857 225.491574 
z
" style="fill:#4c72b0;fill-opacity:0.5;stroke:#ffffff;stroke-linejoin:miter;stroke-width:1.5;"/>
   </g>
   <g id="patch_28">
    <path clip-path="url(#p5db244a723)" d="M 423.167857 225.491574 
L 449.744542 225.491574 
L 449.744542 201.593059 
L 423.167857 201.593059 
z
" style="fill:#4c72b0;fill-opacity:0.5;stroke:#ffffff;stroke-linejoin:miter;stroke-width:1.5;"/>
   </g>
   <g id="patch_29">
    <path clip-path="url(#p5db244a723)" d="M 423.167857 201.593059 
L 433.798531 201.593059 
L 433.798531 177.694544 
L 423.167857 177.694544 
z
" style="fill:#4c72b0;fill-opacity:0.5;stroke:#ffffff;stroke-linejoin:miter;stroke-width:1.5;"/>
   </g>
   <g id="line2d_17">
    <path clip-path="url(#p5db244a723)" d="M 427.797666 440.578208 
L 428.971911 432.652067 
L 429.720505 426.04695 
L 430.353184 418.120809 
L 431.095037 408.873645 
L 431.607903 404.910575 
L 432.350734 400.947505 
L 433.394131 396.984434 
L 434.282737 394.342388 
L 435.335696 391.700341 
L 437.222947 387.73727 
L 439.451336 383.7742 
L 441.95737 379.81113 
L 445.57376 374.527036 
L 452.883363 363.958849 
L 456.24407 358.674755 
L 459.342071 353.390661 
L 462.916136 346.785544 
L 466.243379 340.180427 
L 468.698141 334.896333 
L 470.350087 330.933263 
L 471.774233 326.970192 
L 472.922352 323.007122 
L 473.777286 319.044052 
L 474.366004 315.080981 
L 474.867442 309.796888 
L 475.539675 301.870747 
L 476.054244 297.907677 
L 477.004859 292.623583 
L 478.881791 283.376419 
L 479.245949 280.734372 
L 479.43196 278.092325 
L 479.388156 275.450278 
L 479.071917 272.808231 
L 478.453259 270.166185 
L 477.517354 267.524138 
L 476.265795 264.882091 
L 474.716575 262.240044 
L 472.902803 259.597997 
L 469.789152 255.634927 
L 465.209023 250.350833 
L 459.480729 243.745716 
L 456.352685 239.782646 
L 453.590673 235.819575 
L 451.972133 233.177528 
L 449.864447 229.214458 
L 448.08188 225.251388 
L 446.041696 219.967294 
L 441.193808 206.75706 
L 438.446733 200.151942 
L 431.055165 182.978638 
L 429.123326 177.694544 
L 429.123326 177.694544 
" style="fill:none;stroke:#4c72b0;stroke-linecap:round;stroke-width:2.25;"/>
   </g>
   <g id="patch_30">
    <path d="M 423.167857 457.06 
L 423.167857 94.460571 
" style="fill:none;stroke:#262626;stroke-linecap:square;stroke-linejoin:miter;stroke-width:1.875;"/>
   </g>
  </g>
 </g>
 <defs>
  <clipPath id="p53c59f1490">
   <rect height="362.599429" width="356.074429" x="54.815" y="94.460571"/>
  </clipPath>
  <clipPath id="p40c387a6d8">
   <rect height="62.517143" width="356.074429" x="54.815" y="19.44"/>
  </clipPath>
  <clipPath id="p5db244a723">
   <rect height="362.599429" width="61.392143" x="423.167857" y="94.460571"/>
  </clipPath>
 </defs>
</svg>
