<?xml version="1.0" encoding="utf-8" standalone="no"?>
<!DOCTYPE svg PUBLIC "-//W3C//DTD SVG 1.1//EN"
  "http://www.w3.org/Graphics/SVG/1.1/DTD/svg11.dtd">
<!-- Created with matplotlib (https://matplotlib.org/) -->
<svg height="504pt" version="1.1" viewBox="0 0 504 504" width="504pt" xmlns="http://www.w3.org/2000/svg" xmlns:xlink="http://www.w3.org/1999/xlink">
 <metadata>
  <rdf:RDF xmlns:cc="http://creativecommons.org/ns#" xmlns:dc="http://purl.org/dc/elements/1.1/" xmlns:rdf="http://www.w3.org/1999/02/22-rdf-syntax-ns#">
   <cc:Work>
    <dc:type rdf:resource="http://purl.org/dc/dcmitype/StillImage"/>
    <dc:date>2021-02-17T15:30:37.511638</dc:date>
    <dc:format>image/svg+xml</dc:format>
    <dc:creator>
     <cc:Agent>
      <dc:title>Matplotlib v3.3.3, https://matplotlib.org/</dc:title>
     </cc:Agent>
    </dc:creator>
   </cc:Work>
  </rdf:RDF>
 </metadata>
 <defs>
  <style type="text/css">*{stroke-linecap:butt;stroke-linejoin:round;}</style>
 </defs>
 <g id="figure_1">
  <g id="patch_1">
   <path d="M 0 504 
L 504 504 
L 504 0 
L 0 0 
z
" style="fill:#ffffff;"/>
  </g>
  <g id="axes_1">
   <g id="patch_2">
    <path d="M 54.815 457.06 
L 410.889429 457.06 
L 410.889429 94.460571 
L 54.815 94.460571 
z
" style="fill:#ffffff;"/>
   </g>
   <g id="matplotlib.axis_1">
    <g id="xtick_1">
     <g id="line2d_1">
      <defs>
       <path d="M 0 0 
L 0 9 
" id="m93582367f2" style="stroke:#262626;stroke-width:1.875;"/>
      </defs>
      <g>
       <use style="fill:#262626;stroke:#262626;stroke-width:1.875;" x="67.117565" xlink:href="#m93582367f2" y="457.06"/>
      </g>
     </g>
     <g id="text_1">
      <!-- −0.50 -->
      <g style="fill:#262626;" transform="translate(46.243776 481.370391)scale(0.165 -0.165)">
       <defs>
        <path d="M 52.828125 31.203125 
L 5.5625 31.203125 
L 5.5625 39.40625 
L 52.828125 39.40625 
z
" id="ArialMT-8722"/>
        <path d="M 4.15625 35.296875 
Q 4.15625 48 6.765625 55.734375 
Q 9.375 63.484375 14.515625 67.671875 
Q 19.671875 71.875 27.484375 71.875 
Q 33.25 71.875 37.59375 69.546875 
Q 41.9375 67.234375 44.765625 62.859375 
Q 47.609375 58.5 49.21875 52.21875 
Q 50.828125 45.953125 50.828125 35.296875 
Q 50.828125 22.703125 48.234375 14.96875 
Q 45.65625 7.234375 40.5 3 
Q 35.359375 -1.21875 27.484375 -1.21875 
Q 17.140625 -1.21875 11.234375 6.203125 
Q 4.15625 15.140625 4.15625 35.296875 
z
M 13.1875 35.296875 
Q 13.1875 17.671875 17.3125 11.828125 
Q 21.4375 6 27.484375 6 
Q 33.546875 6 37.671875 11.859375 
Q 41.796875 17.71875 41.796875 35.296875 
Q 41.796875 52.984375 37.671875 58.78125 
Q 33.546875 64.59375 27.390625 64.59375 
Q 21.34375 64.59375 17.71875 59.46875 
Q 13.1875 52.9375 13.1875 35.296875 
z
" id="ArialMT-48"/>
        <path d="M 9.078125 0 
L 9.078125 10.015625 
L 19.09375 10.015625 
L 19.09375 0 
z
" id="ArialMT-46"/>
        <path d="M 4.15625 18.75 
L 13.375 19.53125 
Q 14.40625 12.796875 18.140625 9.390625 
Q 21.875 6 27.15625 6 
Q 33.5 6 37.890625 10.78125 
Q 42.28125 15.578125 42.28125 23.484375 
Q 42.28125 31 38.0625 35.34375 
Q 33.84375 39.703125 27 39.703125 
Q 22.75 39.703125 19.328125 37.765625 
Q 15.921875 35.84375 13.96875 32.765625 
L 5.71875 33.84375 
L 12.640625 70.609375 
L 48.25 70.609375 
L 48.25 62.203125 
L 19.671875 62.203125 
L 15.828125 42.96875 
Q 22.265625 47.46875 29.34375 47.46875 
Q 38.71875 47.46875 45.15625 40.96875 
Q 51.609375 34.46875 51.609375 24.265625 
Q 51.609375 14.546875 45.953125 7.46875 
Q 39.0625 -1.21875 27.15625 -1.21875 
Q 17.390625 -1.21875 11.203125 4.25 
Q 5.03125 9.71875 4.15625 18.75 
z
" id="ArialMT-53"/>
       </defs>
       <use xlink:href="#ArialMT-8722"/>
       <use x="58.398438" xlink:href="#ArialMT-48"/>
       <use x="114.013672" xlink:href="#ArialMT-46"/>
       <use x="141.796875" xlink:href="#ArialMT-53"/>
       <use x="197.412109" xlink:href="#ArialMT-48"/>
      </g>
     </g>
    </g>
    <g id="xtick_2">
     <g id="line2d_2">
      <g>
       <use style="fill:#262626;stroke:#262626;stroke-width:1.875;" x="124.412876" xlink:href="#m93582367f2" y="457.06"/>
      </g>
     </g>
     <g id="text_2">
      <!-- −0.25 -->
      <g style="fill:#262626;" transform="translate(103.539087 481.370391)scale(0.165 -0.165)">
       <defs>
        <path d="M 50.34375 8.453125 
L 50.34375 0 
L 3.03125 0 
Q 2.9375 3.171875 4.046875 6.109375 
Q 5.859375 10.9375 9.828125 15.625 
Q 13.8125 20.3125 21.34375 26.46875 
Q 33.015625 36.03125 37.109375 41.625 
Q 41.21875 47.21875 41.21875 52.203125 
Q 41.21875 57.421875 37.46875 61 
Q 33.734375 64.59375 27.734375 64.59375 
Q 21.390625 64.59375 17.578125 60.78125 
Q 13.765625 56.984375 13.71875 50.25 
L 4.6875 51.171875 
Q 5.609375 61.28125 11.65625 66.578125 
Q 17.71875 71.875 27.9375 71.875 
Q 38.234375 71.875 44.234375 66.15625 
Q 50.25 60.453125 50.25 52 
Q 50.25 47.703125 48.484375 43.546875 
Q 46.734375 39.40625 42.65625 34.8125 
Q 38.578125 30.21875 29.109375 22.21875 
Q 21.1875 15.578125 18.9375 13.203125 
Q 16.703125 10.84375 15.234375 8.453125 
z
" id="ArialMT-50"/>
       </defs>
       <use xlink:href="#ArialMT-8722"/>
       <use x="58.398438" xlink:href="#ArialMT-48"/>
       <use x="114.013672" xlink:href="#ArialMT-46"/>
       <use x="141.796875" xlink:href="#ArialMT-50"/>
       <use x="197.412109" xlink:href="#ArialMT-53"/>
      </g>
     </g>
    </g>
    <g id="xtick_3">
     <g id="line2d_3">
      <g>
       <use style="fill:#262626;stroke:#262626;stroke-width:1.875;" x="181.708186" xlink:href="#m93582367f2" y="457.06"/>
      </g>
     </g>
     <g id="text_3">
      <!-- 0.00 -->
      <g style="fill:#262626;" transform="translate(165.652913 481.370391)scale(0.165 -0.165)">
       <use xlink:href="#ArialMT-48"/>
       <use x="55.615234" xlink:href="#ArialMT-46"/>
       <use x="83.398438" xlink:href="#ArialMT-48"/>
       <use x="139.013672" xlink:href="#ArialMT-48"/>
      </g>
     </g>
    </g>
    <g id="xtick_4">
     <g id="line2d_4">
      <g>
       <use style="fill:#262626;stroke:#262626;stroke-width:1.875;" x="239.003497" xlink:href="#m93582367f2" y="457.06"/>
      </g>
     </g>
     <g id="text_4">
      <!-- 0.25 -->
      <g style="fill:#262626;" transform="translate(222.948223 481.370391)scale(0.165 -0.165)">
       <use xlink:href="#ArialMT-48"/>
       <use x="55.615234" xlink:href="#ArialMT-46"/>
       <use x="83.398438" xlink:href="#ArialMT-50"/>
       <use x="139.013672" xlink:href="#ArialMT-53"/>
      </g>
     </g>
    </g>
    <g id="xtick_5">
     <g id="line2d_5">
      <g>
       <use style="fill:#262626;stroke:#262626;stroke-width:1.875;" x="296.298807" xlink:href="#m93582367f2" y="457.06"/>
      </g>
     </g>
     <g id="text_5">
      <!-- 0.50 -->
      <g style="fill:#262626;" transform="translate(280.243534 481.370391)scale(0.165 -0.165)">
       <use xlink:href="#ArialMT-48"/>
       <use x="55.615234" xlink:href="#ArialMT-46"/>
       <use x="83.398438" xlink:href="#ArialMT-53"/>
       <use x="139.013672" xlink:href="#ArialMT-48"/>
      </g>
     </g>
    </g>
    <g id="xtick_6">
     <g id="line2d_6">
      <g>
       <use style="fill:#262626;stroke:#262626;stroke-width:1.875;" x="353.594118" xlink:href="#m93582367f2" y="457.06"/>
      </g>
     </g>
     <g id="text_6">
      <!-- 0.75 -->
      <g style="fill:#262626;" transform="translate(337.538845 481.370391)scale(0.165 -0.165)">
       <defs>
        <path d="M 4.734375 62.203125 
L 4.734375 70.65625 
L 51.078125 70.65625 
L 51.078125 63.8125 
Q 44.234375 56.546875 37.515625 44.484375 
Q 30.8125 32.421875 27.15625 19.671875 
Q 24.515625 10.6875 23.78125 0 
L 14.75 0 
Q 14.890625 8.453125 18.0625 20.40625 
Q 21.234375 32.375 27.171875 43.484375 
Q 33.109375 54.59375 39.796875 62.203125 
z
" id="ArialMT-55"/>
       </defs>
       <use xlink:href="#ArialMT-48"/>
       <use x="55.615234" xlink:href="#ArialMT-46"/>
       <use x="83.398438" xlink:href="#ArialMT-55"/>
       <use x="139.013672" xlink:href="#ArialMT-53"/>
      </g>
     </g>
    </g>
    <g id="xtick_7">
     <g id="line2d_7">
      <g>
       <use style="fill:#262626;stroke:#262626;stroke-width:1.875;" x="410.889429" xlink:href="#m93582367f2" y="457.06"/>
      </g>
     </g>
     <g id="text_7">
      <!-- 1.00 -->
      <g style="fill:#262626;" transform="translate(394.834155 481.370391)scale(0.165 -0.165)">
       <defs>
        <path d="M 37.25 0 
L 28.46875 0 
L 28.46875 56 
Q 25.296875 52.984375 20.140625 49.953125 
Q 14.984375 46.921875 10.890625 45.40625 
L 10.890625 53.90625 
Q 18.265625 57.375 23.78125 62.296875 
Q 29.296875 67.234375 31.59375 71.875 
L 37.25 71.875 
z
" id="ArialMT-49"/>
       </defs>
       <use xlink:href="#ArialMT-49"/>
       <use x="55.615234" xlink:href="#ArialMT-46"/>
       <use x="83.398438" xlink:href="#ArialMT-48"/>
       <use x="139.013672" xlink:href="#ArialMT-48"/>
      </g>
     </g>
    </g>
    <g id="text_8">
     <!-- Heartbeat counting score -->
     <g style="fill:#262626;" transform="translate(132.299714 501.533828)scale(0.18 -0.18)">
      <defs>
       <path d="M 8.015625 0 
L 8.015625 71.578125 
L 17.484375 71.578125 
L 17.484375 42.1875 
L 54.6875 42.1875 
L 54.6875 71.578125 
L 64.15625 71.578125 
L 64.15625 0 
L 54.6875 0 
L 54.6875 33.734375 
L 17.484375 33.734375 
L 17.484375 0 
z
" id="ArialMT-72"/>
       <path d="M 42.09375 16.703125 
L 51.171875 15.578125 
Q 49.03125 7.625 43.21875 3.21875 
Q 37.40625 -1.171875 28.375 -1.171875 
Q 17 -1.171875 10.328125 5.828125 
Q 3.65625 12.84375 3.65625 25.484375 
Q 3.65625 38.578125 10.390625 45.796875 
Q 17.140625 53.03125 27.875 53.03125 
Q 38.28125 53.03125 44.875 45.953125 
Q 51.46875 38.875 51.46875 26.03125 
Q 51.46875 25.25 51.421875 23.6875 
L 12.75 23.6875 
Q 13.234375 15.140625 17.578125 10.59375 
Q 21.921875 6.0625 28.421875 6.0625 
Q 33.25 6.0625 36.671875 8.59375 
Q 40.09375 11.140625 42.09375 16.703125 
z
M 13.234375 30.90625 
L 42.1875 30.90625 
Q 41.609375 37.453125 38.875 40.71875 
Q 34.671875 45.796875 27.984375 45.796875 
Q 21.921875 45.796875 17.796875 41.75 
Q 13.671875 37.703125 13.234375 30.90625 
z
" id="ArialMT-101"/>
       <path d="M 40.4375 6.390625 
Q 35.546875 2.25 31.03125 0.53125 
Q 26.515625 -1.171875 21.34375 -1.171875 
Q 12.796875 -1.171875 8.203125 3 
Q 3.609375 7.171875 3.609375 13.671875 
Q 3.609375 17.484375 5.34375 20.625 
Q 7.078125 23.78125 9.890625 25.6875 
Q 12.703125 27.59375 16.21875 28.5625 
Q 18.796875 29.25 24.03125 29.890625 
Q 34.671875 31.15625 39.703125 32.90625 
Q 39.75 34.71875 39.75 35.203125 
Q 39.75 40.578125 37.25 42.78125 
Q 33.890625 45.75 27.25 45.75 
Q 21.046875 45.75 18.09375 43.578125 
Q 15.140625 41.40625 13.71875 35.890625 
L 5.125 37.0625 
Q 6.296875 42.578125 8.984375 45.96875 
Q 11.671875 49.359375 16.75 51.1875 
Q 21.828125 53.03125 28.515625 53.03125 
Q 35.15625 53.03125 39.296875 51.46875 
Q 43.453125 49.90625 45.40625 47.53125 
Q 47.359375 45.171875 48.140625 41.546875 
Q 48.578125 39.3125 48.578125 33.453125 
L 48.578125 21.734375 
Q 48.578125 9.46875 49.140625 6.21875 
Q 49.703125 2.984375 51.375 0 
L 42.1875 0 
Q 40.828125 2.734375 40.4375 6.390625 
z
M 39.703125 26.03125 
Q 34.90625 24.078125 25.34375 22.703125 
Q 19.921875 21.921875 17.671875 20.9375 
Q 15.4375 19.96875 14.203125 18.09375 
Q 12.984375 16.21875 12.984375 13.921875 
Q 12.984375 10.40625 15.640625 8.0625 
Q 18.3125 5.71875 23.4375 5.71875 
Q 28.515625 5.71875 32.46875 7.9375 
Q 36.421875 10.15625 38.28125 14.015625 
Q 39.703125 17 39.703125 22.796875 
z
" id="ArialMT-97"/>
       <path d="M 6.5 0 
L 6.5 51.859375 
L 14.40625 51.859375 
L 14.40625 44 
Q 17.4375 49.515625 20 51.265625 
Q 22.5625 53.03125 25.640625 53.03125 
Q 30.078125 53.03125 34.671875 50.203125 
L 31.640625 42.046875 
Q 28.421875 43.953125 25.203125 43.953125 
Q 22.3125 43.953125 20.015625 42.21875 
Q 17.71875 40.484375 16.75 37.40625 
Q 15.28125 32.71875 15.28125 27.15625 
L 15.28125 0 
z
" id="ArialMT-114"/>
       <path d="M 25.78125 7.859375 
L 27.046875 0.09375 
Q 23.34375 -0.6875 20.40625 -0.6875 
Q 15.625 -0.6875 12.984375 0.828125 
Q 10.359375 2.34375 9.28125 4.8125 
Q 8.203125 7.28125 8.203125 15.1875 
L 8.203125 45.015625 
L 1.765625 45.015625 
L 1.765625 51.859375 
L 8.203125 51.859375 
L 8.203125 64.703125 
L 16.9375 69.96875 
L 16.9375 51.859375 
L 25.78125 51.859375 
L 25.78125 45.015625 
L 16.9375 45.015625 
L 16.9375 14.703125 
Q 16.9375 10.9375 17.40625 9.859375 
Q 17.875 8.796875 18.921875 8.15625 
Q 19.96875 7.515625 21.921875 7.515625 
Q 23.390625 7.515625 25.78125 7.859375 
z
" id="ArialMT-116"/>
       <path d="M 14.703125 0 
L 6.546875 0 
L 6.546875 71.578125 
L 15.328125 71.578125 
L 15.328125 46.046875 
Q 20.90625 53.03125 29.546875 53.03125 
Q 34.328125 53.03125 38.59375 51.09375 
Q 42.875 49.171875 45.625 45.671875 
Q 48.390625 42.1875 49.953125 37.25 
Q 51.515625 32.328125 51.515625 26.703125 
Q 51.515625 13.375 44.921875 6.09375 
Q 38.328125 -1.171875 29.109375 -1.171875 
Q 19.921875 -1.171875 14.703125 6.5 
z
M 14.59375 26.3125 
Q 14.59375 17 17.140625 12.84375 
Q 21.296875 6.0625 28.375 6.0625 
Q 34.125 6.0625 38.328125 11.0625 
Q 42.53125 16.0625 42.53125 25.984375 
Q 42.53125 36.140625 38.5 40.96875 
Q 34.46875 45.796875 28.765625 45.796875 
Q 23 45.796875 18.796875 40.796875 
Q 14.59375 35.796875 14.59375 26.3125 
z
" id="ArialMT-98"/>
       <path id="ArialMT-32"/>
       <path d="M 40.4375 19 
L 49.078125 17.875 
Q 47.65625 8.9375 41.8125 3.875 
Q 35.984375 -1.171875 27.484375 -1.171875 
Q 16.84375 -1.171875 10.375 5.78125 
Q 3.90625 12.75 3.90625 25.734375 
Q 3.90625 34.125 6.6875 40.421875 
Q 9.46875 46.734375 15.15625 49.875 
Q 20.84375 53.03125 27.546875 53.03125 
Q 35.984375 53.03125 41.359375 48.75 
Q 46.734375 44.484375 48.25 36.625 
L 39.703125 35.296875 
Q 38.484375 40.53125 35.375 43.15625 
Q 32.28125 45.796875 27.875 45.796875 
Q 21.234375 45.796875 17.078125 41.03125 
Q 12.9375 36.28125 12.9375 25.984375 
Q 12.9375 15.53125 16.9375 10.796875 
Q 20.953125 6.0625 27.390625 6.0625 
Q 32.5625 6.0625 36.03125 9.234375 
Q 39.5 12.40625 40.4375 19 
z
" id="ArialMT-99"/>
       <path d="M 3.328125 25.921875 
Q 3.328125 40.328125 11.328125 47.265625 
Q 18.015625 53.03125 27.640625 53.03125 
Q 38.328125 53.03125 45.109375 46.015625 
Q 51.90625 39.015625 51.90625 26.65625 
Q 51.90625 16.65625 48.90625 10.90625 
Q 45.90625 5.171875 40.15625 2 
Q 34.421875 -1.171875 27.640625 -1.171875 
Q 16.75 -1.171875 10.03125 5.8125 
Q 3.328125 12.796875 3.328125 25.921875 
z
M 12.359375 25.921875 
Q 12.359375 15.96875 16.703125 11.015625 
Q 21.046875 6.0625 27.640625 6.0625 
Q 34.1875 6.0625 38.53125 11.03125 
Q 42.875 16.015625 42.875 26.21875 
Q 42.875 35.84375 38.5 40.796875 
Q 34.125 45.75 27.640625 45.75 
Q 21.046875 45.75 16.703125 40.8125 
Q 12.359375 35.890625 12.359375 25.921875 
z
" id="ArialMT-111"/>
       <path d="M 40.578125 0 
L 40.578125 7.625 
Q 34.515625 -1.171875 24.125 -1.171875 
Q 19.53125 -1.171875 15.546875 0.578125 
Q 11.578125 2.34375 9.640625 5 
Q 7.71875 7.671875 6.9375 11.53125 
Q 6.390625 14.109375 6.390625 19.734375 
L 6.390625 51.859375 
L 15.1875 51.859375 
L 15.1875 23.09375 
Q 15.1875 16.21875 15.71875 13.8125 
Q 16.546875 10.359375 19.234375 8.375 
Q 21.921875 6.390625 25.875 6.390625 
Q 29.828125 6.390625 33.296875 8.421875 
Q 36.765625 10.453125 38.203125 13.9375 
Q 39.65625 17.4375 39.65625 24.078125 
L 39.65625 51.859375 
L 48.4375 51.859375 
L 48.4375 0 
z
" id="ArialMT-117"/>
       <path d="M 6.59375 0 
L 6.59375 51.859375 
L 14.5 51.859375 
L 14.5 44.484375 
Q 20.21875 53.03125 31 53.03125 
Q 35.6875 53.03125 39.625 51.34375 
Q 43.5625 49.65625 45.515625 46.921875 
Q 47.46875 44.1875 48.25 40.4375 
Q 48.734375 37.984375 48.734375 31.890625 
L 48.734375 0 
L 39.9375 0 
L 39.9375 31.546875 
Q 39.9375 36.921875 38.90625 39.578125 
Q 37.890625 42.234375 35.28125 43.8125 
Q 32.671875 45.40625 29.15625 45.40625 
Q 23.53125 45.40625 19.453125 41.84375 
Q 15.375 38.28125 15.375 28.328125 
L 15.375 0 
z
" id="ArialMT-110"/>
       <path d="M 6.640625 61.46875 
L 6.640625 71.578125 
L 15.4375 71.578125 
L 15.4375 61.46875 
z
M 6.640625 0 
L 6.640625 51.859375 
L 15.4375 51.859375 
L 15.4375 0 
z
" id="ArialMT-105"/>
       <path d="M 4.984375 -4.296875 
L 13.53125 -5.5625 
Q 14.0625 -9.515625 16.5 -11.328125 
Q 19.78125 -13.765625 25.4375 -13.765625 
Q 31.546875 -13.765625 34.859375 -11.328125 
Q 38.1875 -8.890625 39.359375 -4.5 
Q 40.046875 -1.8125 39.984375 6.78125 
Q 34.234375 0 25.640625 0 
Q 14.9375 0 9.078125 7.71875 
Q 3.21875 15.4375 3.21875 26.21875 
Q 3.21875 33.640625 5.90625 39.90625 
Q 8.59375 46.1875 13.6875 49.609375 
Q 18.796875 53.03125 25.6875 53.03125 
Q 34.859375 53.03125 40.828125 45.609375 
L 40.828125 51.859375 
L 48.921875 51.859375 
L 48.921875 7.03125 
Q 48.921875 -5.078125 46.453125 -10.125 
Q 44 -15.1875 38.640625 -18.109375 
Q 33.296875 -21.046875 25.484375 -21.046875 
Q 16.21875 -21.046875 10.5 -16.875 
Q 4.78125 -12.703125 4.984375 -4.296875 
z
M 12.25 26.859375 
Q 12.25 16.65625 16.296875 11.96875 
Q 20.359375 7.28125 26.46875 7.28125 
Q 32.515625 7.28125 36.609375 11.9375 
Q 40.71875 16.609375 40.71875 26.5625 
Q 40.71875 36.078125 36.5 40.90625 
Q 32.28125 45.75 26.3125 45.75 
Q 20.453125 45.75 16.34375 40.984375 
Q 12.25 36.234375 12.25 26.859375 
z
" id="ArialMT-103"/>
       <path d="M 3.078125 15.484375 
L 11.765625 16.84375 
Q 12.5 11.625 15.84375 8.84375 
Q 19.1875 6.0625 25.203125 6.0625 
Q 31.25 6.0625 34.171875 8.515625 
Q 37.109375 10.984375 37.109375 14.3125 
Q 37.109375 17.28125 34.515625 19 
Q 32.71875 20.171875 25.53125 21.96875 
Q 15.875 24.421875 12.140625 26.203125 
Q 8.40625 27.984375 6.46875 31.125 
Q 4.546875 34.28125 4.546875 38.09375 
Q 4.546875 41.546875 6.125 44.5 
Q 7.71875 47.46875 10.453125 49.421875 
Q 12.5 50.921875 16.03125 51.96875 
Q 19.578125 53.03125 23.640625 53.03125 
Q 29.734375 53.03125 34.34375 51.265625 
Q 38.96875 49.515625 41.15625 46.5 
Q 43.359375 43.5 44.1875 38.484375 
L 35.59375 37.3125 
Q 35.015625 41.3125 32.203125 43.546875 
Q 29.390625 45.796875 24.265625 45.796875 
Q 18.21875 45.796875 15.625 43.796875 
Q 13.03125 41.796875 13.03125 39.109375 
Q 13.03125 37.40625 14.109375 36.03125 
Q 15.1875 34.625 17.484375 33.6875 
Q 18.796875 33.203125 25.25 31.453125 
Q 34.578125 28.953125 38.25 27.359375 
Q 41.9375 25.78125 44.03125 22.75 
Q 46.140625 19.734375 46.140625 15.234375 
Q 46.140625 10.84375 43.578125 6.953125 
Q 41.015625 3.078125 36.171875 0.953125 
Q 31.34375 -1.171875 25.25 -1.171875 
Q 15.140625 -1.171875 9.84375 3.03125 
Q 4.546875 7.234375 3.078125 15.484375 
z
" id="ArialMT-115"/>
      </defs>
      <use xlink:href="#ArialMT-72"/>
      <use x="72.216797" xlink:href="#ArialMT-101"/>
      <use x="127.832031" xlink:href="#ArialMT-97"/>
      <use x="183.447266" xlink:href="#ArialMT-114"/>
      <use x="216.748047" xlink:href="#ArialMT-116"/>
      <use x="244.53125" xlink:href="#ArialMT-98"/>
      <use x="300.146484" xlink:href="#ArialMT-101"/>
      <use x="355.761719" xlink:href="#ArialMT-97"/>
      <use x="411.376953" xlink:href="#ArialMT-116"/>
      <use x="439.160156" xlink:href="#ArialMT-32"/>
      <use x="466.943359" xlink:href="#ArialMT-99"/>
      <use x="516.943359" xlink:href="#ArialMT-111"/>
      <use x="572.558594" xlink:href="#ArialMT-117"/>
      <use x="628.173828" xlink:href="#ArialMT-110"/>
      <use x="683.789062" xlink:href="#ArialMT-116"/>
      <use x="711.572266" xlink:href="#ArialMT-105"/>
      <use x="733.789062" xlink:href="#ArialMT-110"/>
      <use x="789.404297" xlink:href="#ArialMT-103"/>
      <use x="845.019531" xlink:href="#ArialMT-32"/>
      <use x="872.802734" xlink:href="#ArialMT-115"/>
      <use x="922.802734" xlink:href="#ArialMT-99"/>
      <use x="972.802734" xlink:href="#ArialMT-111"/>
      <use x="1028.417969" xlink:href="#ArialMT-114"/>
      <use x="1061.71875" xlink:href="#ArialMT-101"/>
     </g>
    </g>
   </g>
   <g id="matplotlib.axis_2">
    <g id="ytick_1">
     <g id="line2d_8">
      <defs>
       <path d="M 0 0 
L -9 0 
" id="maa2ce49440" style="stroke:#262626;stroke-width:1.875;"/>
      </defs>
      <g>
       <use style="fill:#262626;stroke:#262626;stroke-width:1.875;" x="54.815" xlink:href="#maa2ce49440" y="447.872185"/>
      </g>
     </g>
     <g id="text_9">
      <!-- −40 -->
      <g style="fill:#262626;" transform="translate(14.326875 453.77738)scale(0.165 -0.165)">
       <defs>
        <path d="M 32.328125 0 
L 32.328125 17.140625 
L 1.265625 17.140625 
L 1.265625 25.203125 
L 33.9375 71.578125 
L 41.109375 71.578125 
L 41.109375 25.203125 
L 50.78125 25.203125 
L 50.78125 17.140625 
L 41.109375 17.140625 
L 41.109375 0 
z
M 32.328125 25.203125 
L 32.328125 57.46875 
L 9.90625 25.203125 
z
" id="ArialMT-52"/>
       </defs>
       <use xlink:href="#ArialMT-8722"/>
       <use x="58.398438" xlink:href="#ArialMT-52"/>
       <use x="114.013672" xlink:href="#ArialMT-48"/>
      </g>
     </g>
    </g>
    <g id="ytick_2">
     <g id="line2d_9">
      <g>
       <use style="fill:#262626;stroke:#262626;stroke-width:1.875;" x="54.815" xlink:href="#maa2ce49440" y="402.341743"/>
      </g>
     </g>
     <g id="text_10">
      <!-- −30 -->
      <g style="fill:#262626;" transform="translate(14.326875 408.246938)scale(0.165 -0.165)">
       <defs>
        <path d="M 4.203125 18.890625 
L 12.984375 20.0625 
Q 14.5 12.59375 18.140625 9.296875 
Q 21.78125 6 27 6 
Q 33.203125 6 37.46875 10.296875 
Q 41.75 14.59375 41.75 20.953125 
Q 41.75 27 37.796875 30.921875 
Q 33.84375 34.859375 27.734375 34.859375 
Q 25.25 34.859375 21.53125 33.890625 
L 22.515625 41.609375 
Q 23.390625 41.5 23.921875 41.5 
Q 29.546875 41.5 34.03125 44.421875 
Q 38.53125 47.359375 38.53125 53.46875 
Q 38.53125 58.296875 35.25 61.46875 
Q 31.984375 64.65625 26.8125 64.65625 
Q 21.6875 64.65625 18.265625 61.421875 
Q 14.84375 58.203125 13.875 51.765625 
L 5.078125 53.328125 
Q 6.6875 62.15625 12.390625 67.015625 
Q 18.109375 71.875 26.609375 71.875 
Q 32.46875 71.875 37.390625 69.359375 
Q 42.328125 66.84375 44.9375 62.5 
Q 47.5625 58.15625 47.5625 53.265625 
Q 47.5625 48.640625 45.0625 44.828125 
Q 42.578125 41.015625 37.703125 38.765625 
Q 44.046875 37.3125 47.5625 32.6875 
Q 51.078125 28.078125 51.078125 21.140625 
Q 51.078125 11.765625 44.234375 5.25 
Q 37.40625 -1.265625 26.953125 -1.265625 
Q 17.53125 -1.265625 11.296875 4.34375 
Q 5.078125 9.96875 4.203125 18.890625 
z
" id="ArialMT-51"/>
       </defs>
       <use xlink:href="#ArialMT-8722"/>
       <use x="58.398438" xlink:href="#ArialMT-51"/>
       <use x="114.013672" xlink:href="#ArialMT-48"/>
      </g>
     </g>
    </g>
    <g id="ytick_3">
     <g id="line2d_10">
      <g>
       <use style="fill:#262626;stroke:#262626;stroke-width:1.875;" x="54.815" xlink:href="#maa2ce49440" y="356.811301"/>
      </g>
     </g>
     <g id="text_11">
      <!-- −20 -->
      <g style="fill:#262626;" transform="translate(14.326875 362.716497)scale(0.165 -0.165)">
       <use xlink:href="#ArialMT-8722"/>
       <use x="58.398438" xlink:href="#ArialMT-50"/>
       <use x="114.013672" xlink:href="#ArialMT-48"/>
      </g>
     </g>
    </g>
    <g id="ytick_4">
     <g id="line2d_11">
      <g>
       <use style="fill:#262626;stroke:#262626;stroke-width:1.875;" x="54.815" xlink:href="#maa2ce49440" y="311.28086"/>
      </g>
     </g>
     <g id="text_12">
      <!-- −10 -->
      <g style="fill:#262626;" transform="translate(14.326875 317.186055)scale(0.165 -0.165)">
       <use xlink:href="#ArialMT-8722"/>
       <use x="58.398438" xlink:href="#ArialMT-49"/>
       <use x="114.013672" xlink:href="#ArialMT-48"/>
      </g>
     </g>
    </g>
    <g id="ytick_5">
     <g id="line2d_12">
      <g>
       <use style="fill:#262626;stroke:#262626;stroke-width:1.875;" x="54.815" xlink:href="#maa2ce49440" y="265.750418"/>
      </g>
     </g>
     <g id="text_13">
      <!-- 0 -->
      <g style="fill:#262626;" transform="translate(33.139453 271.655613)scale(0.165 -0.165)">
       <use xlink:href="#ArialMT-48"/>
      </g>
     </g>
    </g>
    <g id="ytick_6">
     <g id="line2d_13">
      <g>
       <use style="fill:#262626;stroke:#262626;stroke-width:1.875;" x="54.815" xlink:href="#maa2ce49440" y="220.219977"/>
      </g>
     </g>
     <g id="text_14">
      <!-- 10 -->
      <g style="fill:#262626;" transform="translate(23.963906 226.125172)scale(0.165 -0.165)">
       <use xlink:href="#ArialMT-49"/>
       <use x="55.615234" xlink:href="#ArialMT-48"/>
      </g>
     </g>
    </g>
    <g id="ytick_7">
     <g id="line2d_14">
      <g>
       <use style="fill:#262626;stroke:#262626;stroke-width:1.875;" x="54.815" xlink:href="#maa2ce49440" y="174.689535"/>
      </g>
     </g>
     <g id="text_15">
      <!-- 20 -->
      <g style="fill:#262626;" transform="translate(23.963906 180.59473)scale(0.165 -0.165)">
       <use xlink:href="#ArialMT-50"/>
       <use x="55.615234" xlink:href="#ArialMT-48"/>
      </g>
     </g>
    </g>
    <g id="ytick_8">
     <g id="line2d_15">
      <g>
       <use style="fill:#262626;stroke:#262626;stroke-width:1.875;" x="54.815" xlink:href="#maa2ce49440" y="129.159093"/>
      </g>
     </g>
     <g id="text_16">
      <!-- 30 -->
      <g style="fill:#262626;" transform="translate(23.963906 135.064289)scale(0.165 -0.165)">
       <use xlink:href="#ArialMT-51"/>
       <use x="55.615234" xlink:href="#ArialMT-48"/>
      </g>
     </g>
    </g>
    <g id="text_17">
     <!-- Psychometric threshold -->
     <g style="fill:#262626;" transform="translate(6.538437 369.292786)rotate(-90)scale(0.18 -0.18)">
      <defs>
       <path d="M 7.71875 0 
L 7.71875 71.578125 
L 34.71875 71.578125 
Q 41.84375 71.578125 45.609375 70.90625 
Q 50.875 70.015625 54.4375 67.546875 
Q 58.015625 65.09375 60.1875 60.640625 
Q 62.359375 56.203125 62.359375 50.875 
Q 62.359375 41.75 56.546875 35.421875 
Q 50.734375 29.109375 35.546875 29.109375 
L 17.1875 29.109375 
L 17.1875 0 
z
M 17.1875 37.546875 
L 35.6875 37.546875 
Q 44.875 37.546875 48.734375 40.96875 
Q 52.59375 44.390625 52.59375 50.59375 
Q 52.59375 55.078125 50.3125 58.265625 
Q 48.046875 61.46875 44.34375 62.5 
Q 41.9375 63.140625 35.5 63.140625 
L 17.1875 63.140625 
z
" id="ArialMT-80"/>
       <path d="M 6.203125 -19.96875 
L 5.21875 -11.71875 
Q 8.109375 -12.5 10.25 -12.5 
Q 13.1875 -12.5 14.9375 -11.515625 
Q 16.703125 -10.546875 17.828125 -8.796875 
Q 18.65625 -7.46875 20.515625 -2.25 
Q 20.75 -1.515625 21.296875 -0.09375 
L 1.609375 51.859375 
L 11.078125 51.859375 
L 21.875 21.828125 
Q 23.96875 16.109375 25.640625 9.8125 
Q 27.15625 15.875 29.25 21.625 
L 40.328125 51.859375 
L 49.125 51.859375 
L 29.390625 -0.875 
Q 26.21875 -9.421875 24.46875 -12.640625 
Q 22.125 -17 19.09375 -19.015625 
Q 16.0625 -21.046875 11.859375 -21.046875 
Q 9.328125 -21.046875 6.203125 -19.96875 
z
" id="ArialMT-121"/>
       <path d="M 6.59375 0 
L 6.59375 71.578125 
L 15.375 71.578125 
L 15.375 45.90625 
Q 21.53125 53.03125 30.90625 53.03125 
Q 36.671875 53.03125 40.921875 50.75 
Q 45.171875 48.484375 47 44.484375 
Q 48.828125 40.484375 48.828125 32.859375 
L 48.828125 0 
L 40.046875 0 
L 40.046875 32.859375 
Q 40.046875 39.453125 37.1875 42.453125 
Q 34.328125 45.453125 29.109375 45.453125 
Q 25.203125 45.453125 21.75 43.421875 
Q 18.3125 41.40625 16.84375 37.9375 
Q 15.375 34.46875 15.375 28.375 
L 15.375 0 
z
" id="ArialMT-104"/>
       <path d="M 6.59375 0 
L 6.59375 51.859375 
L 14.453125 51.859375 
L 14.453125 44.578125 
Q 16.890625 48.390625 20.9375 50.703125 
Q 25 53.03125 30.171875 53.03125 
Q 35.9375 53.03125 39.625 50.640625 
Q 43.3125 48.25 44.828125 43.953125 
Q 50.984375 53.03125 60.84375 53.03125 
Q 68.5625 53.03125 72.703125 48.75 
Q 76.859375 44.484375 76.859375 35.59375 
L 76.859375 0 
L 68.109375 0 
L 68.109375 32.671875 
Q 68.109375 37.9375 67.25 40.25 
Q 66.40625 42.578125 64.15625 43.984375 
Q 61.921875 45.40625 58.890625 45.40625 
Q 53.421875 45.40625 49.796875 41.765625 
Q 46.1875 38.140625 46.1875 30.125 
L 46.1875 0 
L 37.40625 0 
L 37.40625 33.6875 
Q 37.40625 39.546875 35.25 42.46875 
Q 33.109375 45.40625 28.21875 45.40625 
Q 24.515625 45.40625 21.359375 43.453125 
Q 18.21875 41.5 16.796875 37.734375 
Q 15.375 33.984375 15.375 26.90625 
L 15.375 0 
z
" id="ArialMT-109"/>
       <path d="M 6.390625 0 
L 6.390625 71.578125 
L 15.1875 71.578125 
L 15.1875 0 
z
" id="ArialMT-108"/>
       <path d="M 40.234375 0 
L 40.234375 6.546875 
Q 35.296875 -1.171875 25.734375 -1.171875 
Q 19.53125 -1.171875 14.328125 2.25 
Q 9.125 5.671875 6.265625 11.796875 
Q 3.421875 17.921875 3.421875 25.875 
Q 3.421875 33.640625 6 39.96875 
Q 8.59375 46.296875 13.765625 49.65625 
Q 18.953125 53.03125 25.34375 53.03125 
Q 30.03125 53.03125 33.6875 51.046875 
Q 37.359375 49.078125 39.65625 45.90625 
L 39.65625 71.578125 
L 48.390625 71.578125 
L 48.390625 0 
z
M 12.453125 25.875 
Q 12.453125 15.921875 16.640625 10.984375 
Q 20.84375 6.0625 26.5625 6.0625 
Q 32.328125 6.0625 36.34375 10.765625 
Q 40.375 15.484375 40.375 25.140625 
Q 40.375 35.796875 36.265625 40.765625 
Q 32.171875 45.75 26.171875 45.75 
Q 20.3125 45.75 16.375 40.96875 
Q 12.453125 36.1875 12.453125 25.875 
z
" id="ArialMT-100"/>
      </defs>
      <use xlink:href="#ArialMT-80"/>
      <use x="66.699219" xlink:href="#ArialMT-115"/>
      <use x="116.699219" xlink:href="#ArialMT-121"/>
      <use x="166.699219" xlink:href="#ArialMT-99"/>
      <use x="216.699219" xlink:href="#ArialMT-104"/>
      <use x="272.314453" xlink:href="#ArialMT-111"/>
      <use x="327.929688" xlink:href="#ArialMT-109"/>
      <use x="411.230469" xlink:href="#ArialMT-101"/>
      <use x="466.845703" xlink:href="#ArialMT-116"/>
      <use x="494.628906" xlink:href="#ArialMT-114"/>
      <use x="527.929688" xlink:href="#ArialMT-105"/>
      <use x="550.146484" xlink:href="#ArialMT-99"/>
      <use x="600.146484" xlink:href="#ArialMT-32"/>
      <use x="627.929688" xlink:href="#ArialMT-116"/>
      <use x="655.712891" xlink:href="#ArialMT-104"/>
      <use x="711.328125" xlink:href="#ArialMT-114"/>
      <use x="744.628906" xlink:href="#ArialMT-101"/>
      <use x="800.244141" xlink:href="#ArialMT-115"/>
      <use x="850.244141" xlink:href="#ArialMT-104"/>
      <use x="905.859375" xlink:href="#ArialMT-111"/>
      <use x="961.474609" xlink:href="#ArialMT-108"/>
      <use x="983.691406" xlink:href="#ArialMT-100"/>
     </g>
    </g>
   </g>
   <g id="PathCollection_1">
    <defs>
     <path d="M 0 4.5 
C 1.193414 4.5 2.338109 4.025852 3.181981 3.181981 
C 4.025852 2.338109 4.5 1.193414 4.5 0 
C 4.5 -1.193414 4.025852 -2.338109 3.181981 -3.181981 
C 2.338109 -4.025852 1.193414 -4.5 0 -4.5 
C -1.193414 -4.5 -2.338109 -4.025852 -3.181981 -3.181981 
C -4.025852 -2.338109 -4.5 -1.193414 -4.5 0 
C -4.5 1.193414 -4.025852 2.338109 -3.181981 3.181981 
C -2.338109 4.025852 -1.193414 4.5 0 4.5 
z
" id="mec6e9d8564" style="stroke:#4c72b0;stroke-opacity:0.8;"/>
    </defs>
    <g clip-path="url(#pd0488b39a6)">
     <use style="fill:#4c72b0;fill-opacity:0.8;stroke:#4c72b0;stroke-opacity:0.8;" x="269.817061" xlink:href="#mec6e9d8564" y="202.608802"/>
     <use style="fill:#4c72b0;fill-opacity:0.8;stroke:#4c72b0;stroke-opacity:0.8;" x="278.529299" xlink:href="#mec6e9d8564" y="319.740416"/>
     <use style="fill:#4c72b0;fill-opacity:0.8;stroke:#4c72b0;stroke-opacity:0.8;" x="369.636231" xlink:href="#mec6e9d8564" y="275.43019"/>
     <use style="fill:#4c72b0;fill-opacity:0.8;stroke:#4c72b0;stroke-opacity:0.8;" x="384.351365" xlink:href="#mec6e9d8564" y="308.703837"/>
     <use style="fill:#4c72b0;fill-opacity:0.8;stroke:#4c72b0;stroke-opacity:0.8;" x="378.474628" xlink:href="#mec6e9d8564" y="223.866965"/>
     <use style="fill:#4c72b0;fill-opacity:0.8;stroke:#4c72b0;stroke-opacity:0.8;" x="258.566382" xlink:href="#mec6e9d8564" y="285.164598"/>
     <use style="fill:#4c72b0;fill-opacity:0.8;stroke:#4c72b0;stroke-opacity:0.8;" x="330.001755" xlink:href="#mec6e9d8564" y="254.331383"/>
     <use style="fill:#4c72b0;fill-opacity:0.8;stroke:#4c72b0;stroke-opacity:0.8;" x="362.599844" xlink:href="#mec6e9d8564" y="325.003735"/>
     <use style="fill:#4c72b0;fill-opacity:0.8;stroke:#4c72b0;stroke-opacity:0.8;" x="410.889429" xlink:href="#mec6e9d8564" y="273.959557"/>
     <use style="fill:#4c72b0;fill-opacity:0.8;stroke:#4c72b0;stroke-opacity:0.8;" x="408.913728" xlink:href="#mec6e9d8564" y="360.950018"/>
     <use style="fill:#4c72b0;fill-opacity:0.8;stroke:#4c72b0;stroke-opacity:0.8;" x="399.720838" xlink:href="#mec6e9d8564" y="267.016164"/>
     <use style="fill:#4c72b0;fill-opacity:0.8;stroke:#4c72b0;stroke-opacity:0.8;" x="353.013633" xlink:href="#mec6e9d8564" y="248.863177"/>
     <use style="fill:#4c72b0;fill-opacity:0.8;stroke:#4c72b0;stroke-opacity:0.8;" x="333.623253" xlink:href="#mec6e9d8564" y="354.794303"/>
     <use style="fill:#4c72b0;fill-opacity:0.8;stroke:#4c72b0;stroke-opacity:0.8;" x="406.707896" xlink:href="#mec6e9d8564" y="264.78062"/>
     <use style="fill:#4c72b0;fill-opacity:0.8;stroke:#4c72b0;stroke-opacity:0.8;" x="334.613337" xlink:href="#mec6e9d8564" y="432.14597"/>
     <use style="fill:#4c72b0;fill-opacity:0.8;stroke:#4c72b0;stroke-opacity:0.8;" x="372.305805" xlink:href="#mec6e9d8564" y="352.877471"/>
     <use style="fill:#4c72b0;fill-opacity:0.8;stroke:#4c72b0;stroke-opacity:0.8;" x="166.766557" xlink:href="#mec6e9d8564" y="345.17372"/>
     <use style="fill:#4c72b0;fill-opacity:0.8;stroke:#4c72b0;stroke-opacity:0.8;" x="403.170445" xlink:href="#mec6e9d8564" y="260.587266"/>
     <use style="fill:#4c72b0;fill-opacity:0.8;stroke:#4c72b0;stroke-opacity:0.8;" x="329.280786" xlink:href="#mec6e9d8564" y="228.037553"/>
     <use style="fill:#4c72b0;fill-opacity:0.8;stroke:#4c72b0;stroke-opacity:0.8;" x="349.678613" xlink:href="#mec6e9d8564" y="269.360982"/>
     <use style="fill:#4c72b0;fill-opacity:0.8;stroke:#4c72b0;stroke-opacity:0.8;" x="335.358265" xlink:href="#mec6e9d8564" y="293.564965"/>
     <use style="fill:#4c72b0;fill-opacity:0.8;stroke:#4c72b0;stroke-opacity:0.8;" x="243.530168" xlink:href="#mec6e9d8564" y="324.393627"/>
     <use style="fill:#4c72b0;fill-opacity:0.8;stroke:#4c72b0;stroke-opacity:0.8;" x="402.34572" xlink:href="#mec6e9d8564" y="336.654975"/>
     <use style="fill:#4c72b0;fill-opacity:0.8;stroke:#4c72b0;stroke-opacity:0.8;" x="387.131924" xlink:href="#mec6e9d8564" y="177.694544"/>
     <use style="fill:#4c72b0;fill-opacity:0.8;stroke:#4c72b0;stroke-opacity:0.8;" x="337.902668" xlink:href="#mec6e9d8564" y="371.895537"/>
     <use style="fill:#4c72b0;fill-opacity:0.8;stroke:#4c72b0;stroke-opacity:0.8;" x="321.030396" xlink:href="#mec6e9d8564" y="324.908121"/>
     <use style="fill:#4c72b0;fill-opacity:0.8;stroke:#4c72b0;stroke-opacity:0.8;" x="244.257633" xlink:href="#mec6e9d8564" y="350.537206"/>
     <use style="fill:#4c72b0;fill-opacity:0.8;stroke:#4c72b0;stroke-opacity:0.8;" x="298.460674" xlink:href="#mec6e9d8564" y="319.758628"/>
     <use style="fill:#4c72b0;fill-opacity:0.8;stroke:#4c72b0;stroke-opacity:0.8;" x="389.765158" xlink:href="#mec6e9d8564" y="298.955769"/>
     <use style="fill:#4c72b0;fill-opacity:0.8;stroke:#4c72b0;stroke-opacity:0.8;" x="140.220817" xlink:href="#mec6e9d8564" y="438.752437"/>
     <use style="fill:#4c72b0;fill-opacity:0.8;stroke:#4c72b0;stroke-opacity:0.8;" x="323.889465" xlink:href="#mec6e9d8564" y="222.036641"/>
     <use style="fill:#4c72b0;fill-opacity:0.8;stroke:#4c72b0;stroke-opacity:0.8;" x="262.536855" xlink:href="#mec6e9d8564" y="370.511411"/>
     <use style="fill:#4c72b0;fill-opacity:0.8;stroke:#4c72b0;stroke-opacity:0.8;" x="407.046463" xlink:href="#mec6e9d8564" y="287.595924"/>
     <use style="fill:#4c72b0;fill-opacity:0.8;stroke:#4c72b0;stroke-opacity:0.8;" x="408.06659" xlink:href="#mec6e9d8564" y="264.803385"/>
     <use style="fill:#4c72b0;fill-opacity:0.8;stroke:#4c72b0;stroke-opacity:0.8;" x="306.021746" xlink:href="#mec6e9d8564" y="404.413378"/>
     <use style="fill:#4c72b0;fill-opacity:0.8;stroke:#4c72b0;stroke-opacity:0.8;" x="317.160755" xlink:href="#mec6e9d8564" y="335.703389"/>
     <use style="fill:#4c72b0;fill-opacity:0.8;stroke:#4c72b0;stroke-opacity:0.8;" x="395.57106" xlink:href="#mec6e9d8564" y="281.62233"/>
     <use style="fill:#4c72b0;fill-opacity:0.8;stroke:#4c72b0;stroke-opacity:0.8;" x="232.306642" xlink:href="#mec6e9d8564" y="214.132556"/>
     <use style="fill:#4c72b0;fill-opacity:0.8;stroke:#4c72b0;stroke-opacity:0.8;" x="304.351197" xlink:href="#mec6e9d8564" y="280.388455"/>
     <use style="fill:#4c72b0;fill-opacity:0.8;stroke:#4c72b0;stroke-opacity:0.8;" x="255.154237" xlink:href="#mec6e9d8564" y="306.454633"/>
     <use style="fill:#4c72b0;fill-opacity:0.8;stroke:#4c72b0;stroke-opacity:0.8;" x="234.211766" xlink:href="#mec6e9d8564" y="265.927987"/>
     <use style="fill:#4c72b0;fill-opacity:0.8;stroke:#4c72b0;stroke-opacity:0.8;" x="398.535647" xlink:href="#mec6e9d8564" y="266.597284"/>
     <use style="fill:#4c72b0;fill-opacity:0.8;stroke:#4c72b0;stroke-opacity:0.8;" x="338.270417" xlink:href="#mec6e9d8564" y="303.659064"/>
     <use style="fill:#4c72b0;fill-opacity:0.8;stroke:#4c72b0;stroke-opacity:0.8;" x="350.3798" xlink:href="#mec6e9d8564" y="347.11787"/>
     <use style="fill:#4c72b0;fill-opacity:0.8;stroke:#4c72b0;stroke-opacity:0.8;" x="218.073303" xlink:href="#mec6e9d8564" y="399.837569"/>
     <use style="fill:#4c72b0;fill-opacity:0.8;stroke:#4c72b0;stroke-opacity:0.8;" x="395.087273" xlink:href="#mec6e9d8564" y="309.737378"/>
     <use style="fill:#4c72b0;fill-opacity:0.8;stroke:#4c72b0;stroke-opacity:0.8;" x="372.137848" xlink:href="#mec6e9d8564" y="312.801576"/>
     <use style="fill:#4c72b0;fill-opacity:0.8;stroke:#4c72b0;stroke-opacity:0.8;" x="330.023008" xlink:href="#mec6e9d8564" y="274.574218"/>
     <use style="fill:#4c72b0;fill-opacity:0.8;stroke:#4c72b0;stroke-opacity:0.8;" x="215.93247" xlink:href="#mec6e9d8564" y="378.756974"/>
     <use style="fill:#4c72b0;fill-opacity:0.8;stroke:#4c72b0;stroke-opacity:0.8;" x="394.599575" xlink:href="#mec6e9d8564" y="299.506688"/>
     <use style="fill:#4c72b0;fill-opacity:0.8;stroke:#4c72b0;stroke-opacity:0.8;" x="393.610432" xlink:href="#mec6e9d8564" y="290.564509"/>
     <use style="fill:#4c72b0;fill-opacity:0.8;stroke:#4c72b0;stroke-opacity:0.8;" x="176.950641" xlink:href="#mec6e9d8564" y="266.81583"/>
     <use style="fill:#4c72b0;fill-opacity:0.8;stroke:#4c72b0;stroke-opacity:0.8;" x="398.500635" xlink:href="#mec6e9d8564" y="298.277366"/>
     <use style="fill:#4c72b0;fill-opacity:0.8;stroke:#4c72b0;stroke-opacity:0.8;" x="306.710572" xlink:href="#mec6e9d8564" y="327.184643"/>
     <use style="fill:#4c72b0;fill-opacity:0.8;stroke:#4c72b0;stroke-opacity:0.8;" x="300.919969" xlink:href="#mec6e9d8564" y="232.554173"/>
     <use style="fill:#4c72b0;fill-opacity:0.8;stroke:#4c72b0;stroke-opacity:0.8;" x="274.548803" xlink:href="#mec6e9d8564" y="420.895398"/>
     <use style="fill:#4c72b0;fill-opacity:0.8;stroke:#4c72b0;stroke-opacity:0.8;" x="397.63338" xlink:href="#mec6e9d8564" y="387.193765"/>
     <use style="fill:#4c72b0;fill-opacity:0.8;stroke:#4c72b0;stroke-opacity:0.8;" x="234.061971" xlink:href="#mec6e9d8564" y="284.490748"/>
     <use style="fill:#4c72b0;fill-opacity:0.8;stroke:#4c72b0;stroke-opacity:0.8;" x="252.519404" xlink:href="#mec6e9d8564" y="352.413061"/>
     <use style="fill:#4c72b0;fill-opacity:0.8;stroke:#4c72b0;stroke-opacity:0.8;" x="287.325286" xlink:href="#mec6e9d8564" y="320.327758"/>
     <use style="fill:#4c72b0;fill-opacity:0.8;stroke:#4c72b0;stroke-opacity:0.8;" x="334.337431" xlink:href="#mec6e9d8564" y="318.406374"/>
     <use style="fill:#4c72b0;fill-opacity:0.8;stroke:#4c72b0;stroke-opacity:0.8;" x="243.65574" xlink:href="#mec6e9d8564" y="354.839833"/>
     <use style="fill:#4c72b0;fill-opacity:0.8;stroke:#4c72b0;stroke-opacity:0.8;" x="399.419323" xlink:href="#mec6e9d8564" y="274.961226"/>
     <use style="fill:#4c72b0;fill-opacity:0.8;stroke:#4c72b0;stroke-opacity:0.8;" x="314.687567" xlink:href="#mec6e9d8564" y="191.476609"/>
     <use style="fill:#4c72b0;fill-opacity:0.8;stroke:#4c72b0;stroke-opacity:0.8;" x="248.778084" xlink:href="#mec6e9d8564" y="322.727213"/>
     <use style="fill:#4c72b0;fill-opacity:0.8;stroke:#4c72b0;stroke-opacity:0.8;" x="209.487524" xlink:href="#mec6e9d8564" y="270.676812"/>
     <use style="fill:#4c72b0;fill-opacity:0.8;stroke:#4c72b0;stroke-opacity:0.8;" x="307.939697" xlink:href="#mec6e9d8564" y="315.137288"/>
     <use style="fill:#4c72b0;fill-opacity:0.8;stroke:#4c72b0;stroke-opacity:0.8;" x="368.848732" xlink:href="#mec6e9d8564" y="250.943919"/>
     <use style="fill:#4c72b0;fill-opacity:0.8;stroke:#4c72b0;stroke-opacity:0.8;" x="377.527229" xlink:href="#mec6e9d8564" y="274.260058"/>
     <use style="fill:#4c72b0;fill-opacity:0.8;stroke:#4c72b0;stroke-opacity:0.8;" x="405.564549" xlink:href="#mec6e9d8564" y="240.248818"/>
     <use style="fill:#4c72b0;fill-opacity:0.8;stroke:#4c72b0;stroke-opacity:0.8;" x="391.053564" xlink:href="#mec6e9d8564" y="267.343984"/>
     <use style="fill:#4c72b0;fill-opacity:0.8;stroke:#4c72b0;stroke-opacity:0.8;" x="404.681457" xlink:href="#mec6e9d8564" y="246.30892"/>
     <use style="fill:#4c72b0;fill-opacity:0.8;stroke:#4c72b0;stroke-opacity:0.8;" x="217.703204" xlink:href="#mec6e9d8564" y="290.095545"/>
     <use style="fill:#4c72b0;fill-opacity:0.8;stroke:#4c72b0;stroke-opacity:0.8;" x="231.736006" xlink:href="#mec6e9d8564" y="314.895977"/>
     <use style="fill:#4c72b0;fill-opacity:0.8;stroke:#4c72b0;stroke-opacity:0.8;" x="379.502287" xlink:href="#mec6e9d8564" y="199.203125"/>
     <use style="fill:#4c72b0;fill-opacity:0.8;stroke:#4c72b0;stroke-opacity:0.8;" x="301.506618" xlink:href="#mec6e9d8564" y="252.696841"/>
     <use style="fill:#4c72b0;fill-opacity:0.8;stroke:#4c72b0;stroke-opacity:0.8;" x="388.770204" xlink:href="#mec6e9d8564" y="261.957732"/>
     <use style="fill:#4c72b0;fill-opacity:0.8;stroke:#4c72b0;stroke-opacity:0.8;" x="387.035778" xlink:href="#mec6e9d8564" y="261.274776"/>
     <use style="fill:#4c72b0;fill-opacity:0.8;stroke:#4c72b0;stroke-opacity:0.8;" x="405.985465" xlink:href="#mec6e9d8564" y="275.589547"/>
     <use style="fill:#4c72b0;fill-opacity:0.8;stroke:#4c72b0;stroke-opacity:0.8;" x="296.224485" xlink:href="#mec6e9d8564" y="421.605673"/>
     <use style="fill:#4c72b0;fill-opacity:0.8;stroke:#4c72b0;stroke-opacity:0.8;" x="340.449666" xlink:href="#mec6e9d8564" y="259.153057"/>
     <use style="fill:#4c72b0;fill-opacity:0.8;stroke:#4c72b0;stroke-opacity:0.8;" x="317.976729" xlink:href="#mec6e9d8564" y="328.933012"/>
     <use style="fill:#4c72b0;fill-opacity:0.8;stroke:#4c72b0;stroke-opacity:0.8;" x="400.588392" xlink:href="#mec6e9d8564" y="263.264456"/>
     <use style="fill:#4c72b0;fill-opacity:0.8;stroke:#4c72b0;stroke-opacity:0.8;" x="205.295368" xlink:href="#mec6e9d8564" y="440.578208"/>
     <use style="fill:#4c72b0;fill-opacity:0.8;stroke:#4c72b0;stroke-opacity:0.8;" x="346.651928" xlink:href="#mec6e9d8564" y="331.815089"/>
     <use style="fill:#4c72b0;fill-opacity:0.8;stroke:#4c72b0;stroke-opacity:0.8;" x="272.534079" xlink:href="#mec6e9d8564" y="301.296034"/>
     <use style="fill:#4c72b0;fill-opacity:0.8;stroke:#4c72b0;stroke-opacity:0.8;" x="209.330883" xlink:href="#mec6e9d8564" y="371.731627"/>
     <use style="fill:#4c72b0;fill-opacity:0.8;stroke:#4c72b0;stroke-opacity:0.8;" x="397.591018" xlink:href="#mec6e9d8564" y="254.914173"/>
     <use style="fill:#4c72b0;fill-opacity:0.8;stroke:#4c72b0;stroke-opacity:0.8;" x="372.413334" xlink:href="#mec6e9d8564" y="372.314417"/>
     <use style="fill:#4c72b0;fill-opacity:0.8;stroke:#4c72b0;stroke-opacity:0.8;" x="368.346429" xlink:href="#mec6e9d8564" y="277.337916"/>
     <use style="fill:#4c72b0;fill-opacity:0.8;stroke:#4c72b0;stroke-opacity:0.8;" x="332.695599" xlink:href="#mec6e9d8564" y="357.334901"/>
     <use style="fill:#4c72b0;fill-opacity:0.8;stroke:#4c72b0;stroke-opacity:0.8;" x="373.713145" xlink:href="#mec6e9d8564" y="200.737501"/>
     <use style="fill:#4c72b0;fill-opacity:0.8;stroke:#4c72b0;stroke-opacity:0.8;" x="384.845618" xlink:href="#mec6e9d8564" y="268.514116"/>
     <use style="fill:#4c72b0;fill-opacity:0.8;stroke:#4c72b0;stroke-opacity:0.8;" x="388.421338" xlink:href="#mec6e9d8564" y="343.247783"/>
     <use style="fill:#4c72b0;fill-opacity:0.8;stroke:#4c72b0;stroke-opacity:0.8;" x="346.680006" xlink:href="#mec6e9d8564" y="310.957594"/>
     <use style="fill:#4c72b0;fill-opacity:0.8;stroke:#4c72b0;stroke-opacity:0.8;" x="406.463529" xlink:href="#mec6e9d8564" y="309.104505"/>
     <use style="fill:#4c72b0;fill-opacity:0.8;stroke:#4c72b0;stroke-opacity:0.8;" x="355.982725" xlink:href="#mec6e9d8564" y="316.066109"/>
     <use style="fill:#4c72b0;fill-opacity:0.8;stroke:#4c72b0;stroke-opacity:0.8;" x="320.057997" xlink:href="#mec6e9d8564" y="224.818551"/>
     <use style="fill:#4c72b0;fill-opacity:0.8;stroke:#4c72b0;stroke-opacity:0.8;" x="295.938339" xlink:href="#mec6e9d8564" y="278.116486"/>
     <use style="fill:#4c72b0;fill-opacity:0.8;stroke:#4c72b0;stroke-opacity:0.8;" x="363.979468" xlink:href="#mec6e9d8564" y="279.054413"/>
     <use style="fill:#4c72b0;fill-opacity:0.8;stroke:#4c72b0;stroke-opacity:0.8;" x="351.331577" xlink:href="#mec6e9d8564" y="263.46479"/>
     <use style="fill:#4c72b0;fill-opacity:0.8;stroke:#4c72b0;stroke-opacity:0.8;" x="321.835897" xlink:href="#mec6e9d8564" y="303.026191"/>
     <use style="fill:#4c72b0;fill-opacity:0.8;stroke:#4c72b0;stroke-opacity:0.8;" x="238.602538" xlink:href="#mec6e9d8564" y="323.341874"/>
     <use style="fill:#4c72b0;fill-opacity:0.8;stroke:#4c72b0;stroke-opacity:0.8;" x="403.104505" xlink:href="#mec6e9d8564" y="321.985067"/>
     <use style="fill:#4c72b0;fill-opacity:0.8;stroke:#4c72b0;stroke-opacity:0.8;" x="324.793323" xlink:href="#mec6e9d8564" y="224.231208"/>
     <use style="fill:#4c72b0;fill-opacity:0.8;stroke:#4c72b0;stroke-opacity:0.8;" x="195.125309" xlink:href="#mec6e9d8564" y="246.691375"/>
     <use style="fill:#4c72b0;fill-opacity:0.8;stroke:#4c72b0;stroke-opacity:0.8;" x="338.478871" xlink:href="#mec6e9d8564" y="215.940115"/>
     <use style="fill:#4c72b0;fill-opacity:0.8;stroke:#4c72b0;stroke-opacity:0.8;" x="322.527701" xlink:href="#mec6e9d8564" y="359.60687"/>
     <use style="fill:#4c72b0;fill-opacity:0.8;stroke:#4c72b0;stroke-opacity:0.8;" x="261.266228" xlink:href="#mec6e9d8564" y="356.743006"/>
     <use style="fill:#4c72b0;fill-opacity:0.8;stroke:#4c72b0;stroke-opacity:0.8;" x="253.257972" xlink:href="#mec6e9d8564" y="317.650569"/>
     <use style="fill:#4c72b0;fill-opacity:0.8;stroke:#4c72b0;stroke-opacity:0.8;" x="275.048285" xlink:href="#mec6e9d8564" y="252.059414"/>
     <use style="fill:#4c72b0;fill-opacity:0.8;stroke:#4c72b0;stroke-opacity:0.8;" x="373.969341" xlink:href="#mec6e9d8564" y="246.896262"/>
     <use style="fill:#4c72b0;fill-opacity:0.8;stroke:#4c72b0;stroke-opacity:0.8;" x="318.02127" xlink:href="#mec6e9d8564" y="310.761813"/>
     <use style="fill:#4c72b0;fill-opacity:0.8;stroke:#4c72b0;stroke-opacity:0.8;" x="388.628589" xlink:href="#mec6e9d8564" y="282.683189"/>
     <use style="fill:#4c72b0;fill-opacity:0.8;stroke:#4c72b0;stroke-opacity:0.8;" x="394.865119" xlink:href="#mec6e9d8564" y="361.897052"/>
     <use style="fill:#4c72b0;fill-opacity:0.8;stroke:#4c72b0;stroke-opacity:0.8;" x="369.659311" xlink:href="#mec6e9d8564" y="258.233342"/>
     <use style="fill:#4c72b0;fill-opacity:0.8;stroke:#4c72b0;stroke-opacity:0.8;" x="364.00446" xlink:href="#mec6e9d8564" y="275.084159"/>
     <use style="fill:#4c72b0;fill-opacity:0.8;stroke:#4c72b0;stroke-opacity:0.8;" x="393.960632" xlink:href="#mec6e9d8564" y="281.772581"/>
     <use style="fill:#4c72b0;fill-opacity:0.8;stroke:#4c72b0;stroke-opacity:0.8;" x="347.94729" xlink:href="#mec6e9d8564" y="271.173094"/>
     <use style="fill:#4c72b0;fill-opacity:0.8;stroke:#4c72b0;stroke-opacity:0.8;" x="333.276836" xlink:href="#mec6e9d8564" y="264.352634"/>
     <use style="fill:#4c72b0;fill-opacity:0.8;stroke:#4c72b0;stroke-opacity:0.8;" x="379.979096" xlink:href="#mec6e9d8564" y="209.215269"/>
     <use style="fill:#4c72b0;fill-opacity:0.8;stroke:#4c72b0;stroke-opacity:0.8;" x="381.656584" xlink:href="#mec6e9d8564" y="207.685446"/>
     <use style="fill:#4c72b0;fill-opacity:0.8;stroke:#4c72b0;stroke-opacity:0.8;" x="290.569623" xlink:href="#mec6e9d8564" y="216.768769"/>
     <use style="fill:#4c72b0;fill-opacity:0.8;stroke:#4c72b0;stroke-opacity:0.8;" x="308.511269" xlink:href="#mec6e9d8564" y="192.396324"/>
     <use style="fill:#4c72b0;fill-opacity:0.8;stroke:#4c72b0;stroke-opacity:0.8;" x="176.570009" xlink:href="#mec6e9d8564" y="365.480297"/>
     <use style="fill:#4c72b0;fill-opacity:0.8;stroke:#4c72b0;stroke-opacity:0.8;" x="390.922299" xlink:href="#mec6e9d8564" y="341.667876"/>
     <use style="fill:#4c72b0;fill-opacity:0.8;stroke:#4c72b0;stroke-opacity:0.8;" x="305.779348" xlink:href="#mec6e9d8564" y="417.92226"/>
     <use style="fill:#4c72b0;fill-opacity:0.8;stroke:#4c72b0;stroke-opacity:0.8;" x="384.339675" xlink:href="#mec6e9d8564" y="279.864855"/>
     <use style="fill:#4c72b0;fill-opacity:0.8;stroke:#4c72b0;stroke-opacity:0.8;" x="354.541246" xlink:href="#mec6e9d8564" y="333.877618"/>
     <use style="fill:#4c72b0;fill-opacity:0.8;stroke:#4c72b0;stroke-opacity:0.8;" x="401.894521" xlink:href="#mec6e9d8564" y="251.849974"/>
     <use style="fill:#4c72b0;fill-opacity:0.8;stroke:#4c72b0;stroke-opacity:0.8;" x="312.872569" xlink:href="#mec6e9d8564" y="300.326235"/>
     <use style="fill:#4c72b0;fill-opacity:0.8;stroke:#4c72b0;stroke-opacity:0.8;" x="404.338606" xlink:href="#mec6e9d8564" y="208.231811"/>
     <use style="fill:#4c72b0;fill-opacity:0.8;stroke:#4c72b0;stroke-opacity:0.8;" x="54.815" xlink:href="#mec6e9d8564" y="347.054128"/>
     <use style="fill:#4c72b0;fill-opacity:0.8;stroke:#4c72b0;stroke-opacity:0.8;" x="385.998977" xlink:href="#mec6e9d8564" y="277.114816"/>
     <use style="fill:#4c72b0;fill-opacity:0.8;stroke:#4c72b0;stroke-opacity:0.8;" x="321.650717" xlink:href="#mec6e9d8564" y="345.519752"/>
     <use style="fill:#4c72b0;fill-opacity:0.8;stroke:#4c72b0;stroke-opacity:0.8;" x="396.562813" xlink:href="#mec6e9d8564" y="311.185246"/>
     <use style="fill:#4c72b0;fill-opacity:0.8;stroke:#4c72b0;stroke-opacity:0.8;" x="352.640251" xlink:href="#mec6e9d8564" y="310.994018"/>
     <use style="fill:#4c72b0;fill-opacity:0.8;stroke:#4c72b0;stroke-opacity:0.8;" x="279.353241" xlink:href="#mec6e9d8564" y="367.21956"/>
     <use style="fill:#4c72b0;fill-opacity:0.8;stroke:#4c72b0;stroke-opacity:0.8;" x="409.361554" xlink:href="#mec6e9d8564" y="285.155492"/>
     <use style="fill:#4c72b0;fill-opacity:0.8;stroke:#4c72b0;stroke-opacity:0.8;" x="410.889429" xlink:href="#mec6e9d8564" y="275.361894"/>
     <use style="fill:#4c72b0;fill-opacity:0.8;stroke:#4c72b0;stroke-opacity:0.8;" x="336.359653" xlink:href="#mec6e9d8564" y="314.135618"/>
     <use style="fill:#4c72b0;fill-opacity:0.8;stroke:#4c72b0;stroke-opacity:0.8;" x="298.860736" xlink:href="#mec6e9d8564" y="361.23686"/>
     <use style="fill:#4c72b0;fill-opacity:0.8;stroke:#4c72b0;stroke-opacity:0.8;" x="258.231683" xlink:href="#mec6e9d8564" y="353.710678"/>
     <use style="fill:#4c72b0;fill-opacity:0.8;stroke:#4c72b0;stroke-opacity:0.8;" x="287.886826" xlink:href="#mec6e9d8564" y="333.3267"/>
     <use style="fill:#4c72b0;fill-opacity:0.8;stroke:#4c72b0;stroke-opacity:0.8;" x="332.214748" xlink:href="#mec6e9d8564" y="213.513342"/>
     <use style="fill:#4c72b0;fill-opacity:0.8;stroke:#4c72b0;stroke-opacity:0.8;" x="360.399763" xlink:href="#mec6e9d8564" y="320.837699"/>
     <use style="fill:#4c72b0;fill-opacity:0.8;stroke:#4c72b0;stroke-opacity:0.8;" x="333.058453" xlink:href="#mec6e9d8564" y="287.045006"/>
     <use style="fill:#4c72b0;fill-opacity:0.8;stroke:#4c72b0;stroke-opacity:0.8;" x="184.556562" xlink:href="#mec6e9d8564" y="337.715834"/>
     <use style="fill:#4c72b0;fill-opacity:0.8;stroke:#4c72b0;stroke-opacity:0.8;" x="246.627562" xlink:href="#mec6e9d8564" y="333.923148"/>
     <use style="fill:#4c72b0;fill-opacity:0.8;stroke:#4c72b0;stroke-opacity:0.8;" x="304.924483" xlink:href="#mec6e9d8564" y="280.8301"/>
     <use style="fill:#4c72b0;fill-opacity:0.8;stroke:#4c72b0;stroke-opacity:0.8;" x="369.584426" xlink:href="#mec6e9d8564" y="336.377239"/>
     <use style="fill:#4c72b0;fill-opacity:0.8;stroke:#4c72b0;stroke-opacity:0.8;" x="305.654933" xlink:href="#mec6e9d8564" y="325.723116"/>
     <use style="fill:#4c72b0;fill-opacity:0.8;stroke:#4c72b0;stroke-opacity:0.8;" x="336.216269" xlink:href="#mec6e9d8564" y="277.597439"/>
     <use style="fill:#4c72b0;fill-opacity:0.8;stroke:#4c72b0;stroke-opacity:0.8;" x="379.590946" xlink:href="#mec6e9d8564" y="272.051831"/>
     <use style="fill:#4c72b0;fill-opacity:0.8;stroke:#4c72b0;stroke-opacity:0.8;" x="194.594761" xlink:href="#mec6e9d8564" y="411.575316"/>
     <use style="fill:#4c72b0;fill-opacity:0.8;stroke:#4c72b0;stroke-opacity:0.8;" x="348.044761" xlink:href="#mec6e9d8564" y="358.404867"/>
     <use style="fill:#4c72b0;fill-opacity:0.8;stroke:#4c72b0;stroke-opacity:0.8;" x="386.12877" xlink:href="#mec6e9d8564" y="318.752405"/>
     <use style="fill:#4c72b0;fill-opacity:0.8;stroke:#4c72b0;stroke-opacity:0.8;" x="275.594192" xlink:href="#mec6e9d8564" y="365.70795"/>
     <use style="fill:#4c72b0;fill-opacity:0.8;stroke:#4c72b0;stroke-opacity:0.8;" x="266.536046" xlink:href="#mec6e9d8564" y="376.494111"/>
     <use style="fill:#4c72b0;fill-opacity:0.8;stroke:#4c72b0;stroke-opacity:0.8;" x="277.203984" xlink:href="#mec6e9d8564" y="220.201764"/>
     <use style="fill:#4c72b0;fill-opacity:0.8;stroke:#4c72b0;stroke-opacity:0.8;" x="392.220913" xlink:href="#mec6e9d8564" y="292.836478"/>
     <use style="fill:#4c72b0;fill-opacity:0.8;stroke:#4c72b0;stroke-opacity:0.8;" x="389.999694" xlink:href="#mec6e9d8564" y="282.801569"/>
     <use style="fill:#4c72b0;fill-opacity:0.8;stroke:#4c72b0;stroke-opacity:0.8;" x="273.684344" xlink:href="#mec6e9d8564" y="218.294039"/>
     <use style="fill:#4c72b0;fill-opacity:0.8;stroke:#4c72b0;stroke-opacity:0.8;" x="402.804685" xlink:href="#mec6e9d8564" y="333.568011"/>
     <use style="fill:#4c72b0;fill-opacity:0.8;stroke:#4c72b0;stroke-opacity:0.8;" x="404.553933" xlink:href="#mec6e9d8564" y="247.424415"/>
     <use style="fill:#4c72b0;fill-opacity:0.8;stroke:#4c72b0;stroke-opacity:0.8;" x="297.395558" xlink:href="#mec6e9d8564" y="218.59454"/>
     <use style="fill:#4c72b0;fill-opacity:0.8;stroke:#4c72b0;stroke-opacity:0.8;" x="376.314549" xlink:href="#mec6e9d8564" y="256.193578"/>
     <use style="fill:#4c72b0;fill-opacity:0.8;stroke:#4c72b0;stroke-opacity:0.8;" x="396.397905" xlink:href="#mec6e9d8564" y="330.298925"/>
     <use style="fill:#4c72b0;fill-opacity:0.8;stroke:#4c72b0;stroke-opacity:0.8;" x="342.379796" xlink:href="#mec6e9d8564" y="320.596388"/>
     <use style="fill:#4c72b0;fill-opacity:0.8;stroke:#4c72b0;stroke-opacity:0.8;" x="410.889429" xlink:href="#mec6e9d8564" y="189.837513"/>
     <use style="fill:#4c72b0;fill-opacity:0.8;stroke:#4c72b0;stroke-opacity:0.8;" x="391.318926" xlink:href="#mec6e9d8564" y="256.876535"/>
     <use style="fill:#4c72b0;fill-opacity:0.8;stroke:#4c72b0;stroke-opacity:0.8;" x="390.55015" xlink:href="#mec6e9d8564" y="270.435501"/>
     <use style="fill:#4c72b0;fill-opacity:0.8;stroke:#4c72b0;stroke-opacity:0.8;" x="410.889429" xlink:href="#mec6e9d8564" y="309.901287"/>
     <use style="fill:#4c72b0;fill-opacity:0.8;stroke:#4c72b0;stroke-opacity:0.8;" x="322.648598" xlink:href="#mec6e9d8564" y="350.755753"/>
     <use style="fill:#4c72b0;fill-opacity:0.8;stroke:#4c72b0;stroke-opacity:0.8;" x="283.51055" xlink:href="#mec6e9d8564" y="323.546761"/>
     <use style="fill:#4c72b0;fill-opacity:0.8;stroke:#4c72b0;stroke-opacity:0.8;" x="398.362154" xlink:href="#mec6e9d8564" y="230.933289"/>
     <use style="fill:#4c72b0;fill-opacity:0.8;stroke:#4c72b0;stroke-opacity:0.8;" x="313.370417" xlink:href="#mec6e9d8564" y="287.668773"/>
     <use style="fill:#4c72b0;fill-opacity:0.8;stroke:#4c72b0;stroke-opacity:0.8;" x="367.724263" xlink:href="#mec6e9d8564" y="350.286789"/>
     <use style="fill:#4c72b0;fill-opacity:0.8;stroke:#4c72b0;stroke-opacity:0.8;" x="382.267123" xlink:href="#mec6e9d8564" y="299.515794"/>
     <use style="fill:#4c72b0;fill-opacity:0.8;stroke:#4c72b0;stroke-opacity:0.8;" x="238.719525" xlink:href="#mec6e9d8564" y="324.54843"/>
     <use style="fill:#4c72b0;fill-opacity:0.8;stroke:#4c72b0;stroke-opacity:0.8;" x="304.229206" xlink:href="#mec6e9d8564" y="297.863039"/>
     <use style="fill:#4c72b0;fill-opacity:0.8;stroke:#4c72b0;stroke-opacity:0.8;" x="403.216282" xlink:href="#mec6e9d8564" y="373.138518"/>
     <use style="fill:#4c72b0;fill-opacity:0.8;stroke:#4c72b0;stroke-opacity:0.8;" x="378.097834" xlink:href="#mec6e9d8564" y="306.217875"/>
     <use style="fill:#4c72b0;fill-opacity:0.8;stroke:#4c72b0;stroke-opacity:0.8;" x="344.455205" xlink:href="#mec6e9d8564" y="300.485592"/>
     <use style="fill:#4c72b0;fill-opacity:0.8;stroke:#4c72b0;stroke-opacity:0.8;" x="323.895444" xlink:href="#mec6e9d8564" y="241.182192"/>
     <use style="fill:#4c72b0;fill-opacity:0.8;stroke:#4c72b0;stroke-opacity:0.8;" x="315.318271" xlink:href="#mec6e9d8564" y="287.108748"/>
     <use style="fill:#4c72b0;fill-opacity:0.8;stroke:#4c72b0;stroke-opacity:0.8;" x="387.129982" xlink:href="#mec6e9d8564" y="267.498787"/>
     <use style="fill:#4c72b0;fill-opacity:0.8;stroke:#4c72b0;stroke-opacity:0.8;" x="287.810375" xlink:href="#mec6e9d8564" y="251.763466"/>
     <use style="fill:#4c72b0;fill-opacity:0.8;stroke:#4c72b0;stroke-opacity:0.8;" x="381.659554" xlink:href="#mec6e9d8564" y="240.83616"/>
     <use style="fill:#4c72b0;fill-opacity:0.8;stroke:#4c72b0;stroke-opacity:0.8;" x="367.311979" xlink:href="#mec6e9d8564" y="256.771815"/>
     <use style="fill:#4c72b0;fill-opacity:0.8;stroke:#4c72b0;stroke-opacity:0.8;" x="384.789786" xlink:href="#mec6e9d8564" y="332.939691"/>
     <use style="fill:#4c72b0;fill-opacity:0.8;stroke:#4c72b0;stroke-opacity:0.8;" x="234.23503" xlink:href="#mec6e9d8564" y="372.560281"/>
    </g>
   </g>
   <g id="PolyCollection_1">
    <defs>
     <path d="M 54.815 -163.497 
L 54.815 -99.313245 
L 58.411711 -100.652127 
L 62.008423 -101.991009 
L 65.605134 -103.32989 
L 69.201846 -104.668772 
L 72.798557 -106.007653 
L 76.395268 -107.346535 
L 79.99198 -108.659242 
L 83.588691 -109.922498 
L 87.185403 -111.317528 
L 90.782114 -112.589731 
L 94.378825 -113.861935 
L 97.975537 -115.134138 
L 101.572248 -116.406342 
L 105.16896 -117.678545 
L 108.765671 -118.950749 
L 112.362382 -120.222952 
L 115.959094 -121.495156 
L 119.555805 -122.76736 
L 123.152517 -124.039563 
L 126.749228 -125.311767 
L 130.345939 -126.58397 
L 133.942651 -127.856174 
L 137.539362 -129.128377 
L 141.136074 -130.400581 
L 144.732785 -131.672784 
L 148.329496 -132.944988 
L 151.926208 -134.217191 
L 155.522919 -135.489395 
L 159.119631 -136.761599 
L 162.716342 -138.035735 
L 166.313053 -139.312118 
L 169.909765 -140.5885 
L 173.506476 -141.922338 
L 177.103188 -143.3427 
L 180.699899 -144.763063 
L 184.29661 -146.183425 
L 187.893322 -147.603809 
L 191.490033 -149.026384 
L 195.086745 -150.448958 
L 198.683456 -151.871533 
L 202.280167 -153.29518 
L 205.876879 -154.721452 
L 209.47359 -156.147724 
L 213.070302 -157.573996 
L 216.667013 -159.000268 
L 220.263724 -160.42654 
L 223.860436 -161.852812 
L 227.457147 -163.273974 
L 231.053859 -164.543661 
L 234.65057 -165.945462 
L 238.247281 -167.100027 
L 241.843993 -168.354983 
L 245.440704 -169.597635 
L 249.037416 -170.760455 
L 252.634127 -171.963552 
L 256.230838 -173.24728 
L 259.82755 -174.432365 
L 263.424261 -175.847637 
L 267.020973 -177.171721 
L 270.617684 -178.439967 
L 274.214395 -179.70488 
L 277.811107 -180.970128 
L 281.407818 -182.23351 
L 285.00453 -183.636549 
L 288.601241 -184.757967 
L 292.197952 -186.041169 
L 295.794664 -187.278252 
L 299.391375 -188.54827 
L 302.988087 -189.84202 
L 306.584798 -190.923763 
L 310.181509 -191.920956 
L 313.778221 -192.985363 
L 317.374932 -194.076888 
L 320.971644 -195.067072 
L 324.568355 -196.207942 
L 328.165066 -197.230762 
L 331.761778 -198.336692 
L 335.358489 -199.264499 
L 338.955201 -200.399226 
L 342.551912 -201.46164 
L 346.148623 -202.319017 
L 349.745335 -203.271584 
L 353.342046 -204.235375 
L 356.938758 -205.350499 
L 360.535469 -206.229703 
L 364.13218 -207.004659 
L 367.728892 -207.750495 
L 371.325603 -208.418701 
L 374.922315 -209.409694 
L 378.519026 -210.152146 
L 382.115737 -210.980625 
L 385.712449 -211.745093 
L 389.30916 -212.464269 
L 392.905872 -213.34478 
L 396.502583 -214.14036 
L 400.099294 -214.620005 
L 403.696006 -215.10646 
L 407.292717 -215.716455 
L 410.889429 -216.576898 
L 410.889429 -236.818482 
L 410.889429 -236.818482 
L 407.292717 -235.586322 
L 403.696006 -234.390539 
L 400.099294 -233.243073 
L 396.502583 -232.088464 
L 392.905872 -230.886001 
L 389.30916 -229.785273 
L 385.712449 -228.534171 
L 382.115737 -227.226336 
L 378.519026 -226.15625 
L 374.922315 -224.796009 
L 371.325603 -223.491267 
L 367.728892 -222.378017 
L 364.13218 -221.28511 
L 360.535469 -220.230881 
L 356.938758 -219.19121 
L 353.342046 -218.123494 
L 349.745335 -217.254645 
L 346.148623 -216.258449 
L 342.551912 -215.402194 
L 338.955201 -214.53532 
L 335.358489 -213.564829 
L 331.761778 -212.629263 
L 328.165066 -211.734913 
L 324.568355 -211.108461 
L 320.971644 -210.211736 
L 317.374932 -209.494385 
L 313.778221 -208.818344 
L 310.181509 -207.939212 
L 306.584798 -207.095147 
L 302.988087 -206.533078 
L 299.391375 -205.664779 
L 295.794664 -204.877933 
L 292.197952 -204.33225 
L 288.601241 -203.609248 
L 285.00453 -202.931122 
L 281.407818 -202.078757 
L 277.811107 -201.360844 
L 274.214395 -200.573114 
L 270.617684 -199.97278 
L 267.020973 -199.476047 
L 263.424261 -198.772113 
L 259.82755 -198.171779 
L 256.230838 -197.571446 
L 252.634127 -196.971112 
L 249.037416 -196.354877 
L 245.440704 -195.748735 
L 241.843993 -195.147519 
L 238.247281 -194.574078 
L 234.65057 -193.88706 
L 231.053859 -193.178501 
L 227.457147 -192.540885 
L 223.860436 -191.883733 
L 220.263724 -191.26875 
L 216.667013 -190.633987 
L 213.070302 -189.999225 
L 209.47359 -189.465039 
L 205.876879 -188.907985 
L 202.280167 -188.27028 
L 198.683456 -187.605589 
L 195.086745 -186.913646 
L 191.490033 -186.2352 
L 187.893322 -185.555085 
L 184.29661 -184.9167 
L 180.699899 -184.279181 
L 177.103188 -183.641661 
L 173.506476 -183.004142 
L 169.909765 -182.367923 
L 166.313053 -181.712868 
L 162.716342 -180.994082 
L 159.119631 -180.306868 
L 155.522919 -179.733758 
L 151.926208 -179.097025 
L 148.329496 -178.536872 
L 144.732785 -177.918511 
L 141.136074 -177.284675 
L 137.539362 -176.650839 
L 133.942651 -176.017002 
L 130.345939 -175.382315 
L 126.749228 -174.745683 
L 123.152517 -174.15437 
L 119.555805 -173.612188 
L 115.959094 -173.032081 
L 112.362382 -172.365018 
L 108.765671 -171.757878 
L 105.16896 -171.166806 
L 101.572248 -170.492549 
L 97.975537 -169.818292 
L 94.378825 -169.241784 
L 90.782114 -168.719531 
L 87.185403 -168.197278 
L 83.588691 -167.675025 
L 79.99198 -167.152772 
L 76.395268 -166.630519 
L 72.798557 -166.108266 
L 69.201846 -165.586012 
L 65.605134 -165.063759 
L 62.008423 -164.541506 
L 58.411711 -164.019253 
L 54.815 -163.497 
z
" id="m083cc88efa" style="stroke:#ffffff;stroke-opacity:0.15;stroke-width:1.5;"/>
    </defs>
    <g clip-path="url(#pd0488b39a6)">
     <use style="fill:#4c72b0;fill-opacity:0.15;stroke:#ffffff;stroke-opacity:0.15;stroke-width:1.5;" x="0" xlink:href="#m083cc88efa" y="504"/>
    </g>
   </g>
   <g id="line2d_16">
    <path clip-path="url(#pd0488b39a6)" d="M 54.815 373.119672 
L 58.411711 372.14682 
L 62.008423 371.173967 
L 65.605134 370.201115 
L 69.201846 369.228263 
L 72.798557 368.255411 
L 76.395268 367.282558 
L 79.99198 366.309706 
L 83.588691 365.336854 
L 87.185403 364.364002 
L 90.782114 363.391149 
L 94.378825 362.418297 
L 97.975537 361.445445 
L 101.572248 360.472593 
L 105.16896 359.499741 
L 108.765671 358.526888 
L 112.362382 357.554036 
L 115.959094 356.581184 
L 119.555805 355.608332 
L 123.152517 354.635479 
L 126.749228 353.662627 
L 130.345939 352.689775 
L 133.942651 351.716923 
L 137.539362 350.74407 
L 141.136074 349.771218 
L 144.732785 348.798366 
L 148.329496 347.825514 
L 151.926208 346.852662 
L 155.522919 345.879809 
L 159.119631 344.906957 
L 162.716342 343.934105 
L 166.313053 342.961253 
L 169.909765 341.9884 
L 173.506476 341.015548 
L 177.103188 340.042696 
L 180.699899 339.069844 
L 184.29661 338.096991 
L 187.893322 337.124139 
L 191.490033 336.151287 
L 195.086745 335.178435 
L 198.683456 334.205583 
L 202.280167 333.23273 
L 205.876879 332.259878 
L 209.47359 331.287026 
L 213.070302 330.314174 
L 216.667013 329.341321 
L 220.263724 328.368469 
L 223.860436 327.395617 
L 227.457147 326.422765 
L 231.053859 325.449912 
L 234.65057 324.47706 
L 238.247281 323.504208 
L 241.843993 322.531356 
L 245.440704 321.558503 
L 249.037416 320.585651 
L 252.634127 319.612799 
L 256.230838 318.639947 
L 259.82755 317.667095 
L 263.424261 316.694242 
L 267.020973 315.72139 
L 270.617684 314.748538 
L 274.214395 313.775686 
L 277.811107 312.802833 
L 281.407818 311.829981 
L 285.00453 310.857129 
L 288.601241 309.884277 
L 292.197952 308.911424 
L 295.794664 307.938572 
L 299.391375 306.96572 
L 302.988087 305.992868 
L 306.584798 305.020016 
L 310.181509 304.047163 
L 313.778221 303.074311 
L 317.374932 302.101459 
L 320.971644 301.128607 
L 324.568355 300.155754 
L 328.165066 299.182902 
L 331.761778 298.21005 
L 335.358489 297.237198 
L 338.955201 296.264345 
L 342.551912 295.291493 
L 346.148623 294.318641 
L 349.745335 293.345789 
L 353.342046 292.372937 
L 356.938758 291.400084 
L 360.535469 290.427232 
L 364.13218 289.45438 
L 367.728892 288.481528 
L 371.325603 287.508675 
L 374.922315 286.535823 
L 378.519026 285.562971 
L 382.115737 284.590119 
L 385.712449 283.617266 
L 389.30916 282.644414 
L 392.905872 281.671562 
L 396.502583 280.69871 
L 400.099294 279.725857 
L 403.696006 278.753005 
L 407.292717 277.780153 
L 410.889429 276.807301 
" style="fill:none;stroke:#4c72b0;stroke-linecap:round;stroke-width:3.375;"/>
   </g>
   <g id="line2d_17">
    <defs>
     <path d="M 0 4.5 
C 1.193414 4.5 2.338109 4.025852 3.181981 3.181981 
C 4.025852 2.338109 4.5 1.193414 4.5 0 
C 4.5 -1.193414 4.025852 -2.338109 3.181981 -3.181981 
C 2.338109 -4.025852 1.193414 -4.5 0 -4.5 
C -1.193414 -4.5 -2.338109 -4.025852 -3.181981 -3.181981 
C -4.025852 -2.338109 -4.5 -1.193414 -4.5 0 
C -4.5 1.193414 -4.025852 2.338109 -3.181981 3.181981 
C -2.338109 4.025852 -1.193414 4.5 0 4.5 
z
" id="me28a2be096" style="stroke:#c44e52;"/>
    </defs>
    <g clip-path="url(#pd0488b39a6)">
     <use style="fill:#c44e52;stroke:#c44e52;" x="369.115439" xlink:href="#me28a2be096" y="110.942364"/>
    </g>
   </g>
   <g id="patch_3">
    <path d="M 54.815 457.06 
L 54.815 94.460571 
" style="fill:none;stroke:#262626;stroke-linecap:square;stroke-linejoin:miter;stroke-width:1.875;"/>
   </g>
   <g id="patch_4">
    <path d="M 54.815 457.06 
L 410.889429 457.06 
" style="fill:none;stroke:#262626;stroke-linecap:square;stroke-linejoin:miter;stroke-width:1.875;"/>
   </g>
  </g>
  <g id="axes_2">
   <g id="patch_5">
    <path d="M 54.815 81.957143 
L 410.889429 81.957143 
L 410.889429 19.44 
L 54.815 19.44 
z
" style="fill:#ffffff;"/>
   </g>
   <g id="matplotlib.axis_3">
    <g id="xtick_8"/>
    <g id="xtick_9"/>
    <g id="xtick_10"/>
    <g id="xtick_11"/>
    <g id="xtick_12"/>
    <g id="xtick_13"/>
    <g id="xtick_14"/>
   </g>
   <g id="matplotlib.axis_4">
    <g id="ytick_9"/>
    <g id="ytick_10"/>
   </g>
   <g id="patch_6">
    <path clip-path="url(#p7cacfb747f)" d="M 54.815 81.957143 
L 84.487869 81.957143 
L 84.487869 80.947988 
L 54.815 80.947988 
z
" style="fill:#4c72b0;fill-opacity:0.5;stroke:#ffffff;stroke-linejoin:miter;stroke-width:1.5;"/>
   </g>
   <g id="patch_7">
    <path clip-path="url(#p7cacfb747f)" d="M 84.487869 81.957143 
L 114.160738 81.957143 
L 114.160738 81.957143 
L 84.487869 81.957143 
z
" style="fill:#4c72b0;fill-opacity:0.5;stroke:#ffffff;stroke-linejoin:miter;stroke-width:1.5;"/>
   </g>
   <g id="patch_8">
    <path clip-path="url(#p7cacfb747f)" d="M 114.160738 81.957143 
L 143.833607 81.957143 
L 143.833607 80.947988 
L 114.160738 80.947988 
z
" style="fill:#4c72b0;fill-opacity:0.5;stroke:#ffffff;stroke-linejoin:miter;stroke-width:1.5;"/>
   </g>
   <g id="patch_9">
    <path clip-path="url(#p7cacfb747f)" d="M 143.833607 81.957143 
L 173.506476 81.957143 
L 173.506476 80.947988 
L 143.833607 80.947988 
z
" style="fill:#4c72b0;fill-opacity:0.5;stroke:#ffffff;stroke-linejoin:miter;stroke-width:1.5;"/>
   </g>
   <g id="patch_10">
    <path clip-path="url(#p7cacfb747f)" d="M 173.506476 81.957143 
L 203.179345 81.957143 
L 203.179345 76.911369 
L 173.506476 76.911369 
z
" style="fill:#4c72b0;fill-opacity:0.5;stroke:#ffffff;stroke-linejoin:miter;stroke-width:1.5;"/>
   </g>
   <g id="patch_11">
    <path clip-path="url(#p7cacfb747f)" d="M 203.179345 81.957143 
L 232.852214 81.957143 
L 232.852214 73.883904 
L 203.179345 73.883904 
z
" style="fill:#4c72b0;fill-opacity:0.5;stroke:#ffffff;stroke-linejoin:miter;stroke-width:1.5;"/>
   </g>
   <g id="patch_12">
    <path clip-path="url(#p7cacfb747f)" d="M 232.852214 81.957143 
L 262.525083 81.957143 
L 262.525083 65.810665 
L 232.852214 65.810665 
z
" style="fill:#4c72b0;fill-opacity:0.5;stroke:#ffffff;stroke-linejoin:miter;stroke-width:1.5;"/>
   </g>
   <g id="patch_13">
    <path clip-path="url(#p7cacfb747f)" d="M 262.525083 81.957143 
L 292.197952 81.957143 
L 292.197952 65.810665 
L 262.525083 65.810665 
z
" style="fill:#4c72b0;fill-opacity:0.5;stroke:#ffffff;stroke-linejoin:miter;stroke-width:1.5;"/>
   </g>
   <g id="patch_14">
    <path clip-path="url(#p7cacfb747f)" d="M 292.197952 81.957143 
L 321.870821 81.957143 
L 321.870821 54.709962 
L 292.197952 54.709962 
z
" style="fill:#4c72b0;fill-opacity:0.5;stroke:#ffffff;stroke-linejoin:miter;stroke-width:1.5;"/>
   </g>
   <g id="patch_15">
    <path clip-path="url(#p7cacfb747f)" d="M 321.870821 81.957143 
L 351.54369 81.957143 
L 351.54369 50.673343 
L 321.870821 50.673343 
z
" style="fill:#4c72b0;fill-opacity:0.5;stroke:#ffffff;stroke-linejoin:miter;stroke-width:1.5;"/>
   </g>
   <g id="patch_16">
    <path clip-path="url(#p7cacfb747f)" d="M 351.54369 81.957143 
L 381.21656 81.957143 
L 381.21656 54.709962 
L 351.54369 54.709962 
z
" style="fill:#4c72b0;fill-opacity:0.5;stroke:#ffffff;stroke-linejoin:miter;stroke-width:1.5;"/>
   </g>
   <g id="patch_17">
    <path clip-path="url(#p7cacfb747f)" d="M 381.21656 81.957143 
L 410.889429 81.957143 
L 410.889429 22.417007 
L 381.21656 22.417007 
z
" style="fill:#4c72b0;fill-opacity:0.5;stroke:#ffffff;stroke-linejoin:miter;stroke-width:1.5;"/>
   </g>
   <g id="line2d_18">
    <path clip-path="url(#p7cacfb747f)" d="M 54.815 81.437624 
L 70.918869 81.54512 
L 97.75865 81.762145 
L 112.0732 81.631444 
L 126.387749 81.276185 
L 138.912981 80.770123 
L 151.438212 80.044341 
L 163.963443 79.079816 
L 178.277993 77.748129 
L 192.592543 76.22114 
L 203.328455 74.882944 
L 214.064368 73.317702 
L 231.957555 70.395258 
L 244.482786 68.485101 
L 262.375973 66.090918 
L 271.322567 64.754934 
L 278.479842 63.466388 
L 285.637117 61.943413 
L 294.583711 59.772684 
L 307.108942 56.67375 
L 314.266217 55.174126 
L 319.634173 54.279882 
L 325.002129 53.598858 
L 332.159404 52.959323 
L 344.684635 51.952354 
L 350.052592 51.251305 
L 355.420548 50.25245 
L 360.788504 48.944055 
L 367.945779 46.871884 
L 375.103054 44.856178 
L 378.681691 44.071998 
L 382.260329 43.55516 
L 385.838966 43.387767 
L 389.417604 43.637376 
L 391.206922 43.93398 
L 392.996241 44.35018 
L 394.78556 44.887577 
L 396.574879 45.545924 
L 400.153516 47.215165 
L 403.732154 49.319289 
L 407.310791 51.793302 
L 410.889429 54.551131 
L 410.889429 54.551131 
" style="fill:none;stroke:#4c72b0;stroke-linecap:round;stroke-width:2.25;"/>
   </g>
   <g id="patch_18">
    <path d="M 54.815 81.957143 
L 410.889429 81.957143 
" style="fill:none;stroke:#262626;stroke-linecap:square;stroke-linejoin:miter;stroke-width:1.875;"/>
   </g>
  </g>
  <g id="axes_3">
   <g id="patch_19">
    <path d="M 423.167857 457.06 
L 484.56 457.06 
L 484.56 94.460571 
L 423.167857 94.460571 
z
" style="fill:#ffffff;"/>
   </g>
   <g id="matplotlib.axis_5">
    <g id="xtick_15"/>
    <g id="xtick_16"/>
   </g>
   <g id="matplotlib.axis_6">
    <g id="ytick_11"/>
    <g id="ytick_12"/>
    <g id="ytick_13"/>
    <g id="ytick_14"/>
    <g id="ytick_15"/>
    <g id="ytick_16"/>
    <g id="ytick_17"/>
    <g id="ytick_18"/>
   </g>
   <g id="patch_20">
    <path clip-path="url(#p07954015f5)" d="M 423.167857 440.578208 
L 433.798531 440.578208 
L 433.798531 416.679693 
L 423.167857 416.679693 
z
" style="fill:#4c72b0;fill-opacity:0.5;stroke:#ffffff;stroke-linejoin:miter;stroke-width:1.5;"/>
   </g>
   <g id="patch_21">
    <path clip-path="url(#p07954015f5)" d="M 423.167857 416.679693 
L 428.483194 416.679693 
L 428.483194 392.781178 
L 423.167857 392.781178 
z
" style="fill:#4c72b0;fill-opacity:0.5;stroke:#ffffff;stroke-linejoin:miter;stroke-width:1.5;"/>
   </g>
   <g id="patch_22">
    <path clip-path="url(#p07954015f5)" d="M 423.167857 392.781178 
L 439.113868 392.781178 
L 439.113868 368.882663 
L 423.167857 368.882663 
z
" style="fill:#4c72b0;fill-opacity:0.5;stroke:#ffffff;stroke-linejoin:miter;stroke-width:1.5;"/>
   </g>
   <g id="patch_23">
    <path clip-path="url(#p07954015f5)" d="M 423.167857 368.882663 
L 462.146995 368.882663 
L 462.146995 344.984148 
L 423.167857 344.984148 
z
" style="fill:#4c72b0;fill-opacity:0.5;stroke:#ffffff;stroke-linejoin:miter;stroke-width:1.5;"/>
   </g>
   <g id="patch_24">
    <path clip-path="url(#p07954015f5)" d="M 423.167857 344.984148 
L 465.690553 344.984148 
L 465.690553 321.085633 
L 423.167857 321.085633 
z
" style="fill:#4c72b0;fill-opacity:0.5;stroke:#ffffff;stroke-linejoin:miter;stroke-width:1.5;"/>
   </g>
   <g id="patch_25">
    <path clip-path="url(#p07954015f5)" d="M 423.167857 321.085633 
L 481.636565 321.085633 
L 481.636565 297.187118 
L 423.167857 297.187118 
z
" style="fill:#4c72b0;fill-opacity:0.5;stroke:#ffffff;stroke-linejoin:miter;stroke-width:1.5;"/>
   </g>
   <g id="patch_26">
    <path clip-path="url(#p07954015f5)" d="M 423.167857 297.187118 
L 478.093007 297.187118 
L 478.093007 273.288604 
L 423.167857 273.288604 
z
" style="fill:#4c72b0;fill-opacity:0.5;stroke:#ffffff;stroke-linejoin:miter;stroke-width:1.5;"/>
   </g>
   <g id="patch_27">
    <path clip-path="url(#p07954015f5)" d="M 423.167857 273.288604 
L 479.864786 273.288604 
L 479.864786 249.390089 
L 423.167857 249.390089 
z
" style="fill:#4c72b0;fill-opacity:0.5;stroke:#ffffff;stroke-linejoin:miter;stroke-width:1.5;"/>
   </g>
   <g id="patch_28">
    <path clip-path="url(#p07954015f5)" d="M 423.167857 249.390089 
L 442.657426 249.390089 
L 442.657426 225.491574 
L 423.167857 225.491574 
z
" style="fill:#4c72b0;fill-opacity:0.5;stroke:#ffffff;stroke-linejoin:miter;stroke-width:1.5;"/>
   </g>
   <g id="patch_29">
    <path clip-path="url(#p07954015f5)" d="M 423.167857 225.491574 
L 449.744542 225.491574 
L 449.744542 201.593059 
L 423.167857 201.593059 
z
" style="fill:#4c72b0;fill-opacity:0.5;stroke:#ffffff;stroke-linejoin:miter;stroke-width:1.5;"/>
   </g>
   <g id="patch_30">
    <path clip-path="url(#p07954015f5)" d="M 423.167857 201.593059 
L 433.798531 201.593059 
L 433.798531 177.694544 
L 423.167857 177.694544 
z
" style="fill:#4c72b0;fill-opacity:0.5;stroke:#ffffff;stroke-linejoin:miter;stroke-width:1.5;"/>
   </g>
   <g id="line2d_19">
    <path clip-path="url(#p07954015f5)" d="M 427.797666 440.578208 
L 428.971911 432.652067 
L 429.720505 426.04695 
L 430.353184 418.120809 
L 431.095037 408.873645 
L 431.607903 404.910575 
L 432.350734 400.947505 
L 433.394131 396.984434 
L 434.282737 394.342388 
L 435.335696 391.700341 
L 437.222947 387.73727 
L 439.451336 383.7742 
L 441.95737 379.81113 
L 445.57376 374.527036 
L 452.883363 363.958849 
L 456.24407 358.674755 
L 459.342071 353.390661 
L 462.916136 346.785544 
L 466.243379 340.180427 
L 468.698141 334.896333 
L 470.350087 330.933263 
L 471.774233 326.970192 
L 472.922352 323.007122 
L 473.777286 319.044052 
L 474.366004 315.080981 
L 474.867442 309.796888 
L 475.539675 301.870747 
L 476.054244 297.907677 
L 477.004859 292.623583 
L 478.881791 283.376419 
L 479.245949 280.734372 
L 479.43196 278.092325 
L 479.388156 275.450278 
L 479.071917 272.808231 
L 478.453259 270.166185 
L 477.517354 267.524138 
L 476.265795 264.882091 
L 474.716575 262.240044 
L 472.902803 259.597997 
L 469.789152 255.634927 
L 465.209023 250.350833 
L 459.480729 243.745716 
L 456.352685 239.782646 
L 453.590673 235.819575 
L 451.972133 233.177528 
L 449.864447 229.214458 
L 448.08188 225.251388 
L 446.041696 219.967294 
L 441.193808 206.75706 
L 438.446733 200.151942 
L 431.055165 182.978638 
L 429.123326 177.694544 
L 429.123326 177.694544 
" style="fill:none;stroke:#4c72b0;stroke-linecap:round;stroke-width:2.25;"/>
   </g>
   <g id="patch_31">
    <path d="M 423.167857 457.06 
L 423.167857 94.460571 
" style="fill:none;stroke:#262626;stroke-linecap:square;stroke-linejoin:miter;stroke-width:1.875;"/>
   </g>
  </g>
 </g>
 <defs>
  <clipPath id="pd0488b39a6">
   <rect height="362.599429" width="356.074429" x="54.815" y="94.460571"/>
  </clipPath>
  <clipPath id="p7cacfb747f">
   <rect height="62.517143" width="356.074429" x="54.815" y="19.44"/>
  </clipPath>
  <clipPath id="p07954015f5">
   <rect height="362.599429" width="61.392143" x="423.167857" y="94.460571"/>
  </clipPath>
 </defs>
</svg>
