<?xml version="1.0" encoding="utf-8" standalone="no"?>
<!DOCTYPE svg PUBLIC "-//W3C//DTD SVG 1.1//EN"
  "http://www.w3.org/Graphics/SVG/1.1/DTD/svg11.dtd">
<!-- Created with matplotlib (https://matplotlib.org/) -->
<svg height="504pt" version="1.1" viewBox="0 0 504 504" width="504pt" xmlns="http://www.w3.org/2000/svg" xmlns:xlink="http://www.w3.org/1999/xlink">
 <metadata>
  <rdf:RDF xmlns:cc="http://creativecommons.org/ns#" xmlns:dc="http://purl.org/dc/elements/1.1/" xmlns:rdf="http://www.w3.org/1999/02/22-rdf-syntax-ns#">
   <cc:Work>
    <dc:type rdf:resource="http://purl.org/dc/dcmitype/StillImage"/>
    <dc:date>2021-02-02T16:13:36.080715</dc:date>
    <dc:format>image/svg+xml</dc:format>
    <dc:creator>
     <cc:Agent>
      <dc:title>Matplotlib v3.3.3, https://matplotlib.org/</dc:title>
     </cc:Agent>
    </dc:creator>
   </cc:Work>
  </rdf:RDF>
 </metadata>
 <defs>
  <style type="text/css">*{stroke-linecap:butt;stroke-linejoin:round;}</style>
 </defs>
 <g id="figure_1">
  <g id="patch_1">
   <path d="M 0 504 
L 504 504 
L 504 0 
L 0 0 
z
" style="fill:#ffffff;"/>
  </g>
  <g id="axes_1">
   <g id="patch_2">
    <path d="M 76.815 435.06 
L 414.660857 435.06 
L 414.660857 90.689143 
L 76.815 90.689143 
z
" style="fill:#ffffff;"/>
   </g>
   <g id="matplotlib.axis_1">
    <g id="xtick_1">
     <g id="line2d_1">
      <defs>
       <path d="M 0 0 
L 0 9 
" id="m682e66df91" style="stroke:#262626;stroke-width:1.875;"/>
      </defs>
      <g>
       <use style="fill:#262626;stroke:#262626;stroke-width:1.875;" x="146.447352" xlink:href="#m682e66df91" y="435.06"/>
      </g>
     </g>
     <g id="text_1">
      <!-- 20 -->
      <g style="fill:#262626;" transform="translate(137.271805 459.370391)scale(0.165 -0.165)">
       <defs>
        <path d="M 50.34375 8.453125 
L 50.34375 0 
L 3.03125 0 
Q 2.9375 3.171875 4.046875 6.109375 
Q 5.859375 10.9375 9.828125 15.625 
Q 13.8125 20.3125 21.34375 26.46875 
Q 33.015625 36.03125 37.109375 41.625 
Q 41.21875 47.21875 41.21875 52.203125 
Q 41.21875 57.421875 37.46875 61 
Q 33.734375 64.59375 27.734375 64.59375 
Q 21.390625 64.59375 17.578125 60.78125 
Q 13.765625 56.984375 13.71875 50.25 
L 4.6875 51.171875 
Q 5.609375 61.28125 11.65625 66.578125 
Q 17.71875 71.875 27.9375 71.875 
Q 38.234375 71.875 44.234375 66.15625 
Q 50.25 60.453125 50.25 52 
Q 50.25 47.703125 48.484375 43.546875 
Q 46.734375 39.40625 42.65625 34.8125 
Q 38.578125 30.21875 29.109375 22.21875 
Q 21.1875 15.578125 18.9375 13.203125 
Q 16.703125 10.84375 15.234375 8.453125 
z
" id="ArialMT-50"/>
        <path d="M 4.15625 35.296875 
Q 4.15625 48 6.765625 55.734375 
Q 9.375 63.484375 14.515625 67.671875 
Q 19.671875 71.875 27.484375 71.875 
Q 33.25 71.875 37.59375 69.546875 
Q 41.9375 67.234375 44.765625 62.859375 
Q 47.609375 58.5 49.21875 52.21875 
Q 50.828125 45.953125 50.828125 35.296875 
Q 50.828125 22.703125 48.234375 14.96875 
Q 45.65625 7.234375 40.5 3 
Q 35.359375 -1.21875 27.484375 -1.21875 
Q 17.140625 -1.21875 11.234375 6.203125 
Q 4.15625 15.140625 4.15625 35.296875 
z
M 13.1875 35.296875 
Q 13.1875 17.671875 17.3125 11.828125 
Q 21.4375 6 27.484375 6 
Q 33.546875 6 37.671875 11.859375 
Q 41.796875 17.71875 41.796875 35.296875 
Q 41.796875 52.984375 37.671875 58.78125 
Q 33.546875 64.59375 27.390625 64.59375 
Q 21.34375 64.59375 17.71875 59.46875 
Q 13.1875 52.9375 13.1875 35.296875 
z
" id="ArialMT-48"/>
       </defs>
       <use xlink:href="#ArialMT-50"/>
       <use x="55.615234" xlink:href="#ArialMT-48"/>
      </g>
     </g>
    </g>
    <g id="xtick_2">
     <g id="line2d_2">
      <g>
       <use style="fill:#262626;stroke:#262626;stroke-width:1.875;" x="223.816632" xlink:href="#m682e66df91" y="435.06"/>
      </g>
     </g>
     <g id="text_2">
      <!-- 30 -->
      <g style="fill:#262626;" transform="translate(214.641086 459.370391)scale(0.165 -0.165)">
       <defs>
        <path d="M 4.203125 18.890625 
L 12.984375 20.0625 
Q 14.5 12.59375 18.140625 9.296875 
Q 21.78125 6 27 6 
Q 33.203125 6 37.46875 10.296875 
Q 41.75 14.59375 41.75 20.953125 
Q 41.75 27 37.796875 30.921875 
Q 33.84375 34.859375 27.734375 34.859375 
Q 25.25 34.859375 21.53125 33.890625 
L 22.515625 41.609375 
Q 23.390625 41.5 23.921875 41.5 
Q 29.546875 41.5 34.03125 44.421875 
Q 38.53125 47.359375 38.53125 53.46875 
Q 38.53125 58.296875 35.25 61.46875 
Q 31.984375 64.65625 26.8125 64.65625 
Q 21.6875 64.65625 18.265625 61.421875 
Q 14.84375 58.203125 13.875 51.765625 
L 5.078125 53.328125 
Q 6.6875 62.15625 12.390625 67.015625 
Q 18.109375 71.875 26.609375 71.875 
Q 32.46875 71.875 37.390625 69.359375 
Q 42.328125 66.84375 44.9375 62.5 
Q 47.5625 58.15625 47.5625 53.265625 
Q 47.5625 48.640625 45.0625 44.828125 
Q 42.578125 41.015625 37.703125 38.765625 
Q 44.046875 37.3125 47.5625 32.6875 
Q 51.078125 28.078125 51.078125 21.140625 
Q 51.078125 11.765625 44.234375 5.25 
Q 37.40625 -1.265625 26.953125 -1.265625 
Q 17.53125 -1.265625 11.296875 4.34375 
Q 5.078125 9.96875 4.203125 18.890625 
z
" id="ArialMT-51"/>
       </defs>
       <use xlink:href="#ArialMT-51"/>
       <use x="55.615234" xlink:href="#ArialMT-48"/>
      </g>
     </g>
    </g>
    <g id="xtick_3">
     <g id="line2d_3">
      <g>
       <use style="fill:#262626;stroke:#262626;stroke-width:1.875;" x="301.185913" xlink:href="#m682e66df91" y="435.06"/>
      </g>
     </g>
     <g id="text_3">
      <!-- 40 -->
      <g style="fill:#262626;" transform="translate(292.010366 459.370391)scale(0.165 -0.165)">
       <defs>
        <path d="M 32.328125 0 
L 32.328125 17.140625 
L 1.265625 17.140625 
L 1.265625 25.203125 
L 33.9375 71.578125 
L 41.109375 71.578125 
L 41.109375 25.203125 
L 50.78125 25.203125 
L 50.78125 17.140625 
L 41.109375 17.140625 
L 41.109375 0 
z
M 32.328125 25.203125 
L 32.328125 57.46875 
L 9.90625 25.203125 
z
" id="ArialMT-52"/>
       </defs>
       <use xlink:href="#ArialMT-52"/>
       <use x="55.615234" xlink:href="#ArialMT-48"/>
      </g>
     </g>
    </g>
    <g id="xtick_4">
     <g id="line2d_4">
      <g>
       <use style="fill:#262626;stroke:#262626;stroke-width:1.875;" x="378.555193" xlink:href="#m682e66df91" y="435.06"/>
      </g>
     </g>
     <g id="text_4">
      <!-- 50 -->
      <g style="fill:#262626;" transform="translate(369.379646 459.370391)scale(0.165 -0.165)">
       <defs>
        <path d="M 4.15625 18.75 
L 13.375 19.53125 
Q 14.40625 12.796875 18.140625 9.390625 
Q 21.875 6 27.15625 6 
Q 33.5 6 37.890625 10.78125 
Q 42.28125 15.578125 42.28125 23.484375 
Q 42.28125 31 38.0625 35.34375 
Q 33.84375 39.703125 27 39.703125 
Q 22.75 39.703125 19.328125 37.765625 
Q 15.921875 35.84375 13.96875 32.765625 
L 5.71875 33.84375 
L 12.640625 70.609375 
L 48.25 70.609375 
L 48.25 62.203125 
L 19.671875 62.203125 
L 15.828125 42.96875 
Q 22.265625 47.46875 29.34375 47.46875 
Q 38.71875 47.46875 45.15625 40.96875 
Q 51.609375 34.46875 51.609375 24.265625 
Q 51.609375 14.546875 45.953125 7.46875 
Q 39.0625 -1.21875 27.15625 -1.21875 
Q 17.390625 -1.21875 11.203125 4.25 
Q 5.03125 9.71875 4.15625 18.75 
z
" id="ArialMT-53"/>
       </defs>
       <use xlink:href="#ArialMT-53"/>
       <use x="55.615234" xlink:href="#ArialMT-48"/>
      </g>
     </g>
    </g>
    <g id="text_5">
     <!-- Number of heartbeats reported -->
     <g style="fill:#262626;" transform="translate(122.679804 479.753203)scale(0.18 -0.18)">
      <defs>
       <path d="M 7.625 0 
L 7.625 71.578125 
L 17.328125 71.578125 
L 54.9375 15.375 
L 54.9375 71.578125 
L 64.015625 71.578125 
L 64.015625 0 
L 54.296875 0 
L 16.703125 56.25 
L 16.703125 0 
z
" id="ArialMT-78"/>
       <path d="M 40.578125 0 
L 40.578125 7.625 
Q 34.515625 -1.171875 24.125 -1.171875 
Q 19.53125 -1.171875 15.546875 0.578125 
Q 11.578125 2.34375 9.640625 5 
Q 7.71875 7.671875 6.9375 11.53125 
Q 6.390625 14.109375 6.390625 19.734375 
L 6.390625 51.859375 
L 15.1875 51.859375 
L 15.1875 23.09375 
Q 15.1875 16.21875 15.71875 13.8125 
Q 16.546875 10.359375 19.234375 8.375 
Q 21.921875 6.390625 25.875 6.390625 
Q 29.828125 6.390625 33.296875 8.421875 
Q 36.765625 10.453125 38.203125 13.9375 
Q 39.65625 17.4375 39.65625 24.078125 
L 39.65625 51.859375 
L 48.4375 51.859375 
L 48.4375 0 
z
" id="ArialMT-117"/>
       <path d="M 6.59375 0 
L 6.59375 51.859375 
L 14.453125 51.859375 
L 14.453125 44.578125 
Q 16.890625 48.390625 20.9375 50.703125 
Q 25 53.03125 30.171875 53.03125 
Q 35.9375 53.03125 39.625 50.640625 
Q 43.3125 48.25 44.828125 43.953125 
Q 50.984375 53.03125 60.84375 53.03125 
Q 68.5625 53.03125 72.703125 48.75 
Q 76.859375 44.484375 76.859375 35.59375 
L 76.859375 0 
L 68.109375 0 
L 68.109375 32.671875 
Q 68.109375 37.9375 67.25 40.25 
Q 66.40625 42.578125 64.15625 43.984375 
Q 61.921875 45.40625 58.890625 45.40625 
Q 53.421875 45.40625 49.796875 41.765625 
Q 46.1875 38.140625 46.1875 30.125 
L 46.1875 0 
L 37.40625 0 
L 37.40625 33.6875 
Q 37.40625 39.546875 35.25 42.46875 
Q 33.109375 45.40625 28.21875 45.40625 
Q 24.515625 45.40625 21.359375 43.453125 
Q 18.21875 41.5 16.796875 37.734375 
Q 15.375 33.984375 15.375 26.90625 
L 15.375 0 
z
" id="ArialMT-109"/>
       <path d="M 14.703125 0 
L 6.546875 0 
L 6.546875 71.578125 
L 15.328125 71.578125 
L 15.328125 46.046875 
Q 20.90625 53.03125 29.546875 53.03125 
Q 34.328125 53.03125 38.59375 51.09375 
Q 42.875 49.171875 45.625 45.671875 
Q 48.390625 42.1875 49.953125 37.25 
Q 51.515625 32.328125 51.515625 26.703125 
Q 51.515625 13.375 44.921875 6.09375 
Q 38.328125 -1.171875 29.109375 -1.171875 
Q 19.921875 -1.171875 14.703125 6.5 
z
M 14.59375 26.3125 
Q 14.59375 17 17.140625 12.84375 
Q 21.296875 6.0625 28.375 6.0625 
Q 34.125 6.0625 38.328125 11.0625 
Q 42.53125 16.0625 42.53125 25.984375 
Q 42.53125 36.140625 38.5 40.96875 
Q 34.46875 45.796875 28.765625 45.796875 
Q 23 45.796875 18.796875 40.796875 
Q 14.59375 35.796875 14.59375 26.3125 
z
" id="ArialMT-98"/>
       <path d="M 42.09375 16.703125 
L 51.171875 15.578125 
Q 49.03125 7.625 43.21875 3.21875 
Q 37.40625 -1.171875 28.375 -1.171875 
Q 17 -1.171875 10.328125 5.828125 
Q 3.65625 12.84375 3.65625 25.484375 
Q 3.65625 38.578125 10.390625 45.796875 
Q 17.140625 53.03125 27.875 53.03125 
Q 38.28125 53.03125 44.875 45.953125 
Q 51.46875 38.875 51.46875 26.03125 
Q 51.46875 25.25 51.421875 23.6875 
L 12.75 23.6875 
Q 13.234375 15.140625 17.578125 10.59375 
Q 21.921875 6.0625 28.421875 6.0625 
Q 33.25 6.0625 36.671875 8.59375 
Q 40.09375 11.140625 42.09375 16.703125 
z
M 13.234375 30.90625 
L 42.1875 30.90625 
Q 41.609375 37.453125 38.875 40.71875 
Q 34.671875 45.796875 27.984375 45.796875 
Q 21.921875 45.796875 17.796875 41.75 
Q 13.671875 37.703125 13.234375 30.90625 
z
" id="ArialMT-101"/>
       <path d="M 6.5 0 
L 6.5 51.859375 
L 14.40625 51.859375 
L 14.40625 44 
Q 17.4375 49.515625 20 51.265625 
Q 22.5625 53.03125 25.640625 53.03125 
Q 30.078125 53.03125 34.671875 50.203125 
L 31.640625 42.046875 
Q 28.421875 43.953125 25.203125 43.953125 
Q 22.3125 43.953125 20.015625 42.21875 
Q 17.71875 40.484375 16.75 37.40625 
Q 15.28125 32.71875 15.28125 27.15625 
L 15.28125 0 
z
" id="ArialMT-114"/>
       <path id="ArialMT-32"/>
       <path d="M 3.328125 25.921875 
Q 3.328125 40.328125 11.328125 47.265625 
Q 18.015625 53.03125 27.640625 53.03125 
Q 38.328125 53.03125 45.109375 46.015625 
Q 51.90625 39.015625 51.90625 26.65625 
Q 51.90625 16.65625 48.90625 10.90625 
Q 45.90625 5.171875 40.15625 2 
Q 34.421875 -1.171875 27.640625 -1.171875 
Q 16.75 -1.171875 10.03125 5.8125 
Q 3.328125 12.796875 3.328125 25.921875 
z
M 12.359375 25.921875 
Q 12.359375 15.96875 16.703125 11.015625 
Q 21.046875 6.0625 27.640625 6.0625 
Q 34.1875 6.0625 38.53125 11.03125 
Q 42.875 16.015625 42.875 26.21875 
Q 42.875 35.84375 38.5 40.796875 
Q 34.125 45.75 27.640625 45.75 
Q 21.046875 45.75 16.703125 40.8125 
Q 12.359375 35.890625 12.359375 25.921875 
z
" id="ArialMT-111"/>
       <path d="M 8.6875 0 
L 8.6875 45.015625 
L 0.921875 45.015625 
L 0.921875 51.859375 
L 8.6875 51.859375 
L 8.6875 57.375 
Q 8.6875 62.59375 9.625 65.140625 
Q 10.890625 68.5625 14.078125 70.671875 
Q 17.28125 72.796875 23.046875 72.796875 
Q 26.765625 72.796875 31.25 71.921875 
L 29.9375 64.265625 
Q 27.203125 64.75 24.75 64.75 
Q 20.75 64.75 19.09375 63.03125 
Q 17.4375 61.328125 17.4375 56.640625 
L 17.4375 51.859375 
L 27.546875 51.859375 
L 27.546875 45.015625 
L 17.4375 45.015625 
L 17.4375 0 
z
" id="ArialMT-102"/>
       <path d="M 6.59375 0 
L 6.59375 71.578125 
L 15.375 71.578125 
L 15.375 45.90625 
Q 21.53125 53.03125 30.90625 53.03125 
Q 36.671875 53.03125 40.921875 50.75 
Q 45.171875 48.484375 47 44.484375 
Q 48.828125 40.484375 48.828125 32.859375 
L 48.828125 0 
L 40.046875 0 
L 40.046875 32.859375 
Q 40.046875 39.453125 37.1875 42.453125 
Q 34.328125 45.453125 29.109375 45.453125 
Q 25.203125 45.453125 21.75 43.421875 
Q 18.3125 41.40625 16.84375 37.9375 
Q 15.375 34.46875 15.375 28.375 
L 15.375 0 
z
" id="ArialMT-104"/>
       <path d="M 40.4375 6.390625 
Q 35.546875 2.25 31.03125 0.53125 
Q 26.515625 -1.171875 21.34375 -1.171875 
Q 12.796875 -1.171875 8.203125 3 
Q 3.609375 7.171875 3.609375 13.671875 
Q 3.609375 17.484375 5.34375 20.625 
Q 7.078125 23.78125 9.890625 25.6875 
Q 12.703125 27.59375 16.21875 28.5625 
Q 18.796875 29.25 24.03125 29.890625 
Q 34.671875 31.15625 39.703125 32.90625 
Q 39.75 34.71875 39.75 35.203125 
Q 39.75 40.578125 37.25 42.78125 
Q 33.890625 45.75 27.25 45.75 
Q 21.046875 45.75 18.09375 43.578125 
Q 15.140625 41.40625 13.71875 35.890625 
L 5.125 37.0625 
Q 6.296875 42.578125 8.984375 45.96875 
Q 11.671875 49.359375 16.75 51.1875 
Q 21.828125 53.03125 28.515625 53.03125 
Q 35.15625 53.03125 39.296875 51.46875 
Q 43.453125 49.90625 45.40625 47.53125 
Q 47.359375 45.171875 48.140625 41.546875 
Q 48.578125 39.3125 48.578125 33.453125 
L 48.578125 21.734375 
Q 48.578125 9.46875 49.140625 6.21875 
Q 49.703125 2.984375 51.375 0 
L 42.1875 0 
Q 40.828125 2.734375 40.4375 6.390625 
z
M 39.703125 26.03125 
Q 34.90625 24.078125 25.34375 22.703125 
Q 19.921875 21.921875 17.671875 20.9375 
Q 15.4375 19.96875 14.203125 18.09375 
Q 12.984375 16.21875 12.984375 13.921875 
Q 12.984375 10.40625 15.640625 8.0625 
Q 18.3125 5.71875 23.4375 5.71875 
Q 28.515625 5.71875 32.46875 7.9375 
Q 36.421875 10.15625 38.28125 14.015625 
Q 39.703125 17 39.703125 22.796875 
z
" id="ArialMT-97"/>
       <path d="M 25.78125 7.859375 
L 27.046875 0.09375 
Q 23.34375 -0.6875 20.40625 -0.6875 
Q 15.625 -0.6875 12.984375 0.828125 
Q 10.359375 2.34375 9.28125 4.8125 
Q 8.203125 7.28125 8.203125 15.1875 
L 8.203125 45.015625 
L 1.765625 45.015625 
L 1.765625 51.859375 
L 8.203125 51.859375 
L 8.203125 64.703125 
L 16.9375 69.96875 
L 16.9375 51.859375 
L 25.78125 51.859375 
L 25.78125 45.015625 
L 16.9375 45.015625 
L 16.9375 14.703125 
Q 16.9375 10.9375 17.40625 9.859375 
Q 17.875 8.796875 18.921875 8.15625 
Q 19.96875 7.515625 21.921875 7.515625 
Q 23.390625 7.515625 25.78125 7.859375 
z
" id="ArialMT-116"/>
       <path d="M 3.078125 15.484375 
L 11.765625 16.84375 
Q 12.5 11.625 15.84375 8.84375 
Q 19.1875 6.0625 25.203125 6.0625 
Q 31.25 6.0625 34.171875 8.515625 
Q 37.109375 10.984375 37.109375 14.3125 
Q 37.109375 17.28125 34.515625 19 
Q 32.71875 20.171875 25.53125 21.96875 
Q 15.875 24.421875 12.140625 26.203125 
Q 8.40625 27.984375 6.46875 31.125 
Q 4.546875 34.28125 4.546875 38.09375 
Q 4.546875 41.546875 6.125 44.5 
Q 7.71875 47.46875 10.453125 49.421875 
Q 12.5 50.921875 16.03125 51.96875 
Q 19.578125 53.03125 23.640625 53.03125 
Q 29.734375 53.03125 34.34375 51.265625 
Q 38.96875 49.515625 41.15625 46.5 
Q 43.359375 43.5 44.1875 38.484375 
L 35.59375 37.3125 
Q 35.015625 41.3125 32.203125 43.546875 
Q 29.390625 45.796875 24.265625 45.796875 
Q 18.21875 45.796875 15.625 43.796875 
Q 13.03125 41.796875 13.03125 39.109375 
Q 13.03125 37.40625 14.109375 36.03125 
Q 15.1875 34.625 17.484375 33.6875 
Q 18.796875 33.203125 25.25 31.453125 
Q 34.578125 28.953125 38.25 27.359375 
Q 41.9375 25.78125 44.03125 22.75 
Q 46.140625 19.734375 46.140625 15.234375 
Q 46.140625 10.84375 43.578125 6.953125 
Q 41.015625 3.078125 36.171875 0.953125 
Q 31.34375 -1.171875 25.25 -1.171875 
Q 15.140625 -1.171875 9.84375 3.03125 
Q 4.546875 7.234375 3.078125 15.484375 
z
" id="ArialMT-115"/>
       <path d="M 6.59375 -19.875 
L 6.59375 51.859375 
L 14.59375 51.859375 
L 14.59375 45.125 
Q 17.4375 49.078125 21 51.046875 
Q 24.5625 53.03125 29.640625 53.03125 
Q 36.28125 53.03125 41.359375 49.609375 
Q 46.4375 46.1875 49.015625 39.953125 
Q 51.609375 33.734375 51.609375 26.3125 
Q 51.609375 18.359375 48.75 11.984375 
Q 45.90625 5.609375 40.453125 2.21875 
Q 35.015625 -1.171875 29 -1.171875 
Q 24.609375 -1.171875 21.109375 0.6875 
Q 17.625 2.546875 15.375 5.375 
L 15.375 -19.875 
z
M 14.546875 25.640625 
Q 14.546875 15.625 18.59375 10.84375 
Q 22.65625 6.0625 28.421875 6.0625 
Q 34.28125 6.0625 38.453125 11.015625 
Q 42.625 15.96875 42.625 26.375 
Q 42.625 36.28125 38.546875 41.203125 
Q 34.46875 46.140625 28.8125 46.140625 
Q 23.1875 46.140625 18.859375 40.890625 
Q 14.546875 35.640625 14.546875 25.640625 
z
" id="ArialMT-112"/>
       <path d="M 40.234375 0 
L 40.234375 6.546875 
Q 35.296875 -1.171875 25.734375 -1.171875 
Q 19.53125 -1.171875 14.328125 2.25 
Q 9.125 5.671875 6.265625 11.796875 
Q 3.421875 17.921875 3.421875 25.875 
Q 3.421875 33.640625 6 39.96875 
Q 8.59375 46.296875 13.765625 49.65625 
Q 18.953125 53.03125 25.34375 53.03125 
Q 30.03125 53.03125 33.6875 51.046875 
Q 37.359375 49.078125 39.65625 45.90625 
L 39.65625 71.578125 
L 48.390625 71.578125 
L 48.390625 0 
z
M 12.453125 25.875 
Q 12.453125 15.921875 16.640625 10.984375 
Q 20.84375 6.0625 26.5625 6.0625 
Q 32.328125 6.0625 36.34375 10.765625 
Q 40.375 15.484375 40.375 25.140625 
Q 40.375 35.796875 36.265625 40.765625 
Q 32.171875 45.75 26.171875 45.75 
Q 20.3125 45.75 16.375 40.96875 
Q 12.453125 36.1875 12.453125 25.875 
z
" id="ArialMT-100"/>
      </defs>
      <use xlink:href="#ArialMT-78"/>
      <use x="72.216797" xlink:href="#ArialMT-117"/>
      <use x="127.832031" xlink:href="#ArialMT-109"/>
      <use x="211.132812" xlink:href="#ArialMT-98"/>
      <use x="266.748047" xlink:href="#ArialMT-101"/>
      <use x="322.363281" xlink:href="#ArialMT-114"/>
      <use x="355.664062" xlink:href="#ArialMT-32"/>
      <use x="383.447266" xlink:href="#ArialMT-111"/>
      <use x="439.0625" xlink:href="#ArialMT-102"/>
      <use x="466.845703" xlink:href="#ArialMT-32"/>
      <use x="494.628906" xlink:href="#ArialMT-104"/>
      <use x="550.244141" xlink:href="#ArialMT-101"/>
      <use x="605.859375" xlink:href="#ArialMT-97"/>
      <use x="661.474609" xlink:href="#ArialMT-114"/>
      <use x="694.775391" xlink:href="#ArialMT-116"/>
      <use x="722.558594" xlink:href="#ArialMT-98"/>
      <use x="778.173828" xlink:href="#ArialMT-101"/>
      <use x="833.789062" xlink:href="#ArialMT-97"/>
      <use x="889.404297" xlink:href="#ArialMT-116"/>
      <use x="917.1875" xlink:href="#ArialMT-115"/>
      <use x="967.1875" xlink:href="#ArialMT-32"/>
      <use x="994.970703" xlink:href="#ArialMT-114"/>
      <use x="1028.271484" xlink:href="#ArialMT-101"/>
      <use x="1083.886719" xlink:href="#ArialMT-112"/>
      <use x="1139.501953" xlink:href="#ArialMT-111"/>
      <use x="1195.117188" xlink:href="#ArialMT-114"/>
      <use x="1228.417969" xlink:href="#ArialMT-116"/>
      <use x="1256.201172" xlink:href="#ArialMT-101"/>
      <use x="1311.816406" xlink:href="#ArialMT-100"/>
     </g>
    </g>
   </g>
   <g id="matplotlib.axis_2">
    <g id="ytick_1">
     <g id="line2d_5">
      <defs>
       <path d="M 0 0 
L -9 0 
" id="m8cc4acff7a" style="stroke:#262626;stroke-width:1.875;"/>
      </defs>
      <g>
       <use style="fill:#262626;stroke:#262626;stroke-width:1.875;" x="76.815" xlink:href="#m8cc4acff7a" y="426.324948"/>
      </g>
     </g>
     <g id="text_6">
      <!-- −40 -->
      <g style="fill:#262626;" transform="translate(36.326875 432.230143)scale(0.165 -0.165)">
       <defs>
        <path d="M 52.828125 31.203125 
L 5.5625 31.203125 
L 5.5625 39.40625 
L 52.828125 39.40625 
z
" id="ArialMT-8722"/>
       </defs>
       <use xlink:href="#ArialMT-8722"/>
       <use x="58.398438" xlink:href="#ArialMT-52"/>
       <use x="114.013672" xlink:href="#ArialMT-48"/>
      </g>
     </g>
    </g>
    <g id="ytick_2">
     <g id="line2d_6">
      <g>
       <use style="fill:#262626;stroke:#262626;stroke-width:1.875;" x="76.815" xlink:href="#m8cc4acff7a" y="383.086395"/>
      </g>
     </g>
     <g id="text_7">
      <!-- −30 -->
      <g style="fill:#262626;" transform="translate(36.326875 388.99159)scale(0.165 -0.165)">
       <use xlink:href="#ArialMT-8722"/>
       <use x="58.398438" xlink:href="#ArialMT-51"/>
       <use x="114.013672" xlink:href="#ArialMT-48"/>
      </g>
     </g>
    </g>
    <g id="ytick_3">
     <g id="line2d_7">
      <g>
       <use style="fill:#262626;stroke:#262626;stroke-width:1.875;" x="76.815" xlink:href="#m8cc4acff7a" y="339.847843"/>
      </g>
     </g>
     <g id="text_8">
      <!-- −20 -->
      <g style="fill:#262626;" transform="translate(36.326875 345.753038)scale(0.165 -0.165)">
       <use xlink:href="#ArialMT-8722"/>
       <use x="58.398438" xlink:href="#ArialMT-50"/>
       <use x="114.013672" xlink:href="#ArialMT-48"/>
      </g>
     </g>
    </g>
    <g id="ytick_4">
     <g id="line2d_8">
      <g>
       <use style="fill:#262626;stroke:#262626;stroke-width:1.875;" x="76.815" xlink:href="#m8cc4acff7a" y="296.60929"/>
      </g>
     </g>
     <g id="text_9">
      <!-- −10 -->
      <g style="fill:#262626;" transform="translate(36.326875 302.514485)scale(0.165 -0.165)">
       <defs>
        <path d="M 37.25 0 
L 28.46875 0 
L 28.46875 56 
Q 25.296875 52.984375 20.140625 49.953125 
Q 14.984375 46.921875 10.890625 45.40625 
L 10.890625 53.90625 
Q 18.265625 57.375 23.78125 62.296875 
Q 29.296875 67.234375 31.59375 71.875 
L 37.25 71.875 
z
" id="ArialMT-49"/>
       </defs>
       <use xlink:href="#ArialMT-8722"/>
       <use x="58.398438" xlink:href="#ArialMT-49"/>
       <use x="114.013672" xlink:href="#ArialMT-48"/>
      </g>
     </g>
    </g>
    <g id="ytick_5">
     <g id="line2d_9">
      <g>
       <use style="fill:#262626;stroke:#262626;stroke-width:1.875;" x="76.815" xlink:href="#m8cc4acff7a" y="253.370738"/>
      </g>
     </g>
     <g id="text_10">
      <!-- 0 -->
      <g style="fill:#262626;" transform="translate(55.139453 259.275933)scale(0.165 -0.165)">
       <use xlink:href="#ArialMT-48"/>
      </g>
     </g>
    </g>
    <g id="ytick_6">
     <g id="line2d_10">
      <g>
       <use style="fill:#262626;stroke:#262626;stroke-width:1.875;" x="76.815" xlink:href="#m8cc4acff7a" y="210.132185"/>
      </g>
     </g>
     <g id="text_11">
      <!-- 10 -->
      <g style="fill:#262626;" transform="translate(45.963906 216.03738)scale(0.165 -0.165)">
       <use xlink:href="#ArialMT-49"/>
       <use x="55.615234" xlink:href="#ArialMT-48"/>
      </g>
     </g>
    </g>
    <g id="ytick_7">
     <g id="line2d_11">
      <g>
       <use style="fill:#262626;stroke:#262626;stroke-width:1.875;" x="76.815" xlink:href="#m8cc4acff7a" y="166.893633"/>
      </g>
     </g>
     <g id="text_12">
      <!-- 20 -->
      <g style="fill:#262626;" transform="translate(45.963906 172.798828)scale(0.165 -0.165)">
       <use xlink:href="#ArialMT-50"/>
       <use x="55.615234" xlink:href="#ArialMT-48"/>
      </g>
     </g>
    </g>
    <g id="ytick_8">
     <g id="line2d_12">
      <g>
       <use style="fill:#262626;stroke:#262626;stroke-width:1.875;" x="76.815" xlink:href="#m8cc4acff7a" y="123.65508"/>
      </g>
     </g>
     <g id="text_13">
      <!-- 30 -->
      <g style="fill:#262626;" transform="translate(45.963906 129.560275)scale(0.165 -0.165)">
       <use xlink:href="#ArialMT-51"/>
       <use x="55.615234" xlink:href="#ArialMT-48"/>
      </g>
     </g>
    </g>
    <g id="text_14">
     <!-- Psychometric threshold -->
     <g style="fill:#262626;" transform="translate(28.538437 356.407071)rotate(-90)scale(0.18 -0.18)">
      <defs>
       <path d="M 7.71875 0 
L 7.71875 71.578125 
L 34.71875 71.578125 
Q 41.84375 71.578125 45.609375 70.90625 
Q 50.875 70.015625 54.4375 67.546875 
Q 58.015625 65.09375 60.1875 60.640625 
Q 62.359375 56.203125 62.359375 50.875 
Q 62.359375 41.75 56.546875 35.421875 
Q 50.734375 29.109375 35.546875 29.109375 
L 17.1875 29.109375 
L 17.1875 0 
z
M 17.1875 37.546875 
L 35.6875 37.546875 
Q 44.875 37.546875 48.734375 40.96875 
Q 52.59375 44.390625 52.59375 50.59375 
Q 52.59375 55.078125 50.3125 58.265625 
Q 48.046875 61.46875 44.34375 62.5 
Q 41.9375 63.140625 35.5 63.140625 
L 17.1875 63.140625 
z
" id="ArialMT-80"/>
       <path d="M 6.203125 -19.96875 
L 5.21875 -11.71875 
Q 8.109375 -12.5 10.25 -12.5 
Q 13.1875 -12.5 14.9375 -11.515625 
Q 16.703125 -10.546875 17.828125 -8.796875 
Q 18.65625 -7.46875 20.515625 -2.25 
Q 20.75 -1.515625 21.296875 -0.09375 
L 1.609375 51.859375 
L 11.078125 51.859375 
L 21.875 21.828125 
Q 23.96875 16.109375 25.640625 9.8125 
Q 27.15625 15.875 29.25 21.625 
L 40.328125 51.859375 
L 49.125 51.859375 
L 29.390625 -0.875 
Q 26.21875 -9.421875 24.46875 -12.640625 
Q 22.125 -17 19.09375 -19.015625 
Q 16.0625 -21.046875 11.859375 -21.046875 
Q 9.328125 -21.046875 6.203125 -19.96875 
z
" id="ArialMT-121"/>
       <path d="M 40.4375 19 
L 49.078125 17.875 
Q 47.65625 8.9375 41.8125 3.875 
Q 35.984375 -1.171875 27.484375 -1.171875 
Q 16.84375 -1.171875 10.375 5.78125 
Q 3.90625 12.75 3.90625 25.734375 
Q 3.90625 34.125 6.6875 40.421875 
Q 9.46875 46.734375 15.15625 49.875 
Q 20.84375 53.03125 27.546875 53.03125 
Q 35.984375 53.03125 41.359375 48.75 
Q 46.734375 44.484375 48.25 36.625 
L 39.703125 35.296875 
Q 38.484375 40.53125 35.375 43.15625 
Q 32.28125 45.796875 27.875 45.796875 
Q 21.234375 45.796875 17.078125 41.03125 
Q 12.9375 36.28125 12.9375 25.984375 
Q 12.9375 15.53125 16.9375 10.796875 
Q 20.953125 6.0625 27.390625 6.0625 
Q 32.5625 6.0625 36.03125 9.234375 
Q 39.5 12.40625 40.4375 19 
z
" id="ArialMT-99"/>
       <path d="M 6.640625 61.46875 
L 6.640625 71.578125 
L 15.4375 71.578125 
L 15.4375 61.46875 
z
M 6.640625 0 
L 6.640625 51.859375 
L 15.4375 51.859375 
L 15.4375 0 
z
" id="ArialMT-105"/>
       <path d="M 6.390625 0 
L 6.390625 71.578125 
L 15.1875 71.578125 
L 15.1875 0 
z
" id="ArialMT-108"/>
      </defs>
      <use xlink:href="#ArialMT-80"/>
      <use x="66.699219" xlink:href="#ArialMT-115"/>
      <use x="116.699219" xlink:href="#ArialMT-121"/>
      <use x="166.699219" xlink:href="#ArialMT-99"/>
      <use x="216.699219" xlink:href="#ArialMT-104"/>
      <use x="272.314453" xlink:href="#ArialMT-111"/>
      <use x="327.929688" xlink:href="#ArialMT-109"/>
      <use x="411.230469" xlink:href="#ArialMT-101"/>
      <use x="466.845703" xlink:href="#ArialMT-116"/>
      <use x="494.628906" xlink:href="#ArialMT-114"/>
      <use x="527.929688" xlink:href="#ArialMT-105"/>
      <use x="550.146484" xlink:href="#ArialMT-99"/>
      <use x="600.146484" xlink:href="#ArialMT-32"/>
      <use x="627.929688" xlink:href="#ArialMT-116"/>
      <use x="655.712891" xlink:href="#ArialMT-104"/>
      <use x="711.328125" xlink:href="#ArialMT-114"/>
      <use x="744.628906" xlink:href="#ArialMT-101"/>
      <use x="800.244141" xlink:href="#ArialMT-115"/>
      <use x="850.244141" xlink:href="#ArialMT-104"/>
      <use x="905.859375" xlink:href="#ArialMT-111"/>
      <use x="961.474609" xlink:href="#ArialMT-108"/>
      <use x="983.691406" xlink:href="#ArialMT-100"/>
     </g>
    </g>
   </g>
   <g id="PathCollection_1">
    <defs>
     <path d="M 0 4.5 
C 1.193414 4.5 2.338109 4.025852 3.181981 3.181981 
C 4.025852 2.338109 4.5 1.193414 4.5 0 
C 4.5 -1.193414 4.025852 -2.338109 3.181981 -3.181981 
C 2.338109 -4.025852 1.193414 -4.5 0 -4.5 
C -1.193414 -4.5 -2.338109 -4.025852 -3.181981 -3.181981 
C -4.025852 -2.338109 -4.5 -1.193414 -4.5 0 
C -4.5 1.193414 -4.025852 2.338109 -3.181981 3.181981 
C -2.338109 4.025852 -1.193414 4.5 0 4.5 
z
" id="m1876fc8190" style="stroke:#4c72b0;stroke-opacity:0.8;"/>
    </defs>
    <g clip-path="url(#p6da2d885a1)">
     <use style="fill:#4c72b0;fill-opacity:0.8;stroke:#4c72b0;stroke-opacity:0.8;" x="160.63172" xlink:href="#m1876fc8190" y="192.348168"/>
     <use style="fill:#4c72b0;fill-opacity:0.8;stroke:#4c72b0;stroke-opacity:0.8;" x="192.86892" xlink:href="#m1876fc8190" y="305.20079"/>
     <use style="fill:#4c72b0;fill-opacity:0.8;stroke:#4c72b0;stroke-opacity:0.8;" x="248.316905" xlink:href="#m1876fc8190" y="262.887543"/>
     <use style="fill:#4c72b0;fill-opacity:0.8;stroke:#4c72b0;stroke-opacity:0.8;" x="320.528233" xlink:href="#m1876fc8190" y="293.26695"/>
     <use style="fill:#4c72b0;fill-opacity:0.8;stroke:#4c72b0;stroke-opacity:0.8;" x="256.053833" xlink:href="#m1876fc8190" y="213.297247"/>
     <use style="fill:#4c72b0;fill-opacity:0.8;stroke:#4c72b0;stroke-opacity:0.8;" x="187.710968" xlink:href="#m1876fc8190" y="271.595787"/>
     <use style="fill:#4c72b0;fill-opacity:0.8;stroke:#4c72b0;stroke-opacity:0.8;" x="238.001001" xlink:href="#m1876fc8190" y="242.457327"/>
     <use style="fill:#4c72b0;fill-opacity:0.8;stroke:#4c72b0;stroke-opacity:0.8;" x="317.949257" xlink:href="#m1876fc8190" y="309.468436"/>
     <use style="fill:#4c72b0;fill-opacity:0.8;stroke:#4c72b0;stroke-opacity:0.8;" x="261.211785" xlink:href="#m1876fc8190" y="260.65211"/>
     <use style="fill:#4c72b0;fill-opacity:0.8;stroke:#4c72b0;stroke-opacity:0.8;" x="320.528233" xlink:href="#m1876fc8190" y="343.077762"/>
     <use style="fill:#4c72b0;fill-opacity:0.8;stroke:#4c72b0;stroke-opacity:0.8;" x="287.001545" xlink:href="#m1876fc8190" y="255.346739"/>
     <use style="fill:#4c72b0;fill-opacity:0.8;stroke:#4c72b0;stroke-opacity:0.8;" x="219.948168" xlink:href="#m1876fc8190" y="237.420036"/>
     <use style="fill:#4c72b0;fill-opacity:0.8;stroke:#4c72b0;stroke-opacity:0.8;" x="230.264073" xlink:href="#m1876fc8190" y="338.023176"/>
     <use style="fill:#4c72b0;fill-opacity:0.8;stroke:#4c72b0;stroke-opacity:0.8;" x="333.423113" xlink:href="#m1876fc8190" y="253.154545"/>
     <use style="fill:#4c72b0;fill-opacity:0.8;stroke:#4c72b0;stroke-opacity:0.8;" x="195.447896" xlink:href="#m1876fc8190" y="411.571954"/>
     <use style="fill:#4c72b0;fill-opacity:0.8;stroke:#4c72b0;stroke-opacity:0.8;" x="283.133081" xlink:href="#m1876fc8190" y="336.59198"/>
     <use style="fill:#4c72b0;fill-opacity:0.8;stroke:#4c72b0;stroke-opacity:0.8;" x="115.49964" xlink:href="#m1876fc8190" y="328.631762"/>
     <use style="fill:#4c72b0;fill-opacity:0.8;stroke:#4c72b0;stroke-opacity:0.8;" x="383.713145" xlink:href="#m1876fc8190" y="248.385332"/>
     <use style="fill:#4c72b0;fill-opacity:0.8;stroke:#4c72b0;stroke-opacity:0.8;" x="147.73684" xlink:href="#m1876fc8190" y="217.149802"/>
     <use style="fill:#4c72b0;fill-opacity:0.8;stroke:#4c72b0;stroke-opacity:0.8;" x="226.395609" xlink:href="#m1876fc8190" y="257.149787"/>
     <use style="fill:#4c72b0;fill-opacity:0.8;stroke:#4c72b0;stroke-opacity:0.8;" x="311.501817" xlink:href="#m1876fc8190" y="279.780845"/>
     <use style="fill:#4c72b0;fill-opacity:0.8;stroke:#4c72b0;stroke-opacity:0.8;" x="230.264073" xlink:href="#m1876fc8190" y="308.357205"/>
     <use style="fill:#4c72b0;fill-opacity:0.8;stroke:#4c72b0;stroke-opacity:0.8;" x="298.606937" xlink:href="#m1876fc8190" y="320.930976"/>
     <use style="fill:#4c72b0;fill-opacity:0.8;stroke:#4c72b0;stroke-opacity:0.8;" x="209.632264" xlink:href="#m1876fc8190" y="170.335421"/>
     <use style="fill:#4c72b0;fill-opacity:0.8;stroke:#4c72b0;stroke-opacity:0.8;" x="256.053833" xlink:href="#m1876fc8190" y="354.916478"/>
     <use style="fill:#4c72b0;fill-opacity:0.8;stroke:#4c72b0;stroke-opacity:0.8;" x="240.579977" xlink:href="#m1876fc8190" y="309.308453"/>
     <use style="fill:#4c72b0;fill-opacity:0.8;stroke:#4c72b0;stroke-opacity:0.8;" x="136.131448" xlink:href="#m1876fc8190" y="333.954428"/>
     <use style="fill:#4c72b0;fill-opacity:0.8;stroke:#4c72b0;stroke-opacity:0.8;" x="203.184824" xlink:href="#m1876fc8190" y="304.859206"/>
     <use style="fill:#4c72b0;fill-opacity:0.8;stroke:#4c72b0;stroke-opacity:0.8;" x="325.686185" xlink:href="#m1876fc8190" y="284.260359"/>
     <use style="fill:#4c72b0;fill-opacity:0.8;stroke:#4c72b0;stroke-opacity:0.8;" x="84.551928" xlink:href="#m1876fc8190" y="417.417806"/>
     <use style="fill:#4c72b0;fill-opacity:0.8;stroke:#4c72b0;stroke-opacity:0.8;" x="190.289944" xlink:href="#m1876fc8190" y="208.999335"/>
     <use style="fill:#4c72b0;fill-opacity:0.8;stroke:#4c72b0;stroke-opacity:0.8;" x="210.921752" xlink:href="#m1876fc8190" y="353.887401"/>
     <use style="fill:#4c72b0;fill-opacity:0.8;stroke:#4c72b0;stroke-opacity:0.8;" x="284.422569" xlink:href="#m1876fc8190" y="273.636647"/>
     <use style="fill:#4c72b0;fill-opacity:0.8;stroke:#4c72b0;stroke-opacity:0.8;" x="308.922841" xlink:href="#m1876fc8190" y="251.92657"/>
     <use style="fill:#4c72b0;fill-opacity:0.8;stroke:#4c72b0;stroke-opacity:0.8;" x="231.553561" xlink:href="#m1876fc8190" y="385.235351"/>
     <use style="fill:#4c72b0;fill-opacity:0.8;stroke:#4c72b0;stroke-opacity:0.8;" x="231.553561" xlink:href="#m1876fc8190" y="319.659762"/>
     <use style="fill:#4c72b0;fill-opacity:0.8;stroke:#4c72b0;stroke-opacity:0.8;" x="253.474857" xlink:href="#m1876fc8190" y="268.90635"/>
     <use style="fill:#4c72b0;fill-opacity:0.8;stroke:#4c72b0;stroke-opacity:0.8;" x="146.447352" xlink:href="#m1876fc8190" y="204.550088"/>
     <use style="fill:#4c72b0;fill-opacity:0.8;stroke:#4c72b0;stroke-opacity:0.8;" x="200.605848" xlink:href="#m1876fc8190" y="266.856842"/>
     <use style="fill:#4c72b0;fill-opacity:0.8;stroke:#4c72b0;stroke-opacity:0.8;" x="203.184824" xlink:href="#m1876fc8190" y="291.861697"/>
     <use style="fill:#4c72b0;fill-opacity:0.8;stroke:#4c72b0;stroke-opacity:0.8;" x="164.500184" xlink:href="#m1876fc8190" y="256.224482"/>
     <use style="fill:#4c72b0;fill-opacity:0.8;stroke:#4c72b0;stroke-opacity:0.8;" x="330.844137" xlink:href="#m1876fc8190" y="253.634493"/>
     <use style="fill:#4c72b0;fill-opacity:0.8;stroke:#4c72b0;stroke-opacity:0.8;" x="249.606393" xlink:href="#m1876fc8190" y="288.73555"/>
     <use style="fill:#4c72b0;fill-opacity:0.8;stroke:#4c72b0;stroke-opacity:0.8;" x="348.896969" xlink:href="#m1876fc8190" y="330.452105"/>
     <use style="fill:#4c72b0;fill-opacity:0.8;stroke:#4c72b0;stroke-opacity:0.8;" x="124.526056" xlink:href="#m1876fc8190" y="380.78178"/>
     <use style="fill:#4c72b0;fill-opacity:0.8;stroke:#4c72b0;stroke-opacity:0.8;" x="321.817721" xlink:href="#m1876fc8190" y="294.823538"/>
     <use style="fill:#4c72b0;fill-opacity:0.8;stroke:#4c72b0;stroke-opacity:0.8;" x="283.133081" xlink:href="#m1876fc8190" y="261.348251"/>
     <use style="fill:#4c72b0;fill-opacity:0.8;stroke:#4c72b0;stroke-opacity:0.8;" x="142.578888" xlink:href="#m1876fc8190" y="360.286706"/>
     <use style="fill:#4c72b0;fill-opacity:0.8;stroke:#4c72b0;stroke-opacity:0.8;" x="243.158953" xlink:href="#m1876fc8190" y="285.215932"/>
     <use style="fill:#4c72b0;fill-opacity:0.8;stroke:#4c72b0;stroke-opacity:0.8;" x="342.449529" xlink:href="#m1876fc8190" y="275.867756"/>
     <use style="fill:#4c72b0;fill-opacity:0.8;stroke:#4c72b0;stroke-opacity:0.8;" x="78.104488" xlink:href="#m1876fc8190" y="253.055096"/>
     <use style="fill:#4c72b0;fill-opacity:0.8;stroke:#4c72b0;stroke-opacity:0.8;" x="223.816632" xlink:href="#m1876fc8190" y="285.302409"/>
     <use style="fill:#4c72b0;fill-opacity:0.8;stroke:#4c72b0;stroke-opacity:0.8;" x="173.5266" xlink:href="#m1876fc8190" y="311.492"/>
     <use style="fill:#4c72b0;fill-opacity:0.8;stroke:#4c72b0;stroke-opacity:0.8;" x="185.131992" xlink:href="#m1876fc8190" y="222.117912"/>
     <use style="fill:#4c72b0;fill-opacity:0.8;stroke:#4c72b0;stroke-opacity:0.8;" x="190.289944" xlink:href="#m1876fc8190" y="401.722211"/>
     <use style="fill:#4c72b0;fill-opacity:0.8;stroke:#4c72b0;stroke-opacity:0.8;" x="305.054377" xlink:href="#m1876fc8190" y="368.117208"/>
     <use style="fill:#4c72b0;fill-opacity:0.8;stroke:#4c72b0;stroke-opacity:0.8;" x="116.789128" xlink:href="#m1876fc8190" y="271.327708"/>
     <use style="fill:#4c72b0;fill-opacity:0.8;stroke:#4c72b0;stroke-opacity:0.8;" x="130.973496" xlink:href="#m1876fc8190" y="335.601817"/>
     <use style="fill:#4c72b0;fill-opacity:0.8;stroke:#4c72b0;stroke-opacity:0.8;" x="200.605848" xlink:href="#m1876fc8190" y="305.317535"/>
     <use style="fill:#4c72b0;fill-opacity:0.8;stroke:#4c72b0;stroke-opacity:0.8;" x="275.396153" xlink:href="#m1876fc8190" y="303.324237"/>
     <use style="fill:#4c72b0;fill-opacity:0.8;stroke:#4c72b0;stroke-opacity:0.8;" x="145.157864" xlink:href="#m1876fc8190" y="337.638353"/>
     <use style="fill:#4c72b0;fill-opacity:0.8;stroke:#4c72b0;stroke-opacity:0.8;" x="316.659769" xlink:href="#m1876fc8190" y="261.97521"/>
     <use style="fill:#4c72b0;fill-opacity:0.8;stroke:#4c72b0;stroke-opacity:0.8;" x="277.975129" xlink:href="#m1876fc8190" y="182.55896"/>
     <use style="fill:#4c72b0;fill-opacity:0.8;stroke:#4c72b0;stroke-opacity:0.8;" x="127.105032" xlink:href="#m1876fc8190" y="305.520756"/>
     <use style="fill:#4c72b0;fill-opacity:0.8;stroke:#4c72b0;stroke-opacity:0.8;" x="160.63172" xlink:href="#m1876fc8190" y="258.148598"/>
     <use style="fill:#4c72b0;fill-opacity:0.8;stroke:#4c72b0;stroke-opacity:0.8;" x="170.947624" xlink:href="#m1876fc8190" y="300.764515"/>
     <use style="fill:#4c72b0;fill-opacity:0.8;stroke:#4c72b0;stroke-opacity:0.8;" x="271.527689" xlink:href="#m1876fc8190" y="239.274969"/>
     <use style="fill:#4c72b0;fill-opacity:0.8;stroke:#4c72b0;stroke-opacity:0.8;" x="306.343865" xlink:href="#m1876fc8190" y="260.885598"/>
     <use style="fill:#4c72b0;fill-opacity:0.8;stroke:#4c72b0;stroke-opacity:0.8;" x="293.448985" xlink:href="#m1876fc8190" y="228.845831"/>
     <use style="fill:#4c72b0;fill-opacity:0.8;stroke:#4c72b0;stroke-opacity:0.8;" x="253.474857" xlink:href="#m1876fc8190" y="254.836525"/>
     <use style="fill:#4c72b0;fill-opacity:0.8;stroke:#4c72b0;stroke-opacity:0.8;" x="310.212329" xlink:href="#m1876fc8190" y="235.314318"/>
     <use style="fill:#4c72b0;fill-opacity:0.8;stroke:#4c72b0;stroke-opacity:0.8;" x="120.657592" xlink:href="#m1876fc8190" y="276.512011"/>
     <use style="fill:#4c72b0;fill-opacity:0.8;stroke:#4c72b0;stroke-opacity:0.8;" x="225.106121" xlink:href="#m1876fc8190" y="300.146204"/>
     <use style="fill:#4c72b0;fill-opacity:0.8;stroke:#4c72b0;stroke-opacity:0.8;" x="268.948713" xlink:href="#m1876fc8190" y="190.069497"/>
     <use style="fill:#4c72b0;fill-opacity:0.8;stroke:#4c72b0;stroke-opacity:0.8;" x="235.422025" xlink:href="#m1876fc8190" y="240.896415"/>
     <use style="fill:#4c72b0;fill-opacity:0.8;stroke:#4c72b0;stroke-opacity:0.8;" x="248.316905" xlink:href="#m1876fc8190" y="250.041369"/>
     <use style="fill:#4c72b0;fill-opacity:0.8;stroke:#4c72b0;stroke-opacity:0.8;" x="245.737929" xlink:href="#m1876fc8190" y="248.355065"/>
     <use style="fill:#4c72b0;fill-opacity:0.8;stroke:#4c72b0;stroke-opacity:0.8;" x="414.660857" xlink:href="#m1876fc8190" y="261.590386"/>
     <use style="fill:#4c72b0;fill-opacity:0.8;stroke:#4c72b0;stroke-opacity:0.8;" x="201.895336" xlink:href="#m1876fc8190" y="401.674649"/>
     <use style="fill:#4c72b0;fill-opacity:0.8;stroke:#4c72b0;stroke-opacity:0.8;" x="234.132537" xlink:href="#m1876fc8190" y="247.135738"/>
     <use style="fill:#4c72b0;fill-opacity:0.8;stroke:#4c72b0;stroke-opacity:0.8;" x="226.395609" xlink:href="#m1876fc8190" y="314.146847"/>
     <use style="fill:#4c72b0;fill-opacity:0.8;stroke:#4c72b0;stroke-opacity:0.8;" x="235.422025" xlink:href="#m1876fc8190" y="251.390412"/>
     <use style="fill:#4c72b0;fill-opacity:0.8;stroke:#4c72b0;stroke-opacity:0.8;" x="137.420936" xlink:href="#m1876fc8190" y="419.406779"/>
     <use style="fill:#4c72b0;fill-opacity:0.8;stroke:#4c72b0;stroke-opacity:0.8;" x="302.475401" xlink:href="#m1876fc8190" y="315.949895"/>
     <use style="fill:#4c72b0;fill-opacity:0.8;stroke:#4c72b0;stroke-opacity:0.8;" x="179.97404" xlink:href="#m1876fc8190" y="287.10978"/>
     <use style="fill:#4c72b0;fill-opacity:0.8;stroke:#4c72b0;stroke-opacity:0.8;" x="158.052744" xlink:href="#m1876fc8190" y="353.913344"/>
     <use style="fill:#4c72b0;fill-opacity:0.8;stroke:#4c72b0;stroke-opacity:0.8;" x="290.870009" xlink:href="#m1876fc8190" y="242.474622"/>
     <use style="fill:#4c72b0;fill-opacity:0.8;stroke:#4c72b0;stroke-opacity:0.8;" x="265.080249" xlink:href="#m1876fc8190" y="354.544627"/>
     <use style="fill:#4c72b0;fill-opacity:0.8;stroke:#4c72b0;stroke-opacity:0.8;" x="254.764345" xlink:href="#m1876fc8190" y="263.8042"/>
     <use style="fill:#4c72b0;fill-opacity:0.8;stroke:#4c72b0;stroke-opacity:0.8;" x="228.974585" xlink:href="#m1876fc8190" y="339.320332"/>
     <use style="fill:#4c72b0;fill-opacity:0.8;stroke:#4c72b0;stroke-opacity:0.8;" x="177.395064" xlink:href="#m1876fc8190" y="192.668134"/>
     <use style="fill:#4c72b0;fill-opacity:0.8;stroke:#4c72b0;stroke-opacity:0.8;" x="226.395609" xlink:href="#m1876fc8190" y="255.575904"/>
     <use style="fill:#4c72b0;fill-opacity:0.8;stroke:#4c72b0;stroke-opacity:0.8;" x="316.659769" xlink:href="#m1876fc8190" y="326.824391"/>
     <use style="fill:#4c72b0;fill-opacity:0.8;stroke:#4c72b0;stroke-opacity:0.8;" x="250.895881" xlink:href="#m1876fc8190" y="296.341211"/>
     <use style="fill:#4c72b0;fill-opacity:0.8;stroke:#4c72b0;stroke-opacity:0.8;" x="390.160585" xlink:href="#m1876fc8190" y="294.075511"/>
     <use style="fill:#4c72b0;fill-opacity:0.8;stroke:#4c72b0;stroke-opacity:0.8;" x="265.080249" xlink:href="#m1876fc8190" y="301.391474"/>
     <use style="fill:#4c72b0;fill-opacity:0.8;stroke:#4c72b0;stroke-opacity:0.8;" x="173.5266" xlink:href="#m1876fc8190" y="215.662396"/>
     <use style="fill:#4c72b0;fill-opacity:0.8;stroke:#4c72b0;stroke-opacity:0.8;" x="256.053833" xlink:href="#m1876fc8190" y="265.382407"/>
     <use style="fill:#4c72b0;fill-opacity:0.8;stroke:#4c72b0;stroke-opacity:0.8;" x="350.186457" xlink:href="#m1876fc8190" y="266.523905"/>
     <use style="fill:#4c72b0;fill-opacity:0.8;stroke:#4c72b0;stroke-opacity:0.8;" x="190.289944" xlink:href="#m1876fc8190" y="250.880197"/>
     <use style="fill:#4c72b0;fill-opacity:0.8;stroke:#4c72b0;stroke-opacity:0.8;" x="226.395609" xlink:href="#m1876fc8190" y="288.528005"/>
     <use style="fill:#4c72b0;fill-opacity:0.8;stroke:#4c72b0;stroke-opacity:0.8;" x="164.500184" xlink:href="#m1876fc8190" y="307.047077"/>
     <use style="fill:#4c72b0;fill-opacity:0.8;stroke:#4c72b0;stroke-opacity:0.8;" x="332.133625" xlink:href="#m1876fc8190" y="305.914227"/>
     <use style="fill:#4c72b0;fill-opacity:0.8;stroke:#4c72b0;stroke-opacity:0.8;" x="235.422025" xlink:href="#m1876fc8190" y="215.268925"/>
     <use style="fill:#4c72b0;fill-opacity:0.8;stroke:#4c72b0;stroke-opacity:0.8;" x="88.420392" xlink:href="#m1876fc8190" y="235.444034"/>
     <use style="fill:#4c72b0;fill-opacity:0.8;stroke:#4c72b0;stroke-opacity:0.8;" x="285.712057" xlink:href="#m1876fc8190" y="205.75212"/>
     <use style="fill:#4c72b0;fill-opacity:0.8;stroke:#4c72b0;stroke-opacity:0.8;" x="248.316905" xlink:href="#m1876fc8190" y="342.334059"/>
     <use style="fill:#4c72b0;fill-opacity:0.8;stroke:#4c72b0;stroke-opacity:0.8;" x="165.789672" xlink:href="#m1876fc8190" y="340.288876"/>
     <use style="fill:#4c72b0;fill-opacity:0.8;stroke:#4c72b0;stroke-opacity:0.8;" x="132.262984" xlink:href="#m1876fc8190" y="302.494057"/>
     <use style="fill:#4c72b0;fill-opacity:0.8;stroke:#4c72b0;stroke-opacity:0.8;" x="177.395064" xlink:href="#m1876fc8190" y="240.243513"/>
     <use style="fill:#4c72b0;fill-opacity:0.8;stroke:#4c72b0;stroke-opacity:0.8;" x="256.053833" xlink:href="#m1876fc8190" y="235.625636"/>
     <use style="fill:#4c72b0;fill-opacity:0.8;stroke:#4c72b0;stroke-opacity:0.8;" x="209.632264" xlink:href="#m1876fc8190" y="295.956388"/>
     <use style="fill:#4c72b0;fill-opacity:0.8;stroke:#4c72b0;stroke-opacity:0.8;" x="281.843593" xlink:href="#m1876fc8190" y="269.585195"/>
     <use style="fill:#4c72b0;fill-opacity:0.8;stroke:#4c72b0;stroke-opacity:0.8;" x="303.764889" xlink:href="#m1876fc8190" y="344.158726"/>
     <use style="fill:#4c72b0;fill-opacity:0.8;stroke:#4c72b0;stroke-opacity:0.8;" x="271.527689" xlink:href="#m1876fc8190" y="246.37474"/>
     <use style="fill:#4c72b0;fill-opacity:0.8;stroke:#4c72b0;stroke-opacity:0.8;" x="187.710968" xlink:href="#m1876fc8190" y="262.437862"/>
     <use style="fill:#4c72b0;fill-opacity:0.8;stroke:#4c72b0;stroke-opacity:0.8;" x="294.738473" xlink:href="#m1876fc8190" y="268.880406"/>
     <use style="fill:#4c72b0;fill-opacity:0.8;stroke:#4c72b0;stroke-opacity:0.8;" x="196.737384" xlink:href="#m1876fc8190" y="258.91392"/>
     <use style="fill:#4c72b0;fill-opacity:0.8;stroke:#4c72b0;stroke-opacity:0.8;" x="226.395609" xlink:href="#m1876fc8190" y="252.968619"/>
     <use style="fill:#4c72b0;fill-opacity:0.8;stroke:#4c72b0;stroke-opacity:0.8;" x="214.790216" xlink:href="#m1876fc8190" y="200.330005"/>
     <use style="fill:#4c72b0;fill-opacity:0.8;stroke:#4c72b0;stroke-opacity:0.8;" x="369.528777" xlink:href="#m1876fc8190" y="197.320602"/>
     <use style="fill:#4c72b0;fill-opacity:0.8;stroke:#4c72b0;stroke-opacity:0.8;" x="230.264073" xlink:href="#m1876fc8190" y="207.516253"/>
     <use style="fill:#4c72b0;fill-opacity:0.8;stroke:#4c72b0;stroke-opacity:0.8;" x="217.369192" xlink:href="#m1876fc8190" y="183.177271"/>
     <use style="fill:#4c72b0;fill-opacity:0.8;stroke:#4c72b0;stroke-opacity:0.8;" x="125.815544" xlink:href="#m1876fc8190" y="348.573383"/>
     <use style="fill:#4c72b0;fill-opacity:0.8;stroke:#4c72b0;stroke-opacity:0.8;" x="302.475401" xlink:href="#m1876fc8190" y="324.88298"/>
     <use style="fill:#4c72b0;fill-opacity:0.8;stroke:#4c72b0;stroke-opacity:0.8;" x="209.632264" xlink:href="#m1876fc8190" y="396.451432"/>
     <use style="fill:#4c72b0;fill-opacity:0.8;stroke:#4c72b0;stroke-opacity:0.8;" x="226.395609" xlink:href="#m1876fc8190" y="267.237341"/>
     <use style="fill:#4c72b0;fill-opacity:0.8;stroke:#4c72b0;stroke-opacity:0.8;" x="256.053833" xlink:href="#m1876fc8190" y="318.124794"/>
     <use style="fill:#4c72b0;fill-opacity:0.8;stroke:#4c72b0;stroke-opacity:0.8;" x="363.081337" xlink:href="#m1876fc8190" y="240.675899"/>
     <use style="fill:#4c72b0;fill-opacity:0.8;stroke:#4c72b0;stroke-opacity:0.8;" x="212.21124" xlink:href="#m1876fc8190" y="285.492658"/>
     <use style="fill:#4c72b0;fill-opacity:0.8;stroke:#4c72b0;stroke-opacity:0.8;" x="238.001001" xlink:href="#m1876fc8190" y="198.254555"/>
     <use style="fill:#4c72b0;fill-opacity:0.8;stroke:#4c72b0;stroke-opacity:0.8;" x="76.815" xlink:href="#m1876fc8190" y="329.319255"/>
     <use style="fill:#4c72b0;fill-opacity:0.8;stroke:#4c72b0;stroke-opacity:0.8;" x="299.896425" xlink:href="#m1876fc8190" y="263.52315"/>
     <use style="fill:#4c72b0;fill-opacity:0.8;stroke:#4c72b0;stroke-opacity:0.8;" x="190.289944" xlink:href="#m1876fc8190" y="329.116034"/>
     <use style="fill:#4c72b0;fill-opacity:0.8;stroke:#4c72b0;stroke-opacity:0.8;" x="302.475401" xlink:href="#m1876fc8190" y="296.297973"/>
     <use style="fill:#4c72b0;fill-opacity:0.8;stroke:#4c72b0;stroke-opacity:0.8;" x="225.106121" xlink:href="#m1876fc8190" y="296.55308"/>
     <use style="fill:#4c72b0;fill-opacity:0.8;stroke:#4c72b0;stroke-opacity:0.8;" x="238.001001" xlink:href="#m1876fc8190" y="349.394915"/>
     <use style="fill:#4c72b0;fill-opacity:0.8;stroke:#4c72b0;stroke-opacity:0.8;" x="292.159497" xlink:href="#m1876fc8190" y="271.734151"/>
     <use style="fill:#4c72b0;fill-opacity:0.8;stroke:#4c72b0;stroke-opacity:0.8;" x="292.159497" xlink:href="#m1876fc8190" y="106.342364"/>
     <use style="fill:#4c72b0;fill-opacity:0.8;stroke:#4c72b0;stroke-opacity:0.8;" x="232.843049" xlink:href="#m1876fc8190" y="267.730261"/>
     <use style="fill:#4c72b0;fill-opacity:0.8;stroke:#4c72b0;stroke-opacity:0.8;" x="306.343865" xlink:href="#m1876fc8190" y="262.277879"/>
     <use style="fill:#4c72b0;fill-opacity:0.8;stroke:#4c72b0;stroke-opacity:0.8;" x="172.237112" xlink:href="#m1876fc8190" y="299.830562"/>
     <use style="fill:#4c72b0;fill-opacity:0.8;stroke:#4c72b0;stroke-opacity:0.8;" x="189.000456" xlink:href="#m1876fc8190" y="344.080897"/>
     <use style="fill:#4c72b0;fill-opacity:0.8;stroke:#4c72b0;stroke-opacity:0.8;" x="160.63172" xlink:href="#m1876fc8190" y="335.87422"/>
     <use style="fill:#4c72b0;fill-opacity:0.8;stroke:#4c72b0;stroke-opacity:0.8;" x="195.447896" xlink:href="#m1876fc8190" y="317.121659"/>
     <use style="fill:#4c72b0;fill-opacity:0.8;stroke:#4c72b0;stroke-opacity:0.8;" x="208.342776" xlink:href="#m1876fc8190" y="203.71126"/>
     <use style="fill:#4c72b0;fill-opacity:0.8;stroke:#4c72b0;stroke-opacity:0.8;" x="294.738473" xlink:href="#m1876fc8190" y="305.179171"/>
     <use style="fill:#4c72b0;fill-opacity:0.8;stroke:#4c72b0;stroke-opacity:0.8;" x="238.001001" xlink:href="#m1876fc8190" y="274.345759"/>
     <use style="fill:#4c72b0;fill-opacity:0.8;stroke:#4c72b0;stroke-opacity:0.8;" x="121.94708" xlink:href="#m1876fc8190" y="322.967512"/>
     <use style="fill:#4c72b0;fill-opacity:0.8;stroke:#4c72b0;stroke-opacity:0.8;" x="119.368104" xlink:href="#m1876fc8190" y="317.830772"/>
     <use style="fill:#4c72b0;fill-opacity:0.8;stroke:#4c72b0;stroke-opacity:0.8;" x="195.447896" xlink:href="#m1876fc8190" y="267.194103"/>
     <use style="fill:#4c72b0;fill-opacity:0.8;stroke:#4c72b0;stroke-opacity:0.8;" x="299.896425" xlink:href="#m1876fc8190" y="320.91368"/>
     <use style="fill:#4c72b0;fill-opacity:0.8;stroke:#4c72b0;stroke-opacity:0.8;" x="205.7638" xlink:href="#m1876fc8190" y="309.905145"/>
     <use style="fill:#4c72b0;fill-opacity:0.8;stroke:#4c72b0;stroke-opacity:0.8;" x="207.053288" xlink:href="#m1876fc8190" y="264.387921"/>
     <use style="fill:#4c72b0;fill-opacity:0.8;stroke:#4c72b0;stroke-opacity:0.8;" x="241.869465" xlink:href="#m1876fc8190" y="259.601413"/>
     <use style="fill:#4c72b0;fill-opacity:0.8;stroke:#4c72b0;stroke-opacity:0.8;" x="115.49964" xlink:href="#m1876fc8190" y="392.010832"/>
     <use style="fill:#4c72b0;fill-opacity:0.8;stroke:#4c72b0;stroke-opacity:0.8;" x="174.816088" xlink:href="#m1876fc8190" y="340.87692"/>
     <use style="fill:#4c72b0;fill-opacity:0.8;stroke:#4c72b0;stroke-opacity:0.8;" x="250.895881" xlink:href="#m1876fc8190" y="304.037673"/>
     <use style="fill:#4c72b0;fill-opacity:0.8;stroke:#4c72b0;stroke-opacity:0.8;" x="201.895336" xlink:href="#m1876fc8190" y="347.86427"/>
     <use style="fill:#4c72b0;fill-opacity:0.8;stroke:#4c72b0;stroke-opacity:0.8;" x="168.368648" xlink:href="#m1876fc8190" y="358.228551"/>
     <use style="fill:#4c72b0;fill-opacity:0.8;stroke:#4c72b0;stroke-opacity:0.8;" x="160.63172" xlink:href="#m1876fc8190" y="208.579921"/>
     <use style="fill:#4c72b0;fill-opacity:0.8;stroke:#4c72b0;stroke-opacity:0.8;" x="325.686185" xlink:href="#m1876fc8190" y="279.037142"/>
     <use style="fill:#4c72b0;fill-opacity:0.8;stroke:#4c72b0;stroke-opacity:0.8;" x="232.843049" xlink:href="#m1876fc8190" y="269.54628"/>
     <use style="fill:#4c72b0;fill-opacity:0.8;stroke:#4c72b0;stroke-opacity:0.8;" x="177.395064" xlink:href="#m1876fc8190" y="207.533548"/>
     <use style="fill:#4c72b0;fill-opacity:0.8;stroke:#4c72b0;stroke-opacity:0.8;" x="272.817177" xlink:href="#m1876fc8190" y="317.701056"/>
     <use style="fill:#4c72b0;fill-opacity:0.8;stroke:#4c72b0;stroke-opacity:0.8;" x="279.264617" xlink:href="#m1876fc8190" y="235.638607"/>
     <use style="fill:#4c72b0;fill-opacity:0.8;stroke:#4c72b0;stroke-opacity:0.8;" x="196.737384" xlink:href="#m1876fc8190" y="208.199422"/>
     <use style="fill:#4c72b0;fill-opacity:0.8;stroke:#4c72b0;stroke-opacity:0.8;" x="195.447896" xlink:href="#m1876fc8190" y="244.160926"/>
     <use style="fill:#4c72b0;fill-opacity:0.8;stroke:#4c72b0;stroke-opacity:0.8;" x="267.659225" xlink:href="#m1876fc8190" y="313.792291"/>
     <use style="fill:#4c72b0;fill-opacity:0.8;stroke:#4c72b0;stroke-opacity:0.8;" x="227.685097" xlink:href="#m1876fc8190" y="305.416983"/>
     <use style="fill:#4c72b0;fill-opacity:0.8;stroke:#4c72b0;stroke-opacity:0.8;" x="208.342776" xlink:href="#m1876fc8190" y="180.729969"/>
     <use style="fill:#4c72b0;fill-opacity:0.8;stroke:#4c72b0;stroke-opacity:0.8;" x="288.291033" xlink:href="#m1876fc8190" y="245.393225"/>
     <use style="fill:#4c72b0;fill-opacity:0.8;stroke:#4c72b0;stroke-opacity:0.8;" x="298.606937" xlink:href="#m1876fc8190" y="257.383275"/>
     <use style="fill:#4c72b0;fill-opacity:0.8;stroke:#4c72b0;stroke-opacity:0.8;" x="249.606393" xlink:href="#m1876fc8190" y="294.382505"/>
     <use style="fill:#4c72b0;fill-opacity:0.8;stroke:#4c72b0;stroke-opacity:0.8;" x="190.289944" xlink:href="#m1876fc8190" y="334.036581"/>
     <use style="fill:#4c72b0;fill-opacity:0.8;stroke:#4c72b0;stroke-opacity:0.8;" x="190.289944" xlink:href="#m1876fc8190" y="308.179927"/>
     <use style="fill:#4c72b0;fill-opacity:0.8;stroke:#4c72b0;stroke-opacity:0.8;" x="301.185913" xlink:href="#m1876fc8190" y="220.786164"/>
     <use style="fill:#4c72b0;fill-opacity:0.8;stroke:#4c72b0;stroke-opacity:0.8;" x="222.527144" xlink:href="#m1876fc8190" y="274.376026"/>
     <use style="fill:#4c72b0;fill-opacity:0.8;stroke:#4c72b0;stroke-opacity:0.8;" x="276.685641" xlink:href="#m1876fc8190" y="333.491775"/>
     <use style="fill:#4c72b0;fill-opacity:0.8;stroke:#4c72b0;stroke-opacity:0.8;" x="236.711513" xlink:href="#m1876fc8190" y="285.319704"/>
     <use style="fill:#4c72b0;fill-opacity:0.8;stroke:#4c72b0;stroke-opacity:0.8;" x="208.342776" xlink:href="#m1876fc8190" y="309.299805"/>
     <use style="fill:#4c72b0;fill-opacity:0.8;stroke:#4c72b0;stroke-opacity:0.8;" x="192.86892" xlink:href="#m1876fc8190" y="282.99347"/>
     <use style="fill:#4c72b0;fill-opacity:0.8;stroke:#4c72b0;stroke-opacity:0.8;" x="341.160041" xlink:href="#m1876fc8190" y="356.377941"/>
     <use style="fill:#4c72b0;fill-opacity:0.8;stroke:#4c72b0;stroke-opacity:0.8;" x="319.238745" xlink:href="#m1876fc8190" y="291.94385"/>
     <use style="fill:#4c72b0;fill-opacity:0.8;stroke:#4c72b0;stroke-opacity:0.8;" x="276.685641" xlink:href="#m1876fc8190" y="286.188799"/>
     <use style="fill:#4c72b0;fill-opacity:0.8;stroke:#4c72b0;stroke-opacity:0.8;" x="187.710968" xlink:href="#m1876fc8190" y="273.122108"/>
     <use style="fill:#4c72b0;fill-opacity:0.8;stroke:#4c72b0;stroke-opacity:0.8;" x="355.344409" xlink:href="#m1876fc8190" y="254.598712"/>
     <use style="fill:#4c72b0;fill-opacity:0.8;stroke:#4c72b0;stroke-opacity:0.8;" x="222.527144" xlink:href="#m1876fc8190" y="239.923548"/>
     <use style="fill:#4c72b0;fill-opacity:0.8;stroke:#4c72b0;stroke-opacity:0.8;" x="261.211785" xlink:href="#m1876fc8190" y="230.026243"/>
     <use style="fill:#4c72b0;fill-opacity:0.8;stroke:#4c72b0;stroke-opacity:0.8;" x="196.737384" xlink:href="#m1876fc8190" y="244.813828"/>
     <use style="fill:#4c72b0;fill-opacity:0.8;stroke:#4c72b0;stroke-opacity:0.8;" x="330.844137" xlink:href="#m1876fc8190" y="316.719541"/>
     <use style="fill:#4c72b0;fill-opacity:0.8;stroke:#4c72b0;stroke-opacity:0.8;" x="139.999912" xlink:href="#m1876fc8190" y="355.037546"/>
    </g>
   </g>
   <g id="PolyCollection_1">
    <defs>
     <path d="M 76.815 -217.836812 
L 76.815 -177.345406 
L 80.227584 -178.227036 
L 83.640169 -179.081668 
L 87.052753 -179.935591 
L 90.465338 -180.787193 
L 93.877922 -181.601843 
L 97.290506 -182.375289 
L 100.703091 -183.258849 
L 104.115675 -184.15268 
L 107.52826 -185.01256 
L 110.940844 -185.802121 
L 114.353429 -186.661196 
L 117.766013 -187.476871 
L 121.178597 -188.29192 
L 124.591182 -189.198069 
L 128.003766 -190.066602 
L 131.416351 -190.85961 
L 134.828935 -191.650481 
L 138.241519 -192.441387 
L 141.654104 -193.23489 
L 145.066688 -194.12202 
L 148.479273 -194.973547 
L 151.891857 -195.863258 
L 155.304442 -196.711042 
L 158.717026 -197.489823 
L 162.12961 -198.248809 
L 165.542195 -198.99789 
L 168.954779 -199.759846 
L 172.367364 -200.623321 
L 175.779948 -201.402794 
L 179.192532 -202.145231 
L 182.605117 -202.887668 
L 186.017701 -203.573205 
L 189.430286 -204.335387 
L 192.84287 -205.115122 
L 196.255455 -205.860833 
L 199.668039 -206.609517 
L 203.080623 -207.324598 
L 206.493208 -208.054169 
L 209.905792 -208.814458 
L 213.318377 -209.525297 
L 216.730961 -210.136237 
L 220.143545 -210.796397 
L 223.55613 -211.380069 
L 226.968714 -212.129592 
L 230.381299 -212.741341 
L 233.793883 -213.38504 
L 237.206468 -213.980135 
L 240.619052 -214.524612 
L 244.031636 -215.197917 
L 247.444221 -215.675081 
L 250.856805 -216.196828 
L 254.26939 -216.631204 
L 257.681974 -217.068092 
L 261.094558 -217.569154 
L 264.507143 -217.935726 
L 267.919727 -218.377939 
L 271.332312 -218.801777 
L 274.744896 -219.284636 
L 278.157481 -219.668785 
L 281.570065 -220.102213 
L 284.982649 -220.53388 
L 288.395234 -220.879248 
L 291.807818 -221.05851 
L 295.220403 -221.285833 
L 298.632987 -221.469781 
L 302.045571 -221.780254 
L 305.458156 -222.041545 
L 308.87074 -222.16798 
L 312.283325 -222.345372 
L 315.695909 -222.683482 
L 319.108494 -222.891719 
L 322.521078 -223.0883 
L 325.933662 -223.315415 
L 329.346247 -223.528773 
L 332.758831 -223.755863 
L 336.171416 -223.953278 
L 339.584 -224.163451 
L 342.996584 -224.377013 
L 346.409169 -224.600716 
L 349.821753 -224.864641 
L 353.234338 -225.029363 
L 356.646922 -225.225703 
L 360.059506 -225.43625 
L 363.472091 -225.640381 
L 366.884675 -225.833351 
L 370.29726 -226.042727 
L 373.709844 -226.278702 
L 377.122429 -226.414652 
L 380.535013 -226.574648 
L 383.947597 -226.720931 
L 387.360182 -226.867213 
L 390.772766 -227.013496 
L 394.185351 -227.159778 
L 397.597935 -227.306061 
L 401.010519 -227.452343 
L 404.423104 -227.598626 
L 407.835688 -227.746033 
L 411.248273 -227.893995 
L 414.660857 -228.041957 
L 414.660857 -266.315158 
L 414.660857 -266.315158 
L 411.248273 -265.419605 
L 407.835688 -264.524051 
L 404.423104 -263.628497 
L 401.010519 -262.753346 
L 397.597935 -261.911905 
L 394.185351 -261.122925 
L 390.772766 -260.245365 
L 387.360182 -259.411901 
L 383.947597 -258.583342 
L 380.535013 -257.78018 
L 377.122429 -256.996536 
L 373.709844 -256.151882 
L 370.29726 -255.410582 
L 366.884675 -254.656516 
L 363.472091 -253.748196 
L 360.059506 -252.946967 
L 356.646922 -252.145739 
L 353.234338 -251.34451 
L 349.821753 -250.543282 
L 346.409169 -249.742053 
L 342.996584 -248.940824 
L 339.584 -248.176325 
L 336.171416 -247.5028 
L 332.758831 -246.70002 
L 329.346247 -245.853862 
L 325.933662 -244.984497 
L 322.521078 -244.321722 
L 319.108494 -243.662011 
L 315.695909 -242.928455 
L 312.283325 -242.022305 
L 308.87074 -241.274071 
L 305.458156 -240.63882 
L 302.045571 -239.988166 
L 298.632987 -239.181452 
L 295.220403 -238.332788 
L 291.807818 -237.638465 
L 288.395234 -237.031617 
L 284.982649 -236.618458 
L 281.570065 -236.029484 
L 278.157481 -235.361834 
L 274.744896 -234.546013 
L 271.332312 -233.899347 
L 267.919727 -233.321479 
L 264.507143 -232.697954 
L 261.094558 -232.080732 
L 257.681974 -231.59394 
L 254.26939 -231.105897 
L 250.856805 -230.532317 
L 247.444221 -229.936503 
L 244.031636 -229.415898 
L 240.619052 -228.904331 
L 237.206468 -228.581186 
L 233.793883 -228.105698 
L 230.381299 -227.780652 
L 226.968714 -227.282021 
L 223.55613 -226.837843 
L 220.143545 -226.333535 
L 216.730961 -225.97105 
L 213.318377 -225.645386 
L 209.905792 -225.361444 
L 206.493208 -225.315997 
L 203.080623 -224.984061 
L 199.668039 -224.371558 
L 196.255455 -224.124024 
L 192.84287 -224.002727 
L 189.430286 -223.646777 
L 186.017701 -223.513359 
L 182.605117 -223.379941 
L 179.192532 -223.249158 
L 175.779948 -222.917983 
L 172.367364 -222.632229 
L 168.954779 -222.473788 
L 165.542195 -222.255502 
L 162.12961 -221.989963 
L 158.717026 -221.81128 
L 155.304442 -221.655857 
L 151.891857 -221.490924 
L 148.479273 -221.34131 
L 145.066688 -221.19788 
L 141.654104 -221.051448 
L 138.241519 -220.826642 
L 134.828935 -220.660973 
L 131.416351 -220.524305 
L 128.003766 -220.350384 
L 124.591182 -220.163785 
L 121.178597 -219.9983 
L 117.766013 -219.832632 
L 114.353429 -219.665908 
L 110.940844 -219.496951 
L 107.52826 -219.304317 
L 104.115675 -219.16269 
L 100.703091 -218.981418 
L 97.290506 -218.832219 
L 93.877922 -218.668637 
L 90.465338 -218.498997 
L 87.052753 -218.252849 
L 83.640169 -218.095059 
L 80.227584 -218.000058 
L 76.815 -217.836812 
z
" id="m7e8b8a651a" style="stroke:#ffffff;stroke-opacity:0.15;stroke-width:1.5;"/>
    </defs>
    <g clip-path="url(#p6da2d885a1)">
     <use style="fill:#4c72b0;fill-opacity:0.15;stroke:#ffffff;stroke-opacity:0.15;stroke-width:1.5;" x="0" xlink:href="#m7e8b8a651a" y="504"/>
    </g>
   </g>
   <g id="line2d_13">
    <path clip-path="url(#p6da2d885a1)" d="M 76.815 307.014175 
L 80.227584 306.503382 
L 83.640169 305.992589 
L 87.052753 305.481795 
L 90.465338 304.971002 
L 93.877922 304.460209 
L 97.290506 303.949415 
L 100.703091 303.438622 
L 104.115675 302.927829 
L 107.52826 302.417035 
L 110.940844 301.906242 
L 114.353429 301.395449 
L 117.766013 300.884656 
L 121.178597 300.373862 
L 124.591182 299.863069 
L 128.003766 299.352276 
L 131.416351 298.841482 
L 134.828935 298.330689 
L 138.241519 297.819896 
L 141.654104 297.309103 
L 145.066688 296.798309 
L 148.479273 296.287516 
L 151.891857 295.776723 
L 155.304442 295.265929 
L 158.717026 294.755136 
L 162.12961 294.244343 
L 165.542195 293.73355 
L 168.954779 293.222756 
L 172.367364 292.711963 
L 175.779948 292.20117 
L 179.192532 291.690376 
L 182.605117 291.179583 
L 186.017701 290.66879 
L 189.430286 290.157997 
L 192.84287 289.647203 
L 196.255455 289.13641 
L 199.668039 288.625617 
L 203.080623 288.114823 
L 206.493208 287.60403 
L 209.905792 287.093237 
L 213.318377 286.582443 
L 216.730961 286.07165 
L 220.143545 285.560857 
L 223.55613 285.050064 
L 226.968714 284.53927 
L 230.381299 284.028477 
L 233.793883 283.517684 
L 237.206468 283.00689 
L 240.619052 282.496097 
L 244.031636 281.985304 
L 247.444221 281.474511 
L 250.856805 280.963717 
L 254.26939 280.452924 
L 257.681974 279.942131 
L 261.094558 279.431337 
L 264.507143 278.920544 
L 267.919727 278.409751 
L 271.332312 277.898958 
L 274.744896 277.388164 
L 278.157481 276.877371 
L 281.570065 276.366578 
L 284.982649 275.855784 
L 288.395234 275.344991 
L 291.807818 274.834198 
L 295.220403 274.323405 
L 298.632987 273.812611 
L 302.045571 273.301818 
L 305.458156 272.791025 
L 308.87074 272.280231 
L 312.283325 271.769438 
L 315.695909 271.258645 
L 319.108494 270.747851 
L 322.521078 270.237058 
L 325.933662 269.726265 
L 329.346247 269.215472 
L 332.758831 268.704678 
L 336.171416 268.193885 
L 339.584 267.683092 
L 342.996584 267.172298 
L 346.409169 266.661505 
L 349.821753 266.150712 
L 353.234338 265.639919 
L 356.646922 265.129125 
L 360.059506 264.618332 
L 363.472091 264.107539 
L 366.884675 263.596745 
L 370.29726 263.085952 
L 373.709844 262.575159 
L 377.122429 262.064366 
L 380.535013 261.553572 
L 383.947597 261.042779 
L 387.360182 260.531986 
L 390.772766 260.021192 
L 394.185351 259.510399 
L 397.597935 258.999606 
L 401.010519 258.488813 
L 404.423104 257.978019 
L 407.835688 257.467226 
L 411.248273 256.956433 
L 414.660857 256.445639 
" style="fill:none;stroke:#4c72b0;stroke-linecap:round;stroke-width:3.375;"/>
   </g>
   <g id="line2d_14">
    <defs>
     <path d="M 0 4.5 
C 1.193414 4.5 2.338109 4.025852 3.181981 3.181981 
C 4.025852 2.338109 4.5 1.193414 4.5 0 
C 4.5 -1.193414 4.025852 -2.338109 3.181981 -3.181981 
C 2.338109 -4.025852 1.193414 -4.5 0 -4.5 
C -1.193414 -4.5 -2.338109 -4.025852 -3.181981 -3.181981 
C -4.025852 -2.338109 -4.5 -1.193414 -4.5 0 
C -4.5 1.193414 -4.025852 2.338109 -3.181981 3.181981 
C -2.338109 4.025852 -1.193414 4.5 0 4.5 
z
" id="mb4450a970a" style="stroke:#c44e52;"/>
    </defs>
    <g clip-path="url(#p6da2d885a1)">
     <use style="fill:#c44e52;stroke:#c44e52;" x="292.159497" xlink:href="#mb4450a970a" y="106.342364"/>
    </g>
   </g>
   <g id="patch_3">
    <path d="M 76.815 435.06 
L 76.815 90.689143 
" style="fill:none;stroke:#262626;stroke-linecap:square;stroke-linejoin:miter;stroke-width:1.875;"/>
   </g>
   <g id="patch_4">
    <path d="M 76.815 435.06 
L 414.660857 435.06 
" style="fill:none;stroke:#262626;stroke-linecap:square;stroke-linejoin:miter;stroke-width:1.875;"/>
   </g>
  </g>
  <g id="axes_2">
   <g id="patch_5">
    <path d="M 76.815 78.814286 
L 414.660857 78.814286 
L 414.660857 19.44 
L 76.815 19.44 
z
" style="fill:#ffffff;"/>
   </g>
   <g id="matplotlib.axis_3">
    <g id="xtick_5"/>
    <g id="xtick_6"/>
    <g id="xtick_7"/>
    <g id="xtick_8"/>
   </g>
   <g id="matplotlib.axis_4">
    <g id="ytick_9"/>
    <g id="ytick_10"/>
   </g>
   <g id="patch_6">
    <path clip-path="url(#pa26b0536f6)" d="M 76.815 78.814286 
L 107.52826 78.814286 
L 107.52826 72.351778 
L 76.815 72.351778 
z
" style="fill:#4c72b0;fill-opacity:0.5;stroke:#ffffff;stroke-linejoin:miter;stroke-width:1.5;"/>
   </g>
   <g id="patch_7">
    <path clip-path="url(#pa26b0536f6)" d="M 107.52826 78.814286 
L 138.241519 78.814286 
L 138.241519 57.811137 
L 107.52826 57.811137 
z
" style="fill:#4c72b0;fill-opacity:0.5;stroke:#ffffff;stroke-linejoin:miter;stroke-width:1.5;"/>
   </g>
   <g id="patch_8">
    <path clip-path="url(#pa26b0536f6)" d="M 138.241519 78.814286 
L 168.954779 78.814286 
L 168.954779 56.19551 
L 138.241519 56.19551 
z
" style="fill:#4c72b0;fill-opacity:0.5;stroke:#ffffff;stroke-linejoin:miter;stroke-width:1.5;"/>
   </g>
   <g id="patch_9">
    <path clip-path="url(#pa26b0536f6)" d="M 168.954779 78.814286 
L 199.668039 78.814286 
L 199.668039 31.961108 
L 168.954779 31.961108 
z
" style="fill:#4c72b0;fill-opacity:0.5;stroke:#ffffff;stroke-linejoin:miter;stroke-width:1.5;"/>
   </g>
   <g id="patch_10">
    <path clip-path="url(#pa26b0536f6)" d="M 199.668039 78.814286 
L 230.381299 78.814286 
L 230.381299 22.267347 
L 199.668039 22.267347 
z
" style="fill:#4c72b0;fill-opacity:0.5;stroke:#ffffff;stroke-linejoin:miter;stroke-width:1.5;"/>
   </g>
   <g id="patch_11">
    <path clip-path="url(#pa26b0536f6)" d="M 230.381299 78.814286 
L 261.094558 78.814286 
L 261.094558 27.114227 
L 230.381299 27.114227 
z
" style="fill:#4c72b0;fill-opacity:0.5;stroke:#ffffff;stroke-linejoin:miter;stroke-width:1.5;"/>
   </g>
   <g id="patch_12">
    <path clip-path="url(#pa26b0536f6)" d="M 261.094558 78.814286 
L 291.807818 78.814286 
L 291.807818 43.270496 
L 261.094558 43.270496 
z
" style="fill:#4c72b0;fill-opacity:0.5;stroke:#ffffff;stroke-linejoin:miter;stroke-width:1.5;"/>
   </g>
   <g id="patch_13">
    <path clip-path="url(#pa26b0536f6)" d="M 291.807818 78.814286 
L 322.521078 78.814286 
L 322.521078 35.192362 
L 291.807818 35.192362 
z
" style="fill:#4c72b0;fill-opacity:0.5;stroke:#ffffff;stroke-linejoin:miter;stroke-width:1.5;"/>
   </g>
   <g id="patch_14">
    <path clip-path="url(#pa26b0536f6)" d="M 322.521078 78.814286 
L 353.234338 78.814286 
L 353.234338 62.658017 
L 322.521078 62.658017 
z
" style="fill:#4c72b0;fill-opacity:0.5;stroke:#ffffff;stroke-linejoin:miter;stroke-width:1.5;"/>
   </g>
   <g id="patch_15">
    <path clip-path="url(#pa26b0536f6)" d="M 353.234338 78.814286 
L 383.947597 78.814286 
L 383.947597 72.351778 
L 353.234338 72.351778 
z
" style="fill:#4c72b0;fill-opacity:0.5;stroke:#ffffff;stroke-linejoin:miter;stroke-width:1.5;"/>
   </g>
   <g id="patch_16">
    <path clip-path="url(#pa26b0536f6)" d="M 383.947597 78.814286 
L 414.660857 78.814286 
L 414.660857 75.583032 
L 383.947597 75.583032 
z
" style="fill:#4c72b0;fill-opacity:0.5;stroke:#ffffff;stroke-linejoin:miter;stroke-width:1.5;"/>
   </g>
   <g id="line2d_15">
    <path clip-path="url(#pa26b0536f6)" d="M 76.815 73.9876 
L 85.303589 72.488852 
L 92.094461 71.059497 
L 98.885332 69.377631 
L 105.676204 67.4523 
L 115.862511 64.283348 
L 131.141972 59.548129 
L 141.328279 56.387143 
L 146.421433 54.640431 
L 151.514587 52.689677 
L 156.60774 50.489386 
L 161.700894 48.030672 
L 166.794047 45.346998 
L 176.980355 39.624756 
L 183.771226 35.893375 
L 188.86438 33.318934 
L 193.957533 31.025764 
L 199.050687 29.061904 
L 202.446123 27.947051 
L 205.841559 26.990415 
L 209.236994 26.192648 
L 212.63243 25.554807 
L 216.027866 25.079552 
L 219.423302 24.77156 
L 222.818737 24.637045 
L 226.214173 24.682416 
L 229.609609 24.912326 
L 233.005045 25.327438 
L 236.40048 25.92237 
L 239.795916 26.684189 
L 244.88907 28.091538 
L 251.679941 30.294919 
L 261.866248 33.684349 
L 266.959402 35.172463 
L 272.052556 36.441266 
L 277.145709 37.497856 
L 285.634299 38.970119 
L 292.42517 40.177014 
L 297.518324 41.28026 
L 302.611477 42.655379 
L 307.704631 44.352516 
L 312.797785 46.376588 
L 317.890938 48.689932 
L 324.68181 52.09857 
L 341.658989 60.874721 
L 346.752142 63.238697 
L 351.845296 65.382266 
L 356.938449 67.284211 
L 362.031603 68.94153 
L 367.124757 70.365469 
L 372.21791 71.577117 
L 379.008782 72.908899 
L 385.799653 73.978321 
L 394.288243 75.040698 
L 404.47455 76.03859 
L 414.660857 76.83655 
L 414.660857 76.83655 
" style="fill:none;stroke:#4c72b0;stroke-linecap:round;stroke-width:2.25;"/>
   </g>
   <g id="patch_17">
    <path d="M 76.815 78.814286 
L 414.660857 78.814286 
" style="fill:none;stroke:#262626;stroke-linecap:square;stroke-linejoin:miter;stroke-width:1.875;"/>
   </g>
  </g>
  <g id="axes_3">
   <g id="patch_18">
    <path d="M 426.310714 435.06 
L 484.56 435.06 
L 484.56 90.689143 
L 426.310714 90.689143 
z
" style="fill:#ffffff;"/>
   </g>
   <g id="matplotlib.axis_5">
    <g id="xtick_9"/>
    <g id="xtick_10"/>
   </g>
   <g id="matplotlib.axis_6">
    <g id="ytick_11"/>
    <g id="ytick_12"/>
    <g id="ytick_13"/>
    <g id="ytick_14"/>
    <g id="ytick_15"/>
    <g id="ytick_16"/>
    <g id="ytick_17"/>
    <g id="ytick_18"/>
   </g>
   <g id="patch_19">
    <path clip-path="url(#p7484aee20b)" d="M 426.310714 419.406779 
L 434.015646 419.406779 
L 434.015646 397.045035 
L 426.310714 397.045035 
z
" style="fill:#4c72b0;fill-opacity:0.5;stroke:#ffffff;stroke-linejoin:miter;stroke-width:1.5;"/>
   </g>
   <g id="patch_20">
    <path clip-path="url(#p7484aee20b)" d="M 426.310714 397.045035 
L 432.47466 397.045035 
L 432.47466 374.683291 
L 426.310714 374.683291 
z
" style="fill:#4c72b0;fill-opacity:0.5;stroke:#ffffff;stroke-linejoin:miter;stroke-width:1.5;"/>
   </g>
   <g id="patch_21">
    <path clip-path="url(#p7484aee20b)" d="M 426.310714 374.683291 
L 440.179592 374.683291 
L 440.179592 352.321547 
L 426.310714 352.321547 
z
" style="fill:#4c72b0;fill-opacity:0.5;stroke:#ffffff;stroke-linejoin:miter;stroke-width:1.5;"/>
   </g>
   <g id="patch_22">
    <path clip-path="url(#p7484aee20b)" d="M 426.310714 352.321547 
L 455.589456 352.321547 
L 455.589456 329.959803 
L 426.310714 329.959803 
z
" style="fill:#4c72b0;fill-opacity:0.5;stroke:#ffffff;stroke-linejoin:miter;stroke-width:1.5;"/>
   </g>
   <g id="patch_23">
    <path clip-path="url(#p7484aee20b)" d="M 426.310714 329.959803 
L 463.294388 329.959803 
L 463.294388 307.598059 
L 426.310714 307.598059 
z
" style="fill:#4c72b0;fill-opacity:0.5;stroke:#ffffff;stroke-linejoin:miter;stroke-width:1.5;"/>
   </g>
   <g id="patch_24">
    <path clip-path="url(#p7484aee20b)" d="M 426.310714 307.598059 
L 475.622279 307.598059 
L 475.622279 285.236315 
L 426.310714 285.236315 
z
" style="fill:#4c72b0;fill-opacity:0.5;stroke:#ffffff;stroke-linejoin:miter;stroke-width:1.5;"/>
   </g>
   <g id="patch_25">
    <path clip-path="url(#p7484aee20b)" d="M 426.310714 285.236315 
L 469.458333 285.236315 
L 469.458333 262.874571 
L 426.310714 262.874571 
z
" style="fill:#4c72b0;fill-opacity:0.5;stroke:#ffffff;stroke-linejoin:miter;stroke-width:1.5;"/>
   </g>
   <g id="patch_26">
    <path clip-path="url(#p7484aee20b)" d="M 426.310714 262.874571 
L 481.786224 262.874571 
L 481.786224 240.512827 
L 426.310714 240.512827 
z
" style="fill:#4c72b0;fill-opacity:0.5;stroke:#ffffff;stroke-linejoin:miter;stroke-width:1.5;"/>
   </g>
   <g id="patch_27">
    <path clip-path="url(#p7484aee20b)" d="M 426.310714 240.512827 
L 444.802551 240.512827 
L 444.802551 218.151083 
L 426.310714 218.151083 
z
" style="fill:#4c72b0;fill-opacity:0.5;stroke:#ffffff;stroke-linejoin:miter;stroke-width:1.5;"/>
   </g>
   <g id="patch_28">
    <path clip-path="url(#p7484aee20b)" d="M 426.310714 218.151083 
L 449.42551 218.151083 
L 449.42551 195.78934 
L 426.310714 195.78934 
z
" style="fill:#4c72b0;fill-opacity:0.5;stroke:#ffffff;stroke-linejoin:miter;stroke-width:1.5;"/>
   </g>
   <g id="patch_29">
    <path clip-path="url(#p7484aee20b)" d="M 426.310714 195.78934 
L 435.556633 195.78934 
L 435.556633 173.427596 
L 426.310714 173.427596 
z
" style="fill:#4c72b0;fill-opacity:0.5;stroke:#ffffff;stroke-linejoin:miter;stroke-width:1.5;"/>
   </g>
   <g id="patch_30">
    <path clip-path="url(#p7484aee20b)" d="M 426.310714 173.427596 
L 427.851701 173.427596 
L 427.851701 151.065852 
L 426.310714 151.065852 
z
" style="fill:#4c72b0;fill-opacity:0.5;stroke:#ffffff;stroke-linejoin:miter;stroke-width:1.5;"/>
   </g>
   <g id="patch_31">
    <path clip-path="url(#p7484aee20b)" d="M 426.310714 151.065852 
L 426.310714 151.065852 
L 426.310714 128.704108 
L 426.310714 128.704108 
z
" style="fill:#4c72b0;fill-opacity:0.5;stroke:#ffffff;stroke-linejoin:miter;stroke-width:1.5;"/>
   </g>
   <g id="patch_32">
    <path clip-path="url(#p7484aee20b)" d="M 426.310714 128.704108 
L 427.851701 128.704108 
L 427.851701 106.342364 
L 426.310714 106.342364 
z
" style="fill:#4c72b0;fill-opacity:0.5;stroke:#ffffff;stroke-linejoin:miter;stroke-width:1.5;"/>
   </g>
   <g id="line2d_16">
    <path clip-path="url(#p7484aee20b)" d="M 430.263347 419.406779 
L 431.281643 411.540839 
L 432.04397 403.674899 
L 433.335446 387.943019 
L 434.049284 383.223455 
L 434.715117 380.077079 
L 435.564942 376.930703 
L 436.615631 373.784327 
L 437.87183 370.637951 
L 439.324701 367.491575 
L 441.821378 362.772011 
L 445.547651 356.479259 
L 452.209949 345.466942 
L 455.683271 339.17419 
L 458.833583 332.881438 
L 461.70123 326.588686 
L 464.284976 320.295934 
L 465.979829 315.57637 
L 467.400714 310.856806 
L 468.511594 306.137242 
L 469.334429 301.417678 
L 470.152132 295.124926 
L 471.207232 287.258986 
L 472.051175 282.539422 
L 474.527218 269.953918 
L 474.831649 266.807541 
L 474.840766 263.661165 
L 474.484125 260.514789 
L 473.715172 257.368413 
L 472.517544 254.222037 
L 470.90772 251.075661 
L 468.933786 247.929285 
L 466.670624 244.782909 
L 462.942067 240.063345 
L 457.887167 233.770593 
L 455.5321 230.624217 
L 453.381713 227.477841 
L 451.471703 224.331465 
L 449.810668 221.185089 
L 448.382346 218.038713 
L 447.150583 214.892337 
L 445.562207 210.172773 
L 440.579232 194.440893 
L 437.657615 186.574953 
L 433.507745 175.562636 
L 431.922853 170.843072 
L 430.538569 166.123508 
L 429.38405 161.403944 
L 428.466821 156.68438 
L 427.776695 151.964816 
L 427.291001 147.245252 
L 426.909483 140.9525 
L 426.76143 134.659748 
L 426.812543 125.22062 
L 427.060182 106.342364 
L 427.060182 106.342364 
" style="fill:none;stroke:#4c72b0;stroke-linecap:round;stroke-width:2.25;"/>
   </g>
   <g id="patch_33">
    <path d="M 426.310714 435.06 
L 426.310714 90.689143 
" style="fill:none;stroke:#262626;stroke-linecap:square;stroke-linejoin:miter;stroke-width:1.875;"/>
   </g>
  </g>
 </g>
 <defs>
  <clipPath id="p6da2d885a1">
   <rect height="344.370857" width="337.845857" x="76.815" y="90.689143"/>
  </clipPath>
  <clipPath id="pa26b0536f6">
   <rect height="59.374286" width="337.845857" x="76.815" y="19.44"/>
  </clipPath>
  <clipPath id="p7484aee20b">
   <rect height="344.370857" width="58.249286" x="426.310714" y="90.689143"/>
  </clipPath>
 </defs>
</svg>
