<?xml version="1.0" encoding="utf-8" standalone="no"?>
<!DOCTYPE svg PUBLIC "-//W3C//DTD SVG 1.1//EN"
  "http://www.w3.org/Graphics/SVG/1.1/DTD/svg11.dtd">
<!-- Created with matplotlib (https://matplotlib.org/) -->
<svg height="504pt" version="1.1" viewBox="0 0 504 504" width="504pt" xmlns="http://www.w3.org/2000/svg" xmlns:xlink="http://www.w3.org/1999/xlink">
 <metadata>
  <rdf:RDF xmlns:cc="http://creativecommons.org/ns#" xmlns:dc="http://purl.org/dc/elements/1.1/" xmlns:rdf="http://www.w3.org/1999/02/22-rdf-syntax-ns#">
   <cc:Work>
    <dc:type rdf:resource="http://purl.org/dc/dcmitype/StillImage"/>
    <dc:date>2021-02-02T16:13:12.856483</dc:date>
    <dc:format>image/svg+xml</dc:format>
    <dc:creator>
     <cc:Agent>
      <dc:title>Matplotlib v3.3.3, https://matplotlib.org/</dc:title>
     </cc:Agent>
    </dc:creator>
   </cc:Work>
  </rdf:RDF>
 </metadata>
 <defs>
  <style type="text/css">*{stroke-linecap:butt;stroke-linejoin:round;}</style>
 </defs>
 <g id="figure_1">
  <g id="patch_1">
   <path d="M 0 504 
L 504 504 
L 504 0 
L 0 0 
z
" style="fill:#ffffff;"/>
  </g>
  <g id="axes_1">
   <g id="patch_2">
    <path d="M 76.815 435.06 
L 414.660857 435.06 
L 414.660857 90.689143 
L 76.815 90.689143 
z
" style="fill:#ffffff;"/>
   </g>
   <g id="matplotlib.axis_1">
    <g id="xtick_1">
     <g id="line2d_1">
      <defs>
       <path d="M 0 0 
L 0 9 
" id="m2c9c42ec15" style="stroke:#262626;stroke-width:1.875;"/>
      </defs>
      <g>
       <use style="fill:#262626;stroke:#262626;stroke-width:1.875;" x="92.362429" xlink:href="#m2c9c42ec15" y="435.06"/>
      </g>
     </g>
     <g id="text_1">
      <!-- −0.25 -->
      <g style="fill:#262626;" transform="translate(71.48864 459.370391)scale(0.165 -0.165)">
       <defs>
        <path d="M 52.828125 31.203125 
L 5.5625 31.203125 
L 5.5625 39.40625 
L 52.828125 39.40625 
z
" id="ArialMT-8722"/>
        <path d="M 4.15625 35.296875 
Q 4.15625 48 6.765625 55.734375 
Q 9.375 63.484375 14.515625 67.671875 
Q 19.671875 71.875 27.484375 71.875 
Q 33.25 71.875 37.59375 69.546875 
Q 41.9375 67.234375 44.765625 62.859375 
Q 47.609375 58.5 49.21875 52.21875 
Q 50.828125 45.953125 50.828125 35.296875 
Q 50.828125 22.703125 48.234375 14.96875 
Q 45.65625 7.234375 40.5 3 
Q 35.359375 -1.21875 27.484375 -1.21875 
Q 17.140625 -1.21875 11.234375 6.203125 
Q 4.15625 15.140625 4.15625 35.296875 
z
M 13.1875 35.296875 
Q 13.1875 17.671875 17.3125 11.828125 
Q 21.4375 6 27.484375 6 
Q 33.546875 6 37.671875 11.859375 
Q 41.796875 17.71875 41.796875 35.296875 
Q 41.796875 52.984375 37.671875 58.78125 
Q 33.546875 64.59375 27.390625 64.59375 
Q 21.34375 64.59375 17.71875 59.46875 
Q 13.1875 52.9375 13.1875 35.296875 
z
" id="ArialMT-48"/>
        <path d="M 9.078125 0 
L 9.078125 10.015625 
L 19.09375 10.015625 
L 19.09375 0 
z
" id="ArialMT-46"/>
        <path d="M 50.34375 8.453125 
L 50.34375 0 
L 3.03125 0 
Q 2.9375 3.171875 4.046875 6.109375 
Q 5.859375 10.9375 9.828125 15.625 
Q 13.8125 20.3125 21.34375 26.46875 
Q 33.015625 36.03125 37.109375 41.625 
Q 41.21875 47.21875 41.21875 52.203125 
Q 41.21875 57.421875 37.46875 61 
Q 33.734375 64.59375 27.734375 64.59375 
Q 21.390625 64.59375 17.578125 60.78125 
Q 13.765625 56.984375 13.71875 50.25 
L 4.6875 51.171875 
Q 5.609375 61.28125 11.65625 66.578125 
Q 17.71875 71.875 27.9375 71.875 
Q 38.234375 71.875 44.234375 66.15625 
Q 50.25 60.453125 50.25 52 
Q 50.25 47.703125 48.484375 43.546875 
Q 46.734375 39.40625 42.65625 34.8125 
Q 38.578125 30.21875 29.109375 22.21875 
Q 21.1875 15.578125 18.9375 13.203125 
Q 16.703125 10.84375 15.234375 8.453125 
z
" id="ArialMT-50"/>
        <path d="M 4.15625 18.75 
L 13.375 19.53125 
Q 14.40625 12.796875 18.140625 9.390625 
Q 21.875 6 27.15625 6 
Q 33.5 6 37.890625 10.78125 
Q 42.28125 15.578125 42.28125 23.484375 
Q 42.28125 31 38.0625 35.34375 
Q 33.84375 39.703125 27 39.703125 
Q 22.75 39.703125 19.328125 37.765625 
Q 15.921875 35.84375 13.96875 32.765625 
L 5.71875 33.84375 
L 12.640625 70.609375 
L 48.25 70.609375 
L 48.25 62.203125 
L 19.671875 62.203125 
L 15.828125 42.96875 
Q 22.265625 47.46875 29.34375 47.46875 
Q 38.71875 47.46875 45.15625 40.96875 
Q 51.609375 34.46875 51.609375 24.265625 
Q 51.609375 14.546875 45.953125 7.46875 
Q 39.0625 -1.21875 27.15625 -1.21875 
Q 17.390625 -1.21875 11.203125 4.25 
Q 5.03125 9.71875 4.15625 18.75 
z
" id="ArialMT-53"/>
       </defs>
       <use xlink:href="#ArialMT-8722"/>
       <use x="58.398438" xlink:href="#ArialMT-48"/>
       <use x="114.013672" xlink:href="#ArialMT-46"/>
       <use x="141.796875" xlink:href="#ArialMT-50"/>
       <use x="197.412109" xlink:href="#ArialMT-53"/>
      </g>
     </g>
    </g>
    <g id="xtick_2">
     <g id="line2d_2">
      <g>
       <use style="fill:#262626;stroke:#262626;stroke-width:1.875;" x="157.015833" xlink:href="#m2c9c42ec15" y="435.06"/>
      </g>
     </g>
     <g id="text_2">
      <!-- 0.00 -->
      <g style="fill:#262626;" transform="translate(140.960559 459.370391)scale(0.165 -0.165)">
       <use xlink:href="#ArialMT-48"/>
       <use x="55.615234" xlink:href="#ArialMT-46"/>
       <use x="83.398438" xlink:href="#ArialMT-48"/>
       <use x="139.013672" xlink:href="#ArialMT-48"/>
      </g>
     </g>
    </g>
    <g id="xtick_3">
     <g id="line2d_3">
      <g>
       <use style="fill:#262626;stroke:#262626;stroke-width:1.875;" x="221.669237" xlink:href="#m2c9c42ec15" y="435.06"/>
      </g>
     </g>
     <g id="text_3">
      <!-- 0.25 -->
      <g style="fill:#262626;" transform="translate(205.613963 459.370391)scale(0.165 -0.165)">
       <use xlink:href="#ArialMT-48"/>
       <use x="55.615234" xlink:href="#ArialMT-46"/>
       <use x="83.398438" xlink:href="#ArialMT-50"/>
       <use x="139.013672" xlink:href="#ArialMT-53"/>
      </g>
     </g>
    </g>
    <g id="xtick_4">
     <g id="line2d_4">
      <g>
       <use style="fill:#262626;stroke:#262626;stroke-width:1.875;" x="286.32264" xlink:href="#m2c9c42ec15" y="435.06"/>
      </g>
     </g>
     <g id="text_4">
      <!-- 0.50 -->
      <g style="fill:#262626;" transform="translate(270.267367 459.370391)scale(0.165 -0.165)">
       <use xlink:href="#ArialMT-48"/>
       <use x="55.615234" xlink:href="#ArialMT-46"/>
       <use x="83.398438" xlink:href="#ArialMT-53"/>
       <use x="139.013672" xlink:href="#ArialMT-48"/>
      </g>
     </g>
    </g>
    <g id="xtick_5">
     <g id="line2d_5">
      <g>
       <use style="fill:#262626;stroke:#262626;stroke-width:1.875;" x="350.976044" xlink:href="#m2c9c42ec15" y="435.06"/>
      </g>
     </g>
     <g id="text_5">
      <!-- 0.75 -->
      <g style="fill:#262626;" transform="translate(334.92077 459.370391)scale(0.165 -0.165)">
       <defs>
        <path d="M 4.734375 62.203125 
L 4.734375 70.65625 
L 51.078125 70.65625 
L 51.078125 63.8125 
Q 44.234375 56.546875 37.515625 44.484375 
Q 30.8125 32.421875 27.15625 19.671875 
Q 24.515625 10.6875 23.78125 0 
L 14.75 0 
Q 14.890625 8.453125 18.0625 20.40625 
Q 21.234375 32.375 27.171875 43.484375 
Q 33.109375 54.59375 39.796875 62.203125 
z
" id="ArialMT-55"/>
       </defs>
       <use xlink:href="#ArialMT-48"/>
       <use x="55.615234" xlink:href="#ArialMT-46"/>
       <use x="83.398438" xlink:href="#ArialMT-55"/>
       <use x="139.013672" xlink:href="#ArialMT-53"/>
      </g>
     </g>
    </g>
    <g id="text_6">
     <!-- Heartbeat counting score -->
     <g style="fill:#262626;" transform="translate(145.185429 479.533828)scale(0.18 -0.18)">
      <defs>
       <path d="M 8.015625 0 
L 8.015625 71.578125 
L 17.484375 71.578125 
L 17.484375 42.1875 
L 54.6875 42.1875 
L 54.6875 71.578125 
L 64.15625 71.578125 
L 64.15625 0 
L 54.6875 0 
L 54.6875 33.734375 
L 17.484375 33.734375 
L 17.484375 0 
z
" id="ArialMT-72"/>
       <path d="M 42.09375 16.703125 
L 51.171875 15.578125 
Q 49.03125 7.625 43.21875 3.21875 
Q 37.40625 -1.171875 28.375 -1.171875 
Q 17 -1.171875 10.328125 5.828125 
Q 3.65625 12.84375 3.65625 25.484375 
Q 3.65625 38.578125 10.390625 45.796875 
Q 17.140625 53.03125 27.875 53.03125 
Q 38.28125 53.03125 44.875 45.953125 
Q 51.46875 38.875 51.46875 26.03125 
Q 51.46875 25.25 51.421875 23.6875 
L 12.75 23.6875 
Q 13.234375 15.140625 17.578125 10.59375 
Q 21.921875 6.0625 28.421875 6.0625 
Q 33.25 6.0625 36.671875 8.59375 
Q 40.09375 11.140625 42.09375 16.703125 
z
M 13.234375 30.90625 
L 42.1875 30.90625 
Q 41.609375 37.453125 38.875 40.71875 
Q 34.671875 45.796875 27.984375 45.796875 
Q 21.921875 45.796875 17.796875 41.75 
Q 13.671875 37.703125 13.234375 30.90625 
z
" id="ArialMT-101"/>
       <path d="M 40.4375 6.390625 
Q 35.546875 2.25 31.03125 0.53125 
Q 26.515625 -1.171875 21.34375 -1.171875 
Q 12.796875 -1.171875 8.203125 3 
Q 3.609375 7.171875 3.609375 13.671875 
Q 3.609375 17.484375 5.34375 20.625 
Q 7.078125 23.78125 9.890625 25.6875 
Q 12.703125 27.59375 16.21875 28.5625 
Q 18.796875 29.25 24.03125 29.890625 
Q 34.671875 31.15625 39.703125 32.90625 
Q 39.75 34.71875 39.75 35.203125 
Q 39.75 40.578125 37.25 42.78125 
Q 33.890625 45.75 27.25 45.75 
Q 21.046875 45.75 18.09375 43.578125 
Q 15.140625 41.40625 13.71875 35.890625 
L 5.125 37.0625 
Q 6.296875 42.578125 8.984375 45.96875 
Q 11.671875 49.359375 16.75 51.1875 
Q 21.828125 53.03125 28.515625 53.03125 
Q 35.15625 53.03125 39.296875 51.46875 
Q 43.453125 49.90625 45.40625 47.53125 
Q 47.359375 45.171875 48.140625 41.546875 
Q 48.578125 39.3125 48.578125 33.453125 
L 48.578125 21.734375 
Q 48.578125 9.46875 49.140625 6.21875 
Q 49.703125 2.984375 51.375 0 
L 42.1875 0 
Q 40.828125 2.734375 40.4375 6.390625 
z
M 39.703125 26.03125 
Q 34.90625 24.078125 25.34375 22.703125 
Q 19.921875 21.921875 17.671875 20.9375 
Q 15.4375 19.96875 14.203125 18.09375 
Q 12.984375 16.21875 12.984375 13.921875 
Q 12.984375 10.40625 15.640625 8.0625 
Q 18.3125 5.71875 23.4375 5.71875 
Q 28.515625 5.71875 32.46875 7.9375 
Q 36.421875 10.15625 38.28125 14.015625 
Q 39.703125 17 39.703125 22.796875 
z
" id="ArialMT-97"/>
       <path d="M 6.5 0 
L 6.5 51.859375 
L 14.40625 51.859375 
L 14.40625 44 
Q 17.4375 49.515625 20 51.265625 
Q 22.5625 53.03125 25.640625 53.03125 
Q 30.078125 53.03125 34.671875 50.203125 
L 31.640625 42.046875 
Q 28.421875 43.953125 25.203125 43.953125 
Q 22.3125 43.953125 20.015625 42.21875 
Q 17.71875 40.484375 16.75 37.40625 
Q 15.28125 32.71875 15.28125 27.15625 
L 15.28125 0 
z
" id="ArialMT-114"/>
       <path d="M 25.78125 7.859375 
L 27.046875 0.09375 
Q 23.34375 -0.6875 20.40625 -0.6875 
Q 15.625 -0.6875 12.984375 0.828125 
Q 10.359375 2.34375 9.28125 4.8125 
Q 8.203125 7.28125 8.203125 15.1875 
L 8.203125 45.015625 
L 1.765625 45.015625 
L 1.765625 51.859375 
L 8.203125 51.859375 
L 8.203125 64.703125 
L 16.9375 69.96875 
L 16.9375 51.859375 
L 25.78125 51.859375 
L 25.78125 45.015625 
L 16.9375 45.015625 
L 16.9375 14.703125 
Q 16.9375 10.9375 17.40625 9.859375 
Q 17.875 8.796875 18.921875 8.15625 
Q 19.96875 7.515625 21.921875 7.515625 
Q 23.390625 7.515625 25.78125 7.859375 
z
" id="ArialMT-116"/>
       <path d="M 14.703125 0 
L 6.546875 0 
L 6.546875 71.578125 
L 15.328125 71.578125 
L 15.328125 46.046875 
Q 20.90625 53.03125 29.546875 53.03125 
Q 34.328125 53.03125 38.59375 51.09375 
Q 42.875 49.171875 45.625 45.671875 
Q 48.390625 42.1875 49.953125 37.25 
Q 51.515625 32.328125 51.515625 26.703125 
Q 51.515625 13.375 44.921875 6.09375 
Q 38.328125 -1.171875 29.109375 -1.171875 
Q 19.921875 -1.171875 14.703125 6.5 
z
M 14.59375 26.3125 
Q 14.59375 17 17.140625 12.84375 
Q 21.296875 6.0625 28.375 6.0625 
Q 34.125 6.0625 38.328125 11.0625 
Q 42.53125 16.0625 42.53125 25.984375 
Q 42.53125 36.140625 38.5 40.96875 
Q 34.46875 45.796875 28.765625 45.796875 
Q 23 45.796875 18.796875 40.796875 
Q 14.59375 35.796875 14.59375 26.3125 
z
" id="ArialMT-98"/>
       <path id="ArialMT-32"/>
       <path d="M 40.4375 19 
L 49.078125 17.875 
Q 47.65625 8.9375 41.8125 3.875 
Q 35.984375 -1.171875 27.484375 -1.171875 
Q 16.84375 -1.171875 10.375 5.78125 
Q 3.90625 12.75 3.90625 25.734375 
Q 3.90625 34.125 6.6875 40.421875 
Q 9.46875 46.734375 15.15625 49.875 
Q 20.84375 53.03125 27.546875 53.03125 
Q 35.984375 53.03125 41.359375 48.75 
Q 46.734375 44.484375 48.25 36.625 
L 39.703125 35.296875 
Q 38.484375 40.53125 35.375 43.15625 
Q 32.28125 45.796875 27.875 45.796875 
Q 21.234375 45.796875 17.078125 41.03125 
Q 12.9375 36.28125 12.9375 25.984375 
Q 12.9375 15.53125 16.9375 10.796875 
Q 20.953125 6.0625 27.390625 6.0625 
Q 32.5625 6.0625 36.03125 9.234375 
Q 39.5 12.40625 40.4375 19 
z
" id="ArialMT-99"/>
       <path d="M 3.328125 25.921875 
Q 3.328125 40.328125 11.328125 47.265625 
Q 18.015625 53.03125 27.640625 53.03125 
Q 38.328125 53.03125 45.109375 46.015625 
Q 51.90625 39.015625 51.90625 26.65625 
Q 51.90625 16.65625 48.90625 10.90625 
Q 45.90625 5.171875 40.15625 2 
Q 34.421875 -1.171875 27.640625 -1.171875 
Q 16.75 -1.171875 10.03125 5.8125 
Q 3.328125 12.796875 3.328125 25.921875 
z
M 12.359375 25.921875 
Q 12.359375 15.96875 16.703125 11.015625 
Q 21.046875 6.0625 27.640625 6.0625 
Q 34.1875 6.0625 38.53125 11.03125 
Q 42.875 16.015625 42.875 26.21875 
Q 42.875 35.84375 38.5 40.796875 
Q 34.125 45.75 27.640625 45.75 
Q 21.046875 45.75 16.703125 40.8125 
Q 12.359375 35.890625 12.359375 25.921875 
z
" id="ArialMT-111"/>
       <path d="M 40.578125 0 
L 40.578125 7.625 
Q 34.515625 -1.171875 24.125 -1.171875 
Q 19.53125 -1.171875 15.546875 0.578125 
Q 11.578125 2.34375 9.640625 5 
Q 7.71875 7.671875 6.9375 11.53125 
Q 6.390625 14.109375 6.390625 19.734375 
L 6.390625 51.859375 
L 15.1875 51.859375 
L 15.1875 23.09375 
Q 15.1875 16.21875 15.71875 13.8125 
Q 16.546875 10.359375 19.234375 8.375 
Q 21.921875 6.390625 25.875 6.390625 
Q 29.828125 6.390625 33.296875 8.421875 
Q 36.765625 10.453125 38.203125 13.9375 
Q 39.65625 17.4375 39.65625 24.078125 
L 39.65625 51.859375 
L 48.4375 51.859375 
L 48.4375 0 
z
" id="ArialMT-117"/>
       <path d="M 6.59375 0 
L 6.59375 51.859375 
L 14.5 51.859375 
L 14.5 44.484375 
Q 20.21875 53.03125 31 53.03125 
Q 35.6875 53.03125 39.625 51.34375 
Q 43.5625 49.65625 45.515625 46.921875 
Q 47.46875 44.1875 48.25 40.4375 
Q 48.734375 37.984375 48.734375 31.890625 
L 48.734375 0 
L 39.9375 0 
L 39.9375 31.546875 
Q 39.9375 36.921875 38.90625 39.578125 
Q 37.890625 42.234375 35.28125 43.8125 
Q 32.671875 45.40625 29.15625 45.40625 
Q 23.53125 45.40625 19.453125 41.84375 
Q 15.375 38.28125 15.375 28.328125 
L 15.375 0 
z
" id="ArialMT-110"/>
       <path d="M 6.640625 61.46875 
L 6.640625 71.578125 
L 15.4375 71.578125 
L 15.4375 61.46875 
z
M 6.640625 0 
L 6.640625 51.859375 
L 15.4375 51.859375 
L 15.4375 0 
z
" id="ArialMT-105"/>
       <path d="M 4.984375 -4.296875 
L 13.53125 -5.5625 
Q 14.0625 -9.515625 16.5 -11.328125 
Q 19.78125 -13.765625 25.4375 -13.765625 
Q 31.546875 -13.765625 34.859375 -11.328125 
Q 38.1875 -8.890625 39.359375 -4.5 
Q 40.046875 -1.8125 39.984375 6.78125 
Q 34.234375 0 25.640625 0 
Q 14.9375 0 9.078125 7.71875 
Q 3.21875 15.4375 3.21875 26.21875 
Q 3.21875 33.640625 5.90625 39.90625 
Q 8.59375 46.1875 13.6875 49.609375 
Q 18.796875 53.03125 25.6875 53.03125 
Q 34.859375 53.03125 40.828125 45.609375 
L 40.828125 51.859375 
L 48.921875 51.859375 
L 48.921875 7.03125 
Q 48.921875 -5.078125 46.453125 -10.125 
Q 44 -15.1875 38.640625 -18.109375 
Q 33.296875 -21.046875 25.484375 -21.046875 
Q 16.21875 -21.046875 10.5 -16.875 
Q 4.78125 -12.703125 4.984375 -4.296875 
z
M 12.25 26.859375 
Q 12.25 16.65625 16.296875 11.96875 
Q 20.359375 7.28125 26.46875 7.28125 
Q 32.515625 7.28125 36.609375 11.9375 
Q 40.71875 16.609375 40.71875 26.5625 
Q 40.71875 36.078125 36.5 40.90625 
Q 32.28125 45.75 26.3125 45.75 
Q 20.453125 45.75 16.34375 40.984375 
Q 12.25 36.234375 12.25 26.859375 
z
" id="ArialMT-103"/>
       <path d="M 3.078125 15.484375 
L 11.765625 16.84375 
Q 12.5 11.625 15.84375 8.84375 
Q 19.1875 6.0625 25.203125 6.0625 
Q 31.25 6.0625 34.171875 8.515625 
Q 37.109375 10.984375 37.109375 14.3125 
Q 37.109375 17.28125 34.515625 19 
Q 32.71875 20.171875 25.53125 21.96875 
Q 15.875 24.421875 12.140625 26.203125 
Q 8.40625 27.984375 6.46875 31.125 
Q 4.546875 34.28125 4.546875 38.09375 
Q 4.546875 41.546875 6.125 44.5 
Q 7.71875 47.46875 10.453125 49.421875 
Q 12.5 50.921875 16.03125 51.96875 
Q 19.578125 53.03125 23.640625 53.03125 
Q 29.734375 53.03125 34.34375 51.265625 
Q 38.96875 49.515625 41.15625 46.5 
Q 43.359375 43.5 44.1875 38.484375 
L 35.59375 37.3125 
Q 35.015625 41.3125 32.203125 43.546875 
Q 29.390625 45.796875 24.265625 45.796875 
Q 18.21875 45.796875 15.625 43.796875 
Q 13.03125 41.796875 13.03125 39.109375 
Q 13.03125 37.40625 14.109375 36.03125 
Q 15.1875 34.625 17.484375 33.6875 
Q 18.796875 33.203125 25.25 31.453125 
Q 34.578125 28.953125 38.25 27.359375 
Q 41.9375 25.78125 44.03125 22.75 
Q 46.140625 19.734375 46.140625 15.234375 
Q 46.140625 10.84375 43.578125 6.953125 
Q 41.015625 3.078125 36.171875 0.953125 
Q 31.34375 -1.171875 25.25 -1.171875 
Q 15.140625 -1.171875 9.84375 3.03125 
Q 4.546875 7.234375 3.078125 15.484375 
z
" id="ArialMT-115"/>
      </defs>
      <use xlink:href="#ArialMT-72"/>
      <use x="72.216797" xlink:href="#ArialMT-101"/>
      <use x="127.832031" xlink:href="#ArialMT-97"/>
      <use x="183.447266" xlink:href="#ArialMT-114"/>
      <use x="216.748047" xlink:href="#ArialMT-116"/>
      <use x="244.53125" xlink:href="#ArialMT-98"/>
      <use x="300.146484" xlink:href="#ArialMT-101"/>
      <use x="355.761719" xlink:href="#ArialMT-97"/>
      <use x="411.376953" xlink:href="#ArialMT-116"/>
      <use x="439.160156" xlink:href="#ArialMT-32"/>
      <use x="466.943359" xlink:href="#ArialMT-99"/>
      <use x="516.943359" xlink:href="#ArialMT-111"/>
      <use x="572.558594" xlink:href="#ArialMT-117"/>
      <use x="628.173828" xlink:href="#ArialMT-110"/>
      <use x="683.789062" xlink:href="#ArialMT-116"/>
      <use x="711.572266" xlink:href="#ArialMT-105"/>
      <use x="733.789062" xlink:href="#ArialMT-110"/>
      <use x="789.404297" xlink:href="#ArialMT-103"/>
      <use x="845.019531" xlink:href="#ArialMT-32"/>
      <use x="872.802734" xlink:href="#ArialMT-115"/>
      <use x="922.802734" xlink:href="#ArialMT-99"/>
      <use x="972.802734" xlink:href="#ArialMT-111"/>
      <use x="1028.417969" xlink:href="#ArialMT-114"/>
      <use x="1061.71875" xlink:href="#ArialMT-101"/>
     </g>
    </g>
   </g>
   <g id="matplotlib.axis_2">
    <g id="ytick_1">
     <g id="line2d_6">
      <defs>
       <path d="M 0 0 
L -9 0 
" id="m4e9891aa38" style="stroke:#262626;stroke-width:1.875;"/>
      </defs>
      <g>
       <use style="fill:#262626;stroke:#262626;stroke-width:1.875;" x="76.815" xlink:href="#m4e9891aa38" y="426.324948"/>
      </g>
     </g>
     <g id="text_7">
      <!-- −40 -->
      <g style="fill:#262626;" transform="translate(36.326875 432.230143)scale(0.165 -0.165)">
       <defs>
        <path d="M 32.328125 0 
L 32.328125 17.140625 
L 1.265625 17.140625 
L 1.265625 25.203125 
L 33.9375 71.578125 
L 41.109375 71.578125 
L 41.109375 25.203125 
L 50.78125 25.203125 
L 50.78125 17.140625 
L 41.109375 17.140625 
L 41.109375 0 
z
M 32.328125 25.203125 
L 32.328125 57.46875 
L 9.90625 25.203125 
z
" id="ArialMT-52"/>
       </defs>
       <use xlink:href="#ArialMT-8722"/>
       <use x="58.398438" xlink:href="#ArialMT-52"/>
       <use x="114.013672" xlink:href="#ArialMT-48"/>
      </g>
     </g>
    </g>
    <g id="ytick_2">
     <g id="line2d_7">
      <g>
       <use style="fill:#262626;stroke:#262626;stroke-width:1.875;" x="76.815" xlink:href="#m4e9891aa38" y="383.086395"/>
      </g>
     </g>
     <g id="text_8">
      <!-- −30 -->
      <g style="fill:#262626;" transform="translate(36.326875 388.99159)scale(0.165 -0.165)">
       <defs>
        <path d="M 4.203125 18.890625 
L 12.984375 20.0625 
Q 14.5 12.59375 18.140625 9.296875 
Q 21.78125 6 27 6 
Q 33.203125 6 37.46875 10.296875 
Q 41.75 14.59375 41.75 20.953125 
Q 41.75 27 37.796875 30.921875 
Q 33.84375 34.859375 27.734375 34.859375 
Q 25.25 34.859375 21.53125 33.890625 
L 22.515625 41.609375 
Q 23.390625 41.5 23.921875 41.5 
Q 29.546875 41.5 34.03125 44.421875 
Q 38.53125 47.359375 38.53125 53.46875 
Q 38.53125 58.296875 35.25 61.46875 
Q 31.984375 64.65625 26.8125 64.65625 
Q 21.6875 64.65625 18.265625 61.421875 
Q 14.84375 58.203125 13.875 51.765625 
L 5.078125 53.328125 
Q 6.6875 62.15625 12.390625 67.015625 
Q 18.109375 71.875 26.609375 71.875 
Q 32.46875 71.875 37.390625 69.359375 
Q 42.328125 66.84375 44.9375 62.5 
Q 47.5625 58.15625 47.5625 53.265625 
Q 47.5625 48.640625 45.0625 44.828125 
Q 42.578125 41.015625 37.703125 38.765625 
Q 44.046875 37.3125 47.5625 32.6875 
Q 51.078125 28.078125 51.078125 21.140625 
Q 51.078125 11.765625 44.234375 5.25 
Q 37.40625 -1.265625 26.953125 -1.265625 
Q 17.53125 -1.265625 11.296875 4.34375 
Q 5.078125 9.96875 4.203125 18.890625 
z
" id="ArialMT-51"/>
       </defs>
       <use xlink:href="#ArialMT-8722"/>
       <use x="58.398438" xlink:href="#ArialMT-51"/>
       <use x="114.013672" xlink:href="#ArialMT-48"/>
      </g>
     </g>
    </g>
    <g id="ytick_3">
     <g id="line2d_8">
      <g>
       <use style="fill:#262626;stroke:#262626;stroke-width:1.875;" x="76.815" xlink:href="#m4e9891aa38" y="339.847843"/>
      </g>
     </g>
     <g id="text_9">
      <!-- −20 -->
      <g style="fill:#262626;" transform="translate(36.326875 345.753038)scale(0.165 -0.165)">
       <use xlink:href="#ArialMT-8722"/>
       <use x="58.398438" xlink:href="#ArialMT-50"/>
       <use x="114.013672" xlink:href="#ArialMT-48"/>
      </g>
     </g>
    </g>
    <g id="ytick_4">
     <g id="line2d_9">
      <g>
       <use style="fill:#262626;stroke:#262626;stroke-width:1.875;" x="76.815" xlink:href="#m4e9891aa38" y="296.60929"/>
      </g>
     </g>
     <g id="text_10">
      <!-- −10 -->
      <g style="fill:#262626;" transform="translate(36.326875 302.514485)scale(0.165 -0.165)">
       <defs>
        <path d="M 37.25 0 
L 28.46875 0 
L 28.46875 56 
Q 25.296875 52.984375 20.140625 49.953125 
Q 14.984375 46.921875 10.890625 45.40625 
L 10.890625 53.90625 
Q 18.265625 57.375 23.78125 62.296875 
Q 29.296875 67.234375 31.59375 71.875 
L 37.25 71.875 
z
" id="ArialMT-49"/>
       </defs>
       <use xlink:href="#ArialMT-8722"/>
       <use x="58.398438" xlink:href="#ArialMT-49"/>
       <use x="114.013672" xlink:href="#ArialMT-48"/>
      </g>
     </g>
    </g>
    <g id="ytick_5">
     <g id="line2d_10">
      <g>
       <use style="fill:#262626;stroke:#262626;stroke-width:1.875;" x="76.815" xlink:href="#m4e9891aa38" y="253.370738"/>
      </g>
     </g>
     <g id="text_11">
      <!-- 0 -->
      <g style="fill:#262626;" transform="translate(55.139453 259.275933)scale(0.165 -0.165)">
       <use xlink:href="#ArialMT-48"/>
      </g>
     </g>
    </g>
    <g id="ytick_6">
     <g id="line2d_11">
      <g>
       <use style="fill:#262626;stroke:#262626;stroke-width:1.875;" x="76.815" xlink:href="#m4e9891aa38" y="210.132185"/>
      </g>
     </g>
     <g id="text_12">
      <!-- 10 -->
      <g style="fill:#262626;" transform="translate(45.963906 216.03738)scale(0.165 -0.165)">
       <use xlink:href="#ArialMT-49"/>
       <use x="55.615234" xlink:href="#ArialMT-48"/>
      </g>
     </g>
    </g>
    <g id="ytick_7">
     <g id="line2d_12">
      <g>
       <use style="fill:#262626;stroke:#262626;stroke-width:1.875;" x="76.815" xlink:href="#m4e9891aa38" y="166.893633"/>
      </g>
     </g>
     <g id="text_13">
      <!-- 20 -->
      <g style="fill:#262626;" transform="translate(45.963906 172.798828)scale(0.165 -0.165)">
       <use xlink:href="#ArialMT-50"/>
       <use x="55.615234" xlink:href="#ArialMT-48"/>
      </g>
     </g>
    </g>
    <g id="ytick_8">
     <g id="line2d_13">
      <g>
       <use style="fill:#262626;stroke:#262626;stroke-width:1.875;" x="76.815" xlink:href="#m4e9891aa38" y="123.65508"/>
      </g>
     </g>
     <g id="text_14">
      <!-- 30 -->
      <g style="fill:#262626;" transform="translate(45.963906 129.560275)scale(0.165 -0.165)">
       <use xlink:href="#ArialMT-51"/>
       <use x="55.615234" xlink:href="#ArialMT-48"/>
      </g>
     </g>
    </g>
    <g id="text_15">
     <!-- Psychometric threshold -->
     <g style="fill:#262626;" transform="translate(28.538437 356.407071)rotate(-90)scale(0.18 -0.18)">
      <defs>
       <path d="M 7.71875 0 
L 7.71875 71.578125 
L 34.71875 71.578125 
Q 41.84375 71.578125 45.609375 70.90625 
Q 50.875 70.015625 54.4375 67.546875 
Q 58.015625 65.09375 60.1875 60.640625 
Q 62.359375 56.203125 62.359375 50.875 
Q 62.359375 41.75 56.546875 35.421875 
Q 50.734375 29.109375 35.546875 29.109375 
L 17.1875 29.109375 
L 17.1875 0 
z
M 17.1875 37.546875 
L 35.6875 37.546875 
Q 44.875 37.546875 48.734375 40.96875 
Q 52.59375 44.390625 52.59375 50.59375 
Q 52.59375 55.078125 50.3125 58.265625 
Q 48.046875 61.46875 44.34375 62.5 
Q 41.9375 63.140625 35.5 63.140625 
L 17.1875 63.140625 
z
" id="ArialMT-80"/>
       <path d="M 6.203125 -19.96875 
L 5.21875 -11.71875 
Q 8.109375 -12.5 10.25 -12.5 
Q 13.1875 -12.5 14.9375 -11.515625 
Q 16.703125 -10.546875 17.828125 -8.796875 
Q 18.65625 -7.46875 20.515625 -2.25 
Q 20.75 -1.515625 21.296875 -0.09375 
L 1.609375 51.859375 
L 11.078125 51.859375 
L 21.875 21.828125 
Q 23.96875 16.109375 25.640625 9.8125 
Q 27.15625 15.875 29.25 21.625 
L 40.328125 51.859375 
L 49.125 51.859375 
L 29.390625 -0.875 
Q 26.21875 -9.421875 24.46875 -12.640625 
Q 22.125 -17 19.09375 -19.015625 
Q 16.0625 -21.046875 11.859375 -21.046875 
Q 9.328125 -21.046875 6.203125 -19.96875 
z
" id="ArialMT-121"/>
       <path d="M 6.59375 0 
L 6.59375 71.578125 
L 15.375 71.578125 
L 15.375 45.90625 
Q 21.53125 53.03125 30.90625 53.03125 
Q 36.671875 53.03125 40.921875 50.75 
Q 45.171875 48.484375 47 44.484375 
Q 48.828125 40.484375 48.828125 32.859375 
L 48.828125 0 
L 40.046875 0 
L 40.046875 32.859375 
Q 40.046875 39.453125 37.1875 42.453125 
Q 34.328125 45.453125 29.109375 45.453125 
Q 25.203125 45.453125 21.75 43.421875 
Q 18.3125 41.40625 16.84375 37.9375 
Q 15.375 34.46875 15.375 28.375 
L 15.375 0 
z
" id="ArialMT-104"/>
       <path d="M 6.59375 0 
L 6.59375 51.859375 
L 14.453125 51.859375 
L 14.453125 44.578125 
Q 16.890625 48.390625 20.9375 50.703125 
Q 25 53.03125 30.171875 53.03125 
Q 35.9375 53.03125 39.625 50.640625 
Q 43.3125 48.25 44.828125 43.953125 
Q 50.984375 53.03125 60.84375 53.03125 
Q 68.5625 53.03125 72.703125 48.75 
Q 76.859375 44.484375 76.859375 35.59375 
L 76.859375 0 
L 68.109375 0 
L 68.109375 32.671875 
Q 68.109375 37.9375 67.25 40.25 
Q 66.40625 42.578125 64.15625 43.984375 
Q 61.921875 45.40625 58.890625 45.40625 
Q 53.421875 45.40625 49.796875 41.765625 
Q 46.1875 38.140625 46.1875 30.125 
L 46.1875 0 
L 37.40625 0 
L 37.40625 33.6875 
Q 37.40625 39.546875 35.25 42.46875 
Q 33.109375 45.40625 28.21875 45.40625 
Q 24.515625 45.40625 21.359375 43.453125 
Q 18.21875 41.5 16.796875 37.734375 
Q 15.375 33.984375 15.375 26.90625 
L 15.375 0 
z
" id="ArialMT-109"/>
       <path d="M 6.390625 0 
L 6.390625 71.578125 
L 15.1875 71.578125 
L 15.1875 0 
z
" id="ArialMT-108"/>
       <path d="M 40.234375 0 
L 40.234375 6.546875 
Q 35.296875 -1.171875 25.734375 -1.171875 
Q 19.53125 -1.171875 14.328125 2.25 
Q 9.125 5.671875 6.265625 11.796875 
Q 3.421875 17.921875 3.421875 25.875 
Q 3.421875 33.640625 6 39.96875 
Q 8.59375 46.296875 13.765625 49.65625 
Q 18.953125 53.03125 25.34375 53.03125 
Q 30.03125 53.03125 33.6875 51.046875 
Q 37.359375 49.078125 39.65625 45.90625 
L 39.65625 71.578125 
L 48.390625 71.578125 
L 48.390625 0 
z
M 12.453125 25.875 
Q 12.453125 15.921875 16.640625 10.984375 
Q 20.84375 6.0625 26.5625 6.0625 
Q 32.328125 6.0625 36.34375 10.765625 
Q 40.375 15.484375 40.375 25.140625 
Q 40.375 35.796875 36.265625 40.765625 
Q 32.171875 45.75 26.171875 45.75 
Q 20.3125 45.75 16.375 40.96875 
Q 12.453125 36.1875 12.453125 25.875 
z
" id="ArialMT-100"/>
      </defs>
      <use xlink:href="#ArialMT-80"/>
      <use x="66.699219" xlink:href="#ArialMT-115"/>
      <use x="116.699219" xlink:href="#ArialMT-121"/>
      <use x="166.699219" xlink:href="#ArialMT-99"/>
      <use x="216.699219" xlink:href="#ArialMT-104"/>
      <use x="272.314453" xlink:href="#ArialMT-111"/>
      <use x="327.929688" xlink:href="#ArialMT-109"/>
      <use x="411.230469" xlink:href="#ArialMT-101"/>
      <use x="466.845703" xlink:href="#ArialMT-116"/>
      <use x="494.628906" xlink:href="#ArialMT-114"/>
      <use x="527.929688" xlink:href="#ArialMT-105"/>
      <use x="550.146484" xlink:href="#ArialMT-99"/>
      <use x="600.146484" xlink:href="#ArialMT-32"/>
      <use x="627.929688" xlink:href="#ArialMT-116"/>
      <use x="655.712891" xlink:href="#ArialMT-104"/>
      <use x="711.328125" xlink:href="#ArialMT-114"/>
      <use x="744.628906" xlink:href="#ArialMT-101"/>
      <use x="800.244141" xlink:href="#ArialMT-115"/>
      <use x="850.244141" xlink:href="#ArialMT-104"/>
      <use x="905.859375" xlink:href="#ArialMT-111"/>
      <use x="961.474609" xlink:href="#ArialMT-108"/>
      <use x="983.691406" xlink:href="#ArialMT-100"/>
     </g>
    </g>
   </g>
   <g id="PathCollection_1">
    <defs>
     <path d="M 0 4.5 
C 1.193414 4.5 2.338109 4.025852 3.181981 3.181981 
C 4.025852 2.338109 4.5 1.193414 4.5 0 
C 4.5 -1.193414 4.025852 -2.338109 3.181981 -3.181981 
C 2.338109 -4.025852 1.193414 -4.5 0 -4.5 
C -1.193414 -4.5 -2.338109 -4.025852 -3.181981 -3.181981 
C -4.025852 -2.338109 -4.5 -1.193414 -4.5 0 
C -4.5 1.193414 -4.025852 2.338109 -3.181981 3.181981 
C -2.338109 4.025852 -1.193414 4.5 0 4.5 
z
" id="mf63bd1cfec" style="stroke:#4c72b0;stroke-opacity:0.8;"/>
    </defs>
    <g clip-path="url(#p63930cc8e6)">
     <use style="fill:#4c72b0;fill-opacity:0.8;stroke:#4c72b0;stroke-opacity:0.8;" x="244.658448" xlink:href="#mf63bd1cfec" y="192.348168"/>
     <use style="fill:#4c72b0;fill-opacity:0.8;stroke:#4c72b0;stroke-opacity:0.8;" x="288.834306" xlink:href="#mf63bd1cfec" y="305.20079"/>
     <use style="fill:#4c72b0;fill-opacity:0.8;stroke:#4c72b0;stroke-opacity:0.8;" x="351.837658" xlink:href="#mf63bd1cfec" y="262.887543"/>
     <use style="fill:#4c72b0;fill-opacity:0.8;stroke:#4c72b0;stroke-opacity:0.8;" x="370.365329" xlink:href="#mf63bd1cfec" y="293.26695"/>
     <use style="fill:#4c72b0;fill-opacity:0.8;stroke:#4c72b0;stroke-opacity:0.8;" x="363.596947" xlink:href="#mf63bd1cfec" y="213.297247"/>
     <use style="fill:#4c72b0;fill-opacity:0.8;stroke:#4c72b0;stroke-opacity:0.8;" x="260.45595" xlink:href="#mf63bd1cfec" y="271.595787"/>
     <use style="fill:#4c72b0;fill-opacity:0.8;stroke:#4c72b0;stroke-opacity:0.8;" x="324.353856" xlink:href="#mf63bd1cfec" y="242.457327"/>
     <use style="fill:#4c72b0;fill-opacity:0.8;stroke:#4c72b0;stroke-opacity:0.8;" x="363.367842" xlink:href="#mf63bd1cfec" y="309.468436"/>
     <use style="fill:#4c72b0;fill-opacity:0.8;stroke:#4c72b0;stroke-opacity:0.8;" x="410.083421" xlink:href="#mf63bd1cfec" y="260.65211"/>
     <use style="fill:#4c72b0;fill-opacity:0.8;stroke:#4c72b0;stroke-opacity:0.8;" x="403.533938" xlink:href="#mf63bd1cfec" y="343.077762"/>
     <use style="fill:#4c72b0;fill-opacity:0.8;stroke:#4c72b0;stroke-opacity:0.8;" x="403.026542" xlink:href="#mf63bd1cfec" y="255.346739"/>
     <use style="fill:#4c72b0;fill-opacity:0.8;stroke:#4c72b0;stroke-opacity:0.8;" x="314.608703" xlink:href="#mf63bd1cfec" y="237.420036"/>
     <use style="fill:#4c72b0;fill-opacity:0.8;stroke:#4c72b0;stroke-opacity:0.8;" x="328.44044" xlink:href="#mf63bd1cfec" y="338.023176"/>
     <use style="fill:#4c72b0;fill-opacity:0.8;stroke:#4c72b0;stroke-opacity:0.8;" x="410.910906" xlink:href="#mf63bd1cfec" y="253.154545"/>
     <use style="fill:#4c72b0;fill-opacity:0.8;stroke:#4c72b0;stroke-opacity:0.8;" x="308.880504" xlink:href="#mf63bd1cfec" y="411.571954"/>
     <use style="fill:#4c72b0;fill-opacity:0.8;stroke:#4c72b0;stroke-opacity:0.8;" x="372.09076" xlink:href="#mf63bd1cfec" y="336.59198"/>
     <use style="fill:#4c72b0;fill-opacity:0.8;stroke:#4c72b0;stroke-opacity:0.8;" x="140.15534" xlink:href="#mf63bd1cfec" y="328.631762"/>
     <use style="fill:#4c72b0;fill-opacity:0.8;stroke:#4c72b0;stroke-opacity:0.8;" x="409.82259" xlink:href="#mf63bd1cfec" y="248.385332"/>
     <use style="fill:#4c72b0;fill-opacity:0.8;stroke:#4c72b0;stroke-opacity:0.8;" x="290.997078" xlink:href="#mf63bd1cfec" y="217.149802"/>
     <use style="fill:#4c72b0;fill-opacity:0.8;stroke:#4c72b0;stroke-opacity:0.8;" x="346.557694" xlink:href="#mf63bd1cfec" y="257.149787"/>
     <use style="fill:#4c72b0;fill-opacity:0.8;stroke:#4c72b0;stroke-opacity:0.8;" x="330.398269" xlink:href="#mf63bd1cfec" y="279.780845"/>
     <use style="fill:#4c72b0;fill-opacity:0.8;stroke:#4c72b0;stroke-opacity:0.8;" x="238.548714" xlink:href="#mf63bd1cfec" y="308.357205"/>
     <use style="fill:#4c72b0;fill-opacity:0.8;stroke:#4c72b0;stroke-opacity:0.8;" x="405.988522" xlink:href="#mf63bd1cfec" y="320.930976"/>
     <use style="fill:#4c72b0;fill-opacity:0.8;stroke:#4c72b0;stroke-opacity:0.8;" x="378.076433" xlink:href="#mf63bd1cfec" y="170.335421"/>
     <use style="fill:#4c72b0;fill-opacity:0.8;stroke:#4c72b0;stroke-opacity:0.8;" x="333.269435" xlink:href="#mf63bd1cfec" y="354.916478"/>
     <use style="fill:#4c72b0;fill-opacity:0.8;stroke:#4c72b0;stroke-opacity:0.8;" x="314.230358" xlink:href="#mf63bd1cfec" y="309.308453"/>
     <use style="fill:#4c72b0;fill-opacity:0.8;stroke:#4c72b0;stroke-opacity:0.8;" x="227.59813" xlink:href="#mf63bd1cfec" y="333.954428"/>
     <use style="fill:#4c72b0;fill-opacity:0.8;stroke:#4c72b0;stroke-opacity:0.8;" x="264.751935" xlink:href="#mf63bd1cfec" y="304.859206"/>
     <use style="fill:#4c72b0;fill-opacity:0.8;stroke:#4c72b0;stroke-opacity:0.8;" x="391.792313" xlink:href="#mf63bd1cfec" y="284.260359"/>
     <use style="fill:#4c72b0;fill-opacity:0.8;stroke:#4c72b0;stroke-opacity:0.8;" x="115.46762" xlink:href="#mf63bd1cfec" y="417.417806"/>
     <use style="fill:#4c72b0;fill-opacity:0.8;stroke:#4c72b0;stroke-opacity:0.8;" x="317.456601" xlink:href="#mf63bd1cfec" y="208.999335"/>
     <use style="fill:#4c72b0;fill-opacity:0.8;stroke:#4c72b0;stroke-opacity:0.8;" x="254.787853" xlink:href="#mf63bd1cfec" y="353.887401"/>
     <use style="fill:#4c72b0;fill-opacity:0.8;stroke:#4c72b0;stroke-opacity:0.8;" x="411.292953" xlink:href="#mf63bd1cfec" y="273.636647"/>
     <use style="fill:#4c72b0;fill-opacity:0.8;stroke:#4c72b0;stroke-opacity:0.8;" x="399.037981" xlink:href="#mf63bd1cfec" y="251.92657"/>
     <use style="fill:#4c72b0;fill-opacity:0.8;stroke:#4c72b0;stroke-opacity:0.8;" x="297.294238" xlink:href="#mf63bd1cfec" y="385.235351"/>
     <use style="fill:#4c72b0;fill-opacity:0.8;stroke:#4c72b0;stroke-opacity:0.8;" x="309.863762" xlink:href="#mf63bd1cfec" y="319.659762"/>
     <use style="fill:#4c72b0;fill-opacity:0.8;stroke:#4c72b0;stroke-opacity:0.8;" x="398.343833" xlink:href="#mf63bd1cfec" y="268.90635"/>
     <use style="fill:#4c72b0;fill-opacity:0.8;stroke:#4c72b0;stroke-opacity:0.8;" x="217.40945" xlink:href="#mf63bd1cfec" y="204.550088"/>
     <use style="fill:#4c72b0;fill-opacity:0.8;stroke:#4c72b0;stroke-opacity:0.8;" x="295.40915" xlink:href="#mf63bd1cfec" y="266.856842"/>
     <use style="fill:#4c72b0;fill-opacity:0.8;stroke:#4c72b0;stroke-opacity:0.8;" x="252.547377" xlink:href="#mf63bd1cfec" y="291.861697"/>
     <use style="fill:#4c72b0;fill-opacity:0.8;stroke:#4c72b0;stroke-opacity:0.8;" x="216.262133" xlink:href="#mf63bd1cfec" y="256.224482"/>
     <use style="fill:#4c72b0;fill-opacity:0.8;stroke:#4c72b0;stroke-opacity:0.8;" x="401.689143" xlink:href="#mf63bd1cfec" y="253.634493"/>
     <use style="fill:#4c72b0;fill-opacity:0.8;stroke:#4c72b0;stroke-opacity:0.8;" x="333.684412" xlink:href="#mf63bd1cfec" y="288.73555"/>
     <use style="fill:#4c72b0;fill-opacity:0.8;stroke:#4c72b0;stroke-opacity:0.8;" x="347.348931" xlink:href="#mf63bd1cfec" y="330.452105"/>
     <use style="fill:#4c72b0;fill-opacity:0.8;stroke:#4c72b0;stroke-opacity:0.8;" x="198.051103" xlink:href="#mf63bd1cfec" y="380.78178"/>
     <use style="fill:#4c72b0;fill-opacity:0.8;stroke:#4c72b0;stroke-opacity:0.8;" x="397.797915" xlink:href="#mf63bd1cfec" y="294.823538"/>
     <use style="fill:#4c72b0;fill-opacity:0.8;stroke:#4c72b0;stroke-opacity:0.8;" x="324.377838" xlink:href="#mf63bd1cfec" y="261.348251"/>
     <use style="fill:#4c72b0;fill-opacity:0.8;stroke:#4c72b0;stroke-opacity:0.8;" x="228.552998" xlink:href="#mf63bd1cfec" y="360.286706"/>
     <use style="fill:#4c72b0;fill-opacity:0.8;stroke:#4c72b0;stroke-opacity:0.8;" x="385.943807" xlink:href="#mf63bd1cfec" y="285.215932"/>
     <use style="fill:#4c72b0;fill-opacity:0.8;stroke:#4c72b0;stroke-opacity:0.8;" x="396.131413" xlink:href="#mf63bd1cfec" y="275.867756"/>
     <use style="fill:#4c72b0;fill-opacity:0.8;stroke:#4c72b0;stroke-opacity:0.8;" x="129.122713" xlink:href="#mf63bd1cfec" y="253.055096"/>
     <use style="fill:#4c72b0;fill-opacity:0.8;stroke:#4c72b0;stroke-opacity:0.8;" x="386.738696" xlink:href="#mf63bd1cfec" y="285.302409"/>
     <use style="fill:#4c72b0;fill-opacity:0.8;stroke:#4c72b0;stroke-opacity:0.8;" x="298.071526" xlink:href="#mf63bd1cfec" y="311.492"/>
     <use style="fill:#4c72b0;fill-opacity:0.8;stroke:#4c72b0;stroke-opacity:0.8;" x="291.53727" xlink:href="#mf63bd1cfec" y="222.117912"/>
     <use style="fill:#4c72b0;fill-opacity:0.8;stroke:#4c72b0;stroke-opacity:0.8;" x="273.211547" xlink:href="#mf63bd1cfec" y="401.722211"/>
     <use style="fill:#4c72b0;fill-opacity:0.8;stroke:#4c72b0;stroke-opacity:0.8;" x="400.671004" xlink:href="#mf63bd1cfec" y="368.117208"/>
     <use style="fill:#4c72b0;fill-opacity:0.8;stroke:#4c72b0;stroke-opacity:0.8;" x="234.465019" xlink:href="#mf63bd1cfec" y="271.327708"/>
     <use style="fill:#4c72b0;fill-opacity:0.8;stroke:#4c72b0;stroke-opacity:0.8;" x="255.739187" xlink:href="#mf63bd1cfec" y="335.601817"/>
     <use style="fill:#4c72b0;fill-opacity:0.8;stroke:#4c72b0;stroke-opacity:0.8;" x="276.196703" xlink:href="#mf63bd1cfec" y="305.317535"/>
     <use style="fill:#4c72b0;fill-opacity:0.8;stroke:#4c72b0;stroke-opacity:0.8;" x="329.246336" xlink:href="#mf63bd1cfec" y="303.324237"/>
     <use style="fill:#4c72b0;fill-opacity:0.8;stroke:#4c72b0;stroke-opacity:0.8;" x="226.918939" xlink:href="#mf63bd1cfec" y="337.638353"/>
     <use style="fill:#4c72b0;fill-opacity:0.8;stroke:#4c72b0;stroke-opacity:0.8;" x="402.686305" xlink:href="#mf63bd1cfec" y="261.97521"/>
     <use style="fill:#4c72b0;fill-opacity:0.8;stroke:#4c72b0;stroke-opacity:0.8;" x="307.072957" xlink:href="#mf63bd1cfec" y="182.55896"/>
     <use style="fill:#4c72b0;fill-opacity:0.8;stroke:#4c72b0;stroke-opacity:0.8;" x="232.699115" xlink:href="#mf63bd1cfec" y="305.520756"/>
     <use style="fill:#4c72b0;fill-opacity:0.8;stroke:#4c72b0;stroke-opacity:0.8;" x="188.362705" xlink:href="#mf63bd1cfec" y="258.148598"/>
     <use style="fill:#4c72b0;fill-opacity:0.8;stroke:#4c72b0;stroke-opacity:0.8;" x="299.134797" xlink:href="#mf63bd1cfec" y="300.764515"/>
     <use style="fill:#4c72b0;fill-opacity:0.8;stroke:#4c72b0;stroke-opacity:0.8;" x="368.189716" xlink:href="#mf63bd1cfec" y="239.274969"/>
     <use style="fill:#4c72b0;fill-opacity:0.8;stroke:#4c72b0;stroke-opacity:0.8;" x="377.982741" xlink:href="#mf63bd1cfec" y="260.885598"/>
     <use style="fill:#4c72b0;fill-opacity:0.8;stroke:#4c72b0;stroke-opacity:0.8;" x="409.620725" xlink:href="#mf63bd1cfec" y="228.845831"/>
     <use style="fill:#4c72b0;fill-opacity:0.8;stroke:#4c72b0;stroke-opacity:0.8;" x="393.246182" xlink:href="#mf63bd1cfec" y="254.836525"/>
     <use style="fill:#4c72b0;fill-opacity:0.8;stroke:#4c72b0;stroke-opacity:0.8;" x="405.837424" xlink:href="#mf63bd1cfec" y="235.314318"/>
     <use style="fill:#4c72b0;fill-opacity:0.8;stroke:#4c72b0;stroke-opacity:0.8;" x="198.001643" xlink:href="#mf63bd1cfec" y="276.512011"/>
     <use style="fill:#4c72b0;fill-opacity:0.8;stroke:#4c72b0;stroke-opacity:0.8;" x="213.468426" xlink:href="#mf63bd1cfec" y="300.146204"/>
     <use style="fill:#4c72b0;fill-opacity:0.8;stroke:#4c72b0;stroke-opacity:0.8;" x="380.211444" xlink:href="#mf63bd1cfec" y="190.069497"/>
     <use style="fill:#4c72b0;fill-opacity:0.8;stroke:#4c72b0;stroke-opacity:0.8;" x="292.199259" xlink:href="#mf63bd1cfec" y="240.896415"/>
     <use style="fill:#4c72b0;fill-opacity:0.8;stroke:#4c72b0;stroke-opacity:0.8;" x="390.669583" xlink:href="#mf63bd1cfec" y="250.041369"/>
     <use style="fill:#4c72b0;fill-opacity:0.8;stroke:#4c72b0;stroke-opacity:0.8;" x="388.712416" xlink:href="#mf63bd1cfec" y="248.355065"/>
     <use style="fill:#4c72b0;fill-opacity:0.8;stroke:#4c72b0;stroke-opacity:0.8;" x="401.439707" xlink:href="#mf63bd1cfec" y="261.590386"/>
     <use style="fill:#4c72b0;fill-opacity:0.8;stroke:#4c72b0;stroke-opacity:0.8;" x="286.238773" xlink:href="#mf63bd1cfec" y="401.674649"/>
     <use style="fill:#4c72b0;fill-opacity:0.8;stroke:#4c72b0;stroke-opacity:0.8;" x="326.403305" xlink:href="#mf63bd1cfec" y="247.135738"/>
     <use style="fill:#4c72b0;fill-opacity:0.8;stroke:#4c72b0;stroke-opacity:0.8;" x="310.784527" xlink:href="#mf63bd1cfec" y="314.146847"/>
     <use style="fill:#4c72b0;fill-opacity:0.8;stroke:#4c72b0;stroke-opacity:0.8;" x="377.207987" xlink:href="#mf63bd1cfec" y="251.390412"/>
     <use style="fill:#4c72b0;fill-opacity:0.8;stroke:#4c72b0;stroke-opacity:0.8;" x="188.024293" xlink:href="#mf63bd1cfec" y="419.406779"/>
     <use style="fill:#4c72b0;fill-opacity:0.8;stroke:#4c72b0;stroke-opacity:0.8;" x="350.396045" xlink:href="#mf63bd1cfec" y="315.949895"/>
     <use style="fill:#4c72b0;fill-opacity:0.8;stroke:#4c72b0;stroke-opacity:0.8;" x="259.50595" xlink:href="#mf63bd1cfec" y="287.10978"/>
     <use style="fill:#4c72b0;fill-opacity:0.8;stroke:#4c72b0;stroke-opacity:0.8;" x="183.836071" xlink:href="#mf63bd1cfec" y="353.913344"/>
     <use style="fill:#4c72b0;fill-opacity:0.8;stroke:#4c72b0;stroke-opacity:0.8;" x="400.623201" xlink:href="#mf63bd1cfec" y="242.474622"/>
     <use style="fill:#4c72b0;fill-opacity:0.8;stroke:#4c72b0;stroke-opacity:0.8;" x="364.196408" xlink:href="#mf63bd1cfec" y="354.544627"/>
     <use style="fill:#4c72b0;fill-opacity:0.8;stroke:#4c72b0;stroke-opacity:0.8;" x="354.891259" xlink:href="#mf63bd1cfec" y="263.8042"/>
     <use style="fill:#4c72b0;fill-opacity:0.8;stroke:#4c72b0;stroke-opacity:0.8;" x="308.944027" xlink:href="#mf63bd1cfec" y="339.320332"/>
     <use style="fill:#4c72b0;fill-opacity:0.8;stroke:#4c72b0;stroke-opacity:0.8;" x="336.861741" xlink:href="#mf63bd1cfec" y="192.668134"/>
     <use style="fill:#4c72b0;fill-opacity:0.8;stroke:#4c72b0;stroke-opacity:0.8;" x="376.500557" xlink:href="#mf63bd1cfec" y="255.575904"/>
     <use style="fill:#4c72b0;fill-opacity:0.8;stroke:#4c72b0;stroke-opacity:0.8;" x="392.989143" xlink:href="#mf63bd1cfec" y="326.824391"/>
     <use style="fill:#4c72b0;fill-opacity:0.8;stroke:#4c72b0;stroke-opacity:0.8;" x="343.173993" xlink:href="#mf63bd1cfec" y="296.341211"/>
     <use style="fill:#4c72b0;fill-opacity:0.8;stroke:#4c72b0;stroke-opacity:0.8;" x="408.274777" xlink:href="#mf63bd1cfec" y="294.075511"/>
     <use style="fill:#4c72b0;fill-opacity:0.8;stroke:#4c72b0;stroke-opacity:0.8;" x="367.020895" xlink:href="#mf63bd1cfec" y="301.391474"/>
     <use style="fill:#4c72b0;fill-opacity:0.8;stroke:#4c72b0;stroke-opacity:0.8;" x="291.031927" xlink:href="#mf63bd1cfec" y="215.662396"/>
     <use style="fill:#4c72b0;fill-opacity:0.8;stroke:#4c72b0;stroke-opacity:0.8;" x="285.915879" xlink:href="#mf63bd1cfec" y="265.382407"/>
     <use style="fill:#4c72b0;fill-opacity:0.8;stroke:#4c72b0;stroke-opacity:0.8;" x="362.695123" xlink:href="#mf63bd1cfec" y="266.523905"/>
     <use style="fill:#4c72b0;fill-opacity:0.8;stroke:#4c72b0;stroke-opacity:0.8;" x="348.422938" xlink:href="#mf63bd1cfec" y="250.880197"/>
     <use style="fill:#4c72b0;fill-opacity:0.8;stroke:#4c72b0;stroke-opacity:0.8;" x="315.139305" xlink:href="#mf63bd1cfec" y="288.528005"/>
     <use style="fill:#4c72b0;fill-opacity:0.8;stroke:#4c72b0;stroke-opacity:0.8;" x="208.792536" xlink:href="#mf63bd1cfec" y="307.047077"/>
     <use style="fill:#4c72b0;fill-opacity:0.8;stroke:#4c72b0;stroke-opacity:0.8;" x="406.844753" xlink:href="#mf63bd1cfec" y="305.914227"/>
     <use style="fill:#4c72b0;fill-opacity:0.8;stroke:#4c72b0;stroke-opacity:0.8;" x="318.476536" xlink:href="#mf63bd1cfec" y="215.268925"/>
     <use style="fill:#4c72b0;fill-opacity:0.8;stroke:#4c72b0;stroke-opacity:0.8;" x="158.857101" xlink:href="#mf63bd1cfec" y="235.444034"/>
     <use style="fill:#4c72b0;fill-opacity:0.8;stroke:#4c72b0;stroke-opacity:0.8;" x="278.23625" xlink:href="#mf63bd1cfec" y="205.75212"/>
     <use style="fill:#4c72b0;fill-opacity:0.8;stroke:#4c72b0;stroke-opacity:0.8;" x="315.919953" xlink:href="#mf63bd1cfec" y="342.334059"/>
     <use style="fill:#4c72b0;fill-opacity:0.8;stroke:#4c72b0;stroke-opacity:0.8;" x="246.791036" xlink:href="#mf63bd1cfec" y="340.288876"/>
     <use style="fill:#4c72b0;fill-opacity:0.8;stroke:#4c72b0;stroke-opacity:0.8;" x="237.754329" xlink:href="#mf63bd1cfec" y="302.494057"/>
     <use style="fill:#4c72b0;fill-opacity:0.8;stroke:#4c72b0;stroke-opacity:0.8;" x="267.515156" xlink:href="#mf63bd1cfec" y="240.243513"/>
     <use style="fill:#4c72b0;fill-opacity:0.8;stroke:#4c72b0;stroke-opacity:0.8;" x="373.967935" xlink:href="#mf63bd1cfec" y="235.625636"/>
     <use style="fill:#4c72b0;fill-opacity:0.8;stroke:#4c72b0;stroke-opacity:0.8;" x="310.834789" xlink:href="#mf63bd1cfec" y="295.956388"/>
     <use style="fill:#4c72b0;fill-opacity:0.8;stroke:#4c72b0;stroke-opacity:0.8;" x="384.351848" xlink:href="#mf63bd1cfec" y="269.585195"/>
     <use style="fill:#4c72b0;fill-opacity:0.8;stroke:#4c72b0;stroke-opacity:0.8;" x="366.57482" xlink:href="#mf63bd1cfec" y="344.158726"/>
     <use style="fill:#4c72b0;fill-opacity:0.8;stroke:#4c72b0;stroke-opacity:0.8;" x="369.104394" xlink:href="#mf63bd1cfec" y="246.37474"/>
     <use style="fill:#4c72b0;fill-opacity:0.8;stroke:#4c72b0;stroke-opacity:0.8;" x="329.670236" xlink:href="#mf63bd1cfec" y="262.437862"/>
     <use style="fill:#4c72b0;fill-opacity:0.8;stroke:#4c72b0;stroke-opacity:0.8;" x="382.948404" xlink:href="#mf63bd1cfec" y="268.880406"/>
     <use style="fill:#4c72b0;fill-opacity:0.8;stroke:#4c72b0;stroke-opacity:0.8;" x="344.604027" xlink:href="#mf63bd1cfec" y="258.91392"/>
     <use style="fill:#4c72b0;fill-opacity:0.8;stroke:#4c72b0;stroke-opacity:0.8;" x="333.067905" xlink:href="#mf63bd1cfec" y="252.968619"/>
     <use style="fill:#4c72b0;fill-opacity:0.8;stroke:#4c72b0;stroke-opacity:0.8;" x="380.749486" xlink:href="#mf63bd1cfec" y="200.330005"/>
     <use style="fill:#4c72b0;fill-opacity:0.8;stroke:#4c72b0;stroke-opacity:0.8;" x="365.594442" xlink:href="#mf63bd1cfec" y="197.320602"/>
     <use style="fill:#4c72b0;fill-opacity:0.8;stroke:#4c72b0;stroke-opacity:0.8;" x="279.857691" xlink:href="#mf63bd1cfec" y="207.516253"/>
     <use style="fill:#4c72b0;fill-opacity:0.8;stroke:#4c72b0;stroke-opacity:0.8;" x="286.202212" xlink:href="#mf63bd1cfec" y="183.177271"/>
     <use style="fill:#4c72b0;fill-opacity:0.8;stroke:#4c72b0;stroke-opacity:0.8;" x="137.816707" xlink:href="#mf63bd1cfec" y="348.573383"/>
     <use style="fill:#4c72b0;fill-opacity:0.8;stroke:#4c72b0;stroke-opacity:0.8;" x="393.098059" xlink:href="#mf63bd1cfec" y="324.88298"/>
     <use style="fill:#4c72b0;fill-opacity:0.8;stroke:#4c72b0;stroke-opacity:0.8;" x="297.02071" xlink:href="#mf63bd1cfec" y="396.451432"/>
     <use style="fill:#4c72b0;fill-opacity:0.8;stroke:#4c72b0;stroke-opacity:0.8;" x="385.670069" xlink:href="#mf63bd1cfec" y="267.237341"/>
     <use style="fill:#4c72b0;fill-opacity:0.8;stroke:#4c72b0;stroke-opacity:0.8;" x="352.044805" xlink:href="#mf63bd1cfec" y="318.124794"/>
     <use style="fill:#4c72b0;fill-opacity:0.8;stroke:#4c72b0;stroke-opacity:0.8;" x="405.479378" xlink:href="#mf63bd1cfec" y="240.675899"/>
     <use style="fill:#4c72b0;fill-opacity:0.8;stroke:#4c72b0;stroke-opacity:0.8;" x="305.02487" xlink:href="#mf63bd1cfec" y="285.492658"/>
     <use style="fill:#4c72b0;fill-opacity:0.8;stroke:#4c72b0;stroke-opacity:0.8;" x="386.673101" xlink:href="#mf63bd1cfec" y="198.254555"/>
     <use style="fill:#4c72b0;fill-opacity:0.8;stroke:#4c72b0;stroke-opacity:0.8;" x="76.815" xlink:href="#mf63bd1cfec" y="329.319255"/>
     <use style="fill:#4c72b0;fill-opacity:0.8;stroke:#4c72b0;stroke-opacity:0.8;" x="363.227727" xlink:href="#mf63bd1cfec" y="263.52315"/>
     <use style="fill:#4c72b0;fill-opacity:0.8;stroke:#4c72b0;stroke-opacity:0.8;" x="314.930343" xlink:href="#mf63bd1cfec" y="329.116034"/>
     <use style="fill:#4c72b0;fill-opacity:0.8;stroke:#4c72b0;stroke-opacity:0.8;" x="387.947827" xlink:href="#mf63bd1cfec" y="296.297973"/>
     <use style="fill:#4c72b0;fill-opacity:0.8;stroke:#4c72b0;stroke-opacity:0.8;" x="349.899678" xlink:href="#mf63bd1cfec" y="296.55308"/>
     <use style="fill:#4c72b0;fill-opacity:0.8;stroke:#4c72b0;stroke-opacity:0.8;" x="259.920127" xlink:href="#mf63bd1cfec" y="349.394915"/>
     <use style="fill:#4c72b0;fill-opacity:0.8;stroke:#4c72b0;stroke-opacity:0.8;" x="406.397219" xlink:href="#mf63bd1cfec" y="271.734151"/>
     <use style="fill:#4c72b0;fill-opacity:0.8;stroke:#4c72b0;stroke-opacity:0.8;" x="345.166772" xlink:href="#mf63bd1cfec" y="106.342364"/>
     <use style="fill:#4c72b0;fill-opacity:0.8;stroke:#4c72b0;stroke-opacity:0.8;" x="386.979271" xlink:href="#mf63bd1cfec" y="267.730261"/>
     <use style="fill:#4c72b0;fill-opacity:0.8;stroke:#4c72b0;stroke-opacity:0.8;" x="414.660857" xlink:href="#mf63bd1cfec" y="262.277879"/>
     <use style="fill:#4c72b0;fill-opacity:0.8;stroke:#4c72b0;stroke-opacity:0.8;" x="318.791992" xlink:href="#mf63bd1cfec" y="299.830562"/>
     <use style="fill:#4c72b0;fill-opacity:0.8;stroke:#4c72b0;stroke-opacity:0.8;" x="289.213582" xlink:href="#mf63bd1cfec" y="344.080897"/>
     <use style="fill:#4c72b0;fill-opacity:0.8;stroke:#4c72b0;stroke-opacity:0.8;" x="243.366783" xlink:href="#mf63bd1cfec" y="335.87422"/>
     <use style="fill:#4c72b0;fill-opacity:0.8;stroke:#4c72b0;stroke-opacity:0.8;" x="276.830359" xlink:href="#mf63bd1cfec" y="317.121659"/>
     <use style="fill:#4c72b0;fill-opacity:0.8;stroke:#4c72b0;stroke-opacity:0.8;" x="339.731793" xlink:href="#mf63bd1cfec" y="203.71126"/>
     <use style="fill:#4c72b0;fill-opacity:0.8;stroke:#4c72b0;stroke-opacity:0.8;" x="358.655697" xlink:href="#mf63bd1cfec" y="305.179171"/>
     <use style="fill:#4c72b0;fill-opacity:0.8;stroke:#4c72b0;stroke-opacity:0.8;" x="327.803107" xlink:href="#mf63bd1cfec" y="274.345759"/>
     <use style="fill:#4c72b0;fill-opacity:0.8;stroke:#4c72b0;stroke-opacity:0.8;" x="160.230008" xlink:href="#mf63bd1cfec" y="322.967512"/>
     <use style="fill:#4c72b0;fill-opacity:0.8;stroke:#4c72b0;stroke-opacity:0.8;" x="212.30737" xlink:href="#mf63bd1cfec" y="317.830772"/>
     <use style="fill:#4c72b0;fill-opacity:0.8;stroke:#4c72b0;stroke-opacity:0.8;" x="295.789562" xlink:href="#mf63bd1cfec" y="267.194103"/>
     <use style="fill:#4c72b0;fill-opacity:0.8;stroke:#4c72b0;stroke-opacity:0.8;" x="369.019891" xlink:href="#mf63bd1cfec" y="320.91368"/>
     <use style="fill:#4c72b0;fill-opacity:0.8;stroke:#4c72b0;stroke-opacity:0.8;" x="296.880317" xlink:href="#mf63bd1cfec" y="309.905145"/>
     <use style="fill:#4c72b0;fill-opacity:0.8;stroke:#4c72b0;stroke-opacity:0.8;" x="342.331559" xlink:href="#mf63bd1cfec" y="264.387921"/>
     <use style="fill:#4c72b0;fill-opacity:0.8;stroke:#4c72b0;stroke-opacity:0.8;" x="341.330354" xlink:href="#mf63bd1cfec" y="259.601413"/>
     <use style="fill:#4c72b0;fill-opacity:0.8;stroke:#4c72b0;stroke-opacity:0.8;" x="171.557353" xlink:href="#mf63bd1cfec" y="392.010832"/>
     <use style="fill:#4c72b0;fill-opacity:0.8;stroke:#4c72b0;stroke-opacity:0.8;" x="293.316593" xlink:href="#mf63bd1cfec" y="340.87692"/>
     <use style="fill:#4c72b0;fill-opacity:0.8;stroke:#4c72b0;stroke-opacity:0.8;" x="383.062114" xlink:href="#mf63bd1cfec" y="304.037673"/>
     <use style="fill:#4c72b0;fill-opacity:0.8;stroke:#4c72b0;stroke-opacity:0.8;" x="271.163213" xlink:href="#mf63bd1cfec" y="347.86427"/>
     <use style="fill:#4c72b0;fill-opacity:0.8;stroke:#4c72b0;stroke-opacity:0.8;" x="252.737626" xlink:href="#mf63bd1cfec" y="358.228551"/>
     <use style="fill:#4c72b0;fill-opacity:0.8;stroke:#4c72b0;stroke-opacity:0.8;" x="234.246305" xlink:href="#mf63bd1cfec" y="208.579921"/>
     <use style="fill:#4c72b0;fill-opacity:0.8;stroke:#4c72b0;stroke-opacity:0.8;" x="385.759512" xlink:href="#mf63bd1cfec" y="279.037142"/>
     <use style="fill:#4c72b0;fill-opacity:0.8;stroke:#4c72b0;stroke-opacity:0.8;" x="386.979271" xlink:href="#mf63bd1cfec" y="269.54628"/>
     <use style="fill:#4c72b0;fill-opacity:0.8;stroke:#4c72b0;stroke-opacity:0.8;" x="260.803936" xlink:href="#mf63bd1cfec" y="207.533548"/>
     <use style="fill:#4c72b0;fill-opacity:0.8;stroke:#4c72b0;stroke-opacity:0.8;" x="406.67395" xlink:href="#mf63bd1cfec" y="317.701056"/>
     <use style="fill:#4c72b0;fill-opacity:0.8;stroke:#4c72b0;stroke-opacity:0.8;" x="403.238668" xlink:href="#mf63bd1cfec" y="235.638607"/>
     <use style="fill:#4c72b0;fill-opacity:0.8;stroke:#4c72b0;stroke-opacity:0.8;" x="287.56024" xlink:href="#mf63bd1cfec" y="208.199422"/>
     <use style="fill:#4c72b0;fill-opacity:0.8;stroke:#4c72b0;stroke-opacity:0.8;" x="361.972335" xlink:href="#mf63bd1cfec" y="244.160926"/>
     <use style="fill:#4c72b0;fill-opacity:0.8;stroke:#4c72b0;stroke-opacity:0.8;" x="399.276864" xlink:href="#mf63bd1cfec" y="313.792291"/>
     <use style="fill:#4c72b0;fill-opacity:0.8;stroke:#4c72b0;stroke-opacity:0.8;" x="327.859124" xlink:href="#mf63bd1cfec" y="305.416983"/>
     <use style="fill:#4c72b0;fill-opacity:0.8;stroke:#4c72b0;stroke-opacity:0.8;" x="411.465456" xlink:href="#mf63bd1cfec" y="180.729969"/>
     <use style="fill:#4c72b0;fill-opacity:0.8;stroke:#4c72b0;stroke-opacity:0.8;" x="383.269335" xlink:href="#mf63bd1cfec" y="245.393225"/>
     <use style="fill:#4c72b0;fill-opacity:0.8;stroke:#4c72b0;stroke-opacity:0.8;" x="392.678117" xlink:href="#mf63bd1cfec" y="257.383275"/>
     <use style="fill:#4c72b0;fill-opacity:0.8;stroke:#4c72b0;stroke-opacity:0.8;" x="413.4158" xlink:href="#mf63bd1cfec" y="294.382505"/>
     <use style="fill:#4c72b0;fill-opacity:0.8;stroke:#4c72b0;stroke-opacity:0.8;" x="326.020769" xlink:href="#mf63bd1cfec" y="334.036581"/>
     <use style="fill:#4c72b0;fill-opacity:0.8;stroke:#4c72b0;stroke-opacity:0.8;" x="271.892064" xlink:href="#mf63bd1cfec" y="308.179927"/>
     <use style="fill:#4c72b0;fill-opacity:0.8;stroke:#4c72b0;stroke-opacity:0.8;" x="401.49337" xlink:href="#mf63bd1cfec" y="220.786164"/>
     <use style="fill:#4c72b0;fill-opacity:0.8;stroke:#4c72b0;stroke-opacity:0.8;" x="296.276607" xlink:href="#mf63bd1cfec" y="274.376026"/>
     <use style="fill:#4c72b0;fill-opacity:0.8;stroke:#4c72b0;stroke-opacity:0.8;" x="366.920838" xlink:href="#mf63bd1cfec" y="333.491775"/>
     <use style="fill:#4c72b0;fill-opacity:0.8;stroke:#4c72b0;stroke-opacity:0.8;" x="379.136084" xlink:href="#mf63bd1cfec" y="285.319704"/>
     <use style="fill:#4c72b0;fill-opacity:0.8;stroke:#4c72b0;stroke-opacity:0.8;" x="221.348796" xlink:href="#mf63bd1cfec" y="309.299805"/>
     <use style="fill:#4c72b0;fill-opacity:0.8;stroke:#4c72b0;stroke-opacity:0.8;" x="288.238297" xlink:href="#mf63bd1cfec" y="282.99347"/>
     <use style="fill:#4c72b0;fill-opacity:0.8;stroke:#4c72b0;stroke-opacity:0.8;" x="405.902736" xlink:href="#mf63bd1cfec" y="356.377941"/>
     <use style="fill:#4c72b0;fill-opacity:0.8;stroke:#4c72b0;stroke-opacity:0.8;" x="376.535704" xlink:href="#mf63bd1cfec" y="291.94385"/>
     <use style="fill:#4c72b0;fill-opacity:0.8;stroke:#4c72b0;stroke-opacity:0.8;" x="347.000337" xlink:href="#mf63bd1cfec" y="286.188799"/>
     <use style="fill:#4c72b0;fill-opacity:0.8;stroke:#4c72b0;stroke-opacity:0.8;" x="311.166763" xlink:href="#mf63bd1cfec" y="273.122108"/>
     <use style="fill:#4c72b0;fill-opacity:0.8;stroke:#4c72b0;stroke-opacity:0.8;" x="364.552326" xlink:href="#mf63bd1cfec" y="254.598712"/>
     <use style="fill:#4c72b0;fill-opacity:0.8;stroke:#4c72b0;stroke-opacity:0.8;" x="276.744089" xlink:href="#mf63bd1cfec" y="239.923548"/>
     <use style="fill:#4c72b0;fill-opacity:0.8;stroke:#4c72b0;stroke-opacity:0.8;" x="375.4659" xlink:href="#mf63bd1cfec" y="230.026243"/>
     <use style="fill:#4c72b0;fill-opacity:0.8;stroke:#4c72b0;stroke-opacity:0.8;" x="320.547809" xlink:href="#mf63bd1cfec" y="244.813828"/>
     <use style="fill:#4c72b0;fill-opacity:0.8;stroke:#4c72b0;stroke-opacity:0.8;" x="373.099251" xlink:href="#mf63bd1cfec" y="316.719541"/>
     <use style="fill:#4c72b0;fill-opacity:0.8;stroke:#4c72b0;stroke-opacity:0.8;" x="216.288384" xlink:href="#mf63bd1cfec" y="355.037546"/>
    </g>
   </g>
   <g id="PolyCollection_1">
    <defs>
     <path d="M 76.815 -195.770079 
L 76.815 -140.898628 
L 80.227584 -142.005804 
L 83.640169 -143.112979 
L 87.052753 -144.220154 
L 90.465338 -145.32733 
L 93.877922 -146.434505 
L 97.290506 -147.541681 
L 100.703091 -148.648856 
L 104.115675 -149.678868 
L 107.52826 -150.628112 
L 110.940844 -151.694021 
L 114.353429 -152.858077 
L 117.766013 -154.022132 
L 121.178597 -155.186187 
L 124.591182 -156.350243 
L 128.003766 -157.403954 
L 131.416351 -158.450105 
L 134.828935 -159.496257 
L 138.241519 -160.542408 
L 141.654104 -161.588559 
L 145.066688 -162.634711 
L 148.479273 -163.696416 
L 151.891857 -164.723623 
L 155.304442 -165.686821 
L 158.717026 -166.648379 
L 162.12961 -167.609936 
L 165.542195 -168.571493 
L 168.954779 -169.533051 
L 172.367364 -170.494608 
L 175.779948 -171.45977 
L 179.192532 -172.583792 
L 182.605117 -173.681816 
L 186.017701 -174.676442 
L 189.430286 -175.675324 
L 192.84287 -176.70506 
L 196.255455 -177.808459 
L 199.668039 -178.841076 
L 203.080623 -179.743296 
L 206.493208 -180.653263 
L 209.905792 -181.645749 
L 213.318377 -182.642415 
L 216.730961 -183.754756 
L 220.143545 -184.896938 
L 223.55613 -186.040832 
L 226.968714 -186.957608 
L 230.381299 -188.007036 
L 233.793883 -189.156461 
L 237.206468 -190.306968 
L 240.619052 -191.458412 
L 244.031636 -192.423414 
L 247.444221 -193.378028 
L 250.856805 -194.337268 
L 254.26939 -195.411115 
L 257.681974 -196.304082 
L 261.094558 -197.317844 
L 264.507143 -198.367125 
L 267.919727 -199.344183 
L 271.332312 -200.424313 
L 274.744896 -201.397041 
L 278.157481 -202.327173 
L 281.570065 -203.178583 
L 284.982649 -204.047975 
L 288.395234 -204.957192 
L 291.807818 -205.845865 
L 295.220403 -206.736025 
L 298.632987 -207.652578 
L 302.045571 -208.602508 
L 305.458156 -209.461362 
L 308.87074 -210.303856 
L 312.283325 -211.145096 
L 315.695909 -211.985161 
L 319.108494 -212.95969 
L 322.521078 -213.851554 
L 325.933662 -214.737413 
L 329.346247 -215.414344 
L 332.758831 -216.172723 
L 336.171416 -216.878849 
L 339.584 -217.581779 
L 342.996584 -218.30151 
L 346.409169 -219.039877 
L 349.821753 -219.720627 
L 353.234338 -220.413544 
L 356.646922 -221.149267 
L 360.059506 -221.751174 
L 363.472091 -222.442362 
L 366.884675 -223.129438 
L 370.29726 -223.799357 
L 373.709844 -224.486546 
L 377.122429 -224.984202 
L 380.535013 -225.608307 
L 383.947597 -226.15651 
L 387.360182 -226.808494 
L 390.772766 -227.461149 
L 394.185351 -228.052247 
L 397.597935 -228.485774 
L 401.010519 -229.023253 
L 404.423104 -229.424069 
L 407.835688 -229.974154 
L 411.248273 -230.43292 
L 414.660857 -230.984041 
L 414.660857 -251.339793 
L 414.660857 -251.339793 
L 411.248273 -250.353539 
L 407.835688 -249.300402 
L 404.423104 -248.265133 
L 401.010519 -247.240947 
L 397.597935 -246.215574 
L 394.185351 -245.230754 
L 390.772766 -244.280589 
L 387.360182 -243.363714 
L 383.947597 -242.390545 
L 380.535013 -241.415378 
L 377.122429 -240.499455 
L 373.709844 -239.555019 
L 370.29726 -238.743322 
L 366.884675 -237.774502 
L 363.472091 -237.032094 
L 360.059506 -236.291905 
L 356.646922 -235.3484 
L 353.234338 -234.546666 
L 349.821753 -233.679338 
L 346.409169 -232.889995 
L 342.996584 -232.151218 
L 339.584 -231.311129 
L 336.171416 -230.661719 
L 332.758831 -229.94988 
L 329.346247 -229.297364 
L 325.933662 -228.67321 
L 322.521078 -227.936046 
L 319.108494 -227.120481 
L 315.695909 -226.46564 
L 312.283325 -225.823433 
L 308.87074 -225.116397 
L 305.458156 -224.563642 
L 302.045571 -223.992102 
L 298.632987 -223.504413 
L 295.220403 -223.105632 
L 291.807818 -222.555428 
L 288.395234 -221.872005 
L 284.982649 -221.341313 
L 281.570065 -220.813219 
L 278.157481 -220.281252 
L 274.744896 -219.751663 
L 271.332312 -219.336999 
L 267.919727 -218.965115 
L 264.507143 -218.59289 
L 261.094558 -218.038493 
L 257.681974 -217.529875 
L 254.26939 -217.099928 
L 250.856805 -216.516192 
L 247.444221 -216.290815 
L 244.031636 -215.980519 
L 240.619052 -215.393435 
L 237.206468 -214.803939 
L 233.793883 -214.239954 
L 230.381299 -213.909789 
L 226.968714 -213.54672 
L 223.55613 -213.017031 
L 220.143545 -212.589035 
L 216.730961 -212.186167 
L 213.318377 -211.891115 
L 209.905792 -211.401951 
L 206.493208 -211.055449 
L 203.080623 -210.709501 
L 199.668039 -210.381191 
L 196.255455 -210.052881 
L 192.84287 -209.718449 
L 189.430286 -209.357372 
L 186.017701 -208.963339 
L 182.605117 -208.615828 
L 179.192532 -208.268112 
L 175.779948 -207.917836 
L 172.367364 -207.509757 
L 168.954779 -207.072164 
L 165.542195 -206.634571 
L 162.12961 -206.196978 
L 158.717026 -205.75797 
L 155.304442 -205.318283 
L 151.891857 -204.878597 
L 148.479273 -204.43891 
L 145.066688 -203.999224 
L 141.654104 -203.559537 
L 138.241519 -203.119851 
L 134.828935 -202.680164 
L 131.416351 -202.240478 
L 128.003766 -201.800791 
L 124.591182 -201.361104 
L 121.178597 -200.921418 
L 117.766013 -200.481731 
L 114.353429 -200.117673 
L 110.940844 -199.810753 
L 107.52826 -199.503833 
L 104.115675 -199.196912 
L 100.703091 -198.784147 
L 97.290506 -198.355629 
L 93.877922 -197.92711 
L 90.465338 -197.496128 
L 87.052753 -197.064615 
L 83.640169 -196.633103 
L 80.227584 -196.201591 
L 76.815 -195.770079 
z
" id="m436fab4fbd" style="stroke:#ffffff;stroke-opacity:0.15;stroke-width:1.5;"/>
    </defs>
    <g clip-path="url(#p63930cc8e6)">
     <use style="fill:#4c72b0;fill-opacity:0.15;stroke:#ffffff;stroke-opacity:0.15;stroke-width:1.5;" x="0" xlink:href="#m436fab4fbd" y="504"/>
    </g>
   </g>
   <g id="line2d_14">
    <path clip-path="url(#p63930cc8e6)" d="M 76.815 337.715518 
L 80.227584 336.960681 
L 83.640169 336.205845 
L 87.052753 335.451009 
L 90.465338 334.696172 
L 93.877922 333.941336 
L 97.290506 333.1865 
L 100.703091 332.431663 
L 104.115675 331.676827 
L 107.52826 330.921991 
L 110.940844 330.167154 
L 114.353429 329.412318 
L 117.766013 328.657482 
L 121.178597 327.902645 
L 124.591182 327.147809 
L 128.003766 326.392973 
L 131.416351 325.638136 
L 134.828935 324.8833 
L 138.241519 324.128464 
L 141.654104 323.373627 
L 145.066688 322.618791 
L 148.479273 321.863955 
L 151.891857 321.109118 
L 155.304442 320.354282 
L 158.717026 319.599446 
L 162.12961 318.844609 
L 165.542195 318.089773 
L 168.954779 317.334937 
L 172.367364 316.5801 
L 175.779948 315.825264 
L 179.192532 315.070428 
L 182.605117 314.315591 
L 186.017701 313.560755 
L 189.430286 312.805919 
L 192.84287 312.051082 
L 196.255455 311.296246 
L 199.668039 310.54141 
L 203.080623 309.786573 
L 206.493208 309.031737 
L 209.905792 308.276901 
L 213.318377 307.522064 
L 216.730961 306.767228 
L 220.143545 306.012392 
L 223.55613 305.257556 
L 226.968714 304.502719 
L 230.381299 303.747883 
L 233.793883 302.993047 
L 237.206468 302.23821 
L 240.619052 301.483374 
L 244.031636 300.728538 
L 247.444221 299.973701 
L 250.856805 299.218865 
L 254.26939 298.464029 
L 257.681974 297.709192 
L 261.094558 296.954356 
L 264.507143 296.19952 
L 267.919727 295.444683 
L 271.332312 294.689847 
L 274.744896 293.935011 
L 278.157481 293.180174 
L 281.570065 292.425338 
L 284.982649 291.670502 
L 288.395234 290.915665 
L 291.807818 290.160829 
L 295.220403 289.405993 
L 298.632987 288.651156 
L 302.045571 287.89632 
L 305.458156 287.141484 
L 308.87074 286.386647 
L 312.283325 285.631811 
L 315.695909 284.876975 
L 319.108494 284.122138 
L 322.521078 283.367302 
L 325.933662 282.612466 
L 329.346247 281.857629 
L 332.758831 281.102793 
L 336.171416 280.347957 
L 339.584 279.59312 
L 342.996584 278.838284 
L 346.409169 278.083448 
L 349.821753 277.328611 
L 353.234338 276.573775 
L 356.646922 275.818939 
L 360.059506 275.064102 
L 363.472091 274.309266 
L 366.884675 273.55443 
L 370.29726 272.799593 
L 373.709844 272.044757 
L 377.122429 271.289921 
L 380.535013 270.535085 
L 383.947597 269.780248 
L 387.360182 269.025412 
L 390.772766 268.270576 
L 394.185351 267.515739 
L 397.597935 266.760903 
L 401.010519 266.006067 
L 404.423104 265.25123 
L 407.835688 264.496394 
L 411.248273 263.741558 
L 414.660857 262.986721 
" style="fill:none;stroke:#4c72b0;stroke-linecap:round;stroke-width:3.375;"/>
   </g>
   <g id="line2d_15">
    <defs>
     <path d="M 0 4.5 
C 1.193414 4.5 2.338109 4.025852 3.181981 3.181981 
C 4.025852 2.338109 4.5 1.193414 4.5 0 
C 4.5 -1.193414 4.025852 -2.338109 3.181981 -3.181981 
C 2.338109 -4.025852 1.193414 -4.5 0 -4.5 
C -1.193414 -4.5 -2.338109 -4.025852 -3.181981 -3.181981 
C -4.025852 -2.338109 -4.5 -1.193414 -4.5 0 
C -4.5 1.193414 -4.025852 2.338109 -3.181981 3.181981 
C -2.338109 4.025852 -1.193414 4.5 0 4.5 
z
" id="m49e286c0ec" style="stroke:#c44e52;"/>
    </defs>
    <g clip-path="url(#p63930cc8e6)">
     <use style="fill:#c44e52;stroke:#c44e52;" x="345.166772" xlink:href="#m49e286c0ec" y="106.342364"/>
    </g>
   </g>
   <g id="patch_3">
    <path d="M 76.815 435.06 
L 76.815 90.689143 
" style="fill:none;stroke:#262626;stroke-linecap:square;stroke-linejoin:miter;stroke-width:1.875;"/>
   </g>
   <g id="patch_4">
    <path d="M 76.815 435.06 
L 414.660857 435.06 
" style="fill:none;stroke:#262626;stroke-linecap:square;stroke-linejoin:miter;stroke-width:1.875;"/>
   </g>
  </g>
  <g id="axes_2">
   <g id="patch_5">
    <path d="M 76.815 78.814286 
L 414.660857 78.814286 
L 414.660857 19.44 
L 76.815 19.44 
z
" style="fill:#ffffff;"/>
   </g>
   <g id="matplotlib.axis_3">
    <g id="xtick_6"/>
    <g id="xtick_7"/>
    <g id="xtick_8"/>
    <g id="xtick_9"/>
    <g id="xtick_10"/>
   </g>
   <g id="matplotlib.axis_4">
    <g id="ytick_9"/>
    <g id="ytick_10"/>
   </g>
   <g id="patch_6">
    <path clip-path="url(#p460894208f)" d="M 76.815 78.814286 
L 110.599586 78.814286 
L 110.599586 77.660267 
L 76.815 77.660267 
z
" style="fill:#4c72b0;fill-opacity:0.5;stroke:#ffffff;stroke-linejoin:miter;stroke-width:1.5;"/>
   </g>
   <g id="patch_7">
    <path clip-path="url(#p460894208f)" d="M 110.599586 78.814286 
L 144.384171 78.814286 
L 144.384171 74.198209 
L 110.599586 74.198209 
z
" style="fill:#4c72b0;fill-opacity:0.5;stroke:#ffffff;stroke-linejoin:miter;stroke-width:1.5;"/>
   </g>
   <g id="patch_8">
    <path clip-path="url(#p460894208f)" d="M 144.384171 78.814286 
L 178.168757 78.814286 
L 178.168757 75.352228 
L 144.384171 75.352228 
z
" style="fill:#4c72b0;fill-opacity:0.5;stroke:#ffffff;stroke-linejoin:miter;stroke-width:1.5;"/>
   </g>
   <g id="patch_9">
    <path clip-path="url(#p460894208f)" d="M 178.168757 78.814286 
L 211.953343 78.814286 
L 211.953343 71.890171 
L 178.168757 71.890171 
z
" style="fill:#4c72b0;fill-opacity:0.5;stroke:#ffffff;stroke-linejoin:miter;stroke-width:1.5;"/>
   </g>
   <g id="patch_10">
    <path clip-path="url(#p460894208f)" d="M 211.953343 78.814286 
L 245.737929 78.814286 
L 245.737929 60.349979 
L 211.953343 60.349979 
z
" style="fill:#4c72b0;fill-opacity:0.5;stroke:#ffffff;stroke-linejoin:miter;stroke-width:1.5;"/>
   </g>
   <g id="patch_11">
    <path clip-path="url(#p460894208f)" d="M 245.737929 78.814286 
L 279.522514 78.814286 
L 279.522514 58.041941 
L 245.737929 58.041941 
z
" style="fill:#4c72b0;fill-opacity:0.5;stroke:#ffffff;stroke-linejoin:miter;stroke-width:1.5;"/>
   </g>
   <g id="patch_12">
    <path clip-path="url(#p460894208f)" d="M 279.522514 78.814286 
L 313.3071 78.814286 
L 313.3071 45.34773 
L 279.522514 45.34773 
z
" style="fill:#4c72b0;fill-opacity:0.5;stroke:#ffffff;stroke-linejoin:miter;stroke-width:1.5;"/>
   </g>
   <g id="patch_13">
    <path clip-path="url(#p460894208f)" d="M 313.3071 78.814286 
L 347.091686 78.814286 
L 347.091686 43.039692 
L 313.3071 43.039692 
z
" style="fill:#4c72b0;fill-opacity:0.5;stroke:#ffffff;stroke-linejoin:miter;stroke-width:1.5;"/>
   </g>
   <g id="patch_14">
    <path clip-path="url(#p460894208f)" d="M 347.091686 78.814286 
L 380.876271 78.814286 
L 380.876271 38.423615 
L 347.091686 38.423615 
z
" style="fill:#4c72b0;fill-opacity:0.5;stroke:#ffffff;stroke-linejoin:miter;stroke-width:1.5;"/>
   </g>
   <g id="patch_15">
    <path clip-path="url(#p460894208f)" d="M 380.876271 78.814286 
L 414.660857 78.814286 
L 414.660857 22.267347 
L 380.876271 22.267347 
z
" style="fill:#4c72b0;fill-opacity:0.5;stroke:#ffffff;stroke-linejoin:miter;stroke-width:1.5;"/>
   </g>
   <g id="line2d_16">
    <path clip-path="url(#p460894208f)" d="M 76.815 77.871898 
L 95.489897 77.310924 
L 109.07164 76.67499 
L 160.003176 73.785103 
L 170.189483 72.944354 
L 178.678073 72.0013 
L 187.166662 70.811593 
L 195.655251 69.397731 
L 207.539276 67.171735 
L 236.40048 61.690435 
L 246.586788 59.668693 
L 255.075377 57.75733 
L 263.563966 55.58401 
L 275.447991 52.24151 
L 285.634299 49.458827 
L 292.42517 47.855414 
L 297.518324 46.849082 
L 302.611477 46.028926 
L 307.704631 45.389093 
L 314.495503 44.768382 
L 336.565835 43.088088 
L 341.658989 42.411652 
L 346.752142 41.54272 
L 353.543014 40.103893 
L 370.520192 36.184198 
L 373.915628 35.643891 
L 377.311064 35.292703 
L 380.7065 35.17667 
L 384.101935 35.337156 
L 387.497371 35.808191 
L 390.892807 36.614001 
L 394.288243 37.766918 
L 397.683678 39.265881 
L 401.079114 41.095678 
L 404.47455 43.227092 
L 407.869986 45.617976 
L 412.963139 49.572385 
L 414.660857 50.957706 
L 414.660857 50.957706 
" style="fill:none;stroke:#4c72b0;stroke-linecap:round;stroke-width:2.25;"/>
   </g>
   <g id="patch_16">
    <path d="M 76.815 78.814286 
L 414.660857 78.814286 
" style="fill:none;stroke:#262626;stroke-linecap:square;stroke-linejoin:miter;stroke-width:1.875;"/>
   </g>
  </g>
  <g id="axes_3">
   <g id="patch_17">
    <path d="M 426.310714 435.06 
L 484.56 435.06 
L 484.56 90.689143 
L 426.310714 90.689143 
z
" style="fill:#ffffff;"/>
   </g>
   <g id="matplotlib.axis_5">
    <g id="xtick_11"/>
    <g id="xtick_12"/>
   </g>
   <g id="matplotlib.axis_6">
    <g id="ytick_11"/>
    <g id="ytick_12"/>
    <g id="ytick_13"/>
    <g id="ytick_14"/>
    <g id="ytick_15"/>
    <g id="ytick_16"/>
    <g id="ytick_17"/>
    <g id="ytick_18"/>
   </g>
   <g id="patch_18">
    <path clip-path="url(#p42016d0cd0)" d="M 426.310714 419.406779 
L 434.015646 419.406779 
L 434.015646 397.045035 
L 426.310714 397.045035 
z
" style="fill:#4c72b0;fill-opacity:0.5;stroke:#ffffff;stroke-linejoin:miter;stroke-width:1.5;"/>
   </g>
   <g id="patch_19">
    <path clip-path="url(#p42016d0cd0)" d="M 426.310714 397.045035 
L 432.47466 397.045035 
L 432.47466 374.683291 
L 426.310714 374.683291 
z
" style="fill:#4c72b0;fill-opacity:0.5;stroke:#ffffff;stroke-linejoin:miter;stroke-width:1.5;"/>
   </g>
   <g id="patch_20">
    <path clip-path="url(#p42016d0cd0)" d="M 426.310714 374.683291 
L 440.179592 374.683291 
L 440.179592 352.321547 
L 426.310714 352.321547 
z
" style="fill:#4c72b0;fill-opacity:0.5;stroke:#ffffff;stroke-linejoin:miter;stroke-width:1.5;"/>
   </g>
   <g id="patch_21">
    <path clip-path="url(#p42016d0cd0)" d="M 426.310714 352.321547 
L 455.589456 352.321547 
L 455.589456 329.959803 
L 426.310714 329.959803 
z
" style="fill:#4c72b0;fill-opacity:0.5;stroke:#ffffff;stroke-linejoin:miter;stroke-width:1.5;"/>
   </g>
   <g id="patch_22">
    <path clip-path="url(#p42016d0cd0)" d="M 426.310714 329.959803 
L 463.294388 329.959803 
L 463.294388 307.598059 
L 426.310714 307.598059 
z
" style="fill:#4c72b0;fill-opacity:0.5;stroke:#ffffff;stroke-linejoin:miter;stroke-width:1.5;"/>
   </g>
   <g id="patch_23">
    <path clip-path="url(#p42016d0cd0)" d="M 426.310714 307.598059 
L 475.622279 307.598059 
L 475.622279 285.236315 
L 426.310714 285.236315 
z
" style="fill:#4c72b0;fill-opacity:0.5;stroke:#ffffff;stroke-linejoin:miter;stroke-width:1.5;"/>
   </g>
   <g id="patch_24">
    <path clip-path="url(#p42016d0cd0)" d="M 426.310714 285.236315 
L 469.458333 285.236315 
L 469.458333 262.874571 
L 426.310714 262.874571 
z
" style="fill:#4c72b0;fill-opacity:0.5;stroke:#ffffff;stroke-linejoin:miter;stroke-width:1.5;"/>
   </g>
   <g id="patch_25">
    <path clip-path="url(#p42016d0cd0)" d="M 426.310714 262.874571 
L 481.786224 262.874571 
L 481.786224 240.512827 
L 426.310714 240.512827 
z
" style="fill:#4c72b0;fill-opacity:0.5;stroke:#ffffff;stroke-linejoin:miter;stroke-width:1.5;"/>
   </g>
   <g id="patch_26">
    <path clip-path="url(#p42016d0cd0)" d="M 426.310714 240.512827 
L 444.802551 240.512827 
L 444.802551 218.151083 
L 426.310714 218.151083 
z
" style="fill:#4c72b0;fill-opacity:0.5;stroke:#ffffff;stroke-linejoin:miter;stroke-width:1.5;"/>
   </g>
   <g id="patch_27">
    <path clip-path="url(#p42016d0cd0)" d="M 426.310714 218.151083 
L 449.42551 218.151083 
L 449.42551 195.78934 
L 426.310714 195.78934 
z
" style="fill:#4c72b0;fill-opacity:0.5;stroke:#ffffff;stroke-linejoin:miter;stroke-width:1.5;"/>
   </g>
   <g id="patch_28">
    <path clip-path="url(#p42016d0cd0)" d="M 426.310714 195.78934 
L 435.556633 195.78934 
L 435.556633 173.427596 
L 426.310714 173.427596 
z
" style="fill:#4c72b0;fill-opacity:0.5;stroke:#ffffff;stroke-linejoin:miter;stroke-width:1.5;"/>
   </g>
   <g id="patch_29">
    <path clip-path="url(#p42016d0cd0)" d="M 426.310714 173.427596 
L 427.851701 173.427596 
L 427.851701 151.065852 
L 426.310714 151.065852 
z
" style="fill:#4c72b0;fill-opacity:0.5;stroke:#ffffff;stroke-linejoin:miter;stroke-width:1.5;"/>
   </g>
   <g id="patch_30">
    <path clip-path="url(#p42016d0cd0)" d="M 426.310714 151.065852 
L 426.310714 151.065852 
L 426.310714 128.704108 
L 426.310714 128.704108 
z
" style="fill:#4c72b0;fill-opacity:0.5;stroke:#ffffff;stroke-linejoin:miter;stroke-width:1.5;"/>
   </g>
   <g id="patch_31">
    <path clip-path="url(#p42016d0cd0)" d="M 426.310714 128.704108 
L 427.851701 128.704108 
L 427.851701 106.342364 
L 426.310714 106.342364 
z
" style="fill:#4c72b0;fill-opacity:0.5;stroke:#ffffff;stroke-linejoin:miter;stroke-width:1.5;"/>
   </g>
   <g id="line2d_17">
    <path clip-path="url(#p42016d0cd0)" d="M 430.263347 419.406779 
L 431.281643 411.540839 
L 432.04397 403.674899 
L 433.335446 387.943019 
L 434.049284 383.223455 
L 434.715117 380.077079 
L 435.564942 376.930703 
L 436.615631 373.784327 
L 437.87183 370.637951 
L 439.324701 367.491575 
L 441.821378 362.772011 
L 445.547651 356.479259 
L 452.209949 345.466942 
L 455.683271 339.17419 
L 458.833583 332.881438 
L 461.70123 326.588686 
L 464.284976 320.295934 
L 465.979829 315.57637 
L 467.400714 310.856806 
L 468.511594 306.137242 
L 469.334429 301.417678 
L 470.152132 295.124926 
L 471.207232 287.258986 
L 472.051175 282.539422 
L 474.527218 269.953918 
L 474.831649 266.807541 
L 474.840766 263.661165 
L 474.484125 260.514789 
L 473.715172 257.368413 
L 472.517544 254.222037 
L 470.90772 251.075661 
L 468.933786 247.929285 
L 466.670624 244.782909 
L 462.942067 240.063345 
L 457.887167 233.770593 
L 455.5321 230.624217 
L 453.381713 227.477841 
L 451.471703 224.331465 
L 449.810668 221.185089 
L 448.382346 218.038713 
L 447.150583 214.892337 
L 445.562207 210.172773 
L 440.579232 194.440893 
L 437.657615 186.574953 
L 433.507745 175.562636 
L 431.922853 170.843072 
L 430.538569 166.123508 
L 429.38405 161.403944 
L 428.466821 156.68438 
L 427.776695 151.964816 
L 427.291001 147.245252 
L 426.909483 140.9525 
L 426.76143 134.659748 
L 426.812543 125.22062 
L 427.060182 106.342364 
L 427.060182 106.342364 
" style="fill:none;stroke:#4c72b0;stroke-linecap:round;stroke-width:2.25;"/>
   </g>
   <g id="patch_32">
    <path d="M 426.310714 435.06 
L 426.310714 90.689143 
" style="fill:none;stroke:#262626;stroke-linecap:square;stroke-linejoin:miter;stroke-width:1.875;"/>
   </g>
  </g>
 </g>
 <defs>
  <clipPath id="p63930cc8e6">
   <rect height="344.370857" width="337.845857" x="76.815" y="90.689143"/>
  </clipPath>
  <clipPath id="p460894208f">
   <rect height="59.374286" width="337.845857" x="76.815" y="19.44"/>
  </clipPath>
  <clipPath id="p42016d0cd0">
   <rect height="344.370857" width="58.249286" x="426.310714" y="90.689143"/>
  </clipPath>
 </defs>
</svg>
