<?xml version="1.0" encoding="utf-8" standalone="no"?>
<!DOCTYPE svg PUBLIC "-//W3C//DTD SVG 1.1//EN"
  "http://www.w3.org/Graphics/SVG/1.1/DTD/svg11.dtd">
<!-- Created with matplotlib (https://matplotlib.org/) -->
<svg height="504pt" version="1.1" viewBox="0 0 504 504" width="504pt" xmlns="http://www.w3.org/2000/svg" xmlns:xlink="http://www.w3.org/1999/xlink">
 <metadata>
  <rdf:RDF xmlns:cc="http://creativecommons.org/ns#" xmlns:dc="http://purl.org/dc/elements/1.1/" xmlns:rdf="http://www.w3.org/1999/02/22-rdf-syntax-ns#">
   <cc:Work>
    <dc:type rdf:resource="http://purl.org/dc/dcmitype/StillImage"/>
    <dc:date>2021-01-28T23:01:01.633269</dc:date>
    <dc:format>image/svg+xml</dc:format>
    <dc:creator>
     <cc:Agent>
      <dc:title>Matplotlib v3.3.3, https://matplotlib.org/</dc:title>
     </cc:Agent>
    </dc:creator>
   </cc:Work>
  </rdf:RDF>
 </metadata>
 <defs>
  <style type="text/css">*{stroke-linecap:butt;stroke-linejoin:round;}</style>
 </defs>
 <g id="figure_1">
  <g id="patch_1">
   <path d="M 0 504 
L 504 504 
L 504 0 
L 0 0 
z
" style="fill:#ffffff;"/>
  </g>
  <g id="axes_1">
   <g id="patch_2">
    <path d="M 77.080625 434.794375 
L 414.706393 434.794375 
L 414.706393 90.643607 
L 77.080625 90.643607 
z
" style="fill:#ffffff;"/>
   </g>
   <g id="matplotlib.axis_1">
    <g id="xtick_1">
     <g id="text_1">
      <!-- −30 -->
      <g style="fill:#262626;" transform="translate(110.356412 459.104766)scale(0.165 -0.165)">
       <defs>
        <path d="M 52.828125 31.203125 
L 5.5625 31.203125 
L 5.5625 39.40625 
L 52.828125 39.40625 
z
" id="ArialMT-8722"/>
        <path d="M 4.203125 18.890625 
L 12.984375 20.0625 
Q 14.5 12.59375 18.140625 9.296875 
Q 21.78125 6 27 6 
Q 33.203125 6 37.46875 10.296875 
Q 41.75 14.59375 41.75 20.953125 
Q 41.75 27 37.796875 30.921875 
Q 33.84375 34.859375 27.734375 34.859375 
Q 25.25 34.859375 21.53125 33.890625 
L 22.515625 41.609375 
Q 23.390625 41.5 23.921875 41.5 
Q 29.546875 41.5 34.03125 44.421875 
Q 38.53125 47.359375 38.53125 53.46875 
Q 38.53125 58.296875 35.25 61.46875 
Q 31.984375 64.65625 26.8125 64.65625 
Q 21.6875 64.65625 18.265625 61.421875 
Q 14.84375 58.203125 13.875 51.765625 
L 5.078125 53.328125 
Q 6.6875 62.15625 12.390625 67.015625 
Q 18.109375 71.875 26.609375 71.875 
Q 32.46875 71.875 37.390625 69.359375 
Q 42.328125 66.84375 44.9375 62.5 
Q 47.5625 58.15625 47.5625 53.265625 
Q 47.5625 48.640625 45.0625 44.828125 
Q 42.578125 41.015625 37.703125 38.765625 
Q 44.046875 37.3125 47.5625 32.6875 
Q 51.078125 28.078125 51.078125 21.140625 
Q 51.078125 11.765625 44.234375 5.25 
Q 37.40625 -1.265625 26.953125 -1.265625 
Q 17.53125 -1.265625 11.296875 4.34375 
Q 5.078125 9.96875 4.203125 18.890625 
z
" id="ArialMT-51"/>
        <path d="M 4.15625 35.296875 
Q 4.15625 48 6.765625 55.734375 
Q 9.375 63.484375 14.515625 67.671875 
Q 19.671875 71.875 27.484375 71.875 
Q 33.25 71.875 37.59375 69.546875 
Q 41.9375 67.234375 44.765625 62.859375 
Q 47.609375 58.5 49.21875 52.21875 
Q 50.828125 45.953125 50.828125 35.296875 
Q 50.828125 22.703125 48.234375 14.96875 
Q 45.65625 7.234375 40.5 3 
Q 35.359375 -1.21875 27.484375 -1.21875 
Q 17.140625 -1.21875 11.234375 6.203125 
Q 4.15625 15.140625 4.15625 35.296875 
z
M 13.1875 35.296875 
Q 13.1875 17.671875 17.3125 11.828125 
Q 21.4375 6 27.484375 6 
Q 33.546875 6 37.671875 11.859375 
Q 41.796875 17.71875 41.796875 35.296875 
Q 41.796875 52.984375 37.671875 58.78125 
Q 33.546875 64.59375 27.390625 64.59375 
Q 21.34375 64.59375 17.71875 59.46875 
Q 13.1875 52.9375 13.1875 35.296875 
z
" id="ArialMT-48"/>
       </defs>
       <use xlink:href="#ArialMT-8722"/>
       <use x="58.398438" xlink:href="#ArialMT-51"/>
       <use x="114.013672" xlink:href="#ArialMT-48"/>
      </g>
     </g>
    </g>
    <g id="xtick_2">
     <g id="text_2">
      <!-- −20 -->
      <g style="fill:#262626;" transform="translate(169.347862 459.104766)scale(0.165 -0.165)">
       <defs>
        <path d="M 50.34375 8.453125 
L 50.34375 0 
L 3.03125 0 
Q 2.9375 3.171875 4.046875 6.109375 
Q 5.859375 10.9375 9.828125 15.625 
Q 13.8125 20.3125 21.34375 26.46875 
Q 33.015625 36.03125 37.109375 41.625 
Q 41.21875 47.21875 41.21875 52.203125 
Q 41.21875 57.421875 37.46875 61 
Q 33.734375 64.59375 27.734375 64.59375 
Q 21.390625 64.59375 17.578125 60.78125 
Q 13.765625 56.984375 13.71875 50.25 
L 4.6875 51.171875 
Q 5.609375 61.28125 11.65625 66.578125 
Q 17.71875 71.875 27.9375 71.875 
Q 38.234375 71.875 44.234375 66.15625 
Q 50.25 60.453125 50.25 52 
Q 50.25 47.703125 48.484375 43.546875 
Q 46.734375 39.40625 42.65625 34.8125 
Q 38.578125 30.21875 29.109375 22.21875 
Q 21.1875 15.578125 18.9375 13.203125 
Q 16.703125 10.84375 15.234375 8.453125 
z
" id="ArialMT-50"/>
       </defs>
       <use xlink:href="#ArialMT-8722"/>
       <use x="58.398438" xlink:href="#ArialMT-50"/>
       <use x="114.013672" xlink:href="#ArialMT-48"/>
      </g>
     </g>
    </g>
    <g id="xtick_3">
     <g id="text_3">
      <!-- −10 -->
      <g style="fill:#262626;" transform="translate(228.339312 459.104766)scale(0.165 -0.165)">
       <defs>
        <path d="M 37.25 0 
L 28.46875 0 
L 28.46875 56 
Q 25.296875 52.984375 20.140625 49.953125 
Q 14.984375 46.921875 10.890625 45.40625 
L 10.890625 53.90625 
Q 18.265625 57.375 23.78125 62.296875 
Q 29.296875 67.234375 31.59375 71.875 
L 37.25 71.875 
z
" id="ArialMT-49"/>
       </defs>
       <use xlink:href="#ArialMT-8722"/>
       <use x="58.398438" xlink:href="#ArialMT-49"/>
       <use x="114.013672" xlink:href="#ArialMT-48"/>
      </g>
     </g>
    </g>
    <g id="xtick_4">
     <g id="text_4">
      <!-- 0 -->
      <g style="fill:#262626;" transform="translate(296.737052 459.104766)scale(0.165 -0.165)">
       <use xlink:href="#ArialMT-48"/>
      </g>
     </g>
    </g>
    <g id="xtick_5">
     <g id="text_5">
      <!-- 10 -->
      <g style="fill:#262626;" transform="translate(351.140729 459.104766)scale(0.165 -0.165)">
       <use xlink:href="#ArialMT-49"/>
       <use x="55.615234" xlink:href="#ArialMT-48"/>
      </g>
     </g>
    </g>
    <g id="text_6">
     <!-- Psychometric threshold  -->
     <g style="fill:#262626;" transform="translate(149.860696 479.268203)scale(0.18 -0.18)">
      <defs>
       <path d="M 7.71875 0 
L 7.71875 71.578125 
L 34.71875 71.578125 
Q 41.84375 71.578125 45.609375 70.90625 
Q 50.875 70.015625 54.4375 67.546875 
Q 58.015625 65.09375 60.1875 60.640625 
Q 62.359375 56.203125 62.359375 50.875 
Q 62.359375 41.75 56.546875 35.421875 
Q 50.734375 29.109375 35.546875 29.109375 
L 17.1875 29.109375 
L 17.1875 0 
z
M 17.1875 37.546875 
L 35.6875 37.546875 
Q 44.875 37.546875 48.734375 40.96875 
Q 52.59375 44.390625 52.59375 50.59375 
Q 52.59375 55.078125 50.3125 58.265625 
Q 48.046875 61.46875 44.34375 62.5 
Q 41.9375 63.140625 35.5 63.140625 
L 17.1875 63.140625 
z
" id="ArialMT-80"/>
       <path d="M 3.078125 15.484375 
L 11.765625 16.84375 
Q 12.5 11.625 15.84375 8.84375 
Q 19.1875 6.0625 25.203125 6.0625 
Q 31.25 6.0625 34.171875 8.515625 
Q 37.109375 10.984375 37.109375 14.3125 
Q 37.109375 17.28125 34.515625 19 
Q 32.71875 20.171875 25.53125 21.96875 
Q 15.875 24.421875 12.140625 26.203125 
Q 8.40625 27.984375 6.46875 31.125 
Q 4.546875 34.28125 4.546875 38.09375 
Q 4.546875 41.546875 6.125 44.5 
Q 7.71875 47.46875 10.453125 49.421875 
Q 12.5 50.921875 16.03125 51.96875 
Q 19.578125 53.03125 23.640625 53.03125 
Q 29.734375 53.03125 34.34375 51.265625 
Q 38.96875 49.515625 41.15625 46.5 
Q 43.359375 43.5 44.1875 38.484375 
L 35.59375 37.3125 
Q 35.015625 41.3125 32.203125 43.546875 
Q 29.390625 45.796875 24.265625 45.796875 
Q 18.21875 45.796875 15.625 43.796875 
Q 13.03125 41.796875 13.03125 39.109375 
Q 13.03125 37.40625 14.109375 36.03125 
Q 15.1875 34.625 17.484375 33.6875 
Q 18.796875 33.203125 25.25 31.453125 
Q 34.578125 28.953125 38.25 27.359375 
Q 41.9375 25.78125 44.03125 22.75 
Q 46.140625 19.734375 46.140625 15.234375 
Q 46.140625 10.84375 43.578125 6.953125 
Q 41.015625 3.078125 36.171875 0.953125 
Q 31.34375 -1.171875 25.25 -1.171875 
Q 15.140625 -1.171875 9.84375 3.03125 
Q 4.546875 7.234375 3.078125 15.484375 
z
" id="ArialMT-115"/>
       <path d="M 6.203125 -19.96875 
L 5.21875 -11.71875 
Q 8.109375 -12.5 10.25 -12.5 
Q 13.1875 -12.5 14.9375 -11.515625 
Q 16.703125 -10.546875 17.828125 -8.796875 
Q 18.65625 -7.46875 20.515625 -2.25 
Q 20.75 -1.515625 21.296875 -0.09375 
L 1.609375 51.859375 
L 11.078125 51.859375 
L 21.875 21.828125 
Q 23.96875 16.109375 25.640625 9.8125 
Q 27.15625 15.875 29.25 21.625 
L 40.328125 51.859375 
L 49.125 51.859375 
L 29.390625 -0.875 
Q 26.21875 -9.421875 24.46875 -12.640625 
Q 22.125 -17 19.09375 -19.015625 
Q 16.0625 -21.046875 11.859375 -21.046875 
Q 9.328125 -21.046875 6.203125 -19.96875 
z
" id="ArialMT-121"/>
       <path d="M 40.4375 19 
L 49.078125 17.875 
Q 47.65625 8.9375 41.8125 3.875 
Q 35.984375 -1.171875 27.484375 -1.171875 
Q 16.84375 -1.171875 10.375 5.78125 
Q 3.90625 12.75 3.90625 25.734375 
Q 3.90625 34.125 6.6875 40.421875 
Q 9.46875 46.734375 15.15625 49.875 
Q 20.84375 53.03125 27.546875 53.03125 
Q 35.984375 53.03125 41.359375 48.75 
Q 46.734375 44.484375 48.25 36.625 
L 39.703125 35.296875 
Q 38.484375 40.53125 35.375 43.15625 
Q 32.28125 45.796875 27.875 45.796875 
Q 21.234375 45.796875 17.078125 41.03125 
Q 12.9375 36.28125 12.9375 25.984375 
Q 12.9375 15.53125 16.9375 10.796875 
Q 20.953125 6.0625 27.390625 6.0625 
Q 32.5625 6.0625 36.03125 9.234375 
Q 39.5 12.40625 40.4375 19 
z
" id="ArialMT-99"/>
       <path d="M 6.59375 0 
L 6.59375 71.578125 
L 15.375 71.578125 
L 15.375 45.90625 
Q 21.53125 53.03125 30.90625 53.03125 
Q 36.671875 53.03125 40.921875 50.75 
Q 45.171875 48.484375 47 44.484375 
Q 48.828125 40.484375 48.828125 32.859375 
L 48.828125 0 
L 40.046875 0 
L 40.046875 32.859375 
Q 40.046875 39.453125 37.1875 42.453125 
Q 34.328125 45.453125 29.109375 45.453125 
Q 25.203125 45.453125 21.75 43.421875 
Q 18.3125 41.40625 16.84375 37.9375 
Q 15.375 34.46875 15.375 28.375 
L 15.375 0 
z
" id="ArialMT-104"/>
       <path d="M 3.328125 25.921875 
Q 3.328125 40.328125 11.328125 47.265625 
Q 18.015625 53.03125 27.640625 53.03125 
Q 38.328125 53.03125 45.109375 46.015625 
Q 51.90625 39.015625 51.90625 26.65625 
Q 51.90625 16.65625 48.90625 10.90625 
Q 45.90625 5.171875 40.15625 2 
Q 34.421875 -1.171875 27.640625 -1.171875 
Q 16.75 -1.171875 10.03125 5.8125 
Q 3.328125 12.796875 3.328125 25.921875 
z
M 12.359375 25.921875 
Q 12.359375 15.96875 16.703125 11.015625 
Q 21.046875 6.0625 27.640625 6.0625 
Q 34.1875 6.0625 38.53125 11.03125 
Q 42.875 16.015625 42.875 26.21875 
Q 42.875 35.84375 38.5 40.796875 
Q 34.125 45.75 27.640625 45.75 
Q 21.046875 45.75 16.703125 40.8125 
Q 12.359375 35.890625 12.359375 25.921875 
z
" id="ArialMT-111"/>
       <path d="M 6.59375 0 
L 6.59375 51.859375 
L 14.453125 51.859375 
L 14.453125 44.578125 
Q 16.890625 48.390625 20.9375 50.703125 
Q 25 53.03125 30.171875 53.03125 
Q 35.9375 53.03125 39.625 50.640625 
Q 43.3125 48.25 44.828125 43.953125 
Q 50.984375 53.03125 60.84375 53.03125 
Q 68.5625 53.03125 72.703125 48.75 
Q 76.859375 44.484375 76.859375 35.59375 
L 76.859375 0 
L 68.109375 0 
L 68.109375 32.671875 
Q 68.109375 37.9375 67.25 40.25 
Q 66.40625 42.578125 64.15625 43.984375 
Q 61.921875 45.40625 58.890625 45.40625 
Q 53.421875 45.40625 49.796875 41.765625 
Q 46.1875 38.140625 46.1875 30.125 
L 46.1875 0 
L 37.40625 0 
L 37.40625 33.6875 
Q 37.40625 39.546875 35.25 42.46875 
Q 33.109375 45.40625 28.21875 45.40625 
Q 24.515625 45.40625 21.359375 43.453125 
Q 18.21875 41.5 16.796875 37.734375 
Q 15.375 33.984375 15.375 26.90625 
L 15.375 0 
z
" id="ArialMT-109"/>
       <path d="M 42.09375 16.703125 
L 51.171875 15.578125 
Q 49.03125 7.625 43.21875 3.21875 
Q 37.40625 -1.171875 28.375 -1.171875 
Q 17 -1.171875 10.328125 5.828125 
Q 3.65625 12.84375 3.65625 25.484375 
Q 3.65625 38.578125 10.390625 45.796875 
Q 17.140625 53.03125 27.875 53.03125 
Q 38.28125 53.03125 44.875 45.953125 
Q 51.46875 38.875 51.46875 26.03125 
Q 51.46875 25.25 51.421875 23.6875 
L 12.75 23.6875 
Q 13.234375 15.140625 17.578125 10.59375 
Q 21.921875 6.0625 28.421875 6.0625 
Q 33.25 6.0625 36.671875 8.59375 
Q 40.09375 11.140625 42.09375 16.703125 
z
M 13.234375 30.90625 
L 42.1875 30.90625 
Q 41.609375 37.453125 38.875 40.71875 
Q 34.671875 45.796875 27.984375 45.796875 
Q 21.921875 45.796875 17.796875 41.75 
Q 13.671875 37.703125 13.234375 30.90625 
z
" id="ArialMT-101"/>
       <path d="M 25.78125 7.859375 
L 27.046875 0.09375 
Q 23.34375 -0.6875 20.40625 -0.6875 
Q 15.625 -0.6875 12.984375 0.828125 
Q 10.359375 2.34375 9.28125 4.8125 
Q 8.203125 7.28125 8.203125 15.1875 
L 8.203125 45.015625 
L 1.765625 45.015625 
L 1.765625 51.859375 
L 8.203125 51.859375 
L 8.203125 64.703125 
L 16.9375 69.96875 
L 16.9375 51.859375 
L 25.78125 51.859375 
L 25.78125 45.015625 
L 16.9375 45.015625 
L 16.9375 14.703125 
Q 16.9375 10.9375 17.40625 9.859375 
Q 17.875 8.796875 18.921875 8.15625 
Q 19.96875 7.515625 21.921875 7.515625 
Q 23.390625 7.515625 25.78125 7.859375 
z
" id="ArialMT-116"/>
       <path d="M 6.5 0 
L 6.5 51.859375 
L 14.40625 51.859375 
L 14.40625 44 
Q 17.4375 49.515625 20 51.265625 
Q 22.5625 53.03125 25.640625 53.03125 
Q 30.078125 53.03125 34.671875 50.203125 
L 31.640625 42.046875 
Q 28.421875 43.953125 25.203125 43.953125 
Q 22.3125 43.953125 20.015625 42.21875 
Q 17.71875 40.484375 16.75 37.40625 
Q 15.28125 32.71875 15.28125 27.15625 
L 15.28125 0 
z
" id="ArialMT-114"/>
       <path d="M 6.640625 61.46875 
L 6.640625 71.578125 
L 15.4375 71.578125 
L 15.4375 61.46875 
z
M 6.640625 0 
L 6.640625 51.859375 
L 15.4375 51.859375 
L 15.4375 0 
z
" id="ArialMT-105"/>
       <path id="ArialMT-32"/>
       <path d="M 6.390625 0 
L 6.390625 71.578125 
L 15.1875 71.578125 
L 15.1875 0 
z
" id="ArialMT-108"/>
       <path d="M 40.234375 0 
L 40.234375 6.546875 
Q 35.296875 -1.171875 25.734375 -1.171875 
Q 19.53125 -1.171875 14.328125 2.25 
Q 9.125 5.671875 6.265625 11.796875 
Q 3.421875 17.921875 3.421875 25.875 
Q 3.421875 33.640625 6 39.96875 
Q 8.59375 46.296875 13.765625 49.65625 
Q 18.953125 53.03125 25.34375 53.03125 
Q 30.03125 53.03125 33.6875 51.046875 
Q 37.359375 49.078125 39.65625 45.90625 
L 39.65625 71.578125 
L 48.390625 71.578125 
L 48.390625 0 
z
M 12.453125 25.875 
Q 12.453125 15.921875 16.640625 10.984375 
Q 20.84375 6.0625 26.5625 6.0625 
Q 32.328125 6.0625 36.34375 10.765625 
Q 40.375 15.484375 40.375 25.140625 
Q 40.375 35.796875 36.265625 40.765625 
Q 32.171875 45.75 26.171875 45.75 
Q 20.3125 45.75 16.375 40.96875 
Q 12.453125 36.1875 12.453125 25.875 
z
" id="ArialMT-100"/>
      </defs>
      <use xlink:href="#ArialMT-80"/>
      <use x="66.699219" xlink:href="#ArialMT-115"/>
      <use x="116.699219" xlink:href="#ArialMT-121"/>
      <use x="166.699219" xlink:href="#ArialMT-99"/>
      <use x="216.699219" xlink:href="#ArialMT-104"/>
      <use x="272.314453" xlink:href="#ArialMT-111"/>
      <use x="327.929688" xlink:href="#ArialMT-109"/>
      <use x="411.230469" xlink:href="#ArialMT-101"/>
      <use x="466.845703" xlink:href="#ArialMT-116"/>
      <use x="494.628906" xlink:href="#ArialMT-114"/>
      <use x="527.929688" xlink:href="#ArialMT-105"/>
      <use x="550.146484" xlink:href="#ArialMT-99"/>
      <use x="600.146484" xlink:href="#ArialMT-32"/>
      <use x="627.929688" xlink:href="#ArialMT-116"/>
      <use x="655.712891" xlink:href="#ArialMT-104"/>
      <use x="711.328125" xlink:href="#ArialMT-114"/>
      <use x="744.628906" xlink:href="#ArialMT-101"/>
      <use x="800.244141" xlink:href="#ArialMT-115"/>
      <use x="850.244141" xlink:href="#ArialMT-104"/>
      <use x="905.859375" xlink:href="#ArialMT-111"/>
      <use x="961.474609" xlink:href="#ArialMT-108"/>
      <use x="983.691406" xlink:href="#ArialMT-100"/>
      <use x="1039.306641" xlink:href="#ArialMT-32"/>
     </g>
     <!--  Session 1 -->
     <g style="fill:#262626;" transform="translate(203.87054 498.517516)scale(0.18 -0.18)">
      <defs>
       <path d="M 4.5 23 
L 13.421875 23.78125 
Q 14.0625 18.40625 16.375 14.96875 
Q 18.703125 11.53125 23.578125 9.40625 
Q 28.46875 7.28125 34.578125 7.28125 
Q 39.984375 7.28125 44.140625 8.890625 
Q 48.296875 10.5 50.3125 13.296875 
Q 52.34375 16.109375 52.34375 19.4375 
Q 52.34375 22.796875 50.390625 25.3125 
Q 48.4375 27.828125 43.953125 29.546875 
Q 41.0625 30.671875 31.203125 33.03125 
Q 21.34375 35.40625 17.390625 37.5 
Q 12.25 40.1875 9.734375 44.15625 
Q 7.234375 48.140625 7.234375 53.078125 
Q 7.234375 58.5 10.296875 63.203125 
Q 13.375 67.921875 19.28125 70.359375 
Q 25.203125 72.796875 32.421875 72.796875 
Q 40.375 72.796875 46.453125 70.234375 
Q 52.546875 67.671875 55.8125 62.6875 
Q 59.078125 57.71875 59.328125 51.421875 
L 50.25 50.734375 
Q 49.515625 57.515625 45.28125 60.984375 
Q 41.0625 64.453125 32.8125 64.453125 
Q 24.21875 64.453125 20.28125 61.296875 
Q 16.359375 58.15625 16.359375 53.71875 
Q 16.359375 49.859375 19.140625 47.359375 
Q 21.875 44.875 33.421875 42.265625 
Q 44.96875 39.65625 49.265625 37.703125 
Q 55.515625 34.8125 58.484375 30.390625 
Q 61.46875 25.984375 61.46875 20.21875 
Q 61.46875 14.5 58.203125 9.4375 
Q 54.9375 4.390625 48.796875 1.578125 
Q 42.671875 -1.21875 35.015625 -1.21875 
Q 25.296875 -1.21875 18.71875 1.609375 
Q 12.15625 4.4375 8.421875 10.125 
Q 4.6875 15.828125 4.5 23 
z
" id="ArialMT-83"/>
       <path d="M 6.59375 0 
L 6.59375 51.859375 
L 14.5 51.859375 
L 14.5 44.484375 
Q 20.21875 53.03125 31 53.03125 
Q 35.6875 53.03125 39.625 51.34375 
Q 43.5625 49.65625 45.515625 46.921875 
Q 47.46875 44.1875 48.25 40.4375 
Q 48.734375 37.984375 48.734375 31.890625 
L 48.734375 0 
L 39.9375 0 
L 39.9375 31.546875 
Q 39.9375 36.921875 38.90625 39.578125 
Q 37.890625 42.234375 35.28125 43.8125 
Q 32.671875 45.40625 29.15625 45.40625 
Q 23.53125 45.40625 19.453125 41.84375 
Q 15.375 38.28125 15.375 28.328125 
L 15.375 0 
z
" id="ArialMT-110"/>
      </defs>
      <use xlink:href="#ArialMT-32"/>
      <use x="27.783203" xlink:href="#ArialMT-83"/>
      <use x="94.482422" xlink:href="#ArialMT-101"/>
      <use x="150.097656" xlink:href="#ArialMT-115"/>
      <use x="200.097656" xlink:href="#ArialMT-115"/>
      <use x="250.097656" xlink:href="#ArialMT-105"/>
      <use x="272.314453" xlink:href="#ArialMT-111"/>
      <use x="327.929688" xlink:href="#ArialMT-110"/>
      <use x="383.544922" xlink:href="#ArialMT-32"/>
      <use x="411.328125" xlink:href="#ArialMT-49"/>
     </g>
    </g>
   </g>
   <g id="matplotlib.axis_2">
    <g id="ytick_1">
     <g id="text_7">
      <!-- −30 -->
      <g style="fill:#262626;" transform="translate(36.5925 386.909009)scale(0.165 -0.165)">
       <use xlink:href="#ArialMT-8722"/>
       <use x="58.398438" xlink:href="#ArialMT-51"/>
       <use x="114.013672" xlink:href="#ArialMT-48"/>
      </g>
     </g>
    </g>
    <g id="ytick_2">
     <g id="text_8">
      <!-- −20 -->
      <g style="fill:#262626;" transform="translate(36.5925 328.46356)scale(0.165 -0.165)">
       <use xlink:href="#ArialMT-8722"/>
       <use x="58.398438" xlink:href="#ArialMT-50"/>
       <use x="114.013672" xlink:href="#ArialMT-48"/>
      </g>
     </g>
    </g>
    <g id="ytick_3">
     <g id="text_9">
      <!-- −10 -->
      <g style="fill:#262626;" transform="translate(36.5925 270.01811)scale(0.165 -0.165)">
       <use xlink:href="#ArialMT-8722"/>
       <use x="58.398438" xlink:href="#ArialMT-49"/>
       <use x="114.013672" xlink:href="#ArialMT-48"/>
      </g>
     </g>
    </g>
    <g id="ytick_4">
     <g id="text_10">
      <!-- 0 -->
      <g style="fill:#262626;" transform="translate(55.405078 211.572661)scale(0.165 -0.165)">
       <use xlink:href="#ArialMT-48"/>
      </g>
     </g>
    </g>
    <g id="ytick_5">
     <g id="text_11">
      <!-- 10 -->
      <g style="fill:#262626;" transform="translate(46.229531 153.127212)scale(0.165 -0.165)">
       <use xlink:href="#ArialMT-49"/>
       <use x="55.615234" xlink:href="#ArialMT-48"/>
      </g>
     </g>
    </g>
    <g id="text_12">
     <!-- Psychometric threshold  -->
     <g style="fill:#262626;" transform="translate(9.765687 358.751804)rotate(-90)scale(0.18 -0.18)">
      <use xlink:href="#ArialMT-80"/>
      <use x="66.699219" xlink:href="#ArialMT-115"/>
      <use x="116.699219" xlink:href="#ArialMT-121"/>
      <use x="166.699219" xlink:href="#ArialMT-99"/>
      <use x="216.699219" xlink:href="#ArialMT-104"/>
      <use x="272.314453" xlink:href="#ArialMT-111"/>
      <use x="327.929688" xlink:href="#ArialMT-109"/>
      <use x="411.230469" xlink:href="#ArialMT-101"/>
      <use x="466.845703" xlink:href="#ArialMT-116"/>
      <use x="494.628906" xlink:href="#ArialMT-114"/>
      <use x="527.929688" xlink:href="#ArialMT-105"/>
      <use x="550.146484" xlink:href="#ArialMT-99"/>
      <use x="600.146484" xlink:href="#ArialMT-32"/>
      <use x="627.929688" xlink:href="#ArialMT-116"/>
      <use x="655.712891" xlink:href="#ArialMT-104"/>
      <use x="711.328125" xlink:href="#ArialMT-114"/>
      <use x="744.628906" xlink:href="#ArialMT-101"/>
      <use x="800.244141" xlink:href="#ArialMT-115"/>
      <use x="850.244141" xlink:href="#ArialMT-104"/>
      <use x="905.859375" xlink:href="#ArialMT-111"/>
      <use x="961.474609" xlink:href="#ArialMT-108"/>
      <use x="983.691406" xlink:href="#ArialMT-100"/>
      <use x="1039.306641" xlink:href="#ArialMT-32"/>
     </g>
     <!--  Session 2 -->
     <g style="fill:#262626;" transform="translate(29.015 304.74196)rotate(-90)scale(0.18 -0.18)">
      <use xlink:href="#ArialMT-32"/>
      <use x="27.783203" xlink:href="#ArialMT-83"/>
      <use x="94.482422" xlink:href="#ArialMT-101"/>
      <use x="150.097656" xlink:href="#ArialMT-115"/>
      <use x="200.097656" xlink:href="#ArialMT-115"/>
      <use x="250.097656" xlink:href="#ArialMT-105"/>
      <use x="272.314453" xlink:href="#ArialMT-111"/>
      <use x="327.929688" xlink:href="#ArialMT-110"/>
      <use x="383.544922" xlink:href="#ArialMT-32"/>
      <use x="411.328125" xlink:href="#ArialMT-50"/>
     </g>
    </g>
   </g>
   <g id="PathCollection_1">
    <defs>
     <path d="M 0 4.5 
C 1.193414 4.5 2.338109 4.025852 3.181981 3.181981 
C 4.025852 2.338109 4.5 1.193414 4.5 0 
C 4.5 -1.193414 4.025852 -2.338109 3.181981 -3.181981 
C 2.338109 -4.025852 1.193414 -4.5 0 -4.5 
C -1.193414 -4.5 -2.338109 -4.025852 -3.181981 -3.181981 
C -4.025852 -2.338109 -4.5 -1.193414 -4.5 0 
C -4.5 1.193414 -4.025852 2.338109 -3.181981 3.181981 
C -2.338109 4.025852 -1.193414 4.5 0 4.5 
z
" id="m270b4fa4c9" style="stroke:#4c72b0;stroke-opacity:0.8;"/>
    </defs>
    <g clip-path="url(#pb05a266c1b)">
     <use style="fill:#4c72b0;fill-opacity:0.8;stroke:#4c72b0;stroke-opacity:0.8;" x="381.181552" xlink:href="#m270b4fa4c9" y="163.481541"/>
     <use style="fill:#4c72b0;fill-opacity:0.8;stroke:#4c72b0;stroke-opacity:0.8;" x="288.913024" xlink:href="#m270b4fa4c9" y="384.405339"/>
     <use style="fill:#4c72b0;fill-opacity:0.8;stroke:#4c72b0;stroke-opacity:0.8;" x="246.993699" xlink:href="#m270b4fa4c9" y="266.976742"/>
     <use style="fill:#4c72b0;fill-opacity:0.8;stroke:#4c72b0;stroke-opacity:0.8;" x="355.968606" xlink:href="#m270b4fa4c9" y="200.255417"/>
     <use style="fill:#4c72b0;fill-opacity:0.8;stroke:#4c72b0;stroke-opacity:0.8;" x="188.55087" xlink:href="#m270b4fa4c9" y="346.427486"/>
     <use style="fill:#4c72b0;fill-opacity:0.8;stroke:#4c72b0;stroke-opacity:0.8;" x="276.353744" xlink:href="#m270b4fa4c9" y="198.992995"/>
     <use style="fill:#4c72b0;fill-opacity:0.8;stroke:#4c72b0;stroke-opacity:0.8;" x="315.630252" xlink:href="#m270b4fa4c9" y="215.737617"/>
     <use style="fill:#4c72b0;fill-opacity:0.8;stroke:#4c72b0;stroke-opacity:0.8;" x="225.214056" xlink:href="#m270b4fa4c9" y="251.471164"/>
     <use style="fill:#4c72b0;fill-opacity:0.8;stroke:#4c72b0;stroke-opacity:0.8;" x="181.259526" xlink:href="#m270b4fa4c9" y="308.911352"/>
     <use style="fill:#4c72b0;fill-opacity:0.8;stroke:#4c72b0;stroke-opacity:0.8;" x="178.54592" xlink:href="#m270b4fa4c9" y="221.243178"/>
     <use style="fill:#4c72b0;fill-opacity:0.8;stroke:#4c72b0;stroke-opacity:0.8;" x="298.735101" xlink:href="#m270b4fa4c9" y="305.825432"/>
     <use style="fill:#4c72b0;fill-opacity:0.8;stroke:#4c72b0;stroke-opacity:0.8;" x="323.310939" xlink:href="#m270b4fa4c9" y="291.833592"/>
     <use style="fill:#4c72b0;fill-opacity:0.8;stroke:#4c72b0;stroke-opacity:0.8;" x="282.482956" xlink:href="#m270b4fa4c9" y="269.869792"/>
     <use style="fill:#4c72b0;fill-opacity:0.8;stroke:#4c72b0;stroke-opacity:0.8;" x="186.40948" xlink:href="#m270b4fa4c9" y="356.632061"/>
     <use style="fill:#4c72b0;fill-opacity:0.8;stroke:#4c72b0;stroke-opacity:0.8;" x="301.967832" xlink:href="#m270b4fa4c9" y="234.183"/>
     <use style="fill:#4c72b0;fill-opacity:0.8;stroke:#4c72b0;stroke-opacity:0.8;" x="187.707292" xlink:href="#m270b4fa4c9" y="288.361932"/>
     <use style="fill:#4c72b0;fill-opacity:0.8;stroke:#4c72b0;stroke-opacity:0.8;" x="308.362505" xlink:href="#m270b4fa4c9" y="250.711374"/>
     <use style="fill:#4c72b0;fill-opacity:0.8;stroke:#4c72b0;stroke-opacity:0.8;" x="351.090013" xlink:href="#m270b4fa4c9" y="395.7496"/>
     <use style="fill:#4c72b0;fill-opacity:0.8;stroke:#4c72b0;stroke-opacity:0.8;" x="265.546511" xlink:href="#m270b4fa4c9" y="336.965168"/>
     <use style="fill:#4c72b0;fill-opacity:0.8;stroke:#4c72b0;stroke-opacity:0.8;" x="226.104827" xlink:href="#m270b4fa4c9" y="408.227704"/>
     <use style="fill:#4c72b0;fill-opacity:0.8;stroke:#4c72b0;stroke-opacity:0.8;" x="414.706393" xlink:href="#m270b4fa4c9" y="171.675592"/>
     <use style="fill:#4c72b0;fill-opacity:0.8;stroke:#4c72b0;stroke-opacity:0.8;" x="225.04888" xlink:href="#m270b4fa4c9" y="313.060979"/>
     <use style="fill:#4c72b0;fill-opacity:0.8;stroke:#4c72b0;stroke-opacity:0.8;" x="191.411955" xlink:href="#m270b4fa4c9" y="240.86916"/>
     <use style="fill:#4c72b0;fill-opacity:0.8;stroke:#4c72b0;stroke-opacity:0.8;" x="230.275522" xlink:href="#m270b4fa4c9" y="329.115944"/>
     <use style="fill:#4c72b0;fill-opacity:0.8;stroke:#4c72b0;stroke-opacity:0.8;" x="258.367251" xlink:href="#m270b4fa4c9" y="220.004134"/>
     <use style="fill:#4c72b0;fill-opacity:0.8;stroke:#4c72b0;stroke-opacity:0.8;" x="77.080625" xlink:href="#m270b4fa4c9" y="283.037552"/>
     <use style="fill:#4c72b0;fill-opacity:0.8;stroke:#4c72b0;stroke-opacity:0.8;" x="358.711708" xlink:href="#m270b4fa4c9" y="275.562379"/>
     <use style="fill:#4c72b0;fill-opacity:0.8;stroke:#4c72b0;stroke-opacity:0.8;" x="273.905599" xlink:href="#m270b4fa4c9" y="271.82187"/>
     <use style="fill:#4c72b0;fill-opacity:0.8;stroke:#4c72b0;stroke-opacity:0.8;" x="302.516453" xlink:href="#m270b4fa4c9" y="218.244926"/>
     <use style="fill:#4c72b0;fill-opacity:0.8;stroke:#4c72b0;stroke-opacity:0.8;" x="121.324213" xlink:href="#m270b4fa4c9" y="314.866943"/>
     <use style="fill:#4c72b0;fill-opacity:0.8;stroke:#4c72b0;stroke-opacity:0.8;" x="210.784747" xlink:href="#m270b4fa4c9" y="339.513389"/>
     <use style="fill:#4c72b0;fill-opacity:0.8;stroke:#4c72b0;stroke-opacity:0.8;" x="280.884288" xlink:href="#m270b4fa4c9" y="196.403862"/>
     <use style="fill:#4c72b0;fill-opacity:0.8;stroke:#4c72b0;stroke-opacity:0.8;" x="367.884879" xlink:href="#m270b4fa4c9" y="188.630617"/>
     <use style="fill:#4c72b0;fill-opacity:0.8;stroke:#4c72b0;stroke-opacity:0.8;" x="283.025677" xlink:href="#m270b4fa4c9" y="230.997723"/>
     <use style="fill:#4c72b0;fill-opacity:0.8;stroke:#4c72b0;stroke-opacity:0.8;" x="248.728048" xlink:href="#m270b4fa4c9" y="329.460772"/>
     <use style="fill:#4c72b0;fill-opacity:0.8;stroke:#4c72b0;stroke-opacity:0.8;" x="300.310172" xlink:href="#m270b4fa4c9" y="265.252601"/>
     <use style="fill:#4c72b0;fill-opacity:0.8;stroke:#4c72b0;stroke-opacity:0.8;" x="299.973921" xlink:href="#m270b4fa4c9" y="292.581693"/>
     <use style="fill:#4c72b0;fill-opacity:0.8;stroke:#4c72b0;stroke-opacity:0.8;" x="252.43861" xlink:href="#m270b4fa4c9" y="285.579929"/>
     <use style="fill:#4c72b0;fill-opacity:0.8;stroke:#4c72b0;stroke-opacity:0.8;" x="127.777877" xlink:href="#m270b4fa4c9" y="328.963986"/>
     <use style="fill:#4c72b0;fill-opacity:0.8;stroke:#4c72b0;stroke-opacity:0.8;" x="245.383233" xlink:href="#m270b4fa4c9" y="240.348995"/>
     <use style="fill:#4c72b0;fill-opacity:0.8;stroke:#4c72b0;stroke-opacity:0.8;" x="290.033862" xlink:href="#m270b4fa4c9" y="126.000474"/>
     <use style="fill:#4c72b0;fill-opacity:0.8;stroke:#4c72b0;stroke-opacity:0.8;" x="154.689777" xlink:href="#m270b4fa4c9" y="310.448467"/>
     <use style="fill:#4c72b0;fill-opacity:0.8;stroke:#4c72b0;stroke-opacity:0.8;" x="258.266966" xlink:href="#m270b4fa4c9" y="279.65356"/>
     <use style="fill:#4c72b0;fill-opacity:0.8;stroke:#4c72b0;stroke-opacity:0.8;" x="270.779052" xlink:href="#m270b4fa4c9" y="231.804271"/>
     <use style="fill:#4c72b0;fill-opacity:0.8;stroke:#4c72b0;stroke-opacity:0.8;" x="259.735853" xlink:href="#m270b4fa4c9" y="216.20518"/>
     <use style="fill:#4c72b0;fill-opacity:0.8;stroke:#4c72b0;stroke-opacity:0.8;" x="344.064131" xlink:href="#m270b4fa4c9" y="133.370445"/>
     <use style="fill:#4c72b0;fill-opacity:0.8;stroke:#4c72b0;stroke-opacity:0.8;" x="100.22887" xlink:href="#m270b4fa4c9" y="300.337404"/>
     <use style="fill:#4c72b0;fill-opacity:0.8;stroke:#4c72b0;stroke-opacity:0.8;" x="144.153904" xlink:href="#m270b4fa4c9" y="371.775277"/>
     <use style="fill:#4c72b0;fill-opacity:0.8;stroke:#4c72b0;stroke-opacity:0.8;" x="276.613307" xlink:href="#m270b4fa4c9" y="188.963756"/>
     <use style="fill:#4c72b0;fill-opacity:0.8;stroke:#4c72b0;stroke-opacity:0.8;" x="188.89302" xlink:href="#m270b4fa4c9" y="373.850091"/>
     <use style="fill:#4c72b0;fill-opacity:0.8;stroke:#4c72b0;stroke-opacity:0.8;" x="230.470194" xlink:href="#m270b4fa4c9" y="241.208143"/>
     <use style="fill:#4c72b0;fill-opacity:0.8;stroke:#4c72b0;stroke-opacity:0.8;" x="233.46696" xlink:href="#m270b4fa4c9" y="358.350357"/>
     <use style="fill:#4c72b0;fill-opacity:0.8;stroke:#4c72b0;stroke-opacity:0.8;" x="186.037834" xlink:href="#m270b4fa4c9" y="411.401292"/>
     <use style="fill:#4c72b0;fill-opacity:0.8;stroke:#4c72b0;stroke-opacity:0.8;" x="289.202082" xlink:href="#m270b4fa4c9" y="230.313912"/>
     <use style="fill:#4c72b0;fill-opacity:0.8;stroke:#4c72b0;stroke-opacity:0.8;" x="397.563477" xlink:href="#m270b4fa4c9" y="164.182886"/>
     <use style="fill:#4c72b0;fill-opacity:0.8;stroke:#4c72b0;stroke-opacity:0.8;" x="229.490936" xlink:href="#m270b4fa4c9" y="234.165467"/>
     <use style="fill:#4c72b0;fill-opacity:0.8;stroke:#4c72b0;stroke-opacity:0.8;" x="295.095328" xlink:href="#m270b4fa4c9" y="397.730901"/>
     <use style="fill:#4c72b0;fill-opacity:0.8;stroke:#4c72b0;stroke-opacity:0.8;" x="237.018245" xlink:href="#m270b4fa4c9" y="230.968501"/>
     <use style="fill:#4c72b0;fill-opacity:0.8;stroke:#4c72b0;stroke-opacity:0.8;" x="196.709387" xlink:href="#m270b4fa4c9" y="245.112299"/>
     <use style="fill:#4c72b0;fill-opacity:0.8;stroke:#4c72b0;stroke-opacity:0.8;" x="290.836145" xlink:href="#m270b4fa4c9" y="227.280593"/>
     <use style="fill:#4c72b0;fill-opacity:0.8;stroke:#4c72b0;stroke-opacity:0.8;" x="334.784776" xlink:href="#m270b4fa4c9" y="216.994194"/>
     <use style="fill:#4c72b0;fill-opacity:0.8;stroke:#4c72b0;stroke-opacity:0.8;" x="236.98285" xlink:href="#m270b4fa4c9" y="378.373768"/>
     <use style="fill:#4c72b0;fill-opacity:0.8;stroke:#4c72b0;stroke-opacity:0.8;" x="387.770897" xlink:href="#m270b4fa4c9" y="159.068909"/>
     <use style="fill:#4c72b0;fill-opacity:0.8;stroke:#4c72b0;stroke-opacity:0.8;" x="318.898378" xlink:href="#m270b4fa4c9" y="243.095931"/>
     <use style="fill:#4c72b0;fill-opacity:0.8;stroke:#4c72b0;stroke-opacity:0.8;" x="305.825873" xlink:href="#m270b4fa4c9" y="230.728874"/>
     <use style="fill:#4c72b0;fill-opacity:0.8;stroke:#4c72b0;stroke-opacity:0.8;" x="306.014646" xlink:href="#m270b4fa4c9" y="232.026363"/>
     <use style="fill:#4c72b0;fill-opacity:0.8;stroke:#4c72b0;stroke-opacity:0.8;" x="289.780198" xlink:href="#m270b4fa4c9" y="180.383964"/>
     <use style="fill:#4c72b0;fill-opacity:0.8;stroke:#4c72b0;stroke-opacity:0.8;" x="99.113932" xlink:href="#m270b4fa4c9" y="337.234017"/>
     <use style="fill:#4c72b0;fill-opacity:0.8;stroke:#4c72b0;stroke-opacity:0.8;" x="219.385701" xlink:href="#m270b4fa4c9" y="315.620889"/>
     <use style="fill:#4c72b0;fill-opacity:0.8;stroke:#4c72b0;stroke-opacity:0.8;" x="304.66964" xlink:href="#m270b4fa4c9" y="242.832927"/>
     <use style="fill:#4c72b0;fill-opacity:0.8;stroke:#4c72b0;stroke-opacity:0.8;" x="215.793121" xlink:href="#m270b4fa4c9" y="288.221663"/>
     <use style="fill:#4c72b0;fill-opacity:0.8;stroke:#4c72b0;stroke-opacity:0.8;" x="227.968957" xlink:href="#m270b4fa4c9" y="172.604875"/>
     <use style="fill:#4c72b0;fill-opacity:0.8;stroke:#4c72b0;stroke-opacity:0.8;" x="255.287897" xlink:href="#m270b4fa4c9" y="241.798443"/>
     <use style="fill:#4c72b0;fill-opacity:0.8;stroke:#4c72b0;stroke-opacity:0.8;" x="164.169703" xlink:href="#m270b4fa4c9" y="289.881514"/>
     <use style="fill:#4c72b0;fill-opacity:0.8;stroke:#4c72b0;stroke-opacity:0.8;" x="163.396915" xlink:href="#m270b4fa4c9" y="281.693306"/>
     <use style="fill:#4c72b0;fill-opacity:0.8;stroke:#4c72b0;stroke-opacity:0.8;" x="285.692091" xlink:href="#m270b4fa4c9" y="162.172362"/>
     <use style="fill:#4c72b0;fill-opacity:0.8;stroke:#4c72b0;stroke-opacity:0.8;" x="183.395017" xlink:href="#m270b4fa4c9" y="246.777995"/>
     <use style="fill:#4c72b0;fill-opacity:0.8;stroke:#4c72b0;stroke-opacity:0.8;" x="384.797728" xlink:href="#m270b4fa4c9" y="106.286824"/>
     <use style="fill:#4c72b0;fill-opacity:0.8;stroke:#4c72b0;stroke-opacity:0.8;" x="298.469639" xlink:href="#m270b4fa4c9" y="205.99476"/>
     <use style="fill:#4c72b0;fill-opacity:0.8;stroke:#4c72b0;stroke-opacity:0.8;" x="200.514336" xlink:href="#m270b4fa4c9" y="210.407392"/>
     <use style="fill:#4c72b0;fill-opacity:0.8;stroke:#4c72b0;stroke-opacity:0.8;" x="245.601501" xlink:href="#m270b4fa4c9" y="262.797892"/>
     <use style="fill:#4c72b0;fill-opacity:0.8;stroke:#4c72b0;stroke-opacity:0.8;" x="236.392936" xlink:href="#m270b4fa4c9" y="227.035122"/>
     <use style="fill:#4c72b0;fill-opacity:0.8;stroke:#4c72b0;stroke-opacity:0.8;" x="353.945199" xlink:href="#m270b4fa4c9" y="238.846947"/>
     <use style="fill:#4c72b0;fill-opacity:0.8;stroke:#4c72b0;stroke-opacity:0.8;" x="285.184764" xlink:href="#m270b4fa4c9" y="228.572237"/>
     <use style="fill:#4c72b0;fill-opacity:0.8;stroke:#4c72b0;stroke-opacity:0.8;" x="283.403223" xlink:href="#m270b4fa4c9" y="225.012909"/>
     <use style="fill:#4c72b0;fill-opacity:0.8;stroke:#4c72b0;stroke-opacity:0.8;" x="304.492666" xlink:href="#m270b4fa4c9" y="218.940427"/>
     <use style="fill:#4c72b0;fill-opacity:0.8;stroke:#4c72b0;stroke-opacity:0.8;" x="253.75412" xlink:href="#m270b4fa4c9" y="212.260112"/>
     <use style="fill:#4c72b0;fill-opacity:0.8;stroke:#4c72b0;stroke-opacity:0.8;" x="228.470384" xlink:href="#m270b4fa4c9" y="222.897184"/>
     <use style="fill:#4c72b0;fill-opacity:0.8;stroke:#4c72b0;stroke-opacity:0.8;" x="229.803591" xlink:href="#m270b4fa4c9" y="356.871688"/>
     <use style="fill:#4c72b0;fill-opacity:0.8;stroke:#4c72b0;stroke-opacity:0.8;" x="351.980784" xlink:href="#m270b4fa4c9" y="261.360134"/>
     <use style="fill:#4c72b0;fill-opacity:0.8;stroke:#4c72b0;stroke-opacity:0.8;" x="325.912462" xlink:href="#m270b4fa4c9" y="272.920644"/>
     <use style="fill:#4c72b0;fill-opacity:0.8;stroke:#4c72b0;stroke-opacity:0.8;" x="366.044345" xlink:href="#m270b4fa4c9" y="162.084694"/>
     <use style="fill:#4c72b0;fill-opacity:0.8;stroke:#4c72b0;stroke-opacity:0.8;" x="179.631362" xlink:href="#m270b4fa4c9" y="230.220399"/>
     <use style="fill:#4c72b0;fill-opacity:0.8;stroke:#4c72b0;stroke-opacity:0.8;" x="182.75201" xlink:href="#m270b4fa4c9" y="341.833673"/>
     <use style="fill:#4c72b0;fill-opacity:0.8;stroke:#4c72b0;stroke-opacity:0.8;" x="318.656513" xlink:href="#m270b4fa4c9" y="249.0223"/>
     <use style="fill:#4c72b0;fill-opacity:0.8;stroke:#4c72b0;stroke-opacity:0.8;" x="326.360797" xlink:href="#m270b4fa4c9" y="244.71487"/>
     <use style="fill:#4c72b0;fill-opacity:0.8;stroke:#4c72b0;stroke-opacity:0.8;" x="279.503888" xlink:href="#m270b4fa4c9" y="302.540798"/>
     <use style="fill:#4c72b0;fill-opacity:0.8;stroke:#4c72b0;stroke-opacity:0.8;" x="195.128416" xlink:href="#m270b4fa4c9" y="276.95338"/>
     <use style="fill:#4c72b0;fill-opacity:0.8;stroke:#4c72b0;stroke-opacity:0.8;" x="176.54021" xlink:href="#m270b4fa4c9" y="266.263708"/>
     <use style="fill:#4c72b0;fill-opacity:0.8;stroke:#4c72b0;stroke-opacity:0.8;" x="310.728062" xlink:href="#m270b4fa4c9" y="241.8978"/>
     <use style="fill:#4c72b0;fill-opacity:0.8;stroke:#4c72b0;stroke-opacity:0.8;" x="287.497229" xlink:href="#m270b4fa4c9" y="258.443706"/>
     <use style="fill:#4c72b0;fill-opacity:0.8;stroke:#4c72b0;stroke-opacity:0.8;" x="280.571633" xlink:href="#m270b4fa4c9" y="277.198851"/>
     <use style="fill:#4c72b0;fill-opacity:0.8;stroke:#4c72b0;stroke-opacity:0.8;" x="279.840139" xlink:href="#m270b4fa4c9" y="265.042198"/>
     <use style="fill:#4c72b0;fill-opacity:0.8;stroke:#4c72b0;stroke-opacity:0.8;" x="293.508458" xlink:href="#m270b4fa4c9" y="222.435465"/>
     <use style="fill:#4c72b0;fill-opacity:0.8;stroke:#4c72b0;stroke-opacity:0.8;" x="302.66983" xlink:href="#m270b4fa4c9" y="165.983006"/>
     <use style="fill:#4c72b0;fill-opacity:0.8;stroke:#4c72b0;stroke-opacity:0.8;" x="374.179266" xlink:href="#m270b4fa4c9" y="239.998323"/>
     <use style="fill:#4c72b0;fill-opacity:0.8;stroke:#4c72b0;stroke-opacity:0.8;" x="378.096299" xlink:href="#m270b4fa4c9" y="250.17952"/>
     <use style="fill:#4c72b0;fill-opacity:0.8;stroke:#4c72b0;stroke-opacity:0.8;" x="365.035592" xlink:href="#m270b4fa4c9" y="259.045695"/>
     <use style="fill:#4c72b0;fill-opacity:0.8;stroke:#4c72b0;stroke-opacity:0.8;" x="395.970708" xlink:href="#m270b4fa4c9" y="399.647912"/>
     <use style="fill:#4c72b0;fill-opacity:0.8;stroke:#4c72b0;stroke-opacity:0.8;" x="172.115852" xlink:href="#m270b4fa4c9" y="364.802735"/>
     <use style="fill:#4c72b0;fill-opacity:0.8;stroke:#4c72b0;stroke-opacity:0.8;" x="202.838599" xlink:href="#m270b4fa4c9" y="215.147318"/>
     <use style="fill:#4c72b0;fill-opacity:0.8;stroke:#4c72b0;stroke-opacity:0.8;" x="203.192548" xlink:href="#m270b4fa4c9" y="281.395234"/>
     <use style="fill:#4c72b0;fill-opacity:0.8;stroke:#4c72b0;stroke-opacity:0.8;" x="262.614636" xlink:href="#m270b4fa4c9" y="246.12925"/>
     <use style="fill:#4c72b0;fill-opacity:0.8;stroke:#4c72b0;stroke-opacity:0.8;" x="104.623733" xlink:href="#m270b4fa4c9" y="366.889238"/>
     <use style="fill:#4c72b0;fill-opacity:0.8;stroke:#4c72b0;stroke-opacity:0.8;" x="282.960787" xlink:href="#m270b4fa4c9" y="235.801939"/>
     <use style="fill:#4c72b0;fill-opacity:0.8;stroke:#4c72b0;stroke-opacity:0.8;" x="212.937935" xlink:href="#m270b4fa4c9" y="308.893818"/>
     <use style="fill:#4c72b0;fill-opacity:0.8;stroke:#4c72b0;stroke-opacity:0.8;" x="255.848316" xlink:href="#m270b4fa4c9" y="307.450216"/>
     <use style="fill:#4c72b0;fill-opacity:0.8;stroke:#4c72b0;stroke-opacity:0.8;" x="376.892873" xlink:href="#m270b4fa4c9" y="139.805289"/>
     <use style="fill:#4c72b0;fill-opacity:0.8;stroke:#4c72b0;stroke-opacity:0.8;" x="197.10463" xlink:href="#m270b4fa4c9" y="338.648396"/>
     <use style="fill:#4c72b0;fill-opacity:0.8;stroke:#4c72b0;stroke-opacity:0.8;" x="286.099132" xlink:href="#m270b4fa4c9" y="279.595115"/>
     <use style="fill:#4c72b0;fill-opacity:0.8;stroke:#4c72b0;stroke-opacity:0.8;" x="295.620352" xlink:href="#m270b4fa4c9" y="301.629049"/>
     <use style="fill:#4c72b0;fill-opacity:0.8;stroke:#4c72b0;stroke-opacity:0.8;" x="196.473421" xlink:href="#m270b4fa4c9" y="239.641805"/>
     <use style="fill:#4c72b0;fill-opacity:0.8;stroke:#4c72b0;stroke-opacity:0.8;" x="242.168199" xlink:href="#m270b4fa4c9" y="238.864481"/>
     <use style="fill:#4c72b0;fill-opacity:0.8;stroke:#4c72b0;stroke-opacity:0.8;" x="242.351072" xlink:href="#m270b4fa4c9" y="230.793164"/>
     <use style="fill:#4c72b0;fill-opacity:0.8;stroke:#4c72b0;stroke-opacity:0.8;" x="170.175033" xlink:href="#m270b4fa4c9" y="408.742024"/>
     <use style="fill:#4c72b0;fill-opacity:0.8;stroke:#4c72b0;stroke-opacity:0.8;" x="276.58971" xlink:href="#m270b4fa4c9" y="241.985468"/>
     <use style="fill:#4c72b0;fill-opacity:0.8;stroke:#4c72b0;stroke-opacity:0.8;" x="288.94252" xlink:href="#m270b4fa4c9" y="249.945738"/>
     <use style="fill:#4c72b0;fill-opacity:0.8;stroke:#4c72b0;stroke-opacity:0.8;" x="239.05345" xlink:href="#m270b4fa4c9" y="348.192538"/>
     <use style="fill:#4c72b0;fill-opacity:0.8;stroke:#4c72b0;stroke-opacity:0.8;" x="188.845827" xlink:href="#m270b4fa4c9" y="236.596798"/>
     <use style="fill:#4c72b0;fill-opacity:0.8;stroke:#4c72b0;stroke-opacity:0.8;" x="368.020559" xlink:href="#m270b4fa4c9" y="175.597282"/>
     <use style="fill:#4c72b0;fill-opacity:0.8;stroke:#4c72b0;stroke-opacity:0.8;" x="214.082369" xlink:href="#m270b4fa4c9" y="336.766453"/>
     <use style="fill:#4c72b0;fill-opacity:0.8;stroke:#4c72b0;stroke-opacity:0.8;" x="369.560236" xlink:href="#m270b4fa4c9" y="158.466921"/>
     <use style="fill:#4c72b0;fill-opacity:0.8;stroke:#4c72b0;stroke-opacity:0.8;" x="273.823011" xlink:href="#m270b4fa4c9" y="201.792532"/>
     <use style="fill:#4c72b0;fill-opacity:0.8;stroke:#4c72b0;stroke-opacity:0.8;" x="207.6641" xlink:href="#m270b4fa4c9" y="272.780375"/>
     <use style="fill:#4c72b0;fill-opacity:0.8;stroke:#4c72b0;stroke-opacity:0.8;" x="212.979229" xlink:href="#m270b4fa4c9" y="211.757482"/>
     <use style="fill:#4c72b0;fill-opacity:0.8;stroke:#4c72b0;stroke-opacity:0.8;" x="282.152604" xlink:href="#m270b4fa4c9" y="197.169497"/>
     <use style="fill:#4c72b0;fill-opacity:0.8;stroke:#4c72b0;stroke-opacity:0.8;" x="210.401303" xlink:href="#m270b4fa4c9" y="321.284253"/>
     <use style="fill:#4c72b0;fill-opacity:0.8;stroke:#4c72b0;stroke-opacity:0.8;" x="221.521191" xlink:href="#m270b4fa4c9" y="157.309701"/>
     <use style="fill:#4c72b0;fill-opacity:0.8;stroke:#4c72b0;stroke-opacity:0.8;" x="285.686192" xlink:href="#m270b4fa4c9" y="215.49799"/>
     <use style="fill:#4c72b0;fill-opacity:0.8;stroke:#4c72b0;stroke-opacity:0.8;" x="293.756222" xlink:href="#m270b4fa4c9" y="227.081878"/>
     <use style="fill:#4c72b0;fill-opacity:0.8;stroke:#4c72b0;stroke-opacity:0.8;" x="112.215933" xlink:href="#m270b4fa4c9" y="287.67812"/>
     <use style="fill:#4c72b0;fill-opacity:0.8;stroke:#4c72b0;stroke-opacity:0.8;" x="182.769707" xlink:href="#m270b4fa4c9" y="419.151158"/>
     <use style="fill:#4c72b0;fill-opacity:0.8;stroke:#4c72b0;stroke-opacity:0.8;" x="232.924239" xlink:href="#m270b4fa4c9" y="376.55027"/>
     <use style="fill:#4c72b0;fill-opacity:0.8;stroke:#4c72b0;stroke-opacity:0.8;" x="171.814995" xlink:href="#m270b4fa4c9" y="282.809614"/>
     <use style="fill:#4c72b0;fill-opacity:0.8;stroke:#4c72b0;stroke-opacity:0.8;" x="158.359045" xlink:href="#m270b4fa4c9" y="326.024179"/>
     <use style="fill:#4c72b0;fill-opacity:0.8;stroke:#4c72b0;stroke-opacity:0.8;" x="266.637852" xlink:href="#m270b4fa4c9" y="233.119293"/>
     <use style="fill:#4c72b0;fill-opacity:0.8;stroke:#4c72b0;stroke-opacity:0.8;" x="278.642613" xlink:href="#m270b4fa4c9" y="270.02175"/>
     <use style="fill:#4c72b0;fill-opacity:0.8;stroke:#4c72b0;stroke-opacity:0.8;" x="362.858807" xlink:href="#m270b4fa4c9" y="218.548843"/>
     <use style="fill:#4c72b0;fill-opacity:0.8;stroke:#4c72b0;stroke-opacity:0.8;" x="214.188554" xlink:href="#m270b4fa4c9" y="283.481737"/>
     <use style="fill:#4c72b0;fill-opacity:0.8;stroke:#4c72b0;stroke-opacity:0.8;" x="324.13092" xlink:href="#m270b4fa4c9" y="180.226162"/>
     <use style="fill:#4c72b0;fill-opacity:0.8;stroke:#4c72b0;stroke-opacity:0.8;" x="315.653849" xlink:href="#m270b4fa4c9" y="161.30737"/>
     <use style="fill:#4c72b0;fill-opacity:0.8;stroke:#4c72b0;stroke-opacity:0.8;" x="217.108631" xlink:href="#m270b4fa4c9" y="277.005981"/>
     <use style="fill:#4c72b0;fill-opacity:0.8;stroke:#4c72b0;stroke-opacity:0.8;" x="229.892078" xlink:href="#m270b4fa4c9" y="297.906074"/>
     <use style="fill:#4c72b0;fill-opacity:0.8;stroke:#4c72b0;stroke-opacity:0.8;" x="399.663573" xlink:href="#m270b4fa4c9" y="123.504853"/>
     <use style="fill:#4c72b0;fill-opacity:0.8;stroke:#4c72b0;stroke-opacity:0.8;" x="312.580394" xlink:href="#m270b4fa4c9" y="177.894188"/>
     <use style="fill:#4c72b0;fill-opacity:0.8;stroke:#4c72b0;stroke-opacity:0.8;" x="295.991998" xlink:href="#m270b4fa4c9" y="284.960407"/>
     <use style="fill:#4c72b0;fill-opacity:0.8;stroke:#4c72b0;stroke-opacity:0.8;" x="244.309588" xlink:href="#m270b4fa4c9" y="273.861616"/>
     <use style="fill:#4c72b0;fill-opacity:0.8;stroke:#4c72b0;stroke-opacity:0.8;" x="191.535837" xlink:href="#m270b4fa4c9" y="317.648947"/>
     <use style="fill:#4c72b0;fill-opacity:0.8;stroke:#4c72b0;stroke-opacity:0.8;" x="227.089984" xlink:href="#m270b4fa4c9" y="213.855673"/>
     <use style="fill:#4c72b0;fill-opacity:0.8;stroke:#4c72b0;stroke-opacity:0.8;" x="346.465083" xlink:href="#m270b4fa4c9" y="154.18287"/>
     <use style="fill:#4c72b0;fill-opacity:0.8;stroke:#4c72b0;stroke-opacity:0.8;" x="192.497398" xlink:href="#m270b4fa4c9" y="215.585659"/>
     <use style="fill:#4c72b0;fill-opacity:0.8;stroke:#4c72b0;stroke-opacity:0.8;" x="257.505976" xlink:href="#m270b4fa4c9" y="205.667466"/>
     <use style="fill:#4c72b0;fill-opacity:0.8;stroke:#4c72b0;stroke-opacity:0.8;" x="225.450022" xlink:href="#m270b4fa4c9" y="294.81431"/>
     <use style="fill:#4c72b0;fill-opacity:0.8;stroke:#4c72b0;stroke-opacity:0.8;" x="259.54708" xlink:href="#m270b4fa4c9" y="153.317877"/>
     <use style="fill:#4c72b0;fill-opacity:0.8;stroke:#4c72b0;stroke-opacity:0.8;" x="162.553337" xlink:href="#m270b4fa4c9" y="282.704412"/>
     <use style="fill:#4c72b0;fill-opacity:0.8;stroke:#4c72b0;stroke-opacity:0.8;" x="248.893224" xlink:href="#m270b4fa4c9" y="183.277014"/>
     <use style="fill:#4c72b0;fill-opacity:0.8;stroke:#4c72b0;stroke-opacity:0.8;" x="256.30255" xlink:href="#m270b4fa4c9" y="253.177771"/>
     <use style="fill:#4c72b0;fill-opacity:0.8;stroke:#4c72b0;stroke-opacity:0.8;" x="273.840709" xlink:href="#m270b4fa4c9" y="267.070255"/>
     <use style="fill:#4c72b0;fill-opacity:0.8;stroke:#4c72b0;stroke-opacity:0.8;" x="299.413502" xlink:href="#m270b4fa4c9" y="208.133864"/>
     <use style="fill:#4c72b0;fill-opacity:0.8;stroke:#4c72b0;stroke-opacity:0.8;" x="319.258226" xlink:href="#m270b4fa4c9" y="186.947388"/>
     <use style="fill:#4c72b0;fill-opacity:0.8;stroke:#4c72b0;stroke-opacity:0.8;" x="333.575451" xlink:href="#m270b4fa4c9" y="178.817626"/>
     <use style="fill:#4c72b0;fill-opacity:0.8;stroke:#4c72b0;stroke-opacity:0.8;" x="312.226445" xlink:href="#m270b4fa4c9" y="207.292249"/>
     <use style="fill:#4c72b0;fill-opacity:0.8;stroke:#4c72b0;stroke-opacity:0.8;" x="214.023378" xlink:href="#m270b4fa4c9" y="282.084891"/>
    </g>
   </g>
   <g id="PolyCollection_1">
    <defs>
     <path d="M 77.080625 -181.064927 
L 77.080625 -132.189407 
L 80.490986 -134.217022 
L 83.901348 -136.242467 
L 87.311709 -138.316854 
L 90.72207 -140.435193 
L 94.132431 -142.552948 
L 97.542793 -144.671088 
L 100.953154 -146.790146 
L 104.363515 -148.909204 
L 107.773877 -151.028263 
L 111.184238 -153.145751 
L 114.594599 -155.259135 
L 118.00496 -157.312859 
L 121.415322 -159.350991 
L 124.825683 -161.422317 
L 128.236044 -163.554901 
L 131.646406 -165.688714 
L 135.056767 -167.825172 
L 138.467128 -169.961629 
L 141.87749 -172.078182 
L 145.287851 -174.207247 
L 148.698212 -176.132967 
L 152.108573 -177.898814 
L 155.518935 -179.94129 
L 158.929296 -181.847822 
L 162.339657 -183.779689 
L 165.750019 -185.812025 
L 169.16038 -187.84436 
L 172.570741 -189.876696 
L 175.981102 -191.917273 
L 179.391464 -193.961172 
L 182.801825 -196.126158 
L 186.212186 -197.979623 
L 189.622548 -199.756515 
L 193.032909 -201.674199 
L 196.44327 -203.725887 
L 199.853631 -205.83265 
L 203.263993 -207.919323 
L 206.674354 -209.737568 
L 210.084715 -211.606927 
L 213.495077 -213.545814 
L 216.905438 -215.329782 
L 220.315799 -217.295384 
L 223.726161 -219.184615 
L 227.136522 -221.232283 
L 230.546883 -223.055587 
L 233.957244 -224.944983 
L 237.367606 -226.629936 
L 240.777967 -228.285827 
L 244.188328 -229.920665 
L 247.59869 -231.576989 
L 251.009051 -233.349329 
L 254.419412 -235.134459 
L 257.829773 -236.791266 
L 261.240135 -238.347931 
L 264.650496 -239.796719 
L 268.060857 -241.381573 
L 271.471219 -242.815955 
L 274.88158 -244.418951 
L 278.291941 -245.79988 
L 281.702302 -247.081084 
L 285.112664 -248.293535 
L 288.523025 -249.880794 
L 291.933386 -251.244755 
L 295.343748 -252.523696 
L 298.754109 -253.813404 
L 302.16447 -255.314353 
L 305.574832 -256.494214 
L 308.985193 -257.936989 
L 312.395554 -259.397038 
L 315.805915 -260.866122 
L 319.216277 -262.244789 
L 322.626638 -263.603175 
L 326.036999 -264.963375 
L 329.447361 -266.20562 
L 332.857722 -267.512489 
L 336.268083 -268.758277 
L 339.678444 -270.055249 
L 343.088806 -271.326629 
L 346.499167 -272.506972 
L 349.909528 -273.737024 
L 353.31989 -274.861668 
L 356.730251 -276.118111 
L 360.140612 -277.388967 
L 363.550973 -278.705397 
L 366.961335 -280.186624 
L 370.371696 -281.475732 
L 373.782057 -282.757627 
L 377.192419 -283.995303 
L 380.60278 -285.232978 
L 384.013141 -286.470654 
L 387.423503 -287.770616 
L 390.833864 -289.000449 
L 394.244225 -290.178161 
L 397.654586 -291.48974 
L 401.064948 -292.803048 
L 404.475309 -294.049253 
L 407.88567 -295.159603 
L 411.296032 -296.354766 
L 414.706393 -297.587309 
L 414.706393 -342.572079 
L 414.706393 -342.572079 
L 411.296032 -340.553997 
L 407.88567 -338.595535 
L 404.475309 -336.576297 
L 401.064948 -334.620715 
L 397.654586 -332.624222 
L 394.244225 -330.525519 
L 390.833864 -328.470743 
L 387.423503 -326.546647 
L 384.013141 -324.622551 
L 380.60278 -322.69197 
L 377.192419 -320.562059 
L 373.782057 -318.509621 
L 370.371696 -316.587658 
L 366.961335 -314.665695 
L 363.550973 -312.748743 
L 360.140612 -310.712709 
L 356.730251 -308.659852 
L 353.31989 -306.643263 
L 349.909528 -304.692579 
L 346.499167 -302.716507 
L 343.088806 -300.784163 
L 339.678444 -298.815996 
L 336.268083 -296.847004 
L 332.857722 -294.860926 
L 329.447361 -292.911302 
L 326.036999 -290.884921 
L 322.626638 -288.875801 
L 319.216277 -286.827247 
L 315.805915 -284.839985 
L 312.395554 -282.946933 
L 308.985193 -280.95799 
L 305.574832 -279.014446 
L 302.16447 -277.091824 
L 298.754109 -275.151665 
L 295.343748 -273.180323 
L 291.933386 -271.235615 
L 288.523025 -269.408949 
L 285.112664 -267.630933 
L 281.702302 -265.688599 
L 278.291941 -263.741395 
L 274.88158 -261.957236 
L 271.471219 -260.26534 
L 268.060857 -258.632622 
L 264.650496 -256.801106 
L 261.240135 -255.093095 
L 257.829773 -253.484947 
L 254.419412 -251.737972 
L 251.009051 -249.987755 
L 247.59869 -248.069112 
L 244.188328 -246.454329 
L 240.777967 -244.875062 
L 237.367606 -243.338797 
L 233.957244 -241.83124 
L 230.546883 -240.27783 
L 227.136522 -238.816265 
L 223.726161 -237.488464 
L 220.315799 -235.953319 
L 216.905438 -234.47307 
L 213.495077 -232.989028 
L 210.084715 -231.504987 
L 206.674354 -230.020946 
L 203.263993 -228.624473 
L 199.853631 -227.184813 
L 196.44327 -225.785883 
L 193.032909 -224.461567 
L 189.622548 -223.259547 
L 186.212186 -221.872749 
L 182.801825 -220.563343 
L 179.391464 -219.382837 
L 175.981102 -218.291208 
L 172.570741 -216.760029 
L 169.16038 -215.597236 
L 165.750019 -214.218973 
L 162.339657 -212.750727 
L 158.929296 -211.263659 
L 155.518935 -209.77659 
L 152.108573 -208.556496 
L 148.698212 -207.152544 
L 145.287851 -205.742309 
L 141.87749 -204.281535 
L 138.467128 -202.769599 
L 135.056767 -201.522024 
L 131.646406 -200.358314 
L 128.236044 -199.194603 
L 124.825683 -198.028465 
L 121.415322 -196.854371 
L 118.00496 -195.466456 
L 114.594599 -194.321251 
L 111.184238 -193.201471 
L 107.773877 -192.028384 
L 104.363515 -190.882537 
L 100.953154 -189.577661 
L 97.542793 -188.258721 
L 94.132431 -187.128693 
L 90.72207 -186.014019 
L 87.311709 -184.896911 
L 83.901348 -183.77916 
L 80.490986 -182.451418 
L 77.080625 -181.064927 
z
" id="mda04d43fcc" style="stroke:#ffffff;stroke-opacity:0.15;stroke-width:1.5;"/>
    </defs>
    <g clip-path="url(#pb05a266c1b)">
     <use style="fill:#4c72b0;fill-opacity:0.15;stroke:#ffffff;stroke-opacity:0.15;stroke-width:1.5;" x="0" xlink:href="#mda04d43fcc" y="504"/>
    </g>
   </g>
   <g id="line2d_1">
    <path clip-path="url(#pb05a266c1b)" d="M 77.080625 347.657337 
L 80.490986 345.977417 
L 83.901348 344.297497 
L 87.311709 342.617578 
L 90.72207 340.937658 
L 94.132431 339.257738 
L 97.542793 337.577818 
L 100.953154 335.897899 
L 104.363515 334.217979 
L 107.773877 332.538059 
L 111.184238 330.858139 
L 114.594599 329.17822 
L 118.00496 327.4983 
L 121.415322 325.81838 
L 124.825683 324.13846 
L 128.236044 322.458541 
L 131.646406 320.778621 
L 135.056767 319.098701 
L 138.467128 317.418781 
L 141.87749 315.738862 
L 145.287851 314.058942 
L 148.698212 312.379022 
L 152.108573 310.699103 
L 155.518935 309.019183 
L 158.929296 307.339263 
L 162.339657 305.659343 
L 165.750019 303.979424 
L 169.16038 302.299504 
L 172.570741 300.619584 
L 175.981102 298.939664 
L 179.391464 297.259745 
L 182.801825 295.579825 
L 186.212186 293.899905 
L 189.622548 292.219985 
L 193.032909 290.540066 
L 196.44327 288.860146 
L 199.853631 287.180226 
L 203.263993 285.500306 
L 206.674354 283.820387 
L 210.084715 282.140467 
L 213.495077 280.460547 
L 216.905438 278.780627 
L 220.315799 277.100708 
L 223.726161 275.420788 
L 227.136522 273.740868 
L 230.546883 272.060949 
L 233.957244 270.381029 
L 237.367606 268.701109 
L 240.777967 267.021189 
L 244.188328 265.34127 
L 247.59869 263.66135 
L 251.009051 261.98143 
L 254.419412 260.30151 
L 257.829773 258.621591 
L 261.240135 256.941671 
L 264.650496 255.261751 
L 268.060857 253.581831 
L 271.471219 251.901912 
L 274.88158 250.221992 
L 278.291941 248.542072 
L 281.702302 246.862152 
L 285.112664 245.182233 
L 288.523025 243.502313 
L 291.933386 241.822393 
L 295.343748 240.142474 
L 298.754109 238.462554 
L 302.16447 236.782634 
L 305.574832 235.102714 
L 308.985193 233.422795 
L 312.395554 231.742875 
L 315.805915 230.062955 
L 319.216277 228.383035 
L 322.626638 226.703116 
L 326.036999 225.023196 
L 329.447361 223.343276 
L 332.857722 221.663356 
L 336.268083 219.983437 
L 339.678444 218.303517 
L 343.088806 216.623597 
L 346.499167 214.943677 
L 349.909528 213.263758 
L 353.31989 211.583838 
L 356.730251 209.903918 
L 360.140612 208.223999 
L 363.550973 206.544079 
L 366.961335 204.864159 
L 370.371696 203.184239 
L 373.782057 201.50432 
L 377.192419 199.8244 
L 380.60278 198.14448 
L 384.013141 196.46456 
L 387.423503 194.784641 
L 390.833864 193.104721 
L 394.244225 191.424801 
L 397.654586 189.744881 
L 401.064948 188.064962 
L 404.475309 186.385042 
L 407.88567 184.705122 
L 411.296032 183.025202 
L 414.706393 181.345283 
" style="fill:none;stroke:#4c72b0;stroke-linecap:round;stroke-width:3.375;"/>
   </g>
   <g id="patch_3">
    <path d="M 77.080625 434.794375 
L 77.080625 90.643607 
" style="fill:none;stroke:#262626;stroke-linecap:square;stroke-linejoin:miter;stroke-width:1.875;"/>
   </g>
   <g id="patch_4">
    <path d="M 77.080625 434.794375 
L 414.706393 434.794375 
" style="fill:none;stroke:#262626;stroke-linecap:square;stroke-linejoin:miter;stroke-width:1.875;"/>
   </g>
  </g>
  <g id="axes_2">
   <g id="patch_5">
    <path d="M 77.080625 78.776339 
L 414.706393 78.776339 
L 414.706393 19.44 
L 77.080625 19.44 
z
" style="fill:#ffffff;"/>
   </g>
   <g id="matplotlib.axis_3">
    <g id="xtick_6"/>
    <g id="xtick_7"/>
    <g id="xtick_8"/>
    <g id="xtick_9"/>
    <g id="xtick_10"/>
   </g>
   <g id="matplotlib.axis_4">
    <g id="ytick_6"/>
    <g id="ytick_7"/>
   </g>
   <g id="patch_6">
    <path clip-path="url(#p3552b0df48)" d="M 77.080625 78.776339 
L 107.773877 78.776339 
L 107.773877 71.484623 
L 77.080625 71.484623 
z
" style="fill:#4c72b0;fill-opacity:0.5;stroke:#ffffff;stroke-linejoin:miter;stroke-width:1.5;"/>
   </g>
   <g id="patch_7">
    <path clip-path="url(#p3552b0df48)" d="M 107.773877 78.776339 
L 138.467128 78.776339 
L 138.467128 73.307552 
L 107.773877 73.307552 
z
" style="fill:#4c72b0;fill-opacity:0.5;stroke:#ffffff;stroke-linejoin:miter;stroke-width:1.5;"/>
   </g>
   <g id="patch_8">
    <path clip-path="url(#p3552b0df48)" d="M 138.467128 78.776339 
L 169.16038 78.776339 
L 169.16038 67.838765 
L 138.467128 67.838765 
z
" style="fill:#4c72b0;fill-opacity:0.5;stroke:#ffffff;stroke-linejoin:miter;stroke-width:1.5;"/>
   </g>
   <g id="patch_9">
    <path clip-path="url(#p3552b0df48)" d="M 169.16038 78.776339 
L 199.853631 78.776339 
L 199.853631 36.848972 
L 169.16038 36.848972 
z
" style="fill:#4c72b0;fill-opacity:0.5;stroke:#ffffff;stroke-linejoin:miter;stroke-width:1.5;"/>
   </g>
   <g id="patch_10">
    <path clip-path="url(#p3552b0df48)" d="M 199.853631 78.776339 
L 230.546883 78.776339 
L 230.546883 29.557256 
L 199.853631 29.557256 
z
" style="fill:#4c72b0;fill-opacity:0.5;stroke:#ffffff;stroke-linejoin:miter;stroke-width:1.5;"/>
   </g>
   <g id="patch_11">
    <path clip-path="url(#p3552b0df48)" d="M 230.546883 78.776339 
L 261.240135 78.776339 
L 261.240135 35.026043 
L 230.546883 35.026043 
z
" style="fill:#4c72b0;fill-opacity:0.5;stroke:#ffffff;stroke-linejoin:miter;stroke-width:1.5;"/>
   </g>
   <g id="patch_12">
    <path clip-path="url(#p3552b0df48)" d="M 261.240135 78.776339 
L 291.933386 78.776339 
L 291.933386 22.26554 
L 261.240135 22.26554 
z
" style="fill:#4c72b0;fill-opacity:0.5;stroke:#ffffff;stroke-linejoin:miter;stroke-width:1.5;"/>
   </g>
   <g id="patch_13">
    <path clip-path="url(#p3552b0df48)" d="M 291.933386 78.776339 
L 322.626638 78.776339 
L 322.626638 31.380185 
L 291.933386 31.380185 
z
" style="fill:#4c72b0;fill-opacity:0.5;stroke:#ffffff;stroke-linejoin:miter;stroke-width:1.5;"/>
   </g>
   <g id="patch_14">
    <path clip-path="url(#p3552b0df48)" d="M 322.626638 78.776339 
L 353.31989 78.776339 
L 353.31989 60.547049 
L 322.626638 60.547049 
z
" style="fill:#4c72b0;fill-opacity:0.5;stroke:#ffffff;stroke-linejoin:miter;stroke-width:1.5;"/>
   </g>
   <g id="patch_15">
    <path clip-path="url(#p3552b0df48)" d="M 353.31989 78.776339 
L 384.013141 78.776339 
L 384.013141 55.078262 
L 353.31989 55.078262 
z
" style="fill:#4c72b0;fill-opacity:0.5;stroke:#ffffff;stroke-linejoin:miter;stroke-width:1.5;"/>
   </g>
   <g id="patch_16">
    <path clip-path="url(#p3552b0df48)" d="M 384.013141 78.776339 
L 414.706393 78.776339 
L 414.706393 67.838765 
L 384.013141 67.838765 
z
" style="fill:#4c72b0;fill-opacity:0.5;stroke:#ffffff;stroke-linejoin:miter;stroke-width:1.5;"/>
   </g>
   <g id="line2d_2">
    <path clip-path="url(#p3552b0df48)" d="M 77.080625 75.540682 
L 97.439968 73.309377 
L 109.316251 72.29737 
L 119.495922 71.416335 
L 124.585758 70.820315 
L 129.675594 70.020877 
L 134.76543 68.945013 
L 138.158653 68.044501 
L 141.551877 66.983307 
L 144.945101 65.75615 
L 148.338325 64.364652 
L 153.42816 61.990636 
L 158.517996 59.327831 
L 165.304444 55.485382 
L 177.180727 48.689565 
L 182.270563 46.013075 
L 187.360398 43.57972 
L 192.450234 41.419436 
L 197.54007 39.534808 
L 202.629906 37.909852 
L 207.719741 36.520421 
L 212.809577 35.342409 
L 217.899413 34.354925 
L 224.68586 33.298937 
L 231.472308 32.477292 
L 250.135039 30.395447 
L 256.921486 29.301953 
L 267.101158 27.321287 
L 272.190993 26.391926 
L 277.280829 25.712727 
L 280.674053 25.486533 
L 284.067277 25.498637 
L 287.4605 25.788976 
L 290.853724 26.38561 
L 294.246948 27.30211 
L 297.640172 28.536099 
L 301.033396 30.069061 
L 304.426619 31.867403 
L 307.819843 33.884636 
L 312.909679 37.195935 
L 324.785962 45.151753 
L 329.875798 48.195295 
L 333.269022 49.999371 
L 336.662246 51.600106 
L 340.055469 52.992337 
L 343.448693 54.183424 
L 346.841917 55.191747 
L 351.931753 56.422932 
L 358.7182 57.723672 
L 370.594483 59.858067 
L 377.380931 61.352489 
L 384.167379 63.145393 
L 390.953826 65.191474 
L 413.009781 72.095229 
L 414.706393 72.558966 
L 414.706393 72.558966 
" style="fill:none;stroke:#4c72b0;stroke-linecap:round;stroke-width:2.25;"/>
   </g>
   <g id="patch_17">
    <path d="M 77.080625 78.776339 
L 414.706393 78.776339 
" style="fill:none;stroke:#262626;stroke-linecap:square;stroke-linejoin:miter;stroke-width:1.875;"/>
   </g>
  </g>
  <g id="axes_3">
   <g id="patch_18">
    <path d="M 426.348661 434.794375 
L 484.56 434.794375 
L 484.56 90.643607 
L 426.348661 90.643607 
z
" style="fill:#ffffff;"/>
   </g>
   <g id="matplotlib.axis_5">
    <g id="xtick_11"/>
    <g id="xtick_12"/>
   </g>
   <g id="matplotlib.axis_6">
    <g id="ytick_8"/>
    <g id="ytick_9"/>
    <g id="ytick_10"/>
    <g id="ytick_11"/>
    <g id="ytick_12"/>
   </g>
   <g id="patch_19">
    <path clip-path="url(#p2731042b43)" d="M 426.348661 419.151158 
L 437.762649 419.151158 
L 437.762649 393.07913 
L 426.348661 393.07913 
z
" style="fill:#4c72b0;fill-opacity:0.5;stroke:#ffffff;stroke-linejoin:miter;stroke-width:1.5;"/>
   </g>
   <g id="patch_20">
    <path clip-path="url(#p2731042b43)" d="M 426.348661 393.07913 
L 434.501509 393.07913 
L 434.501509 367.007103 
L 426.348661 367.007103 
z
" style="fill:#4c72b0;fill-opacity:0.5;stroke:#ffffff;stroke-linejoin:miter;stroke-width:1.5;"/>
   </g>
   <g id="patch_21">
    <path clip-path="url(#p2731042b43)" d="M 426.348661 367.007103 
L 439.393219 367.007103 
L 439.393219 340.935075 
L 426.348661 340.935075 
z
" style="fill:#4c72b0;fill-opacity:0.5;stroke:#ffffff;stroke-linejoin:miter;stroke-width:1.5;"/>
   </g>
   <g id="patch_22">
    <path clip-path="url(#p2731042b43)" d="M 426.348661 340.935075 
L 447.546067 340.935075 
L 447.546067 314.863047 
L 426.348661 314.863047 
z
" style="fill:#4c72b0;fill-opacity:0.5;stroke:#ffffff;stroke-linejoin:miter;stroke-width:1.5;"/>
   </g>
   <g id="patch_23">
    <path clip-path="url(#p2731042b43)" d="M 426.348661 314.863047 
L 449.176637 314.863047 
L 449.176637 288.791019 
L 426.348661 288.791019 
z
" style="fill:#4c72b0;fill-opacity:0.5;stroke:#ffffff;stroke-linejoin:miter;stroke-width:1.5;"/>
   </g>
   <g id="patch_24">
    <path clip-path="url(#p2731042b43)" d="M 426.348661 288.791019 
L 475.265753 288.791019 
L 475.265753 262.718991 
L 426.348661 262.718991 
z
" style="fill:#4c72b0;fill-opacity:0.5;stroke:#ffffff;stroke-linejoin:miter;stroke-width:1.5;"/>
   </g>
   <g id="patch_25">
    <path clip-path="url(#p2731042b43)" d="M 426.348661 262.718991 
L 467.112904 262.718991 
L 467.112904 236.646963 
L 426.348661 236.646963 
z
" style="fill:#4c72b0;fill-opacity:0.5;stroke:#ffffff;stroke-linejoin:miter;stroke-width:1.5;"/>
   </g>
   <g id="patch_26">
    <path clip-path="url(#p2731042b43)" d="M 426.348661 236.646963 
L 481.788031 236.646963 
L 481.788031 210.574935 
L 426.348661 210.574935 
z
" style="fill:#4c72b0;fill-opacity:0.5;stroke:#ffffff;stroke-linejoin:miter;stroke-width:1.5;"/>
   </g>
   <g id="patch_27">
    <path clip-path="url(#p2731042b43)" d="M 426.348661 210.574935 
L 447.546067 210.574935 
L 447.546067 184.502907 
L 426.348661 184.502907 
z
" style="fill:#4c72b0;fill-opacity:0.5;stroke:#ffffff;stroke-linejoin:miter;stroke-width:1.5;"/>
   </g>
   <g id="patch_28">
    <path clip-path="url(#p2731042b43)" d="M 426.348661 184.502907 
L 452.437776 184.502907 
L 452.437776 158.43088 
L 426.348661 158.43088 
z
" style="fill:#4c72b0;fill-opacity:0.5;stroke:#ffffff;stroke-linejoin:miter;stroke-width:1.5;"/>
   </g>
   <g id="patch_29">
    <path clip-path="url(#p2731042b43)" d="M 426.348661 158.43088 
L 434.501509 158.43088 
L 434.501509 132.358852 
L 426.348661 132.358852 
z
" style="fill:#4c72b0;fill-opacity:0.5;stroke:#ffffff;stroke-linejoin:miter;stroke-width:1.5;"/>
   </g>
   <g id="patch_30">
    <path clip-path="url(#p2731042b43)" d="M 426.348661 132.358852 
L 431.24037 132.358852 
L 431.24037 106.286824 
L 426.348661 106.286824 
z
" style="fill:#4c72b0;fill-opacity:0.5;stroke:#ffffff;stroke-linejoin:miter;stroke-width:1.5;"/>
   </g>
   <g id="line2d_3">
    <path clip-path="url(#p2731042b43)" d="M 431.438449 419.151158 
L 433.962726 403.429332 
L 435.69601 390.851872 
L 438.633562 368.841316 
L 440.359675 357.836037 
L 442.041503 348.402942 
L 443.947674 338.969846 
L 445.770461 331.108934 
L 447.437499 324.820203 
L 449.328559 318.531473 
L 451.451453 312.242742 
L 454.36937 304.38183 
L 460.342485 288.660004 
L 462.488335 282.371273 
L 464.428995 276.082543 
L 466.626955 268.22163 
L 469.05289 258.788535 
L 470.502271 252.499804 
L 471.401905 247.783257 
L 472.033878 243.066709 
L 472.25361 239.922344 
L 472.2776 236.777978 
L 472.082128 233.633613 
L 471.651399 230.489248 
L 470.979354 227.344883 
L 470.070649 224.200518 
L 468.940722 221.056153 
L 467.614952 217.911787 
L 465.334434 213.19524 
L 461.96509 206.906509 
L 456.880216 197.473414 
L 454.561985 192.756866 
L 452.470414 188.040318 
L 450.60884 183.323771 
L 448.423669 177.03504 
L 445.495941 167.601945 
L 441.110538 153.452301 
L 436.168913 137.730476 
L 434.402239 131.441745 
L 432.842502 125.153015 
L 431.503917 118.864285 
L 430.375308 112.575554 
L 429.433807 106.286824 
L 429.433807 106.286824 
" style="fill:none;stroke:#4c72b0;stroke-linecap:round;stroke-width:2.25;"/>
   </g>
   <g id="patch_31">
    <path d="M 426.348661 434.794375 
L 426.348661 90.643607 
" style="fill:none;stroke:#262626;stroke-linecap:square;stroke-linejoin:miter;stroke-width:1.875;"/>
   </g>
  </g>
 </g>
 <defs>
  <clipPath id="pb05a266c1b">
   <rect height="344.150768" width="337.625768" x="77.080625" y="90.643607"/>
  </clipPath>
  <clipPath id="p3552b0df48">
   <rect height="59.336339" width="337.625768" x="77.080625" y="19.44"/>
  </clipPath>
  <clipPath id="p2731042b43">
   <rect height="344.150768" width="58.211339" x="426.348661" y="90.643607"/>
  </clipPath>
 </defs>
</svg>
