<?xml version="1.0" encoding="utf-8" standalone="no"?>
<!DOCTYPE svg PUBLIC "-//W3C//DTD SVG 1.1//EN"
  "http://www.w3.org/Graphics/SVG/1.1/DTD/svg11.dtd">
<!-- Created with matplotlib (https://matplotlib.org/) -->
<svg height="504pt" version="1.1" viewBox="0 0 504 504" width="504pt" xmlns="http://www.w3.org/2000/svg" xmlns:xlink="http://www.w3.org/1999/xlink">
 <metadata>
  <rdf:RDF xmlns:cc="http://creativecommons.org/ns#" xmlns:dc="http://purl.org/dc/elements/1.1/" xmlns:rdf="http://www.w3.org/1999/02/22-rdf-syntax-ns#">
   <cc:Work>
    <dc:type rdf:resource="http://purl.org/dc/dcmitype/StillImage"/>
    <dc:date>2021-02-17T15:30:52.636641</dc:date>
    <dc:format>image/svg+xml</dc:format>
    <dc:creator>
     <cc:Agent>
      <dc:title>Matplotlib v3.3.3, https://matplotlib.org/</dc:title>
     </cc:Agent>
    </dc:creator>
   </cc:Work>
  </rdf:RDF>
 </metadata>
 <defs>
  <style type="text/css">*{stroke-linecap:butt;stroke-linejoin:round;}</style>
 </defs>
 <g id="figure_1">
  <g id="patch_1">
   <path d="M 0 504 
L 504 504 
L 504 0 
L 0 0 
z
" style="fill:#ffffff;"/>
  </g>
  <g id="axes_1">
   <g id="patch_2">
    <path d="M 54.815 457.06 
L 410.889429 457.06 
L 410.889429 94.460571 
L 54.815 94.460571 
z
" style="fill:#ffffff;"/>
   </g>
   <g id="matplotlib.axis_1">
    <g id="xtick_1">
     <g id="line2d_1">
      <defs>
       <path d="M 0 0 
L 0 9 
" id="m562cbf9f5d" style="stroke:#262626;stroke-width:1.875;"/>
      </defs>
      <g>
       <use style="fill:#262626;stroke:#262626;stroke-width:1.875;" x="54.815" xlink:href="#m562cbf9f5d" y="457.06"/>
      </g>
     </g>
     <g id="text_1">
      <!-- −40 -->
      <g style="fill:#262626;" transform="translate(40.820937 481.370391)scale(0.165 -0.165)">
       <defs>
        <path d="M 52.828125 31.203125 
L 5.5625 31.203125 
L 5.5625 39.40625 
L 52.828125 39.40625 
z
" id="ArialMT-8722"/>
        <path d="M 32.328125 0 
L 32.328125 17.140625 
L 1.265625 17.140625 
L 1.265625 25.203125 
L 33.9375 71.578125 
L 41.109375 71.578125 
L 41.109375 25.203125 
L 50.78125 25.203125 
L 50.78125 17.140625 
L 41.109375 17.140625 
L 41.109375 0 
z
M 32.328125 25.203125 
L 32.328125 57.46875 
L 9.90625 25.203125 
z
" id="ArialMT-52"/>
        <path d="M 4.15625 35.296875 
Q 4.15625 48 6.765625 55.734375 
Q 9.375 63.484375 14.515625 67.671875 
Q 19.671875 71.875 27.484375 71.875 
Q 33.25 71.875 37.59375 69.546875 
Q 41.9375 67.234375 44.765625 62.859375 
Q 47.609375 58.5 49.21875 52.21875 
Q 50.828125 45.953125 50.828125 35.296875 
Q 50.828125 22.703125 48.234375 14.96875 
Q 45.65625 7.234375 40.5 3 
Q 35.359375 -1.21875 27.484375 -1.21875 
Q 17.140625 -1.21875 11.234375 6.203125 
Q 4.15625 15.140625 4.15625 35.296875 
z
M 13.1875 35.296875 
Q 13.1875 17.671875 17.3125 11.828125 
Q 21.4375 6 27.484375 6 
Q 33.546875 6 37.671875 11.859375 
Q 41.796875 17.71875 41.796875 35.296875 
Q 41.796875 52.984375 37.671875 58.78125 
Q 33.546875 64.59375 27.390625 64.59375 
Q 21.34375 64.59375 17.71875 59.46875 
Q 13.1875 52.9375 13.1875 35.296875 
z
" id="ArialMT-48"/>
       </defs>
       <use xlink:href="#ArialMT-8722"/>
       <use x="58.398438" xlink:href="#ArialMT-52"/>
       <use x="114.013672" xlink:href="#ArialMT-48"/>
      </g>
     </g>
    </g>
    <g id="xtick_2">
     <g id="line2d_2">
      <g>
       <use style="fill:#262626;stroke:#262626;stroke-width:1.875;" x="114.160738" xlink:href="#m562cbf9f5d" y="457.06"/>
      </g>
     </g>
     <g id="text_2">
      <!-- −30 -->
      <g style="fill:#262626;" transform="translate(100.166676 481.370391)scale(0.165 -0.165)">
       <defs>
        <path d="M 4.203125 18.890625 
L 12.984375 20.0625 
Q 14.5 12.59375 18.140625 9.296875 
Q 21.78125 6 27 6 
Q 33.203125 6 37.46875 10.296875 
Q 41.75 14.59375 41.75 20.953125 
Q 41.75 27 37.796875 30.921875 
Q 33.84375 34.859375 27.734375 34.859375 
Q 25.25 34.859375 21.53125 33.890625 
L 22.515625 41.609375 
Q 23.390625 41.5 23.921875 41.5 
Q 29.546875 41.5 34.03125 44.421875 
Q 38.53125 47.359375 38.53125 53.46875 
Q 38.53125 58.296875 35.25 61.46875 
Q 31.984375 64.65625 26.8125 64.65625 
Q 21.6875 64.65625 18.265625 61.421875 
Q 14.84375 58.203125 13.875 51.765625 
L 5.078125 53.328125 
Q 6.6875 62.15625 12.390625 67.015625 
Q 18.109375 71.875 26.609375 71.875 
Q 32.46875 71.875 37.390625 69.359375 
Q 42.328125 66.84375 44.9375 62.5 
Q 47.5625 58.15625 47.5625 53.265625 
Q 47.5625 48.640625 45.0625 44.828125 
Q 42.578125 41.015625 37.703125 38.765625 
Q 44.046875 37.3125 47.5625 32.6875 
Q 51.078125 28.078125 51.078125 21.140625 
Q 51.078125 11.765625 44.234375 5.25 
Q 37.40625 -1.265625 26.953125 -1.265625 
Q 17.53125 -1.265625 11.296875 4.34375 
Q 5.078125 9.96875 4.203125 18.890625 
z
" id="ArialMT-51"/>
       </defs>
       <use xlink:href="#ArialMT-8722"/>
       <use x="58.398438" xlink:href="#ArialMT-51"/>
       <use x="114.013672" xlink:href="#ArialMT-48"/>
      </g>
     </g>
    </g>
    <g id="xtick_3">
     <g id="line2d_3">
      <g>
       <use style="fill:#262626;stroke:#262626;stroke-width:1.875;" x="173.506476" xlink:href="#m562cbf9f5d" y="457.06"/>
      </g>
     </g>
     <g id="text_3">
      <!-- −20 -->
      <g style="fill:#262626;" transform="translate(159.512414 481.370391)scale(0.165 -0.165)">
       <defs>
        <path d="M 50.34375 8.453125 
L 50.34375 0 
L 3.03125 0 
Q 2.9375 3.171875 4.046875 6.109375 
Q 5.859375 10.9375 9.828125 15.625 
Q 13.8125 20.3125 21.34375 26.46875 
Q 33.015625 36.03125 37.109375 41.625 
Q 41.21875 47.21875 41.21875 52.203125 
Q 41.21875 57.421875 37.46875 61 
Q 33.734375 64.59375 27.734375 64.59375 
Q 21.390625 64.59375 17.578125 60.78125 
Q 13.765625 56.984375 13.71875 50.25 
L 4.6875 51.171875 
Q 5.609375 61.28125 11.65625 66.578125 
Q 17.71875 71.875 27.9375 71.875 
Q 38.234375 71.875 44.234375 66.15625 
Q 50.25 60.453125 50.25 52 
Q 50.25 47.703125 48.484375 43.546875 
Q 46.734375 39.40625 42.65625 34.8125 
Q 38.578125 30.21875 29.109375 22.21875 
Q 21.1875 15.578125 18.9375 13.203125 
Q 16.703125 10.84375 15.234375 8.453125 
z
" id="ArialMT-50"/>
       </defs>
       <use xlink:href="#ArialMT-8722"/>
       <use x="58.398438" xlink:href="#ArialMT-50"/>
       <use x="114.013672" xlink:href="#ArialMT-48"/>
      </g>
     </g>
    </g>
    <g id="xtick_4">
     <g id="line2d_4">
      <g>
       <use style="fill:#262626;stroke:#262626;stroke-width:1.875;" x="232.852214" xlink:href="#m562cbf9f5d" y="457.06"/>
      </g>
     </g>
     <g id="text_4">
      <!-- −10 -->
      <g style="fill:#262626;" transform="translate(218.858152 481.370391)scale(0.165 -0.165)">
       <defs>
        <path d="M 37.25 0 
L 28.46875 0 
L 28.46875 56 
Q 25.296875 52.984375 20.140625 49.953125 
Q 14.984375 46.921875 10.890625 45.40625 
L 10.890625 53.90625 
Q 18.265625 57.375 23.78125 62.296875 
Q 29.296875 67.234375 31.59375 71.875 
L 37.25 71.875 
z
" id="ArialMT-49"/>
       </defs>
       <use xlink:href="#ArialMT-8722"/>
       <use x="58.398438" xlink:href="#ArialMT-49"/>
       <use x="114.013672" xlink:href="#ArialMT-48"/>
      </g>
     </g>
    </g>
    <g id="xtick_5">
     <g id="line2d_5">
      <g>
       <use style="fill:#262626;stroke:#262626;stroke-width:1.875;" x="292.197952" xlink:href="#m562cbf9f5d" y="457.06"/>
      </g>
     </g>
     <g id="text_5">
      <!-- 0 -->
      <g style="fill:#262626;" transform="translate(287.610179 481.370391)scale(0.165 -0.165)">
       <use xlink:href="#ArialMT-48"/>
      </g>
     </g>
    </g>
    <g id="xtick_6">
     <g id="line2d_6">
      <g>
       <use style="fill:#262626;stroke:#262626;stroke-width:1.875;" x="351.54369" xlink:href="#m562cbf9f5d" y="457.06"/>
      </g>
     </g>
     <g id="text_6">
      <!-- 10 -->
      <g style="fill:#262626;" transform="translate(342.368144 481.370391)scale(0.165 -0.165)">
       <use xlink:href="#ArialMT-49"/>
       <use x="55.615234" xlink:href="#ArialMT-48"/>
      </g>
     </g>
    </g>
    <g id="xtick_7">
     <g id="line2d_7">
      <g>
       <use style="fill:#262626;stroke:#262626;stroke-width:1.875;" x="410.889429" xlink:href="#m562cbf9f5d" y="457.06"/>
      </g>
     </g>
     <g id="text_7">
      <!-- 20 -->
      <g style="fill:#262626;" transform="translate(401.713882 481.370391)scale(0.165 -0.165)">
       <use xlink:href="#ArialMT-50"/>
       <use x="55.615234" xlink:href="#ArialMT-48"/>
      </g>
     </g>
    </g>
    <g id="text_8">
     <!-- Psychometric threshold  -->
     <g style="fill:#262626;" transform="translate(136.819402 501.533828)scale(0.18 -0.18)">
      <defs>
       <path d="M 7.71875 0 
L 7.71875 71.578125 
L 34.71875 71.578125 
Q 41.84375 71.578125 45.609375 70.90625 
Q 50.875 70.015625 54.4375 67.546875 
Q 58.015625 65.09375 60.1875 60.640625 
Q 62.359375 56.203125 62.359375 50.875 
Q 62.359375 41.75 56.546875 35.421875 
Q 50.734375 29.109375 35.546875 29.109375 
L 17.1875 29.109375 
L 17.1875 0 
z
M 17.1875 37.546875 
L 35.6875 37.546875 
Q 44.875 37.546875 48.734375 40.96875 
Q 52.59375 44.390625 52.59375 50.59375 
Q 52.59375 55.078125 50.3125 58.265625 
Q 48.046875 61.46875 44.34375 62.5 
Q 41.9375 63.140625 35.5 63.140625 
L 17.1875 63.140625 
z
" id="ArialMT-80"/>
       <path d="M 3.078125 15.484375 
L 11.765625 16.84375 
Q 12.5 11.625 15.84375 8.84375 
Q 19.1875 6.0625 25.203125 6.0625 
Q 31.25 6.0625 34.171875 8.515625 
Q 37.109375 10.984375 37.109375 14.3125 
Q 37.109375 17.28125 34.515625 19 
Q 32.71875 20.171875 25.53125 21.96875 
Q 15.875 24.421875 12.140625 26.203125 
Q 8.40625 27.984375 6.46875 31.125 
Q 4.546875 34.28125 4.546875 38.09375 
Q 4.546875 41.546875 6.125 44.5 
Q 7.71875 47.46875 10.453125 49.421875 
Q 12.5 50.921875 16.03125 51.96875 
Q 19.578125 53.03125 23.640625 53.03125 
Q 29.734375 53.03125 34.34375 51.265625 
Q 38.96875 49.515625 41.15625 46.5 
Q 43.359375 43.5 44.1875 38.484375 
L 35.59375 37.3125 
Q 35.015625 41.3125 32.203125 43.546875 
Q 29.390625 45.796875 24.265625 45.796875 
Q 18.21875 45.796875 15.625 43.796875 
Q 13.03125 41.796875 13.03125 39.109375 
Q 13.03125 37.40625 14.109375 36.03125 
Q 15.1875 34.625 17.484375 33.6875 
Q 18.796875 33.203125 25.25 31.453125 
Q 34.578125 28.953125 38.25 27.359375 
Q 41.9375 25.78125 44.03125 22.75 
Q 46.140625 19.734375 46.140625 15.234375 
Q 46.140625 10.84375 43.578125 6.953125 
Q 41.015625 3.078125 36.171875 0.953125 
Q 31.34375 -1.171875 25.25 -1.171875 
Q 15.140625 -1.171875 9.84375 3.03125 
Q 4.546875 7.234375 3.078125 15.484375 
z
" id="ArialMT-115"/>
       <path d="M 6.203125 -19.96875 
L 5.21875 -11.71875 
Q 8.109375 -12.5 10.25 -12.5 
Q 13.1875 -12.5 14.9375 -11.515625 
Q 16.703125 -10.546875 17.828125 -8.796875 
Q 18.65625 -7.46875 20.515625 -2.25 
Q 20.75 -1.515625 21.296875 -0.09375 
L 1.609375 51.859375 
L 11.078125 51.859375 
L 21.875 21.828125 
Q 23.96875 16.109375 25.640625 9.8125 
Q 27.15625 15.875 29.25 21.625 
L 40.328125 51.859375 
L 49.125 51.859375 
L 29.390625 -0.875 
Q 26.21875 -9.421875 24.46875 -12.640625 
Q 22.125 -17 19.09375 -19.015625 
Q 16.0625 -21.046875 11.859375 -21.046875 
Q 9.328125 -21.046875 6.203125 -19.96875 
z
" id="ArialMT-121"/>
       <path d="M 40.4375 19 
L 49.078125 17.875 
Q 47.65625 8.9375 41.8125 3.875 
Q 35.984375 -1.171875 27.484375 -1.171875 
Q 16.84375 -1.171875 10.375 5.78125 
Q 3.90625 12.75 3.90625 25.734375 
Q 3.90625 34.125 6.6875 40.421875 
Q 9.46875 46.734375 15.15625 49.875 
Q 20.84375 53.03125 27.546875 53.03125 
Q 35.984375 53.03125 41.359375 48.75 
Q 46.734375 44.484375 48.25 36.625 
L 39.703125 35.296875 
Q 38.484375 40.53125 35.375 43.15625 
Q 32.28125 45.796875 27.875 45.796875 
Q 21.234375 45.796875 17.078125 41.03125 
Q 12.9375 36.28125 12.9375 25.984375 
Q 12.9375 15.53125 16.9375 10.796875 
Q 20.953125 6.0625 27.390625 6.0625 
Q 32.5625 6.0625 36.03125 9.234375 
Q 39.5 12.40625 40.4375 19 
z
" id="ArialMT-99"/>
       <path d="M 6.59375 0 
L 6.59375 71.578125 
L 15.375 71.578125 
L 15.375 45.90625 
Q 21.53125 53.03125 30.90625 53.03125 
Q 36.671875 53.03125 40.921875 50.75 
Q 45.171875 48.484375 47 44.484375 
Q 48.828125 40.484375 48.828125 32.859375 
L 48.828125 0 
L 40.046875 0 
L 40.046875 32.859375 
Q 40.046875 39.453125 37.1875 42.453125 
Q 34.328125 45.453125 29.109375 45.453125 
Q 25.203125 45.453125 21.75 43.421875 
Q 18.3125 41.40625 16.84375 37.9375 
Q 15.375 34.46875 15.375 28.375 
L 15.375 0 
z
" id="ArialMT-104"/>
       <path d="M 3.328125 25.921875 
Q 3.328125 40.328125 11.328125 47.265625 
Q 18.015625 53.03125 27.640625 53.03125 
Q 38.328125 53.03125 45.109375 46.015625 
Q 51.90625 39.015625 51.90625 26.65625 
Q 51.90625 16.65625 48.90625 10.90625 
Q 45.90625 5.171875 40.15625 2 
Q 34.421875 -1.171875 27.640625 -1.171875 
Q 16.75 -1.171875 10.03125 5.8125 
Q 3.328125 12.796875 3.328125 25.921875 
z
M 12.359375 25.921875 
Q 12.359375 15.96875 16.703125 11.015625 
Q 21.046875 6.0625 27.640625 6.0625 
Q 34.1875 6.0625 38.53125 11.03125 
Q 42.875 16.015625 42.875 26.21875 
Q 42.875 35.84375 38.5 40.796875 
Q 34.125 45.75 27.640625 45.75 
Q 21.046875 45.75 16.703125 40.8125 
Q 12.359375 35.890625 12.359375 25.921875 
z
" id="ArialMT-111"/>
       <path d="M 6.59375 0 
L 6.59375 51.859375 
L 14.453125 51.859375 
L 14.453125 44.578125 
Q 16.890625 48.390625 20.9375 50.703125 
Q 25 53.03125 30.171875 53.03125 
Q 35.9375 53.03125 39.625 50.640625 
Q 43.3125 48.25 44.828125 43.953125 
Q 50.984375 53.03125 60.84375 53.03125 
Q 68.5625 53.03125 72.703125 48.75 
Q 76.859375 44.484375 76.859375 35.59375 
L 76.859375 0 
L 68.109375 0 
L 68.109375 32.671875 
Q 68.109375 37.9375 67.25 40.25 
Q 66.40625 42.578125 64.15625 43.984375 
Q 61.921875 45.40625 58.890625 45.40625 
Q 53.421875 45.40625 49.796875 41.765625 
Q 46.1875 38.140625 46.1875 30.125 
L 46.1875 0 
L 37.40625 0 
L 37.40625 33.6875 
Q 37.40625 39.546875 35.25 42.46875 
Q 33.109375 45.40625 28.21875 45.40625 
Q 24.515625 45.40625 21.359375 43.453125 
Q 18.21875 41.5 16.796875 37.734375 
Q 15.375 33.984375 15.375 26.90625 
L 15.375 0 
z
" id="ArialMT-109"/>
       <path d="M 42.09375 16.703125 
L 51.171875 15.578125 
Q 49.03125 7.625 43.21875 3.21875 
Q 37.40625 -1.171875 28.375 -1.171875 
Q 17 -1.171875 10.328125 5.828125 
Q 3.65625 12.84375 3.65625 25.484375 
Q 3.65625 38.578125 10.390625 45.796875 
Q 17.140625 53.03125 27.875 53.03125 
Q 38.28125 53.03125 44.875 45.953125 
Q 51.46875 38.875 51.46875 26.03125 
Q 51.46875 25.25 51.421875 23.6875 
L 12.75 23.6875 
Q 13.234375 15.140625 17.578125 10.59375 
Q 21.921875 6.0625 28.421875 6.0625 
Q 33.25 6.0625 36.671875 8.59375 
Q 40.09375 11.140625 42.09375 16.703125 
z
M 13.234375 30.90625 
L 42.1875 30.90625 
Q 41.609375 37.453125 38.875 40.71875 
Q 34.671875 45.796875 27.984375 45.796875 
Q 21.921875 45.796875 17.796875 41.75 
Q 13.671875 37.703125 13.234375 30.90625 
z
" id="ArialMT-101"/>
       <path d="M 25.78125 7.859375 
L 27.046875 0.09375 
Q 23.34375 -0.6875 20.40625 -0.6875 
Q 15.625 -0.6875 12.984375 0.828125 
Q 10.359375 2.34375 9.28125 4.8125 
Q 8.203125 7.28125 8.203125 15.1875 
L 8.203125 45.015625 
L 1.765625 45.015625 
L 1.765625 51.859375 
L 8.203125 51.859375 
L 8.203125 64.703125 
L 16.9375 69.96875 
L 16.9375 51.859375 
L 25.78125 51.859375 
L 25.78125 45.015625 
L 16.9375 45.015625 
L 16.9375 14.703125 
Q 16.9375 10.9375 17.40625 9.859375 
Q 17.875 8.796875 18.921875 8.15625 
Q 19.96875 7.515625 21.921875 7.515625 
Q 23.390625 7.515625 25.78125 7.859375 
z
" id="ArialMT-116"/>
       <path d="M 6.5 0 
L 6.5 51.859375 
L 14.40625 51.859375 
L 14.40625 44 
Q 17.4375 49.515625 20 51.265625 
Q 22.5625 53.03125 25.640625 53.03125 
Q 30.078125 53.03125 34.671875 50.203125 
L 31.640625 42.046875 
Q 28.421875 43.953125 25.203125 43.953125 
Q 22.3125 43.953125 20.015625 42.21875 
Q 17.71875 40.484375 16.75 37.40625 
Q 15.28125 32.71875 15.28125 27.15625 
L 15.28125 0 
z
" id="ArialMT-114"/>
       <path d="M 6.640625 61.46875 
L 6.640625 71.578125 
L 15.4375 71.578125 
L 15.4375 61.46875 
z
M 6.640625 0 
L 6.640625 51.859375 
L 15.4375 51.859375 
L 15.4375 0 
z
" id="ArialMT-105"/>
       <path id="ArialMT-32"/>
       <path d="M 6.390625 0 
L 6.390625 71.578125 
L 15.1875 71.578125 
L 15.1875 0 
z
" id="ArialMT-108"/>
       <path d="M 40.234375 0 
L 40.234375 6.546875 
Q 35.296875 -1.171875 25.734375 -1.171875 
Q 19.53125 -1.171875 14.328125 2.25 
Q 9.125 5.671875 6.265625 11.796875 
Q 3.421875 17.921875 3.421875 25.875 
Q 3.421875 33.640625 6 39.96875 
Q 8.59375 46.296875 13.765625 49.65625 
Q 18.953125 53.03125 25.34375 53.03125 
Q 30.03125 53.03125 33.6875 51.046875 
Q 37.359375 49.078125 39.65625 45.90625 
L 39.65625 71.578125 
L 48.390625 71.578125 
L 48.390625 0 
z
M 12.453125 25.875 
Q 12.453125 15.921875 16.640625 10.984375 
Q 20.84375 6.0625 26.5625 6.0625 
Q 32.328125 6.0625 36.34375 10.765625 
Q 40.375 15.484375 40.375 25.140625 
Q 40.375 35.796875 36.265625 40.765625 
Q 32.171875 45.75 26.171875 45.75 
Q 20.3125 45.75 16.375 40.96875 
Q 12.453125 36.1875 12.453125 25.875 
z
" id="ArialMT-100"/>
      </defs>
      <use xlink:href="#ArialMT-80"/>
      <use x="66.699219" xlink:href="#ArialMT-115"/>
      <use x="116.699219" xlink:href="#ArialMT-121"/>
      <use x="166.699219" xlink:href="#ArialMT-99"/>
      <use x="216.699219" xlink:href="#ArialMT-104"/>
      <use x="272.314453" xlink:href="#ArialMT-111"/>
      <use x="327.929688" xlink:href="#ArialMT-109"/>
      <use x="411.230469" xlink:href="#ArialMT-101"/>
      <use x="466.845703" xlink:href="#ArialMT-116"/>
      <use x="494.628906" xlink:href="#ArialMT-114"/>
      <use x="527.929688" xlink:href="#ArialMT-105"/>
      <use x="550.146484" xlink:href="#ArialMT-99"/>
      <use x="600.146484" xlink:href="#ArialMT-32"/>
      <use x="627.929688" xlink:href="#ArialMT-116"/>
      <use x="655.712891" xlink:href="#ArialMT-104"/>
      <use x="711.328125" xlink:href="#ArialMT-114"/>
      <use x="744.628906" xlink:href="#ArialMT-101"/>
      <use x="800.244141" xlink:href="#ArialMT-115"/>
      <use x="850.244141" xlink:href="#ArialMT-104"/>
      <use x="905.859375" xlink:href="#ArialMT-111"/>
      <use x="961.474609" xlink:href="#ArialMT-108"/>
      <use x="983.691406" xlink:href="#ArialMT-100"/>
      <use x="1039.306641" xlink:href="#ArialMT-32"/>
     </g>
     <!--  Session 1 -->
     <g style="fill:#262626;" transform="translate(190.829246 520.783141)scale(0.18 -0.18)">
      <defs>
       <path d="M 4.5 23 
L 13.421875 23.78125 
Q 14.0625 18.40625 16.375 14.96875 
Q 18.703125 11.53125 23.578125 9.40625 
Q 28.46875 7.28125 34.578125 7.28125 
Q 39.984375 7.28125 44.140625 8.890625 
Q 48.296875 10.5 50.3125 13.296875 
Q 52.34375 16.109375 52.34375 19.4375 
Q 52.34375 22.796875 50.390625 25.3125 
Q 48.4375 27.828125 43.953125 29.546875 
Q 41.0625 30.671875 31.203125 33.03125 
Q 21.34375 35.40625 17.390625 37.5 
Q 12.25 40.1875 9.734375 44.15625 
Q 7.234375 48.140625 7.234375 53.078125 
Q 7.234375 58.5 10.296875 63.203125 
Q 13.375 67.921875 19.28125 70.359375 
Q 25.203125 72.796875 32.421875 72.796875 
Q 40.375 72.796875 46.453125 70.234375 
Q 52.546875 67.671875 55.8125 62.6875 
Q 59.078125 57.71875 59.328125 51.421875 
L 50.25 50.734375 
Q 49.515625 57.515625 45.28125 60.984375 
Q 41.0625 64.453125 32.8125 64.453125 
Q 24.21875 64.453125 20.28125 61.296875 
Q 16.359375 58.15625 16.359375 53.71875 
Q 16.359375 49.859375 19.140625 47.359375 
Q 21.875 44.875 33.421875 42.265625 
Q 44.96875 39.65625 49.265625 37.703125 
Q 55.515625 34.8125 58.484375 30.390625 
Q 61.46875 25.984375 61.46875 20.21875 
Q 61.46875 14.5 58.203125 9.4375 
Q 54.9375 4.390625 48.796875 1.578125 
Q 42.671875 -1.21875 35.015625 -1.21875 
Q 25.296875 -1.21875 18.71875 1.609375 
Q 12.15625 4.4375 8.421875 10.125 
Q 4.6875 15.828125 4.5 23 
z
" id="ArialMT-83"/>
       <path d="M 6.59375 0 
L 6.59375 51.859375 
L 14.5 51.859375 
L 14.5 44.484375 
Q 20.21875 53.03125 31 53.03125 
Q 35.6875 53.03125 39.625 51.34375 
Q 43.5625 49.65625 45.515625 46.921875 
Q 47.46875 44.1875 48.25 40.4375 
Q 48.734375 37.984375 48.734375 31.890625 
L 48.734375 0 
L 39.9375 0 
L 39.9375 31.546875 
Q 39.9375 36.921875 38.90625 39.578125 
Q 37.890625 42.234375 35.28125 43.8125 
Q 32.671875 45.40625 29.15625 45.40625 
Q 23.53125 45.40625 19.453125 41.84375 
Q 15.375 38.28125 15.375 28.328125 
L 15.375 0 
z
" id="ArialMT-110"/>
      </defs>
      <use xlink:href="#ArialMT-32"/>
      <use x="27.783203" xlink:href="#ArialMT-83"/>
      <use x="94.482422" xlink:href="#ArialMT-101"/>
      <use x="150.097656" xlink:href="#ArialMT-115"/>
      <use x="200.097656" xlink:href="#ArialMT-115"/>
      <use x="250.097656" xlink:href="#ArialMT-105"/>
      <use x="272.314453" xlink:href="#ArialMT-111"/>
      <use x="327.929688" xlink:href="#ArialMT-110"/>
      <use x="383.544922" xlink:href="#ArialMT-32"/>
      <use x="411.328125" xlink:href="#ArialMT-49"/>
     </g>
    </g>
   </g>
   <g id="matplotlib.axis_2">
    <g id="ytick_1">
     <g id="line2d_8">
      <defs>
       <path d="M 0 0 
L -9 0 
" id="m1e69216bde" style="stroke:#262626;stroke-width:1.875;"/>
      </defs>
      <g>
       <use style="fill:#262626;stroke:#262626;stroke-width:1.875;" x="54.815" xlink:href="#m1e69216bde" y="457.06"/>
      </g>
     </g>
     <g id="text_9">
      <!-- −40 -->
      <g style="fill:#262626;" transform="translate(14.326875 462.965195)scale(0.165 -0.165)">
       <use xlink:href="#ArialMT-8722"/>
       <use x="58.398438" xlink:href="#ArialMT-52"/>
       <use x="114.013672" xlink:href="#ArialMT-48"/>
      </g>
     </g>
    </g>
    <g id="ytick_2">
     <g id="line2d_9">
      <g>
       <use style="fill:#262626;stroke:#262626;stroke-width:1.875;" x="54.815" xlink:href="#m1e69216bde" y="396.626762"/>
      </g>
     </g>
     <g id="text_10">
      <!-- −30 -->
      <g style="fill:#262626;" transform="translate(14.326875 402.531957)scale(0.165 -0.165)">
       <use xlink:href="#ArialMT-8722"/>
       <use x="58.398438" xlink:href="#ArialMT-51"/>
       <use x="114.013672" xlink:href="#ArialMT-48"/>
      </g>
     </g>
    </g>
    <g id="ytick_3">
     <g id="line2d_10">
      <g>
       <use style="fill:#262626;stroke:#262626;stroke-width:1.875;" x="54.815" xlink:href="#m1e69216bde" y="336.193524"/>
      </g>
     </g>
     <g id="text_11">
      <!-- −20 -->
      <g style="fill:#262626;" transform="translate(14.326875 342.098719)scale(0.165 -0.165)">
       <use xlink:href="#ArialMT-8722"/>
       <use x="58.398438" xlink:href="#ArialMT-50"/>
       <use x="114.013672" xlink:href="#ArialMT-48"/>
      </g>
     </g>
    </g>
    <g id="ytick_4">
     <g id="line2d_11">
      <g>
       <use style="fill:#262626;stroke:#262626;stroke-width:1.875;" x="54.815" xlink:href="#m1e69216bde" y="275.760286"/>
      </g>
     </g>
     <g id="text_12">
      <!-- −10 -->
      <g style="fill:#262626;" transform="translate(14.326875 281.665481)scale(0.165 -0.165)">
       <use xlink:href="#ArialMT-8722"/>
       <use x="58.398438" xlink:href="#ArialMT-49"/>
       <use x="114.013672" xlink:href="#ArialMT-48"/>
      </g>
     </g>
    </g>
    <g id="ytick_5">
     <g id="line2d_12">
      <g>
       <use style="fill:#262626;stroke:#262626;stroke-width:1.875;" x="54.815" xlink:href="#m1e69216bde" y="215.327048"/>
      </g>
     </g>
     <g id="text_13">
      <!-- 0 -->
      <g style="fill:#262626;" transform="translate(33.139453 221.232243)scale(0.165 -0.165)">
       <use xlink:href="#ArialMT-48"/>
      </g>
     </g>
    </g>
    <g id="ytick_6">
     <g id="line2d_13">
      <g>
       <use style="fill:#262626;stroke:#262626;stroke-width:1.875;" x="54.815" xlink:href="#m1e69216bde" y="154.89381"/>
      </g>
     </g>
     <g id="text_14">
      <!-- 10 -->
      <g style="fill:#262626;" transform="translate(23.963906 160.799005)scale(0.165 -0.165)">
       <use xlink:href="#ArialMT-49"/>
       <use x="55.615234" xlink:href="#ArialMT-48"/>
      </g>
     </g>
    </g>
    <g id="ytick_7">
     <g id="line2d_14">
      <g>
       <use style="fill:#262626;stroke:#262626;stroke-width:1.875;" x="54.815" xlink:href="#m1e69216bde" y="94.460571"/>
      </g>
     </g>
     <g id="text_15">
      <!-- 20 -->
      <g style="fill:#262626;" transform="translate(23.963906 100.365767)scale(0.165 -0.165)">
       <use xlink:href="#ArialMT-50"/>
       <use x="55.615234" xlink:href="#ArialMT-48"/>
      </g>
     </g>
    </g>
    <g id="text_16">
     <!-- Psychometric threshold  -->
     <g style="fill:#262626;" transform="translate(-12.499938 371.793098)rotate(-90)scale(0.18 -0.18)">
      <use xlink:href="#ArialMT-80"/>
      <use x="66.699219" xlink:href="#ArialMT-115"/>
      <use x="116.699219" xlink:href="#ArialMT-121"/>
      <use x="166.699219" xlink:href="#ArialMT-99"/>
      <use x="216.699219" xlink:href="#ArialMT-104"/>
      <use x="272.314453" xlink:href="#ArialMT-111"/>
      <use x="327.929688" xlink:href="#ArialMT-109"/>
      <use x="411.230469" xlink:href="#ArialMT-101"/>
      <use x="466.845703" xlink:href="#ArialMT-116"/>
      <use x="494.628906" xlink:href="#ArialMT-114"/>
      <use x="527.929688" xlink:href="#ArialMT-105"/>
      <use x="550.146484" xlink:href="#ArialMT-99"/>
      <use x="600.146484" xlink:href="#ArialMT-32"/>
      <use x="627.929688" xlink:href="#ArialMT-116"/>
      <use x="655.712891" xlink:href="#ArialMT-104"/>
      <use x="711.328125" xlink:href="#ArialMT-114"/>
      <use x="744.628906" xlink:href="#ArialMT-101"/>
      <use x="800.244141" xlink:href="#ArialMT-115"/>
      <use x="850.244141" xlink:href="#ArialMT-104"/>
      <use x="905.859375" xlink:href="#ArialMT-111"/>
      <use x="961.474609" xlink:href="#ArialMT-108"/>
      <use x="983.691406" xlink:href="#ArialMT-100"/>
      <use x="1039.306641" xlink:href="#ArialMT-32"/>
     </g>
     <!--  Session 2 -->
     <g style="fill:#262626;" transform="translate(6.749375 317.783254)rotate(-90)scale(0.18 -0.18)">
      <use xlink:href="#ArialMT-32"/>
      <use x="27.783203" xlink:href="#ArialMT-83"/>
      <use x="94.482422" xlink:href="#ArialMT-101"/>
      <use x="150.097656" xlink:href="#ArialMT-115"/>
      <use x="200.097656" xlink:href="#ArialMT-115"/>
      <use x="250.097656" xlink:href="#ArialMT-105"/>
      <use x="272.314453" xlink:href="#ArialMT-111"/>
      <use x="327.929688" xlink:href="#ArialMT-110"/>
      <use x="383.544922" xlink:href="#ArialMT-32"/>
      <use x="411.328125" xlink:href="#ArialMT-50"/>
     </g>
    </g>
   </g>
   <g id="PathCollection_1">
    <defs>
     <path d="M 0 4.5 
C 1.193414 4.5 2.338109 4.025852 3.181981 3.181981 
C 4.025852 2.338109 4.5 1.193414 4.5 0 
C 4.5 -1.193414 4.025852 -2.338109 3.181981 -3.181981 
C 2.338109 -4.025852 1.193414 -4.5 0 -4.5 
C -1.193414 -4.5 -2.338109 -4.025852 -3.181981 -3.181981 
C -4.025852 -2.338109 -4.5 -1.193414 -4.5 0 
C -4.5 1.193414 -4.025852 2.338109 -3.181981 3.181981 
C -2.338109 4.025852 -1.193414 4.5 0 4.5 
z
" id="m1707b3a4bc" style="stroke:#4c72b0;stroke-opacity:0.8;"/>
    </defs>
    <g clip-path="url(#p5f04f126b8)">
     <use style="fill:#4c72b0;fill-opacity:0.8;stroke:#4c72b0;stroke-opacity:0.8;" x="374.498622" xlink:href="#m1707b3a4bc" y="172.050806"/>
     <use style="fill:#4c72b0;fill-opacity:0.8;stroke:#4c72b0;stroke-opacity:0.8;" x="279.581048" xlink:href="#m1707b3a4bc" y="399.80555"/>
     <use style="fill:#4c72b0;fill-opacity:0.8;stroke:#4c72b0;stroke-opacity:0.8;" x="236.211183" xlink:href="#m1707b3a4bc" y="278.165529"/>
     <use style="fill:#4c72b0;fill-opacity:0.8;stroke:#4c72b0;stroke-opacity:0.8;" x="346.790097" xlink:href="#m1707b3a4bc" y="211.398887"/>
     <use style="fill:#4c72b0;fill-opacity:0.8;stroke:#4c72b0;stroke-opacity:0.8;" x="178.788247" xlink:href="#m1707b3a4bc" y="362.355073"/>
     <use style="fill:#4c72b0;fill-opacity:0.8;stroke:#4c72b0;stroke-opacity:0.8;" x="266.89293" xlink:href="#m1707b3a4bc" y="208.189882"/>
     <use style="fill:#4c72b0;fill-opacity:0.8;stroke:#4c72b0;stroke-opacity:0.8;" x="307.081863" xlink:href="#m1707b3a4bc" y="225.250185"/>
     <use style="fill:#4c72b0;fill-opacity:0.8;stroke:#4c72b0;stroke-opacity:0.8;" x="214.965409" xlink:href="#m1707b3a4bc" y="263.274779"/>
     <use style="fill:#4c72b0;fill-opacity:0.8;stroke:#4c72b0;stroke-opacity:0.8;" x="171.061432" xlink:href="#m1707b3a4bc" y="322.257619"/>
     <use style="fill:#4c72b0;fill-opacity:0.8;stroke:#4c72b0;stroke-opacity:0.8;" x="168.111949" xlink:href="#m1707b3a4bc" y="231.420419"/>
     <use style="fill:#4c72b0;fill-opacity:0.8;stroke:#4c72b0;stroke-opacity:0.8;" x="290.548141" xlink:href="#m1707b3a4bc" y="318.855228"/>
     <use style="fill:#4c72b0;fill-opacity:0.8;stroke:#4c72b0;stroke-opacity:0.8;" x="314.209287" xlink:href="#m1707b3a4bc" y="303.408492"/>
     <use style="fill:#4c72b0;fill-opacity:0.8;stroke:#4c72b0;stroke-opacity:0.8;" x="272.340868" xlink:href="#m1707b3a4bc" y="281.114671"/>
     <use style="fill:#4c72b0;fill-opacity:0.8;stroke:#4c72b0;stroke-opacity:0.8;" x="176.135492" xlink:href="#m1707b3a4bc" y="371.963957"/>
     <use style="fill:#4c72b0;fill-opacity:0.8;stroke:#4c72b0;stroke-opacity:0.8;" x="293.462017" xlink:href="#m1707b3a4bc" y="243.543326"/>
     <use style="fill:#4c72b0;fill-opacity:0.8;stroke:#4c72b0;stroke-opacity:0.8;" x="178.633948" xlink:href="#m1707b3a4bc" y="300.537913"/>
     <use style="fill:#4c72b0;fill-opacity:0.8;stroke:#4c72b0;stroke-opacity:0.8;" x="298.927759" xlink:href="#m1707b3a4bc" y="262.229284"/>
     <use style="fill:#4c72b0;fill-opacity:0.8;stroke:#4c72b0;stroke-opacity:0.8;" x="341.354027" xlink:href="#m1707b3a4bc" y="412.466314"/>
     <use style="fill:#4c72b0;fill-opacity:0.8;stroke:#4c72b0;stroke-opacity:0.8;" x="255.943641" xlink:href="#m1707b3a4bc" y="351.126577"/>
     <use style="fill:#4c72b0;fill-opacity:0.8;stroke:#4c72b0;stroke-opacity:0.8;" x="215.760642" xlink:href="#m1707b3a4bc" y="423.960715"/>
     <use style="fill:#4c72b0;fill-opacity:0.8;stroke:#4c72b0;stroke-opacity:0.8;" x="406.97261" xlink:href="#m1707b3a4bc" y="179.828564"/>
     <use style="fill:#4c72b0;fill-opacity:0.8;stroke:#4c72b0;stroke-opacity:0.8;" x="215.090035" xlink:href="#m1707b3a4bc" y="326.234126"/>
     <use style="fill:#4c72b0;fill-opacity:0.8;stroke:#4c72b0;stroke-opacity:0.8;" x="181.684319" xlink:href="#m1707b3a4bc" y="251.846853"/>
     <use style="fill:#4c72b0;fill-opacity:0.8;stroke:#4c72b0;stroke-opacity:0.8;" x="221.802038" xlink:href="#m1707b3a4bc" y="341.481432"/>
     <use style="fill:#4c72b0;fill-opacity:0.8;stroke:#4c72b0;stroke-opacity:0.8;" x="248.917106" xlink:href="#m1707b3a4bc" y="229.812895"/>
     <use style="fill:#4c72b0;fill-opacity:0.8;stroke:#4c72b0;stroke-opacity:0.8;" x="66.701951" xlink:href="#m1707b3a4bc" y="294.627543"/>
     <use style="fill:#4c72b0;fill-opacity:0.8;stroke:#4c72b0;stroke-opacity:0.8;" x="349.175796" xlink:href="#m1707b3a4bc" y="287.889237"/>
     <use style="fill:#4c72b0;fill-opacity:0.8;stroke:#4c72b0;stroke-opacity:0.8;" x="263.723867" xlink:href="#m1707b3a4bc" y="283.87647"/>
     <use style="fill:#4c72b0;fill-opacity:0.8;stroke:#4c72b0;stroke-opacity:0.8;" x="293.432344" xlink:href="#m1707b3a4bc" y="228.356454"/>
     <use style="fill:#4c72b0;fill-opacity:0.8;stroke:#4c72b0;stroke-opacity:0.8;" x="111.460507" xlink:href="#m1707b3a4bc" y="328.506416"/>
     <use style="fill:#4c72b0;fill-opacity:0.8;stroke:#4c72b0;stroke-opacity:0.8;" x="201.01916" xlink:href="#m1707b3a4bc" y="353.58621"/>
     <use style="fill:#4c72b0;fill-opacity:0.8;stroke:#4c72b0;stroke-opacity:0.8;" x="271.510028" xlink:href="#m1707b3a4bc" y="205.996156"/>
     <use style="fill:#4c72b0;fill-opacity:0.8;stroke:#4c72b0;stroke-opacity:0.8;" x="359.478216" xlink:href="#m1707b3a4bc" y="197.064123"/>
     <use style="fill:#4c72b0;fill-opacity:0.8;stroke:#4c72b0;stroke-opacity:0.8;" x="273.118298" xlink:href="#m1707b3a4bc" y="242.449485"/>
     <use style="fill:#4c72b0;fill-opacity:0.8;stroke:#4c72b0;stroke-opacity:0.8;" x="239.142863" xlink:href="#m1707b3a4bc" y="343.13126"/>
     <use style="fill:#4c72b0;fill-opacity:0.8;stroke:#4c72b0;stroke-opacity:0.8;" x="291.966504" xlink:href="#m1707b3a4bc" y="276.533831"/>
     <use style="fill:#4c72b0;fill-opacity:0.8;stroke:#4c72b0;stroke-opacity:0.8;" x="291.094122" xlink:href="#m1707b3a4bc" y="306.279071"/>
     <use style="fill:#4c72b0;fill-opacity:0.8;stroke:#4c72b0;stroke-opacity:0.8;" x="242.786691" xlink:href="#m1707b3a4bc" y="296.724576"/>
     <use style="fill:#4c72b0;fill-opacity:0.8;stroke:#4c72b0;stroke-opacity:0.8;" x="117.424754" xlink:href="#m1707b3a4bc" y="341.831945"/>
     <use style="fill:#4c72b0;fill-opacity:0.8;stroke:#4c72b0;stroke-opacity:0.8;" x="234.864035" xlink:href="#m1707b3a4bc" y="251.139785"/>
     <use style="fill:#4c72b0;fill-opacity:0.8;stroke:#4c72b0;stroke-opacity:0.8;" x="230.870067" xlink:href="#m1707b3a4bc" y="342.103894"/>
     <use style="fill:#4c72b0;fill-opacity:0.8;stroke:#4c72b0;stroke-opacity:0.8;" x="280.696748" xlink:href="#m1707b3a4bc" y="133.162017"/>
     <use style="fill:#4c72b0;fill-opacity:0.8;stroke:#4c72b0;stroke-opacity:0.8;" x="144.90183" xlink:href="#m1707b3a4bc" y="323.71406"/>
     <use style="fill:#4c72b0;fill-opacity:0.8;stroke:#4c72b0;stroke-opacity:0.8;" x="248.199022" xlink:href="#m1707b3a4bc" y="291.424581"/>
     <use style="fill:#4c72b0;fill-opacity:0.8;stroke:#4c72b0;stroke-opacity:0.8;" x="259.854525" xlink:href="#m1707b3a4bc" y="242.135232"/>
     <use style="fill:#4c72b0;fill-opacity:0.8;stroke:#4c72b0;stroke-opacity:0.8;" x="249.801357" xlink:href="#m1707b3a4bc" y="226.144597"/>
     <use style="fill:#4c72b0;fill-opacity:0.8;stroke:#4c72b0;stroke-opacity:0.8;" x="335.46693" xlink:href="#m1707b3a4bc" y="141.096901"/>
     <use style="fill:#4c72b0;fill-opacity:0.8;stroke:#4c72b0;stroke-opacity:0.8;" x="89.97735" xlink:href="#m1707b3a4bc" y="313.16846"/>
     <use style="fill:#4c72b0;fill-opacity:0.8;stroke:#4c72b0;stroke-opacity:0.8;" x="133.905065" xlink:href="#m1707b3a4bc" y="388.812744"/>
     <use style="fill:#4c72b0;fill-opacity:0.8;stroke:#4c72b0;stroke-opacity:0.8;" x="267.771247" xlink:href="#m1707b3a4bc" y="198.242571"/>
     <use style="fill:#4c72b0;fill-opacity:0.8;stroke:#4c72b0;stroke-opacity:0.8;" x="179.239274" xlink:href="#m1707b3a4bc" y="388.728138"/>
     <use style="fill:#4c72b0;fill-opacity:0.8;stroke:#4c72b0;stroke-opacity:0.8;" x="221.060216" xlink:href="#m1707b3a4bc" y="251.961677"/>
     <use style="fill:#4c72b0;fill-opacity:0.8;stroke:#4c72b0;stroke-opacity:0.8;" x="223.564606" xlink:href="#m1707b3a4bc" y="374.38733"/>
     <use style="fill:#4c72b0;fill-opacity:0.8;stroke:#4c72b0;stroke-opacity:0.8;" x="176.076147" xlink:href="#m1707b3a4bc" y="429.38762"/>
     <use style="fill:#4c72b0;fill-opacity:0.8;stroke:#4c72b0;stroke-opacity:0.8;" x="280.19231" xlink:href="#m1707b3a4bc" y="240.751311"/>
     <use style="fill:#4c72b0;fill-opacity:0.8;stroke:#4c72b0;stroke-opacity:0.8;" x="389.008655" xlink:href="#m1707b3a4bc" y="172.359015"/>
     <use style="fill:#4c72b0;fill-opacity:0.8;stroke:#4c72b0;stroke-opacity:0.8;" x="217.932696" xlink:href="#m1707b3a4bc" y="244.890988"/>
     <use style="fill:#4c72b0;fill-opacity:0.8;stroke:#4c72b0;stroke-opacity:0.8;" x="285.776744" xlink:href="#m1707b3a4bc" y="410.75001"/>
     <use style="fill:#4c72b0;fill-opacity:0.8;stroke:#4c72b0;stroke-opacity:0.8;" x="227.82563" xlink:href="#m1707b3a4bc" y="241.488596"/>
     <use style="fill:#4c72b0;fill-opacity:0.8;stroke:#4c72b0;stroke-opacity:0.8;" x="187.310295" xlink:href="#m1707b3a4bc" y="255.708537"/>
     <use style="fill:#4c72b0;fill-opacity:0.8;stroke:#4c72b0;stroke-opacity:0.8;" x="281.106234" xlink:href="#m1707b3a4bc" y="237.469786"/>
     <use style="fill:#4c72b0;fill-opacity:0.8;stroke:#4c72b0;stroke-opacity:0.8;" x="325.4375" xlink:href="#m1707b3a4bc" y="227.202179"/>
     <use style="fill:#4c72b0;fill-opacity:0.8;stroke:#4c72b0;stroke-opacity:0.8;" x="290.120852" xlink:href="#m1707b3a4bc" y="256.010704"/>
     <use style="fill:#4c72b0;fill-opacity:0.8;stroke:#4c72b0;stroke-opacity:0.8;" x="228.140163" xlink:href="#m1707b3a4bc" y="393.030984"/>
     <use style="fill:#4c72b0;fill-opacity:0.8;stroke:#4c72b0;stroke-opacity:0.8;" x="378.937683" xlink:href="#m1707b3a4bc" y="167.49414"/>
     <use style="fill:#4c72b0;fill-opacity:0.8;stroke:#4c72b0;stroke-opacity:0.8;" x="309.212375" xlink:href="#m1707b3a4bc" y="253.907627"/>
     <use style="fill:#4c72b0;fill-opacity:0.8;stroke:#4c72b0;stroke-opacity:0.8;" x="297.141452" xlink:href="#m1707b3a4bc" y="241.22269"/>
     <use style="fill:#4c72b0;fill-opacity:0.8;stroke:#4c72b0;stroke-opacity:0.8;" x="298.031638" xlink:href="#m1707b3a4bc" y="242.443442"/>
     <use style="fill:#4c72b0;fill-opacity:0.8;stroke:#4c72b0;stroke-opacity:0.8;" x="279.373338" xlink:href="#m1707b3a4bc" y="188.506777"/>
     <use style="fill:#4c72b0;fill-opacity:0.8;stroke:#4c72b0;stroke-opacity:0.8;" x="89.051556" xlink:href="#m1707b3a4bc" y="352.123725"/>
     <use style="fill:#4c72b0;fill-opacity:0.8;stroke:#4c72b0;stroke-opacity:0.8;" x="300.79715" xlink:href="#m1707b3a4bc" y="236.545158"/>
     <use style="fill:#4c72b0;fill-opacity:0.8;stroke:#4c72b0;stroke-opacity:0.8;" x="209.843872" xlink:href="#m1707b3a4bc" y="329.207441"/>
     <use style="fill:#4c72b0;fill-opacity:0.8;stroke:#4c72b0;stroke-opacity:0.8;" x="295.43823" xlink:href="#m1707b3a4bc" y="254.016407"/>
     <use style="fill:#4c72b0;fill-opacity:0.8;stroke:#4c72b0;stroke-opacity:0.8;" x="206.087286" xlink:href="#m1707b3a4bc" y="300.67691"/>
     <use style="fill:#4c72b0;fill-opacity:0.8;stroke:#4c72b0;stroke-opacity:0.8;" x="218.187882" xlink:href="#m1707b3a4bc" y="181.146008"/>
     <use style="fill:#4c72b0;fill-opacity:0.8;stroke:#4c72b0;stroke-opacity:0.8;" x="245.866735" xlink:href="#m1707b3a4bc" y="252.698962"/>
     <use style="fill:#4c72b0;fill-opacity:0.8;stroke:#4c72b0;stroke-opacity:0.8;" x="154.058878" xlink:href="#m1707b3a4bc" y="302.091048"/>
     <use style="fill:#4c72b0;fill-opacity:0.8;stroke:#4c72b0;stroke-opacity:0.8;" x="153.299252" xlink:href="#m1707b3a4bc" y="293.96882"/>
     <use style="fill:#4c72b0;fill-opacity:0.8;stroke:#4c72b0;stroke-opacity:0.8;" x="277.094462" xlink:href="#m1707b3a4bc" y="170.274069"/>
     <use style="fill:#4c72b0;fill-opacity:0.8;stroke:#4c72b0;stroke-opacity:0.8;" x="172.824" xlink:href="#m1707b3a4bc" y="257.455058"/>
     <use style="fill:#4c72b0;fill-opacity:0.8;stroke:#4c72b0;stroke-opacity:0.8;" x="376.937732" xlink:href="#m1707b3a4bc" y="111.889517"/>
     <use style="fill:#4c72b0;fill-opacity:0.8;stroke:#4c72b0;stroke-opacity:0.8;" x="288.595666" xlink:href="#m1707b3a4bc" y="215.399568"/>
     <use style="fill:#4c72b0;fill-opacity:0.8;stroke:#4c72b0;stroke-opacity:0.8;" x="191.185572" xlink:href="#m1707b3a4bc" y="221.847794"/>
     <use style="fill:#4c72b0;fill-opacity:0.8;stroke:#4c72b0;stroke-opacity:0.8;" x="233.273569" xlink:href="#m1707b3a4bc" y="236.696241"/>
     <use style="fill:#4c72b0;fill-opacity:0.8;stroke:#4c72b0;stroke-opacity:0.8;" x="235.688941" xlink:href="#m1707b3a4bc" y="274.279671"/>
     <use style="fill:#4c72b0;fill-opacity:0.8;stroke:#4c72b0;stroke-opacity:0.8;" x="226.614977" xlink:href="#m1707b3a4bc" y="236.835237"/>
     <use style="fill:#4c72b0;fill-opacity:0.8;stroke:#4c72b0;stroke-opacity:0.8;" x="345.549771" xlink:href="#m1707b3a4bc" y="249.260311"/>
     <use style="fill:#4c72b0;fill-opacity:0.8;stroke:#4c72b0;stroke-opacity:0.8;" x="276.07965" xlink:href="#m1707b3a4bc" y="237.947209"/>
     <use style="fill:#4c72b0;fill-opacity:0.8;stroke:#4c72b0;stroke-opacity:0.8;" x="274.857128" xlink:href="#m1707b3a4bc" y="235.807872"/>
     <use style="fill:#4c72b0;fill-opacity:0.8;stroke:#4c72b0;stroke-opacity:0.8;" x="295.177108" xlink:href="#m1707b3a4bc" y="229.172302"/>
     <use style="fill:#4c72b0;fill-opacity:0.8;stroke:#4c72b0;stroke-opacity:0.8;" x="243.611597" xlink:href="#m1707b3a4bc" y="222.361477"/>
     <use style="fill:#4c72b0;fill-opacity:0.8;stroke:#4c72b0;stroke-opacity:0.8;" x="217.131528" xlink:href="#m1707b3a4bc" y="232.743907"/>
     <use style="fill:#4c72b0;fill-opacity:0.8;stroke:#4c72b0;stroke-opacity:0.8;" x="218.900031" xlink:href="#m1707b3a4bc" y="371.208542"/>
     <use style="fill:#4c72b0;fill-opacity:0.8;stroke:#4c72b0;stroke-opacity:0.8;" x="346.315331" xlink:href="#m1707b3a4bc" y="273.759946"/>
     <use style="fill:#4c72b0;fill-opacity:0.8;stroke:#4c72b0;stroke-opacity:0.8;" x="317.040078" xlink:href="#m1707b3a4bc" y="284.613755"/>
     <use style="fill:#4c72b0;fill-opacity:0.8;stroke:#4c72b0;stroke-opacity:0.8;" x="357.12219" xlink:href="#m1707b3a4bc" y="170.715231"/>
     <use style="fill:#4c72b0;fill-opacity:0.8;stroke:#4c72b0;stroke-opacity:0.8;" x="169.862648" xlink:href="#m1707b3a4bc" y="240.557925"/>
     <use style="fill:#4c72b0;fill-opacity:0.8;stroke:#4c72b0;stroke-opacity:0.8;" x="173.595495" xlink:href="#m1707b3a4bc" y="355.888716"/>
     <use style="fill:#4c72b0;fill-opacity:0.8;stroke:#4c72b0;stroke-opacity:0.8;" x="310.043216" xlink:href="#m1707b3a4bc" y="259.963037"/>
     <use style="fill:#4c72b0;fill-opacity:0.8;stroke:#4c72b0;stroke-opacity:0.8;" x="316.773023" xlink:href="#m1707b3a4bc" y="255.412414"/>
     <use style="fill:#4c72b0;fill-opacity:0.8;stroke:#4c72b0;stroke-opacity:0.8;" x="270.127272" xlink:href="#m1707b3a4bc" y="315.344057"/>
     <use style="fill:#4c72b0;fill-opacity:0.8;stroke:#4c72b0;stroke-opacity:0.8;" x="185.535857" xlink:href="#m1707b3a4bc" y="288.705085"/>
     <use style="fill:#4c72b0;fill-opacity:0.8;stroke:#4c72b0;stroke-opacity:0.8;" x="166.877557" xlink:href="#m1707b3a4bc" y="277.730409"/>
     <use style="fill:#4c72b0;fill-opacity:0.8;stroke:#4c72b0;stroke-opacity:0.8;" x="301.995934" xlink:href="#m1707b3a4bc" y="253.551071"/>
     <use style="fill:#4c72b0;fill-opacity:0.8;stroke:#4c72b0;stroke-opacity:0.8;" x="280.032076" xlink:href="#m1707b3a4bc" y="270.853107"/>
     <use style="fill:#4c72b0;fill-opacity:0.8;stroke:#4c72b0;stroke-opacity:0.8;" x="271.314187" xlink:href="#m1707b3a4bc" y="288.886385"/>
     <use style="fill:#4c72b0;fill-opacity:0.8;stroke:#4c72b0;stroke-opacity:0.8;" x="270.032319" xlink:href="#m1707b3a4bc" y="276.974994"/>
     <use style="fill:#4c72b0;fill-opacity:0.8;stroke:#4c72b0;stroke-opacity:0.8;" x="285.129875" xlink:href="#m1707b3a4bc" y="233.245503"/>
     <use style="fill:#4c72b0;fill-opacity:0.8;stroke:#4c72b0;stroke-opacity:0.8;" x="294.019867" xlink:href="#m1707b3a4bc" y="173.972583"/>
     <use style="fill:#4c72b0;fill-opacity:0.8;stroke:#4c72b0;stroke-opacity:0.8;" x="365.887555" xlink:href="#m1707b3a4bc" y="250.505236"/>
     <use style="fill:#4c72b0;fill-opacity:0.8;stroke:#4c72b0;stroke-opacity:0.8;" x="367.881572" xlink:href="#m1707b3a4bc" y="261.274439"/>
     <use style="fill:#4c72b0;fill-opacity:0.8;stroke:#4c72b0;stroke-opacity:0.8;" x="356.042097" xlink:href="#m1707b3a4bc" y="269.662572"/>
     <use style="fill:#4c72b0;fill-opacity:0.8;stroke:#4c72b0;stroke-opacity:0.8;" x="387.809871" xlink:href="#m1707b3a4bc" y="416.056048"/>
     <use style="fill:#4c72b0;fill-opacity:0.8;stroke:#4c72b0;stroke-opacity:0.8;" x="162.207048" xlink:href="#m1707b3a4bc" y="379.977405"/>
     <use style="fill:#4c72b0;fill-opacity:0.8;stroke:#4c72b0;stroke-opacity:0.8;" x="192.930336" xlink:href="#m1707b3a4bc" y="225.304575"/>
     <use style="fill:#4c72b0;fill-opacity:0.8;stroke:#4c72b0;stroke-opacity:0.8;" x="193.244869" xlink:href="#m1707b3a4bc" y="293.93256"/>
     <use style="fill:#4c72b0;fill-opacity:0.8;stroke:#4c72b0;stroke-opacity:0.8;" x="254.827941" xlink:href="#m1707b3a4bc" y="256.959505"/>
     <use style="fill:#4c72b0;fill-opacity:0.8;stroke:#4c72b0;stroke-opacity:0.8;" x="93.852627" xlink:href="#m1707b3a4bc" y="382.370561"/>
     <use style="fill:#4c72b0;fill-opacity:0.8;stroke:#4c72b0;stroke-opacity:0.8;" x="273.800774" xlink:href="#m1707b3a4bc" y="246.468295"/>
     <use style="fill:#4c72b0;fill-opacity:0.8;stroke:#4c72b0;stroke-opacity:0.8;" x="203.398924" xlink:href="#m1707b3a4bc" y="323.635497"/>
     <use style="fill:#4c72b0;fill-opacity:0.8;stroke:#4c72b0;stroke-opacity:0.8;" x="247.130799" xlink:href="#m1707b3a4bc" y="319.652947"/>
     <use style="fill:#4c72b0;fill-opacity:0.8;stroke:#4c72b0;stroke-opacity:0.8;" x="367.169423" xlink:href="#m1707b3a4bc" y="146.541936"/>
     <use style="fill:#4c72b0;fill-opacity:0.8;stroke:#4c72b0;stroke-opacity:0.8;" x="186.224268" xlink:href="#m1707b3a4bc" y="353.53182"/>
     <use style="fill:#4c72b0;fill-opacity:0.8;stroke:#4c72b0;stroke-opacity:0.8;" x="277.385256" xlink:href="#m1707b3a4bc" y="290.971332"/>
     <use style="fill:#4c72b0;fill-opacity:0.8;stroke:#4c72b0;stroke-opacity:0.8;" x="286.744079" xlink:href="#m1707b3a4bc" y="314.685334"/>
     <use style="fill:#4c72b0;fill-opacity:0.8;stroke:#4c72b0;stroke-opacity:0.8;" x="188.224219" xlink:href="#m1707b3a4bc" y="252.155063"/>
     <use style="fill:#4c72b0;fill-opacity:0.8;stroke:#4c72b0;stroke-opacity:0.8;" x="232.97684" xlink:href="#m1707b3a4bc" y="249.302614"/>
     <use style="fill:#4c72b0;fill-opacity:0.8;stroke:#4c72b0;stroke-opacity:0.8;" x="233.226092" xlink:href="#m1707b3a4bc" y="241.609463"/>
     <use style="fill:#4c72b0;fill-opacity:0.8;stroke:#4c72b0;stroke-opacity:0.8;" x="159.94004" xlink:href="#m1707b3a4bc" y="424.565048"/>
     <use style="fill:#4c72b0;fill-opacity:0.8;stroke:#4c72b0;stroke-opacity:0.8;" x="266.904799" xlink:href="#m1707b3a4bc" y="252.904435"/>
     <use style="fill:#4c72b0;fill-opacity:0.8;stroke:#4c72b0;stroke-opacity:0.8;" x="279.670067" xlink:href="#m1707b3a4bc" y="260.942056"/>
     <use style="fill:#4c72b0;fill-opacity:0.8;stroke:#4c72b0;stroke-opacity:0.8;" x="229.131237" xlink:href="#m1707b3a4bc" y="362.977535"/>
     <use style="fill:#4c72b0;fill-opacity:0.8;stroke:#4c72b0;stroke-opacity:0.8;" x="177.547921" xlink:href="#m1707b3a4bc" y="247.012194"/>
     <use style="fill:#4c72b0;fill-opacity:0.8;stroke:#4c72b0;stroke-opacity:0.8;" x="358.700786" xlink:href="#m1707b3a4bc" y="183.811114"/>
     <use style="fill:#4c72b0;fill-opacity:0.8;stroke:#4c72b0;stroke-opacity:0.8;" x="204.117008" xlink:href="#m1707b3a4bc" y="350.576634"/>
     <use style="fill:#4c72b0;fill-opacity:0.8;stroke:#4c72b0;stroke-opacity:0.8;" x="360.285318" xlink:href="#m1707b3a4bc" y="166.756854"/>
     <use style="fill:#4c72b0;fill-opacity:0.8;stroke:#4c72b0;stroke-opacity:0.8;" x="264.441951" xlink:href="#m1707b3a4bc" y="211.157154"/>
     <use style="fill:#4c72b0;fill-opacity:0.8;stroke:#4c72b0;stroke-opacity:0.8;" x="198.396079" xlink:href="#m1707b3a4bc" y="284.106116"/>
     <use style="fill:#4c72b0;fill-opacity:0.8;stroke:#4c72b0;stroke-opacity:0.8;" x="203.339579" xlink:href="#m1707b3a4bc" y="221.436848"/>
     <use style="fill:#4c72b0;fill-opacity:0.8;stroke:#4c72b0;stroke-opacity:0.8;" x="272.542644" xlink:href="#m1707b3a4bc" y="206.830134"/>
     <use style="fill:#4c72b0;fill-opacity:0.8;stroke:#4c72b0;stroke-opacity:0.8;" x="200.140843" xlink:href="#m1707b3a4bc" y="334.326137"/>
     <use style="fill:#4c72b0;fill-opacity:0.8;stroke:#4c72b0;stroke-opacity:0.8;" x="214.027746" xlink:href="#m1707b3a4bc" y="165.904746"/>
     <use style="fill:#4c72b0;fill-opacity:0.8;stroke:#4c72b0;stroke-opacity:0.8;" x="276.756191" xlink:href="#m1707b3a4bc" y="225.552352"/>
     <use style="fill:#4c72b0;fill-opacity:0.8;stroke:#4c72b0;stroke-opacity:0.8;" x="283.984502" xlink:href="#m1707b3a4bc" y="237.397266"/>
     <use style="fill:#4c72b0;fill-opacity:0.8;stroke:#4c72b0;stroke-opacity:0.8;" x="102.125422" xlink:href="#m1707b3a4bc" y="299.752281"/>
     <use style="fill:#4c72b0;fill-opacity:0.8;stroke:#4c72b0;stroke-opacity:0.8;" x="171.429375" xlink:href="#m1707b3a4bc" y="436.379746"/>
     <use style="fill:#4c72b0;fill-opacity:0.8;stroke:#4c72b0;stroke-opacity:0.8;" x="223.113579" xlink:href="#m1707b3a4bc" y="391.858579"/>
     <use style="fill:#4c72b0;fill-opacity:0.8;stroke:#4c72b0;stroke-opacity:0.8;" x="161.910319" xlink:href="#m1707b3a4bc" y="295.159355"/>
     <use style="fill:#4c72b0;fill-opacity:0.8;stroke:#4c72b0;stroke-opacity:0.8;" x="147.851314" xlink:href="#m1707b3a4bc" y="338.87676"/>
     <use style="fill:#4c72b0;fill-opacity:0.8;stroke:#4c72b0;stroke-opacity:0.8;" x="256.893173" xlink:href="#m1707b3a4bc" y="244.111399"/>
     <use style="fill:#4c72b0;fill-opacity:0.8;stroke:#4c72b0;stroke-opacity:0.8;" x="269.972973" xlink:href="#m1707b3a4bc" y="282.135992"/>
     <use style="fill:#4c72b0;fill-opacity:0.8;stroke:#4c72b0;stroke-opacity:0.8;" x="354.054015" xlink:href="#m1707b3a4bc" y="228.574013"/>
     <use style="fill:#4c72b0;fill-opacity:0.8;stroke:#4c72b0;stroke-opacity:0.8;" x="203.802475" xlink:href="#m1707b3a4bc" y="295.878511"/>
     <use style="fill:#4c72b0;fill-opacity:0.8;stroke:#4c72b0;stroke-opacity:0.8;" x="316.084612" xlink:href="#m1707b3a4bc" y="189.830264"/>
     <use style="fill:#4c72b0;fill-opacity:0.8;stroke:#4c72b0;stroke-opacity:0.8;" x="304.654623" xlink:href="#m1707b3a4bc" y="169.355483"/>
     <use style="fill:#4c72b0;fill-opacity:0.8;stroke:#4c72b0;stroke-opacity:0.8;" x="208.063499" xlink:href="#m1707b3a4bc" y="288.584219"/>
     <use style="fill:#4c72b0;fill-opacity:0.8;stroke:#4c72b0;stroke-opacity:0.8;" x="220.710076" xlink:href="#m1707b3a4bc" y="311.07747"/>
     <use style="fill:#4c72b0;fill-opacity:0.8;stroke:#4c72b0;stroke-opacity:0.8;" x="391.145102" xlink:href="#m1707b3a4bc" y="129.807972"/>
     <use style="fill:#4c72b0;fill-opacity:0.8;stroke:#4c72b0;stroke-opacity:0.8;" x="303.764437" xlink:href="#m1707b3a4bc" y="186.536653"/>
     <use style="fill:#4c72b0;fill-opacity:0.8;stroke:#4c72b0;stroke-opacity:0.8;" x="286.091276" xlink:href="#m1707b3a4bc" y="297.371212"/>
     <use style="fill:#4c72b0;fill-opacity:0.8;stroke:#4c72b0;stroke-opacity:0.8;" x="234.65039" xlink:href="#m1707b3a4bc" y="285.71364"/>
     <use style="fill:#4c72b0;fill-opacity:0.8;stroke:#4c72b0;stroke-opacity:0.8;" x="181.399459" xlink:href="#m1707b3a4bc" y="330.337543"/>
     <use style="fill:#4c72b0;fill-opacity:0.8;stroke:#4c72b0;stroke-opacity:0.8;" x="216.864472" xlink:href="#m1707b3a4bc" y="223.310278"/>
     <use style="fill:#4c72b0;fill-opacity:0.8;stroke:#4c72b0;stroke-opacity:0.8;" x="337.579638" xlink:href="#m1707b3a4bc" y="161.680462"/>
     <use style="fill:#4c72b0;fill-opacity:0.8;stroke:#4c72b0;stroke-opacity:0.8;" x="182.01072" xlink:href="#m1707b3a4bc" y="225.836388"/>
     <use style="fill:#4c72b0;fill-opacity:0.8;stroke:#4c72b0;stroke-opacity:0.8;" x="248.187153" xlink:href="#m1707b3a4bc" y="215.266614"/>
     <use style="fill:#4c72b0;fill-opacity:0.8;stroke:#4c72b0;stroke-opacity:0.8;" x="215.558866" xlink:href="#m1707b3a4bc" y="307.548169"/>
     <use style="fill:#4c72b0;fill-opacity:0.8;stroke:#4c72b0;stroke-opacity:0.8;" x="250.341403" xlink:href="#m1707b3a4bc" y="160.888787"/>
     <use style="fill:#4c72b0;fill-opacity:0.8;stroke:#4c72b0;stroke-opacity:0.8;" x="152.225095" xlink:href="#m1707b3a4bc" y="293.962777"/>
     <use style="fill:#4c72b0;fill-opacity:0.8;stroke:#4c72b0;stroke-opacity:0.8;" x="239.45146" xlink:href="#m1707b3a4bc" y="192.314071"/>
     <use style="fill:#4c72b0;fill-opacity:0.8;stroke:#4c72b0;stroke-opacity:0.8;" x="246.923089" xlink:href="#m1707b3a4bc" y="264.4774"/>
     <use style="fill:#4c72b0;fill-opacity:0.8;stroke:#4c72b0;stroke-opacity:0.8;" x="324.220913" xlink:href="#m1707b3a4bc" y="183.925937"/>
     <use style="fill:#4c72b0;fill-opacity:0.8;stroke:#4c72b0;stroke-opacity:0.8;" x="264.358867" xlink:href="#m1707b3a4bc" y="278.546258"/>
     <use style="fill:#4c72b0;fill-opacity:0.8;stroke:#4c72b0;stroke-opacity:0.8;" x="289.919076" xlink:href="#m1707b3a4bc" y="217.919634"/>
     <use style="fill:#4c72b0;fill-opacity:0.8;stroke:#4c72b0;stroke-opacity:0.8;" x="310.428963" xlink:href="#m1707b3a4bc" y="195.861502"/>
     <use style="fill:#4c72b0;fill-opacity:0.8;stroke:#4c72b0;stroke-opacity:0.8;" x="324.67194" xlink:href="#m1707b3a4bc" y="187.437108"/>
     <use style="fill:#4c72b0;fill-opacity:0.8;stroke:#4c72b0;stroke-opacity:0.8;" x="303.900932" xlink:href="#m1707b3a4bc" y="216.650536"/>
     <use style="fill:#4c72b0;fill-opacity:0.8;stroke:#4c72b0;stroke-opacity:0.8;" x="204.621447" xlink:href="#m1707b3a4bc" y="296.108157"/>
    </g>
   </g>
   <g id="PolyCollection_1">
    <defs>
     <path d="M 66.701951 -167.331621 
L 66.701951 -114.57336 
L 70.139029 -116.799641 
L 73.576106 -119.028761 
L 77.013183 -121.258365 
L 80.450261 -123.487969 
L 83.887338 -125.717572 
L 87.324415 -127.947176 
L 90.761493 -130.176779 
L 94.19857 -132.373464 
L 97.635648 -134.513911 
L 101.072725 -136.666816 
L 104.509802 -138.819721 
L 107.94688 -140.977374 
L 111.383957 -143.136735 
L 114.821034 -145.369728 
L 118.258112 -147.630346 
L 121.695189 -149.92072 
L 125.132266 -152.126219 
L 128.569344 -154.031835 
L 132.006421 -156.297685 
L 135.443499 -158.592976 
L 138.880576 -160.891421 
L 142.317653 -163.043544 
L 145.754731 -165.357032 
L 149.191808 -167.343135 
L 152.628885 -169.533322 
L 156.065963 -171.584787 
L 159.50304 -173.879688 
L 162.940117 -175.937212 
L 166.377195 -177.986458 
L 169.814272 -180.260731 
L 173.251349 -182.417759 
L 176.688427 -184.512693 
L 180.125504 -186.610378 
L 183.562582 -188.684109 
L 186.999659 -190.708131 
L 190.436736 -192.895069 
L 193.873814 -195.002869 
L 197.310891 -197.001305 
L 200.747968 -199.173734 
L 204.185046 -201.151948 
L 207.622123 -202.997001 
L 211.0592 -205.166825 
L 214.496278 -207.089548 
L 217.933355 -209.159813 
L 221.370432 -211.088532 
L 224.80751 -212.982114 
L 228.244587 -214.87896 
L 231.681665 -216.643578 
L 235.118742 -218.476286 
L 238.555819 -220.499167 
L 241.992897 -222.140845 
L 245.429974 -224.180903 
L 248.867051 -225.972671 
L 252.304129 -227.573124 
L 255.741206 -229.079583 
L 259.178283 -230.619198 
L 262.615361 -232.229094 
L 266.052438 -233.802078 
L 269.489516 -235.255424 
L 272.926593 -236.732995 
L 276.36367 -238.39086 
L 279.800748 -239.960408 
L 283.237825 -241.428427 
L 286.674902 -243.004516 
L 290.11198 -244.455353 
L 293.549057 -245.873233 
L 296.986134 -247.284534 
L 300.423212 -248.515392 
L 303.860289 -250.032031 
L 307.297366 -251.370362 
L 310.734444 -252.95078 
L 314.171521 -254.368289 
L 317.608599 -255.785799 
L 321.045676 -257.203309 
L 324.482753 -258.620818 
L 327.919831 -260.038328 
L 331.356908 -261.455838 
L 334.793985 -262.884276 
L 338.231063 -264.337357 
L 341.66814 -265.701092 
L 345.105217 -267.117118 
L 348.542295 -268.53503 
L 351.979372 -269.952943 
L 355.416449 -271.209887 
L 358.853527 -272.447568 
L 362.290604 -273.687782 
L 365.727682 -274.981933 
L 369.164759 -276.408152 
L 372.601836 -277.83437 
L 376.038914 -279.260589 
L 379.475991 -280.460299 
L 382.913068 -281.647148 
L 386.350146 -282.835907 
L 389.787223 -284.024667 
L 393.2243 -285.396809 
L 396.661378 -286.605159 
L 400.098455 -287.755334 
L 403.535532 -288.905509 
L 406.97261 -290.055684 
L 406.97261 -338.860212 
L 406.97261 -338.860212 
L 403.535532 -336.774656 
L 400.098455 -334.687069 
L 396.661378 -332.596816 
L 393.2243 -330.422432 
L 389.787223 -328.124145 
L 386.350146 -325.847888 
L 382.913068 -323.686786 
L 379.475991 -321.358875 
L 376.038914 -319.048092 
L 372.601836 -316.887682 
L 369.164759 -314.811881 
L 365.727682 -312.521722 
L 362.290604 -310.332071 
L 358.853527 -308.150656 
L 355.416449 -306.017978 
L 351.979372 -303.907403 
L 348.542295 -301.673606 
L 345.105217 -299.438957 
L 341.66814 -297.303993 
L 338.231063 -295.179344 
L 334.793985 -293.025649 
L 331.356908 -290.895795 
L 327.919831 -288.76594 
L 324.482753 -286.696075 
L 321.045676 -284.864513 
L 317.608599 -282.650275 
L 314.171521 -280.422863 
L 310.734444 -278.331326 
L 307.297366 -276.153338 
L 303.860289 -274.131484 
L 300.423212 -272.195485 
L 296.986134 -270.118553 
L 293.549057 -267.857152 
L 290.11198 -265.666556 
L 286.674902 -263.53314 
L 283.237825 -261.448731 
L 279.800748 -259.325223 
L 276.36367 -257.270769 
L 272.926593 -255.323869 
L 269.489516 -253.462087 
L 266.052438 -251.614415 
L 262.615361 -249.890264 
L 259.178283 -248.110608 
L 255.741206 -246.2403 
L 252.304129 -244.607144 
L 248.867051 -242.875991 
L 245.429974 -241.220008 
L 241.992897 -239.446328 
L 238.555819 -237.745654 
L 235.118742 -236.080338 
L 231.681665 -234.385277 
L 228.244587 -232.649275 
L 224.80751 -231.071577 
L 221.370432 -229.47192 
L 217.933355 -227.819816 
L 214.496278 -226.194304 
L 211.0592 -224.613951 
L 207.622123 -223.081199 
L 204.185046 -221.605628 
L 200.747968 -220.030502 
L 197.310891 -218.449208 
L 193.873814 -216.875405 
L 190.436736 -215.390437 
L 186.999659 -214.149389 
L 183.562582 -212.611407 
L 180.125504 -211.073425 
L 176.688427 -209.66236 
L 173.251349 -208.221113 
L 169.814272 -206.779057 
L 166.377195 -205.225193 
L 162.940117 -203.869389 
L 159.50304 -202.433043 
L 156.065963 -200.953722 
L 152.628885 -199.397545 
L 149.191808 -197.9969 
L 145.754731 -196.63641 
L 142.317653 -195.37356 
L 138.880576 -194.149062 
L 135.443499 -192.966808 
L 132.006421 -191.691468 
L 128.569344 -190.343732 
L 125.132266 -189.059309 
L 121.695189 -187.796459 
L 118.258112 -186.533609 
L 114.821034 -185.270758 
L 111.383957 -184.007908 
L 107.94688 -182.745037 
L 104.509802 -181.482208 
L 101.072725 -180.219358 
L 97.635648 -178.956507 
L 94.19857 -177.684687 
L 90.761493 -176.411598 
L 87.324415 -175.138509 
L 83.887338 -173.86542 
L 80.450261 -172.643598 
L 77.013183 -171.319243 
L 73.576106 -169.964996 
L 70.139029 -168.582648 
L 66.701951 -167.331621 
z
" id="maacd462de6" style="stroke:#ffffff;stroke-opacity:0.15;stroke-width:1.5;"/>
    </defs>
    <g clip-path="url(#p5f04f126b8)">
     <use style="fill:#4c72b0;fill-opacity:0.15;stroke:#ffffff;stroke-opacity:0.15;stroke-width:1.5;" x="0" xlink:href="#maacd462de6" y="504"/>
    </g>
   </g>
   <g id="line2d_15">
    <path clip-path="url(#p5f04f126b8)" d="M 66.701951 362.887404 
L 70.139029 361.128394 
L 73.576106 359.369383 
L 77.013183 357.610372 
L 80.450261 355.851361 
L 83.887338 354.09235 
L 87.324415 352.33334 
L 90.761493 350.574329 
L 94.19857 348.815318 
L 97.635648 347.056307 
L 101.072725 345.297296 
L 104.509802 343.538285 
L 107.94688 341.779275 
L 111.383957 340.020264 
L 114.821034 338.261253 
L 118.258112 336.502242 
L 121.695189 334.743231 
L 125.132266 332.98422 
L 128.569344 331.22521 
L 132.006421 329.466199 
L 135.443499 327.707188 
L 138.880576 325.948177 
L 142.317653 324.189166 
L 145.754731 322.430155 
L 149.191808 320.671145 
L 152.628885 318.912134 
L 156.065963 317.153123 
L 159.50304 315.394112 
L 162.940117 313.635101 
L 166.377195 311.87609 
L 169.814272 310.11708 
L 173.251349 308.358069 
L 176.688427 306.599058 
L 180.125504 304.840047 
L 183.562582 303.081036 
L 186.999659 301.322026 
L 190.436736 299.563015 
L 193.873814 297.804004 
L 197.310891 296.044993 
L 200.747968 294.285982 
L 204.185046 292.526971 
L 207.622123 290.767961 
L 211.0592 289.00895 
L 214.496278 287.249939 
L 217.933355 285.490928 
L 221.370432 283.731917 
L 224.80751 281.972906 
L 228.244587 280.213896 
L 231.681665 278.454885 
L 235.118742 276.695874 
L 238.555819 274.936863 
L 241.992897 273.177852 
L 245.429974 271.418841 
L 248.867051 269.659831 
L 252.304129 267.90082 
L 255.741206 266.141809 
L 259.178283 264.382798 
L 262.615361 262.623787 
L 266.052438 260.864776 
L 269.489516 259.105766 
L 272.926593 257.346755 
L 276.36367 255.587744 
L 279.800748 253.828733 
L 283.237825 252.069722 
L 286.674902 250.310712 
L 290.11198 248.551701 
L 293.549057 246.79269 
L 296.986134 245.033679 
L 300.423212 243.274668 
L 303.860289 241.515657 
L 307.297366 239.756647 
L 310.734444 237.997636 
L 314.171521 236.238625 
L 317.608599 234.479614 
L 321.045676 232.720603 
L 324.482753 230.961592 
L 327.919831 229.202582 
L 331.356908 227.443571 
L 334.793985 225.68456 
L 338.231063 223.925549 
L 341.66814 222.166538 
L 345.105217 220.407527 
L 348.542295 218.648517 
L 351.979372 216.889506 
L 355.416449 215.130495 
L 358.853527 213.371484 
L 362.290604 211.612473 
L 365.727682 209.853462 
L 369.164759 208.094452 
L 372.601836 206.335441 
L 376.038914 204.57643 
L 379.475991 202.817419 
L 382.913068 201.058408 
L 386.350146 199.299398 
L 389.787223 197.540387 
L 393.2243 195.781376 
L 396.661378 194.022365 
L 400.098455 192.263354 
L 403.535532 190.504343 
L 406.97261 188.745333 
" style="fill:none;stroke:#4c72b0;stroke-linecap:round;stroke-width:3.375;"/>
   </g>
   <g id="patch_3">
    <path d="M 54.815 457.06 
L 54.815 94.460571 
" style="fill:none;stroke:#262626;stroke-linecap:square;stroke-linejoin:miter;stroke-width:1.875;"/>
   </g>
   <g id="patch_4">
    <path d="M 54.815 457.06 
L 410.889429 457.06 
" style="fill:none;stroke:#262626;stroke-linecap:square;stroke-linejoin:miter;stroke-width:1.875;"/>
   </g>
  </g>
  <g id="axes_2">
   <g id="patch_5">
    <path d="M 54.815 81.957143 
L 410.889429 81.957143 
L 410.889429 19.44 
L 54.815 19.44 
z
" style="fill:#ffffff;"/>
   </g>
   <g id="matplotlib.axis_3">
    <g id="xtick_8"/>
    <g id="xtick_9"/>
    <g id="xtick_10"/>
    <g id="xtick_11"/>
    <g id="xtick_12"/>
    <g id="xtick_13"/>
    <g id="xtick_14"/>
   </g>
   <g id="matplotlib.axis_4">
    <g id="ytick_8"/>
    <g id="ytick_9"/>
   </g>
   <g id="patch_6">
    <path clip-path="url(#p5d2a921d91)" d="M 66.701951 81.957143 
L 97.635648 81.957143 
L 97.635648 74.274545 
L 66.701951 74.274545 
z
" style="fill:#4c72b0;fill-opacity:0.5;stroke:#ffffff;stroke-linejoin:miter;stroke-width:1.5;"/>
   </g>
   <g id="patch_7">
    <path clip-path="url(#p5d2a921d91)" d="M 97.635648 81.957143 
L 128.569344 81.957143 
L 128.569344 76.195194 
L 97.635648 76.195194 
z
" style="fill:#4c72b0;fill-opacity:0.5;stroke:#ffffff;stroke-linejoin:miter;stroke-width:1.5;"/>
   </g>
   <g id="patch_8">
    <path clip-path="url(#p5d2a921d91)" d="M 128.569344 81.957143 
L 159.50304 81.957143 
L 159.50304 70.433246 
L 128.569344 70.433246 
z
" style="fill:#4c72b0;fill-opacity:0.5;stroke:#ffffff;stroke-linejoin:miter;stroke-width:1.5;"/>
   </g>
   <g id="patch_9">
    <path clip-path="url(#p5d2a921d91)" d="M 159.50304 81.957143 
L 190.436736 81.957143 
L 190.436736 37.782203 
L 159.50304 37.782203 
z
" style="fill:#4c72b0;fill-opacity:0.5;stroke:#ffffff;stroke-linejoin:miter;stroke-width:1.5;"/>
   </g>
   <g id="patch_10">
    <path clip-path="url(#p5d2a921d91)" d="M 190.436736 81.957143 
L 221.370432 81.957143 
L 221.370432 32.020255 
L 190.436736 32.020255 
z
" style="fill:#4c72b0;fill-opacity:0.5;stroke:#ffffff;stroke-linejoin:miter;stroke-width:1.5;"/>
   </g>
   <g id="patch_11">
    <path clip-path="url(#p5d2a921d91)" d="M 221.370432 81.957143 
L 252.304129 81.957143 
L 252.304129 30.099605 
L 221.370432 30.099605 
z
" style="fill:#4c72b0;fill-opacity:0.5;stroke:#ffffff;stroke-linejoin:miter;stroke-width:1.5;"/>
   </g>
   <g id="patch_12">
    <path clip-path="url(#p5d2a921d91)" d="M 252.304129 81.957143 
L 283.237825 81.957143 
L 283.237825 22.417007 
L 252.304129 22.417007 
z
" style="fill:#4c72b0;fill-opacity:0.5;stroke:#ffffff;stroke-linejoin:miter;stroke-width:1.5;"/>
   </g>
   <g id="patch_13">
    <path clip-path="url(#p5d2a921d91)" d="M 283.237825 81.957143 
L 314.171521 81.957143 
L 314.171521 28.178955 
L 283.237825 28.178955 
z
" style="fill:#4c72b0;fill-opacity:0.5;stroke:#ffffff;stroke-linejoin:miter;stroke-width:1.5;"/>
   </g>
   <g id="patch_14">
    <path clip-path="url(#p5d2a921d91)" d="M 314.171521 81.957143 
L 345.105217 81.957143 
L 345.105217 62.750647 
L 314.171521 62.750647 
z
" style="fill:#4c72b0;fill-opacity:0.5;stroke:#ffffff;stroke-linejoin:miter;stroke-width:1.5;"/>
   </g>
   <g id="patch_15">
    <path clip-path="url(#p5d2a921d91)" d="M 345.105217 81.957143 
L 376.038914 81.957143 
L 376.038914 55.068049 
L 345.105217 55.068049 
z
" style="fill:#4c72b0;fill-opacity:0.5;stroke:#ffffff;stroke-linejoin:miter;stroke-width:1.5;"/>
   </g>
   <g id="patch_16">
    <path clip-path="url(#p5d2a921d91)" d="M 376.038914 81.957143 
L 406.97261 81.957143 
L 406.97261 70.433246 
L 376.038914 70.433246 
z
" style="fill:#4c72b0;fill-opacity:0.5;stroke:#ffffff;stroke-linejoin:miter;stroke-width:1.5;"/>
   </g>
   <g id="line2d_16">
    <path clip-path="url(#p5d2a921d91)" d="M 66.701951 78.540296 
L 87.220785 76.151789 
L 97.480202 75.22758 
L 109.449522 74.171652 
L 114.57923 73.54711 
L 119.708938 72.701806 
L 124.838647 71.555886 
L 128.258452 70.592712 
L 131.678258 69.455164 
L 135.098064 68.13795 
L 138.517869 66.643426 
L 143.647578 64.093916 
L 148.777286 61.237226 
L 155.616897 57.123284 
L 167.586217 49.865733 
L 172.715925 47.001902 
L 177.845634 44.380439 
L 182.975342 42.021433 
L 188.105051 39.917444 
L 193.234759 38.046048 
L 198.364467 36.383594 
L 203.494176 34.915235 
L 208.623884 33.63759 
L 213.753593 32.553156 
L 218.883301 31.658819 
L 225.722912 30.721675 
L 246.241746 28.228668 
L 253.081357 27.008102 
L 265.050677 24.701876 
L 268.470483 24.21765 
L 271.890288 23.915673 
L 275.310094 23.852447 
L 278.729899 24.076797 
L 282.149705 24.625501 
L 285.569511 25.519883 
L 288.989316 26.763691 
L 292.409122 28.34243 
L 295.828927 30.224171 
L 299.248733 32.361703 
L 304.378441 35.91574 
L 318.057664 45.800429 
L 321.47747 48.02338 
L 324.897275 50.055779 
L 328.317081 51.875323 
L 331.736886 53.474379 
L 335.156692 54.859242 
L 338.576498 56.048463 
L 343.706206 57.529501 
L 348.835914 58.757189 
L 365.934942 62.593615 
L 372.774554 64.487348 
L 379.614165 66.644453 
L 391.583485 70.748279 
L 400.132999 73.589919 
L 406.97261 75.62459 
L 406.97261 75.62459 
" style="fill:none;stroke:#4c72b0;stroke-linecap:round;stroke-width:2.25;"/>
   </g>
   <g id="patch_17">
    <path d="M 54.815 81.957143 
L 410.889429 81.957143 
" style="fill:none;stroke:#262626;stroke-linecap:square;stroke-linejoin:miter;stroke-width:1.875;"/>
   </g>
  </g>
  <g id="axes_3">
   <g id="patch_18">
    <path d="M 423.167857 457.06 
L 484.56 457.06 
L 484.56 94.460571 
L 423.167857 94.460571 
z
" style="fill:#ffffff;"/>
   </g>
   <g id="matplotlib.axis_5">
    <g id="xtick_15"/>
    <g id="xtick_16"/>
   </g>
   <g id="matplotlib.axis_6">
    <g id="ytick_10"/>
    <g id="ytick_11"/>
    <g id="ytick_12"/>
    <g id="ytick_13"/>
    <g id="ytick_14"/>
    <g id="ytick_15"/>
    <g id="ytick_16"/>
   </g>
   <g id="patch_19">
    <path clip-path="url(#pff127087d0)" d="M 423.167857 436.379746 
L 434.229505 436.379746 
L 434.229505 409.338894 
L 423.167857 409.338894 
z
" style="fill:#4c72b0;fill-opacity:0.5;stroke:#ffffff;stroke-linejoin:miter;stroke-width:1.5;"/>
   </g>
   <g id="patch_20">
    <path clip-path="url(#pff127087d0)" d="M 423.167857 409.338894 
L 432.649269 409.338894 
L 432.649269 382.298041 
L 423.167857 382.298041 
z
" style="fill:#4c72b0;fill-opacity:0.5;stroke:#ffffff;stroke-linejoin:miter;stroke-width:1.5;"/>
   </g>
   <g id="patch_21">
    <path clip-path="url(#pff127087d0)" d="M 423.167857 382.298041 
L 434.229505 382.298041 
L 434.229505 355.257189 
L 423.167857 355.257189 
z
" style="fill:#4c72b0;fill-opacity:0.5;stroke:#ffffff;stroke-linejoin:miter;stroke-width:1.5;"/>
   </g>
   <g id="patch_22">
    <path clip-path="url(#pff127087d0)" d="M 423.167857 355.257189 
L 445.291152 355.257189 
L 445.291152 328.216336 
L 423.167857 328.216336 
z
" style="fill:#4c72b0;fill-opacity:0.5;stroke:#ffffff;stroke-linejoin:miter;stroke-width:1.5;"/>
   </g>
   <g id="patch_23">
    <path clip-path="url(#pff127087d0)" d="M 423.167857 328.216336 
L 445.291152 328.216336 
L 445.291152 301.175484 
L 423.167857 301.175484 
z
" style="fill:#4c72b0;fill-opacity:0.5;stroke:#ffffff;stroke-linejoin:miter;stroke-width:1.5;"/>
   </g>
   <g id="patch_24">
    <path clip-path="url(#pff127087d0)" d="M 423.167857 301.175484 
L 470.574917 301.175484 
L 470.574917 274.134632 
L 423.167857 274.134632 
z
" style="fill:#4c72b0;fill-opacity:0.5;stroke:#ffffff;stroke-linejoin:miter;stroke-width:1.5;"/>
   </g>
   <g id="patch_25">
    <path clip-path="url(#pff127087d0)" d="M 423.167857 274.134632 
L 464.253976 274.134632 
L 464.253976 247.093779 
L 423.167857 247.093779 
z
" style="fill:#4c72b0;fill-opacity:0.5;stroke:#ffffff;stroke-linejoin:miter;stroke-width:1.5;"/>
   </g>
   <g id="patch_26">
    <path clip-path="url(#pff127087d0)" d="M 423.167857 247.093779 
L 481.636565 247.093779 
L 481.636565 220.052927 
L 423.167857 220.052927 
z
" style="fill:#4c72b0;fill-opacity:0.5;stroke:#ffffff;stroke-linejoin:miter;stroke-width:1.5;"/>
   </g>
   <g id="patch_27">
    <path clip-path="url(#pff127087d0)" d="M 423.167857 220.052927 
L 442.130681 220.052927 
L 442.130681 193.012074 
L 423.167857 193.012074 
z
" style="fill:#4c72b0;fill-opacity:0.5;stroke:#ffffff;stroke-linejoin:miter;stroke-width:1.5;"/>
   </g>
   <g id="patch_28">
    <path clip-path="url(#pff127087d0)" d="M 423.167857 193.012074 
L 450.031858 193.012074 
L 450.031858 165.971222 
L 423.167857 165.971222 
z
" style="fill:#4c72b0;fill-opacity:0.5;stroke:#ffffff;stroke-linejoin:miter;stroke-width:1.5;"/>
   </g>
   <g id="patch_29">
    <path clip-path="url(#pff127087d0)" d="M 423.167857 165.971222 
L 431.069034 165.971222 
L 431.069034 138.93037 
L 423.167857 138.93037 
z
" style="fill:#4c72b0;fill-opacity:0.5;stroke:#ffffff;stroke-linejoin:miter;stroke-width:1.5;"/>
   </g>
   <g id="patch_30">
    <path clip-path="url(#pff127087d0)" d="M 423.167857 138.93037 
L 427.908563 138.93037 
L 427.908563 111.889517 
L 423.167857 111.889517 
z
" style="fill:#4c72b0;fill-opacity:0.5;stroke:#ffffff;stroke-linejoin:miter;stroke-width:1.5;"/>
   </g>
   <g id="line2d_17">
    <path clip-path="url(#pff127087d0)" d="M 428.014825 436.379746 
L 430.768184 418.4431 
L 432.515064 405.398267 
L 435.306479 384.200413 
L 437.074098 372.786184 
L 438.816558 363.002559 
L 440.783982 353.218934 
L 442.619605 345.065913 
L 444.684588 336.912892 
L 446.540664 330.390475 
L 448.591127 323.868059 
L 451.382541 315.715038 
L 458.20556 296.147788 
L 460.762311 287.994767 
L 464.582106 274.949934 
L 467.283596 265.166309 
L 468.453875 260.274496 
L 469.366899 255.382684 
L 469.770976 252.121475 
L 469.969505 248.860267 
L 469.932129 245.599059 
L 469.636787 242.33785 
L 469.072129 239.076642 
L 468.239017 235.815434 
L 467.150991 232.554225 
L 465.83362 229.293017 
L 464.322838 226.031809 
L 461.791188 221.139996 
L 452.97403 204.833955 
L 450.693066 199.942142 
L 448.674795 195.05033 
L 446.895493 190.158517 
L 444.792364 183.636101 
L 436.754754 157.546434 
L 433.176268 146.132205 
L 431.340289 139.609788 
L 429.7321 133.087371 
L 428.365602 126.564955 
L 427.224858 120.042538 
L 426.280538 113.520121 
L 426.071604 111.889517 
L 426.071604 111.889517 
" style="fill:none;stroke:#4c72b0;stroke-linecap:round;stroke-width:2.25;"/>
   </g>
   <g id="patch_31">
    <path d="M 423.167857 457.06 
L 423.167857 94.460571 
" style="fill:none;stroke:#262626;stroke-linecap:square;stroke-linejoin:miter;stroke-width:1.875;"/>
   </g>
  </g>
 </g>
 <defs>
  <clipPath id="p5f04f126b8">
   <rect height="362.599429" width="356.074429" x="54.815" y="94.460571"/>
  </clipPath>
  <clipPath id="p5d2a921d91">
   <rect height="62.517143" width="356.074429" x="54.815" y="19.44"/>
  </clipPath>
  <clipPath id="pff127087d0">
   <rect height="362.599429" width="61.392143" x="423.167857" y="94.460571"/>
  </clipPath>
 </defs>
</svg>
