<?xml version="1.0" encoding="utf-8" standalone="no"?>
<!DOCTYPE svg PUBLIC "-//W3C//DTD SVG 1.1//EN"
  "http://www.w3.org/Graphics/SVG/1.1/DTD/svg11.dtd">
<!-- Created with matplotlib (https://matplotlib.org/) -->
<svg height="432pt" version="1.1" viewBox="0 0 432 432" width="432pt" xmlns="http://www.w3.org/2000/svg" xmlns:xlink="http://www.w3.org/1999/xlink">
 <metadata>
  <rdf:RDF xmlns:cc="http://creativecommons.org/ns#" xmlns:dc="http://purl.org/dc/elements/1.1/" xmlns:rdf="http://www.w3.org/1999/02/22-rdf-syntax-ns#">
   <cc:Work>
    <dc:type rdf:resource="http://purl.org/dc/dcmitype/StillImage"/>
    <dc:date>2020-11-30T21:12:06.823334</dc:date>
    <dc:format>image/svg+xml</dc:format>
    <dc:creator>
     <cc:Agent>
      <dc:title>Matplotlib v3.3.1, https://matplotlib.org/</dc:title>
     </cc:Agent>
    </dc:creator>
   </cc:Work>
  </rdf:RDF>
 </metadata>
 <defs>
  <style type="text/css">*{stroke-linecap:butt;stroke-linejoin:round;}</style>
 </defs>
 <g id="figure_1">
  <g id="patch_1">
   <path d="M 0 432 
L 432 432 
L 432 0 
L 0 0 
z
" style="fill:#ffffff;"/>
  </g>
  <g id="axes_1">
   <g id="patch_2">
    <path d="M 51.835 385.54 
L 356.090571 385.54 
L 356.090571 76.830857 
L 51.835 76.830857 
z
" style="fill:#ffffff;"/>
   </g>
   <g id="matplotlib.axis_1">
    <g id="xtick_1">
     <g id="text_1">
      <!-- −30 -->
      <g style="fill:#262626;" transform="translate(80.263975 402.913594)scale(0.11 -0.11)">
       <defs>
        <path d="M 52.828125 31.203125 
L 5.5625 31.203125 
L 5.5625 39.40625 
L 52.828125 39.40625 
z
" id="ArialMT-8722"/>
        <path d="M 4.203125 18.890625 
L 12.984375 20.0625 
Q 14.5 12.59375 18.140625 9.296875 
Q 21.78125 6 27 6 
Q 33.203125 6 37.46875 10.296875 
Q 41.75 14.59375 41.75 20.953125 
Q 41.75 27 37.796875 30.921875 
Q 33.84375 34.859375 27.734375 34.859375 
Q 25.25 34.859375 21.53125 33.890625 
L 22.515625 41.609375 
Q 23.390625 41.5 23.921875 41.5 
Q 29.546875 41.5 34.03125 44.421875 
Q 38.53125 47.359375 38.53125 53.46875 
Q 38.53125 58.296875 35.25 61.46875 
Q 31.984375 64.65625 26.8125 64.65625 
Q 21.6875 64.65625 18.265625 61.421875 
Q 14.84375 58.203125 13.875 51.765625 
L 5.078125 53.328125 
Q 6.6875 62.15625 12.390625 67.015625 
Q 18.109375 71.875 26.609375 71.875 
Q 32.46875 71.875 37.390625 69.359375 
Q 42.328125 66.84375 44.9375 62.5 
Q 47.5625 58.15625 47.5625 53.265625 
Q 47.5625 48.640625 45.0625 44.828125 
Q 42.578125 41.015625 37.703125 38.765625 
Q 44.046875 37.3125 47.5625 32.6875 
Q 51.078125 28.078125 51.078125 21.140625 
Q 51.078125 11.765625 44.234375 5.25 
Q 37.40625 -1.265625 26.953125 -1.265625 
Q 17.53125 -1.265625 11.296875 4.34375 
Q 5.078125 9.96875 4.203125 18.890625 
z
" id="ArialMT-51"/>
        <path d="M 4.15625 35.296875 
Q 4.15625 48 6.765625 55.734375 
Q 9.375 63.484375 14.515625 67.671875 
Q 19.671875 71.875 27.484375 71.875 
Q 33.25 71.875 37.59375 69.546875 
Q 41.9375 67.234375 44.765625 62.859375 
Q 47.609375 58.5 49.21875 52.21875 
Q 50.828125 45.953125 50.828125 35.296875 
Q 50.828125 22.703125 48.234375 14.96875 
Q 45.65625 7.234375 40.5 3 
Q 35.359375 -1.21875 27.484375 -1.21875 
Q 17.140625 -1.21875 11.234375 6.203125 
Q 4.15625 15.140625 4.15625 35.296875 
z
M 13.1875 35.296875 
Q 13.1875 17.671875 17.3125 11.828125 
Q 21.4375 6 27.484375 6 
Q 33.546875 6 37.671875 11.859375 
Q 41.796875 17.71875 41.796875 35.296875 
Q 41.796875 52.984375 37.671875 58.78125 
Q 33.546875 64.59375 27.390625 64.59375 
Q 21.34375 64.59375 17.71875 59.46875 
Q 13.1875 52.9375 13.1875 35.296875 
z
" id="ArialMT-48"/>
       </defs>
       <use xlink:href="#ArialMT-8722"/>
       <use x="58.398438" xlink:href="#ArialMT-51"/>
       <use x="114.013672" xlink:href="#ArialMT-48"/>
      </g>
     </g>
    </g>
    <g id="xtick_2">
     <g id="text_2">
      <!-- −20 -->
      <g style="fill:#262626;" transform="translate(123.896835 402.913594)scale(0.11 -0.11)">
       <defs>
        <path d="M 50.34375 8.453125 
L 50.34375 0 
L 3.03125 0 
Q 2.9375 3.171875 4.046875 6.109375 
Q 5.859375 10.9375 9.828125 15.625 
Q 13.8125 20.3125 21.34375 26.46875 
Q 33.015625 36.03125 37.109375 41.625 
Q 41.21875 47.21875 41.21875 52.203125 
Q 41.21875 57.421875 37.46875 61 
Q 33.734375 64.59375 27.734375 64.59375 
Q 21.390625 64.59375 17.578125 60.78125 
Q 13.765625 56.984375 13.71875 50.25 
L 4.6875 51.171875 
Q 5.609375 61.28125 11.65625 66.578125 
Q 17.71875 71.875 27.9375 71.875 
Q 38.234375 71.875 44.234375 66.15625 
Q 50.25 60.453125 50.25 52 
Q 50.25 47.703125 48.484375 43.546875 
Q 46.734375 39.40625 42.65625 34.8125 
Q 38.578125 30.21875 29.109375 22.21875 
Q 21.1875 15.578125 18.9375 13.203125 
Q 16.703125 10.84375 15.234375 8.453125 
z
" id="ArialMT-50"/>
       </defs>
       <use xlink:href="#ArialMT-8722"/>
       <use x="58.398438" xlink:href="#ArialMT-50"/>
       <use x="114.013672" xlink:href="#ArialMT-48"/>
      </g>
     </g>
    </g>
    <g id="xtick_3">
     <g id="text_3">
      <!-- −10 -->
      <g style="fill:#262626;" transform="translate(167.529695 402.913594)scale(0.11 -0.11)">
       <defs>
        <path d="M 37.25 0 
L 28.46875 0 
L 28.46875 56 
Q 25.296875 52.984375 20.140625 49.953125 
Q 14.984375 46.921875 10.890625 45.40625 
L 10.890625 53.90625 
Q 18.265625 57.375 23.78125 62.296875 
Q 29.296875 67.234375 31.59375 71.875 
L 37.25 71.875 
z
" id="ArialMT-49"/>
       </defs>
       <use xlink:href="#ArialMT-8722"/>
       <use x="58.398438" xlink:href="#ArialMT-49"/>
       <use x="114.013672" xlink:href="#ArialMT-48"/>
      </g>
     </g>
    </g>
    <g id="xtick_4">
     <g id="text_4">
      <!-- 0 -->
      <g style="fill:#262626;" transform="translate(217.433414 402.913594)scale(0.11 -0.11)">
       <use xlink:href="#ArialMT-48"/>
      </g>
     </g>
    </g>
    <g id="xtick_5">
     <g id="text_5">
      <!-- 10 -->
      <g style="fill:#262626;" transform="translate(258.007759 402.913594)scale(0.11 -0.11)">
       <use xlink:href="#ArialMT-49"/>
       <use x="55.615234" xlink:href="#ArialMT-48"/>
      </g>
     </g>
    </g>
    <g id="xtick_6">
     <g id="text_6">
      <!-- 20 -->
      <g style="fill:#262626;" transform="translate(301.640619 402.913594)scale(0.11 -0.11)">
       <use xlink:href="#ArialMT-50"/>
       <use x="55.615234" xlink:href="#ArialMT-48"/>
      </g>
     </g>
    </g>
    <g id="xtick_7">
     <g id="text_7">
      <!-- 30 -->
      <g style="fill:#262626;" transform="translate(345.273479 402.913594)scale(0.11 -0.11)">
       <use xlink:href="#ArialMT-51"/>
       <use x="55.615234" xlink:href="#ArialMT-48"/>
      </g>
     </g>
    </g>
    <g id="text_8">
     <!-- Threshold -->
     <g style="fill:#262626;" transform="translate(177.284348 417.689219)scale(0.12 -0.12)">
      <defs>
       <path d="M 25.921875 0 
L 25.921875 63.140625 
L 2.34375 63.140625 
L 2.34375 71.578125 
L 59.078125 71.578125 
L 59.078125 63.140625 
L 35.40625 63.140625 
L 35.40625 0 
z
" id="ArialMT-84"/>
       <path d="M 6.59375 0 
L 6.59375 71.578125 
L 15.375 71.578125 
L 15.375 45.90625 
Q 21.53125 53.03125 30.90625 53.03125 
Q 36.671875 53.03125 40.921875 50.75 
Q 45.171875 48.484375 47 44.484375 
Q 48.828125 40.484375 48.828125 32.859375 
L 48.828125 0 
L 40.046875 0 
L 40.046875 32.859375 
Q 40.046875 39.453125 37.1875 42.453125 
Q 34.328125 45.453125 29.109375 45.453125 
Q 25.203125 45.453125 21.75 43.421875 
Q 18.3125 41.40625 16.84375 37.9375 
Q 15.375 34.46875 15.375 28.375 
L 15.375 0 
z
" id="ArialMT-104"/>
       <path d="M 6.5 0 
L 6.5 51.859375 
L 14.40625 51.859375 
L 14.40625 44 
Q 17.4375 49.515625 20 51.265625 
Q 22.5625 53.03125 25.640625 53.03125 
Q 30.078125 53.03125 34.671875 50.203125 
L 31.640625 42.046875 
Q 28.421875 43.953125 25.203125 43.953125 
Q 22.3125 43.953125 20.015625 42.21875 
Q 17.71875 40.484375 16.75 37.40625 
Q 15.28125 32.71875 15.28125 27.15625 
L 15.28125 0 
z
" id="ArialMT-114"/>
       <path d="M 42.09375 16.703125 
L 51.171875 15.578125 
Q 49.03125 7.625 43.21875 3.21875 
Q 37.40625 -1.171875 28.375 -1.171875 
Q 17 -1.171875 10.328125 5.828125 
Q 3.65625 12.84375 3.65625 25.484375 
Q 3.65625 38.578125 10.390625 45.796875 
Q 17.140625 53.03125 27.875 53.03125 
Q 38.28125 53.03125 44.875 45.953125 
Q 51.46875 38.875 51.46875 26.03125 
Q 51.46875 25.25 51.421875 23.6875 
L 12.75 23.6875 
Q 13.234375 15.140625 17.578125 10.59375 
Q 21.921875 6.0625 28.421875 6.0625 
Q 33.25 6.0625 36.671875 8.59375 
Q 40.09375 11.140625 42.09375 16.703125 
z
M 13.234375 30.90625 
L 42.1875 30.90625 
Q 41.609375 37.453125 38.875 40.71875 
Q 34.671875 45.796875 27.984375 45.796875 
Q 21.921875 45.796875 17.796875 41.75 
Q 13.671875 37.703125 13.234375 30.90625 
z
" id="ArialMT-101"/>
       <path d="M 3.078125 15.484375 
L 11.765625 16.84375 
Q 12.5 11.625 15.84375 8.84375 
Q 19.1875 6.0625 25.203125 6.0625 
Q 31.25 6.0625 34.171875 8.515625 
Q 37.109375 10.984375 37.109375 14.3125 
Q 37.109375 17.28125 34.515625 19 
Q 32.71875 20.171875 25.53125 21.96875 
Q 15.875 24.421875 12.140625 26.203125 
Q 8.40625 27.984375 6.46875 31.125 
Q 4.546875 34.28125 4.546875 38.09375 
Q 4.546875 41.546875 6.125 44.5 
Q 7.71875 47.46875 10.453125 49.421875 
Q 12.5 50.921875 16.03125 51.96875 
Q 19.578125 53.03125 23.640625 53.03125 
Q 29.734375 53.03125 34.34375 51.265625 
Q 38.96875 49.515625 41.15625 46.5 
Q 43.359375 43.5 44.1875 38.484375 
L 35.59375 37.3125 
Q 35.015625 41.3125 32.203125 43.546875 
Q 29.390625 45.796875 24.265625 45.796875 
Q 18.21875 45.796875 15.625 43.796875 
Q 13.03125 41.796875 13.03125 39.109375 
Q 13.03125 37.40625 14.109375 36.03125 
Q 15.1875 34.625 17.484375 33.6875 
Q 18.796875 33.203125 25.25 31.453125 
Q 34.578125 28.953125 38.25 27.359375 
Q 41.9375 25.78125 44.03125 22.75 
Q 46.140625 19.734375 46.140625 15.234375 
Q 46.140625 10.84375 43.578125 6.953125 
Q 41.015625 3.078125 36.171875 0.953125 
Q 31.34375 -1.171875 25.25 -1.171875 
Q 15.140625 -1.171875 9.84375 3.03125 
Q 4.546875 7.234375 3.078125 15.484375 
z
" id="ArialMT-115"/>
       <path d="M 3.328125 25.921875 
Q 3.328125 40.328125 11.328125 47.265625 
Q 18.015625 53.03125 27.640625 53.03125 
Q 38.328125 53.03125 45.109375 46.015625 
Q 51.90625 39.015625 51.90625 26.65625 
Q 51.90625 16.65625 48.90625 10.90625 
Q 45.90625 5.171875 40.15625 2 
Q 34.421875 -1.171875 27.640625 -1.171875 
Q 16.75 -1.171875 10.03125 5.8125 
Q 3.328125 12.796875 3.328125 25.921875 
z
M 12.359375 25.921875 
Q 12.359375 15.96875 16.703125 11.015625 
Q 21.046875 6.0625 27.640625 6.0625 
Q 34.1875 6.0625 38.53125 11.03125 
Q 42.875 16.015625 42.875 26.21875 
Q 42.875 35.84375 38.5 40.796875 
Q 34.125 45.75 27.640625 45.75 
Q 21.046875 45.75 16.703125 40.8125 
Q 12.359375 35.890625 12.359375 25.921875 
z
" id="ArialMT-111"/>
       <path d="M 6.390625 0 
L 6.390625 71.578125 
L 15.1875 71.578125 
L 15.1875 0 
z
" id="ArialMT-108"/>
       <path d="M 40.234375 0 
L 40.234375 6.546875 
Q 35.296875 -1.171875 25.734375 -1.171875 
Q 19.53125 -1.171875 14.328125 2.25 
Q 9.125 5.671875 6.265625 11.796875 
Q 3.421875 17.921875 3.421875 25.875 
Q 3.421875 33.640625 6 39.96875 
Q 8.59375 46.296875 13.765625 49.65625 
Q 18.953125 53.03125 25.34375 53.03125 
Q 30.03125 53.03125 33.6875 51.046875 
Q 37.359375 49.078125 39.65625 45.90625 
L 39.65625 71.578125 
L 48.390625 71.578125 
L 48.390625 0 
z
M 12.453125 25.875 
Q 12.453125 15.921875 16.640625 10.984375 
Q 20.84375 6.0625 26.5625 6.0625 
Q 32.328125 6.0625 36.34375 10.765625 
Q 40.375 15.484375 40.375 25.140625 
Q 40.375 35.796875 36.265625 40.765625 
Q 32.171875 45.75 26.171875 45.75 
Q 20.3125 45.75 16.375 40.96875 
Q 12.453125 36.1875 12.453125 25.875 
z
" id="ArialMT-100"/>
      </defs>
      <use xlink:href="#ArialMT-84"/>
      <use x="61.083984" xlink:href="#ArialMT-104"/>
      <use x="116.699219" xlink:href="#ArialMT-114"/>
      <use x="150" xlink:href="#ArialMT-101"/>
      <use x="205.615234" xlink:href="#ArialMT-115"/>
      <use x="255.615234" xlink:href="#ArialMT-104"/>
      <use x="311.230469" xlink:href="#ArialMT-111"/>
      <use x="366.845703" xlink:href="#ArialMT-108"/>
      <use x="389.0625" xlink:href="#ArialMT-100"/>
     </g>
    </g>
   </g>
   <g id="matplotlib.axis_2">
    <g id="ytick_1">
     <g id="text_9">
      <!-- 0.2 -->
      <g style="fill:#262626;" transform="translate(27.045 365.858142)scale(0.11 -0.11)">
       <defs>
        <path d="M 9.078125 0 
L 9.078125 10.015625 
L 19.09375 10.015625 
L 19.09375 0 
z
" id="ArialMT-46"/>
       </defs>
       <use xlink:href="#ArialMT-48"/>
       <use x="55.615234" xlink:href="#ArialMT-46"/>
       <use x="83.398438" xlink:href="#ArialMT-50"/>
      </g>
     </g>
    </g>
    <g id="ytick_2">
     <g id="text_10">
      <!-- 0.4 -->
      <g style="fill:#262626;" transform="translate(27.045 321.227149)scale(0.11 -0.11)">
       <defs>
        <path d="M 32.328125 0 
L 32.328125 17.140625 
L 1.265625 17.140625 
L 1.265625 25.203125 
L 33.9375 71.578125 
L 41.109375 71.578125 
L 41.109375 25.203125 
L 50.78125 25.203125 
L 50.78125 17.140625 
L 41.109375 17.140625 
L 41.109375 0 
z
M 32.328125 25.203125 
L 32.328125 57.46875 
L 9.90625 25.203125 
z
" id="ArialMT-52"/>
       </defs>
       <use xlink:href="#ArialMT-48"/>
       <use x="55.615234" xlink:href="#ArialMT-46"/>
       <use x="83.398438" xlink:href="#ArialMT-52"/>
      </g>
     </g>
    </g>
    <g id="ytick_3">
     <g id="text_11">
      <!-- 0.6 -->
      <g style="fill:#262626;" transform="translate(27.045 276.596157)scale(0.11 -0.11)">
       <defs>
        <path d="M 49.75 54.046875 
L 41.015625 53.375 
Q 39.84375 58.546875 37.703125 60.890625 
Q 34.125 64.65625 28.90625 64.65625 
Q 24.703125 64.65625 21.53125 62.3125 
Q 17.390625 59.28125 14.984375 53.46875 
Q 12.59375 47.65625 12.5 36.921875 
Q 15.671875 41.75 20.265625 44.09375 
Q 24.859375 46.4375 29.890625 46.4375 
Q 38.671875 46.4375 44.84375 39.96875 
Q 51.03125 33.5 51.03125 23.25 
Q 51.03125 16.5 48.125 10.71875 
Q 45.21875 4.9375 40.140625 1.859375 
Q 35.0625 -1.21875 28.609375 -1.21875 
Q 17.625 -1.21875 10.6875 6.859375 
Q 3.765625 14.9375 3.765625 33.5 
Q 3.765625 54.25 11.421875 63.671875 
Q 18.109375 71.875 29.4375 71.875 
Q 37.890625 71.875 43.28125 67.140625 
Q 48.6875 62.40625 49.75 54.046875 
z
M 13.875 23.1875 
Q 13.875 18.65625 15.796875 14.5 
Q 17.71875 10.359375 21.1875 8.171875 
Q 24.65625 6 28.46875 6 
Q 34.03125 6 38.03125 10.484375 
Q 42.046875 14.984375 42.046875 22.703125 
Q 42.046875 30.125 38.078125 34.390625 
Q 34.125 38.671875 28.125 38.671875 
Q 22.171875 38.671875 18.015625 34.390625 
Q 13.875 30.125 13.875 23.1875 
z
" id="ArialMT-54"/>
       </defs>
       <use xlink:href="#ArialMT-48"/>
       <use x="55.615234" xlink:href="#ArialMT-46"/>
       <use x="83.398438" xlink:href="#ArialMT-54"/>
      </g>
     </g>
    </g>
    <g id="ytick_4">
     <g id="text_12">
      <!-- 0.8 -->
      <g style="fill:#262626;" transform="translate(27.045 231.965164)scale(0.11 -0.11)">
       <defs>
        <path d="M 17.671875 38.8125 
Q 12.203125 40.828125 9.5625 44.53125 
Q 6.9375 48.25 6.9375 53.421875 
Q 6.9375 61.234375 12.546875 66.546875 
Q 18.171875 71.875 27.484375 71.875 
Q 36.859375 71.875 42.578125 66.421875 
Q 48.296875 60.984375 48.296875 53.171875 
Q 48.296875 48.1875 45.671875 44.5 
Q 43.0625 40.828125 37.75 38.8125 
Q 44.34375 36.671875 47.78125 31.875 
Q 51.21875 27.09375 51.21875 20.453125 
Q 51.21875 11.28125 44.71875 5.03125 
Q 38.234375 -1.21875 27.640625 -1.21875 
Q 17.046875 -1.21875 10.546875 5.046875 
Q 4.046875 11.328125 4.046875 20.703125 
Q 4.046875 27.6875 7.59375 32.390625 
Q 11.140625 37.109375 17.671875 38.8125 
z
M 15.921875 53.71875 
Q 15.921875 48.640625 19.1875 45.40625 
Q 22.46875 42.1875 27.6875 42.1875 
Q 32.765625 42.1875 36.015625 45.375 
Q 39.265625 48.578125 39.265625 53.21875 
Q 39.265625 58.0625 35.90625 61.359375 
Q 32.5625 64.65625 27.59375 64.65625 
Q 22.5625 64.65625 19.234375 61.421875 
Q 15.921875 58.203125 15.921875 53.71875 
z
M 13.09375 20.65625 
Q 13.09375 16.890625 14.875 13.375 
Q 16.65625 9.859375 20.171875 7.921875 
Q 23.6875 6 27.734375 6 
Q 34.03125 6 38.125 10.046875 
Q 42.234375 14.109375 42.234375 20.359375 
Q 42.234375 26.703125 38.015625 30.859375 
Q 33.796875 35.015625 27.4375 35.015625 
Q 21.234375 35.015625 17.15625 30.90625 
Q 13.09375 26.8125 13.09375 20.65625 
z
" id="ArialMT-56"/>
       </defs>
       <use xlink:href="#ArialMT-48"/>
       <use x="55.615234" xlink:href="#ArialMT-46"/>
       <use x="83.398438" xlink:href="#ArialMT-56"/>
      </g>
     </g>
    </g>
    <g id="ytick_5">
     <g id="text_13">
      <!-- 1.0 -->
      <g style="fill:#262626;" transform="translate(27.045 187.334172)scale(0.11 -0.11)">
       <use xlink:href="#ArialMT-49"/>
       <use x="55.615234" xlink:href="#ArialMT-46"/>
       <use x="83.398438" xlink:href="#ArialMT-48"/>
      </g>
     </g>
    </g>
    <g id="ytick_6">
     <g id="text_14">
      <!-- 1.2 -->
      <g style="fill:#262626;" transform="translate(27.045 142.703179)scale(0.11 -0.11)">
       <use xlink:href="#ArialMT-49"/>
       <use x="55.615234" xlink:href="#ArialMT-46"/>
       <use x="83.398438" xlink:href="#ArialMT-50"/>
      </g>
     </g>
    </g>
    <g id="ytick_7">
     <g id="text_15">
      <!-- 1.4 -->
      <g style="fill:#262626;" transform="translate(27.045 98.072187)scale(0.11 -0.11)">
       <use xlink:href="#ArialMT-49"/>
       <use x="55.615234" xlink:href="#ArialMT-46"/>
       <use x="83.398438" xlink:href="#ArialMT-52"/>
      </g>
     </g>
    </g>
    <g id="text_16">
     <!-- HBC -->
     <g style="fill:#262626;" transform="translate(20.66 243.853866)rotate(-90)scale(0.12 -0.12)">
      <defs>
       <path d="M 8.015625 0 
L 8.015625 71.578125 
L 17.484375 71.578125 
L 17.484375 42.1875 
L 54.6875 42.1875 
L 54.6875 71.578125 
L 64.15625 71.578125 
L 64.15625 0 
L 54.6875 0 
L 54.6875 33.734375 
L 17.484375 33.734375 
L 17.484375 0 
z
" id="ArialMT-72"/>
       <path d="M 7.328125 0 
L 7.328125 71.578125 
L 34.1875 71.578125 
Q 42.390625 71.578125 47.34375 69.40625 
Q 52.296875 67.234375 55.09375 62.71875 
Q 57.90625 58.203125 57.90625 53.265625 
Q 57.90625 48.6875 55.421875 44.625 
Q 52.9375 40.578125 47.90625 38.09375 
Q 54.390625 36.1875 57.875 31.59375 
Q 61.375 27 61.375 20.75 
Q 61.375 15.71875 59.25 11.390625 
Q 57.125 7.078125 54 4.734375 
Q 50.875 2.390625 46.15625 1.1875 
Q 41.453125 0 34.625 0 
z
M 16.796875 41.5 
L 32.28125 41.5 
Q 38.578125 41.5 41.3125 42.328125 
Q 44.921875 43.40625 46.75 45.890625 
Q 48.578125 48.390625 48.578125 52.15625 
Q 48.578125 55.71875 46.875 58.421875 
Q 45.171875 61.140625 41.984375 62.140625 
Q 38.8125 63.140625 31.109375 63.140625 
L 16.796875 63.140625 
z
M 16.796875 8.453125 
L 34.625 8.453125 
Q 39.203125 8.453125 41.0625 8.796875 
Q 44.34375 9.375 46.53125 10.734375 
Q 48.734375 12.109375 50.140625 14.71875 
Q 51.5625 17.328125 51.5625 20.75 
Q 51.5625 24.75 49.515625 27.703125 
Q 47.46875 30.671875 43.828125 31.859375 
Q 40.1875 33.0625 33.34375 33.0625 
L 16.796875 33.0625 
z
" id="ArialMT-66"/>
       <path d="M 58.796875 25.09375 
L 68.265625 22.703125 
Q 65.28125 11.03125 57.546875 4.90625 
Q 49.8125 -1.21875 38.625 -1.21875 
Q 27.046875 -1.21875 19.796875 3.484375 
Q 12.546875 8.203125 8.765625 17.140625 
Q 4.984375 26.078125 4.984375 36.328125 
Q 4.984375 47.515625 9.25 55.828125 
Q 13.53125 64.15625 21.40625 68.46875 
Q 29.296875 72.796875 38.765625 72.796875 
Q 49.515625 72.796875 56.828125 67.328125 
Q 64.15625 61.859375 67.046875 51.953125 
L 57.71875 49.75 
Q 55.21875 57.5625 50.484375 61.125 
Q 45.75 64.703125 38.578125 64.703125 
Q 30.328125 64.703125 24.78125 60.734375 
Q 19.234375 56.78125 16.984375 50.109375 
Q 14.75 43.453125 14.75 36.375 
Q 14.75 27.25 17.40625 20.4375 
Q 20.0625 13.625 25.671875 10.25 
Q 31.296875 6.890625 37.84375 6.890625 
Q 45.796875 6.890625 51.3125 11.46875 
Q 56.84375 16.0625 58.796875 25.09375 
z
" id="ArialMT-67"/>
      </defs>
      <use xlink:href="#ArialMT-72"/>
      <use x="72.216797" xlink:href="#ArialMT-66"/>
      <use x="138.916016" xlink:href="#ArialMT-67"/>
     </g>
    </g>
   </g>
   <g id="PathCollection_1">
    <defs>
     <path d="M 0 3 
C 0.795609 3 1.55874 2.683901 2.12132 2.12132 
C 2.683901 1.55874 3 0.795609 3 0 
C 3 -0.795609 2.683901 -1.55874 2.12132 -2.12132 
C 1.55874 -2.683901 0.795609 -3 0 -3 
C -0.795609 -3 -1.55874 -2.683901 -2.12132 -2.12132 
C -2.683901 -1.55874 -3 -0.795609 -3 0 
C -3 0.795609 -2.683901 1.55874 -2.12132 2.12132 
C -1.55874 2.683901 -0.795609 3 0 3 
z
" id="me79cb0b903" style="stroke:#4c72b0;stroke-opacity:0.8;"/>
    </defs>
    <g clip-path="url(#p4cca149968)">
     <use style="fill:#4c72b0;fill-opacity:0.8;stroke:#4c72b0;stroke-opacity:0.8;" x="252.042049" xlink:href="#me79cb0b903" y="219.693873"/>
     <use style="fill:#4c72b0;fill-opacity:0.8;stroke:#4c72b0;stroke-opacity:0.8;" x="136.71392" xlink:href="#me79cb0b903" y="252.595739"/>
     <use style="fill:#4c72b0;fill-opacity:0.8;stroke:#4c72b0;stroke-opacity:0.8;" x="230.0262" xlink:href="#me79cb0b903" y="302.53383"/>
     <use style="fill:#4c72b0;fill-opacity:0.8;stroke:#4c72b0;stroke-opacity:0.8;" x="183.154607" xlink:href="#me79cb0b903" y="323.715156"/>
     <use style="fill:#4c72b0;fill-opacity:0.8;stroke:#4c72b0;stroke-opacity:0.8;" x="255.585751" xlink:href="#me79cb0b903" y="321.422737"/>
     <use style="fill:#4c72b0;fill-opacity:0.8;stroke:#4c72b0;stroke-opacity:0.8;" x="190.958011" xlink:href="#me79cb0b903" y="229.962232"/>
     <use style="fill:#4c72b0;fill-opacity:0.8;stroke:#4c72b0;stroke-opacity:0.8;" x="245.974993" xlink:href="#me79cb0b903" y="279.887893"/>
     <use style="fill:#4c72b0;fill-opacity:0.8;stroke:#4c72b0;stroke-opacity:0.8;" x="141.140117" xlink:href="#me79cb0b903" y="318.184272"/>
     <use style="fill:#4c72b0;fill-opacity:0.8;stroke:#4c72b0;stroke-opacity:0.8;" x="229.655951" xlink:href="#me79cb0b903" y="353.902087"/>
     <use style="fill:#4c72b0;fill-opacity:0.8;stroke:#4c72b0;stroke-opacity:0.8;" x="276.813663" xlink:href="#me79cb0b903" y="345.317615"/>
     <use style="fill:#4c72b0;fill-opacity:0.8;stroke:#4c72b0;stroke-opacity:0.8;" x="112.296818" xlink:href="#me79cb0b903" y="350.180521"/>
     <use style="fill:#4c72b0;fill-opacity:0.8;stroke:#4c72b0;stroke-opacity:0.8;" x="239.809998" xlink:href="#me79cb0b903" y="347.934265"/>
     <use style="fill:#4c72b0;fill-opacity:0.8;stroke:#4c72b0;stroke-opacity:0.8;" x="244.281197" xlink:href="#me79cb0b903" y="279.472196"/>
     <use style="fill:#4c72b0;fill-opacity:0.8;stroke:#4c72b0;stroke-opacity:0.8;" x="218.81108" xlink:href="#me79cb0b903" y="232.453431"/>
     <use style="fill:#4c72b0;fill-opacity:0.8;stroke:#4c72b0;stroke-opacity:0.8;" x="153.856615" xlink:href="#me79cb0b903" y="280.790561"/>
     <use style="fill:#4c72b0;fill-opacity:0.8;stroke:#4c72b0;stroke-opacity:0.8;" x="233.673366" xlink:href="#me79cb0b903" y="359.523279"/>
     <use style="fill:#4c72b0;fill-opacity:0.8;stroke:#4c72b0;stroke-opacity:0.8;" x="82.033949" xlink:href="#me79cb0b903" y="266.800974"/>
     <use style="fill:#4c72b0;fill-opacity:0.8;stroke:#4c72b0;stroke-opacity:0.8;" x="136.528749" xlink:href="#me79cb0b903" y="324.735232"/>
     <use style="fill:#4c72b0;fill-opacity:0.8;stroke:#4c72b0;stroke-opacity:0.8;" x="128.905532" xlink:href="#me79cb0b903" y="136.266932"/>
     <use style="fill:#4c72b0;fill-opacity:0.8;stroke:#4c72b0;stroke-opacity:0.8;" x="202.969684" xlink:href="#me79cb0b903" y="354.920141"/>
     <use style="fill:#4c72b0;fill-opacity:0.8;stroke:#4c72b0;stroke-opacity:0.8;" x="232.071579" xlink:href="#me79cb0b903" y="255.97538"/>
     <use style="fill:#4c72b0;fill-opacity:0.8;stroke:#4c72b0;stroke-opacity:0.8;" x="205.909184" xlink:href="#me79cb0b903" y="301.300908"/>
     <use style="fill:#4c72b0;fill-opacity:0.8;stroke:#4c72b0;stroke-opacity:0.8;" x="206.769269" xlink:href="#me79cb0b903" y="289.722964"/>
     <use style="fill:#4c72b0;fill-opacity:0.8;stroke:#4c72b0;stroke-opacity:0.8;" x="172.904825" xlink:href="#me79cb0b903" y="213.681967"/>
     <use style="fill:#4c72b0;fill-opacity:0.8;stroke:#4c72b0;stroke-opacity:0.8;" x="144.080176" xlink:href="#me79cb0b903" y="341.353558"/>
     <use style="fill:#4c72b0;fill-opacity:0.8;stroke:#4c72b0;stroke-opacity:0.8;" x="288.870712" xlink:href="#me79cb0b903" y="299.919399"/>
     <use style="fill:#4c72b0;fill-opacity:0.8;stroke:#4c72b0;stroke-opacity:0.8;" x="135.621539" xlink:href="#me79cb0b903" y="291.893185"/>
     <use style="fill:#4c72b0;fill-opacity:0.8;stroke:#4c72b0;stroke-opacity:0.8;" x="185.771447" xlink:href="#me79cb0b903" y="275.293503"/>
     <use style="fill:#4c72b0;fill-opacity:0.8;stroke:#4c72b0;stroke-opacity:0.8;" x="112.882139" xlink:href="#me79cb0b903" y="204.749523"/>
     <use style="fill:#4c72b0;fill-opacity:0.8;stroke:#4c72b0;stroke-opacity:0.8;" x="185.132891" xlink:href="#me79cb0b903" y="235.346624"/>
     <use style="fill:#4c72b0;fill-opacity:0.8;stroke:#4c72b0;stroke-opacity:0.8;" x="161.55539" xlink:href="#me79cb0b903" y="344.346954"/>
     <use style="fill:#4c72b0;fill-opacity:0.8;stroke:#4c72b0;stroke-opacity:0.8;" x="67.485429" xlink:href="#me79cb0b903" y="114.424413"/>
     <use style="fill:#4c72b0;fill-opacity:0.8;stroke:#4c72b0;stroke-opacity:0.8;" x="185.921432" xlink:href="#me79cb0b903" y="280.452713"/>
     <use style="fill:#4c72b0;fill-opacity:0.8;stroke:#4c72b0;stroke-opacity:0.8;" x="143.369228" xlink:href="#me79cb0b903" y="229.33305"/>
     <use style="fill:#4c72b0;fill-opacity:0.8;stroke:#4c72b0;stroke-opacity:0.8;" x="200.053339" xlink:href="#me79cb0b903" y="359.412545"/>
     <use style="fill:#4c72b0;fill-opacity:0.8;stroke:#4c72b0;stroke-opacity:0.8;" x="235.917855" xlink:href="#me79cb0b903" y="346.607744"/>
     <use style="fill:#4c72b0;fill-opacity:0.8;stroke:#4c72b0;stroke-opacity:0.8;" x="89.838343" xlink:href="#me79cb0b903" y="259.18417"/>
     <use style="fill:#4c72b0;fill-opacity:0.8;stroke:#4c72b0;stroke-opacity:0.8;" x="140.709605" xlink:href="#me79cb0b903" y="270.627042"/>
     <use style="fill:#4c72b0;fill-opacity:0.8;stroke:#4c72b0;stroke-opacity:0.8;" x="80.03951" xlink:href="#me79cb0b903" y="343.978306"/>
     <use style="fill:#4c72b0;fill-opacity:0.8;stroke:#4c72b0;stroke-opacity:0.8;" x="180.073764" xlink:href="#me79cb0b903" y="340.72281"/>
     <use style="fill:#4c72b0;fill-opacity:0.8;stroke:#4c72b0;stroke-opacity:0.8;" x="111.13943" xlink:href="#me79cb0b903" y="272.510742"/>
     <use style="fill:#4c72b0;fill-opacity:0.8;stroke:#4c72b0;stroke-opacity:0.8;" x="253.562166" xlink:href="#me79cb0b903" y="198.563997"/>
     <use style="fill:#4c72b0;fill-opacity:0.8;stroke:#4c72b0;stroke-opacity:0.8;" x="191.9809" xlink:href="#me79cb0b903" y="256.598667"/>
     <use style="fill:#4c72b0;fill-opacity:0.8;stroke:#4c72b0;stroke-opacity:0.8;" x="162.449397" xlink:href="#me79cb0b903" y="223.428405"/>
     <use style="fill:#4c72b0;fill-opacity:0.8;stroke:#4c72b0;stroke-opacity:0.8;" x="248.743384" xlink:href="#me79cb0b903" y="201.076198"/>
     <use style="fill:#4c72b0;fill-opacity:0.8;stroke:#4c72b0;stroke-opacity:0.8;" x="240.423312" xlink:href="#me79cb0b903" y="364.694895"/>
     <use style="fill:#4c72b0;fill-opacity:0.8;stroke:#4c72b0;stroke-opacity:0.8;" x="265.826726" xlink:href="#me79cb0b903" y="232.89899"/>
     <use style="fill:#4c72b0;fill-opacity:0.8;stroke:#4c72b0;stroke-opacity:0.8;" x="189.463133" xlink:href="#me79cb0b903" y="284.677163"/>
     <use style="fill:#4c72b0;fill-opacity:0.8;stroke:#4c72b0;stroke-opacity:0.8;" x="143.88635" xlink:href="#me79cb0b903" y="297.190639"/>
     <use style="fill:#4c72b0;fill-opacity:0.8;stroke:#4c72b0;stroke-opacity:0.8;" x="176.393187" xlink:href="#me79cb0b903" y="221.417723"/>
     <use style="fill:#4c72b0;fill-opacity:0.8;stroke:#4c72b0;stroke-opacity:0.8;" x="108.122039" xlink:href="#me79cb0b903" y="182.004976"/>
     <use style="fill:#4c72b0;fill-opacity:0.8;stroke:#4c72b0;stroke-opacity:0.8;" x="148.475032" xlink:href="#me79cb0b903" y="344.859806"/>
     <use style="fill:#4c72b0;fill-opacity:0.8;stroke:#4c72b0;stroke-opacity:0.8;" x="149.460674" xlink:href="#me79cb0b903" y="322.642905"/>
     <use style="fill:#4c72b0;fill-opacity:0.8;stroke:#4c72b0;stroke-opacity:0.8;" x="205.86855" xlink:href="#me79cb0b903" y="296.202096"/>
     <use style="fill:#4c72b0;fill-opacity:0.8;stroke:#4c72b0;stroke-opacity:0.8;" x="134.159246" xlink:href="#me79cb0b903" y="205.229669"/>
     <use style="fill:#4c72b0;fill-opacity:0.8;stroke:#4c72b0;stroke-opacity:0.8;" x="191.756696" xlink:href="#me79cb0b903" y="332.995948"/>
     <use style="fill:#4c72b0;fill-opacity:0.8;stroke:#4c72b0;stroke-opacity:0.8;" x="139.928198" xlink:href="#me79cb0b903" y="354.764228"/>
     <use style="fill:#4c72b0;fill-opacity:0.8;stroke:#4c72b0;stroke-opacity:0.8;" x="184.961506" xlink:href="#me79cb0b903" y="341.507267"/>
     <use style="fill:#4c72b0;fill-opacity:0.8;stroke:#4c72b0;stroke-opacity:0.8;" x="249.404361" xlink:href="#me79cb0b903" y="128.720006"/>
     <use style="fill:#4c72b0;fill-opacity:0.8;stroke:#4c72b0;stroke-opacity:0.8;" x="193.511139" xlink:href="#me79cb0b903" y="330.681432"/>
     <use style="fill:#4c72b0;fill-opacity:0.8;stroke:#4c72b0;stroke-opacity:0.8;" x="135.231741" xlink:href="#me79cb0b903" y="262.352068"/>
     <use style="fill:#4c72b0;fill-opacity:0.8;stroke:#4c72b0;stroke-opacity:0.8;" x="275.72444" xlink:href="#me79cb0b903" y="252.809483"/>
     <use style="fill:#4c72b0;fill-opacity:0.8;stroke:#4c72b0;stroke-opacity:0.8;" x="82.338961" xlink:href="#me79cb0b903" y="240.491579"/>
     <use style="fill:#4c72b0;fill-opacity:0.8;stroke:#4c72b0;stroke-opacity:0.8;" x="108.51179" xlink:href="#me79cb0b903" y="341.078603"/>
     <use style="fill:#4c72b0;fill-opacity:0.8;stroke:#4c72b0;stroke-opacity:0.8;" x="181.688103" xlink:href="#me79cb0b903" y="211.009643"/>
     <use style="fill:#4c72b0;fill-opacity:0.8;stroke:#4c72b0;stroke-opacity:0.8;" x="158.353193" xlink:href="#me79cb0b903" y="207.040245"/>
     <use style="fill:#4c72b0;fill-opacity:0.8;stroke:#4c72b0;stroke-opacity:0.8;" x="185.62458" xlink:href="#me79cb0b903" y="239.94709"/>
     <use style="fill:#4c72b0;fill-opacity:0.8;stroke:#4c72b0;stroke-opacity:0.8;" x="196.054536" xlink:href="#me79cb0b903" y="287.619495"/>
     <use style="fill:#4c72b0;fill-opacity:0.8;stroke:#4c72b0;stroke-opacity:0.8;" x="151.662182" xlink:href="#me79cb0b903" y="202.994434"/>
     <use style="fill:#4c72b0;fill-opacity:0.8;stroke:#4c72b0;stroke-opacity:0.8;" x="236.549461" xlink:href="#me79cb0b903" y="348.495572"/>
     <use style="fill:#4c72b0;fill-opacity:0.8;stroke:#4c72b0;stroke-opacity:0.8;" x="276.065376" xlink:href="#me79cb0b903" y="270.73484"/>
     <use style="fill:#4c72b0;fill-opacity:0.8;stroke:#4c72b0;stroke-opacity:0.8;" x="156.876602" xlink:href="#me79cb0b903" y="208.297"/>
     <use style="fill:#4c72b0;fill-opacity:0.8;stroke:#4c72b0;stroke-opacity:0.8;" x="199.347342" xlink:href="#me79cb0b903" y="176.239073"/>
     <use style="fill:#4c72b0;fill-opacity:0.8;stroke:#4c72b0;stroke-opacity:0.8;" x="160.406582" xlink:href="#me79cb0b903" y="247.9122"/>
     <use style="fill:#4c72b0;fill-opacity:0.8;stroke:#4c72b0;stroke-opacity:0.8;" x="210.624159" xlink:href="#me79cb0b903" y="327.098076"/>
     <use style="fill:#4c72b0;fill-opacity:0.8;stroke:#4c72b0;stroke-opacity:0.8;" x="159.642877" xlink:href="#me79cb0b903" y="201.508292"/>
     <use style="fill:#4c72b0;fill-opacity:0.8;stroke:#4c72b0;stroke-opacity:0.8;" x="194.547773" xlink:href="#me79cb0b903" y="326.104852"/>
     <use style="fill:#4c72b0;fill-opacity:0.8;stroke:#4c72b0;stroke-opacity:0.8;" x="224.214063" xlink:href="#me79cb0b903" y="357.645565"/>
     <use style="fill:#4c72b0;fill-opacity:0.8;stroke:#4c72b0;stroke-opacity:0.8;" x="231.368481" xlink:href="#me79cb0b903" y="341.010095"/>
     <use style="fill:#4c72b0;fill-opacity:0.8;stroke:#4c72b0;stroke-opacity:0.8;" x="244.427572" xlink:href="#me79cb0b903" y="360.156351"/>
     <use style="fill:#4c72b0;fill-opacity:0.8;stroke:#4c72b0;stroke-opacity:0.8;" x="165.393819" xlink:href="#me79cb0b903" y="183.552064"/>
     <use style="fill:#4c72b0;fill-opacity:0.8;stroke:#4c72b0;stroke-opacity:0.8;" x="168.493378" xlink:href="#me79cb0b903" y="227.024519"/>
     <use style="fill:#4c72b0;fill-opacity:0.8;stroke:#4c72b0;stroke-opacity:0.8;" x="246.496713" xlink:href="#me79cb0b903" y="331.210153"/>
     <use style="fill:#4c72b0;fill-opacity:0.8;stroke:#4c72b0;stroke-opacity:0.8;" x="233.008398" xlink:href="#me79cb0b903" y="257.755747"/>
     <use style="fill:#4c72b0;fill-opacity:0.8;stroke:#4c72b0;stroke-opacity:0.8;" x="213.737806" xlink:href="#me79cb0b903" y="336.129197"/>
     <use style="fill:#4c72b0;fill-opacity:0.8;stroke:#4c72b0;stroke-opacity:0.8;" x="244.53343" xlink:href="#me79cb0b903" y="349.876135"/>
     <use style="fill:#4c72b0;fill-opacity:0.8;stroke:#4c72b0;stroke-opacity:0.8;" x="181.424711" xlink:href="#me79cb0b903" y="351.208444"/>
     <use style="fill:#4c72b0;fill-opacity:0.8;stroke:#4c72b0;stroke-opacity:0.8;" x="75.869516" xlink:href="#me79cb0b903" y="245.663463"/>
     <use style="fill:#4c72b0;fill-opacity:0.8;stroke:#4c72b0;stroke-opacity:0.8;" x="206.05331" xlink:href="#me79cb0b903" y="286.270756"/>
     <use style="fill:#4c72b0;fill-opacity:0.8;stroke:#4c72b0;stroke-opacity:0.8;" x="178.575142" xlink:href="#me79cb0b903" y="272.989941"/>
     <use style="fill:#4c72b0;fill-opacity:0.8;stroke:#4c72b0;stroke-opacity:0.8;" x="226.431377" xlink:href="#me79cb0b903" y="336.991379"/>
     <use style="fill:#4c72b0;fill-opacity:0.8;stroke:#4c72b0;stroke-opacity:0.8;" x="51.835" xlink:href="#me79cb0b903" y="174.276199"/>
     <use style="fill:#4c72b0;fill-opacity:0.8;stroke:#4c72b0;stroke-opacity:0.8;" x="168.659863" xlink:href="#me79cb0b903" y="308.864126"/>
     <use style="fill:#4c72b0;fill-opacity:0.8;stroke:#4c72b0;stroke-opacity:0.8;" x="160.758739" xlink:href="#me79cb0b903" y="282.002143"/>
     <use style="fill:#4c72b0;fill-opacity:0.8;stroke:#4c72b0;stroke-opacity:0.8;" x="169.085491" xlink:href="#me79cb0b903" y="203.079086"/>
     <use style="fill:#4c72b0;fill-opacity:0.8;stroke:#4c72b0;stroke-opacity:0.8;" x="108.988284" xlink:href="#me79cb0b903" y="171.413771"/>
     <use style="fill:#4c72b0;fill-opacity:0.8;stroke:#4c72b0;stroke-opacity:0.8;" x="250.524389" xlink:href="#me79cb0b903" y="346.738566"/>
     <use style="fill:#4c72b0;fill-opacity:0.8;stroke:#4c72b0;stroke-opacity:0.8;" x="93.36006" xlink:href="#me79cb0b903" y="313.882534"/>
     <use style="fill:#4c72b0;fill-opacity:0.8;stroke:#4c72b0;stroke-opacity:0.8;" x="183.24153" xlink:href="#me79cb0b903" y="308.719918"/>
     <use style="fill:#4c72b0;fill-opacity:0.8;stroke:#4c72b0;stroke-opacity:0.8;" x="154.496796" xlink:href="#me79cb0b903" y="270.322289"/>
     <use style="fill:#4c72b0;fill-opacity:0.8;stroke:#4c72b0;stroke-opacity:0.8;" x="255.178502" xlink:href="#me79cb0b903" y="285.844347"/>
     <use style="fill:#4c72b0;fill-opacity:0.8;stroke:#4c72b0;stroke-opacity:0.8;" x="187.961014" xlink:href="#me79cb0b903" y="332.702398"/>
     <use style="fill:#4c72b0;fill-opacity:0.8;stroke:#4c72b0;stroke-opacity:0.8;" x="156.681032" xlink:href="#me79cb0b903" y="347.229236"/>
     <use style="fill:#4c72b0;fill-opacity:0.8;stroke:#4c72b0;stroke-opacity:0.8;" x="165.556874" xlink:href="#me79cb0b903" y="297.370063"/>
     <use style="fill:#4c72b0;fill-opacity:0.8;stroke:#4c72b0;stroke-opacity:0.8;" x="205.850221" xlink:href="#me79cb0b903" y="355.345611"/>
     <use style="fill:#4c72b0;fill-opacity:0.8;stroke:#4c72b0;stroke-opacity:0.8;" x="181.588438" xlink:href="#me79cb0b903" y="320.152846"/>
     <use style="fill:#4c72b0;fill-opacity:0.8;stroke:#4c72b0;stroke-opacity:0.8;" x="61.525726" xlink:href="#me79cb0b903" y="127.080947"/>
     <use style="fill:#4c72b0;fill-opacity:0.8;stroke:#4c72b0;stroke-opacity:0.8;" x="244.692691" xlink:href="#me79cb0b903" y="255.030505"/>
     <use style="fill:#4c72b0;fill-opacity:0.8;stroke:#4c72b0;stroke-opacity:0.8;" x="211.268025" xlink:href="#me79cb0b903" y="240.80022"/>
     <use style="fill:#4c72b0;fill-opacity:0.8;stroke:#4c72b0;stroke-opacity:0.8;" x="212.238041" xlink:href="#me79cb0b903" y="319.15497"/>
     <use style="fill:#4c72b0;fill-opacity:0.8;stroke:#4c72b0;stroke-opacity:0.8;" x="219.900685" xlink:href="#me79cb0b903" y="332.814044"/>
     <use style="fill:#4c72b0;fill-opacity:0.8;stroke:#4c72b0;stroke-opacity:0.8;" x="191.221138" xlink:href="#me79cb0b903" y="300.388929"/>
     <use style="fill:#4c72b0;fill-opacity:0.8;stroke:#4c72b0;stroke-opacity:0.8;" x="221.524014" xlink:href="#me79cb0b903" y="274.599794"/>
     <use style="fill:#4c72b0;fill-opacity:0.8;stroke:#4c72b0;stroke-opacity:0.8;" x="181.560701" xlink:href="#me79cb0b903" y="191.12192"/>
     <use style="fill:#4c72b0;fill-opacity:0.8;stroke:#4c72b0;stroke-opacity:0.8;" x="191.099802" xlink:href="#me79cb0b903" y="353.969045"/>
     <use style="fill:#4c72b0;fill-opacity:0.8;stroke:#4c72b0;stroke-opacity:0.8;" x="279.226061" xlink:href="#me79cb0b903" y="275.901914"/>
     <use style="fill:#4c72b0;fill-opacity:0.8;stroke:#4c72b0;stroke-opacity:0.8;" x="273.778876" xlink:href="#me79cb0b903" y="148.812841"/>
     <use style="fill:#4c72b0;fill-opacity:0.8;stroke:#4c72b0;stroke-opacity:0.8;" x="254.920214" xlink:href="#me79cb0b903" y="250.271078"/>
     <use style="fill:#4c72b0;fill-opacity:0.8;stroke:#4c72b0;stroke-opacity:0.8;" x="144.842357" xlink:href="#me79cb0b903" y="277.55998"/>
     <use style="fill:#4c72b0;fill-opacity:0.8;stroke:#4c72b0;stroke-opacity:0.8;" x="103.215152" xlink:href="#me79cb0b903" y="222.35352"/>
     <use style="fill:#4c72b0;fill-opacity:0.8;stroke:#4c72b0;stroke-opacity:0.8;" x="148.70413" xlink:href="#me79cb0b903" y="208.309678"/>
     <use style="fill:#4c72b0;fill-opacity:0.8;stroke:#4c72b0;stroke-opacity:0.8;" x="241.750602" xlink:href="#me79cb0b903" y="237.625444"/>
     <use style="fill:#4c72b0;fill-opacity:0.8;stroke:#4c72b0;stroke-opacity:0.8;" x="257.377246" xlink:href="#me79cb0b903" y="324.740474"/>
     <use style="fill:#4c72b0;fill-opacity:0.8;stroke:#4c72b0;stroke-opacity:0.8;" x="167.501334" xlink:href="#me79cb0b903" y="272.740211"/>
     <use style="fill:#4c72b0;fill-opacity:0.8;stroke:#4c72b0;stroke-opacity:0.8;" x="173.1652" xlink:href="#me79cb0b903" y="322.729614"/>
     <use style="fill:#4c72b0;fill-opacity:0.8;stroke:#4c72b0;stroke-opacity:0.8;" x="106.695873" xlink:href="#me79cb0b903" y="320.426603"/>
     <use style="fill:#4c72b0;fill-opacity:0.8;stroke:#4c72b0;stroke-opacity:0.8;" x="248.834201" xlink:href="#me79cb0b903" y="324.773213"/>
     <use style="fill:#4c72b0;fill-opacity:0.8;stroke:#4c72b0;stroke-opacity:0.8;" x="198.440602" xlink:href="#me79cb0b903" y="286.625546"/>
     <use style="fill:#4c72b0;fill-opacity:0.8;stroke:#4c72b0;stroke-opacity:0.8;" x="213.398377" xlink:href="#me79cb0b903" y="332.973493"/>
     <use style="fill:#4c72b0;fill-opacity:0.8;stroke:#4c72b0;stroke-opacity:0.8;" x="196.106404" xlink:href="#me79cb0b903" y="201.413602"/>
     <use style="fill:#4c72b0;fill-opacity:0.8;stroke:#4c72b0;stroke-opacity:0.8;" x="234.273926" xlink:href="#me79cb0b903" y="260.960739"/>
     <use style="fill:#4c72b0;fill-opacity:0.8;stroke:#4c72b0;stroke-opacity:0.8;" x="175.535794" xlink:href="#me79cb0b903" y="292.697492"/>
     <use style="fill:#4c72b0;fill-opacity:0.8;stroke:#4c72b0;stroke-opacity:0.8;" x="310.175911" xlink:href="#me79cb0b903" y="329.261419"/>
     <use style="fill:#4c72b0;fill-opacity:0.8;stroke:#4c72b0;stroke-opacity:0.8;" x="244.812897" xlink:href="#me79cb0b903" y="320.880267"/>
     <use style="fill:#4c72b0;fill-opacity:0.8;stroke:#4c72b0;stroke-opacity:0.8;" x="283.374875" xlink:href="#me79cb0b903" y="246.437667"/>
     <use style="fill:#4c72b0;fill-opacity:0.8;stroke:#4c72b0;stroke-opacity:0.8;" x="279.409949" xlink:href="#me79cb0b903" y="251.425743"/>
     <use style="fill:#4c72b0;fill-opacity:0.8;stroke:#4c72b0;stroke-opacity:0.8;" x="221.094481" xlink:href="#me79cb0b903" y="351.954484"/>
     <use style="fill:#4c72b0;fill-opacity:0.8;stroke:#4c72b0;stroke-opacity:0.8;" x="138.722823" xlink:href="#me79cb0b903" y="135.465435"/>
     <use style="fill:#4c72b0;fill-opacity:0.8;stroke:#4c72b0;stroke-opacity:0.8;" x="150.75662" xlink:href="#me79cb0b903" y="198.833912"/>
     <use style="fill:#4c72b0;fill-opacity:0.8;stroke:#4c72b0;stroke-opacity:0.8;" x="192.382631" xlink:href="#me79cb0b903" y="346.459297"/>
     <use style="fill:#4c72b0;fill-opacity:0.8;stroke:#4c72b0;stroke-opacity:0.8;" x="108.960615" xlink:href="#me79cb0b903" y="261.899361"/>
     <use style="fill:#4c72b0;fill-opacity:0.8;stroke:#4c72b0;stroke-opacity:0.8;" x="199.831392" xlink:href="#me79cb0b903" y="333.97488"/>
     <use style="fill:#4c72b0;fill-opacity:0.8;stroke:#4c72b0;stroke-opacity:0.8;" x="151.842619" xlink:href="#me79cb0b903" y="308.724851"/>
     <use style="fill:#4c72b0;fill-opacity:0.8;stroke:#4c72b0;stroke-opacity:0.8;" x="244.575682" xlink:href="#me79cb0b903" y="353.049567"/>
     <use style="fill:#4c72b0;fill-opacity:0.8;stroke:#4c72b0;stroke-opacity:0.8;" x="191.292181" xlink:href="#me79cb0b903" y="265.751224"/>
     <use style="fill:#4c72b0;fill-opacity:0.8;stroke:#4c72b0;stroke-opacity:0.8;" x="259.745752" xlink:href="#me79cb0b903" y="350.629729"/>
     <use style="fill:#4c72b0;fill-opacity:0.8;stroke:#4c72b0;stroke-opacity:0.8;" x="168.382466" xlink:href="#me79cb0b903" y="90.863091"/>
     <use style="fill:#4c72b0;fill-opacity:0.8;stroke:#4c72b0;stroke-opacity:0.8;" x="219.951206" xlink:href="#me79cb0b903" y="313.55471"/>
     <use style="fill:#4c72b0;fill-opacity:0.8;stroke:#4c72b0;stroke-opacity:0.8;" x="132.646976" xlink:href="#me79cb0b903" y="272.302442"/>
     <use style="fill:#4c72b0;fill-opacity:0.8;stroke:#4c72b0;stroke-opacity:0.8;" x="146.867309" xlink:href="#me79cb0b903" y="337.875619"/>
     <use style="fill:#4c72b0;fill-opacity:0.8;stroke:#4c72b0;stroke-opacity:0.8;" x="165.28897" xlink:href="#me79cb0b903" y="301.780711"/>
     <use style="fill:#4c72b0;fill-opacity:0.8;stroke:#4c72b0;stroke-opacity:0.8;" x="122.648131" xlink:href="#me79cb0b903" y="234.630781"/>
     <use style="fill:#4c72b0;fill-opacity:0.8;stroke:#4c72b0;stroke-opacity:0.8;" x="220.251288" xlink:href="#me79cb0b903" y="351.68261"/>
     <use style="fill:#4c72b0;fill-opacity:0.8;stroke:#4c72b0;stroke-opacity:0.8;" x="356.090571" xlink:href="#me79cb0b903" y="300.242018"/>
     <use style="fill:#4c72b0;fill-opacity:0.8;stroke:#4c72b0;stroke-opacity:0.8;" x="197.708052" xlink:href="#me79cb0b903" y="371.507766"/>
     <use style="fill:#4c72b0;fill-opacity:0.8;stroke:#4c72b0;stroke-opacity:0.8;" x="180.391381" xlink:href="#me79cb0b903" y="360.478694"/>
     <use style="fill:#4c72b0;fill-opacity:0.8;stroke:#4c72b0;stroke-opacity:0.8;" x="186.902406" xlink:href="#me79cb0b903" y="273.27291"/>
     <use style="fill:#4c72b0;fill-opacity:0.8;stroke:#4c72b0;stroke-opacity:0.8;" x="113.317453" xlink:href="#me79cb0b903" y="261.099814"/>
     <use style="fill:#4c72b0;fill-opacity:0.8;stroke:#4c72b0;stroke-opacity:0.8;" x="131.038404" xlink:href="#me79cb0b903" y="216.941093"/>
     <use style="fill:#4c72b0;fill-opacity:0.8;stroke:#4c72b0;stroke-opacity:0.8;" x="144.868941" xlink:href="#me79cb0b903" y="244.222829"/>
     <use style="fill:#4c72b0;fill-opacity:0.8;stroke:#4c72b0;stroke-opacity:0.8;" x="280.740433" xlink:href="#me79cb0b903" y="294.902392"/>
     <use style="fill:#4c72b0;fill-opacity:0.8;stroke:#4c72b0;stroke-opacity:0.8;" x="151.12583" xlink:href="#me79cb0b903" y="307.694641"/>
     <use style="fill:#4c72b0;fill-opacity:0.8;stroke:#4c72b0;stroke-opacity:0.8;" x="206.682745" xlink:href="#me79cb0b903" y="282.527781"/>
     <use style="fill:#4c72b0;fill-opacity:0.8;stroke:#4c72b0;stroke-opacity:0.8;" x="135.18857" xlink:href="#me79cb0b903" y="152.647342"/>
     <use style="fill:#4c72b0;fill-opacity:0.8;stroke:#4c72b0;stroke-opacity:0.8;" x="148.617093" xlink:href="#me79cb0b903" y="191.73304"/>
     <use style="fill:#4c72b0;fill-opacity:0.8;stroke:#4c72b0;stroke-opacity:0.8;" x="215.225449" xlink:href="#me79cb0b903" y="261.257933"/>
     <use style="fill:#4c72b0;fill-opacity:0.8;stroke:#4c72b0;stroke-opacity:0.8;" x="122.149438" xlink:href="#me79cb0b903" y="318.054359"/>
     <use style="fill:#4c72b0;fill-opacity:0.8;stroke:#4c72b0;stroke-opacity:0.8;" x="182.449691" xlink:href="#me79cb0b903" y="262.312495"/>
     <use style="fill:#4c72b0;fill-opacity:0.8;stroke:#4c72b0;stroke-opacity:0.8;" x="203.067008" xlink:href="#me79cb0b903" y="295.192542"/>
     <use style="fill:#4c72b0;fill-opacity:0.8;stroke:#4c72b0;stroke-opacity:0.8;" x="185.12641" xlink:href="#me79cb0b903" y="298.562674"/>
     <use style="fill:#4c72b0;fill-opacity:0.8;stroke:#4c72b0;stroke-opacity:0.8;" x="63.549725" xlink:href="#me79cb0b903" y="162.002962"/>
     <use style="fill:#4c72b0;fill-opacity:0.8;stroke:#4c72b0;stroke-opacity:0.8;" x="115.616933" xlink:href="#me79cb0b903" y="250.793269"/>
     <use style="fill:#4c72b0;fill-opacity:0.8;stroke:#4c72b0;stroke-opacity:0.8;" x="186.656501" xlink:href="#me79cb0b903" y="331.556114"/>
     <use style="fill:#4c72b0;fill-opacity:0.8;stroke:#4c72b0;stroke-opacity:0.8;" x="105.101861" xlink:href="#me79cb0b903" y="239.053057"/>
     <use style="fill:#4c72b0;fill-opacity:0.8;stroke:#4c72b0;stroke-opacity:0.8;" x="109.126769" xlink:href="#me79cb0b903" y="223.56621"/>
     <use style="fill:#4c72b0;fill-opacity:0.8;stroke:#4c72b0;stroke-opacity:0.8;" x="226.851603" xlink:href="#me79cb0b903" y="209.018357"/>
     <use style="fill:#4c72b0;fill-opacity:0.8;stroke:#4c72b0;stroke-opacity:0.8;" x="182.789882" xlink:href="#me79cb0b903" y="333.674516"/>
     <use style="fill:#4c72b0;fill-opacity:0.8;stroke:#4c72b0;stroke-opacity:0.8;" x="197.708052" xlink:href="#me79cb0b903" y="371.507766"/>
     <use style="fill:#4c72b0;fill-opacity:0.8;stroke:#4c72b0;stroke-opacity:0.8;" x="277.873431" xlink:href="#me79cb0b903" y="231.089102"/>
     <use style="fill:#4c72b0;fill-opacity:0.8;stroke:#4c72b0;stroke-opacity:0.8;" x="132.46007" xlink:href="#me79cb0b903" y="349.692988"/>
     <use style="fill:#4c72b0;fill-opacity:0.8;stroke:#4c72b0;stroke-opacity:0.8;" x="248.485114" xlink:href="#me79cb0b903" y="348.859056"/>
     <use style="fill:#4c72b0;fill-opacity:0.8;stroke:#4c72b0;stroke-opacity:0.8;" x="259.994022" xlink:href="#me79cb0b903" y="252.723004"/>
     <use style="fill:#4c72b0;fill-opacity:0.8;stroke:#4c72b0;stroke-opacity:0.8;" x="197.720639" xlink:href="#me79cb0b903" y="327.129949"/>
     <use style="fill:#4c72b0;fill-opacity:0.8;stroke:#4c72b0;stroke-opacity:0.8;" x="166.211262" xlink:href="#me79cb0b903" y="346.370027"/>
     <use style="fill:#4c72b0;fill-opacity:0.8;stroke:#4c72b0;stroke-opacity:0.8;" x="172.253998" xlink:href="#me79cb0b903" y="286.530056"/>
     <use style="fill:#4c72b0;fill-opacity:0.8;stroke:#4c72b0;stroke-opacity:0.8;" x="304.789277" xlink:href="#me79cb0b903" y="349.563763"/>
     <use style="fill:#4c72b0;fill-opacity:0.8;stroke:#4c72b0;stroke-opacity:0.8;" x="199.549633" xlink:href="#me79cb0b903" y="330.310887"/>
     <use style="fill:#4c72b0;fill-opacity:0.8;stroke:#4c72b0;stroke-opacity:0.8;" x="199.917066" xlink:href="#me79cb0b903" y="336.679845"/>
     <use style="fill:#4c72b0;fill-opacity:0.8;stroke:#4c72b0;stroke-opacity:0.8;" x="246.700456" xlink:href="#me79cb0b903" y="256.881327"/>
     <use style="fill:#4c72b0;fill-opacity:0.8;stroke:#4c72b0;stroke-opacity:0.8;" x="145.044487" xlink:href="#me79cb0b903" y="351.822471"/>
     <use style="fill:#4c72b0;fill-opacity:0.8;stroke:#4c72b0;stroke-opacity:0.8;" x="123.364184" xlink:href="#me79cb0b903" y="284.071148"/>
     <use style="fill:#4c72b0;fill-opacity:0.8;stroke:#4c72b0;stroke-opacity:0.8;" x="188.848928" xlink:href="#me79cb0b903" y="242.039696"/>
     <use style="fill:#4c72b0;fill-opacity:0.8;stroke:#4c72b0;stroke-opacity:0.8;" x="275.940437" xlink:href="#me79cb0b903" y="351.556899"/>
     <use style="fill:#4c72b0;fill-opacity:0.8;stroke:#4c72b0;stroke-opacity:0.8;" x="185.689656" xlink:href="#me79cb0b903" y="260.579498"/>
     <use style="fill:#4c72b0;fill-opacity:0.8;stroke:#4c72b0;stroke-opacity:0.8;" x="122.070603" xlink:href="#me79cb0b903" y="321.426053"/>
     <use style="fill:#4c72b0;fill-opacity:0.8;stroke:#4c72b0;stroke-opacity:0.8;" x="155.814508" xlink:href="#me79cb0b903" y="323.716849"/>
     <use style="fill:#4c72b0;fill-opacity:0.8;stroke:#4c72b0;stroke-opacity:0.8;" x="142.236274" xlink:href="#me79cb0b903" y="200.331551"/>
     <use style="fill:#4c72b0;fill-opacity:0.8;stroke:#4c72b0;stroke-opacity:0.8;" x="218.336582" xlink:href="#me79cb0b903" y="249.055491"/>
     <use style="fill:#4c72b0;fill-opacity:0.8;stroke:#4c72b0;stroke-opacity:0.8;" x="128.907507" xlink:href="#me79cb0b903" y="361.159476"/>
     <use style="fill:#4c72b0;fill-opacity:0.8;stroke:#4c72b0;stroke-opacity:0.8;" x="191.820949" xlink:href="#me79cb0b903" y="325.304358"/>
     <use style="fill:#4c72b0;fill-opacity:0.8;stroke:#4c72b0;stroke-opacity:0.8;" x="169.230197" xlink:href="#me79cb0b903" y="297.888933"/>
     <use style="fill:#4c72b0;fill-opacity:0.8;stroke:#4c72b0;stroke-opacity:0.8;" x="257.478095" xlink:href="#me79cb0b903" y="250.600726"/>
     <use style="fill:#4c72b0;fill-opacity:0.8;stroke:#4c72b0;stroke-opacity:0.8;" x="218.511859" xlink:href="#me79cb0b903" y="275.601086"/>
     <use style="fill:#4c72b0;fill-opacity:0.8;stroke:#4c72b0;stroke-opacity:0.8;" x="208.23623" xlink:href="#me79cb0b903" y="320.990932"/>
     <use style="fill:#4c72b0;fill-opacity:0.8;stroke:#4c72b0;stroke-opacity:0.8;" x="270.610685" xlink:href="#me79cb0b903" y="246.687611"/>
     <use style="fill:#4c72b0;fill-opacity:0.8;stroke:#4c72b0;stroke-opacity:0.8;" x="223.551139" xlink:href="#me79cb0b903" y="322.642562"/>
     <use style="fill:#4c72b0;fill-opacity:0.8;stroke:#4c72b0;stroke-opacity:0.8;" x="234.127289" xlink:href="#me79cb0b903" y="281.570696"/>
     <use style="fill:#4c72b0;fill-opacity:0.8;stroke:#4c72b0;stroke-opacity:0.8;" x="140.616729" xlink:href="#me79cb0b903" y="325.166765"/>
     <use style="fill:#4c72b0;fill-opacity:0.8;stroke:#4c72b0;stroke-opacity:0.8;" x="131.184651" xlink:href="#me79cb0b903" y="194.903099"/>
    </g>
   </g>
   <g id="PolyCollection_1">
    <defs>
     <path d="M 51.835 -212.171004 
L 51.835 -165.675383 
L 54.908289 -165.211728 
L 57.981577 -164.792513 
L 61.054866 -164.51044 
L 64.128154 -163.870975 
L 67.201443 -163.661456 
L 70.274732 -163.403264 
L 73.34802 -162.898935 
L 76.421309 -162.400381 
L 79.494597 -162.01018 
L 82.567886 -161.624307 
L 85.641175 -161.082619 
L 88.714463 -160.540931 
L 91.787752 -159.999242 
L 94.86104 -159.457554 
L 97.934329 -158.915866 
L 101.007618 -158.374179 
L 104.080906 -158.071128 
L 107.154195 -157.848069 
L 110.227483 -157.39283 
L 113.300772 -156.909719 
L 116.374061 -156.426607 
L 119.447349 -156.001147 
L 122.520638 -155.680726 
L 125.593926 -155.296207 
L 128.667215 -154.822709 
L 131.740504 -154.377674 
L 134.813792 -153.806423 
L 137.887081 -153.285458 
L 140.960369 -152.947847 
L 144.033658 -152.206776 
L 147.106947 -151.780158 
L 150.180235 -151.151089 
L 153.253524 -150.59143 
L 156.326812 -150.070768 
L 159.400101 -149.544292 
L 162.47339 -149.024136 
L 165.546678 -148.650617 
L 168.619967 -148.092229 
L 171.693255 -147.514582 
L 174.766544 -146.952942 
L 177.839833 -146.270059 
L 180.913121 -145.545379 
L 183.98641 -144.589164 
L 187.059698 -143.820039 
L 190.132987 -143.247853 
L 193.206276 -142.161056 
L 196.279564 -141.322602 
L 199.352853 -140.249633 
L 202.426141 -139.329427 
L 205.49943 -138.313794 
L 208.572719 -136.998445 
L 211.646007 -135.815742 
L 214.719296 -134.745839 
L 217.792584 -133.550311 
L 220.865873 -132.392665 
L 223.939162 -131.20802 
L 227.01245 -130.023261 
L 230.085739 -128.83945 
L 233.159027 -127.560572 
L 236.232316 -126.322597 
L 239.305605 -125.164135 
L 242.378893 -123.861117 
L 245.452182 -122.773664 
L 248.52547 -121.683724 
L 251.598759 -120.546738 
L 254.672048 -119.363379 
L 257.745336 -118.145304 
L 260.818625 -116.990909 
L 263.891913 -115.762981 
L 266.965202 -114.48308 
L 270.038491 -113.184143 
L 273.111779 -111.918553 
L 276.185068 -110.633766 
L 279.258356 -109.348979 
L 282.331645 -108.065538 
L 285.404934 -106.785751 
L 288.478222 -105.507721 
L 291.551511 -104.229696 
L 294.624799 -103.092331 
L 297.698088 -101.965311 
L 300.771377 -100.839869 
L 303.844665 -99.391001 
L 306.917954 -98.103495 
L 309.991242 -96.905739 
L 313.064531 -95.711139 
L 316.13782 -94.385784 
L 319.211108 -93.040488 
L 322.284397 -91.70262 
L 325.357685 -90.514137 
L 328.430974 -89.280686 
L 331.504263 -87.949417 
L 334.577551 -86.618149 
L 337.65084 -85.288118 
L 340.724128 -83.958518 
L 343.797417 -82.628918 
L 346.870706 -81.299318 
L 349.943994 -79.969717 
L 353.017283 -78.640117 
L 356.090571 -77.310517 
L 356.090571 -128.883144 
L 356.090571 -128.883144 
L 353.017283 -129.310939 
L 349.943994 -129.738734 
L 346.870706 -130.256034 
L 343.797417 -130.660592 
L 340.724128 -131.065151 
L 337.65084 -131.464999 
L 334.577551 -131.880376 
L 331.504263 -132.272105 
L 328.430974 -132.737193 
L 325.357685 -133.169644 
L 322.284397 -133.602095 
L 319.211108 -134.029772 
L 316.13782 -134.455299 
L 313.064531 -134.880827 
L 309.991242 -135.306354 
L 306.917954 -135.635966 
L 303.844665 -135.949496 
L 300.771377 -136.283238 
L 297.698088 -136.691401 
L 294.624799 -137.25282 
L 291.551511 -137.814239 
L 288.478222 -138.307059 
L 285.404934 -138.798178 
L 282.331645 -139.351351 
L 279.258356 -139.904524 
L 276.185068 -140.457697 
L 273.111779 -141.010869 
L 270.038491 -141.564042 
L 266.965202 -142.117215 
L 263.891913 -142.670388 
L 260.818625 -143.223561 
L 257.745336 -143.776733 
L 254.672048 -144.329906 
L 251.598759 -145.033268 
L 248.52547 -145.588763 
L 245.452182 -146.107273 
L 242.378893 -146.536715 
L 239.305605 -147.125522 
L 236.232316 -147.644504 
L 233.159027 -148.194651 
L 230.085739 -148.637485 
L 227.01245 -149.151332 
L 223.939162 -149.768856 
L 220.865873 -150.51472 
L 217.792584 -151.028229 
L 214.719296 -151.798628 
L 211.646007 -152.444706 
L 208.572719 -153.090036 
L 205.49943 -153.729204 
L 202.426141 -154.407085 
L 199.352853 -155.429316 
L 196.279564 -156.332807 
L 193.206276 -157.24009 
L 190.132987 -158.062214 
L 187.059698 -158.844158 
L 183.98641 -159.686043 
L 180.913121 -160.758041 
L 177.839833 -161.788765 
L 174.766544 -162.906099 
L 171.693255 -163.989984 
L 168.619967 -164.918184 
L 165.546678 -165.892595 
L 162.47339 -167.069583 
L 159.400101 -168.423719 
L 156.326812 -169.596088 
L 153.253524 -170.783186 
L 150.180235 -171.86448 
L 147.106947 -173.069255 
L 144.033658 -174.396606 
L 140.960369 -175.63855 
L 137.887081 -176.750033 
L 134.813792 -177.925075 
L 131.740504 -179.139691 
L 128.667215 -180.354306 
L 125.593926 -181.568921 
L 122.520638 -182.783536 
L 119.447349 -184.059832 
L 116.374061 -185.252211 
L 113.300772 -186.496829 
L 110.227483 -187.741447 
L 107.154195 -188.916396 
L 104.080906 -190.06971 
L 101.007618 -191.328491 
L 97.934329 -192.683838 
L 94.86104 -193.964537 
L 91.787752 -195.209155 
L 88.714463 -196.44871 
L 85.641175 -197.680781 
L 82.567886 -198.912852 
L 79.494597 -200.208136 
L 76.421309 -201.575174 
L 73.34802 -202.934848 
L 70.274732 -204.258598 
L 67.201443 -205.469208 
L 64.128154 -206.721585 
L 61.054866 -207.995144 
L 57.981577 -209.390507 
L 54.908289 -210.780755 
L 51.835 -212.171004 
z
" id="mecc025308f" style="stroke:#ffffff;stroke-opacity:0.15;"/>
    </defs>
    <g clip-path="url(#p4cca149968)">
     <use style="fill:#4c72b0;fill-opacity:0.15;stroke:#ffffff;stroke-opacity:0.15;" x="0" xlink:href="#mecc025308f" y="432"/>
    </g>
   </g>
   <g id="line2d_1">
    <path clip-path="url(#p4cca149968)" d="M 51.835 242.167846 
L 54.908289 243.047584 
L 57.981577 243.927322 
L 61.054866 244.807061 
L 64.128154 245.686799 
L 67.201443 246.566537 
L 70.274732 247.446276 
L 73.34802 248.326014 
L 76.421309 249.205753 
L 79.494597 250.085491 
L 82.567886 250.965229 
L 85.641175 251.844968 
L 88.714463 252.724706 
L 91.787752 253.604444 
L 94.86104 254.484183 
L 97.934329 255.363921 
L 101.007618 256.243659 
L 104.080906 257.123398 
L 107.154195 258.003136 
L 110.227483 258.882875 
L 113.300772 259.762613 
L 116.374061 260.642351 
L 119.447349 261.52209 
L 122.520638 262.401828 
L 125.593926 263.281566 
L 128.667215 264.161305 
L 131.740504 265.041043 
L 134.813792 265.920782 
L 137.887081 266.80052 
L 140.960369 267.680258 
L 144.033658 268.559997 
L 147.106947 269.439735 
L 150.180235 270.319473 
L 153.253524 271.199212 
L 156.326812 272.07895 
L 159.400101 272.958688 
L 162.47339 273.838427 
L 165.546678 274.718165 
L 168.619967 275.597904 
L 171.693255 276.477642 
L 174.766544 277.35738 
L 177.839833 278.237119 
L 180.913121 279.116857 
L 183.98641 279.996595 
L 187.059698 280.876334 
L 190.132987 281.756072 
L 193.206276 282.635811 
L 196.279564 283.515549 
L 199.352853 284.395287 
L 202.426141 285.275026 
L 205.49943 286.154764 
L 208.572719 287.034502 
L 211.646007 287.914241 
L 214.719296 288.793979 
L 217.792584 289.673718 
L 220.865873 290.553456 
L 223.939162 291.433194 
L 227.01245 292.312933 
L 230.085739 293.192671 
L 233.159027 294.072409 
L 236.232316 294.952148 
L 239.305605 295.831886 
L 242.378893 296.711624 
L 245.452182 297.591363 
L 248.52547 298.471101 
L 251.598759 299.35084 
L 254.672048 300.230578 
L 257.745336 301.110316 
L 260.818625 301.990055 
L 263.891913 302.869793 
L 266.965202 303.749531 
L 270.038491 304.62927 
L 273.111779 305.509008 
L 276.185068 306.388747 
L 279.258356 307.268485 
L 282.331645 308.148223 
L 285.404934 309.027962 
L 288.478222 309.9077 
L 291.551511 310.787438 
L 294.624799 311.667177 
L 297.698088 312.546915 
L 300.771377 313.426654 
L 303.844665 314.306392 
L 306.917954 315.18613 
L 309.991242 316.065869 
L 313.064531 316.945607 
L 316.13782 317.825345 
L 319.211108 318.705084 
L 322.284397 319.584822 
L 325.357685 320.46456 
L 328.430974 321.344299 
L 331.504263 322.224037 
L 334.577551 323.103776 
L 337.65084 323.983514 
L 340.724128 324.863252 
L 343.797417 325.742991 
L 346.870706 326.622729 
L 349.943994 327.502467 
L 353.017283 328.382206 
L 356.090571 329.261944 
" style="fill:none;stroke:#4c72b0;stroke-linecap:round;stroke-width:2.25;"/>
   </g>
   <g id="patch_3">
    <path d="M 51.835 385.54 
L 51.835 76.830857 
" style="fill:none;stroke:#262626;stroke-linecap:square;stroke-linejoin:miter;stroke-width:1.25;"/>
   </g>
   <g id="patch_4">
    <path d="M 51.835 385.54 
L 356.090571 385.54 
" style="fill:none;stroke:#262626;stroke-linecap:square;stroke-linejoin:miter;stroke-width:1.25;"/>
   </g>
  </g>
  <g id="axes_2">
   <g id="patch_5">
    <path d="M 51.835 66.185714 
L 356.090571 66.185714 
L 356.090571 12.96 
L 51.835 12.96 
z
" style="fill:#ffffff;"/>
   </g>
   <g id="matplotlib.axis_3">
    <g id="xtick_8"/>
    <g id="xtick_9"/>
    <g id="xtick_10"/>
    <g id="xtick_11"/>
    <g id="xtick_12"/>
    <g id="xtick_13"/>
    <g id="xtick_14"/>
   </g>
   <g id="matplotlib.axis_4">
    <g id="ytick_8"/>
    <g id="ytick_9"/>
   </g>
   <g id="patch_6">
    <path clip-path="url(#pf63df7cb0b)" d="M 51.835 66.185714 
L 77.189631 66.185714 
L 77.189631 60.793038 
L 51.835 60.793038 
z
" style="fill:#4c72b0;fill-opacity:0.5;stroke:#ffffff;stroke-linejoin:miter;"/>
   </g>
   <g id="patch_7">
    <path clip-path="url(#pf63df7cb0b)" d="M 77.189631 66.185714 
L 102.544262 66.185714 
L 102.544262 59.714503 
L 77.189631 59.714503 
z
" style="fill:#4c72b0;fill-opacity:0.5;stroke:#ffffff;stroke-linejoin:miter;"/>
   </g>
   <g id="patch_8">
    <path clip-path="url(#pf63df7cb0b)" d="M 102.544262 66.185714 
L 127.898893 66.185714 
L 127.898893 47.850615 
L 102.544262 47.850615 
z
" style="fill:#4c72b0;fill-opacity:0.5;stroke:#ffffff;stroke-linejoin:miter;"/>
   </g>
   <g id="patch_9">
    <path clip-path="url(#pf63df7cb0b)" d="M 127.898893 66.185714 
L 153.253524 66.185714 
L 153.253524 28.436981 
L 127.898893 28.436981 
z
" style="fill:#4c72b0;fill-opacity:0.5;stroke:#ffffff;stroke-linejoin:miter;"/>
   </g>
   <g id="patch_10">
    <path clip-path="url(#pf63df7cb0b)" d="M 153.253524 66.185714 
L 178.608155 66.185714 
L 178.608155 37.065263 
L 153.253524 37.065263 
z
" style="fill:#4c72b0;fill-opacity:0.5;stroke:#ffffff;stroke-linejoin:miter;"/>
   </g>
   <g id="patch_11">
    <path clip-path="url(#pf63df7cb0b)" d="M 178.608155 66.185714 
L 203.962786 66.185714 
L 203.962786 15.494558 
L 178.608155 15.494558 
z
" style="fill:#4c72b0;fill-opacity:0.5;stroke:#ffffff;stroke-linejoin:miter;"/>
   </g>
   <g id="patch_12">
    <path clip-path="url(#pf63df7cb0b)" d="M 203.962786 66.185714 
L 229.317417 66.185714 
L 229.317417 39.222333 
L 203.962786 39.222333 
z
" style="fill:#4c72b0;fill-opacity:0.5;stroke:#ffffff;stroke-linejoin:miter;"/>
   </g>
   <g id="patch_13">
    <path clip-path="url(#pf63df7cb0b)" d="M 229.317417 66.185714 
L 254.672048 66.185714 
L 254.672048 33.829657 
L 229.317417 33.829657 
z
" style="fill:#4c72b0;fill-opacity:0.5;stroke:#ffffff;stroke-linejoin:miter;"/>
   </g>
   <g id="patch_14">
    <path clip-path="url(#pf63df7cb0b)" d="M 254.672048 66.185714 
L 280.026679 66.185714 
L 280.026679 47.850615 
L 254.672048 47.850615 
z
" style="fill:#4c72b0;fill-opacity:0.5;stroke:#ffffff;stroke-linejoin:miter;"/>
   </g>
   <g id="patch_15">
    <path clip-path="url(#pf63df7cb0b)" d="M 280.026679 66.185714 
L 305.38131 66.185714 
L 305.38131 60.793038 
L 280.026679 60.793038 
z
" style="fill:#4c72b0;fill-opacity:0.5;stroke:#ffffff;stroke-linejoin:miter;"/>
   </g>
   <g id="patch_16">
    <path clip-path="url(#pf63df7cb0b)" d="M 305.38131 66.185714 
L 330.73594 66.185714 
L 330.73594 65.107179 
L 305.38131 65.107179 
z
" style="fill:#4c72b0;fill-opacity:0.5;stroke:#ffffff;stroke-linejoin:miter;"/>
   </g>
   <g id="patch_17">
    <path clip-path="url(#pf63df7cb0b)" d="M 330.73594 66.185714 
L 356.090571 66.185714 
L 356.090571 65.107179 
L 330.73594 65.107179 
z
" style="fill:#4c72b0;fill-opacity:0.5;stroke:#ffffff;stroke-linejoin:miter;"/>
   </g>
   <g id="line2d_2">
    <path clip-path="url(#pf63df7cb0b)" d="M 51.835 63.214512 
L 64.06638 61.392053 
L 73.239915 59.856369 
L 80.884527 58.344627 
L 87.000217 56.880855 
L 93.115907 55.135065 
L 99.231597 53.09829 
L 105.347286 50.794946 
L 111.462976 48.263455 
L 119.107589 44.853211 
L 132.867891 38.639687 
L 137.454658 36.815004 
L 142.041426 35.225026 
L 146.628193 33.886506 
L 151.214961 32.764418 
L 160.388495 30.837784 
L 169.56203 28.823599 
L 177.206642 27.127064 
L 181.79341 26.339355 
L 184.851255 26.006377 
L 187.9091 25.873462 
L 190.966945 25.96634 
L 194.02479 26.293966 
L 197.082635 26.846962 
L 200.14048 27.598482 
L 204.727247 29.005116 
L 220.016472 34.072592 
L 224.603239 35.252236 
L 230.718929 36.56342 
L 239.892464 38.463069 
L 244.479231 39.626126 
L 249.065999 41.024261 
L 253.652766 42.660728 
L 259.768456 45.130764 
L 279.644448 53.522581 
L 285.760138 55.827257 
L 291.875828 57.923296 
L 297.991518 59.775858 
L 304.107207 61.35553 
L 310.222897 62.650649 
L 316.338587 63.668242 
L 322.454277 64.426151 
L 328.569967 64.948163 
L 334.685657 65.267207 
L 342.330269 65.454054 
L 356.090571 65.551148 
L 356.090571 65.551148 
" style="fill:none;stroke:#4c72b0;stroke-linecap:round;stroke-width:1.5;"/>
   </g>
   <g id="patch_18">
    <path d="M 51.835 66.185714 
L 356.090571 66.185714 
" style="fill:none;stroke:#262626;stroke-linecap:square;stroke-linejoin:miter;stroke-width:1.25;"/>
   </g>
  </g>
  <g id="axes_3">
   <g id="patch_19">
    <path d="M 366.582143 385.54 
L 419.04 385.54 
L 419.04 76.830857 
L 366.582143 76.830857 
z
" style="fill:#ffffff;"/>
   </g>
   <g id="matplotlib.axis_5">
    <g id="xtick_15"/>
    <g id="xtick_16"/>
   </g>
   <g id="matplotlib.axis_6">
    <g id="ytick_10"/>
    <g id="ytick_11"/>
    <g id="ytick_12"/>
    <g id="ytick_13"/>
    <g id="ytick_14"/>
    <g id="ytick_15"/>
    <g id="ytick_16"/>
   </g>
   <g id="patch_20">
    <path clip-path="url(#pba655d2b90)" d="M 366.582143 371.507766 
L 410.594404 371.507766 
L 410.594404 343.443299 
L 366.582143 343.443299 
z
" style="fill:#4c72b0;fill-opacity:0.5;stroke:#ffffff;stroke-linejoin:miter;"/>
   </g>
   <g id="patch_21">
    <path clip-path="url(#pba655d2b90)" d="M 366.582143 343.443299 
L 416.542007 343.443299 
L 416.542007 315.378831 
L 366.582143 315.378831 
z
" style="fill:#4c72b0;fill-opacity:0.5;stroke:#ffffff;stroke-linejoin:miter;"/>
   </g>
   <g id="patch_22">
    <path clip-path="url(#pba655d2b90)" d="M 366.582143 315.378831 
L 393.941116 315.378831 
L 393.941116 287.314364 
L 366.582143 287.314364 
z
" style="fill:#4c72b0;fill-opacity:0.5;stroke:#ffffff;stroke-linejoin:miter;"/>
   </g>
   <g id="patch_23">
    <path clip-path="url(#pba655d2b90)" d="M 366.582143 287.314364 
L 408.215363 287.314364 
L 408.215363 259.249896 
L 366.582143 259.249896 
z
" style="fill:#4c72b0;fill-opacity:0.5;stroke:#ffffff;stroke-linejoin:miter;"/>
   </g>
   <g id="patch_24">
    <path clip-path="url(#pba655d2b90)" d="M 366.582143 259.249896 
L 401.078239 259.249896 
L 401.078239 231.185429 
L 366.582143 231.185429 
z
" style="fill:#4c72b0;fill-opacity:0.5;stroke:#ffffff;stroke-linejoin:miter;"/>
   </g>
   <g id="patch_25">
    <path clip-path="url(#pba655d2b90)" d="M 366.582143 231.185429 
L 387.993513 231.185429 
L 387.993513 203.120961 
L 366.582143 203.120961 
z
" style="fill:#4c72b0;fill-opacity:0.5;stroke:#ffffff;stroke-linejoin:miter;"/>
   </g>
   <g id="patch_26">
    <path clip-path="url(#pba655d2b90)" d="M 366.582143 203.120961 
L 383.235431 203.120961 
L 383.235431 175.056494 
L 366.582143 175.056494 
z
" style="fill:#4c72b0;fill-opacity:0.5;stroke:#ffffff;stroke-linejoin:miter;"/>
   </g>
   <g id="patch_27">
    <path clip-path="url(#pba655d2b90)" d="M 366.582143 175.056494 
L 372.529746 175.056494 
L 372.529746 146.992026 
L 366.582143 146.992026 
z
" style="fill:#4c72b0;fill-opacity:0.5;stroke:#ffffff;stroke-linejoin:miter;"/>
   </g>
   <g id="patch_28">
    <path clip-path="url(#pba655d2b90)" d="M 366.582143 146.992026 
L 371.340225 146.992026 
L 371.340225 118.927558 
L 366.582143 118.927558 
z
" style="fill:#4c72b0;fill-opacity:0.5;stroke:#ffffff;stroke-linejoin:miter;"/>
   </g>
   <g id="patch_29">
    <path clip-path="url(#pba655d2b90)" d="M 366.582143 118.927558 
L 368.961184 118.927558 
L 368.961184 90.863091 
L 366.582143 90.863091 
z
" style="fill:#4c72b0;fill-opacity:0.5;stroke:#ffffff;stroke-linejoin:miter;"/>
   </g>
   <g id="line2d_3">
    <path clip-path="url(#pba655d2b90)" d="M 385.936447 371.507766 
L 391.593658 365.866667 
L 398.696395 358.815293 
L 402.588933 354.584469 
L 404.903145 351.76392 
L 406.933958 348.94337 
L 408.643172 346.122821 
L 410.005366 343.302271 
L 411.008845 340.481722 
L 411.655798 337.661172 
L 411.961714 334.840623 
L 411.954146 332.020073 
L 411.670929 329.199524 
L 411.157969 326.378974 
L 410.071177 322.14815 
L 407.863831 315.096776 
L 406.183596 309.455677 
L 405.165974 305.224853 
L 404.428707 300.994029 
L 403.982556 296.763204 
L 403.794094 292.53238 
L 403.826555 286.891281 
L 404.095778 274.198808 
L 403.972245 269.967984 
L 403.654222 265.73716 
L 403.117307 261.506336 
L 402.356018 257.275511 
L 401.383022 253.044687 
L 399.809429 247.403588 
L 397.554807 240.352214 
L 393.426978 227.659742 
L 390.972717 219.198093 
L 386.592517 203.685071 
L 384.287751 196.633697 
L 380.749736 186.761774 
L 377.809478 178.300125 
L 376.106834 172.659026 
L 375.02291 168.428202 
L 374.11924 164.197378 
L 373.18576 158.556279 
L 372.5185 152.91518 
L 371.945999 145.863806 
L 369.999261 117.658311 
L 368.401728 97.914465 
L 367.961258 90.863091 
L 367.961258 90.863091 
" style="fill:none;stroke:#4c72b0;stroke-linecap:round;stroke-width:1.5;"/>
   </g>
   <g id="patch_30">
    <path d="M 366.582143 385.54 
L 366.582143 76.830857 
" style="fill:none;stroke:#262626;stroke-linecap:square;stroke-linejoin:miter;stroke-width:1.25;"/>
   </g>
  </g>
 </g>
 <defs>
  <clipPath id="p4cca149968">
   <rect height="308.709143" width="304.255571" x="51.835" y="76.830857"/>
  </clipPath>
  <clipPath id="pf63df7cb0b">
   <rect height="53.225714" width="304.255571" x="51.835" y="12.96"/>
  </clipPath>
  <clipPath id="pba655d2b90">
   <rect height="308.709143" width="52.457857" x="366.582143" y="76.830857"/>
  </clipPath>
 </defs>
</svg>
