<?xml version="1.0" encoding="utf-8" standalone="no"?>
<!DOCTYPE svg PUBLIC "-//W3C//DTD SVG 1.1//EN"
  "http://www.w3.org/Graphics/SVG/1.1/DTD/svg11.dtd">
<!-- Created with matplotlib (https://matplotlib.org/) -->
<svg height="432pt" version="1.1" viewBox="0 0 432 432" width="432pt" xmlns="http://www.w3.org/2000/svg" xmlns:xlink="http://www.w3.org/1999/xlink">
 <metadata>
  <rdf:RDF xmlns:cc="http://creativecommons.org/ns#" xmlns:dc="http://purl.org/dc/elements/1.1/" xmlns:rdf="http://www.w3.org/1999/02/22-rdf-syntax-ns#">
   <cc:Work>
    <dc:type rdf:resource="http://purl.org/dc/dcmitype/StillImage"/>
    <dc:date>2020-11-30T21:12:14.823386</dc:date>
    <dc:format>image/svg+xml</dc:format>
    <dc:creator>
     <cc:Agent>
      <dc:title>Matplotlib v3.3.1, https://matplotlib.org/</dc:title>
     </cc:Agent>
    </dc:creator>
   </cc:Work>
  </rdf:RDF>
 </metadata>
 <defs>
  <style type="text/css">*{stroke-linecap:butt;stroke-linejoin:round;}</style>
 </defs>
 <g id="figure_1">
  <g id="patch_1">
   <path d="M 0 432 
L 432 432 
L 432 0 
L 0 0 
z
" style="fill:#ffffff;"/>
  </g>
  <g id="axes_1">
   <g id="patch_2">
    <path d="M 51.835 385.54 
L 356.090571 385.54 
L 356.090571 76.830857 
L 51.835 76.830857 
z
" style="fill:#ffffff;"/>
   </g>
   <g id="matplotlib.axis_1">
    <g id="xtick_1">
     <g id="text_1">
      <!-- 10 -->
      <g style="fill:#262626;" transform="translate(80.152508 402.913594)scale(0.11 -0.11)">
       <defs>
        <path d="M 37.25 0 
L 28.46875 0 
L 28.46875 56 
Q 25.296875 52.984375 20.140625 49.953125 
Q 14.984375 46.921875 10.890625 45.40625 
L 10.890625 53.90625 
Q 18.265625 57.375 23.78125 62.296875 
Q 29.296875 67.234375 31.59375 71.875 
L 37.25 71.875 
z
" id="ArialMT-49"/>
        <path d="M 4.15625 35.296875 
Q 4.15625 48 6.765625 55.734375 
Q 9.375 63.484375 14.515625 67.671875 
Q 19.671875 71.875 27.484375 71.875 
Q 33.25 71.875 37.59375 69.546875 
Q 41.9375 67.234375 44.765625 62.859375 
Q 47.609375 58.5 49.21875 52.21875 
Q 50.828125 45.953125 50.828125 35.296875 
Q 50.828125 22.703125 48.234375 14.96875 
Q 45.65625 7.234375 40.5 3 
Q 35.359375 -1.21875 27.484375 -1.21875 
Q 17.140625 -1.21875 11.234375 6.203125 
Q 4.15625 15.140625 4.15625 35.296875 
z
M 13.1875 35.296875 
Q 13.1875 17.671875 17.3125 11.828125 
Q 21.4375 6 27.484375 6 
Q 33.546875 6 37.671875 11.859375 
Q 41.796875 17.71875 41.796875 35.296875 
Q 41.796875 52.984375 37.671875 58.78125 
Q 33.546875 64.59375 27.390625 64.59375 
Q 21.34375 64.59375 17.71875 59.46875 
Q 13.1875 52.9375 13.1875 35.296875 
z
" id="ArialMT-48"/>
       </defs>
       <use xlink:href="#ArialMT-49"/>
       <use x="55.615234" xlink:href="#ArialMT-48"/>
      </g>
     </g>
    </g>
    <g id="xtick_2">
     <g id="text_2">
      <!-- 12 -->
      <g style="fill:#262626;" transform="translate(140.670814 402.913594)scale(0.11 -0.11)">
       <defs>
        <path d="M 50.34375 8.453125 
L 50.34375 0 
L 3.03125 0 
Q 2.9375 3.171875 4.046875 6.109375 
Q 5.859375 10.9375 9.828125 15.625 
Q 13.8125 20.3125 21.34375 26.46875 
Q 33.015625 36.03125 37.109375 41.625 
Q 41.21875 47.21875 41.21875 52.203125 
Q 41.21875 57.421875 37.46875 61 
Q 33.734375 64.59375 27.734375 64.59375 
Q 21.390625 64.59375 17.578125 60.78125 
Q 13.765625 56.984375 13.71875 50.25 
L 4.6875 51.171875 
Q 5.609375 61.28125 11.65625 66.578125 
Q 17.71875 71.875 27.9375 71.875 
Q 38.234375 71.875 44.234375 66.15625 
Q 50.25 60.453125 50.25 52 
Q 50.25 47.703125 48.484375 43.546875 
Q 46.734375 39.40625 42.65625 34.8125 
Q 38.578125 30.21875 29.109375 22.21875 
Q 21.1875 15.578125 18.9375 13.203125 
Q 16.703125 10.84375 15.234375 8.453125 
z
" id="ArialMT-50"/>
       </defs>
       <use xlink:href="#ArialMT-49"/>
       <use x="55.615234" xlink:href="#ArialMT-50"/>
      </g>
     </g>
    </g>
    <g id="xtick_3">
     <g id="text_3">
      <!-- 14 -->
      <g style="fill:#262626;" transform="translate(201.18912 402.913594)scale(0.11 -0.11)">
       <defs>
        <path d="M 32.328125 0 
L 32.328125 17.140625 
L 1.265625 17.140625 
L 1.265625 25.203125 
L 33.9375 71.578125 
L 41.109375 71.578125 
L 41.109375 25.203125 
L 50.78125 25.203125 
L 50.78125 17.140625 
L 41.109375 17.140625 
L 41.109375 0 
z
M 32.328125 25.203125 
L 32.328125 57.46875 
L 9.90625 25.203125 
z
" id="ArialMT-52"/>
       </defs>
       <use xlink:href="#ArialMT-49"/>
       <use x="55.615234" xlink:href="#ArialMT-52"/>
      </g>
     </g>
    </g>
    <g id="xtick_4">
     <g id="text_4">
      <!-- 16 -->
      <g style="fill:#262626;" transform="translate(261.707426 402.913594)scale(0.11 -0.11)">
       <defs>
        <path d="M 49.75 54.046875 
L 41.015625 53.375 
Q 39.84375 58.546875 37.703125 60.890625 
Q 34.125 64.65625 28.90625 64.65625 
Q 24.703125 64.65625 21.53125 62.3125 
Q 17.390625 59.28125 14.984375 53.46875 
Q 12.59375 47.65625 12.5 36.921875 
Q 15.671875 41.75 20.265625 44.09375 
Q 24.859375 46.4375 29.890625 46.4375 
Q 38.671875 46.4375 44.84375 39.96875 
Q 51.03125 33.5 51.03125 23.25 
Q 51.03125 16.5 48.125 10.71875 
Q 45.21875 4.9375 40.140625 1.859375 
Q 35.0625 -1.21875 28.609375 -1.21875 
Q 17.625 -1.21875 10.6875 6.859375 
Q 3.765625 14.9375 3.765625 33.5 
Q 3.765625 54.25 11.421875 63.671875 
Q 18.109375 71.875 29.4375 71.875 
Q 37.890625 71.875 43.28125 67.140625 
Q 48.6875 62.40625 49.75 54.046875 
z
M 13.875 23.1875 
Q 13.875 18.65625 15.796875 14.5 
Q 17.71875 10.359375 21.1875 8.171875 
Q 24.65625 6 28.46875 6 
Q 34.03125 6 38.03125 10.484375 
Q 42.046875 14.984375 42.046875 22.703125 
Q 42.046875 30.125 38.078125 34.390625 
Q 34.125 38.671875 28.125 38.671875 
Q 22.171875 38.671875 18.015625 34.390625 
Q 13.875 30.125 13.875 23.1875 
z
" id="ArialMT-54"/>
       </defs>
       <use xlink:href="#ArialMT-49"/>
       <use x="55.615234" xlink:href="#ArialMT-54"/>
      </g>
     </g>
    </g>
    <g id="xtick_5">
     <g id="text_5">
      <!-- 18 -->
      <g style="fill:#262626;" transform="translate(322.225731 402.913594)scale(0.11 -0.11)">
       <defs>
        <path d="M 17.671875 38.8125 
Q 12.203125 40.828125 9.5625 44.53125 
Q 6.9375 48.25 6.9375 53.421875 
Q 6.9375 61.234375 12.546875 66.546875 
Q 18.171875 71.875 27.484375 71.875 
Q 36.859375 71.875 42.578125 66.421875 
Q 48.296875 60.984375 48.296875 53.171875 
Q 48.296875 48.1875 45.671875 44.5 
Q 43.0625 40.828125 37.75 38.8125 
Q 44.34375 36.671875 47.78125 31.875 
Q 51.21875 27.09375 51.21875 20.453125 
Q 51.21875 11.28125 44.71875 5.03125 
Q 38.234375 -1.21875 27.640625 -1.21875 
Q 17.046875 -1.21875 10.546875 5.046875 
Q 4.046875 11.328125 4.046875 20.703125 
Q 4.046875 27.6875 7.59375 32.390625 
Q 11.140625 37.109375 17.671875 38.8125 
z
M 15.921875 53.71875 
Q 15.921875 48.640625 19.1875 45.40625 
Q 22.46875 42.1875 27.6875 42.1875 
Q 32.765625 42.1875 36.015625 45.375 
Q 39.265625 48.578125 39.265625 53.21875 
Q 39.265625 58.0625 35.90625 61.359375 
Q 32.5625 64.65625 27.59375 64.65625 
Q 22.5625 64.65625 19.234375 61.421875 
Q 15.921875 58.203125 15.921875 53.71875 
z
M 13.09375 20.65625 
Q 13.09375 16.890625 14.875 13.375 
Q 16.65625 9.859375 20.171875 7.921875 
Q 23.6875 6 27.734375 6 
Q 34.03125 6 38.125 10.046875 
Q 42.234375 14.109375 42.234375 20.359375 
Q 42.234375 26.703125 38.015625 30.859375 
Q 33.796875 35.015625 27.4375 35.015625 
Q 21.234375 35.015625 17.15625 30.90625 
Q 13.09375 26.8125 13.09375 20.65625 
z
" id="ArialMT-56"/>
       </defs>
       <use xlink:href="#ArialMT-49"/>
       <use x="55.615234" xlink:href="#ArialMT-56"/>
      </g>
     </g>
    </g>
    <g id="text_6">
     <!-- Slope -->
     <g style="fill:#262626;" transform="translate(188.617786 417.835469)scale(0.12 -0.12)">
      <defs>
       <path d="M 4.5 23 
L 13.421875 23.78125 
Q 14.0625 18.40625 16.375 14.96875 
Q 18.703125 11.53125 23.578125 9.40625 
Q 28.46875 7.28125 34.578125 7.28125 
Q 39.984375 7.28125 44.140625 8.890625 
Q 48.296875 10.5 50.3125 13.296875 
Q 52.34375 16.109375 52.34375 19.4375 
Q 52.34375 22.796875 50.390625 25.3125 
Q 48.4375 27.828125 43.953125 29.546875 
Q 41.0625 30.671875 31.203125 33.03125 
Q 21.34375 35.40625 17.390625 37.5 
Q 12.25 40.1875 9.734375 44.15625 
Q 7.234375 48.140625 7.234375 53.078125 
Q 7.234375 58.5 10.296875 63.203125 
Q 13.375 67.921875 19.28125 70.359375 
Q 25.203125 72.796875 32.421875 72.796875 
Q 40.375 72.796875 46.453125 70.234375 
Q 52.546875 67.671875 55.8125 62.6875 
Q 59.078125 57.71875 59.328125 51.421875 
L 50.25 50.734375 
Q 49.515625 57.515625 45.28125 60.984375 
Q 41.0625 64.453125 32.8125 64.453125 
Q 24.21875 64.453125 20.28125 61.296875 
Q 16.359375 58.15625 16.359375 53.71875 
Q 16.359375 49.859375 19.140625 47.359375 
Q 21.875 44.875 33.421875 42.265625 
Q 44.96875 39.65625 49.265625 37.703125 
Q 55.515625 34.8125 58.484375 30.390625 
Q 61.46875 25.984375 61.46875 20.21875 
Q 61.46875 14.5 58.203125 9.4375 
Q 54.9375 4.390625 48.796875 1.578125 
Q 42.671875 -1.21875 35.015625 -1.21875 
Q 25.296875 -1.21875 18.71875 1.609375 
Q 12.15625 4.4375 8.421875 10.125 
Q 4.6875 15.828125 4.5 23 
z
" id="ArialMT-83"/>
       <path d="M 6.390625 0 
L 6.390625 71.578125 
L 15.1875 71.578125 
L 15.1875 0 
z
" id="ArialMT-108"/>
       <path d="M 3.328125 25.921875 
Q 3.328125 40.328125 11.328125 47.265625 
Q 18.015625 53.03125 27.640625 53.03125 
Q 38.328125 53.03125 45.109375 46.015625 
Q 51.90625 39.015625 51.90625 26.65625 
Q 51.90625 16.65625 48.90625 10.90625 
Q 45.90625 5.171875 40.15625 2 
Q 34.421875 -1.171875 27.640625 -1.171875 
Q 16.75 -1.171875 10.03125 5.8125 
Q 3.328125 12.796875 3.328125 25.921875 
z
M 12.359375 25.921875 
Q 12.359375 15.96875 16.703125 11.015625 
Q 21.046875 6.0625 27.640625 6.0625 
Q 34.1875 6.0625 38.53125 11.03125 
Q 42.875 16.015625 42.875 26.21875 
Q 42.875 35.84375 38.5 40.796875 
Q 34.125 45.75 27.640625 45.75 
Q 21.046875 45.75 16.703125 40.8125 
Q 12.359375 35.890625 12.359375 25.921875 
z
" id="ArialMT-111"/>
       <path d="M 6.59375 -19.875 
L 6.59375 51.859375 
L 14.59375 51.859375 
L 14.59375 45.125 
Q 17.4375 49.078125 21 51.046875 
Q 24.5625 53.03125 29.640625 53.03125 
Q 36.28125 53.03125 41.359375 49.609375 
Q 46.4375 46.1875 49.015625 39.953125 
Q 51.609375 33.734375 51.609375 26.3125 
Q 51.609375 18.359375 48.75 11.984375 
Q 45.90625 5.609375 40.453125 2.21875 
Q 35.015625 -1.171875 29 -1.171875 
Q 24.609375 -1.171875 21.109375 0.6875 
Q 17.625 2.546875 15.375 5.375 
L 15.375 -19.875 
z
M 14.546875 25.640625 
Q 14.546875 15.625 18.59375 10.84375 
Q 22.65625 6.0625 28.421875 6.0625 
Q 34.28125 6.0625 38.453125 11.015625 
Q 42.625 15.96875 42.625 26.375 
Q 42.625 36.28125 38.546875 41.203125 
Q 34.46875 46.140625 28.8125 46.140625 
Q 23.1875 46.140625 18.859375 40.890625 
Q 14.546875 35.640625 14.546875 25.640625 
z
" id="ArialMT-112"/>
       <path d="M 42.09375 16.703125 
L 51.171875 15.578125 
Q 49.03125 7.625 43.21875 3.21875 
Q 37.40625 -1.171875 28.375 -1.171875 
Q 17 -1.171875 10.328125 5.828125 
Q 3.65625 12.84375 3.65625 25.484375 
Q 3.65625 38.578125 10.390625 45.796875 
Q 17.140625 53.03125 27.875 53.03125 
Q 38.28125 53.03125 44.875 45.953125 
Q 51.46875 38.875 51.46875 26.03125 
Q 51.46875 25.25 51.421875 23.6875 
L 12.75 23.6875 
Q 13.234375 15.140625 17.578125 10.59375 
Q 21.921875 6.0625 28.421875 6.0625 
Q 33.25 6.0625 36.671875 8.59375 
Q 40.09375 11.140625 42.09375 16.703125 
z
M 13.234375 30.90625 
L 42.1875 30.90625 
Q 41.609375 37.453125 38.875 40.71875 
Q 34.671875 45.796875 27.984375 45.796875 
Q 21.921875 45.796875 17.796875 41.75 
Q 13.671875 37.703125 13.234375 30.90625 
z
" id="ArialMT-101"/>
      </defs>
      <use xlink:href="#ArialMT-83"/>
      <use x="66.699219" xlink:href="#ArialMT-108"/>
      <use x="88.916016" xlink:href="#ArialMT-111"/>
      <use x="144.53125" xlink:href="#ArialMT-112"/>
      <use x="200.146484" xlink:href="#ArialMT-101"/>
     </g>
    </g>
   </g>
   <g id="matplotlib.axis_2">
    <g id="ytick_1">
     <g id="text_7">
      <!-- 0.2 -->
      <g style="fill:#262626;" transform="translate(27.045 365.858142)scale(0.11 -0.11)">
       <defs>
        <path d="M 9.078125 0 
L 9.078125 10.015625 
L 19.09375 10.015625 
L 19.09375 0 
z
" id="ArialMT-46"/>
       </defs>
       <use xlink:href="#ArialMT-48"/>
       <use x="55.615234" xlink:href="#ArialMT-46"/>
       <use x="83.398438" xlink:href="#ArialMT-50"/>
      </g>
     </g>
    </g>
    <g id="ytick_2">
     <g id="text_8">
      <!-- 0.4 -->
      <g style="fill:#262626;" transform="translate(27.045 321.227149)scale(0.11 -0.11)">
       <use xlink:href="#ArialMT-48"/>
       <use x="55.615234" xlink:href="#ArialMT-46"/>
       <use x="83.398438" xlink:href="#ArialMT-52"/>
      </g>
     </g>
    </g>
    <g id="ytick_3">
     <g id="text_9">
      <!-- 0.6 -->
      <g style="fill:#262626;" transform="translate(27.045 276.596157)scale(0.11 -0.11)">
       <use xlink:href="#ArialMT-48"/>
       <use x="55.615234" xlink:href="#ArialMT-46"/>
       <use x="83.398438" xlink:href="#ArialMT-54"/>
      </g>
     </g>
    </g>
    <g id="ytick_4">
     <g id="text_10">
      <!-- 0.8 -->
      <g style="fill:#262626;" transform="translate(27.045 231.965164)scale(0.11 -0.11)">
       <use xlink:href="#ArialMT-48"/>
       <use x="55.615234" xlink:href="#ArialMT-46"/>
       <use x="83.398438" xlink:href="#ArialMT-56"/>
      </g>
     </g>
    </g>
    <g id="ytick_5">
     <g id="text_11">
      <!-- 1.0 -->
      <g style="fill:#262626;" transform="translate(27.045 187.334172)scale(0.11 -0.11)">
       <use xlink:href="#ArialMT-49"/>
       <use x="55.615234" xlink:href="#ArialMT-46"/>
       <use x="83.398438" xlink:href="#ArialMT-48"/>
      </g>
     </g>
    </g>
    <g id="ytick_6">
     <g id="text_12">
      <!-- 1.2 -->
      <g style="fill:#262626;" transform="translate(27.045 142.703179)scale(0.11 -0.11)">
       <use xlink:href="#ArialMT-49"/>
       <use x="55.615234" xlink:href="#ArialMT-46"/>
       <use x="83.398438" xlink:href="#ArialMT-50"/>
      </g>
     </g>
    </g>
    <g id="ytick_7">
     <g id="text_13">
      <!-- 1.4 -->
      <g style="fill:#262626;" transform="translate(27.045 98.072187)scale(0.11 -0.11)">
       <use xlink:href="#ArialMT-49"/>
       <use x="55.615234" xlink:href="#ArialMT-46"/>
       <use x="83.398438" xlink:href="#ArialMT-52"/>
      </g>
     </g>
    </g>
    <g id="text_14">
     <!-- HBC -->
     <g style="fill:#262626;" transform="translate(20.66 243.853866)rotate(-90)scale(0.12 -0.12)">
      <defs>
       <path d="M 8.015625 0 
L 8.015625 71.578125 
L 17.484375 71.578125 
L 17.484375 42.1875 
L 54.6875 42.1875 
L 54.6875 71.578125 
L 64.15625 71.578125 
L 64.15625 0 
L 54.6875 0 
L 54.6875 33.734375 
L 17.484375 33.734375 
L 17.484375 0 
z
" id="ArialMT-72"/>
       <path d="M 7.328125 0 
L 7.328125 71.578125 
L 34.1875 71.578125 
Q 42.390625 71.578125 47.34375 69.40625 
Q 52.296875 67.234375 55.09375 62.71875 
Q 57.90625 58.203125 57.90625 53.265625 
Q 57.90625 48.6875 55.421875 44.625 
Q 52.9375 40.578125 47.90625 38.09375 
Q 54.390625 36.1875 57.875 31.59375 
Q 61.375 27 61.375 20.75 
Q 61.375 15.71875 59.25 11.390625 
Q 57.125 7.078125 54 4.734375 
Q 50.875 2.390625 46.15625 1.1875 
Q 41.453125 0 34.625 0 
z
M 16.796875 41.5 
L 32.28125 41.5 
Q 38.578125 41.5 41.3125 42.328125 
Q 44.921875 43.40625 46.75 45.890625 
Q 48.578125 48.390625 48.578125 52.15625 
Q 48.578125 55.71875 46.875 58.421875 
Q 45.171875 61.140625 41.984375 62.140625 
Q 38.8125 63.140625 31.109375 63.140625 
L 16.796875 63.140625 
z
M 16.796875 8.453125 
L 34.625 8.453125 
Q 39.203125 8.453125 41.0625 8.796875 
Q 44.34375 9.375 46.53125 10.734375 
Q 48.734375 12.109375 50.140625 14.71875 
Q 51.5625 17.328125 51.5625 20.75 
Q 51.5625 24.75 49.515625 27.703125 
Q 47.46875 30.671875 43.828125 31.859375 
Q 40.1875 33.0625 33.34375 33.0625 
L 16.796875 33.0625 
z
" id="ArialMT-66"/>
       <path d="M 58.796875 25.09375 
L 68.265625 22.703125 
Q 65.28125 11.03125 57.546875 4.90625 
Q 49.8125 -1.21875 38.625 -1.21875 
Q 27.046875 -1.21875 19.796875 3.484375 
Q 12.546875 8.203125 8.765625 17.140625 
Q 4.984375 26.078125 4.984375 36.328125 
Q 4.984375 47.515625 9.25 55.828125 
Q 13.53125 64.15625 21.40625 68.46875 
Q 29.296875 72.796875 38.765625 72.796875 
Q 49.515625 72.796875 56.828125 67.328125 
Q 64.15625 61.859375 67.046875 51.953125 
L 57.71875 49.75 
Q 55.21875 57.5625 50.484375 61.125 
Q 45.75 64.703125 38.578125 64.703125 
Q 30.328125 64.703125 24.78125 60.734375 
Q 19.234375 56.78125 16.984375 50.109375 
Q 14.75 43.453125 14.75 36.375 
Q 14.75 27.25 17.40625 20.4375 
Q 20.0625 13.625 25.671875 10.25 
Q 31.296875 6.890625 37.84375 6.890625 
Q 45.796875 6.890625 51.3125 11.46875 
Q 56.84375 16.0625 58.796875 25.09375 
z
" id="ArialMT-67"/>
      </defs>
      <use xlink:href="#ArialMT-72"/>
      <use x="72.216797" xlink:href="#ArialMT-66"/>
      <use x="138.916016" xlink:href="#ArialMT-67"/>
     </g>
    </g>
   </g>
   <g id="PathCollection_1">
    <defs>
     <path d="M 0 3 
C 0.795609 3 1.55874 2.683901 2.12132 2.12132 
C 2.683901 1.55874 3 0.795609 3 0 
C 3 -0.795609 2.683901 -1.55874 2.12132 -2.12132 
C 1.55874 -2.683901 0.795609 -3 0 -3 
C -0.795609 -3 -1.55874 -2.683901 -2.12132 -2.12132 
C -2.683901 -1.55874 -3 -0.795609 -3 0 
C -3 0.795609 -2.683901 1.55874 -2.12132 2.12132 
C -1.55874 2.683901 -0.795609 3 0 3 
z
" id="mab5cdfac3f" style="stroke:#4c72b0;stroke-opacity:0.8;"/>
    </defs>
    <g clip-path="url(#pcb9375da83)">
     <use style="fill:#4c72b0;fill-opacity:0.8;stroke:#4c72b0;stroke-opacity:0.8;" x="338.500128" xlink:href="#mab5cdfac3f" y="219.693873"/>
     <use style="fill:#4c72b0;fill-opacity:0.8;stroke:#4c72b0;stroke-opacity:0.8;" x="271.411823" xlink:href="#mab5cdfac3f" y="252.595739"/>
     <use style="fill:#4c72b0;fill-opacity:0.8;stroke:#4c72b0;stroke-opacity:0.8;" x="148.735759" xlink:href="#mab5cdfac3f" y="302.53383"/>
     <use style="fill:#4c72b0;fill-opacity:0.8;stroke:#4c72b0;stroke-opacity:0.8;" x="312.004404" xlink:href="#mab5cdfac3f" y="323.715156"/>
     <use style="fill:#4c72b0;fill-opacity:0.8;stroke:#4c72b0;stroke-opacity:0.8;" x="203.49757" xlink:href="#mab5cdfac3f" y="321.422737"/>
     <use style="fill:#4c72b0;fill-opacity:0.8;stroke:#4c72b0;stroke-opacity:0.8;" x="91.537988" xlink:href="#mab5cdfac3f" y="229.962232"/>
     <use style="fill:#4c72b0;fill-opacity:0.8;stroke:#4c72b0;stroke-opacity:0.8;" x="328.055425" xlink:href="#mab5cdfac3f" y="279.887893"/>
     <use style="fill:#4c72b0;fill-opacity:0.8;stroke:#4c72b0;stroke-opacity:0.8;" x="51.835" xlink:href="#mab5cdfac3f" y="318.184272"/>
     <use style="fill:#4c72b0;fill-opacity:0.8;stroke:#4c72b0;stroke-opacity:0.8;" x="288.140349" xlink:href="#mab5cdfac3f" y="353.902087"/>
     <use style="fill:#4c72b0;fill-opacity:0.8;stroke:#4c72b0;stroke-opacity:0.8;" x="200.54061" xlink:href="#mab5cdfac3f" y="345.317615"/>
     <use style="fill:#4c72b0;fill-opacity:0.8;stroke:#4c72b0;stroke-opacity:0.8;" x="175.040746" xlink:href="#mab5cdfac3f" y="350.180521"/>
     <use style="fill:#4c72b0;fill-opacity:0.8;stroke:#4c72b0;stroke-opacity:0.8;" x="295.213584" xlink:href="#mab5cdfac3f" y="347.934265"/>
     <use style="fill:#4c72b0;fill-opacity:0.8;stroke:#4c72b0;stroke-opacity:0.8;" x="294.120217" xlink:href="#mab5cdfac3f" y="279.472196"/>
     <use style="fill:#4c72b0;fill-opacity:0.8;stroke:#4c72b0;stroke-opacity:0.8;" x="258.418346" xlink:href="#mab5cdfac3f" y="232.453431"/>
     <use style="fill:#4c72b0;fill-opacity:0.8;stroke:#4c72b0;stroke-opacity:0.8;" x="154.242733" xlink:href="#mab5cdfac3f" y="280.790561"/>
     <use style="fill:#4c72b0;fill-opacity:0.8;stroke:#4c72b0;stroke-opacity:0.8;" x="135.453695" xlink:href="#mab5cdfac3f" y="359.523279"/>
     <use style="fill:#4c72b0;fill-opacity:0.8;stroke:#4c72b0;stroke-opacity:0.8;" x="344.896973" xlink:href="#mab5cdfac3f" y="266.800974"/>
     <use style="fill:#4c72b0;fill-opacity:0.8;stroke:#4c72b0;stroke-opacity:0.8;" x="151.905843" xlink:href="#mab5cdfac3f" y="324.735232"/>
     <use style="fill:#4c72b0;fill-opacity:0.8;stroke:#4c72b0;stroke-opacity:0.8;" x="234.289118" xlink:href="#mab5cdfac3f" y="136.266932"/>
     <use style="fill:#4c72b0;fill-opacity:0.8;stroke:#4c72b0;stroke-opacity:0.8;" x="240.835103" xlink:href="#mab5cdfac3f" y="354.920141"/>
     <use style="fill:#4c72b0;fill-opacity:0.8;stroke:#4c72b0;stroke-opacity:0.8;" x="288.892959" xlink:href="#mab5cdfac3f" y="255.97538"/>
     <use style="fill:#4c72b0;fill-opacity:0.8;stroke:#4c72b0;stroke-opacity:0.8;" x="216.750649" xlink:href="#mab5cdfac3f" y="301.300908"/>
     <use style="fill:#4c72b0;fill-opacity:0.8;stroke:#4c72b0;stroke-opacity:0.8;" x="279.328946" xlink:href="#mab5cdfac3f" y="289.722964"/>
     <use style="fill:#4c72b0;fill-opacity:0.8;stroke:#4c72b0;stroke-opacity:0.8;" x="324.387456" xlink:href="#mab5cdfac3f" y="213.681967"/>
     <use style="fill:#4c72b0;fill-opacity:0.8;stroke:#4c72b0;stroke-opacity:0.8;" x="200.57951" xlink:href="#mab5cdfac3f" y="341.353558"/>
     <use style="fill:#4c72b0;fill-opacity:0.8;stroke:#4c72b0;stroke-opacity:0.8;" x="327.981762" xlink:href="#mab5cdfac3f" y="299.919399"/>
     <use style="fill:#4c72b0;fill-opacity:0.8;stroke:#4c72b0;stroke-opacity:0.8;" x="247.85438" xlink:href="#mab5cdfac3f" y="291.893185"/>
     <use style="fill:#4c72b0;fill-opacity:0.8;stroke:#4c72b0;stroke-opacity:0.8;" x="100.71285" xlink:href="#mab5cdfac3f" y="275.293503"/>
     <use style="fill:#4c72b0;fill-opacity:0.8;stroke:#4c72b0;stroke-opacity:0.8;" x="271.950267" xlink:href="#mab5cdfac3f" y="204.749523"/>
     <use style="fill:#4c72b0;fill-opacity:0.8;stroke:#4c72b0;stroke-opacity:0.8;" x="315.583269" xlink:href="#mab5cdfac3f" y="235.346624"/>
     <use style="fill:#4c72b0;fill-opacity:0.8;stroke:#4c72b0;stroke-opacity:0.8;" x="212.461861" xlink:href="#mab5cdfac3f" y="344.346954"/>
     <use style="fill:#4c72b0;fill-opacity:0.8;stroke:#4c72b0;stroke-opacity:0.8;" x="256.101629" xlink:href="#mab5cdfac3f" y="114.424413"/>
     <use style="fill:#4c72b0;fill-opacity:0.8;stroke:#4c72b0;stroke-opacity:0.8;" x="354.17923" xlink:href="#mab5cdfac3f" y="280.452713"/>
     <use style="fill:#4c72b0;fill-opacity:0.8;stroke:#4c72b0;stroke-opacity:0.8;" x="328.319516" xlink:href="#mab5cdfac3f" y="229.33305"/>
     <use style="fill:#4c72b0;fill-opacity:0.8;stroke:#4c72b0;stroke-opacity:0.8;" x="347.623842" xlink:href="#mab5cdfac3f" y="359.412545"/>
     <use style="fill:#4c72b0;fill-opacity:0.8;stroke:#4c72b0;stroke-opacity:0.8;" x="55.186619" xlink:href="#mab5cdfac3f" y="346.607744"/>
     <use style="fill:#4c72b0;fill-opacity:0.8;stroke:#4c72b0;stroke-opacity:0.8;" x="280.741947" xlink:href="#mab5cdfac3f" y="259.18417"/>
     <use style="fill:#4c72b0;fill-opacity:0.8;stroke:#4c72b0;stroke-opacity:0.8;" x="105.612531" xlink:href="#mab5cdfac3f" y="270.627042"/>
     <use style="fill:#4c72b0;fill-opacity:0.8;stroke:#4c72b0;stroke-opacity:0.8;" x="345.686818" xlink:href="#mab5cdfac3f" y="343.978306"/>
     <use style="fill:#4c72b0;fill-opacity:0.8;stroke:#4c72b0;stroke-opacity:0.8;" x="262.697414" xlink:href="#mab5cdfac3f" y="340.72281"/>
     <use style="fill:#4c72b0;fill-opacity:0.8;stroke:#4c72b0;stroke-opacity:0.8;" x="239.90145" xlink:href="#mab5cdfac3f" y="272.510742"/>
     <use style="fill:#4c72b0;fill-opacity:0.8;stroke:#4c72b0;stroke-opacity:0.8;" x="152.875367" xlink:href="#mab5cdfac3f" y="198.563997"/>
     <use style="fill:#4c72b0;fill-opacity:0.8;stroke:#4c72b0;stroke-opacity:0.8;" x="239.739089" xlink:href="#mab5cdfac3f" y="256.598667"/>
     <use style="fill:#4c72b0;fill-opacity:0.8;stroke:#4c72b0;stroke-opacity:0.8;" x="94.817888" xlink:href="#mab5cdfac3f" y="223.428405"/>
     <use style="fill:#4c72b0;fill-opacity:0.8;stroke:#4c72b0;stroke-opacity:0.8;" x="345.376068" xlink:href="#mab5cdfac3f" y="201.076198"/>
     <use style="fill:#4c72b0;fill-opacity:0.8;stroke:#4c72b0;stroke-opacity:0.8;" x="301.044431" xlink:href="#mab5cdfac3f" y="364.694895"/>
     <use style="fill:#4c72b0;fill-opacity:0.8;stroke:#4c72b0;stroke-opacity:0.8;" x="341.737854" xlink:href="#mab5cdfac3f" y="232.89899"/>
     <use style="fill:#4c72b0;fill-opacity:0.8;stroke:#4c72b0;stroke-opacity:0.8;" x="351.487988" xlink:href="#mab5cdfac3f" y="284.677163"/>
     <use style="fill:#4c72b0;fill-opacity:0.8;stroke:#4c72b0;stroke-opacity:0.8;" x="351.894441" xlink:href="#mab5cdfac3f" y="297.190639"/>
     <use style="fill:#4c72b0;fill-opacity:0.8;stroke:#4c72b0;stroke-opacity:0.8;" x="148.609826" xlink:href="#mab5cdfac3f" y="221.417723"/>
     <use style="fill:#4c72b0;fill-opacity:0.8;stroke:#4c72b0;stroke-opacity:0.8;" x="191.675386" xlink:href="#mab5cdfac3f" y="182.004976"/>
     <use style="fill:#4c72b0;fill-opacity:0.8;stroke:#4c72b0;stroke-opacity:0.8;" x="247.670417" xlink:href="#mab5cdfac3f" y="344.859806"/>
     <use style="fill:#4c72b0;fill-opacity:0.8;stroke:#4c72b0;stroke-opacity:0.8;" x="98.097316" xlink:href="#mab5cdfac3f" y="322.642905"/>
     <use style="fill:#4c72b0;fill-opacity:0.8;stroke:#4c72b0;stroke-opacity:0.8;" x="277.158621" xlink:href="#mab5cdfac3f" y="296.202096"/>
     <use style="fill:#4c72b0;fill-opacity:0.8;stroke:#4c72b0;stroke-opacity:0.8;" x="348.331802" xlink:href="#mab5cdfac3f" y="205.229669"/>
     <use style="fill:#4c72b0;fill-opacity:0.8;stroke:#4c72b0;stroke-opacity:0.8;" x="303.543058" xlink:href="#mab5cdfac3f" y="332.995948"/>
     <use style="fill:#4c72b0;fill-opacity:0.8;stroke:#4c72b0;stroke-opacity:0.8;" x="161.043818" xlink:href="#mab5cdfac3f" y="354.764228"/>
     <use style="fill:#4c72b0;fill-opacity:0.8;stroke:#4c72b0;stroke-opacity:0.8;" x="335.81216" xlink:href="#mab5cdfac3f" y="341.507267"/>
     <use style="fill:#4c72b0;fill-opacity:0.8;stroke:#4c72b0;stroke-opacity:0.8;" x="338.616799" xlink:href="#mab5cdfac3f" y="128.720006"/>
     <use style="fill:#4c72b0;fill-opacity:0.8;stroke:#4c72b0;stroke-opacity:0.8;" x="330.917484" xlink:href="#mab5cdfac3f" y="330.681432"/>
     <use style="fill:#4c72b0;fill-opacity:0.8;stroke:#4c72b0;stroke-opacity:0.8;" x="261.162941" xlink:href="#mab5cdfac3f" y="262.352068"/>
     <use style="fill:#4c72b0;fill-opacity:0.8;stroke:#4c72b0;stroke-opacity:0.8;" x="209.624394" xlink:href="#mab5cdfac3f" y="252.809483"/>
     <use style="fill:#4c72b0;fill-opacity:0.8;stroke:#4c72b0;stroke-opacity:0.8;" x="355.015617" xlink:href="#mab5cdfac3f" y="240.491579"/>
     <use style="fill:#4c72b0;fill-opacity:0.8;stroke:#4c72b0;stroke-opacity:0.8;" x="63.727141" xlink:href="#mab5cdfac3f" y="341.078603"/>
     <use style="fill:#4c72b0;fill-opacity:0.8;stroke:#4c72b0;stroke-opacity:0.8;" x="119.391036" xlink:href="#mab5cdfac3f" y="211.009643"/>
     <use style="fill:#4c72b0;fill-opacity:0.8;stroke:#4c72b0;stroke-opacity:0.8;" x="255.28121" xlink:href="#mab5cdfac3f" y="207.040245"/>
     <use style="fill:#4c72b0;fill-opacity:0.8;stroke:#4c72b0;stroke-opacity:0.8;" x="296.580513" xlink:href="#mab5cdfac3f" y="239.94709"/>
     <use style="fill:#4c72b0;fill-opacity:0.8;stroke:#4c72b0;stroke-opacity:0.8;" x="295.640847" xlink:href="#mab5cdfac3f" y="287.619495"/>
     <use style="fill:#4c72b0;fill-opacity:0.8;stroke:#4c72b0;stroke-opacity:0.8;" x="301.047815" xlink:href="#mab5cdfac3f" y="202.994434"/>
     <use style="fill:#4c72b0;fill-opacity:0.8;stroke:#4c72b0;stroke-opacity:0.8;" x="334.210045" xlink:href="#mab5cdfac3f" y="348.495572"/>
     <use style="fill:#4c72b0;fill-opacity:0.8;stroke:#4c72b0;stroke-opacity:0.8;" x="247.110629" xlink:href="#mab5cdfac3f" y="270.73484"/>
     <use style="fill:#4c72b0;fill-opacity:0.8;stroke:#4c72b0;stroke-opacity:0.8;" x="344.212943" xlink:href="#mab5cdfac3f" y="208.297"/>
     <use style="fill:#4c72b0;fill-opacity:0.8;stroke:#4c72b0;stroke-opacity:0.8;" x="334.961502" xlink:href="#mab5cdfac3f" y="176.239073"/>
     <use style="fill:#4c72b0;fill-opacity:0.8;stroke:#4c72b0;stroke-opacity:0.8;" x="140.94558" xlink:href="#mab5cdfac3f" y="247.9122"/>
     <use style="fill:#4c72b0;fill-opacity:0.8;stroke:#4c72b0;stroke-opacity:0.8;" x="162.442056" xlink:href="#mab5cdfac3f" y="327.098076"/>
     <use style="fill:#4c72b0;fill-opacity:0.8;stroke:#4c72b0;stroke-opacity:0.8;" x="162.920518" xlink:href="#mab5cdfac3f" y="201.508292"/>
     <use style="fill:#4c72b0;fill-opacity:0.8;stroke:#4c72b0;stroke-opacity:0.8;" x="131.947813" xlink:href="#mab5cdfac3f" y="326.104852"/>
     <use style="fill:#4c72b0;fill-opacity:0.8;stroke:#4c72b0;stroke-opacity:0.8;" x="262.628069" xlink:href="#mab5cdfac3f" y="357.645565"/>
     <use style="fill:#4c72b0;fill-opacity:0.8;stroke:#4c72b0;stroke-opacity:0.8;" x="310.106702" xlink:href="#mab5cdfac3f" y="341.010095"/>
     <use style="fill:#4c72b0;fill-opacity:0.8;stroke:#4c72b0;stroke-opacity:0.8;" x="272.156088" xlink:href="#mab5cdfac3f" y="360.156351"/>
     <use style="fill:#4c72b0;fill-opacity:0.8;stroke:#4c72b0;stroke-opacity:0.8;" x="92.474242" xlink:href="#mab5cdfac3f" y="183.552064"/>
     <use style="fill:#4c72b0;fill-opacity:0.8;stroke:#4c72b0;stroke-opacity:0.8;" x="331.223474" xlink:href="#mab5cdfac3f" y="227.024519"/>
     <use style="fill:#4c72b0;fill-opacity:0.8;stroke:#4c72b0;stroke-opacity:0.8;" x="142.036629" xlink:href="#mab5cdfac3f" y="331.210153"/>
     <use style="fill:#4c72b0;fill-opacity:0.8;stroke:#4c72b0;stroke-opacity:0.8;" x="264.578076" xlink:href="#mab5cdfac3f" y="257.755747"/>
     <use style="fill:#4c72b0;fill-opacity:0.8;stroke:#4c72b0;stroke-opacity:0.8;" x="102.708575" xlink:href="#mab5cdfac3f" y="336.129197"/>
     <use style="fill:#4c72b0;fill-opacity:0.8;stroke:#4c72b0;stroke-opacity:0.8;" x="348.324741" xlink:href="#mab5cdfac3f" y="349.876135"/>
     <use style="fill:#4c72b0;fill-opacity:0.8;stroke:#4c72b0;stroke-opacity:0.8;" x="356.090571" xlink:href="#mab5cdfac3f" y="351.208444"/>
     <use style="fill:#4c72b0;fill-opacity:0.8;stroke:#4c72b0;stroke-opacity:0.8;" x="274.693566" xlink:href="#mab5cdfac3f" y="245.663463"/>
     <use style="fill:#4c72b0;fill-opacity:0.8;stroke:#4c72b0;stroke-opacity:0.8;" x="335.465479" xlink:href="#mab5cdfac3f" y="286.270756"/>
     <use style="fill:#4c72b0;fill-opacity:0.8;stroke:#4c72b0;stroke-opacity:0.8;" x="198.062331" xlink:href="#mab5cdfac3f" y="272.989941"/>
     <use style="fill:#4c72b0;fill-opacity:0.8;stroke:#4c72b0;stroke-opacity:0.8;" x="300.964602" xlink:href="#mab5cdfac3f" y="336.991379"/>
     <use style="fill:#4c72b0;fill-opacity:0.8;stroke:#4c72b0;stroke-opacity:0.8;" x="349.918232" xlink:href="#mab5cdfac3f" y="174.276199"/>
     <use style="fill:#4c72b0;fill-opacity:0.8;stroke:#4c72b0;stroke-opacity:0.8;" x="162.69254" xlink:href="#mab5cdfac3f" y="308.864126"/>
     <use style="fill:#4c72b0;fill-opacity:0.8;stroke:#4c72b0;stroke-opacity:0.8;" x="164.918351" xlink:href="#mab5cdfac3f" y="282.002143"/>
     <use style="fill:#4c72b0;fill-opacity:0.8;stroke:#4c72b0;stroke-opacity:0.8;" x="240.337982" xlink:href="#mab5cdfac3f" y="203.079086"/>
     <use style="fill:#4c72b0;fill-opacity:0.8;stroke:#4c72b0;stroke-opacity:0.8;" x="130.663123" xlink:href="#mab5cdfac3f" y="171.413771"/>
     <use style="fill:#4c72b0;fill-opacity:0.8;stroke:#4c72b0;stroke-opacity:0.8;" x="340.202818" xlink:href="#mab5cdfac3f" y="346.738566"/>
     <use style="fill:#4c72b0;fill-opacity:0.8;stroke:#4c72b0;stroke-opacity:0.8;" x="234.912224" xlink:href="#mab5cdfac3f" y="313.882534"/>
     <use style="fill:#4c72b0;fill-opacity:0.8;stroke:#4c72b0;stroke-opacity:0.8;" x="354.692605" xlink:href="#mab5cdfac3f" y="308.719918"/>
     <use style="fill:#4c72b0;fill-opacity:0.8;stroke:#4c72b0;stroke-opacity:0.8;" x="347.415583" xlink:href="#mab5cdfac3f" y="270.322289"/>
     <use style="fill:#4c72b0;fill-opacity:0.8;stroke:#4c72b0;stroke-opacity:0.8;" x="348.0943" xlink:href="#mab5cdfac3f" y="285.844347"/>
     <use style="fill:#4c72b0;fill-opacity:0.8;stroke:#4c72b0;stroke-opacity:0.8;" x="157.633313" xlink:href="#mab5cdfac3f" y="332.702398"/>
     <use style="fill:#4c72b0;fill-opacity:0.8;stroke:#4c72b0;stroke-opacity:0.8;" x="333.396618" xlink:href="#mab5cdfac3f" y="347.229236"/>
     <use style="fill:#4c72b0;fill-opacity:0.8;stroke:#4c72b0;stroke-opacity:0.8;" x="176.105738" xlink:href="#mab5cdfac3f" y="297.370063"/>
     <use style="fill:#4c72b0;fill-opacity:0.8;stroke:#4c72b0;stroke-opacity:0.8;" x="179.364113" xlink:href="#mab5cdfac3f" y="355.345611"/>
     <use style="fill:#4c72b0;fill-opacity:0.8;stroke:#4c72b0;stroke-opacity:0.8;" x="251.742124" xlink:href="#mab5cdfac3f" y="320.152846"/>
     <use style="fill:#4c72b0;fill-opacity:0.8;stroke:#4c72b0;stroke-opacity:0.8;" x="243.566373" xlink:href="#mab5cdfac3f" y="127.080947"/>
     <use style="fill:#4c72b0;fill-opacity:0.8;stroke:#4c72b0;stroke-opacity:0.8;" x="282.883981" xlink:href="#mab5cdfac3f" y="255.030505"/>
     <use style="fill:#4c72b0;fill-opacity:0.8;stroke:#4c72b0;stroke-opacity:0.8;" x="240.727845" xlink:href="#mab5cdfac3f" y="240.80022"/>
     <use style="fill:#4c72b0;fill-opacity:0.8;stroke:#4c72b0;stroke-opacity:0.8;" x="342.904303" xlink:href="#mab5cdfac3f" y="319.15497"/>
     <use style="fill:#4c72b0;fill-opacity:0.8;stroke:#4c72b0;stroke-opacity:0.8;" x="213.090368" xlink:href="#mab5cdfac3f" y="332.814044"/>
     <use style="fill:#4c72b0;fill-opacity:0.8;stroke:#4c72b0;stroke-opacity:0.8;" x="164.234871" xlink:href="#mab5cdfac3f" y="300.388929"/>
     <use style="fill:#4c72b0;fill-opacity:0.8;stroke:#4c72b0;stroke-opacity:0.8;" x="343.712548" xlink:href="#mab5cdfac3f" y="274.599794"/>
     <use style="fill:#4c72b0;fill-opacity:0.8;stroke:#4c72b0;stroke-opacity:0.8;" x="294.817092" xlink:href="#mab5cdfac3f" y="191.12192"/>
     <use style="fill:#4c72b0;fill-opacity:0.8;stroke:#4c72b0;stroke-opacity:0.8;" x="344.209983" xlink:href="#mab5cdfac3f" y="353.969045"/>
     <use style="fill:#4c72b0;fill-opacity:0.8;stroke:#4c72b0;stroke-opacity:0.8;" x="319.130487" xlink:href="#mab5cdfac3f" y="275.901914"/>
     <use style="fill:#4c72b0;fill-opacity:0.8;stroke:#4c72b0;stroke-opacity:0.8;" x="329.714746" xlink:href="#mab5cdfac3f" y="148.812841"/>
     <use style="fill:#4c72b0;fill-opacity:0.8;stroke:#4c72b0;stroke-opacity:0.8;" x="211.880445" xlink:href="#mab5cdfac3f" y="250.271078"/>
     <use style="fill:#4c72b0;fill-opacity:0.8;stroke:#4c72b0;stroke-opacity:0.8;" x="221.547235" xlink:href="#mab5cdfac3f" y="277.55998"/>
     <use style="fill:#4c72b0;fill-opacity:0.8;stroke:#4c72b0;stroke-opacity:0.8;" x="195.257944" xlink:href="#mab5cdfac3f" y="222.35352"/>
     <use style="fill:#4c72b0;fill-opacity:0.8;stroke:#4c72b0;stroke-opacity:0.8;" x="294.821341" xlink:href="#mab5cdfac3f" y="208.309678"/>
     <use style="fill:#4c72b0;fill-opacity:0.8;stroke:#4c72b0;stroke-opacity:0.8;" x="319.000619" xlink:href="#mab5cdfac3f" y="237.625444"/>
     <use style="fill:#4c72b0;fill-opacity:0.8;stroke:#4c72b0;stroke-opacity:0.8;" x="226.417428" xlink:href="#mab5cdfac3f" y="324.740474"/>
     <use style="fill:#4c72b0;fill-opacity:0.8;stroke:#4c72b0;stroke-opacity:0.8;" x="254.428226" xlink:href="#mab5cdfac3f" y="272.740211"/>
     <use style="fill:#4c72b0;fill-opacity:0.8;stroke:#4c72b0;stroke-opacity:0.8;" x="96.741802" xlink:href="#mab5cdfac3f" y="322.729614"/>
     <use style="fill:#4c72b0;fill-opacity:0.8;stroke:#4c72b0;stroke-opacity:0.8;" x="325.068955" xlink:href="#mab5cdfac3f" y="320.426603"/>
     <use style="fill:#4c72b0;fill-opacity:0.8;stroke:#4c72b0;stroke-opacity:0.8;" x="260.659082" xlink:href="#mab5cdfac3f" y="324.773213"/>
     <use style="fill:#4c72b0;fill-opacity:0.8;stroke:#4c72b0;stroke-opacity:0.8;" x="336.286108" xlink:href="#mab5cdfac3f" y="286.625546"/>
     <use style="fill:#4c72b0;fill-opacity:0.8;stroke:#4c72b0;stroke-opacity:0.8;" x="246.741034" xlink:href="#mab5cdfac3f" y="332.973493"/>
     <use style="fill:#4c72b0;fill-opacity:0.8;stroke:#4c72b0;stroke-opacity:0.8;" x="332.942646" xlink:href="#mab5cdfac3f" y="201.413602"/>
     <use style="fill:#4c72b0;fill-opacity:0.8;stroke:#4c72b0;stroke-opacity:0.8;" x="155.5942" xlink:href="#mab5cdfac3f" y="260.960739"/>
     <use style="fill:#4c72b0;fill-opacity:0.8;stroke:#4c72b0;stroke-opacity:0.8;" x="350.570836" xlink:href="#mab5cdfac3f" y="292.697492"/>
     <use style="fill:#4c72b0;fill-opacity:0.8;stroke:#4c72b0;stroke-opacity:0.8;" x="107.358771" xlink:href="#mab5cdfac3f" y="329.261419"/>
     <use style="fill:#4c72b0;fill-opacity:0.8;stroke:#4c72b0;stroke-opacity:0.8;" x="351.372652" xlink:href="#mab5cdfac3f" y="320.880267"/>
     <use style="fill:#4c72b0;fill-opacity:0.8;stroke:#4c72b0;stroke-opacity:0.8;" x="287.466203" xlink:href="#mab5cdfac3f" y="246.437667"/>
     <use style="fill:#4c72b0;fill-opacity:0.8;stroke:#4c72b0;stroke-opacity:0.8;" x="320.618737" xlink:href="#mab5cdfac3f" y="251.425743"/>
     <use style="fill:#4c72b0;fill-opacity:0.8;stroke:#4c72b0;stroke-opacity:0.8;" x="144.200782" xlink:href="#mab5cdfac3f" y="351.954484"/>
     <use style="fill:#4c72b0;fill-opacity:0.8;stroke:#4c72b0;stroke-opacity:0.8;" x="209.747529" xlink:href="#mab5cdfac3f" y="135.465435"/>
     <use style="fill:#4c72b0;fill-opacity:0.8;stroke:#4c72b0;stroke-opacity:0.8;" x="117.509845" xlink:href="#mab5cdfac3f" y="198.833912"/>
     <use style="fill:#4c72b0;fill-opacity:0.8;stroke:#4c72b0;stroke-opacity:0.8;" x="350.563207" xlink:href="#mab5cdfac3f" y="346.459297"/>
     <use style="fill:#4c72b0;fill-opacity:0.8;stroke:#4c72b0;stroke-opacity:0.8;" x="355.237803" xlink:href="#mab5cdfac3f" y="261.899361"/>
     <use style="fill:#4c72b0;fill-opacity:0.8;stroke:#4c72b0;stroke-opacity:0.8;" x="236.9711" xlink:href="#mab5cdfac3f" y="333.97488"/>
     <use style="fill:#4c72b0;fill-opacity:0.8;stroke:#4c72b0;stroke-opacity:0.8;" x="336.539251" xlink:href="#mab5cdfac3f" y="308.724851"/>
     <use style="fill:#4c72b0;fill-opacity:0.8;stroke:#4c72b0;stroke-opacity:0.8;" x="229.081919" xlink:href="#mab5cdfac3f" y="353.049567"/>
     <use style="fill:#4c72b0;fill-opacity:0.8;stroke:#4c72b0;stroke-opacity:0.8;" x="307.764902" xlink:href="#mab5cdfac3f" y="265.751224"/>
     <use style="fill:#4c72b0;fill-opacity:0.8;stroke:#4c72b0;stroke-opacity:0.8;" x="228.395018" xlink:href="#mab5cdfac3f" y="350.629729"/>
     <use style="fill:#4c72b0;fill-opacity:0.8;stroke:#4c72b0;stroke-opacity:0.8;" x="346.944209" xlink:href="#mab5cdfac3f" y="90.863091"/>
     <use style="fill:#4c72b0;fill-opacity:0.8;stroke:#4c72b0;stroke-opacity:0.8;" x="333.631592" xlink:href="#mab5cdfac3f" y="313.55471"/>
     <use style="fill:#4c72b0;fill-opacity:0.8;stroke:#4c72b0;stroke-opacity:0.8;" x="342.116168" xlink:href="#mab5cdfac3f" y="272.302442"/>
     <use style="fill:#4c72b0;fill-opacity:0.8;stroke:#4c72b0;stroke-opacity:0.8;" x="183.494544" xlink:href="#mab5cdfac3f" y="337.875619"/>
     <use style="fill:#4c72b0;fill-opacity:0.8;stroke:#4c72b0;stroke-opacity:0.8;" x="287.615729" xlink:href="#mab5cdfac3f" y="301.780711"/>
     <use style="fill:#4c72b0;fill-opacity:0.8;stroke:#4c72b0;stroke-opacity:0.8;" x="329.126889" xlink:href="#mab5cdfac3f" y="234.630781"/>
     <use style="fill:#4c72b0;fill-opacity:0.8;stroke:#4c72b0;stroke-opacity:0.8;" x="86.858084" xlink:href="#mab5cdfac3f" y="351.68261"/>
     <use style="fill:#4c72b0;fill-opacity:0.8;stroke:#4c72b0;stroke-opacity:0.8;" x="338.116409" xlink:href="#mab5cdfac3f" y="300.242018"/>
     <use style="fill:#4c72b0;fill-opacity:0.8;stroke:#4c72b0;stroke-opacity:0.8;" x="335.708274" xlink:href="#mab5cdfac3f" y="371.507766"/>
     <use style="fill:#4c72b0;fill-opacity:0.8;stroke:#4c72b0;stroke-opacity:0.8;" x="342.547799" xlink:href="#mab5cdfac3f" y="360.478694"/>
     <use style="fill:#4c72b0;fill-opacity:0.8;stroke:#4c72b0;stroke-opacity:0.8;" x="296.359088" xlink:href="#mab5cdfac3f" y="273.27291"/>
     <use style="fill:#4c72b0;fill-opacity:0.8;stroke:#4c72b0;stroke-opacity:0.8;" x="205.92556" xlink:href="#mab5cdfac3f" y="261.099814"/>
     <use style="fill:#4c72b0;fill-opacity:0.8;stroke:#4c72b0;stroke-opacity:0.8;" x="331.453885" xlink:href="#mab5cdfac3f" y="216.941093"/>
     <use style="fill:#4c72b0;fill-opacity:0.8;stroke:#4c72b0;stroke-opacity:0.8;" x="291.846584" xlink:href="#mab5cdfac3f" y="244.222829"/>
     <use style="fill:#4c72b0;fill-opacity:0.8;stroke:#4c72b0;stroke-opacity:0.8;" x="319.868303" xlink:href="#mab5cdfac3f" y="294.902392"/>
     <use style="fill:#4c72b0;fill-opacity:0.8;stroke:#4c72b0;stroke-opacity:0.8;" x="306.59632" xlink:href="#mab5cdfac3f" y="307.694641"/>
     <use style="fill:#4c72b0;fill-opacity:0.8;stroke:#4c72b0;stroke-opacity:0.8;" x="335.839303" xlink:href="#mab5cdfac3f" y="282.527781"/>
     <use style="fill:#4c72b0;fill-opacity:0.8;stroke:#4c72b0;stroke-opacity:0.8;" x="314.79429" xlink:href="#mab5cdfac3f" y="152.647342"/>
     <use style="fill:#4c72b0;fill-opacity:0.8;stroke:#4c72b0;stroke-opacity:0.8;" x="135.657533" xlink:href="#mab5cdfac3f" y="191.73304"/>
     <use style="fill:#4c72b0;fill-opacity:0.8;stroke:#4c72b0;stroke-opacity:0.8;" x="298.044975" xlink:href="#mab5cdfac3f" y="261.257933"/>
     <use style="fill:#4c72b0;fill-opacity:0.8;stroke:#4c72b0;stroke-opacity:0.8;" x="151.558872" xlink:href="#mab5cdfac3f" y="318.054359"/>
     <use style="fill:#4c72b0;fill-opacity:0.8;stroke:#4c72b0;stroke-opacity:0.8;" x="334.436943" xlink:href="#mab5cdfac3f" y="262.312495"/>
     <use style="fill:#4c72b0;fill-opacity:0.8;stroke:#4c72b0;stroke-opacity:0.8;" x="163.06388" xlink:href="#mab5cdfac3f" y="295.192542"/>
     <use style="fill:#4c72b0;fill-opacity:0.8;stroke:#4c72b0;stroke-opacity:0.8;" x="288.244209" xlink:href="#mab5cdfac3f" y="298.562674"/>
     <use style="fill:#4c72b0;fill-opacity:0.8;stroke:#4c72b0;stroke-opacity:0.8;" x="231.846589" xlink:href="#mab5cdfac3f" y="162.002962"/>
     <use style="fill:#4c72b0;fill-opacity:0.8;stroke:#4c72b0;stroke-opacity:0.8;" x="312.748697" xlink:href="#mab5cdfac3f" y="250.793269"/>
     <use style="fill:#4c72b0;fill-opacity:0.8;stroke:#4c72b0;stroke-opacity:0.8;" x="227.588654" xlink:href="#mab5cdfac3f" y="331.556114"/>
     <use style="fill:#4c72b0;fill-opacity:0.8;stroke:#4c72b0;stroke-opacity:0.8;" x="233.714589" xlink:href="#mab5cdfac3f" y="239.053057"/>
     <use style="fill:#4c72b0;fill-opacity:0.8;stroke:#4c72b0;stroke-opacity:0.8;" x="106.970257" xlink:href="#mab5cdfac3f" y="223.56621"/>
     <use style="fill:#4c72b0;fill-opacity:0.8;stroke:#4c72b0;stroke-opacity:0.8;" x="351.41071" xlink:href="#mab5cdfac3f" y="209.018357"/>
     <use style="fill:#4c72b0;fill-opacity:0.8;stroke:#4c72b0;stroke-opacity:0.8;" x="320.854368" xlink:href="#mab5cdfac3f" y="333.674516"/>
     <use style="fill:#4c72b0;fill-opacity:0.8;stroke:#4c72b0;stroke-opacity:0.8;" x="335.708274" xlink:href="#mab5cdfac3f" y="371.507766"/>
     <use style="fill:#4c72b0;fill-opacity:0.8;stroke:#4c72b0;stroke-opacity:0.8;" x="296.976484" xlink:href="#mab5cdfac3f" y="231.089102"/>
     <use style="fill:#4c72b0;fill-opacity:0.8;stroke:#4c72b0;stroke-opacity:0.8;" x="105.713277" xlink:href="#mab5cdfac3f" y="349.692988"/>
     <use style="fill:#4c72b0;fill-opacity:0.8;stroke:#4c72b0;stroke-opacity:0.8;" x="346.417271" xlink:href="#mab5cdfac3f" y="348.859056"/>
     <use style="fill:#4c72b0;fill-opacity:0.8;stroke:#4c72b0;stroke-opacity:0.8;" x="212.531235" xlink:href="#mab5cdfac3f" y="252.723004"/>
     <use style="fill:#4c72b0;fill-opacity:0.8;stroke:#4c72b0;stroke-opacity:0.8;" x="296.33069" xlink:href="#mab5cdfac3f" y="327.129949"/>
     <use style="fill:#4c72b0;fill-opacity:0.8;stroke:#4c72b0;stroke-opacity:0.8;" x="327.396012" xlink:href="#mab5cdfac3f" y="346.370027"/>
     <use style="fill:#4c72b0;fill-opacity:0.8;stroke:#4c72b0;stroke-opacity:0.8;" x="256.266056" xlink:href="#mab5cdfac3f" y="286.530056"/>
     <use style="fill:#4c72b0;fill-opacity:0.8;stroke:#4c72b0;stroke-opacity:0.8;" x="144.185737" xlink:href="#mab5cdfac3f" y="349.563763"/>
     <use style="fill:#4c72b0;fill-opacity:0.8;stroke:#4c72b0;stroke-opacity:0.8;" x="228.366529" xlink:href="#mab5cdfac3f" y="330.310887"/>
     <use style="fill:#4c72b0;fill-opacity:0.8;stroke:#4c72b0;stroke-opacity:0.8;" x="338.891026" xlink:href="#mab5cdfac3f" y="336.679845"/>
     <use style="fill:#4c72b0;fill-opacity:0.8;stroke:#4c72b0;stroke-opacity:0.8;" x="347.643613" xlink:href="#mab5cdfac3f" y="256.881327"/>
     <use style="fill:#4c72b0;fill-opacity:0.8;stroke:#4c72b0;stroke-opacity:0.8;" x="331.210109" xlink:href="#mab5cdfac3f" y="351.822471"/>
     <use style="fill:#4c72b0;fill-opacity:0.8;stroke:#4c72b0;stroke-opacity:0.8;" x="261.977978" xlink:href="#mab5cdfac3f" y="284.071148"/>
     <use style="fill:#4c72b0;fill-opacity:0.8;stroke:#4c72b0;stroke-opacity:0.8;" x="260.061424" xlink:href="#mab5cdfac3f" y="242.039696"/>
     <use style="fill:#4c72b0;fill-opacity:0.8;stroke:#4c72b0;stroke-opacity:0.8;" x="145.072478" xlink:href="#mab5cdfac3f" y="351.556899"/>
     <use style="fill:#4c72b0;fill-opacity:0.8;stroke:#4c72b0;stroke-opacity:0.8;" x="331.515595" xlink:href="#mab5cdfac3f" y="260.579498"/>
     <use style="fill:#4c72b0;fill-opacity:0.8;stroke:#4c72b0;stroke-opacity:0.8;" x="184.713707" xlink:href="#mab5cdfac3f" y="321.426053"/>
     <use style="fill:#4c72b0;fill-opacity:0.8;stroke:#4c72b0;stroke-opacity:0.8;" x="234.356498" xlink:href="#mab5cdfac3f" y="323.716849"/>
     <use style="fill:#4c72b0;fill-opacity:0.8;stroke:#4c72b0;stroke-opacity:0.8;" x="197.733295" xlink:href="#mab5cdfac3f" y="200.331551"/>
     <use style="fill:#4c72b0;fill-opacity:0.8;stroke:#4c72b0;stroke-opacity:0.8;" x="308.139789" xlink:href="#mab5cdfac3f" y="249.055491"/>
     <use style="fill:#4c72b0;fill-opacity:0.8;stroke:#4c72b0;stroke-opacity:0.8;" x="345.059447" xlink:href="#mab5cdfac3f" y="361.159476"/>
     <use style="fill:#4c72b0;fill-opacity:0.8;stroke:#4c72b0;stroke-opacity:0.8;" x="221.977647" xlink:href="#mab5cdfac3f" y="325.304358"/>
     <use style="fill:#4c72b0;fill-opacity:0.8;stroke:#4c72b0;stroke-opacity:0.8;" x="217.210247" xlink:href="#mab5cdfac3f" y="297.888933"/>
     <use style="fill:#4c72b0;fill-opacity:0.8;stroke:#4c72b0;stroke-opacity:0.8;" x="174.267831" xlink:href="#mab5cdfac3f" y="250.600726"/>
     <use style="fill:#4c72b0;fill-opacity:0.8;stroke:#4c72b0;stroke-opacity:0.8;" x="199.230346" xlink:href="#mab5cdfac3f" y="275.601086"/>
     <use style="fill:#4c72b0;fill-opacity:0.8;stroke:#4c72b0;stroke-opacity:0.8;" x="295.206317" xlink:href="#mab5cdfac3f" y="320.990932"/>
     <use style="fill:#4c72b0;fill-opacity:0.8;stroke:#4c72b0;stroke-opacity:0.8;" x="183.099096" xlink:href="#mab5cdfac3f" y="246.687611"/>
     <use style="fill:#4c72b0;fill-opacity:0.8;stroke:#4c72b0;stroke-opacity:0.8;" x="303.371136" xlink:href="#mab5cdfac3f" y="322.642562"/>
     <use style="fill:#4c72b0;fill-opacity:0.8;stroke:#4c72b0;stroke-opacity:0.8;" x="302.478852" xlink:href="#mab5cdfac3f" y="281.570696"/>
     <use style="fill:#4c72b0;fill-opacity:0.8;stroke:#4c72b0;stroke-opacity:0.8;" x="320.342976" xlink:href="#mab5cdfac3f" y="325.166765"/>
     <use style="fill:#4c72b0;fill-opacity:0.8;stroke:#4c72b0;stroke-opacity:0.8;" x="160.224478" xlink:href="#mab5cdfac3f" y="194.903099"/>
    </g>
   </g>
   <g id="PolyCollection_1">
    <defs>
     <path d="M 51.835 -168.384255 
L 51.835 -124.335099 
L 54.908289 -124.782656 
L 57.981577 -125.119031 
L 61.054866 -125.465066 
L 64.128154 -125.874374 
L 67.201443 -126.283682 
L 70.274732 -126.498846 
L 73.34802 -126.790111 
L 76.421309 -127.125289 
L 79.494597 -127.461647 
L 82.567886 -127.814928 
L 85.641175 -128.186998 
L 88.714463 -128.568029 
L 91.787752 -128.949061 
L 94.86104 -129.330737 
L 97.934329 -129.712911 
L 101.007618 -130.095585 
L 104.080906 -130.478809 
L 107.154195 -130.862033 
L 110.227483 -131.233215 
L 113.300772 -131.596085 
L 116.374061 -132.008302 
L 119.447349 -132.389485 
L 122.520638 -132.770667 
L 125.593926 -133.109247 
L 128.667215 -133.341704 
L 131.740504 -133.719464 
L 134.813792 -133.989543 
L 137.887081 -134.349989 
L 140.960369 -134.791406 
L 144.033658 -135.232824 
L 147.106947 -135.544235 
L 150.180235 -135.810679 
L 153.253524 -136.09848 
L 156.326812 -136.438312 
L 159.400101 -136.989561 
L 162.47339 -137.356881 
L 165.546678 -137.508087 
L 168.619967 -137.93024 
L 171.693255 -138.081569 
L 174.766544 -138.373334 
L 177.839833 -138.56009 
L 180.913121 -138.783007 
L 183.98641 -139.03632 
L 187.059698 -139.277467 
L 190.132987 -139.48635 
L 193.206276 -139.757039 
L 196.279564 -139.996053 
L 199.352853 -140.215118 
L 202.426141 -140.476686 
L 205.49943 -140.769788 
L 208.572719 -140.991195 
L 211.646007 -141.195418 
L 214.719296 -141.406957 
L 217.792584 -141.4891 
L 220.865873 -141.667652 
L 223.939162 -141.794244 
L 227.01245 -141.816391 
L 230.085739 -141.859467 
L 233.159027 -142.114768 
L 236.232316 -142.225986 
L 239.305605 -142.314845 
L 242.378893 -142.441539 
L 245.452182 -142.549133 
L 248.52547 -142.682738 
L 251.598759 -142.80371 
L 254.672048 -142.877746 
L 257.745336 -142.975906 
L 260.818625 -143.172312 
L 263.891913 -143.274214 
L 266.965202 -143.320496 
L 270.038491 -143.408378 
L 273.111779 -143.503586 
L 276.185068 -143.598828 
L 279.258356 -143.518511 
L 282.331645 -143.60781 
L 285.404934 -143.568024 
L 288.478222 -143.50222 
L 291.551511 -143.469475 
L 294.624799 -143.548091 
L 297.698088 -143.391697 
L 300.771377 -143.514146 
L 303.844665 -143.640799 
L 306.917954 -143.690386 
L 309.991242 -143.66529 
L 313.064531 -143.648639 
L 316.13782 -143.591709 
L 319.211108 -143.55889 
L 322.284397 -143.552189 
L 325.357685 -143.44758 
L 328.430974 -143.391212 
L 331.504263 -143.330203 
L 334.577551 -143.214734 
L 337.65084 -143.142742 
L 340.724128 -142.912295 
L 343.797417 -142.779789 
L 346.870706 -142.692889 
L 349.943994 -142.607097 
L 353.017283 -142.469572 
L 356.090571 -142.432552 
L 356.090571 -167.451259 
L 356.090571 -167.451259 
L 353.017283 -167.13465 
L 349.943994 -166.855976 
L 346.870706 -166.604356 
L 343.797417 -166.300605 
L 340.724128 -165.960653 
L 337.65084 -165.627081 
L 334.577551 -165.29701 
L 331.504263 -164.967449 
L 328.430974 -164.713073 
L 325.357685 -164.479482 
L 322.284397 -164.242692 
L 319.211108 -164.004385 
L 316.13782 -163.753751 
L 313.064531 -163.424915 
L 309.991242 -163.054912 
L 306.917954 -162.893427 
L 303.844665 -162.731943 
L 300.771377 -162.570459 
L 297.698088 -162.087926 
L 294.624799 -161.717467 
L 291.551511 -161.452742 
L 288.478222 -161.135546 
L 285.404934 -160.978306 
L 282.331645 -160.802504 
L 279.258356 -160.743503 
L 276.185068 -160.545671 
L 273.111779 -160.317711 
L 270.038491 -160.172619 
L 266.965202 -159.860472 
L 263.891913 -159.900161 
L 260.818625 -159.631297 
L 257.745336 -159.420642 
L 254.672048 -159.209378 
L 251.598759 -159.172772 
L 248.52547 -159.210811 
L 245.452182 -159.071429 
L 242.378893 -159.133409 
L 239.305605 -159.161551 
L 236.232316 -159.095032 
L 233.159027 -159.058859 
L 230.085739 -159.081965 
L 227.01245 -159.117083 
L 223.939162 -159.082936 
L 220.865873 -159.197741 
L 217.792584 -159.193036 
L 214.719296 -159.298757 
L 211.646007 -159.337137 
L 208.572719 -159.375517 
L 205.49943 -159.509477 
L 202.426141 -159.690613 
L 199.352853 -159.615526 
L 196.279564 -159.636487 
L 193.206276 -159.822225 
L 190.132987 -160.007962 
L 187.059698 -160.052647 
L 183.98641 -160.10131 
L 180.913121 -160.134716 
L 177.839833 -160.329448 
L 174.766544 -160.624143 
L 171.693255 -160.769875 
L 168.619967 -160.846694 
L 165.546678 -161.088227 
L 162.47339 -161.365131 
L 159.400101 -161.639148 
L 156.326812 -161.776941 
L 153.253524 -161.817181 
L 150.180235 -161.9484 
L 147.106947 -162.096791 
L 144.033658 -162.256737 
L 140.960369 -162.505445 
L 137.887081 -162.75628 
L 134.813792 -162.944979 
L 131.740504 -163.075845 
L 128.667215 -163.199938 
L 125.593926 -163.415149 
L 122.520638 -163.627588 
L 119.447349 -163.840426 
L 116.374061 -163.939951 
L 113.300772 -164.212172 
L 110.227483 -164.485962 
L 107.154195 -164.702496 
L 104.080906 -164.916597 
L 101.007618 -165.104866 
L 97.934329 -165.277583 
L 94.86104 -165.450299 
L 91.787752 -165.699745 
L 88.714463 -165.979382 
L 85.641175 -166.208655 
L 82.567886 -166.424917 
L 79.494597 -166.63938 
L 76.421309 -166.853843 
L 73.34802 -167.068306 
L 70.274732 -167.263295 
L 67.201443 -167.450122 
L 64.128154 -167.636949 
L 61.054866 -167.823775 
L 57.981577 -168.010602 
L 54.908289 -168.197428 
L 51.835 -168.384255 
z
" id="m3dcd5709d6" style="stroke:#ffffff;stroke-opacity:0.15;"/>
    </defs>
    <g clip-path="url(#pcb9375da83)">
     <use style="fill:#4c72b0;fill-opacity:0.15;stroke:#ffffff;stroke-opacity:0.15;" x="0" xlink:href="#m3dcd5709d6" y="432"/>
    </g>
   </g>
   <g id="line2d_1">
    <path clip-path="url(#pcb9375da83)" d="M 51.835 287.294311 
L 54.908289 287.197966 
L 57.981577 287.101621 
L 61.054866 287.005277 
L 64.128154 286.908932 
L 67.201443 286.812587 
L 70.274732 286.716243 
L 73.34802 286.619898 
L 76.421309 286.523553 
L 79.494597 286.427209 
L 82.567886 286.330864 
L 85.641175 286.234519 
L 88.714463 286.138175 
L 91.787752 286.04183 
L 94.86104 285.945485 
L 97.934329 285.849141 
L 101.007618 285.752796 
L 104.080906 285.656451 
L 107.154195 285.560107 
L 110.227483 285.463762 
L 113.300772 285.367417 
L 116.374061 285.271073 
L 119.447349 285.174728 
L 122.520638 285.078383 
L 125.593926 284.982038 
L 128.667215 284.885694 
L 131.740504 284.789349 
L 134.813792 284.693004 
L 137.887081 284.59666 
L 140.960369 284.500315 
L 144.033658 284.40397 
L 147.106947 284.307626 
L 150.180235 284.211281 
L 153.253524 284.114936 
L 156.326812 284.018592 
L 159.400101 283.922247 
L 162.47339 283.825902 
L 165.546678 283.729558 
L 168.619967 283.633213 
L 171.693255 283.536868 
L 174.766544 283.440524 
L 177.839833 283.344179 
L 180.913121 283.247834 
L 183.98641 283.15149 
L 187.059698 283.055145 
L 190.132987 282.9588 
L 193.206276 282.862456 
L 196.279564 282.766111 
L 199.352853 282.669766 
L 202.426141 282.573422 
L 205.49943 282.477077 
L 208.572719 282.380732 
L 211.646007 282.284387 
L 214.719296 282.188043 
L 217.792584 282.091698 
L 220.865873 281.995353 
L 223.939162 281.899009 
L 227.01245 281.802664 
L 230.085739 281.706319 
L 233.159027 281.609975 
L 236.232316 281.51363 
L 239.305605 281.417285 
L 242.378893 281.320941 
L 245.452182 281.224596 
L 248.52547 281.128251 
L 251.598759 281.031907 
L 254.672048 280.935562 
L 257.745336 280.839217 
L 260.818625 280.742873 
L 263.891913 280.646528 
L 266.965202 280.550183 
L 270.038491 280.453839 
L 273.111779 280.357494 
L 276.185068 280.261149 
L 279.258356 280.164805 
L 282.331645 280.06846 
L 285.404934 279.972115 
L 288.478222 279.875771 
L 291.551511 279.779426 
L 294.624799 279.683081 
L 297.698088 279.586737 
L 300.771377 279.490392 
L 303.844665 279.394047 
L 306.917954 279.297702 
L 309.991242 279.201358 
L 313.064531 279.105013 
L 316.13782 279.008668 
L 319.211108 278.912324 
L 322.284397 278.815979 
L 325.357685 278.719634 
L 328.430974 278.62329 
L 331.504263 278.526945 
L 334.577551 278.4306 
L 337.65084 278.334256 
L 340.724128 278.237911 
L 343.797417 278.141566 
L 346.870706 278.045222 
L 349.943994 277.948877 
L 353.017283 277.852532 
L 356.090571 277.756188 
" style="fill:none;stroke:#4c72b0;stroke-linecap:round;stroke-width:2.25;"/>
   </g>
   <g id="patch_3">
    <path d="M 51.835 385.54 
L 51.835 76.830857 
" style="fill:none;stroke:#262626;stroke-linecap:square;stroke-linejoin:miter;stroke-width:1.25;"/>
   </g>
   <g id="patch_4">
    <path d="M 51.835 385.54 
L 356.090571 385.54 
" style="fill:none;stroke:#262626;stroke-linecap:square;stroke-linejoin:miter;stroke-width:1.25;"/>
   </g>
  </g>
  <g id="axes_2">
   <g id="patch_5">
    <path d="M 51.835 66.185714 
L 356.090571 66.185714 
L 356.090571 12.96 
L 51.835 12.96 
z
" style="fill:#ffffff;"/>
   </g>
   <g id="matplotlib.axis_3">
    <g id="xtick_6"/>
    <g id="xtick_7"/>
    <g id="xtick_8"/>
    <g id="xtick_9"/>
    <g id="xtick_10"/>
   </g>
   <g id="matplotlib.axis_4">
    <g id="ytick_8"/>
    <g id="ytick_9"/>
   </g>
   <g id="patch_6">
    <path clip-path="url(#p902cf0935b)" d="M 51.835 66.185714 
L 85.641175 66.185714 
L 85.641175 63.77185 
L 51.835 63.77185 
z
" style="fill:#4c72b0;fill-opacity:0.5;stroke:#ffffff;stroke-linejoin:miter;"/>
   </g>
   <g id="patch_7">
    <path clip-path="url(#p902cf0935b)" d="M 85.641175 66.185714 
L 119.447349 66.185714 
L 119.447349 54.116391 
L 85.641175 54.116391 
z
" style="fill:#4c72b0;fill-opacity:0.5;stroke:#ffffff;stroke-linejoin:miter;"/>
   </g>
   <g id="patch_8">
    <path clip-path="url(#p902cf0935b)" d="M 119.447349 66.185714 
L 153.253524 66.185714 
L 153.253524 54.921013 
L 119.447349 54.921013 
z
" style="fill:#4c72b0;fill-opacity:0.5;stroke:#ffffff;stroke-linejoin:miter;"/>
   </g>
   <g id="patch_9">
    <path clip-path="url(#p902cf0935b)" d="M 153.253524 66.185714 
L 187.059698 66.185714 
L 187.059698 50.897905 
L 153.253524 50.897905 
z
" style="fill:#4c72b0;fill-opacity:0.5;stroke:#ffffff;stroke-linejoin:miter;"/>
   </g>
   <g id="patch_10">
    <path clip-path="url(#p902cf0935b)" d="M 187.059698 66.185714 
L 220.865873 66.185714 
L 220.865873 50.897905 
L 187.059698 50.897905 
z
" style="fill:#4c72b0;fill-opacity:0.5;stroke:#ffffff;stroke-linejoin:miter;"/>
   </g>
   <g id="patch_11">
    <path clip-path="url(#p902cf0935b)" d="M 220.865873 66.185714 
L 254.672048 66.185714 
L 254.672048 46.070176 
L 220.865873 46.070176 
z
" style="fill:#4c72b0;fill-opacity:0.5;stroke:#ffffff;stroke-linejoin:miter;"/>
   </g>
   <g id="patch_12">
    <path clip-path="url(#p902cf0935b)" d="M 254.672048 66.185714 
L 288.478222 66.185714 
L 288.478222 47.679419 
L 254.672048 47.679419 
z
" style="fill:#4c72b0;fill-opacity:0.5;stroke:#ffffff;stroke-linejoin:miter;"/>
   </g>
   <g id="patch_13">
    <path clip-path="url(#p902cf0935b)" d="M 288.478222 66.185714 
L 322.284397 66.185714 
L 322.284397 38.023961 
L 288.478222 38.023961 
z
" style="fill:#4c72b0;fill-opacity:0.5;stroke:#ffffff;stroke-linejoin:miter;"/>
   </g>
   <g id="patch_14">
    <path clip-path="url(#p902cf0935b)" d="M 322.284397 66.185714 
L 356.090571 66.185714 
L 356.090571 15.494558 
L 322.284397 15.494558 
z
" style="fill:#4c72b0;fill-opacity:0.5;stroke:#ffffff;stroke-linejoin:miter;"/>
   </g>
   <g id="line2d_2">
    <path clip-path="url(#p902cf0935b)" d="M 51.835 63.745273 
L 62.537457 62.699067 
L 74.768837 61.254309 
L 117.578666 55.933365 
L 142.041426 53.171454 
L 151.214961 52.369693 
L 160.388495 51.802953 
L 172.619875 51.325421 
L 187.9091 50.721046 
L 198.611557 50.043235 
L 212.371859 48.898732 
L 229.190006 47.536338 
L 242.950309 46.687331 
L 258.239533 45.720238 
L 265.884146 45.004029 
L 271.999836 44.236474 
L 278.115525 43.267039 
L 284.231215 42.092843 
L 291.875828 40.376217 
L 311.75182 35.638743 
L 316.338587 34.820813 
L 320.925355 34.252176 
L 323.9832 34.047365 
L 327.041045 34.004919 
L 330.098889 34.141527 
L 333.156734 34.47015 
L 336.214579 34.999117 
L 339.272424 35.731403 
L 342.330269 36.664132 
L 345.388114 37.788378 
L 348.445959 39.089284 
L 353.032726 41.326067 
L 356.090571 42.969566 
L 356.090571 42.969566 
" style="fill:none;stroke:#4c72b0;stroke-linecap:round;stroke-width:1.5;"/>
   </g>
   <g id="patch_15">
    <path d="M 51.835 66.185714 
L 356.090571 66.185714 
" style="fill:none;stroke:#262626;stroke-linecap:square;stroke-linejoin:miter;stroke-width:1.25;"/>
   </g>
  </g>
  <g id="axes_3">
   <g id="patch_16">
    <path d="M 366.582143 385.54 
L 419.04 385.54 
L 419.04 76.830857 
L 366.582143 76.830857 
z
" style="fill:#ffffff;"/>
   </g>
   <g id="matplotlib.axis_5">
    <g id="xtick_11"/>
    <g id="xtick_12"/>
   </g>
   <g id="matplotlib.axis_6">
    <g id="ytick_10"/>
    <g id="ytick_11"/>
    <g id="ytick_12"/>
    <g id="ytick_13"/>
    <g id="ytick_14"/>
    <g id="ytick_15"/>
    <g id="ytick_16"/>
   </g>
   <g id="patch_17">
    <path clip-path="url(#p3a83fb58e0)" d="M 366.582143 371.507766 
L 410.594404 371.507766 
L 410.594404 343.443299 
L 366.582143 343.443299 
z
" style="fill:#4c72b0;fill-opacity:0.5;stroke:#ffffff;stroke-linejoin:miter;"/>
   </g>
   <g id="patch_18">
    <path clip-path="url(#p3a83fb58e0)" d="M 366.582143 343.443299 
L 416.542007 343.443299 
L 416.542007 315.378831 
L 366.582143 315.378831 
z
" style="fill:#4c72b0;fill-opacity:0.5;stroke:#ffffff;stroke-linejoin:miter;"/>
   </g>
   <g id="patch_19">
    <path clip-path="url(#p3a83fb58e0)" d="M 366.582143 315.378831 
L 393.941116 315.378831 
L 393.941116 287.314364 
L 366.582143 287.314364 
z
" style="fill:#4c72b0;fill-opacity:0.5;stroke:#ffffff;stroke-linejoin:miter;"/>
   </g>
   <g id="patch_20">
    <path clip-path="url(#p3a83fb58e0)" d="M 366.582143 287.314364 
L 408.215363 287.314364 
L 408.215363 259.249896 
L 366.582143 259.249896 
z
" style="fill:#4c72b0;fill-opacity:0.5;stroke:#ffffff;stroke-linejoin:miter;"/>
   </g>
   <g id="patch_21">
    <path clip-path="url(#p3a83fb58e0)" d="M 366.582143 259.249896 
L 401.078239 259.249896 
L 401.078239 231.185429 
L 366.582143 231.185429 
z
" style="fill:#4c72b0;fill-opacity:0.5;stroke:#ffffff;stroke-linejoin:miter;"/>
   </g>
   <g id="patch_22">
    <path clip-path="url(#p3a83fb58e0)" d="M 366.582143 231.185429 
L 387.993513 231.185429 
L 387.993513 203.120961 
L 366.582143 203.120961 
z
" style="fill:#4c72b0;fill-opacity:0.5;stroke:#ffffff;stroke-linejoin:miter;"/>
   </g>
   <g id="patch_23">
    <path clip-path="url(#p3a83fb58e0)" d="M 366.582143 203.120961 
L 383.235431 203.120961 
L 383.235431 175.056494 
L 366.582143 175.056494 
z
" style="fill:#4c72b0;fill-opacity:0.5;stroke:#ffffff;stroke-linejoin:miter;"/>
   </g>
   <g id="patch_24">
    <path clip-path="url(#p3a83fb58e0)" d="M 366.582143 175.056494 
L 372.529746 175.056494 
L 372.529746 146.992026 
L 366.582143 146.992026 
z
" style="fill:#4c72b0;fill-opacity:0.5;stroke:#ffffff;stroke-linejoin:miter;"/>
   </g>
   <g id="patch_25">
    <path clip-path="url(#p3a83fb58e0)" d="M 366.582143 146.992026 
L 371.340225 146.992026 
L 371.340225 118.927558 
L 366.582143 118.927558 
z
" style="fill:#4c72b0;fill-opacity:0.5;stroke:#ffffff;stroke-linejoin:miter;"/>
   </g>
   <g id="patch_26">
    <path clip-path="url(#p3a83fb58e0)" d="M 366.582143 118.927558 
L 368.961184 118.927558 
L 368.961184 90.863091 
L 366.582143 90.863091 
z
" style="fill:#4c72b0;fill-opacity:0.5;stroke:#ffffff;stroke-linejoin:miter;"/>
   </g>
   <g id="line2d_3">
    <path clip-path="url(#p3a83fb58e0)" d="M 385.936447 371.507766 
L 391.593658 365.866667 
L 398.696395 358.815293 
L 402.588933 354.584469 
L 404.903145 351.76392 
L 406.933958 348.94337 
L 408.643172 346.122821 
L 410.005366 343.302271 
L 411.008845 340.481722 
L 411.655798 337.661172 
L 411.961714 334.840623 
L 411.954146 332.020073 
L 411.670929 329.199524 
L 411.157969 326.378974 
L 410.071177 322.14815 
L 407.863831 315.096776 
L 406.183596 309.455677 
L 405.165974 305.224853 
L 404.428707 300.994029 
L 403.982556 296.763204 
L 403.794094 292.53238 
L 403.826555 286.891281 
L 404.095778 274.198808 
L 403.972245 269.967984 
L 403.654222 265.73716 
L 403.117307 261.506336 
L 402.356018 257.275511 
L 401.383022 253.044687 
L 399.809429 247.403588 
L 397.554807 240.352214 
L 393.426978 227.659742 
L 390.972717 219.198093 
L 386.592517 203.685071 
L 384.287751 196.633697 
L 380.749736 186.761774 
L 377.809478 178.300125 
L 376.106834 172.659026 
L 375.02291 168.428202 
L 374.11924 164.197378 
L 373.18576 158.556279 
L 372.5185 152.91518 
L 371.945999 145.863806 
L 369.999261 117.658311 
L 368.401728 97.914465 
L 367.961258 90.863091 
L 367.961258 90.863091 
" style="fill:none;stroke:#4c72b0;stroke-linecap:round;stroke-width:1.5;"/>
   </g>
   <g id="patch_27">
    <path d="M 366.582143 385.54 
L 366.582143 76.830857 
" style="fill:none;stroke:#262626;stroke-linecap:square;stroke-linejoin:miter;stroke-width:1.25;"/>
   </g>
  </g>
 </g>
 <defs>
  <clipPath id="pcb9375da83">
   <rect height="308.709143" width="304.255571" x="51.835" y="76.830857"/>
  </clipPath>
  <clipPath id="p902cf0935b">
   <rect height="53.225714" width="304.255571" x="51.835" y="12.96"/>
  </clipPath>
  <clipPath id="p3a83fb58e0">
   <rect height="308.709143" width="52.457857" x="366.582143" y="76.830857"/>
  </clipPath>
 </defs>
</svg>
