<?xml version="1.0" encoding="utf-8" standalone="no"?>
<!DOCTYPE svg PUBLIC "-//W3C//DTD SVG 1.1//EN"
  "http://www.w3.org/Graphics/SVG/1.1/DTD/svg11.dtd">
<!-- Created with matplotlib (https://matplotlib.org/) -->
<svg height="576pt" version="1.1" viewBox="0 0 432 576" width="432pt" xmlns="http://www.w3.org/2000/svg" xmlns:xlink="http://www.w3.org/1999/xlink">
 <metadata>
  <rdf:RDF xmlns:cc="http://creativecommons.org/ns#" xmlns:dc="http://purl.org/dc/elements/1.1/" xmlns:rdf="http://www.w3.org/1999/02/22-rdf-syntax-ns#">
   <cc:Work>
    <dc:type rdf:resource="http://purl.org/dc/dcmitype/StillImage"/>
    <dc:date>2021-01-19T14:59:34.720407</dc:date>
    <dc:format>image/svg+xml</dc:format>
    <dc:creator>
     <cc:Agent>
      <dc:title>Matplotlib v3.3.3, https://matplotlib.org/</dc:title>
     </cc:Agent>
    </dc:creator>
   </cc:Work>
  </rdf:RDF>
 </metadata>
 <defs>
  <style type="text/css">*{stroke-linecap:butt;stroke-linejoin:round;}</style>
 </defs>
 <g id="figure_1">
  <g id="patch_1">
   <path d="M 0 576 
L 432 576 
L 432 0 
L 0 0 
z
" style="fill:none;"/>
  </g>
  <g id="axes_1">
   <g id="patch_2">
    <path d="M 90.69 246.53 
L 412.56 246.53 
L 412.56 39.44 
L 90.69 39.44 
z
" style="fill:#ffffff;"/>
   </g>
   <g id="PolyCollection_1">
    <defs>
     <path d="M 105.320455 -329.47 
L 105.320455 -329.47 
L 115.553613 -329.47 
L 115.553613 -329.47 
L 125.786771 -329.47 
L 125.786771 -329.47 
L 136.019929 -329.47 
L 136.019929 -329.47 
L 146.253088 -329.47 
L 146.253088 -329.47 
L 156.486246 -329.47 
L 156.486246 -329.47 
L 166.719404 -329.47 
L 166.719404 -329.47 
L 176.952563 -329.47 
L 176.952563 -329.47 
L 187.185721 -329.47 
L 187.185721 -329.47 
L 197.418879 -329.47 
L 197.418879 -329.47 
L 207.652037 -329.47 
L 207.652037 -329.47 
L 217.885196 -329.47 
L 217.885196 -329.47 
L 228.118354 -329.47 
L 228.118354 -329.47 
L 238.351512 -329.47 
L 238.351512 -329.47 
L 248.584671 -329.47 
L 248.584671 -329.47 
L 258.817829 -329.47 
L 258.817829 -329.47 
L 269.050987 -329.47 
L 269.050987 -329.47 
L 279.284145 -329.47 
L 279.284145 -329.47 
L 289.517304 -329.47 
L 289.517304 -329.47 
L 299.750462 -329.47 
L 299.750462 -329.47 
L 309.98362 -329.47 
L 309.98362 -329.47 
L 320.216779 -329.47 
L 320.216779 -329.47 
L 330.449937 -329.47 
L 330.449937 -329.47 
L 340.683095 -329.47 
L 340.683095 -329.47 
L 350.916253 -329.47 
L 350.916253 -329.47 
L 361.149412 -329.47 
L 361.149412 -329.47 
L 371.38257 -329.47 
L 371.38257 -329.47 
L 381.615728 -329.47 
L 381.615728 -329.47 
L 391.848887 -329.47 
L 391.848887 -329.47 
L 391.848887 -329.47 
L 391.848887 -329.47 
L 391.848887 -329.47 
L 381.615728 -329.47 
L 381.615728 -329.47 
L 371.38257 -329.47 
L 371.38257 -329.47 
L 361.149412 -329.47 
L 361.149412 -329.47 
L 350.916253 -329.47 
L 350.916253 -329.47 
L 340.683095 -329.47 
L 340.683095 -329.47 
L 330.449937 -329.47 
L 330.449937 -331.192445 
L 320.216779 -331.192445 
L 320.216779 -338.082224 
L 309.98362 -338.082224 
L 309.98362 -365.641341 
L 299.750462 -365.641341 
L 299.750462 -375.97601 
L 289.517304 -375.97601 
L 289.517304 -408.702461 
L 279.284145 -408.702461 
L 279.284145 -429.371798 
L 269.050987 -429.371798 
L 269.050987 -462.098249 
L 258.817829 -462.098249 
L 258.817829 -425.926909 
L 248.584671 -425.926909 
L 248.584671 -389.755568 
L 238.351512 -389.755568 
L 238.351512 -367.363786 
L 228.118354 -367.363786 
L 228.118354 -344.972003 
L 217.885196 -344.972003 
L 217.885196 -329.47 
L 207.652037 -329.47 
L 207.652037 -331.192445 
L 197.418879 -331.192445 
L 197.418879 -329.47 
L 187.185721 -329.47 
L 187.185721 -329.47 
L 176.952563 -329.47 
L 176.952563 -329.47 
L 166.719404 -329.47 
L 166.719404 -329.47 
L 156.486246 -329.47 
L 156.486246 -329.47 
L 146.253088 -329.47 
L 146.253088 -329.47 
L 136.019929 -329.47 
L 136.019929 -329.47 
L 125.786771 -329.47 
L 125.786771 -329.47 
L 115.553613 -329.47 
L 115.553613 -329.47 
L 105.320455 -329.47 
z
" id="mf3ea96f7fb" style="stroke:#4c72b0;stroke-width:1.5;"/>
    </defs>
    <g clip-path="url(#pd17a932f4c)">
     <use style="fill:#4c72b0;fill-opacity:0.25;stroke:#4c72b0;stroke-width:1.5;" x="0" xlink:href="#mf3ea96f7fb" y="576"/>
    </g>
   </g>
   <g id="PolyCollection_2">
    <defs>
     <path d="M 105.320455 -331.24194 
L 105.320455 -329.47 
L 115.553613 -329.47 
L 115.553613 -329.47 
L 125.786771 -329.47 
L 125.786771 -329.47 
L 136.019929 -329.47 
L 136.019929 -329.47 
L 146.253088 -329.47 
L 146.253088 -329.47 
L 156.486246 -329.47 
L 156.486246 -329.47 
L 166.719404 -329.47 
L 166.719404 -329.47 
L 176.952563 -329.47 
L 176.952563 -329.47 
L 187.185721 -329.47 
L 187.185721 -329.47 
L 197.418879 -329.47 
L 197.418879 -329.47 
L 207.652037 -329.47 
L 207.652037 -329.47 
L 217.885196 -329.47 
L 217.885196 -329.47 
L 228.118354 -329.47 
L 228.118354 -329.47 
L 238.351512 -329.47 
L 238.351512 -329.47 
L 248.584671 -329.47 
L 248.584671 -329.47 
L 258.817829 -329.47 
L 258.817829 -329.47 
L 269.050987 -329.47 
L 269.050987 -329.47 
L 279.284145 -329.47 
L 279.284145 -329.47 
L 289.517304 -329.47 
L 289.517304 -329.47 
L 299.750462 -329.47 
L 299.750462 -329.47 
L 309.98362 -329.47 
L 309.98362 -329.47 
L 320.216779 -329.47 
L 320.216779 -329.47 
L 330.449937 -329.47 
L 330.449937 -329.47 
L 340.683095 -329.47 
L 340.683095 -329.47 
L 350.916253 -329.47 
L 350.916253 -329.47 
L 361.149412 -329.47 
L 361.149412 -329.47 
L 371.38257 -329.47 
L 371.38257 -329.47 
L 381.615728 -329.47 
L 381.615728 -329.47 
L 391.848887 -329.47 
L 391.848887 -329.47 
L 391.848887 -331.24194 
L 391.848887 -331.24194 
L 391.848887 -331.24194 
L 381.615728 -331.24194 
L 381.615728 -329.47 
L 371.38257 -329.47 
L 371.38257 -329.47 
L 361.149412 -329.47 
L 361.149412 -331.24194 
L 350.916253 -331.24194 
L 350.916253 -331.24194 
L 340.683095 -331.24194 
L 340.683095 -331.24194 
L 330.449937 -331.24194 
L 330.449937 -338.329702 
L 320.216779 -338.329702 
L 320.216779 -350.733284 
L 309.98362 -350.733284 
L 309.98362 -340.101642 
L 299.750462 -340.101642 
L 299.750462 -356.049105 
L 289.517304 -356.049105 
L 289.517304 -364.908807 
L 279.284145 -364.908807 
L 279.284145 -368.452687 
L 269.050987 -368.452687 
L 269.050987 -348.961344 
L 258.817829 -348.961344 
L 258.817829 -375.540449 
L 248.584671 -375.540449 
L 248.584671 -395.031792 
L 238.351512 -395.031792 
L 238.351512 -389.715971 
L 228.118354 -389.715971 
L 228.118354 -364.908807 
L 217.885196 -364.908807 
L 217.885196 -371.996568 
L 207.652037 -371.996568 
L 207.652037 -375.540449 
L 197.418879 -375.540449 
L 197.418879 -368.452687 
L 187.185721 -368.452687 
L 187.185721 -361.364926 
L 176.952563 -361.364926 
L 176.952563 -345.417463 
L 166.719404 -345.417463 
L 166.719404 -356.049105 
L 156.486246 -356.049105 
L 156.486246 -345.417463 
L 146.253088 -345.417463 
L 146.253088 -340.101642 
L 136.019929 -340.101642 
L 136.019929 -336.557761 
L 125.786771 -336.557761 
L 125.786771 -333.013881 
L 115.553613 -333.013881 
L 115.553613 -331.24194 
L 105.320455 -331.24194 
z
" id="m59340bf5b5" style="stroke:#c44e52;stroke-width:1.5;"/>
    </defs>
    <g clip-path="url(#pd17a932f4c)">
     <use style="fill:#c44e52;fill-opacity:0.25;stroke:#c44e52;stroke-width:1.5;" x="0" xlink:href="#m59340bf5b5" y="576"/>
    </g>
   </g>
   <g id="matplotlib.axis_1">
    <g id="xtick_1">
     <g id="line2d_1">
      <defs>
       <path d="M 0 0 
L 0 9 
" id="ma55d17acf7" style="stroke:#000000;stroke-width:1.875;"/>
      </defs>
      <g>
       <use style="stroke:#000000;stroke-width:1.875;" x="99.788216" xlink:href="#ma55d17acf7" y="246.53"/>
      </g>
     </g>
    </g>
    <g id="xtick_2">
     <g id="line2d_2">
      <g>
       <use style="stroke:#000000;stroke-width:1.875;" x="181.969489" xlink:href="#ma55d17acf7" y="246.53"/>
      </g>
     </g>
    </g>
    <g id="xtick_3">
     <g id="line2d_3">
      <g>
       <use style="stroke:#000000;stroke-width:1.875;" x="264.150761" xlink:href="#ma55d17acf7" y="246.53"/>
      </g>
     </g>
    </g>
    <g id="xtick_4">
     <g id="line2d_4">
      <g>
       <use style="stroke:#000000;stroke-width:1.875;" x="346.332034" xlink:href="#ma55d17acf7" y="246.53"/>
      </g>
     </g>
    </g>
   </g>
   <g id="matplotlib.axis_2">
    <g id="ytick_1">
     <g id="line2d_5">
      <defs>
       <path d="M 0 0 
L -9 0 
" id="m56a6ee3685" style="stroke:#000000;stroke-width:1.875;"/>
      </defs>
      <g>
       <use style="stroke:#000000;stroke-width:1.875;" x="90.69" xlink:href="#m56a6ee3685" y="246.53"/>
      </g>
     </g>
     <g id="text_1">
      <!-- 0.000 -->
      <g transform="translate(30.953594 252.798711)scale(0.165 -0.165)">
       <defs>
        <path d="M 31.78125 66.40625 
Q 24.171875 66.40625 20.328125 58.90625 
Q 16.5 51.421875 16.5 36.375 
Q 16.5 21.390625 20.328125 13.890625 
Q 24.171875 6.390625 31.78125 6.390625 
Q 39.453125 6.390625 43.28125 13.890625 
Q 47.125 21.390625 47.125 36.375 
Q 47.125 51.421875 43.28125 58.90625 
Q 39.453125 66.40625 31.78125 66.40625 
z
M 31.78125 74.21875 
Q 44.046875 74.21875 50.515625 64.515625 
Q 56.984375 54.828125 56.984375 36.375 
Q 56.984375 17.96875 50.515625 8.265625 
Q 44.046875 -1.421875 31.78125 -1.421875 
Q 19.53125 -1.421875 13.0625 8.265625 
Q 6.59375 17.96875 6.59375 36.375 
Q 6.59375 54.828125 13.0625 64.515625 
Q 19.53125 74.21875 31.78125 74.21875 
z
" id="DejaVuSans-48"/>
        <path d="M 10.6875 12.40625 
L 21 12.40625 
L 21 0 
L 10.6875 0 
z
" id="DejaVuSans-46"/>
       </defs>
       <use xlink:href="#DejaVuSans-48"/>
       <use x="63.623047" xlink:href="#DejaVuSans-46"/>
       <use x="95.410156" xlink:href="#DejaVuSans-48"/>
       <use x="159.033203" xlink:href="#DejaVuSans-48"/>
       <use x="222.65625" xlink:href="#DejaVuSans-48"/>
      </g>
     </g>
    </g>
    <g id="ytick_2">
     <g id="line2d_6">
      <g>
       <use style="stroke:#000000;stroke-width:1.875;" x="90.69" xlink:href="#m56a6ee3685" y="208.138492"/>
      </g>
     </g>
     <g id="text_2">
      <!-- 0.025 -->
      <g transform="translate(30.953594 214.407203)scale(0.165 -0.165)">
       <defs>
        <path d="M 19.1875 8.296875 
L 53.609375 8.296875 
L 53.609375 0 
L 7.328125 0 
L 7.328125 8.296875 
Q 12.9375 14.109375 22.625 23.890625 
Q 32.328125 33.6875 34.8125 36.53125 
Q 39.546875 41.84375 41.421875 45.53125 
Q 43.3125 49.21875 43.3125 52.78125 
Q 43.3125 58.59375 39.234375 62.25 
Q 35.15625 65.921875 28.609375 65.921875 
Q 23.96875 65.921875 18.8125 64.3125 
Q 13.671875 62.703125 7.8125 59.421875 
L 7.8125 69.390625 
Q 13.765625 71.78125 18.9375 73 
Q 24.125 74.21875 28.421875 74.21875 
Q 39.75 74.21875 46.484375 68.546875 
Q 53.21875 62.890625 53.21875 53.421875 
Q 53.21875 48.921875 51.53125 44.890625 
Q 49.859375 40.875 45.40625 35.40625 
Q 44.1875 33.984375 37.640625 27.21875 
Q 31.109375 20.453125 19.1875 8.296875 
z
" id="DejaVuSans-50"/>
        <path d="M 10.796875 72.90625 
L 49.515625 72.90625 
L 49.515625 64.59375 
L 19.828125 64.59375 
L 19.828125 46.734375 
Q 21.96875 47.46875 24.109375 47.828125 
Q 26.265625 48.1875 28.421875 48.1875 
Q 40.625 48.1875 47.75 41.5 
Q 54.890625 34.8125 54.890625 23.390625 
Q 54.890625 11.625 47.5625 5.09375 
Q 40.234375 -1.421875 26.90625 -1.421875 
Q 22.3125 -1.421875 17.546875 -0.640625 
Q 12.796875 0.140625 7.71875 1.703125 
L 7.71875 11.625 
Q 12.109375 9.234375 16.796875 8.0625 
Q 21.484375 6.890625 26.703125 6.890625 
Q 35.15625 6.890625 40.078125 11.328125 
Q 45.015625 15.765625 45.015625 23.390625 
Q 45.015625 31 40.078125 35.4375 
Q 35.15625 39.890625 26.703125 39.890625 
Q 22.75 39.890625 18.8125 39.015625 
Q 14.890625 38.140625 10.796875 36.28125 
z
" id="DejaVuSans-53"/>
       </defs>
       <use xlink:href="#DejaVuSans-48"/>
       <use x="63.623047" xlink:href="#DejaVuSans-46"/>
       <use x="95.410156" xlink:href="#DejaVuSans-48"/>
       <use x="159.033203" xlink:href="#DejaVuSans-50"/>
       <use x="222.65625" xlink:href="#DejaVuSans-53"/>
      </g>
     </g>
    </g>
    <g id="ytick_3">
     <g id="line2d_7">
      <g>
       <use style="stroke:#000000;stroke-width:1.875;" x="90.69" xlink:href="#m56a6ee3685" y="169.746984"/>
      </g>
     </g>
     <g id="text_3">
      <!-- 0.050 -->
      <g transform="translate(30.953594 176.015694)scale(0.165 -0.165)">
       <use xlink:href="#DejaVuSans-48"/>
       <use x="63.623047" xlink:href="#DejaVuSans-46"/>
       <use x="95.410156" xlink:href="#DejaVuSans-48"/>
       <use x="159.033203" xlink:href="#DejaVuSans-53"/>
       <use x="222.65625" xlink:href="#DejaVuSans-48"/>
      </g>
     </g>
    </g>
    <g id="ytick_4">
     <g id="line2d_8">
      <g>
       <use style="stroke:#000000;stroke-width:1.875;" x="90.69" xlink:href="#m56a6ee3685" y="131.355475"/>
      </g>
     </g>
     <g id="text_4">
      <!-- 0.075 -->
      <g transform="translate(30.953594 137.624186)scale(0.165 -0.165)">
       <defs>
        <path d="M 8.203125 72.90625 
L 55.078125 72.90625 
L 55.078125 68.703125 
L 28.609375 0 
L 18.3125 0 
L 43.21875 64.59375 
L 8.203125 64.59375 
z
" id="DejaVuSans-55"/>
       </defs>
       <use xlink:href="#DejaVuSans-48"/>
       <use x="63.623047" xlink:href="#DejaVuSans-46"/>
       <use x="95.410156" xlink:href="#DejaVuSans-48"/>
       <use x="159.033203" xlink:href="#DejaVuSans-55"/>
       <use x="222.65625" xlink:href="#DejaVuSans-53"/>
      </g>
     </g>
    </g>
    <g id="ytick_5">
     <g id="line2d_9">
      <g>
       <use style="stroke:#000000;stroke-width:1.875;" x="90.69" xlink:href="#m56a6ee3685" y="92.963967"/>
      </g>
     </g>
     <g id="text_5">
      <!-- 0.100 -->
      <g transform="translate(30.953594 99.232678)scale(0.165 -0.165)">
       <defs>
        <path d="M 12.40625 8.296875 
L 28.515625 8.296875 
L 28.515625 63.921875 
L 10.984375 60.40625 
L 10.984375 69.390625 
L 28.421875 72.90625 
L 38.28125 72.90625 
L 38.28125 8.296875 
L 54.390625 8.296875 
L 54.390625 0 
L 12.40625 0 
z
" id="DejaVuSans-49"/>
       </defs>
       <use xlink:href="#DejaVuSans-48"/>
       <use x="63.623047" xlink:href="#DejaVuSans-46"/>
       <use x="95.410156" xlink:href="#DejaVuSans-49"/>
       <use x="159.033203" xlink:href="#DejaVuSans-48"/>
       <use x="222.65625" xlink:href="#DejaVuSans-48"/>
      </g>
     </g>
    </g>
    <g id="ytick_6">
     <g id="line2d_10">
      <g>
       <use style="stroke:#000000;stroke-width:1.875;" x="90.69" xlink:href="#m56a6ee3685" y="54.572459"/>
      </g>
     </g>
     <g id="text_6">
      <!-- 0.125 -->
      <g transform="translate(30.953594 60.84117)scale(0.165 -0.165)">
       <use xlink:href="#DejaVuSans-48"/>
       <use x="63.623047" xlink:href="#DejaVuSans-46"/>
       <use x="95.410156" xlink:href="#DejaVuSans-49"/>
       <use x="159.033203" xlink:href="#DejaVuSans-50"/>
       <use x="222.65625" xlink:href="#DejaVuSans-53"/>
      </g>
     </g>
    </g>
    <g id="text_7">
     <!-- Density -->
     <g transform="translate(23.210156 177.200469)rotate(-90)scale(0.18 -0.18)">
      <defs>
       <path d="M 19.671875 64.796875 
L 19.671875 8.109375 
L 31.59375 8.109375 
Q 46.6875 8.109375 53.6875 14.9375 
Q 60.6875 21.78125 60.6875 36.53125 
Q 60.6875 51.171875 53.6875 57.984375 
Q 46.6875 64.796875 31.59375 64.796875 
z
M 9.8125 72.90625 
L 30.078125 72.90625 
Q 51.265625 72.90625 61.171875 64.09375 
Q 71.09375 55.28125 71.09375 36.53125 
Q 71.09375 17.671875 61.125 8.828125 
Q 51.171875 0 30.078125 0 
L 9.8125 0 
z
" id="DejaVuSans-68"/>
       <path d="M 56.203125 29.59375 
L 56.203125 25.203125 
L 14.890625 25.203125 
Q 15.484375 15.921875 20.484375 11.0625 
Q 25.484375 6.203125 34.421875 6.203125 
Q 39.59375 6.203125 44.453125 7.46875 
Q 49.3125 8.734375 54.109375 11.28125 
L 54.109375 2.78125 
Q 49.265625 0.734375 44.1875 -0.34375 
Q 39.109375 -1.421875 33.890625 -1.421875 
Q 20.796875 -1.421875 13.15625 6.1875 
Q 5.515625 13.8125 5.515625 26.8125 
Q 5.515625 40.234375 12.765625 48.109375 
Q 20.015625 56 32.328125 56 
Q 43.359375 56 49.78125 48.890625 
Q 56.203125 41.796875 56.203125 29.59375 
z
M 47.21875 32.234375 
Q 47.125 39.59375 43.09375 43.984375 
Q 39.0625 48.390625 32.421875 48.390625 
Q 24.90625 48.390625 20.390625 44.140625 
Q 15.875 39.890625 15.1875 32.171875 
z
" id="DejaVuSans-101"/>
       <path d="M 54.890625 33.015625 
L 54.890625 0 
L 45.90625 0 
L 45.90625 32.71875 
Q 45.90625 40.484375 42.875 44.328125 
Q 39.84375 48.1875 33.796875 48.1875 
Q 26.515625 48.1875 22.3125 43.546875 
Q 18.109375 38.921875 18.109375 30.90625 
L 18.109375 0 
L 9.078125 0 
L 9.078125 54.6875 
L 18.109375 54.6875 
L 18.109375 46.1875 
Q 21.34375 51.125 25.703125 53.5625 
Q 30.078125 56 35.796875 56 
Q 45.21875 56 50.046875 50.171875 
Q 54.890625 44.34375 54.890625 33.015625 
z
" id="DejaVuSans-110"/>
       <path d="M 44.28125 53.078125 
L 44.28125 44.578125 
Q 40.484375 46.53125 36.375 47.5 
Q 32.28125 48.484375 27.875 48.484375 
Q 21.1875 48.484375 17.84375 46.4375 
Q 14.5 44.390625 14.5 40.28125 
Q 14.5 37.15625 16.890625 35.375 
Q 19.28125 33.59375 26.515625 31.984375 
L 29.59375 31.296875 
Q 39.15625 29.25 43.1875 25.515625 
Q 47.21875 21.78125 47.21875 15.09375 
Q 47.21875 7.46875 41.1875 3.015625 
Q 35.15625 -1.421875 24.609375 -1.421875 
Q 20.21875 -1.421875 15.453125 -0.5625 
Q 10.6875 0.296875 5.421875 2 
L 5.421875 11.28125 
Q 10.40625 8.6875 15.234375 7.390625 
Q 20.0625 6.109375 24.8125 6.109375 
Q 31.15625 6.109375 34.5625 8.28125 
Q 37.984375 10.453125 37.984375 14.40625 
Q 37.984375 18.0625 35.515625 20.015625 
Q 33.0625 21.96875 24.703125 23.78125 
L 21.578125 24.515625 
Q 13.234375 26.265625 9.515625 29.90625 
Q 5.8125 33.546875 5.8125 39.890625 
Q 5.8125 47.609375 11.28125 51.796875 
Q 16.75 56 26.8125 56 
Q 31.78125 56 36.171875 55.265625 
Q 40.578125 54.546875 44.28125 53.078125 
z
" id="DejaVuSans-115"/>
       <path d="M 9.421875 54.6875 
L 18.40625 54.6875 
L 18.40625 0 
L 9.421875 0 
z
M 9.421875 75.984375 
L 18.40625 75.984375 
L 18.40625 64.59375 
L 9.421875 64.59375 
z
" id="DejaVuSans-105"/>
       <path d="M 18.3125 70.21875 
L 18.3125 54.6875 
L 36.8125 54.6875 
L 36.8125 47.703125 
L 18.3125 47.703125 
L 18.3125 18.015625 
Q 18.3125 11.328125 20.140625 9.421875 
Q 21.96875 7.515625 27.59375 7.515625 
L 36.8125 7.515625 
L 36.8125 0 
L 27.59375 0 
Q 17.1875 0 13.234375 3.875 
Q 9.28125 7.765625 9.28125 18.015625 
L 9.28125 47.703125 
L 2.6875 47.703125 
L 2.6875 54.6875 
L 9.28125 54.6875 
L 9.28125 70.21875 
z
" id="DejaVuSans-116"/>
       <path d="M 32.171875 -5.078125 
Q 28.375 -14.84375 24.75 -17.8125 
Q 21.140625 -20.796875 15.09375 -20.796875 
L 7.90625 -20.796875 
L 7.90625 -13.28125 
L 13.1875 -13.28125 
Q 16.890625 -13.28125 18.9375 -11.515625 
Q 21 -9.765625 23.484375 -3.21875 
L 25.09375 0.875 
L 2.984375 54.6875 
L 12.5 54.6875 
L 29.59375 11.921875 
L 46.6875 54.6875 
L 56.203125 54.6875 
z
" id="DejaVuSans-121"/>
      </defs>
      <use xlink:href="#DejaVuSans-68"/>
      <use x="77.001953" xlink:href="#DejaVuSans-101"/>
      <use x="138.525391" xlink:href="#DejaVuSans-110"/>
      <use x="201.904297" xlink:href="#DejaVuSans-115"/>
      <use x="254.003906" xlink:href="#DejaVuSans-105"/>
      <use x="281.787109" xlink:href="#DejaVuSans-116"/>
      <use x="320.996094" xlink:href="#DejaVuSans-121"/>
     </g>
    </g>
   </g>
   <g id="patch_3">
    <path d="M 90.69 246.53 
L 90.69 39.44 
" style="fill:none;stroke:#000000;stroke-linecap:square;stroke-linejoin:miter;stroke-width:1.875;"/>
   </g>
   <g id="patch_4">
    <path d="M 90.69 246.53 
L 412.56 246.53 
" style="fill:none;stroke:#000000;stroke-linecap:square;stroke-linejoin:miter;stroke-width:1.875;"/>
   </g>
   <g id="text_8">
    <!-- Psi -->
    <g transform="translate(239.167031 33.44)scale(0.18 -0.18)">
     <defs>
      <path d="M 19.671875 64.796875 
L 19.671875 37.40625 
L 32.078125 37.40625 
Q 38.96875 37.40625 42.71875 40.96875 
Q 46.484375 44.53125 46.484375 51.125 
Q 46.484375 57.671875 42.71875 61.234375 
Q 38.96875 64.796875 32.078125 64.796875 
z
M 9.8125 72.90625 
L 32.078125 72.90625 
Q 44.34375 72.90625 50.609375 67.359375 
Q 56.890625 61.8125 56.890625 51.125 
Q 56.890625 40.328125 50.609375 34.8125 
Q 44.34375 29.296875 32.078125 29.296875 
L 19.671875 29.296875 
L 19.671875 0 
L 9.8125 0 
z
" id="DejaVuSans-80"/>
     </defs>
     <use xlink:href="#DejaVuSans-80"/>
     <use x="58.552734" xlink:href="#DejaVuSans-115"/>
     <use x="110.652344" xlink:href="#DejaVuSans-105"/>
    </g>
   </g>
   <g id="legend_1">
    <g id="patch_5">
     <path d="M 294.889219 126.748438 
L 401.01 126.748438 
Q 404.31 126.748438 404.31 123.448438 
L 404.31 50.99 
Q 404.31 47.69 401.01 47.69 
L 294.889219 47.69 
Q 291.589219 47.69 291.589219 50.99 
L 291.589219 123.448438 
Q 291.589219 126.748438 294.889219 126.748438 
z
" style="fill:#ffffff;opacity:0.8;stroke:#cccccc;stroke-linejoin:miter;stroke-width:1.5;"/>
    </g>
    <g id="text_9">
     <!-- Modality -->
     <g transform="translate(309.592734 67.967188)scale(0.18 -0.18)">
      <defs>
       <path d="M 9.8125 72.90625 
L 24.515625 72.90625 
L 43.109375 23.296875 
L 61.8125 72.90625 
L 76.515625 72.90625 
L 76.515625 0 
L 66.890625 0 
L 66.890625 64.015625 
L 48.09375 14.015625 
L 38.1875 14.015625 
L 19.390625 64.015625 
L 19.390625 0 
L 9.8125 0 
z
" id="DejaVuSans-77"/>
       <path d="M 30.609375 48.390625 
Q 23.390625 48.390625 19.1875 42.75 
Q 14.984375 37.109375 14.984375 27.296875 
Q 14.984375 17.484375 19.15625 11.84375 
Q 23.34375 6.203125 30.609375 6.203125 
Q 37.796875 6.203125 41.984375 11.859375 
Q 46.1875 17.53125 46.1875 27.296875 
Q 46.1875 37.015625 41.984375 42.703125 
Q 37.796875 48.390625 30.609375 48.390625 
z
M 30.609375 56 
Q 42.328125 56 49.015625 48.375 
Q 55.71875 40.765625 55.71875 27.296875 
Q 55.71875 13.875 49.015625 6.21875 
Q 42.328125 -1.421875 30.609375 -1.421875 
Q 18.84375 -1.421875 12.171875 6.21875 
Q 5.515625 13.875 5.515625 27.296875 
Q 5.515625 40.765625 12.171875 48.375 
Q 18.84375 56 30.609375 56 
z
" id="DejaVuSans-111"/>
       <path d="M 45.40625 46.390625 
L 45.40625 75.984375 
L 54.390625 75.984375 
L 54.390625 0 
L 45.40625 0 
L 45.40625 8.203125 
Q 42.578125 3.328125 38.25 0.953125 
Q 33.9375 -1.421875 27.875 -1.421875 
Q 17.96875 -1.421875 11.734375 6.484375 
Q 5.515625 14.40625 5.515625 27.296875 
Q 5.515625 40.1875 11.734375 48.09375 
Q 17.96875 56 27.875 56 
Q 33.9375 56 38.25 53.625 
Q 42.578125 51.265625 45.40625 46.390625 
z
M 14.796875 27.296875 
Q 14.796875 17.390625 18.875 11.75 
Q 22.953125 6.109375 30.078125 6.109375 
Q 37.203125 6.109375 41.296875 11.75 
Q 45.40625 17.390625 45.40625 27.296875 
Q 45.40625 37.203125 41.296875 42.84375 
Q 37.203125 48.484375 30.078125 48.484375 
Q 22.953125 48.484375 18.875 42.84375 
Q 14.796875 37.203125 14.796875 27.296875 
z
" id="DejaVuSans-100"/>
       <path d="M 34.28125 27.484375 
Q 23.390625 27.484375 19.1875 25 
Q 14.984375 22.515625 14.984375 16.5 
Q 14.984375 11.71875 18.140625 8.90625 
Q 21.296875 6.109375 26.703125 6.109375 
Q 34.1875 6.109375 38.703125 11.40625 
Q 43.21875 16.703125 43.21875 25.484375 
L 43.21875 27.484375 
z
M 52.203125 31.203125 
L 52.203125 0 
L 43.21875 0 
L 43.21875 8.296875 
Q 40.140625 3.328125 35.546875 0.953125 
Q 30.953125 -1.421875 24.3125 -1.421875 
Q 15.921875 -1.421875 10.953125 3.296875 
Q 6 8.015625 6 15.921875 
Q 6 25.140625 12.171875 29.828125 
Q 18.359375 34.515625 30.609375 34.515625 
L 43.21875 34.515625 
L 43.21875 35.40625 
Q 43.21875 41.609375 39.140625 45 
Q 35.0625 48.390625 27.6875 48.390625 
Q 23 48.390625 18.546875 47.265625 
Q 14.109375 46.140625 10.015625 43.890625 
L 10.015625 52.203125 
Q 14.9375 54.109375 19.578125 55.046875 
Q 24.21875 56 28.609375 56 
Q 40.484375 56 46.34375 49.84375 
Q 52.203125 43.703125 52.203125 31.203125 
z
" id="DejaVuSans-97"/>
       <path d="M 9.421875 75.984375 
L 18.40625 75.984375 
L 18.40625 0 
L 9.421875 0 
z
" id="DejaVuSans-108"/>
      </defs>
      <use xlink:href="#DejaVuSans-77"/>
      <use x="86.279297" xlink:href="#DejaVuSans-111"/>
      <use x="147.460938" xlink:href="#DejaVuSans-100"/>
      <use x="210.9375" xlink:href="#DejaVuSans-97"/>
      <use x="272.216797" xlink:href="#DejaVuSans-108"/>
      <use x="300" xlink:href="#DejaVuSans-105"/>
      <use x="327.783203" xlink:href="#DejaVuSans-116"/>
      <use x="366.992188" xlink:href="#DejaVuSans-121"/>
     </g>
    </g>
    <g id="patch_6">
     <path d="M 298.189219 92.498047 
L 331.189219 92.498047 
L 331.189219 80.948047 
L 298.189219 80.948047 
z
" style="fill:#c44e52;fill-opacity:0.25;stroke:#c44e52;stroke-linejoin:miter;stroke-width:1.5;"/>
    </g>
    <g id="text_10">
     <!-- Intero -->
     <g transform="translate(344.389219 92.498047)scale(0.165 -0.165)">
      <defs>
       <path d="M 9.8125 72.90625 
L 19.671875 72.90625 
L 19.671875 0 
L 9.8125 0 
z
" id="DejaVuSans-73"/>
       <path d="M 41.109375 46.296875 
Q 39.59375 47.171875 37.8125 47.578125 
Q 36.03125 48 33.890625 48 
Q 26.265625 48 22.1875 43.046875 
Q 18.109375 38.09375 18.109375 28.8125 
L 18.109375 0 
L 9.078125 0 
L 9.078125 54.6875 
L 18.109375 54.6875 
L 18.109375 46.1875 
Q 20.953125 51.171875 25.484375 53.578125 
Q 30.03125 56 36.53125 56 
Q 37.453125 56 38.578125 55.875 
Q 39.703125 55.765625 41.0625 55.515625 
z
" id="DejaVuSans-114"/>
      </defs>
      <use xlink:href="#DejaVuSans-73"/>
      <use x="29.492188" xlink:href="#DejaVuSans-110"/>
      <use x="92.871094" xlink:href="#DejaVuSans-116"/>
      <use x="132.080078" xlink:href="#DejaVuSans-101"/>
      <use x="193.603516" xlink:href="#DejaVuSans-114"/>
      <use x="232.466797" xlink:href="#DejaVuSans-111"/>
     </g>
    </g>
    <g id="patch_7">
     <path d="M 298.189219 116.716953 
L 331.189219 116.716953 
L 331.189219 105.166953 
L 298.189219 105.166953 
z
" style="fill:#4c72b0;fill-opacity:0.25;stroke:#4c72b0;stroke-linejoin:miter;stroke-width:1.5;"/>
    </g>
    <g id="text_11">
     <!-- Extero -->
     <g transform="translate(344.389219 116.716953)scale(0.165 -0.165)">
      <defs>
       <path d="M 9.8125 72.90625 
L 55.90625 72.90625 
L 55.90625 64.59375 
L 19.671875 64.59375 
L 19.671875 43.015625 
L 54.390625 43.015625 
L 54.390625 34.71875 
L 19.671875 34.71875 
L 19.671875 8.296875 
L 56.78125 8.296875 
L 56.78125 0 
L 9.8125 0 
z
" id="DejaVuSans-69"/>
       <path d="M 54.890625 54.6875 
L 35.109375 28.078125 
L 55.90625 0 
L 45.3125 0 
L 29.390625 21.484375 
L 13.484375 0 
L 2.875 0 
L 24.125 28.609375 
L 4.6875 54.6875 
L 15.28125 54.6875 
L 29.78125 35.203125 
L 44.28125 54.6875 
z
" id="DejaVuSans-120"/>
      </defs>
      <use xlink:href="#DejaVuSans-69"/>
      <use x="63.183594" xlink:href="#DejaVuSans-120"/>
      <use x="122.363281" xlink:href="#DejaVuSans-116"/>
      <use x="161.572266" xlink:href="#DejaVuSans-101"/>
      <use x="223.095703" xlink:href="#DejaVuSans-114"/>
      <use x="261.958984" xlink:href="#DejaVuSans-111"/>
     </g>
    </g>
   </g>
  </g>
  <g id="axes_2">
   <g id="patch_8">
    <path d="M 90.69 504.06 
L 412.56 504.06 
L 412.56 296.97 
L 90.69 296.97 
z
" style="fill:#ffffff;"/>
   </g>
   <g id="PolyCollection_3">
    <defs>
     <path d="M 106.555844 -71.94 
L 106.555844 -71.94 
L 115.125659 -71.94 
L 115.125659 -71.94 
L 123.695474 -71.94 
L 123.695474 -71.94 
L 132.265288 -71.94 
L 132.265288 -71.94 
L 140.835103 -71.94 
L 140.835103 -71.94 
L 149.404918 -71.94 
L 149.404918 -71.94 
L 157.974733 -71.94 
L 157.974733 -71.94 
L 166.544547 -71.94 
L 166.544547 -71.94 
L 175.114362 -71.94 
L 175.114362 -71.94 
L 183.684177 -71.94 
L 183.684177 -71.94 
L 192.253992 -71.94 
L 192.253992 -71.94 
L 200.823806 -71.94 
L 200.823806 -71.94 
L 209.393621 -71.94 
L 209.393621 -71.94 
L 217.963436 -71.94 
L 217.963436 -71.94 
L 226.533251 -71.94 
L 226.533251 -71.94 
L 235.103065 -71.94 
L 235.103065 -71.94 
L 243.67288 -71.94 
L 243.67288 -71.94 
L 252.242695 -71.94 
L 252.242695 -71.94 
L 260.81251 -71.94 
L 260.81251 -71.94 
L 269.382324 -71.94 
L 269.382324 -71.94 
L 277.952139 -71.94 
L 277.952139 -71.94 
L 286.521954 -71.94 
L 286.521954 -71.94 
L 295.091769 -71.94 
L 295.091769 -71.94 
L 303.661583 -71.94 
L 303.661583 -71.94 
L 312.231398 -71.94 
L 312.231398 -71.94 
L 320.801213 -71.94 
L 320.801213 -71.94 
L 329.371028 -71.94 
L 329.371028 -71.94 
L 337.940842 -71.94 
L 337.940842 -71.94 
L 346.510657 -71.94 
L 346.510657 -71.94 
L 355.080472 -71.94 
L 355.080472 -71.94 
L 363.650286 -71.94 
L 363.650286 -71.94 
L 372.220101 -71.94 
L 372.220101 -71.94 
L 380.789916 -71.94 
L 380.789916 -71.94 
L 389.359731 -71.94 
L 389.359731 -71.94 
L 397.929545 -71.94 
L 397.929545 -71.94 
L 397.929545 -71.94 
L 397.929545 -71.94 
L 397.929545 -71.94 
L 389.359731 -71.94 
L 389.359731 -71.94 
L 380.789916 -71.94 
L 380.789916 -71.94 
L 372.220101 -71.94 
L 372.220101 -71.94 
L 363.650286 -71.94 
L 363.650286 -71.94 
L 355.080472 -71.94 
L 355.080472 -71.94 
L 346.510657 -71.94 
L 346.510657 -71.94 
L 337.940842 -71.94 
L 337.940842 -73.818367 
L 329.371028 -73.818367 
L 329.371028 -71.94 
L 320.801213 -71.94 
L 320.801213 -73.818367 
L 312.231398 -73.818367 
L 312.231398 -75.696735 
L 303.661583 -75.696735 
L 303.661583 -83.210204 
L 295.091769 -83.210204 
L 295.091769 -109.507347 
L 286.521954 -109.507347 
L 286.521954 -167.736735 
L 277.952139 -167.736735 
L 277.952139 -231.601224 
L 269.382324 -231.601224 
L 269.382324 -269.168571 
L 260.81251 -269.168571 
L 260.81251 -205.304082 
L 252.242695 -205.304082 
L 252.242695 -132.047755 
L 243.67288 -132.047755 
L 243.67288 -86.966939 
L 235.103065 -86.966939 
L 235.103065 -83.210204 
L 226.533251 -83.210204 
L 226.533251 -77.575102 
L 217.963436 -77.575102 
L 217.963436 -73.818367 
L 209.393621 -73.818367 
L 209.393621 -71.94 
L 200.823806 -71.94 
L 200.823806 -71.94 
L 192.253992 -71.94 
L 192.253992 -71.94 
L 183.684177 -71.94 
L 183.684177 -71.94 
L 175.114362 -71.94 
L 175.114362 -71.94 
L 166.544547 -71.94 
L 166.544547 -71.94 
L 157.974733 -71.94 
L 157.974733 -71.94 
L 149.404918 -71.94 
L 149.404918 -71.94 
L 140.835103 -71.94 
L 140.835103 -71.94 
L 132.265288 -71.94 
L 132.265288 -71.94 
L 123.695474 -71.94 
L 123.695474 -71.94 
L 115.125659 -71.94 
L 115.125659 -71.94 
L 106.555844 -71.94 
z
" id="mc012813435" style="stroke:#4c72b0;stroke-width:1.5;"/>
    </defs>
    <g clip-path="url(#pc931fde319)">
     <use style="fill:#4c72b0;fill-opacity:0.25;stroke:#4c72b0;stroke-width:1.5;" x="0" xlink:href="#mc012813435" y="576"/>
    </g>
   </g>
   <g id="PolyCollection_4">
    <defs>
     <path d="M 106.555844 -77.575102 
L 106.555844 -71.94 
L 115.125659 -71.94 
L 115.125659 -71.94 
L 123.695474 -71.94 
L 123.695474 -71.94 
L 132.265288 -71.94 
L 132.265288 -71.94 
L 140.835103 -71.94 
L 140.835103 -71.94 
L 149.404918 -71.94 
L 149.404918 -71.94 
L 157.974733 -71.94 
L 157.974733 -71.94 
L 166.544547 -71.94 
L 166.544547 -71.94 
L 175.114362 -71.94 
L 175.114362 -71.94 
L 183.684177 -71.94 
L 183.684177 -71.94 
L 192.253992 -71.94 
L 192.253992 -71.94 
L 200.823806 -71.94 
L 200.823806 -71.94 
L 209.393621 -71.94 
L 209.393621 -71.94 
L 217.963436 -71.94 
L 217.963436 -71.94 
L 226.533251 -71.94 
L 226.533251 -71.94 
L 235.103065 -71.94 
L 235.103065 -71.94 
L 243.67288 -71.94 
L 243.67288 -71.94 
L 252.242695 -71.94 
L 252.242695 -71.94 
L 260.81251 -71.94 
L 260.81251 -71.94 
L 269.382324 -71.94 
L 269.382324 -71.94 
L 277.952139 -71.94 
L 277.952139 -71.94 
L 286.521954 -71.94 
L 286.521954 -71.94 
L 295.091769 -71.94 
L 295.091769 -71.94 
L 303.661583 -71.94 
L 303.661583 -71.94 
L 312.231398 -71.94 
L 312.231398 -71.94 
L 320.801213 -71.94 
L 320.801213 -71.94 
L 329.371028 -71.94 
L 329.371028 -71.94 
L 337.940842 -71.94 
L 337.940842 -71.94 
L 346.510657 -71.94 
L 346.510657 -71.94 
L 355.080472 -71.94 
L 355.080472 -71.94 
L 363.650286 -71.94 
L 363.650286 -71.94 
L 372.220101 -71.94 
L 372.220101 -71.94 
L 380.789916 -71.94 
L 380.789916 -71.94 
L 389.359731 -71.94 
L 389.359731 -71.94 
L 397.929545 -71.94 
L 397.929545 -71.94 
L 397.929545 -73.818367 
L 397.929545 -73.818367 
L 397.929545 -73.818367 
L 389.359731 -73.818367 
L 389.359731 -71.94 
L 380.789916 -71.94 
L 380.789916 -71.94 
L 372.220101 -71.94 
L 372.220101 -71.94 
L 363.650286 -71.94 
L 363.650286 -71.94 
L 355.080472 -71.94 
L 355.080472 -71.94 
L 346.510657 -71.94 
L 346.510657 -73.818367 
L 337.940842 -73.818367 
L 337.940842 -79.453469 
L 329.371028 -79.453469 
L 329.371028 -79.453469 
L 320.801213 -79.453469 
L 320.801213 -81.331837 
L 312.231398 -81.331837 
L 312.231398 -88.845306 
L 303.661583 -88.845306 
L 303.661583 -100.11551 
L 295.091769 -100.11551 
L 295.091769 -94.480408 
L 286.521954 -94.480408 
L 286.521954 -94.480408 
L 277.952139 -94.480408 
L 277.952139 -103.872245 
L 269.382324 -103.872245 
L 269.382324 -117.020816 
L 260.81251 -117.020816 
L 260.81251 -130.169388 
L 252.242695 -130.169388 
L 252.242695 -143.317959 
L 243.67288 -143.317959 
L 243.67288 -120.777551 
L 235.103065 -120.777551 
L 235.103065 -107.62898 
L 226.533251 -107.62898 
L 226.533251 -115.142449 
L 217.963436 -115.142449 
L 217.963436 -133.926122 
L 209.393621 -133.926122 
L 209.393621 -115.142449 
L 200.823806 -115.142449 
L 200.823806 -98.237143 
L 192.253992 -98.237143 
L 192.253992 -111.385714 
L 183.684177 -111.385714 
L 183.684177 -98.237143 
L 175.114362 -98.237143 
L 175.114362 -101.993878 
L 166.544547 -101.993878 
L 166.544547 -79.453469 
L 157.974733 -79.453469 
L 157.974733 -81.331837 
L 149.404918 -81.331837 
L 149.404918 -83.210204 
L 140.835103 -83.210204 
L 140.835103 -73.818367 
L 132.265288 -73.818367 
L 132.265288 -83.210204 
L 123.695474 -83.210204 
L 123.695474 -81.331837 
L 115.125659 -81.331837 
L 115.125659 -77.575102 
L 106.555844 -77.575102 
z
" id="mc27487c086" style="stroke:#c44e52;stroke-width:1.5;"/>
    </defs>
    <g clip-path="url(#pc931fde319)">
     <use style="fill:#c44e52;fill-opacity:0.25;stroke:#c44e52;stroke-width:1.5;" x="0" xlink:href="#mc27487c086" y="576"/>
    </g>
   </g>
   <g id="matplotlib.axis_3">
    <g id="xtick_5">
     <g id="line2d_11">
      <g>
       <use style="stroke:#000000;stroke-width:1.875;" x="99.788216" xlink:href="#ma55d17acf7" y="504.06"/>
      </g>
     </g>
     <g id="text_12">
      <!-- −40 -->
      <g transform="translate(82.376849 529.097422)scale(0.165 -0.165)">
       <defs>
        <path d="M 10.59375 35.5 
L 73.1875 35.5 
L 73.1875 27.203125 
L 10.59375 27.203125 
z
" id="DejaVuSans-8722"/>
        <path d="M 37.796875 64.3125 
L 12.890625 25.390625 
L 37.796875 25.390625 
z
M 35.203125 72.90625 
L 47.609375 72.90625 
L 47.609375 25.390625 
L 58.015625 25.390625 
L 58.015625 17.1875 
L 47.609375 17.1875 
L 47.609375 0 
L 37.796875 0 
L 37.796875 17.1875 
L 4.890625 17.1875 
L 4.890625 26.703125 
z
" id="DejaVuSans-52"/>
       </defs>
       <use xlink:href="#DejaVuSans-8722"/>
       <use x="83.789062" xlink:href="#DejaVuSans-52"/>
       <use x="147.412109" xlink:href="#DejaVuSans-48"/>
      </g>
     </g>
    </g>
    <g id="xtick_6">
     <g id="line2d_12">
      <g>
       <use style="stroke:#000000;stroke-width:1.875;" x="181.969489" xlink:href="#ma55d17acf7" y="504.06"/>
      </g>
     </g>
     <g id="text_13">
      <!-- −20 -->
      <g transform="translate(164.558122 529.097422)scale(0.165 -0.165)">
       <use xlink:href="#DejaVuSans-8722"/>
       <use x="83.789062" xlink:href="#DejaVuSans-50"/>
       <use x="147.412109" xlink:href="#DejaVuSans-48"/>
      </g>
     </g>
    </g>
    <g id="xtick_7">
     <g id="line2d_13">
      <g>
       <use style="stroke:#000000;stroke-width:1.875;" x="264.150761" xlink:href="#ma55d17acf7" y="504.06"/>
      </g>
     </g>
     <g id="text_14">
      <!-- 0 -->
      <g transform="translate(258.901699 529.097422)scale(0.165 -0.165)">
       <use xlink:href="#DejaVuSans-48"/>
      </g>
     </g>
    </g>
    <g id="xtick_8">
     <g id="line2d_14">
      <g>
       <use style="stroke:#000000;stroke-width:1.875;" x="346.332034" xlink:href="#ma55d17acf7" y="504.06"/>
      </g>
     </g>
     <g id="text_15">
      <!-- 20 -->
      <g transform="translate(335.833909 529.097422)scale(0.165 -0.165)">
       <use xlink:href="#DejaVuSans-50"/>
       <use x="63.623047" xlink:href="#DejaVuSans-48"/>
      </g>
     </g>
    </g>
    <g id="text_16">
     <!-- Threshold -->
     <g transform="translate(207.276094 550.206094)scale(0.18 -0.18)">
      <defs>
       <path d="M -0.296875 72.90625 
L 61.375 72.90625 
L 61.375 64.59375 
L 35.5 64.59375 
L 35.5 0 
L 25.59375 0 
L 25.59375 64.59375 
L -0.296875 64.59375 
z
" id="DejaVuSans-84"/>
       <path d="M 54.890625 33.015625 
L 54.890625 0 
L 45.90625 0 
L 45.90625 32.71875 
Q 45.90625 40.484375 42.875 44.328125 
Q 39.84375 48.1875 33.796875 48.1875 
Q 26.515625 48.1875 22.3125 43.546875 
Q 18.109375 38.921875 18.109375 30.90625 
L 18.109375 0 
L 9.078125 0 
L 9.078125 75.984375 
L 18.109375 75.984375 
L 18.109375 46.1875 
Q 21.34375 51.125 25.703125 53.5625 
Q 30.078125 56 35.796875 56 
Q 45.21875 56 50.046875 50.171875 
Q 54.890625 44.34375 54.890625 33.015625 
z
" id="DejaVuSans-104"/>
      </defs>
      <use xlink:href="#DejaVuSans-84"/>
      <use x="61.083984" xlink:href="#DejaVuSans-104"/>
      <use x="124.462891" xlink:href="#DejaVuSans-114"/>
      <use x="163.326172" xlink:href="#DejaVuSans-101"/>
      <use x="224.849609" xlink:href="#DejaVuSans-115"/>
      <use x="276.949219" xlink:href="#DejaVuSans-104"/>
      <use x="340.328125" xlink:href="#DejaVuSans-111"/>
      <use x="401.509766" xlink:href="#DejaVuSans-108"/>
      <use x="429.292969" xlink:href="#DejaVuSans-100"/>
     </g>
    </g>
   </g>
   <g id="matplotlib.axis_4">
    <g id="ytick_7">
     <g id="line2d_15">
      <g>
       <use style="stroke:#000000;stroke-width:1.875;" x="90.69" xlink:href="#m56a6ee3685" y="504.06"/>
      </g>
     </g>
     <g id="text_17">
      <!-- 0.000 -->
      <g transform="translate(30.953594 510.328711)scale(0.165 -0.165)">
       <use xlink:href="#DejaVuSans-48"/>
       <use x="63.623047" xlink:href="#DejaVuSans-46"/>
       <use x="95.410156" xlink:href="#DejaVuSans-48"/>
       <use x="159.033203" xlink:href="#DejaVuSans-48"/>
       <use x="222.65625" xlink:href="#DejaVuSans-48"/>
      </g>
     </g>
    </g>
    <g id="ytick_8">
     <g id="line2d_16">
      <g>
       <use style="stroke:#000000;stroke-width:1.875;" x="90.69" xlink:href="#m56a6ee3685" y="465.668492"/>
      </g>
     </g>
     <g id="text_18">
      <!-- 0.025 -->
      <g transform="translate(30.953594 471.937203)scale(0.165 -0.165)">
       <use xlink:href="#DejaVuSans-48"/>
       <use x="63.623047" xlink:href="#DejaVuSans-46"/>
       <use x="95.410156" xlink:href="#DejaVuSans-48"/>
       <use x="159.033203" xlink:href="#DejaVuSans-50"/>
       <use x="222.65625" xlink:href="#DejaVuSans-53"/>
      </g>
     </g>
    </g>
    <g id="ytick_9">
     <g id="line2d_17">
      <g>
       <use style="stroke:#000000;stroke-width:1.875;" x="90.69" xlink:href="#m56a6ee3685" y="427.276984"/>
      </g>
     </g>
     <g id="text_19">
      <!-- 0.050 -->
      <g transform="translate(30.953594 433.545694)scale(0.165 -0.165)">
       <use xlink:href="#DejaVuSans-48"/>
       <use x="63.623047" xlink:href="#DejaVuSans-46"/>
       <use x="95.410156" xlink:href="#DejaVuSans-48"/>
       <use x="159.033203" xlink:href="#DejaVuSans-53"/>
       <use x="222.65625" xlink:href="#DejaVuSans-48"/>
      </g>
     </g>
    </g>
    <g id="ytick_10">
     <g id="line2d_18">
      <g>
       <use style="stroke:#000000;stroke-width:1.875;" x="90.69" xlink:href="#m56a6ee3685" y="388.885475"/>
      </g>
     </g>
     <g id="text_20">
      <!-- 0.075 -->
      <g transform="translate(30.953594 395.154186)scale(0.165 -0.165)">
       <use xlink:href="#DejaVuSans-48"/>
       <use x="63.623047" xlink:href="#DejaVuSans-46"/>
       <use x="95.410156" xlink:href="#DejaVuSans-48"/>
       <use x="159.033203" xlink:href="#DejaVuSans-55"/>
       <use x="222.65625" xlink:href="#DejaVuSans-53"/>
      </g>
     </g>
    </g>
    <g id="ytick_11">
     <g id="line2d_19">
      <g>
       <use style="stroke:#000000;stroke-width:1.875;" x="90.69" xlink:href="#m56a6ee3685" y="350.493967"/>
      </g>
     </g>
     <g id="text_21">
      <!-- 0.100 -->
      <g transform="translate(30.953594 356.762678)scale(0.165 -0.165)">
       <use xlink:href="#DejaVuSans-48"/>
       <use x="63.623047" xlink:href="#DejaVuSans-46"/>
       <use x="95.410156" xlink:href="#DejaVuSans-49"/>
       <use x="159.033203" xlink:href="#DejaVuSans-48"/>
       <use x="222.65625" xlink:href="#DejaVuSans-48"/>
      </g>
     </g>
    </g>
    <g id="ytick_12">
     <g id="line2d_20">
      <g>
       <use style="stroke:#000000;stroke-width:1.875;" x="90.69" xlink:href="#m56a6ee3685" y="312.102459"/>
      </g>
     </g>
     <g id="text_22">
      <!-- 0.125 -->
      <g transform="translate(30.953594 318.37117)scale(0.165 -0.165)">
       <use xlink:href="#DejaVuSans-48"/>
       <use x="63.623047" xlink:href="#DejaVuSans-46"/>
       <use x="95.410156" xlink:href="#DejaVuSans-49"/>
       <use x="159.033203" xlink:href="#DejaVuSans-50"/>
       <use x="222.65625" xlink:href="#DejaVuSans-53"/>
      </g>
     </g>
    </g>
    <g id="text_23">
     <!-- Density -->
     <g transform="translate(23.210156 434.730469)rotate(-90)scale(0.18 -0.18)">
      <use xlink:href="#DejaVuSans-68"/>
      <use x="77.001953" xlink:href="#DejaVuSans-101"/>
      <use x="138.525391" xlink:href="#DejaVuSans-110"/>
      <use x="201.904297" xlink:href="#DejaVuSans-115"/>
      <use x="254.003906" xlink:href="#DejaVuSans-105"/>
      <use x="281.787109" xlink:href="#DejaVuSans-116"/>
      <use x="320.996094" xlink:href="#DejaVuSans-121"/>
     </g>
    </g>
   </g>
   <g id="patch_9">
    <path d="M 90.69 504.06 
L 90.69 296.97 
" style="fill:none;stroke:#000000;stroke-linecap:square;stroke-linejoin:miter;stroke-width:1.875;"/>
   </g>
   <g id="patch_10">
    <path d="M 90.69 504.06 
L 412.56 504.06 
" style="fill:none;stroke:#000000;stroke-linecap:square;stroke-linejoin:miter;stroke-width:1.875;"/>
   </g>
   <g id="text_24">
    <!-- Post-hoc Bayesian -->
    <g transform="translate(169.571719 290.97)scale(0.18 -0.18)">
     <defs>
      <path d="M 4.890625 31.390625 
L 31.203125 31.390625 
L 31.203125 23.390625 
L 4.890625 23.390625 
z
" id="DejaVuSans-45"/>
      <path d="M 48.78125 52.59375 
L 48.78125 44.1875 
Q 44.96875 46.296875 41.140625 47.34375 
Q 37.3125 48.390625 33.40625 48.390625 
Q 24.65625 48.390625 19.8125 42.84375 
Q 14.984375 37.3125 14.984375 27.296875 
Q 14.984375 17.28125 19.8125 11.734375 
Q 24.65625 6.203125 33.40625 6.203125 
Q 37.3125 6.203125 41.140625 7.25 
Q 44.96875 8.296875 48.78125 10.40625 
L 48.78125 2.09375 
Q 45.015625 0.34375 40.984375 -0.53125 
Q 36.96875 -1.421875 32.421875 -1.421875 
Q 20.0625 -1.421875 12.78125 6.34375 
Q 5.515625 14.109375 5.515625 27.296875 
Q 5.515625 40.671875 12.859375 48.328125 
Q 20.21875 56 33.015625 56 
Q 37.15625 56 41.109375 55.140625 
Q 45.0625 54.296875 48.78125 52.59375 
z
" id="DejaVuSans-99"/>
      <path id="DejaVuSans-32"/>
      <path d="M 19.671875 34.8125 
L 19.671875 8.109375 
L 35.5 8.109375 
Q 43.453125 8.109375 47.28125 11.40625 
Q 51.125 14.703125 51.125 21.484375 
Q 51.125 28.328125 47.28125 31.5625 
Q 43.453125 34.8125 35.5 34.8125 
z
M 19.671875 64.796875 
L 19.671875 42.828125 
L 34.28125 42.828125 
Q 41.5 42.828125 45.03125 45.53125 
Q 48.578125 48.25 48.578125 53.8125 
Q 48.578125 59.328125 45.03125 62.0625 
Q 41.5 64.796875 34.28125 64.796875 
z
M 9.8125 72.90625 
L 35.015625 72.90625 
Q 46.296875 72.90625 52.390625 68.21875 
Q 58.5 63.53125 58.5 54.890625 
Q 58.5 48.1875 55.375 44.234375 
Q 52.25 40.28125 46.1875 39.3125 
Q 53.46875 37.75 57.5 32.78125 
Q 61.53125 27.828125 61.53125 20.40625 
Q 61.53125 10.640625 54.890625 5.3125 
Q 48.25 0 35.984375 0 
L 9.8125 0 
z
" id="DejaVuSans-66"/>
     </defs>
     <use xlink:href="#DejaVuSans-80"/>
     <use x="56.677734" xlink:href="#DejaVuSans-111"/>
     <use x="117.859375" xlink:href="#DejaVuSans-115"/>
     <use x="169.958984" xlink:href="#DejaVuSans-116"/>
     <use x="209.167969" xlink:href="#DejaVuSans-45"/>
     <use x="245.251953" xlink:href="#DejaVuSans-104"/>
     <use x="308.630859" xlink:href="#DejaVuSans-111"/>
     <use x="369.8125" xlink:href="#DejaVuSans-99"/>
     <use x="424.792969" xlink:href="#DejaVuSans-32"/>
     <use x="456.580078" xlink:href="#DejaVuSans-66"/>
     <use x="525.183594" xlink:href="#DejaVuSans-97"/>
     <use x="586.462891" xlink:href="#DejaVuSans-121"/>
     <use x="645.642578" xlink:href="#DejaVuSans-101"/>
     <use x="707.166016" xlink:href="#DejaVuSans-115"/>
     <use x="759.265625" xlink:href="#DejaVuSans-105"/>
     <use x="787.048828" xlink:href="#DejaVuSans-97"/>
     <use x="848.328125" xlink:href="#DejaVuSans-110"/>
    </g>
   </g>
   <g id="legend_2">
    <g id="patch_11">
     <path d="M 294.889219 384.278438 
L 401.01 384.278438 
Q 404.31 384.278438 404.31 380.978438 
L 404.31 308.52 
Q 404.31 305.22 401.01 305.22 
L 294.889219 305.22 
Q 291.589219 305.22 291.589219 308.52 
L 291.589219 380.978438 
Q 291.589219 384.278438 294.889219 384.278438 
z
" style="fill:#ffffff;opacity:0.8;stroke:#cccccc;stroke-linejoin:miter;stroke-width:1.5;"/>
    </g>
    <g id="text_25">
     <!-- Modality -->
     <g transform="translate(309.592734 325.497188)scale(0.18 -0.18)">
      <use xlink:href="#DejaVuSans-77"/>
      <use x="86.279297" xlink:href="#DejaVuSans-111"/>
      <use x="147.460938" xlink:href="#DejaVuSans-100"/>
      <use x="210.9375" xlink:href="#DejaVuSans-97"/>
      <use x="272.216797" xlink:href="#DejaVuSans-108"/>
      <use x="300" xlink:href="#DejaVuSans-105"/>
      <use x="327.783203" xlink:href="#DejaVuSans-116"/>
      <use x="366.992188" xlink:href="#DejaVuSans-121"/>
     </g>
    </g>
    <g id="patch_12">
     <path d="M 298.189219 350.028047 
L 331.189219 350.028047 
L 331.189219 338.478047 
L 298.189219 338.478047 
z
" style="fill:#c44e52;fill-opacity:0.25;stroke:#c44e52;stroke-linejoin:miter;stroke-width:1.5;"/>
    </g>
    <g id="text_26">
     <!-- Intero -->
     <g transform="translate(344.389219 350.028047)scale(0.165 -0.165)">
      <use xlink:href="#DejaVuSans-73"/>
      <use x="29.492188" xlink:href="#DejaVuSans-110"/>
      <use x="92.871094" xlink:href="#DejaVuSans-116"/>
      <use x="132.080078" xlink:href="#DejaVuSans-101"/>
      <use x="193.603516" xlink:href="#DejaVuSans-114"/>
      <use x="232.466797" xlink:href="#DejaVuSans-111"/>
     </g>
    </g>
    <g id="patch_13">
     <path d="M 298.189219 374.246953 
L 331.189219 374.246953 
L 331.189219 362.696953 
L 298.189219 362.696953 
z
" style="fill:#4c72b0;fill-opacity:0.25;stroke:#4c72b0;stroke-linejoin:miter;stroke-width:1.5;"/>
    </g>
    <g id="text_27">
     <!-- Extero -->
     <g transform="translate(344.389219 374.246953)scale(0.165 -0.165)">
      <use xlink:href="#DejaVuSans-69"/>
      <use x="63.183594" xlink:href="#DejaVuSans-120"/>
      <use x="122.363281" xlink:href="#DejaVuSans-116"/>
      <use x="161.572266" xlink:href="#DejaVuSans-101"/>
      <use x="223.095703" xlink:href="#DejaVuSans-114"/>
      <use x="261.958984" xlink:href="#DejaVuSans-111"/>
     </g>
    </g>
   </g>
  </g>
 </g>
 <defs>
  <clipPath id="pd17a932f4c">
   <rect height="207.09" width="321.87" x="90.69" y="39.44"/>
  </clipPath>
  <clipPath id="pc931fde319">
   <rect height="207.09" width="321.87" x="90.69" y="296.97"/>
  </clipPath>
 </defs>
</svg>
